<?xml version="1.0" encoding="utf-8"?>
<!-- Generator: Adobe Illustrator 24.1.0, SVG Export Plug-In . SVG Version: 6.00 Build 0)  -->
<svg version="1.1" id="Calque_1" xmlns="http://www.w3.org/2000/svg" xmlns:xlink="http://www.w3.org/1999/xlink" x="0px" y="0px"
	 viewBox="0 0 502.7 303.8" style="enable-background:new 0 0 502.7 303.8;" xml:space="preserve">
<style type="text/css">
	.st0{fill:#FFAC7F;}
	.text{fill:#000000;}
	.st2{fill:#59A78D;}
	.st3{fill:#A04952;}
	.st4{fill:#73CAD6;}
	.st5{fill:#5A76B4;}
	.st6{fill:#D9D9D9;}
</style>
<g>
	<g>
		<rect x="98.1" y="23.8" class="st0" width="360" height="23.5"/>
		<g class="text">
			<path d="M463.6,30.7v-1.5h8.3v1.2c-0.8,0.9-1.6,2-2.4,3.5s-1.4,2.9-1.9,4.5c-0.3,1.1-0.5,2.3-0.6,3.5h-1.6c0-1,0.2-2.2,0.6-3.7
				s0.9-2.8,1.6-4.2s1.5-2.5,2.3-3.4H463.6z"/>
			<path d="M473.5,38.5l1.7-0.1c0.1,0.8,0.4,1.4,0.9,1.8s1,0.6,1.6,0.6c0.8,0,1.4-0.3,1.9-0.9s0.8-1.3,0.8-2.3
				c0-0.9-0.3-1.6-0.8-2.1s-1.2-0.8-2-0.8c-0.5,0-1,0.1-1.4,0.3c-0.4,0.2-0.7,0.5-1,0.9l-1.5-0.2l1.2-6.6h6.4v1.5h-5.1l-0.7,3.5
				c0.8-0.5,1.6-0.8,2.4-0.8c1.1,0,2.1,0.4,2.8,1.2s1.2,1.8,1.2,3c0,1.2-0.3,2.2-1,3c-0.8,1-2,1.6-3.4,1.6c-1.2,0-2.1-0.3-2.9-1
				S473.6,39.6,473.5,38.5z"/>
			<path d="M488.8,32.1c0-0.9,0.2-1.7,0.7-2.3s1.1-1,2-1c0.8,0,1.5,0.3,2,0.9s0.8,1.4,0.8,2.5c0,1.1-0.3,1.9-0.8,2.5
				c-0.5,0.6-1.2,0.9-2,0.9c-0.8,0-1.4-0.3-1.9-0.9S488.8,33.3,488.8,32.1z M491.6,29.9c-0.4,0-0.7,0.2-1,0.5s-0.4,1-0.4,1.9
				c0,0.8,0.1,1.4,0.4,1.7c0.3,0.3,0.6,0.5,1,0.5c0.4,0,0.7-0.2,1-0.5s0.4-1,0.4-1.9c0-0.8-0.1-1.4-0.4-1.8
				C492.3,30,492,29.9,491.6,29.9z M491.6,42.4l7-13.6h1.3l-7,13.6H491.6z M497.2,38.9c0-0.9,0.2-1.7,0.7-2.4c0.5-0.6,1.1-1,2-1
				c0.8,0,1.5,0.3,2,0.9s0.8,1.4,0.8,2.5c0,1.1-0.3,1.9-0.8,2.5c-0.5,0.6-1.2,0.9-2,0.9c-0.8,0-1.4-0.3-1.9-0.9
				C497.4,40.9,497.2,40,497.2,38.9z M499.9,36.6c-0.4,0-0.7,0.2-1,0.5s-0.4,1-0.4,1.9c0,0.8,0.1,1.4,0.4,1.7s0.6,0.5,1,0.5
				c0.4,0,0.7-0.2,1-0.5s0.4-1,0.4-1.9c0-0.8-0.1-1.4-0.4-1.8C500.7,36.8,500.3,36.6,499.9,36.6z"/>
		</g>
		<g class="text">
			<path d="M37,39.1l1.6-0.2c0.1,0.6,0.3,1.1,0.7,1.4s1,0.5,1.7,0.5c0.7,0,1.3-0.1,1.6-0.4s0.5-0.6,0.5-1c0-0.4-0.2-0.6-0.5-0.8
				c-0.2-0.1-0.8-0.3-1.6-0.5c-1.2-0.3-2-0.5-2.4-0.8s-0.8-0.5-1-0.9c-0.2-0.4-0.3-0.8-0.3-1.3c0-0.4,0.1-0.8,0.3-1.2
				c0.2-0.4,0.4-0.6,0.8-0.9c0.2-0.2,0.6-0.3,1-0.5s0.9-0.2,1.4-0.2c0.7,0,1.4,0.1,1.9,0.3s1,0.5,1.2,0.9c0.3,0.4,0.4,0.8,0.5,1.4
				l-1.5,0.2c-0.1-0.5-0.3-0.9-0.6-1.1s-0.8-0.4-1.4-0.4c-0.7,0-1.2,0.1-1.6,0.4s-0.5,0.5-0.5,0.8c0,0.2,0.1,0.4,0.2,0.6
				c0.1,0.2,0.3,0.3,0.6,0.4c0.2,0.1,0.6,0.2,1.4,0.4c1.1,0.3,1.9,0.5,2.3,0.7s0.8,0.5,1,0.8s0.4,0.8,0.4,1.4c0,0.5-0.2,1-0.5,1.5
				c-0.3,0.5-0.8,0.8-1.3,1.1c-0.6,0.3-1.2,0.4-2,0.4c-1.2,0-2.1-0.3-2.8-0.8S37.2,40.1,37,39.1z"/>
			<path d="M46,37.2c0-1.7,0.5-3,1.4-3.8c0.8-0.7,1.8-1,2.9-1c1.3,0,2.3,0.4,3.1,1.3s1.2,2,1.2,3.5c0,1.2-0.2,2.1-0.5,2.8
				c-0.4,0.7-0.9,1.2-1.6,1.6s-1.4,0.6-2.3,0.6c-1.3,0-2.4-0.4-3.2-1.3S46,38.8,46,37.2z M47.7,37.2c0,1.2,0.3,2.1,0.8,2.7
				c0.5,0.6,1.2,0.9,2,0.9c0.8,0,1.4-0.3,2-0.9s0.8-1.5,0.8-2.7c0-1.2-0.3-2-0.8-2.6c-0.5-0.6-1.2-0.9-2-0.9c-0.8,0-1.4,0.3-2,0.9
				S47.7,36,47.7,37.2z"/>
			<path d="M56.6,41.9V29h1.6v12.9H56.6z"/>
			<path d="M66.7,40.8c-0.6,0.5-1.1,0.8-1.7,1.1s-1.1,0.3-1.7,0.3c-1,0-1.8-0.3-2.4-0.8c-0.6-0.5-0.8-1.1-0.8-1.9
				c0-0.5,0.1-0.9,0.3-1.3c0.2-0.4,0.5-0.7,0.8-0.9s0.7-0.4,1.1-0.5c0.3-0.1,0.8-0.2,1.4-0.2c1.3-0.2,2.2-0.3,2.8-0.5
				c0-0.2,0-0.4,0-0.4c0-0.6-0.1-1.1-0.4-1.4c-0.4-0.4-1-0.5-1.8-0.5c-0.7,0-1.3,0.1-1.6,0.4s-0.6,0.7-0.8,1.4l-1.5-0.2
				c0.1-0.7,0.4-1.2,0.7-1.6c0.3-0.4,0.8-0.7,1.4-0.9c0.6-0.2,1.3-0.3,2.1-0.3c0.8,0,1.4,0.1,1.9,0.3s0.9,0.4,1.1,0.7
				c0.2,0.3,0.4,0.6,0.5,1.1c0.1,0.3,0.1,0.8,0.1,1.5V38c0,1.5,0,2.4,0.1,2.8c0.1,0.4,0.2,0.8,0.4,1.1h-1.7
				C66.9,41.6,66.8,41.2,66.7,40.8z M66.6,37.2c-0.6,0.2-1.4,0.4-2.6,0.6c-0.7,0.1-1.1,0.2-1.4,0.3s-0.5,0.3-0.6,0.5
				s-0.2,0.5-0.2,0.8c0,0.4,0.2,0.8,0.5,1.1s0.8,0.4,1.4,0.4c0.6,0,1.2-0.1,1.6-0.4s0.8-0.6,1-1.1c0.2-0.4,0.3-0.9,0.3-1.6V37.2z"/>
			<path d="M70.7,30.8V29h1.6v1.8H70.7z M70.7,41.9v-9.3h1.6v9.3H70.7z"/>
			<path d="M74.6,41.9v-9.3h1.4V34c0.4-0.7,0.7-1.1,1-1.3s0.6-0.3,1-0.3c0.5,0,1.1,0.2,1.6,0.5l-0.5,1.5C78.8,34.1,78.4,34,78,34
				c-0.3,0-0.7,0.1-0.9,0.3s-0.5,0.5-0.6,0.9c-0.2,0.6-0.3,1.2-0.3,1.8v4.9H74.6z"/>
			<path d="M87,38.9l1.6,0.2c-0.3,1-0.7,1.7-1.4,2.2s-1.6,0.8-2.7,0.8c-1.4,0-2.4-0.4-3.2-1.3c-0.8-0.8-1.2-2-1.2-3.5
				c0-1.6,0.4-2.8,1.2-3.7s1.9-1.3,3.1-1.3c1.2,0,2.3,0.4,3.1,1.3s1.2,2,1.2,3.6c0,0.1,0,0.2,0,0.4h-7c0.1,1,0.3,1.8,0.9,2.4
				s1.2,0.8,2,0.8c0.6,0,1.1-0.2,1.5-0.5S86.8,39.6,87,38.9z M81.8,36.3h5.2c-0.1-0.8-0.3-1.4-0.6-1.8c-0.5-0.6-1.2-0.9-2-0.9
				c-0.7,0-1.3,0.2-1.8,0.7S81.9,35.5,81.8,36.3z"/>
		</g>
	</g>
	<g>
		<rect x="98.1" y="82" class="st2" width="277.7" height="23.5"/>
		<g class="text">
			<path d="M390.8,90.3l-1.6,0.1c-0.1-0.6-0.3-1.1-0.6-1.4c-0.4-0.5-1-0.7-1.6-0.7c-0.5,0-0.9,0.1-1.3,0.4c-0.5,0.4-0.9,0.9-1.2,1.6
				s-0.4,1.7-0.4,3c0.4-0.6,0.8-1,1.4-1.3s1.1-0.4,1.7-0.4c1.1,0,2,0.4,2.7,1.2s1.1,1.8,1.1,3c0,0.8-0.2,1.6-0.5,2.3
				c-0.3,0.7-0.8,1.2-1.4,1.6s-1.3,0.6-2.1,0.6c-1.3,0-2.4-0.5-3.2-1.5s-1.2-2.6-1.2-4.8c0-2.5,0.5-4.3,1.4-5.4
				c0.8-1,1.9-1.5,3.2-1.5c1,0,1.8,0.3,2.5,0.9S390.7,89.3,390.8,90.3z M384.3,95.9c0,0.5,0.1,1.1,0.3,1.6s0.6,0.9,1,1.1
				c0.4,0.3,0.9,0.4,1.3,0.4c0.7,0,1.2-0.3,1.7-0.8s0.7-1.3,0.7-2.2c0-0.9-0.2-1.6-0.7-2.1s-1.1-0.8-1.8-0.8c-0.7,0-1.3,0.3-1.8,0.8
				S384.3,95.1,384.3,95.9z"/>
			<path d="M392.7,88.9v-1.5h8.3v1.2c-0.8,0.9-1.6,2-2.4,3.5s-1.4,2.9-1.9,4.5c-0.3,1.1-0.5,2.3-0.6,3.5h-1.6c0-1,0.2-2.2,0.6-3.7
				s0.9-2.8,1.6-4.2s1.5-2.5,2.3-3.4H392.7z"/>
			<path d="M407.9,90.3c0-0.9,0.2-1.7,0.7-2.3s1.1-1,2-1c0.8,0,1.5,0.3,2,0.9s0.8,1.4,0.8,2.5c0,1.1-0.3,1.9-0.8,2.5
				c-0.5,0.6-1.2,0.9-2,0.9c-0.8,0-1.4-0.3-1.9-0.9S407.9,91.5,407.9,90.3z M410.7,88.1c-0.4,0-0.7,0.2-1,0.5s-0.4,1-0.4,1.9
				c0,0.8,0.1,1.4,0.4,1.7c0.3,0.3,0.6,0.5,1,0.5c0.4,0,0.7-0.2,1-0.5s0.4-1,0.4-1.9c0-0.8-0.1-1.4-0.4-1.8
				C411.4,88.2,411.1,88.1,410.7,88.1z M410.7,100.5l7-13.6h1.3l-7,13.6H410.7z M416.3,97.1c0-0.9,0.2-1.7,0.7-2.4
				c0.5-0.6,1.1-1,2-1c0.8,0,1.5,0.3,2,0.9s0.8,1.4,0.8,2.5c0,1.1-0.3,1.9-0.8,2.5c-0.5,0.6-1.2,0.9-2,0.9c-0.8,0-1.4-0.3-1.9-0.9
				C416.5,99.1,416.3,98.2,416.3,97.1z M419,94.8c-0.4,0-0.7,0.2-1,0.5s-0.4,1-0.4,1.9c0,0.8,0.1,1.4,0.4,1.7s0.6,0.5,1,0.5
				c0.4,0,0.7-0.2,1-0.5s0.4-1,0.4-1.9c0-0.8-0.1-1.4-0.4-1.8C419.7,95,419.4,94.8,419,94.8z"/>
		</g>
		<g class="text">
			<path d="M15.1,100.1h-1.5V87.2h1.6v4.6c0.7-0.8,1.5-1.3,2.6-1.3c0.6,0,1.1,0.1,1.6,0.3s0.9,0.6,1.3,1c0.3,0.4,0.6,0.9,0.8,1.5
				s0.3,1.2,0.3,1.9c0,1.6-0.4,2.8-1.2,3.7s-1.7,1.3-2.8,1.3c-1.1,0-2-0.5-2.6-1.4V100.1z M15.1,95.4c0,1.1,0.2,1.9,0.5,2.4
				c0.5,0.8,1.2,1.2,2,1.2c0.7,0,1.3-0.3,1.8-0.9s0.8-1.5,0.8-2.7c0-1.2-0.2-2.1-0.7-2.7s-1.1-0.9-1.8-0.9c-0.7,0-1.3,0.3-1.8,0.9
				C15.3,93.4,15.1,94.2,15.1,95.4z"/>
			<path d="M23.6,89v-1.8h1.6V89H23.6z M23.6,100.1v-9.3h1.6v9.3H23.6z"/>
			<path d="M27,95.4c0-1.7,0.5-3,1.4-3.8c0.8-0.7,1.8-1,2.9-1c1.3,0,2.3,0.4,3.1,1.3s1.2,2,1.2,3.5c0,1.2-0.2,2.1-0.5,2.8
				c-0.4,0.7-0.9,1.2-1.6,1.6s-1.4,0.6-2.3,0.6c-1.3,0-2.4-0.4-3.2-1.3S27,97,27,95.4z M28.7,95.4c0,1.2,0.3,2.1,0.8,2.7
				c0.5,0.6,1.2,0.9,2,0.9c0.8,0,1.4-0.3,2-0.9s0.8-1.5,0.8-2.7c0-1.2-0.3-2-0.8-2.6c-0.5-0.6-1.2-0.9-2-0.9c-0.8,0-1.4,0.3-2,0.9
				S28.7,94.2,28.7,95.4z"/>
			<path d="M37.6,100.1v-9.3h1.4v1.3c0.3-0.5,0.7-0.8,1.2-1.1s1-0.4,1.7-0.4c0.7,0,1.3,0.1,1.7,0.4s0.8,0.7,0.9,1.2
				c0.7-1.1,1.7-1.6,2.9-1.6c0.9,0,1.6,0.3,2.1,0.8s0.7,1.3,0.7,2.4v6.4h-1.6v-5.9c0-0.6-0.1-1.1-0.2-1.4s-0.3-0.5-0.6-0.7
				s-0.6-0.3-0.9-0.3c-0.7,0-1.2,0.2-1.6,0.7c-0.4,0.4-0.7,1.1-0.7,2.1v5.4h-1.6V94c0-0.7-0.1-1.2-0.4-1.6s-0.7-0.5-1.3-0.5
				c-0.4,0-0.9,0.1-1.2,0.4s-0.7,0.6-0.8,1s-0.3,1.1-0.3,2v4.8H37.6z"/>
			<path d="M58.7,98.9c-0.6,0.5-1.1,0.8-1.7,1.1s-1.1,0.3-1.7,0.3c-1,0-1.8-0.3-2.4-0.8c-0.6-0.5-0.8-1.1-0.8-1.9
				c0-0.5,0.1-0.9,0.3-1.3c0.2-0.4,0.5-0.7,0.8-0.9s0.7-0.4,1.1-0.5c0.3-0.1,0.8-0.2,1.4-0.2c1.3-0.2,2.2-0.3,2.8-0.5
				c0-0.2,0-0.4,0-0.4c0-0.6-0.1-1.1-0.4-1.4c-0.4-0.4-1-0.5-1.8-0.5c-0.7,0-1.3,0.1-1.6,0.4s-0.6,0.7-0.8,1.4l-1.5-0.2
				c0.1-0.7,0.4-1.2,0.7-1.6c0.3-0.4,0.8-0.7,1.4-0.9c0.6-0.2,1.3-0.3,2.1-0.3c0.8,0,1.4,0.1,1.9,0.3s0.9,0.4,1.1,0.7
				c0.2,0.3,0.4,0.6,0.5,1.1c0.1,0.3,0.1,0.8,0.1,1.5v2.1c0,1.5,0,2.4,0.1,2.8c0.1,0.4,0.2,0.8,0.4,1.1H59
				C58.9,99.8,58.8,99.4,58.7,98.9z M58.6,95.4C58,95.6,57.2,95.8,56,96c-0.7,0.1-1.1,0.2-1.4,0.3s-0.5,0.3-0.6,0.5
				s-0.2,0.5-0.2,0.8c0,0.4,0.2,0.8,0.5,1.1s0.8,0.4,1.4,0.4c0.6,0,1.2-0.1,1.6-0.4s0.8-0.6,1-1.1c0.2-0.4,0.3-0.9,0.3-1.6V95.4z"/>
			<path d="M62,97.3l1.6-0.2c0.1,0.6,0.3,1.1,0.7,1.4s1,0.5,1.7,0.5c0.7,0,1.3-0.1,1.6-0.4s0.5-0.6,0.5-1c0-0.4-0.2-0.6-0.5-0.8
				c-0.2-0.1-0.8-0.3-1.6-0.5c-1.2-0.3-2-0.5-2.4-0.8s-0.8-0.5-1-0.9c-0.2-0.4-0.3-0.8-0.3-1.3c0-0.4,0.1-0.8,0.3-1.2
				c0.2-0.4,0.4-0.6,0.8-0.9c0.2-0.2,0.6-0.3,1-0.5s0.9-0.2,1.4-0.2c0.7,0,1.4,0.1,1.9,0.3s1,0.5,1.2,0.9c0.3,0.4,0.4,0.8,0.5,1.4
				l-1.5,0.2c-0.1-0.5-0.3-0.9-0.6-1.1s-0.8-0.4-1.4-0.4c-0.7,0-1.2,0.1-1.6,0.4s-0.5,0.5-0.5,0.8c0,0.2,0.1,0.4,0.2,0.6
				c0.1,0.2,0.3,0.3,0.6,0.4c0.2,0.1,0.6,0.2,1.4,0.4c1.1,0.3,1.9,0.5,2.3,0.7s0.8,0.5,1,0.8s0.4,0.8,0.4,1.4c0,0.5-0.2,1-0.5,1.5
				c-0.3,0.5-0.8,0.8-1.3,1.1c-0.6,0.3-1.2,0.4-2,0.4c-1.2,0-2.1-0.3-2.8-0.8S62.2,98.3,62,97.3z"/>
			<path d="M71,97.3l1.6-0.2c0.1,0.6,0.3,1.1,0.7,1.4s1,0.5,1.7,0.5c0.7,0,1.3-0.1,1.6-0.4s0.5-0.6,0.5-1c0-0.4-0.2-0.6-0.5-0.8
				c-0.2-0.1-0.8-0.3-1.6-0.5c-1.2-0.3-2-0.5-2.4-0.8s-0.8-0.5-1-0.9c-0.2-0.4-0.3-0.8-0.3-1.3c0-0.4,0.1-0.8,0.3-1.2
				c0.2-0.4,0.4-0.6,0.8-0.9c0.2-0.2,0.6-0.3,1-0.5s0.9-0.2,1.4-0.2c0.7,0,1.4,0.1,1.9,0.3s1,0.5,1.2,0.9c0.3,0.4,0.4,0.8,0.5,1.4
				l-1.5,0.2c-0.1-0.5-0.3-0.9-0.6-1.1s-0.8-0.4-1.4-0.4c-0.7,0-1.2,0.1-1.6,0.4s-0.5,0.5-0.5,0.8c0,0.2,0.1,0.4,0.2,0.6
				c0.1,0.2,0.3,0.3,0.6,0.4c0.2,0.1,0.6,0.2,1.4,0.4c1.1,0.3,1.9,0.5,2.3,0.7s0.8,0.5,1,0.8s0.4,0.8,0.4,1.4c0,0.5-0.2,1-0.5,1.5
				c-0.3,0.5-0.8,0.8-1.3,1.1c-0.6,0.3-1.2,0.4-2,0.4c-1.2,0-2.1-0.3-2.8-0.8S71.2,98.3,71,97.3z"/>
			<path d="M87,97.1l1.6,0.2c-0.3,1-0.7,1.7-1.4,2.2s-1.6,0.8-2.7,0.8c-1.4,0-2.4-0.4-3.2-1.3c-0.8-0.8-1.2-2-1.2-3.5
				c0-1.6,0.4-2.8,1.2-3.7s1.9-1.3,3.1-1.3c1.2,0,2.3,0.4,3.1,1.3s1.2,2,1.2,3.6c0,0.1,0,0.2,0,0.4h-7c0.1,1,0.3,1.8,0.9,2.4
				s1.2,0.8,2,0.8c0.6,0,1.1-0.2,1.5-0.5S86.8,97.8,87,97.1z M81.8,94.5h5.2c-0.1-0.8-0.3-1.4-0.6-1.8c-0.5-0.6-1.2-0.9-2-0.9
				c-0.7,0-1.3,0.2-1.8,0.7S81.9,93.7,81.8,94.5z"/>
		</g>
	</g>
	<g>
		<rect x="98.1" y="141" class="st3" width="226.3" height="23.5"/>
		<g class="text">
			<path d="M338.5,149.3l-1.6,0.1c-0.1-0.6-0.3-1.1-0.6-1.4c-0.4-0.5-1-0.7-1.6-0.7c-0.5,0-0.9,0.1-1.3,0.4
				c-0.5,0.4-0.9,0.9-1.2,1.6s-0.4,1.7-0.4,3c0.4-0.6,0.8-1,1.4-1.3s1.1-0.4,1.7-0.4c1.1,0,2,0.4,2.7,1.2s1.1,1.8,1.1,3
				c0,0.8-0.2,1.6-0.5,2.3c-0.3,0.7-0.8,1.2-1.4,1.6s-1.3,0.6-2.1,0.6c-1.3,0-2.4-0.5-3.2-1.5c-0.8-1-1.2-2.6-1.2-4.8
				c0-2.5,0.5-4.3,1.4-5.4c0.8-1,1.9-1.5,3.2-1.5c1,0,1.8,0.3,2.5,0.9S338.4,148.3,338.5,149.3z M332.1,154.8c0,0.5,0.1,1.1,0.3,1.6
				s0.6,0.9,1,1.1c0.4,0.3,0.9,0.4,1.3,0.4c0.7,0,1.2-0.3,1.7-0.8s0.7-1.3,0.7-2.2c0-0.9-0.2-1.6-0.7-2.1c-0.5-0.5-1.1-0.8-1.8-0.8
				c-0.7,0-1.3,0.3-1.8,0.8C332.3,153.3,332.1,154,332.1,154.8z"/>
			<path d="M348.6,157.5v1.5h-8.5c0-0.4,0-0.7,0.2-1.1c0.2-0.6,0.6-1.2,1-1.7s1.2-1.2,2.1-2c1.4-1.1,2.3-2.1,2.8-2.7
				s0.7-1.3,0.7-1.9c0-0.6-0.2-1.2-0.7-1.6c-0.4-0.4-1-0.6-1.8-0.6c-0.8,0-1.4,0.2-1.8,0.7s-0.7,1.1-0.7,1.9l-1.6-0.2
				c0.1-1.2,0.5-2.1,1.3-2.8c0.7-0.6,1.7-1,2.9-1c1.2,0,2.2,0.3,2.9,1s1.1,1.5,1.1,2.5c0,0.5-0.1,1-0.3,1.5s-0.6,1-1.1,1.6
				c-0.5,0.6-1.3,1.3-2.4,2.3c-0.9,0.8-1.6,1.3-1.8,1.6c-0.3,0.3-0.5,0.6-0.7,0.9H348.6z"/>
			<path d="M355.6,149.2c0-0.9,0.2-1.7,0.7-2.3s1.1-1,2-1c0.8,0,1.5,0.3,2,0.9s0.8,1.4,0.8,2.5c0,1.1-0.3,1.9-0.8,2.5
				c-0.5,0.6-1.2,0.9-2,0.9c-0.8,0-1.4-0.3-1.9-0.9S355.6,150.4,355.6,149.2z M358.4,147c-0.4,0-0.7,0.2-1,0.5s-0.4,1-0.4,1.9
				c0,0.8,0.1,1.4,0.4,1.7c0.3,0.3,0.6,0.5,1,0.5c0.4,0,0.7-0.2,1-0.5s0.4-1,0.4-1.9c0-0.8-0.1-1.4-0.4-1.8
				C359.1,147.2,358.8,147,358.4,147z M358.4,159.5l7-13.6h1.3l-7,13.6H358.4z M364,156c0-0.9,0.2-1.7,0.7-2.4c0.5-0.6,1.1-1,2-1
				c0.8,0,1.5,0.3,2,0.9c0.5,0.6,0.8,1.4,0.8,2.5c0,1.1-0.3,1.9-0.8,2.5c-0.5,0.6-1.2,0.9-2,0.9c-0.8,0-1.4-0.3-1.9-0.9
				S364,157.2,364,156z M366.7,153.8c-0.4,0-0.7,0.2-1,0.5s-0.4,1-0.4,1.9c0,0.8,0.1,1.4,0.4,1.7s0.6,0.5,1,0.5c0.4,0,0.7-0.2,1-0.5
				s0.4-1,0.4-1.9c0-0.8-0.1-1.4-0.4-1.8C367.5,153.9,367.1,153.8,366.7,153.8z"/>
		</g>
		<g class="text">
			<path d="M0.3,158.1l1.5,0.2c0.1,0.5,0.2,0.8,0.5,1c0.4,0.3,0.9,0.4,1.6,0.4c0.7,0,1.3-0.1,1.7-0.4s0.7-0.7,0.8-1.2
				c0.1-0.3,0.1-1,0.1-2c-0.7,0.8-1.6,1.2-2.6,1.2c-1.3,0-2.3-0.5-3-1.4s-1.1-2-1.1-3.3c0-0.9,0.2-1.7,0.5-2.5
				c0.3-0.8,0.8-1.3,1.4-1.7s1.3-0.6,2.2-0.6c1.1,0,2,0.4,2.7,1.3V148h1.5v8.1c0,1.5-0.1,2.5-0.4,3.1c-0.3,0.6-0.8,1.1-1.4,1.4
				s-1.4,0.5-2.4,0.5c-1.1,0-2-0.3-2.7-0.8C0.6,159.8,0.3,159.1,0.3,158.1z M1.6,152.5c0,1.2,0.2,2.1,0.7,2.7s1.1,0.8,1.8,0.8
				c0.7,0,1.3-0.3,1.8-0.8s0.7-1.4,0.7-2.6c0-1.1-0.3-2-0.8-2.6s-1.1-0.9-1.8-0.9c-0.7,0-1.3,0.3-1.8,0.9
				C1.9,150.5,1.6,151.3,1.6,152.5z"/>
			<path d="M17,154.3l1.6,0.2c-0.3,1-0.7,1.7-1.4,2.2s-1.6,0.8-2.7,0.8c-1.4,0-2.4-0.4-3.2-1.3c-0.8-0.8-1.2-2-1.2-3.5
				c0-1.6,0.4-2.8,1.2-3.7s1.9-1.3,3.1-1.3c1.2,0,2.3,0.4,3.1,1.3s1.2,2,1.2,3.6c0,0.1,0,0.2,0,0.4h-7c0.1,1,0.3,1.8,0.9,2.4
				s1.2,0.8,2,0.8c0.6,0,1.1-0.2,1.5-0.5S16.8,155,17,154.3z M11.8,151.7H17c-0.1-0.8-0.3-1.4-0.6-1.8c-0.5-0.6-1.2-0.9-2-0.9
				c-0.7,0-1.3,0.2-1.8,0.7S11.9,150.9,11.8,151.7z M13.5,146.8l1.2-2.5h2.1l-1.9,2.5H13.5z"/>
			<path d="M20,152.6c0-1.7,0.5-3,1.4-3.8c0.8-0.7,1.8-1,2.9-1c1.3,0,2.3,0.4,3.1,1.3s1.2,2,1.2,3.5c0,1.2-0.2,2.1-0.5,2.8
				c-0.4,0.7-0.9,1.2-1.6,1.6s-1.4,0.6-2.3,0.6c-1.3,0-2.4-0.4-3.2-1.3S20,154.2,20,152.6z M21.7,152.6c0,1.2,0.3,2.1,0.8,2.7
				c0.5,0.6,1.2,0.9,2,0.9c0.8,0,1.4-0.3,2-0.9s0.8-1.5,0.8-2.7c0-1.2-0.3-2-0.8-2.6c-0.5-0.6-1.2-0.9-2-0.9c-0.8,0-1.4,0.3-2,0.9
				S21.7,151.4,21.7,152.6z"/>
			<path d="M34.1,155.9l0.2,1.4c-0.4,0.1-0.8,0.1-1.2,0.1c-0.6,0-1-0.1-1.3-0.3s-0.5-0.4-0.7-0.7s-0.2-0.9-0.2-1.9v-5.4h-1.2V148
				h1.2v-2.3l1.6-0.9v3.3h1.6v1.2h-1.6v5.5c0,0.5,0,0.7,0.1,0.9s0.1,0.2,0.3,0.3s0.3,0.1,0.5,0.1C33.6,155.9,33.8,155.9,34.1,155.9z
				"/>
			<path d="M35.6,157.3v-12.9h1.6v4.6c0.7-0.9,1.7-1.3,2.8-1.3c0.7,0,1.3,0.1,1.8,0.4c0.5,0.3,0.9,0.6,1.1,1.1s0.3,1.2,0.3,2.1v5.9
				h-1.6v-5.9c0-0.8-0.2-1.4-0.5-1.7c-0.3-0.4-0.8-0.5-1.5-0.5c-0.5,0-0.9,0.1-1.3,0.4c-0.4,0.2-0.7,0.6-0.9,1s-0.3,1-0.3,1.7v5.1
				H35.6z"/>
			<path d="M52,154.3l1.6,0.2c-0.3,1-0.7,1.7-1.4,2.2s-1.6,0.8-2.7,0.8c-1.4,0-2.4-0.4-3.2-1.3c-0.8-0.8-1.2-2-1.2-3.5
				c0-1.6,0.4-2.8,1.2-3.7s1.9-1.3,3.1-1.3c1.2,0,2.3,0.4,3.1,1.3s1.2,2,1.2,3.6c0,0.1,0,0.2,0,0.4h-7c0.1,1,0.3,1.8,0.9,2.4
				s1.2,0.8,2,0.8c0.6,0,1.1-0.2,1.5-0.5S51.8,155,52,154.3z M46.8,151.7h5.2c-0.1-0.8-0.3-1.4-0.6-1.8c-0.5-0.6-1.2-0.9-2-0.9
				c-0.7,0-1.3,0.2-1.8,0.7S46.9,150.9,46.8,151.7z"/>
			<path d="M55.6,157.3V148h1.4v1.4c0.4-0.7,0.7-1.1,1-1.3s0.6-0.3,1-0.3c0.5,0,1.1,0.2,1.6,0.5l-0.5,1.5c-0.4-0.2-0.8-0.3-1.2-0.3
				c-0.3,0-0.7,0.1-0.9,0.3s-0.5,0.5-0.6,0.9c-0.2,0.6-0.3,1.2-0.3,1.8v4.9H55.6z"/>
			<path d="M61.7,157.3V148h1.4v1.3c0.3-0.5,0.7-0.8,1.2-1.1s1-0.4,1.7-0.4c0.7,0,1.3,0.1,1.7,0.4s0.8,0.7,0.9,1.2
				c0.7-1.1,1.7-1.6,2.9-1.6c0.9,0,1.6,0.3,2.1,0.8s0.7,1.3,0.7,2.4v6.4h-1.6v-5.9c0-0.6-0.1-1.1-0.2-1.4s-0.3-0.5-0.6-0.7
				s-0.6-0.3-0.9-0.3c-0.7,0-1.2,0.2-1.6,0.7c-0.4,0.4-0.7,1.1-0.7,2.1v5.4h-1.6v-6.1c0-0.7-0.1-1.2-0.4-1.6s-0.7-0.5-1.3-0.5
				c-0.4,0-0.9,0.1-1.2,0.4s-0.7,0.6-0.8,1s-0.3,1.1-0.3,2v4.8H61.7z"/>
			<path d="M76.7,146.2v-1.8h1.6v1.8H76.7z M76.7,157.3V148h1.6v9.3H76.7z"/>
			<path d="M87,154.3l1.6,0.2c-0.3,1-0.7,1.7-1.4,2.2s-1.6,0.8-2.7,0.8c-1.4,0-2.4-0.4-3.2-1.3c-0.8-0.8-1.2-2-1.2-3.5
				c0-1.6,0.4-2.8,1.2-3.7s1.9-1.3,3.1-1.3c1.2,0,2.3,0.4,3.1,1.3s1.2,2,1.2,3.6c0,0.1,0,0.2,0,0.4h-7c0.1,1,0.3,1.8,0.9,2.4
				s1.2,0.8,2,0.8c0.6,0,1.1-0.2,1.5-0.5S86.8,155,87,154.3z M81.8,151.7h5.2c-0.1-0.8-0.3-1.4-0.6-1.8c-0.5-0.6-1.2-0.9-2-0.9
				c-0.7,0-1.3,0.2-1.8,0.7S81.9,150.9,81.8,151.7z"/>
		</g>
	</g>
	<g>
		<rect x="98.1" y="199.3" class="st4" width="154.3" height="23.5"/>
		<g class="text">
			<path d="M258,213.9l1.7-0.1c0.1,0.8,0.4,1.4,0.9,1.8s1,0.6,1.6,0.6c0.8,0,1.4-0.3,1.9-0.9s0.8-1.3,0.8-2.3c0-0.9-0.3-1.6-0.8-2.1
				s-1.2-0.8-2-0.8c-0.5,0-1,0.1-1.4,0.3c-0.4,0.2-0.7,0.5-1,0.9l-1.5-0.2l1.2-6.6h6.4v1.5h-5.1l-0.7,3.5c0.8-0.5,1.6-0.8,2.4-0.8
				c1.1,0,2.1,0.4,2.8,1.2s1.2,1.8,1.2,3c0,1.2-0.3,2.2-1,3c-0.8,1-2,1.6-3.4,1.6c-1.2,0-2.1-0.3-2.9-1S258.1,215,258,213.9z"/>
			<path d="M268,213.9l1.7-0.1c0.1,0.8,0.4,1.4,0.9,1.8s1,0.6,1.6,0.6c0.8,0,1.4-0.3,1.9-0.9s0.8-1.3,0.8-2.3c0-0.9-0.3-1.6-0.8-2.1
				s-1.2-0.8-2-0.8c-0.5,0-1,0.1-1.4,0.3c-0.4,0.2-0.7,0.5-1,0.9l-1.5-0.2l1.2-6.6h6.4v1.5h-5.1l-0.7,3.5c0.8-0.5,1.6-0.8,2.4-0.8
				c1.1,0,2.1,0.4,2.8,1.2s1.2,1.8,1.2,3c0,1.2-0.3,2.2-1,3c-0.8,1-2,1.6-3.4,1.6c-1.2,0-2.1-0.3-2.9-1S268.1,215,268,213.9z"/>
			<path d="M283.3,207.5c0-0.9,0.2-1.7,0.7-2.3s1.1-1,2-1c0.8,0,1.5,0.3,2,0.9s0.8,1.4,0.8,2.5c0,1.1-0.3,1.9-0.8,2.5
				c-0.5,0.6-1.2,0.9-2,0.9c-0.8,0-1.4-0.3-1.9-0.9S283.3,208.7,283.3,207.5z M286.1,205.3c-0.4,0-0.7,0.2-1,0.5s-0.4,1-0.4,1.9
				c0,0.8,0.1,1.4,0.4,1.7c0.3,0.3,0.6,0.5,1,0.5c0.4,0,0.7-0.2,1-0.5s0.4-1,0.4-1.9c0-0.8-0.1-1.4-0.4-1.8
				C286.8,205.5,286.5,205.3,286.1,205.3z M286.1,217.8l7-13.6h1.3l-7,13.6H286.1z M291.7,214.3c0-0.9,0.2-1.7,0.7-2.4
				c0.5-0.6,1.1-1,2-1c0.8,0,1.5,0.3,2,0.9s0.8,1.4,0.8,2.5c0,1.1-0.3,1.9-0.8,2.5c-0.5,0.6-1.2,0.9-2,0.9c-0.8,0-1.4-0.3-1.9-0.9
				C291.9,216.3,291.7,215.5,291.7,214.3z M294.4,212.1c-0.4,0-0.7,0.2-1,0.5s-0.4,1-0.4,1.9c0,0.8,0.1,1.4,0.4,1.7s0.6,0.5,1,0.5
				c0.4,0,0.7-0.2,1-0.5s0.4-1,0.4-1.9c0-0.8-0.1-1.4-0.4-1.8C295.2,212.2,294.8,212.1,294.4,212.1z"/>
		</g>
		<g class="text">
			<path d="M7.6,215.6v-12.9h1.6v4.6c0.7-0.9,1.7-1.3,2.8-1.3c0.7,0,1.3,0.1,1.8,0.4c0.5,0.3,0.9,0.6,1.1,1.1s0.3,1.2,0.3,2.1v5.9
				h-1.6v-5.9c0-0.8-0.2-1.4-0.5-1.7c-0.3-0.4-0.8-0.5-1.5-0.5c-0.5,0-0.9,0.1-1.3,0.4c-0.4,0.2-0.7,0.6-0.9,1s-0.3,1-0.3,1.7v5.1
				H7.6z"/>
			<path d="M17.5,219.1l-0.2-1.5c0.3,0.1,0.6,0.1,0.9,0.1c0.4,0,0.6-0.1,0.8-0.2s0.4-0.3,0.5-0.5c0.1-0.2,0.3-0.6,0.5-1.2
				c0-0.1,0.1-0.2,0.1-0.4l-3.5-9.4h1.7l1.9,5.4c0.3,0.7,0.5,1.4,0.7,2.2c0.2-0.7,0.4-1.4,0.7-2.1l2-5.4h1.6l-3.6,9.5
				c-0.4,1-0.7,1.7-0.9,2.1c-0.3,0.5-0.6,0.9-1,1.1c-0.4,0.2-0.8,0.4-1.3,0.4C18.3,219.3,17.9,219.3,17.5,219.1z"/>
			<path d="M32.7,215.6v-1.2c-0.6,0.9-1.5,1.4-2.6,1.4c-0.7,0-1.4-0.2-2.1-0.6s-1.1-1-1.5-1.7c-0.3-0.7-0.5-1.6-0.5-2.5
				c0-0.9,0.2-1.8,0.5-2.5s0.8-1.3,1.4-1.7s1.3-0.6,2.1-0.6c0.6,0,1.1,0.1,1.5,0.4c0.4,0.2,0.8,0.5,1.1,0.9v-4.6h1.6v12.9H32.7z
				 M27.7,210.9c0,1.2,0.3,2.1,0.8,2.7s1.1,0.9,1.8,0.9c0.7,0,1.3-0.3,1.8-0.8s0.7-1.4,0.7-2.6c0-1.3-0.2-2.2-0.7-2.8
				s-1.1-0.9-1.8-0.9c-0.7,0-1.3,0.3-1.8,0.9S27.7,209.7,27.7,210.9z"/>
			<path d="M36.6,215.6v-9.3H38v1.4c0.4-0.7,0.7-1.1,1-1.3s0.6-0.3,1-0.3c0.5,0,1.1,0.2,1.6,0.5l-0.5,1.5c-0.4-0.2-0.8-0.3-1.2-0.3
				c-0.3,0-0.7,0.1-0.9,0.3s-0.5,0.5-0.6,0.9c-0.2,0.6-0.3,1.2-0.3,1.8v4.9H36.6z"/>
			<path d="M42,210.9c0-1.7,0.5-3,1.4-3.8c0.8-0.7,1.8-1,2.9-1c1.3,0,2.3,0.4,3.1,1.3s1.2,2,1.2,3.5c0,1.2-0.2,2.1-0.5,2.8
				c-0.4,0.7-0.9,1.2-1.6,1.6s-1.4,0.6-2.3,0.6c-1.3,0-2.4-0.4-3.2-1.3S42,212.5,42,210.9z M43.7,210.9c0,1.2,0.3,2.1,0.8,2.7
				c0.5,0.6,1.2,0.9,2,0.9c0.8,0,1.4-0.3,2-0.9s0.8-1.5,0.8-2.7c0-1.2-0.3-2-0.8-2.6c-0.5-0.6-1.2-0.9-2-0.9c-0.8,0-1.4,0.3-2,0.9
				S43.7,209.7,43.7,210.9z"/>
			<path d="M52.6,215.6v-12.9h1.6v12.9H52.6z"/>
			<path d="M56.6,204.5v-1.8h1.6v1.8H56.6z M56.6,215.6v-9.3h1.6v9.3H56.6z"/>
			<path d="M66.6,219.1v-4.6c-0.2,0.3-0.6,0.6-1,0.9s-0.9,0.3-1.4,0.3c-1.1,0-2.1-0.4-2.9-1.3s-1.2-2.1-1.2-3.6
				c0-0.9,0.2-1.8,0.5-2.5s0.8-1.3,1.4-1.7s1.3-0.6,2-0.6c1.2,0,2.1,0.5,2.7,1.5v-1.2h1.4v12.9H66.6z M61.7,210.9
				c0,1.2,0.3,2.1,0.8,2.7s1.1,0.9,1.8,0.9c0.7,0,1.3-0.3,1.7-0.9c0.5-0.6,0.7-1.4,0.7-2.6c0-1.2-0.3-2.2-0.8-2.8s-1.1-0.9-1.8-0.9
				c-0.7,0-1.3,0.3-1.7,0.9S61.7,209.6,61.7,210.9z"/>
			<path d="M76.8,215.6v-1.4c-0.7,1.1-1.7,1.6-3,1.6c-0.6,0-1.1-0.1-1.5-0.3s-0.8-0.5-1.1-0.8s-0.4-0.7-0.5-1.2
				c-0.1-0.3-0.1-0.8-0.1-1.5v-5.8h1.6v5.2c0,0.8,0,1.4,0.1,1.7c0.1,0.4,0.3,0.7,0.6,1c0.3,0.2,0.7,0.4,1.2,0.4s0.9-0.1,1.3-0.4
				s0.7-0.6,0.9-1c0.2-0.4,0.3-1,0.3-1.8v-5h1.6v9.3H76.8z"/>
			<path d="M87,212.5l1.6,0.2c-0.3,1-0.7,1.7-1.4,2.2s-1.6,0.8-2.7,0.8c-1.4,0-2.4-0.4-3.2-1.3c-0.8-0.8-1.2-2-1.2-3.5
				c0-1.6,0.4-2.8,1.2-3.7s1.9-1.3,3.1-1.3c1.2,0,2.3,0.4,3.1,1.3s1.2,2,1.2,3.6c0,0.1,0,0.2,0,0.4h-7c0.1,1,0.3,1.8,0.9,2.4
				s1.2,0.8,2,0.8c0.6,0,1.1-0.2,1.5-0.5S86.8,213.2,87,212.5z M81.8,210h5.2c-0.1-0.8-0.3-1.4-0.6-1.8c-0.5-0.6-1.2-0.9-2-0.9
				c-0.7,0-1.3,0.2-1.8,0.7S81.9,209.2,81.8,210z"/>
		</g>
	</g>
	<g>
		<rect x="98.1" y="256.5" class="st5" width="123.4" height="23.5"/>
		<g class="text">
			<path d="M226.9,271.2l1.7-0.1c0.1,0.8,0.4,1.4,0.9,1.8s1,0.6,1.6,0.6c0.8,0,1.4-0.3,1.9-0.9s0.8-1.3,0.8-2.3
				c0-0.9-0.3-1.6-0.8-2.1s-1.2-0.8-2-0.8c-0.5,0-1,0.1-1.4,0.3c-0.4,0.2-0.7,0.5-1,0.9l-1.5-0.2l1.2-6.6h6.4v1.5h-5.1l-0.7,3.5
				c0.8-0.5,1.6-0.8,2.4-0.8c1.1,0,2.1,0.4,2.8,1.2s1.2,1.8,1.2,3c0,1.2-0.3,2.2-1,3c-0.8,1-2,1.6-3.4,1.6c-1.2,0-2.1-0.3-2.9-1
				S227,272.3,226.9,271.2z"/>
			<path d="M245.2,273.1v1.5h-8.5c0-0.4,0-0.7,0.2-1.1c0.2-0.6,0.6-1.2,1-1.7s1.2-1.2,2.1-2c1.4-1.1,2.3-2.1,2.8-2.7
				s0.7-1.3,0.7-1.9c0-0.6-0.2-1.2-0.7-1.6c-0.4-0.4-1-0.6-1.8-0.6c-0.8,0-1.4,0.2-1.8,0.7s-0.7,1.1-0.7,1.9l-1.6-0.2
				c0.1-1.2,0.5-2.1,1.3-2.8c0.7-0.6,1.7-1,2.9-1c1.2,0,2.2,0.3,2.9,1s1.1,1.5,1.1,2.5c0,0.5-0.1,1-0.3,1.5s-0.6,1-1.1,1.6
				s-1.3,1.3-2.4,2.3c-0.9,0.8-1.6,1.3-1.8,1.6s-0.5,0.6-0.7,0.9H245.2z"/>
			<path d="M252.2,264.8c0-0.9,0.2-1.7,0.7-2.3c0.5-0.6,1.1-1,2-1c0.8,0,1.5,0.3,2,0.9s0.8,1.4,0.8,2.5c0,1.1-0.3,1.9-0.8,2.5
				c-0.5,0.6-1.2,0.9-2,0.9c-0.8,0-1.4-0.3-1.9-0.9S252.2,266,252.2,264.8z M254.9,262.6c-0.4,0-0.7,0.2-1,0.5s-0.4,1-0.4,1.9
				c0,0.8,0.1,1.4,0.4,1.7c0.3,0.3,0.6,0.5,1,0.5c0.4,0,0.7-0.2,1-0.5s0.4-1,0.4-1.9c0-0.8-0.1-1.4-0.4-1.8
				C255.7,262.7,255.3,262.6,254.9,262.6z M254.9,275l7-13.6h1.3l-7,13.6H254.9z M260.5,271.5c0-0.9,0.2-1.7,0.7-2.4
				c0.5-0.6,1.1-1,2-1c0.8,0,1.5,0.3,2,0.9s0.8,1.4,0.8,2.5c0,1.1-0.3,1.9-0.8,2.5c-0.5,0.6-1.2,0.9-2,0.9c-0.8,0-1.4-0.3-1.9-0.9
				C260.8,273.6,260.5,272.7,260.5,271.5z M263.3,269.3c-0.4,0-0.7,0.2-1,0.5s-0.4,1-0.4,1.9c0,0.8,0.1,1.4,0.4,1.7s0.6,0.5,1,0.5
				c0.4,0,0.7-0.2,1-0.5s0.4-1,0.4-1.9c0-0.8-0.1-1.4-0.4-1.8C264,269.5,263.7,269.3,263.3,269.3z"/>
		</g>
		<g class="text">
			<path d="M49,271.6l1.6,0.2c-0.3,1-0.7,1.7-1.4,2.2s-1.6,0.8-2.7,0.8c-1.4,0-2.4-0.4-3.2-1.3c-0.8-0.8-1.2-2-1.2-3.5
				c0-1.6,0.4-2.8,1.2-3.7s1.9-1.3,3.1-1.3c1.2,0,2.3,0.4,3.1,1.3s1.2,2,1.2,3.6c0,0.1,0,0.2,0,0.4h-7c0.1,1,0.3,1.8,0.9,2.4
				s1.2,0.8,2,0.8c0.6,0,1.1-0.2,1.5-0.5S48.8,272.3,49,271.6z M43.8,269.1H49c-0.1-0.8-0.3-1.4-0.6-1.8c-0.5-0.6-1.2-0.9-2-0.9
				c-0.7,0-1.3,0.2-1.8,0.7S43.9,268.3,43.8,269.1z M45.5,264.1l1.2-2.5h2.1l-1.9,2.5H45.5z"/>
			<path d="M52,270c0-1.7,0.5-3,1.4-3.8c0.8-0.7,1.8-1,2.9-1c1.3,0,2.3,0.4,3.1,1.3s1.2,2,1.2,3.5c0,1.2-0.2,2.1-0.5,2.8
				c-0.4,0.7-0.9,1.2-1.6,1.6s-1.4,0.6-2.3,0.6c-1.3,0-2.4-0.4-3.2-1.3S52,271.5,52,270z M53.7,270c0,1.2,0.3,2.1,0.8,2.7
				c0.5,0.6,1.2,0.9,2,0.9c0.8,0,1.4-0.3,2-0.9s0.8-1.5,0.8-2.7c0-1.2-0.3-2-0.8-2.6c-0.5-0.6-1.2-0.9-2-0.9c-0.8,0-1.4,0.3-2,0.9
				S53.7,268.8,53.7,270z"/>
			<path d="M62.6,274.6v-12.9h1.6v12.9H62.6z"/>
			<path d="M66.6,263.6v-1.8h1.6v1.8H66.6z M66.6,274.6v-9.3h1.6v9.3H66.6z"/>
			<path d="M77,271.6l1.6,0.2c-0.3,1-0.7,1.7-1.4,2.2s-1.6,0.8-2.7,0.8c-1.4,0-2.4-0.4-3.2-1.3c-0.8-0.8-1.2-2-1.2-3.5
				c0-1.6,0.4-2.8,1.2-3.7s1.9-1.3,3.1-1.3c1.2,0,2.3,0.4,3.1,1.3s1.2,2,1.2,3.6c0,0.1,0,0.2,0,0.4h-7c0.1,1,0.3,1.8,0.9,2.4
				s1.2,0.8,2,0.8c0.6,0,1.1-0.2,1.5-0.5S76.8,272.3,77,271.6z M71.8,269.1H77c-0.1-0.8-0.3-1.4-0.6-1.8c-0.5-0.6-1.2-0.9-2-0.9
				c-0.7,0-1.3,0.2-1.8,0.7S71.9,268.3,71.8,269.1z"/>
			<path d="M80.6,274.6v-9.3h1.4v1.3c0.7-1,1.7-1.5,3-1.5c0.6,0,1.1,0.1,1.6,0.3c0.5,0.2,0.8,0.5,1.1,0.8s0.4,0.7,0.5,1.2
				c0.1,0.3,0.1,0.8,0.1,1.5v5.7h-1.6V269c0-0.6-0.1-1.1-0.2-1.4s-0.3-0.6-0.7-0.8c-0.3-0.2-0.7-0.3-1.1-0.3c-0.7,0-1.3,0.2-1.7,0.6
				s-0.7,1.2-0.7,2.4v5.1H80.6z"/>
		</g>
	</g>
</g>
<rect x="97.1" class="st6" width="8" height="303.8"/>
</svg>
