<?xml version="1.0" encoding="utf-8"?>
<!-- Generator: Adobe Illustrator 27.2.0, SVG Export Plug-In . SVG Version: 6.00 Build 0)  -->
<svg version="1.1" id="Calque_2_00000096742319324808443790000012801021471689166464_"
	 xmlns="http://www.w3.org/2000/svg" xmlns:xlink="http://www.w3.org/1999/xlink" x="0px" y="0px" viewBox="0 0 370.9 490.5"
	 style="enable-background:new 0 0 370.9 490.5;" xml:space="preserve">
<style type="text/css">
	.st0{fill:#35A88A;}
	.st1{fill:#FFFFFF;}
	.st2{fill:#BCFFEC;}
	.st3{fill:#5277B8;}
	.st4{fill:#AC4250;}
</style>
<g id="Calque_1-2">
	<path class="st0" d="M134.3,251.6L48.7,461.3L184,477l134.2-16.6l-87.1-213.6C231.1,246.9,205.7,267.2,134.3,251.6L134.3,251.6z"/>
	<path d="M370.3,479.3c-2.8-16.9-32.2-18.4-49.5-17.8c-6.8,0.2-11.7,0.8-12.5,0.9l-30.3,3.1l-91.9,9.4l-2,0.2l-0.3,0l-1.8,0.3
		l-0.2,0l0.1,1.4v0l0,0.3c0,0.1,0,0.2,0,0.2c0.1,0.6,0.2,1,0.6,1.3c0.2,0.1,0.4,0.2,0.6,0.3c0.3,0.1,0.6,0.1,1,0.2h0.2
		c0.6,0,1.2,0,2.1,0c0.9,0,1.7,0,1.8,0c1.9,0.2,5.9,0.6,11.4,1.3c18.9,2.2,58.2,6.7,93.6,8.9c14.9,0.9,26.8,1.3,36.4,1.3l0,0
		c33,0,37.3-4.6,39-6.3C370,482.8,370.6,481.1,370.3,479.3z M365.8,481.4c-2.8,2.9-15.9,7.3-72.2,3.8c-18.6-1.2-38.4-3-55.6-4.8
		c-12.8-1.3-24.2-2.6-32.8-3.6l103.6-10.6h0c2.9-0.3,6.7-0.7,11-0.8c18-0.7,44.3,1.2,46.5,14.5C366.4,480.3,366.4,480.8,365.8,481.4
		z"/>
	<path class="st1" d="M365.8,481.4c-2.8,2.9-15.9,7.3-72.2,3.8c-18.6-1.2-38.4-3-55.6-4.8l81.8-15c18-0.7,44.3,1.2,46.5,14.5
		C366.4,480.3,366.4,480.8,365.8,481.4z"/>
	<path d="M181.5,479c-1.9,0.2-5.9,0.6-11.4,1.3c-18.9,2.2-58.2,6.7-93.6,8.9c-14.9,0.9-26.8,1.3-36.3,1.3v0c-33,0-37.3-4.6-39-6.3
		c-1.3-1.4-1.9-3.1-1.6-4.9C2.3,463,29.5,461,47,461.4c1.1,0,2.1,0.1,3.1,0.1h0c6.3,0.3,10.8,0.8,11.5,0.9l-0.1,0.5l-0.2,1.5
		l-0.2,1.6l-0.1,0.4c-3.8-0.5-9.3-0.9-15.3-0.9c-17.6-0.2-40.2,2.3-42.2,14.6c-0.1,0.4,0,0.9,0.5,1.5c2.8,2.9,15.9,7.3,72.2,3.8
		c17.8-1.1,36.5-2.8,53.2-4.5c13.5-1.4,25.7-2.7,34.8-3.8c2-0.2,3.8-0.4,5.4-0.6c1.3-0.2,2.5-0.3,3.6-0.4c0.2,0,0.3,0,0.5-0.1
		c0.9-0.1,1.7-0.2,2.5-0.3c2.2-0.2,3.8-0.4,4.9-0.5l0.2,1.6l0,0l0.2,2.1L181.5,479z"/>
	<path class="st0" d="M138,248.6c0,0-50.9-76,39.8-102.1c0,0,40.1,3.8,50.6,17s20.5,18.9,19.2,45.2s-7.8,35.8-28.1,46.1
		C194,267.8,138.1,248.6,138,248.6L138,248.6z"/>
	<polygon class="st2" points="180.4,166.5 190.2,167 196,225.8 183.7,232.9 173.4,223 	"/>
	<polygon class="st3" points="148.4,160.1 153.7,157.5 235.5,244.1 231.7,247.4 	"/>
	<polygon class="st1" points="153.7,157.5 158.2,154.9 236.8,239.6 235.5,244.1 	"/>
	<polygon class="st4" points="158.2,154.9 162,152.5 240.4,233.6 236.8,239.6 	"/>
	<polygon class="st2" points="176.2,156.9 185,147.3 195.3,157.9 192,164 178.4,164 	"/>
	<polygon class="st4" points="239.9,260.6 261.4,284.4 269.8,281.7 241.3,259.9 	"/>
	<path d="M192.4,166.8h-15.2l-5.1-11.4l10.1-9.1c0.8-0.8,2.8-2.6,4.8-0.9l0.1,0.1l10.2,10L192.4,166.8L192.4,166.8z M179.8,162.8h10
		l2.7-6.4l-7.4-7.3c-0.1,0.1-0.1,0.1-0.1,0.1l-8,7.2L179.8,162.8L179.8,162.8z"/>
	<path d="M195.1,189.2l-18.7-20l0.6-5.9h15.5L195.1,189.2z M180.5,167.9l9.4,10l-1.1-10.5h-8.3L180.5,167.9z"/>
	<path d="M185,236.2l-14.1-11.7l3.8-38.6l22.3,23l1.6,15.9L185,236.2L185,236.2z M175.1,222.8l9.9,8.2l9.5-7.9l-1.2-12.4l-15.4-15.8
		L175.1,222.8L175.1,222.8z"/>
	<path d="M249.6,208.6c0,5.1-0.7,10.2-1.9,15.2c-1,3.9-2.3,7.8-4.1,11.5c-0.1,0.2-0.2,0.4-0.3,0.7c-0.1,0.3-0.3,0.6-0.5,0.9
		c0,0,0,0,0,0l0,0.1c0,0.1-0.1,0.1-0.1,0.2c-0.8,1.7-1.8,3.3-2.8,4.9c-0.2,0.3-0.3,0.5-0.5,0.8c-0.7,1.1-1.4,2.1-2.2,3.2
		c-0.6,0.8-1.2,1.6-1.8,2.3c-0.2,0.3-0.4,0.6-0.7,0.8l0,0l-0.4-0.4l-1.5-1.2l-0.8-0.6l0,0l-0.3-0.3l0,0c0.3-0.4,0.6-0.7,0.9-1.1
		c0.7-0.8,1.3-1.7,1.9-2.5c0.5-0.7,1-1.4,1.5-2.2c0,0,0-0.1,0.1-0.1c0.2-0.3,0.4-0.7,0.6-1c0.6-1,1.1-1.9,1.7-2.9
		c0.3-0.6,0.6-1.2,0.9-1.8l0.1-0.1c0.3-0.5,0.5-1.1,0.8-1.6c0.2-0.4,0.4-0.9,0.6-1.3c1.3-3,2.3-6.1,3.1-9.2
		c1.2-4.6,1.7-9.4,1.8-14.2c0.1-20.9-10.5-39.4-26.7-50.2c0,0-0.1,0-0.1-0.1c-0.1,0-0.1-0.1-0.2-0.1c-0.6-0.4-1.2-0.8-1.8-1.1
		c-4.1-2.5-8.5-4.5-13.1-6c-0.1,0-0.2-0.1-0.3-0.1c-2.9-0.9-5.9-1.6-9-2c-1.4-0.2-2.9-0.4-4.3-0.5c-1-0.1-1.9-0.1-2.9-0.1
		c-0.4,0-0.9,0-1.3,0h-0.4c-0.2,0-0.3,0-0.5,0c-0.1,0-0.2,0-0.3,0c-0.3,0-0.6,0-0.8,0c-0.5,0-0.9,0-1.4,0c-1,0-2,0.1-3,0.2
		c-3.7,0.4-7.3,1.1-10.9,2.1l-0.9,0.3c-0.2,0.1-0.4,0.1-0.6,0.2c-0.6,0.2-1.2,0.4-1.8,0.6c-0.7,0.2-1.4,0.5-2,0.8
		c-0.2,0.1-0.5,0.2-0.7,0.3l-0.3-0.7l-0.1-0.2l-0.3-0.8l0,0l-0.1-0.2l-0.1-0.2l-0.6-1.4l0-0.1c0.1,0,0.2-0.1,0.3-0.1
		c0.7-0.3,1.4-0.6,2.1-0.8c0.1,0,0.1,0,0.2-0.1c0.9-0.3,1.7-0.6,2.6-0.9c0,0,0.1,0,0.1,0l0.3-0.2l0.4-0.1l0.4-0.1
		c0.1,0,0.2,0,0.3-0.1c1.3-0.4,2.6-0.7,4-1c0.3-0.1,0.7-0.1,1-0.2c0.7-0.2,1.3-0.3,2-0.4c0.3-0.1,0.6-0.1,0.9-0.2
		c3.2-0.5,6.5-0.8,9.8-0.8h0.4c0.1,0,0.2,0,0.3,0c2.9,0,5.8,0.2,8.6,0.7c1.2,0.2,2.4,0.4,3.5,0.6c0.1,0,0.3,0.1,0.5,0.1
		c3,0.6,6,1.5,8.9,2.6c0,0,0.1,0,0.1,0c20.3,7.5,35.8,25.1,40.3,46.7c0,0,0,0,0,0.1c0.6,2.8,1,5.7,1.2,8.7
		C249.6,205.4,249.7,207,249.6,208.6z"/>
	<path d="M136.7,249.4c-2.6-3.1-4.9-6.4-6.8-9.8c-4.1-7.3-6.7-15.3-7.7-23.7v-0.1c-0.3-2.6-0.5-5.2-0.4-7.9
		c0.1-11.4,3.2-22.6,9-32.3c3.6-6,8-11.3,13.4-15.9c0.5-0.4,1-0.9,1.5-1.3l2.5,3.1c-0.5,0.4-0.9,0.8-1.4,1.2
		c-5,4.3-9.2,9.3-12.5,14.9c-5.4,9.1-8.3,19.6-8.4,30.3c0,2.5,0.1,5,0.4,7.5v0.1c1,7.8,3.4,15.2,7.2,22.1c1.8,3.3,4,6.4,6.4,9.2
		L136.7,249.4L136.7,249.4z"/>
	<g>
		<path class="st1" d="M216.9,157.1l-16.4,6.3c-0.3,0.1-0.7,0-0.9-0.2l-12.7-15.4c-0.5-0.6,0-1.4,0.7-1.4c5.1,0.4,19.2,2,29.5,9.1
			C217.6,156,217.6,156.8,216.9,157.1L216.9,157.1z"/>
		<path d="M200.2,165.5c-0.8,0-1.6-0.4-2.2-1l-12.7-15.4c-0.7-0.9-0.9-2.1-0.3-3.1s1.6-1.6,2.7-1.5c5.6,0.4,19.9,2.1,30.5,9.5
			c0.9,0.6,1.3,1.6,1.2,2.7c-0.1,1-0.8,1.9-1.8,2.3l-16.4,6.3C200.9,165.4,200.6,165.5,200.2,165.5L200.2,165.5z M199.8,161.5
			L199.8,161.5L199.8,161.5z M190.2,148.7l10.4,12.6l13.5-5.2C206,151.1,196.1,149.3,190.2,148.7z M216.2,155.2L216.2,155.2
			L216.2,155.2z"/>
	</g>
	<g>
		<path class="st1" d="M183.2,147.8l-1.1,1.3l-6.9,8.3l-3.4,4.1L162,151c0,0,0,0,0,0c-3.6,1.5-7.1,3.3-10.3,5.5
			c2.4-1.8,5.1-3.3,7.8-4.6c0,0,0,0,0.1,0c2.6-1.2,5.3-2.1,7.8-2.8c0,0,0.1,0,0.1,0c0.3-0.1,0.6-0.2,0.9-0.2
			c6.1-1.6,11.5-2.2,14.3-2.4C183.2,146.4,183.6,147.2,183.2,147.8L183.2,147.8z"/>
		<path d="M171.9,164.5l-10.4-11.1c-3,1.3-5.9,2.9-8.7,4.8l-2.3-3.3c2.3-1.7,4.9-3.3,7.8-4.6l0.3-0.3h0.4c2.3-1,4.8-1.9,7.5-2.7
			l0.2-0.1h0.2c0.1,0,0.2-0.1,0.4-0.1l0.3-0.1c6.3-1.7,11.9-2.3,14.7-2.5c1.1-0.1,2.2,0.5,2.7,1.5s0.4,2.2-0.3,3.1L171.9,164.5
			L171.9,164.5z M165.4,151.8l6.3,6.7l8.1-9.8c-2.9,0.3-6.8,0.9-11.1,2.1l-0.3,0.1c-0.1,0-0.2,0.1-0.4,0.1l-0.1,0l-0.3,0.1
			C166.9,151.3,166.1,151.5,165.4,151.8L165.4,151.8z M182.6,148.4L182.6,148.4L182.6,148.4z"/>
	</g>
	<g>
		<path d="M239.9,44.8c-16.1,9.8-24.4,15.4-24.9,18.3c-0.2,1,0.8,2.3,2.6,4.4c1,1.2,2.1,2.5,3.2,4.2c1.6,2.3,1.4,4.3,0.9,5.5
			c-1.8,4.7-10.4,6.8-19.4,9c-4.5,1.1-12.1,2.9-13,4.4c0.6,1.8,9.3,3.7,13.9,4.8c8.2,1.8,15.9,3.5,18,7.5c0.7,1.4,0.7,2.9,0.1,4.5
			c-2.1,5-7.5,6.1-12.3,7.1c-6.4,1.3-10.1,2.3-10.1,8.1l-0.1,20.6l0,2.6v1l-4,0l0-1.4V145l0.1-22.5c0-9.3,7.4-10.8,13.3-12
			c4.4-0.9,8.1-1.7,9.4-4.8c0.2-0.5,0.2-0.8,0-1c-1.2-2.4-9.3-4.1-15.2-5.4c-9-2-16.1-3.5-17-7.9c-1-4.9,6.5-6.7,16-9
			c6.6-1.6,15.5-3.8,16.6-6.5c0.1-0.2,0.3-0.7-0.5-1.8c-1-1.5-2.1-2.8-3-3.9c-2.1-2.6-3.9-4.8-3.5-7.6c0.7-4.3,5.7-8.2,26.8-21
			c11.5-7,15.6-17.1,10.4-25.7c-7.1-11.7-32.4-19.2-66.6,1.1c-19.7,11.7-28.7,30.2-26.6,55c1.7,20,10.2,39,15.3,49
			c0.1,0.2,0.2,0.5,0.4,0.7c2.6,4.9,4.1,10.1,4.4,15.5l0.6,8.1l0,0.1l0.1,0.9l-0.9,0.1l-2.3,0.2l-0.7,0l0-0.5l0-0.1l-0.2-3.7
			l-0.3-4.9c-0.3-4.8-1.7-9.5-4-13.9c-5.3-10.1-14.4-30.1-16.2-51.2c-2.2-26.4,7.4-46.2,28.5-58.7c34.5-20.4,62.8-15.1,72.1,0.3
			C257,22.4,255.4,35.4,239.9,44.8z"/>
		<ellipse cx="221.1" cy="18.3" rx="4.3" ry="3.9"/>
	</g>
	<path d="M168.4,146.9l-0.1,1.8l0,0.2l0,0.8l-0.1,1.2c-0.7,0-1.7-0.1-2.9-0.1c-0.3,0-0.5,0-0.8,0c-0.5,0-1,0-1.5,0
		c-0.2,0-0.3,0-0.5,0c0,0,0,0,0,0h-0.7c-0.6,0-1.2,0-1.6,0c-0.7,0-1.4,0-2.1,0c-0.1,0-0.2,0-0.4,0c-0.2,0-0.3,0-0.5,0
		c0,0-0.1,0-0.1,0c-1.2,0-2.4,0.1-3.6,0.2c-22.9,1.9-42.1,13.5-50.9,29.3c-0.3,0.6-0.7,1.2-1,1.9c-0.2,0.5-0.5,1-0.7,1.5
		c-0.1,0.2-0.1,0.3-0.2,0.5c-0.8,1.7-1.4,3.5-1.9,5.3c-0.9,3.3-1.4,6.7-1.4,10.1c0,18.3,12.8,34.7,33.3,43.1
		c0.4,0.2,0.7,0.3,1.1,0.4c0.4,0.2,0.8,0.3,1.2,0.5c0,0,0,0,0,0c0.8,0.3,1.6,0.6,2.4,0.8c0.6,0.2,1.2,0.4,1.8,0.6l0,0.1l-0.5,1.6
		l-0.7,2.1c0,0-0.1,0-0.1,0c-0.8-0.3-1.7-0.5-2.5-0.8c-0.6-0.2-1.2-0.4-1.7-0.6c-23.4-8.7-38.3-27.1-38.3-47.8
		c0-6.4,1.5-12.6,4.1-18.3c0.3-0.6,0.6-1.2,0.9-1.9c0.3-0.6,0.6-1.2,1-1.8c10.6-18.2,33.8-30.8,60.6-30.8c0.5,0,1.2,0,1.9,0
		c1.7,0,3.8,0.1,5.3,0.1c0.1,0,0.3,0,0.4,0c0,0,0,0,0,0h0.1c0,0,0,0,0,0C168.1,146.8,168.2,146.8,168.4,146.9z"/>
	<path d="M122.6,217c-4.6-5.1-7-11.2-7-17.5c0-9.7,5.9-18.9,15.7-24.6l2,3.5c-8.7,5-13.7,12.7-13.7,21.1c0,5.3,2.1,10.5,5.9,14.9
		C125.6,214.4,122.6,217,122.6,217z"/>
	<path d="M232.7,250.3c-0.7,0-1.4-0.3-1.8-0.8l-1.2-1.2l-85.8-88.4l1.7-1.4c1.6-1.3,3.3-2.6,5-3.7c3.4-2.2,6.9-4.1,10.6-5.6l0.4-0.2
		h1.4l80.2,85.6l-3.3,7.5h0.6l-1.9,3.1c-2.1,3.3-3.8,4.9-5.5,5.1C232.9,250.2,232.8,250.2,232.7,250.3L232.7,250.3z M233.7,246.7
		L233.7,246.7C233.8,246.7,233.7,246.7,233.7,246.7z M178.3,189.6l54.7,56.3c0.4-0.4,1.1-1.2,2-2.6l3.4-7.9l-76.9-82
		c-3,1.3-5.9,2.9-8.7,4.8c-1,0.6-2,1.4-3,2.1L178.3,189.6L178.3,189.6z"/>
	<path d="M146.6,162.8l-2.6-2.9l1.4-1.3c0.2-0.2,5.2-5.1,13-8.3l0.3-0.3h0.5c0.7-0.3,1.5-0.6,2.3-0.8l1.4,3.8
		c-3.5,1.4-6.8,3.2-10,5.3c-1.6,1-3.1,2.2-4.7,3.4L146.6,162.8L146.6,162.8z"/>
	<path d="M237.9,246.1h-4.1l6.4-14.7l3.6,3.9l-0.7,1.3c0,0.1-0.1,0.2-0.1,0.3l-0.1,0.1c-1.6,3.4-3,6.1-4.4,8.2L237.9,246.1
		L237.9,246.1z"/>
	<path d="M266.7,301c-0.5,0-1-0.1-1.4-0.4l-15.4-11.1l2.3-3.2l11.3,8.1l-3.4-10.1l7.3-1.9l-33.2-26.7l2.5-3.1l35.5,28.6
		c0.7,0.6,1.1,1.5,0.9,2.5c-0.2,0.9-0.9,1.6-1.8,1.9l-6,1.5l3.7,10.9c0.3,1,0,2-0.8,2.6C267.7,300.9,267.2,301,266.7,301L266.7,301z
		"/>
	<g>
		<path class="st0" d="M170,146c2-0.6,0.8-2.9-3.4-4.5c-18.3-6.9-48.2,0.2-76.2,30.1l31.4,29.5C121.8,201,126.9,158.9,170,146
			L170,146z"/>
		<path d="M123.3,205.1l-35.8-33.5l1.4-1.5c30.7-32.7,61.4-36.9,78.3-30.6c3.7,1.4,5.8,3.4,5.7,5.5c0,1.3-0.9,2.4-2.4,2.8
			c-41.3,12.4-46.7,52.9-46.8,53.3L123.3,205.1L123.3,205.1z M93.2,171.4l27.3,25.6c2.4-10.6,12.4-41.4,47.6-52.6
			c-0.5-0.3-1.2-0.8-2.3-1.1C150.3,137.5,122.1,141.5,93.2,171.4L93.2,171.4z"/>
	</g>
	<path d="M231.1,246.9l-6.6,4.7L196,219.1l-20.3-23.2l-1.4-1.6l-14.1-16.1l-9.9-11.3l0,0h0l-5-5.7l-0.1-0.1l1.5-1.2l0.1,0.1
		l29.5,30.3l0,0l18.9,19.4L231.1,246.9L231.1,246.9z"/>
	<polygon points="239.9,259.9 265.6,296.9 251.1,287.9 	"/>
	<polygon points="175.1,159.3 173,161.8 177.8,164.8 	"/>
	<polygon points="193.2,158.6 191.1,162.6 197.7,167 219.6,158.2 202.1,162.1 	"/>
	<path d="M110.8,308.6l23.1-67.2c0,0,45.6,26.3,97.7,6.1c0,0,4.2,0.6,2.4,1.7c-7.5,4.5-35.7,15.6-74.8,10.8
		C126.9,256,140.9,291.5,110.8,308.6L110.8,308.6z"/>
	<path d="M150.3,167c0,0,14.1,11.9,17.3,27.9c3.2,16,1.9,32,1.9,32l10.9,8.3c0.5,0.4,1.5,1.1,2.5,1.8c0.9,0.6,2.1-0.1,2.1-1.2v-2.2
		l-12-9.9l1.6-33.2L150.3,167L150.3,167z"/>
	<path class="st1" d="M248.3,15.7c-7.1-11.7-32.4-19.2-66.6,1.1c-19.7,11.7-28.7,30.2-26.6,55c1.7,20,10.2,39,15.3,49l-0.1-0.7
		c0,0,7.8,18.3,16,24.3c2.9,0,5.8,0.2,8.6,0.7l0.1-22.5c0-9.3,7.4-10.8,13.3-12c4.4-0.9,8.1-1.7,9.4-4.8c0.2-0.5,0.2-0.8,0-1
		c-1.2-2.4-9.3-4.1-15.2-5.4c-9-2-16.1-3.5-17-7.9c-1-4.9,6.5-6.7,16-9c6.6-1.6,15.5-3.8,16.6-6.5c0.1-0.2,0.3-0.7-0.5-1.8
		c-1-1.5-2.1-2.8-3-3.9c-2.1-2.6-3.9-4.8-3.5-7.6c0.7-4.3,5.7-8.2,26.8-21C249.4,34.4,253.5,24.3,248.3,15.7z M221.1,22.2
		c-2.4,0-4.3-1.7-4.3-3.9s1.9-3.9,4.3-3.9c2.4,0,4.3,1.7,4.3,3.9S223.5,22.2,221.1,22.2z"/>
	<path d="M188.2,145.5l-1.1,0.1l-2,0.1l-0.3,0l-2.1,0.1l-7.8,0.5l0-0.2l-0.1-0.8l0-0.1l-0.7-9.9l-3.2-11.7l-0.5-2.9l-0.1-0.7
		c0,0,7.8,18.3,16,24.3c0.1,0.1,0.2,0.2,0.3,0.2C187.2,144.9,187.7,145.2,188.2,145.5z"/>
	<path class="st1" d="M130.9,242.6c-20.4-8.4-33.3-24.8-33.3-43.1c0-3.5,0.5-6.8,1.4-10.1c3.4,1.5,11.4,6.2,14.7,16.4
		c4.2,13.1,4.1,12.4,6.2,18C122.1,229.8,127.4,238.1,130.9,242.6z"/>
	<path d="M133.9,245.9c-0.1,0.1-0.5-0.2-1.2-0.9c-0.5-0.6-1.1-1.3-1.8-2.3c-3.4-4.5-8.8-12.9-11-18.9c-2.1-5.6-2-4.9-6.2-18
		c-3.3-10.2-11.3-14.9-14.7-16.4c-0.8-0.4-1.4-0.6-1.5-0.6l1.8-6.1l0.1-0.3c0,0,0.6,0.5,1.6,1.3c3.6,2.8,12,9.2,14.1,11.1
		c0.1,0.1,0.2,0.2,0.2,0.2c0,0,0,0,0,0c0.2,0.2,0.4,0.5,0.6,0.8c0.5,0.9,0.7,2,0.9,3.3c0.4,2.5,0.7,5.6,2.1,7.9c0.6,1,1.7,3.5,3,6.8
		c0.4,0.9,0.8,1.9,1.2,2.9c3.6,9.1,8.2,21.9,10.1,26.9c0,0,0,0,0,0c0.2,0.6,0.4,1.1,0.5,1.4C133.9,245.5,134,245.8,133.9,245.9z"/>
	<g>
		<path class="st0" d="M201.3,146c-2-0.6-0.8-2.9,3.4-4.5c18.3-6.9,48.2,0.2,76.2,30.1L249.5,201C249.5,201,244.4,158.9,201.3,146
			L201.3,146z"/>
		<path d="M282.4,170.1c-30.7-32.7-61.4-36.9-78.3-30.6c-2.5,1-4.3,2.2-5.1,3.5c0,0,0,0,0,0c-0.4,0.6-0.6,1.3-0.6,1.9
			c0,0.2,0,0.4,0.1,0.5c0,0.1,0.1,0.3,0.1,0.4c0.1,0.2,0.2,0.4,0.3,0.6c0.4,0.6,1,1,1.8,1.3c7.3,2.2,13.5,5.3,18.7,8.8
			c0,0,0.1,0,0.1,0.1c24.3,16.6,28,44.1,28,44.4l0.2,1.8l0.3,2.1l1.5-1.4l2.7-2.5l3.2-2.9l18.1-17l3.8-3.5l6.6-6.2L282.4,170.1z
			 M271.5,177.6C271.5,177.7,271.4,177.7,271.5,177.6l-20.7,19.4c-2.5-10.7-12.4-41.4-47.6-52.6c0.5-0.3,1.2-0.7,2.3-1.1
			c15.6-5.8,43.8-1.9,72.6,28.1L271.5,177.6z"/>
	</g>
	<path d="M305.9,191.5c-6.7,9.8-17.9,15-30.7,15v0c-7.2,0-15-1.7-22.8-5.1c-0.1-0.1-0.3-0.1-0.4-0.2c-0.6-0.4-0.9-1.2-0.8-2
		c0-0.1,0.1-0.3,0.1-0.4c0.3-0.7,0.9-1.1,1.6-1.2c0.4,0,0.7,0,1.1,0.1c0.4,0.2,0.8,0.3,1.2,0.5c19.3,8,38.2,4.5,47.3-9
		c8.7-12.7,11.4-24.4,9.1-38.5c0-0.1,0-0.2-0.1-0.4c0-0.1,0-0.2,0-0.3c-0.1-0.4-0.1-0.7-0.2-1c-0.2-1.1,0.5-2.1,1.6-2.3
		c1.1-0.2,2.1,0.5,2.3,1.6c0.1,0.3,0.1,0.6,0.2,0.9C318.3,164.9,315.4,177.6,305.9,191.5z"/>
	<path d="M295.4,163c-1,7.2-3.5,12.4-7.5,15.5c-3.4,2.7-7.1,3.3-10.1,3.3v0c-1.8,0-3.4-0.3-4.4-0.5c-0.7-0.1-1.1-0.3-1.2-0.3
		c-0.3-0.1-0.6-0.3-0.8-0.5c-0.5-0.5-0.7-1.3-0.4-2c0.1-0.3,0.3-0.6,0.5-0.8c0,0,0,0,0.1-0.1c0.5-0.5,1.3-0.7,2-0.4
		c0,0,0.4,0.1,1.1,0.3c0.6,0.1,1.5,0.3,2.6,0.3c2.4,0.1,5.6-0.3,8.3-2.5c5.2-4.1,7.2-13.4,6.1-26.8c0-0.3,0-0.6-0.1-1
		c-0.1-1.1,0.7-2.1,1.8-2.2c0.4,0,0.9,0.1,1.2,0.3c0,0,0.1,0.1,0.1,0.1c0.5,0.3,0.8,0.8,0.8,1.4c0,0.6,0.1,1.1,0.1,1.7
		c0,0.6,0.1,1.3,0.1,1.9C296,155.3,295.9,159.4,295.4,163z"/>
	<g>
		<path d="M323.8,144.1c-2.9,2.3-5.7,3.9-8.2,5.1c-1.3,0.6-2.6,1.1-3.8,1.5c-0.1,0-0.2,0.1-0.2,0.1c-2.9,0.9-5.6,1.3-8,1.3l0,0
			c-3.2,0-5.9-0.7-7.9-1.4c-0.8-0.3-1.4-0.6-2-0.9c-0.1,0-0.2-0.1-0.2-0.1c-0.7-0.4-1.3-0.8-1.9-1.2c-4.5-3.2-7.2-8-6.9-12.6
			c0.2-3.3,0.4-6.2,0.5-8.1c0-0.9-0.1-1.8-0.5-2.7c-0.2-0.5-0.5-1-0.9-1.6c-0.8-1.4-1.6-2.8-1.8-4.1c-0.5-3.6,2-8.2,5.7-10.5
			c3.6-2.2,7.7-2,11.3,0.5c5.1,3.5,5.3,7.8,5.5,10.3c0,0.5,0.1,1.1,0.1,1.4c1.9-1.2,6.1-4.3,10.2-10.5c5.6-8.5,13.6-10.5,17.1-9.5
			c0.3,0.1,0.6,0.2,0.8,0.3c1,0.6,1.3,1.8,0.7,2.7c-0.6,0.9-1.8,1.3-2.7,0.7c-0.6-0.2-2.5-0.1-4.9,1c-2.4,1.1-5.2,3.2-7.7,6.9
			c-4.6,7.1-9.6,10.6-11.5,11.8c-1.3,0.8-2.8,0.8-4.1,0.1c-1.9-1.1-2-3.1-2.1-4.8c-0.1-2.3-0.2-4.8-3.7-7.2
			c-2.4-1.6-4.7-1.8-6.9-0.4c-2.5,1.6-4.2,4.8-3.9,6.5c0.1,0.6,0.8,1.8,1.3,2.7c0.4,0.6,0.7,1.3,1,1.9c0.7,1.4,1,3,0.9,4.5
			c-0.1,1.9-0.2,4.9-0.5,8.2c-0.2,3.3,2.1,7.1,5.9,9.5c0,0,0.1,0.1,0.1,0.1c0.2,0.2,0.5,0.3,0.8,0.4c3.4,1.8,12.8,5,26-5.2
			c13.4-10.4,17.6-18,17.1-21.7c-0.1-0.8-0.5-1.3-1-1.5c-1.5-0.3-7.1,4.1-10.1,6.4c-3.4,2.7-6.4,5-8.6,5.8c-1,0.4-2.2-0.2-2.5-1.2
			s0.2-2.2,1.2-2.5c1.5-0.5,4.5-2.9,7.4-5.1c6.1-4.8,10.2-7.8,13.3-7.2c0.2,0,0.5,0.1,0.7,0.2c1.1,0.4,2,1.2,2.6,2.2
			c0.4,0.7,0.7,1.6,0.9,2.5C342.9,122.4,341.2,130.6,323.8,144.1z"/>
		<path class="st1" d="M338.4,119.2c0.5,3.7-3.7,11.3-17.1,21.7c-13.2,10.2-22.6,7.1-26,5.2c-0.2-0.1-0.5-0.3-0.8-0.4
			c0,0-0.1-0.1-0.1-0.1c-3.7-2.3-6.1-6.1-5.9-9.5c0.2-3.3,0.4-6.3,0.5-8.2c0.1-1.6-0.2-3.1-0.9-4.5c-0.3-0.6-0.7-1.2-1-1.9
			c-0.5-0.9-1.2-2.1-1.3-2.7c-0.3-1.8,1.3-4.9,3.9-6.5c2.2-1.4,4.6-1.3,6.9,0.4c3.5,2.4,3.6,4.9,3.7,7.2c0.1,1.7,0.2,3.7,2.1,4.8
			c1.2,0.7,2.8,0.7,4.1-0.1c1.9-1.2,6.9-4.7,11.5-11.8c2.4-3.7,5.3-5.8,7.7-6.9c-0.6,0.8-1.2,1.8-1.7,2.7c-3,6.2-7.1,10.6-9.4,11.2
			c-1.1,0.3-1.7,1.4-1.4,2.5c0.2,0.9,1,1.4,1.9,1.4v0c0.2,0,0.4,0,0.6-0.1c4.4-1.3,9.1-7.6,11.9-13.3c1.5-3.1,4.4-5.5,7-5.9
			c1.5-0.2,2.7,0.3,3.7,1.4c2.1,2.4,0.8,6-0.2,8c-3.1-0.6-7.2,2.4-13.3,7.2c-2.9,2.3-5.9,4.6-7.4,5.1c-1,0.4-1.6,1.5-1.2,2.5
			s1.5,1.6,2.5,1.2c2.2-0.8,5.1-3.1,8.6-5.8c3-2.3,8.5-6.7,10.1-6.4C338,117.9,338.3,118.4,338.4,119.2z"/>
		<path d="M341.5,116.2c-0.4,0.8-0.7,1.2-0.8,1.3c-0.6,0.9-1.9,1.1-2.8,0.5c-0.9-0.6-1.1-1.9-0.5-2.8c0,0,0.4-0.6,0.8-1.4
			c1-2,2.3-5.6,0.2-8c-1-1.1-2.2-1.6-3.7-1.4c-2.6,0.4-5.5,2.8-7,5.9c-2.8,5.7-7.5,12-11.9,13.3c-0.2,0-0.4,0.1-0.6,0.1v0
			c-0.9,0-1.7-0.6-1.9-1.4c-0.3-1.1,0.3-2.2,1.4-2.5c2.3-0.7,6.4-5,9.4-11.2c0.5-1,1-1.9,1.7-2.7c1.7-2.2,3.8-3.9,6.1-4.8
			c0.8-0.3,1.5-0.5,2.3-0.6c2.8-0.4,5.4,0.6,7.3,2.7C345.4,107.6,342.9,113.6,341.5,116.2z"/>
	</g>
	<path class="st1" d="M302.6,189.3c-9.2,13.5-28.1,17-47.3,9l18.1-17c1,0.2,2.6,0.5,4.4,0.5v0c3,0,6.7-0.7,10.1-3.3
		c4-3.2,6.5-8.4,7.5-15.5c1.3-1.8,3.1-5.3,8.2-6.2c5.4-1,7.4-4.4,8-5.9c0.1,0,0.2,0,0.2-0.1C314.1,164.9,311.3,176.6,302.6,189.3z"
		/>
	<path d="M311.7,150.1c0,0,0,0.1-0.1,0.3c0,0.1-0.1,0.3-0.2,0.5c-0.6,1.5-2.5,4.8-8,5.9c-5.1,1-6.8,4.5-8.2,6.2
		c-0.5,0.7-1,1.1-1.5,1c-1.7-0.2-0.6-10.7-0.1-14.2c0.1-0.7,0.1-1.1,0.1-1.1l1.7,0.1l16,1.3L311.7,150.1z"/>
	<path d="M184,479c-0.1,0-0.1,0-0.2,0L48.4,464.5c-0.6-0.1-1.2-0.4-1.5-1c-0.3-0.5-0.4-1.2-0.1-1.8L134.4,246c0.2-0.6,0.7-1,1.3-1.2
		s1.2-0.1,1.7,0.3c0.2,0.1,21,15.1,54.3,10.2c1.1-0.2,2.1,0.6,2.3,1.7c0.2,1.1-0.6,2.1-1.7,2.3c-29.1,4.2-48.8-5.8-55.1-9.6
		L51.5,460.8l130.6,14l6.1-156.8c0-1.1,1-2,2.1-1.9c1.1,0,2,1,1.9,2.1L186,477.1c0,0.5-0.3,1.1-0.7,1.4
		C185,478.9,184.5,479.1,184,479L184,479z"/>
	<path d="M184,479c-0.5,0-1-0.2-1.4-0.5c-0.4-0.4-0.7-1-0.6-1.5l6.2-158.9c0-1.1,1-2,2.1-1.9c1.1,0,2,1,1.9,2.1l-6.1,156.6
		l130.1-13.9l-83.8-209.3c-4.2,2.9-14.6,7.5-39.8,7.5l0,0c-1.1,0-2-0.9-2-2c0-1.1,0.9-2,2-2c33,0,38.8-7.9,38.9-8
		c0.4-0.6,1.1-1,1.9-0.9c0.8,0.1,1.4,0.6,1.7,1.2l85.9,214.5c0.2,0.6,0.2,1.2-0.1,1.8c-0.3,0.5-0.9,0.9-1.5,1l-135,14.4
		C184.2,479,184.1,479,184,479L184,479z"/>
	<polygon points="190.2,318.1 176.2,476 184,477 	"/>
	<path class="st1" d="M129.4,480.7c-16.7,1.7-35.4,3.4-53.2,4.5c-56.3,3.5-69.4-0.8-72.2-3.8c-0.6-0.6-0.6-1.1-0.5-1.5
		c2.1-12.3,24.6-14.8,42.2-14.6L129.4,480.7z"/>
	<polygon points="174.3,476 166.5,477.2 135.6,481.8 129.4,480.7 45.7,465.3 41.8,464.6 45.8,462.6 46.7,462.7 61.3,464.3 
		173.3,475.9 	"/>
	<polygon points="324.3,464.6 319.8,465.5 237.9,480.5 230.6,481.8 200.5,477.3 192.1,476 191.8,476 195.3,475.6 320.3,462.6 
		321,463 	"/>
</g>
</svg>
