<?xml version="1.0" encoding="utf-8"?>
<!-- Generator: Adobe Illustrator 27.2.0, SVG Export Plug-In . SVG Version: 6.00 Build 0)  -->
<svg version="1.1" id="Calque_2_00000061455930187617969470000003015007836746568331_"
	 xmlns="http://www.w3.org/2000/svg" xmlns:xlink="http://www.w3.org/1999/xlink" x="0px" y="0px" viewBox="0 0 408 485.5"
	 style="enable-background:new 0 0 408 485.5;" xml:space="preserve">
<style type="text/css">
	.st0{fill:#35A88A;}
	.st1{fill:#BCFFEC;}
	.st2{fill:#5277B8;}
	.st3{fill:#FFFFFF;}
	.st4{fill:#AC4250;}
</style>
<g id="Calque_1-2">
	<g>
		<path class="st0" d="M157.6,248.6L63,457l124.1,19.7l18.1-159.1l26.4,159.1l115-21.1l-94.1-205.2
			C252.5,250.4,204.6,269.3,157.6,248.6L157.6,248.6z"/>
		<path class="st0" d="M157.6,248.6c0,0-50.9-76,39.8-102.1c0,0,40.1,3.8,50.6,17s20.5,18.9,19.2,45.2c-1.3,26.3-7.8,35.8-28.1,46.1
			C213.6,267.8,157.6,248.6,157.6,248.6L157.6,248.6z"/>
		<polygon class="st1" points="200,166.5 209.8,167 215.6,225.8 203.3,232.9 193,223 		"/>
		<polygon class="st2" points="168,160.1 173.3,157.5 255.1,244.1 251.2,247.4 		"/>
		<polygon class="st3" points="173.3,157.5 177.8,154.9 256.4,239.6 255.1,244.1 		"/>
		<polygon class="st4" points="177.8,154.9 181.6,152.5 260,233.6 256.4,239.6 		"/>
		<polygon class="st1" points="195.8,156.9 204.6,147.3 214.8,157.9 211.6,164 198,164 		"/>
		<polygon class="st4" points="289.4,281.7 280.9,284.4 280.6,284 261.4,262.7 261,262.2 260,261.1 259.5,260.6 259.7,260.5 
			259.8,260.4 259.8,260.4 260.1,260.3 260.9,259.9 		"/>
		<path d="M212,166.8h-15.2l-5.1-11.4l10.1-9.1c0.8-0.8,2.8-2.6,4.7-0.9l0.1,0.1l10.2,10L212,166.8L212,166.8z M199.4,162.8h10
			l2.7-6.4l-7.4-7.3c-0.1,0.1-0.1,0.1-0.1,0.1l-8,7.2L199.4,162.8L199.4,162.8z"/>
		<path d="M214.6,189.2l-18.7-20l0.6-5.9H212L214.6,189.2z M200.1,167.9l9.4,10l-1.1-10.5h-8.3L200.1,167.9z"/>
		<path d="M204.6,236.2l-14.1-11.7l3.8-38.6l22.3,23l1.6,15.9L204.6,236.2L204.6,236.2z M194.7,222.8l9.9,8.2l9.5-7.9l-1.2-12.4
			l-15.4-15.8L194.7,222.8L194.7,222.8z"/>
		<path d="M180.5,475.6c-0.3-0.5-0.8-0.8-1.4-0.9l-0.5-0.1l-32.5-5.5l-10.4-1.8l-69.9-11.9l-2.1-0.3l-0.5-0.1h-0.1
			c-0.2,0-0.7-0.1-1.5-0.2c-9.3-0.9-56.9-4.6-60.5,17.1c-0.3,1.9,0.3,3.6,1.7,5.1c5.2,5.6,24.1,8.4,57.5,8.4c9.2,0,19.6-0.2,31-0.6
			c39.9-1.5,79.9-5.1,87.5-5.8c0.2,0,0.3-0.1,0.5-0.1c0.5-0.2,0.9-0.5,1.2-1c0.2-0.3,0.3-0.6,0.3-1
			C180.9,476.5,180.7,476,180.5,475.6z M91.3,480.8c-66.9,2.5-82.3-3-85.5-6.5c-0.7-0.7-0.7-1.3-0.6-1.7c2-11.8,22.8-14.6,40-14.6
			c6.9,0,13.2,0.5,17.5,1l1.3,0.2c0,0,0,0,0,0c0,0,0.1,0,0.1,0l11,1.9l89.2,15.2c-8.6,0.7-20.1,1.6-33.1,2.5
			C118.8,479.6,105.1,480.3,91.3,480.8z"/>
		<path class="st3" d="M131.2,478.8c-12.4,0.8-26.2,1.5-39.9,2.1c-66.9,2.5-82.3-3-85.5-6.5c-0.7-0.7-0.7-1.3-0.6-1.7
			c2-11.8,22.8-14.6,40-14.6c6.9,0,13.2,0.5,17.5,1l1.3,0.2c0,0,0,0,0,0c0,0,0.1,0,0.1,0l11.1,1.9l0,0L131.2,478.8z"/>
		<path d="M348.5,454.9C348.5,454.9,348.4,454.8,348.5,454.9l-73.2-161.2l-1.8-4.1l0,0l-1.5-3.2l-11-24.1l-0.2-0.4l-0.4-0.8
			l-0.3-0.7l-3.3-7.4l0,0l-1.8-3.9l-0.2-0.4l-0.4-0.9c-0.2-0.5-0.6-0.8-1.1-1l0,0c-0.3-0.1-0.7-0.2-1-0.1c0,0-0.1,0-0.1,0h0
			c-0.1,0-0.2,0-0.3,0.1l-0.4,0.1l-0.6,0.2l-1.2,0.4h0l-0.6,0.2c-0.1,0-0.2,0.1-0.2,0.1c-2,0.8-4.1,1.5-6.2,2.2
			c-25.9,8.3-54,7.8-79.6-1.6l-3.9-1.4l-0.9-0.3c-0.6-0.2-1.2-0.1-1.7,0.2c-0.1,0.1-0.2,0.1-0.2,0.2v0c-0.2,0.2-0.4,0.4-0.5,0.7
			l-0.3,0.7l-0.1,0.2h0L61.7,454.9c0,0,0,0,0,0c-0.4,0.9-0.4,1.9,0.1,2.8c0.4,0.8,1.2,1.4,2.1,1.6c0,0,0,0,0,0c0,0,0.1,0,0.1,0
			l11.1,1.9l0,0l89.1,15.2l4.5,0.8l8.9,1.5l0.2,0c0.9,0.1,1.9-0.1,2.7-0.7c0,0,0.1,0,0.1-0.1c0.7-0.5,1.2-1.2,1.4-2
			c0.1-0.2,0.1-0.4,0.2-0.6l17.8-112.8l0-0.1l4.8-30.6v0l0.2-1.5l22.9,145.4c0.1,0.9,0.7,1.8,1.4,2.3c0.2,0.1,0.3,0.2,0.5,0.3
			c0.5,0.2,1,0.3,1.5,0.3l0,0c0.2,0,0.4,0,0.6,0l9.8-1.7l4.1-0.7l81.5-13.9l18.6-3.2c0,0,0.1,0,0.2,0c0.9-0.2,1.7-0.8,2.1-1.6
			C348.8,456.7,348.8,455.8,348.5,454.9z M232,474.6l-24.8-157.3c-0.2-1-1-1.7-2-1.7l0,0c-1,0-1.8,0.7-2,1.7l-24.8,157.3l-32.2-5.5
			l-10.4-1.8l-69.9-11.9l0,0l67.6-148.8l25.2-55.6l3,1.1c17.8,6.5,36.7,8.9,55.4,7.1h0c6.6-0.6,13.1-1.7,19.5-3.4c0,0,0,0,0,0
			c0,0,0,0,0,0c4.6-1.2,9.1-2.6,13.6-4.3c0,0,0.1,0,0.1,0c0.1,0,0.1,0,0.2-0.1l1.1-0.4l92.8,204.4v0L232,474.6L232,474.6z"/>
		<path d="M409,472c-3.6-21.8-51.5-18-60.6-17.1c-0.8,0.1-1.2,0.1-1.4,0.2l-0.6,0.1l-2,0.3L232,474.6l-0.7,0.1h0
			c-1.1,0.2-1.9,1.2-1.8,2.2c0,0.5,0.2,1,0.6,1.4c0.4,0.4,0.9,0.6,1.4,0.7c7.6,0.7,47.6,4.3,87.5,5.8c11.4,0.4,21.7,0.6,30.9,0.6h0
			c33.4,0,52.3-2.8,57.5-8.4C408.8,475.6,409.3,473.8,409,472z M404.5,474.4c-3.2,3.5-18.6,8.9-85.3,6.5c-16-0.6-32.1-1.5-46.1-2.5
			c-10.6-0.7-19.9-1.5-27.1-2.1l81.5-13.9l18.7-3.2l1.4-0.2c15.1-1.8,54.8-2.8,57.5,13.6C405.2,473.1,405.2,473.6,404.5,474.4z"/>
		<path class="st3" d="M404.5,474.4c-3.2,3.5-18.6,8.9-85.3,6.5c-16-0.6-32.1-1.5-46.1-2.5l54.3-15.9l18.6-3.2c0,0,0.1,0,0.2,0
			l1.4-0.2c15.1-1.8,54.8-2.8,57.5,13.6C405.2,473.1,405.2,473.6,404.5,474.4z"/>
		<path d="M269.2,208.7c0,0.3,0,0.5,0,0.8c0,1.4-0.1,2.9-0.2,4.3c0,0.6-0.1,1.1-0.2,1.7c-0.1,0.5-0.1,1-0.2,1.5
			c-0.3,2.3-0.8,4.7-1.3,6.9c-1,3.9-2.4,7.8-4.1,11.4c0,0,0,0,0,0.1l-0.6,1.3c0,0.1-0.1,0.2-0.1,0.3l-0.1,0.1
			c-0.9,1.7-1.8,3.4-2.9,5.1c-0.2,0.3-0.3,0.6-0.5,0.8c-0.1,0.1-0.2,0.2-0.2,0.4c-0.2,0.3-0.4,0.6-0.6,0.9c-0.4,0.5-0.7,1.1-1.1,1.6
			c-0.1,0.1-0.1,0.2-0.2,0.3c-0.6,0.8-1.1,1.5-1.8,2.3c-0.1,0.1-0.1,0.2-0.2,0.3c-0.1,0.2-0.3,0.4-0.5,0.6l-2.7-2.2l0,0l-0.2-0.2
			l-0.2-0.2c0.3-0.4,0.6-0.7,0.9-1.1c0.7-0.8,1.3-1.7,1.9-2.5c0.5-0.7,1-1.4,1.5-2.1h0c0,0,0.1-0.1,0.1-0.1c0.2-0.3,0.4-0.7,0.6-1
			c0.6-1,1.2-2,1.8-3c0.3-0.5,0.6-1.1,0.8-1.6l0.1-0.1c0.3-0.5,0.5-1.1,0.8-1.6c0.2-0.4,0.4-0.9,0.6-1.3c0,0,0,0,0,0
			c1.3-3,2.3-6.1,3.1-9.2c1.2-4.6,1.7-9.4,1.8-14.2c0.1-16-6.1-31.1-17.3-42.5c-2.9-2.9-6-5.5-9.3-7.7c0,0-0.1,0-0.1-0.1
			c-0.1,0-0.1-0.1-0.2-0.1c-0.6-0.4-1.2-0.8-1.8-1.2c-4.1-2.5-8.5-4.5-13-5.9c-3-1-6-1.7-9.2-2.1c-1.5-0.2-3-0.4-4.5-0.5
			c-1-0.1-1.9-0.1-2.9-0.1c-0.4,0-0.9,0-1.3,0h-0.4c-0.2,0-0.3,0-0.5,0c-0.1,0-0.2,0-0.3,0c-0.3,0-0.6,0-0.8,0c-0.5,0-0.9,0-1.4,0.1
			c-1,0-2,0.1-3,0.2c-3.7,0.4-7.3,1.1-10.8,2.1l-0.9,0.2c-0.1,0-0.1,0-0.2,0.1l0,0c-0.7,0.2-1.5,0.5-2.2,0.7h0
			c-0.7,0.2-1.4,0.5-2,0.8c-0.2,0.1-0.5,0.2-0.7,0.3l-0.2-0.5l-0.2-0.4l-0.3-0.8l0-0.1l0,0l0-0.1l-0.1-0.2l-0.6-1.4l0-0.1l0,0
			c0,0,0,0,0.1,0c0.1,0,0.1-0.1,0.2-0.1c0.7-0.3,1.4-0.6,2.1-0.8c0.1,0,0.1,0,0.2-0.1c0.8-0.3,1.6-0.6,2.5-0.8c0.1,0,0.2,0,0.2-0.1
			l0.3-0.1h0.2l0.6-0.2c0.1,0,0.2-0.1,0.3-0.1c1.3-0.4,2.6-0.7,3.9-1c0.3-0.1,0.7-0.2,1-0.2c0.7-0.1,1.3-0.3,2-0.4
			c0.3-0.1,0.6-0.1,0.9-0.1c3.4-0.5,6.8-0.8,10.2-0.8c0.1,0,0.2,0,0.3,0c2.9,0,5.8,0.2,8.6,0.7c1.2,0.2,2.4,0.4,3.5,0.6
			c0.1,0,0.3,0.1,0.4,0.1c1.6,0.3,3.1,0.7,4.6,1.1c1.3,0.4,2.6,0.8,3.9,1.2c2.1,0.8,4.2,1.6,6.2,2.6c6.5,3.1,12.4,7.4,17.6,12.6
			c3.6,3.6,6.6,7.5,9.2,11.8c1.5,2.5,2.8,5,4,7.7c1.7,4,3,8.1,3.9,12.4c0.6,2.8,1,5.7,1.2,8.6C269.2,205.4,269.2,207,269.2,208.7z"
			/>
		<path d="M156.3,249.4c-2.6-3.1-4.9-6.4-6.8-9.8c-4.1-7.3-6.7-15.3-7.7-23.7v-0.1c-0.3-2.6-0.5-5.3-0.4-7.9
			c0.1-11.4,3.2-22.6,9-32.3c3.6-6,8-11.3,13.4-15.9c0.5-0.4,1-0.9,1.5-1.3l2.5,3.1c-0.5,0.4-0.9,0.8-1.4,1.2
			c-5,4.3-9.2,9.3-12.5,14.9c-5.4,9.1-8.3,19.6-8.4,30.3c0,2.5,0.1,5,0.4,7.5v0.1c1,7.8,3.4,15.2,7.2,22.1c1.8,3.3,4,6.4,6.4,9.2
			L156.3,249.4L156.3,249.4z"/>
		<g>
			<path class="st3" d="M236.5,157.1l-16.4,6.3c-0.3,0.1-0.7,0-0.9-0.2l-12.7-15.4c-0.5-0.6,0-1.4,0.7-1.4c5.1,0.4,19.2,2,29.5,9.1
				C237.2,156,237.1,156.8,236.5,157.1L236.5,157.1z"/>
			<path d="M219.8,165.5c-0.8,0-1.6-0.4-2.2-1l-12.7-15.4c-0.7-0.9-0.9-2.1-0.3-3.1s1.6-1.6,2.7-1.5c5.6,0.4,19.9,2.1,30.5,9.5
				c0.9,0.6,1.3,1.6,1.2,2.7c-0.1,1-0.8,1.9-1.8,2.3l-16.4,6.3C220.5,165.4,220.2,165.4,219.8,165.5L219.8,165.5z M209.8,148.7
				l10.4,12.6l13.5-5.2C225.5,151.1,215.6,149.3,209.8,148.7z"/>
		</g>
		<g>
			<path class="st3" d="M202.8,147.8l-1.1,1.3l-6.9,8.3l-3.4,4.1l-9.8-10.5c0,0,0,0,0,0c-3.6,1.5-7.1,3.3-10.3,5.5
				c2.4-1.8,5.1-3.3,7.8-4.6c0,0,0,0,0.1,0c2.6-1.2,5.3-2.1,7.8-2.8c0,0,0.1,0,0.1,0c0.3-0.1,0.6-0.2,0.9-0.2
				c6.1-1.6,11.5-2.2,14.3-2.4C202.8,146.4,203.2,147.2,202.8,147.8L202.8,147.8z"/>
			<path d="M191.5,164.5l-10.4-11.1c-3,1.3-5.9,2.9-8.7,4.8l-2.3-3.3c2.3-1.8,4.9-3.3,7.9-4.7l0.3-0.3h0.4c2.3-1,4.9-1.9,7.6-2.7
				l0.3-0.1h0.2c0.1,0,0.2-0.1,0.4-0.1l0.3-0.1c6.3-1.7,11.9-2.3,14.7-2.5c1.1-0.1,2.2,0.5,2.7,1.5s0.4,2.2-0.3,3.1l-1.1,1.3
				L191.5,164.5L191.5,164.5z M185,151.8l6.3,6.7l8.1-9.8c-2.9,0.3-6.8,0.9-11.1,2.1l-0.3,0.1c-0.1,0-0.3,0.1-0.4,0.1l-0.4,0.1
				C186.5,151.3,185.7,151.5,185,151.8L185,151.8z"/>
		</g>
		<g>
			<path d="M259.5,44.8c-16.1,9.8-24.4,15.4-24.9,18.3c-0.2,1,0.8,2.3,2.6,4.4c1,1.2,2.1,2.5,3.2,4.2c1.6,2.3,1.4,4.3,0.9,5.5
				c-1.8,4.7-10.4,6.8-19.4,9c-4.5,1.1-12,2.9-13,4.4c1.2,1.5,10.8,0.6,15.9,0.2c10.3-0.9,16.7-1.2,18.9,1.8
				c0.6,0.8,1.1,2.2,0.3,4.2c-1.9,4.4-6.8,7.4-12,10.6c-6.6,4-13.5,8.2-13.5,15.1l-0.1,20.6l0,2.6v1l-4,0l0-1.4V145l0.1-22.5
				c0-9.2,8.2-14.1,15.4-18.5c4.7-2.8,9.1-5.5,10.4-8.8c0.1-0.2,0.1-0.3,0.1-0.4c-1.4-1.3-10.4-0.5-15.3-0.1
				c-10.7,0.9-19.2,1.6-20.2-3.4c-1-4.9,6.5-6.7,16-9c6.2-1.5,15.6-3.8,16.6-6.5c0.1-0.2,0.3-0.7-0.5-1.8c-1-1.5-2.1-2.8-3-3.9
				c-2.1-2.6-3.9-4.8-3.5-7.6c0.7-4.3,5.7-8.2,26.8-21c11.5-7,15.6-17.1,10.4-25.7c-3.9-6.5-12.5-10.8-23-11.6
				c-9.1-0.6-24,1.1-43.6,12.6c-19.7,11.7-28.7,30.2-26.6,55c1.7,20,10.1,39,15.3,49c0.1,0.2,0.2,0.5,0.4,0.7
				c2.6,4.9,4.1,10.1,4.4,15.5l0.6,8.1l0,0.1l0.1,0.9l-0.9,0.1l-2.3,0.2l-0.7,0l0-0.5l0-0.1l-0.2-3.7l-0.3-4.9
				c-0.3-4.8-1.7-9.5-4-13.9c-5.3-10.1-14.4-30.1-16.2-51.2c-2.2-26.4,7.4-46.2,28.5-58.7c34.5-20.4,62.8-15.1,72.1,0.3
				C278.6,25.8,270.6,38.1,259.5,44.8z"/>
			<ellipse cx="240.7" cy="18.3" rx="4.3" ry="3.9"/>
		</g>
		<path d="M187.9,146.9l-0.1,1.8l0,0.2l0,0.8l-0.1,1.2c-0.7,0-1.8-0.1-2.9-0.1c-0.3,0-0.5,0-0.8,0c-0.5,0-1,0-1.5,0
			c-0.1,0-0.3,0-0.4,0c0,0,0,0,0,0h-0.7c-0.6,0-1.2,0-1.6,0c-0.7,0-1.4,0-2.1,0c-0.1,0-0.2,0-0.3,0c-0.2,0-0.3,0-0.5,0
			c-0.1,0-0.1,0-0.2,0c-1.2,0-2.4,0.1-3.6,0.2c-22.9,1.9-42.1,13.5-50.9,29.3c-0.3,0.6-0.7,1.2-1,1.8c-0.2,0.5-0.5,1-0.7,1.5
			c-0.1,0.2-0.1,0.3-0.2,0.5c-0.8,1.7-1.4,3.5-1.9,5.3c-0.9,3.3-1.4,6.7-1.4,10.1c0,18.3,12.8,34.7,33.3,43.1
			c0.4,0.2,0.7,0.3,1.1,0.4c0.4,0.2,0.8,0.3,1.2,0.5c0.8,0.3,1.6,0.6,2.4,0.8c0.6,0.2,1.2,0.4,1.8,0.6l-0.5,1.7l-0.1,0.4l-0.5,1.7
			c0,0-0.1,0-0.1,0c-0.1,0-0.2-0.1-0.3-0.1c-25.6-8-42.2-27.3-42.2-49.2c0-6.4,1.5-12.6,4.2-18.3c0.3-0.6,0.6-1.2,0.9-1.9
			c0.3-0.6,0.6-1.2,1-1.8c10.6-18.2,33.8-30.8,60.6-30.8c0.5,0,1.2,0,1.9,0c1.7,0,3.9,0.1,5.3,0.1c0.2,0,0.3,0,0.4,0h0.1
			C187.8,146.8,187.9,146.8,187.9,146.9z"/>
		<path d="M142.2,217c-4.6-5.1-7-11.2-7-17.5c0-9.7,5.9-18.9,15.7-24.6l2,3.5c-8.6,5-13.7,12.9-13.7,21.1c0,5.3,2.1,10.5,5.9,14.9
			L142.2,217L142.2,217z"/>
		<path d="M297.8,199.5c0,22-16.7,41.3-42.5,49.2c0,0-0.1,0-0.1,0l-0.1-0.4l-0.7-2.3l-0.3-1l0-0.1l0-0.1c0,0,0.1,0,0.2,0
			c0,0,0.1,0,0.1,0c0.8-0.2,1.5-0.5,2.2-0.7c0.4-0.1,0.8-0.3,1.1-0.4c0.4-0.1,0.7-0.2,1.1-0.4c0.2-0.1,0.4-0.1,0.5-0.2
			c0,0,0.1,0,0.1,0c0.2,0,0.3-0.1,0.5-0.2c3.7-1.5,7.2-3.2,10.4-5.2c14.7-9.1,23.5-23,23.5-38.2c0-3.5-0.5-7-1.4-10.3
			c-0.5-1.9-1.2-3.7-1.9-5.5c-0.1-0.1-0.1-0.3-0.2-0.4c-0.2-0.5-0.5-1-0.7-1.5c-0.3-0.6-0.6-1.2-1-1.8
			c-8.9-15.8-28.3-27.3-51.3-29.1c-1.4-0.1-2.8-0.2-4.2-0.2c-0.1,0-0.3,0-0.4,0c-0.2,0-0.4,0-0.6,0c-0.3,0-0.7,0-1,0
			c-0.7,0-1.9,0-3.1,0c-0.3,0-0.6,0-0.9,0c-1.5,0-3,0.1-3.8,0.1l-0.1-1.5l0-0.6l-0.1-1.6l0-0.4h0c0,0,0,0,0,0c0.1,0,0.3,0,0.4,0
			c1.4-0.1,3.5-0.1,5.3-0.1c0.9,0,1.7,0,2.3,0c26.7,0,49.8,12.5,60.4,30.5c0.4,0.6,0.7,1.2,1,1.8c0.3,0.6,0.6,1.2,0.9,1.8
			C296.3,186.6,297.8,192.9,297.8,199.5z"/>
		<path d="M268.8,217l-3-2.6c3.9-4.4,6-9.5,6-14.9c0-8.2-5.1-16.1-13.7-21.1l2-3.5c9.8,5.7,15.7,14.9,15.7,24.6
			C275.7,205.8,273.3,211.9,268.8,217L268.8,217z"/>
		<path d="M252.3,250.3c-0.7,0-1.4-0.3-1.8-0.8l-1.2-1.2l-85.9-88.4l1.7-1.4c1.6-1.3,3.3-2.6,5-3.7c3.4-2.2,6.9-4.1,10.6-5.6
			l0.3-0.2h1.3l80.2,85.6l-3.3,7.5h0.6l-1.9,3.1c-2.1,3.3-3.8,4.9-5.5,5.1C252.5,250.2,252.4,250.3,252.3,250.3L252.3,250.3z
			 M253.3,246.7L253.3,246.7C253.3,246.7,253.3,246.7,253.3,246.7z M197.8,189.6l54.7,56.3c0.4-0.4,1.1-1.2,2-2.6l3.4-7.8l-76.9-82
			c-3,1.3-5.9,2.9-8.7,4.8c-1,0.6-2,1.4-3,2.1L197.8,189.6L197.8,189.6z"/>
		<path d="M166.1,162.8l-2.6-2.9l1.4-1.3c0.2-0.2,5.2-5.1,13.1-8.3l0.3-0.3h0.4c0.7-0.3,1.5-0.6,2.3-0.8l1.4,3.8
			c-3.5,1.4-6.8,3.2-10,5.3c-1.6,1-3.2,2.2-4.7,3.4L166.1,162.8L166.1,162.8z"/>
		<path d="M257.5,246.1h-4.1l6.4-14.7l3.6,3.8l-0.7,1.3c0,0.1-0.1,0.2-0.1,0.3l-0.1,0.1c-1.5,3.3-3,6.1-4.4,8.2L257.5,246.1
			L257.5,246.1z"/>
		<path d="M291.8,281.1l-35.1-28.2l-0.5-0.4l-1.8,2.2l-0.7,0.9l1.9,1.5l4.1,3.3l0.1,0l0.2,0.2l0.5,0.4l26.5,21.3l-6.4,1.6l-0.9,0.2
			l3,9.1l0.4,1l-11.1-8l-0.1-0.1l-1.2,1.6l-0.6,0.8l-0.6,0.8l1.5,1.1l4.3,3.1l9.7,6.9c0.4,0.3,0.9,0.4,1.4,0.4h0
			c0.5,0,1-0.2,1.4-0.5c0.8-0.6,1.2-1.7,0.8-2.6l-3.7-10.9l6-1.5c0.9-0.2,1.6-1,1.8-1.9C292.9,282.7,292.6,281.7,291.8,281.1z"/>
		<g>
			<path class="st0" d="M189.6,146c2-0.6,0.8-2.9-3.4-4.5c-18.3-6.9-48.2,0.2-76.2,30.1l31.4,29.5C141.4,201,146.5,158.9,189.6,146
				L189.6,146z"/>
			<path d="M142.9,205.1l-35.8-33.5l1.4-1.5c30.7-32.7,61.4-36.9,78.3-30.6c3.7,1.4,5.8,3.4,5.7,5.5c0,1.3-0.9,2.4-2.4,2.8l0,0
				c-41.3,12.4-46.7,52.9-46.8,53.3L142.9,205.1L142.9,205.1z M112.8,171.4l27.3,25.6c2.4-10.6,12.4-41.4,47.6-52.6
				c-0.5-0.3-1.2-0.8-2.3-1.1C169.9,137.5,141.7,141.5,112.8,171.4L112.8,171.4z"/>
		</g>
		<path d="M250.7,246.9l-6.6,4.7l-28.4-32.4l-20.3-23.2l-1.4-1.6l-14.1-16.1l-9.9-11.3l0,0h0l-5-5.7l-0.1-0.1l1.5-1.2l0.1,0.1
			l29.5,30.3l0,0l18.9,19.4L250.7,246.9L250.7,246.9z"/>
		<polygon class="st3" points="282.7,293.3 261.4,262.7 280.6,284 279.7,284.2 		"/>
		<polygon points="285.2,296.9 273.4,289.6 270.7,287.9 260,261.1 259.7,260.5 259.7,260.4 259.5,259.9 259.8,260.4 260,260.6 
			260.8,261.8 261.4,262.7 282.7,293.3 		"/>
		<path d="M274.5,214.4c-0.6,5.4-1.8,13-4.2,23.2c-0.2,0.8-0.4,1.6-0.6,2.5c0,0.1,0,0.1,0,0.2c-0.8,2.6-4.4,3.5-7.6,3.8
			c-1.2,0.1-2.3,0.1-3.3,0.1c0,0-0.1,0-0.1,0c-0.2,0-0.3,0-0.5,0c-0.2,0-0.5,0-0.6,0c-0.4,0-0.8,0-1-0.1c-0.1,0-0.1,0-0.2,0h0l1-2.2
			l0.1-0.2l2.9-6.6l0.9-2v0l3.4-7.8l0.8-1.9l0.4-1l2.5-5.8l0.5-1.2v0l2.3-5.3v0l1.2-2.9l0.7-1.7c0.5-3,1.5-3.3,1.8,0.4
			C275,207.8,274.9,210.5,274.5,214.4z"/>
		<polygon points="176,476.3 168.9,477.1 137.2,480.6 131.2,478.8 75.2,461.1 75.2,461.1 75.1,461.1 61.7,456.9 		"/>
		<polygon points="344,457.6 327.5,462.4 327.4,462.4 273.1,478.4 270.7,479.1 241.9,477 233.4,476.4 		"/>
		<polygon points="194.7,159.3 192.6,161.8 197.4,164.8 		"/>
		<polygon points="212.8,158.6 210.7,162.6 217.2,167 239.2,158.2 221.6,162.1 		"/>
		<path d="M205.1,329.7l-15.8,147.9c-0.1,0.8-0.8,1.5-1.6,1.5l-9.8-0.1l25.3-149.2H205.1z"/>
		<path d="M130.4,308.6l27.9-59.7c0,0,42.1,21.8,94.2,1.6c0,0-25.1,15.5-73.7,9.5C146.5,256,160.5,291.5,130.4,308.6L130.4,308.6z"
			/>
		<path d="M169.9,167c0,0,14.1,11.9,17.3,27.9c3.2,16,1.9,32,1.9,32l10.9,8.3c0.5,0.4,1.5,1.1,2.5,1.8c0.9,0.6,2.1-0.1,2.1-1.2v-2.2
			l-12-9.9l1.6-33.2L169.9,167L169.9,167z"/>
		<path class="st3" d="M267.9,15.7c-3.9-6.5-12.5-10.8-23-11.6c-9.1-0.6-24,1.1-43.6,12.6c-19.7,11.7-28.7,30.2-26.6,55
			c1.7,20,10.1,39,15.3,49l-0.1-0.7c0,0,7.8,18.4,16,24.3c2.9,0,5.8,0.2,8.6,0.7l0.1-22.5c0-9.2,8.2-14.1,15.4-18.5
			c4.7-2.8,9.1-5.5,10.4-8.8c0.1-0.2,0.1-0.3,0.1-0.4c-1.4-1.3-10.4-0.5-15.3-0.1c-10.7,0.9-19.2,1.6-20.2-3.4c-1-4.9,6.5-6.7,16-9
			c6.2-1.5,15.6-3.8,16.6-6.5c0.1-0.2,0.3-0.7-0.5-1.8c-1-1.5-2.1-2.8-3-3.9c-2.1-2.6-3.9-4.8-3.5-7.6c0.7-4.3,5.7-8.2,26.8-21
			C269,34.4,273,24.3,267.9,15.7z M240.7,22.2c-2.4,0-4.3-1.7-4.3-3.9s1.9-3.9,4.3-3.9c2.4,0,4.3,1.7,4.3,3.9S243.1,22.2,240.7,22.2
			z"/>
		<path d="M207.8,145.5l-1.1,0.1l-2,0.1l-0.3,0l-2.2,0.1l-7.8,0.5l0-0.2l-0.1-0.8l0-0.1l-0.7-9.9l-3.2-11.7l-0.5-2.9l-0.1-0.7
			c0,0,7.8,18.4,16,24.3c0.1,0.1,0.2,0.1,0.3,0.2C206.8,144.9,207.3,145.2,207.8,145.5z"/>
		<path class="st3" d="M150.4,242.6c-20.4-8.4-33.3-24.8-33.3-43.1c0-3.5,0.5-6.8,1.4-10.1c3.4,1.5,11.4,6.2,14.7,16.4
			c4.2,13.1,4.1,12.4,6.2,18C141.7,229.8,147,238.1,150.4,242.6z"/>
		<path d="M153.5,245.9c-0.2,0.2-1.4-1.1-3-3.2c-3.4-4.5-8.8-12.9-11-18.9c-2.1-5.6-2-4.9-6.2-18c-3.3-10.2-11.3-14.9-14.7-16.4
			c-0.8-0.4-1.4-0.6-1.5-0.6l1.8-6.1l0.1-0.3c0,0,0.6,0.5,1.6,1.3c3.7,2.9,12.7,9.8,14.3,11.3c0.2,0.2,0.4,0.5,0.6,0.8
			c0.4,0.8,0.7,2,0.9,3.3c0.4,2.5,0.7,5.6,2.1,7.9c0.6,1,1.7,3.5,3,6.8c0.4,0.9,0.8,1.9,1.2,2.9c3.6,9.1,8.2,21.9,10.1,26.9
			c0.2,0.6,0.4,1.1,0.6,1.5C153.5,245.5,153.6,245.8,153.5,245.9z"/>
		<g>
			<path class="st0" d="M220.9,146c-2-0.6-0.8-2.9,3.4-4.5c18.3-6.9,48.2,0.2,76.2,30.1L269.1,201C269.1,201,264,158.9,220.9,146
				L220.9,146z"/>
			<path d="M267.6,205.1l-0.5-3.9c0-0.4-5.5-40.9-46.8-53.3l0,0c-1.4-0.4-2.3-1.5-2.4-2.8c-0.1-2.1,2-4.1,5.7-5.5
				c17-6.4,47.7-2.1,78.3,30.6l1.4,1.5L267.6,205.1L267.6,205.1z M222.8,144.5c35.2,11.2,45.1,41.9,47.6,52.6l27.3-25.6
				c-28.9-29.9-57.1-33.9-72.6-28.1C224,143.7,223.3,144.1,222.8,144.5L222.8,144.5z"/>
		</g>
		<path class="st3" d="M293.8,199.5c0,15.2-8.8,29.1-23.5,38.2c2.3-10.2,3.6-17.8,4.2-23.2c0.7-2,1.5-4.7,2.8-8.7
			c3.4-10.7,12.1-15.3,15.1-16.6C293.3,192.5,293.8,196,293.8,199.5z"/>
		<path d="M293.5,188.8c-0.1,0-0.5,0.2-1.1,0.4c-3,1.3-11.7,5.9-15.1,16.6c-1.3,4-2.2,6.7-2.8,8.7c-1.5,4.6-1.9,5.4-3.4,9.3
			c-2.3,6.1-7.8,14.7-11.2,19.1c-0.4,0.5-0.7,1-1.1,1.3c-0.2,0.2-0.3,0.4-0.5,0.6l0,0c-0.7,0.8-1.1,1.1-1.2,1
			c-0.1-0.1,0-0.4,0.2-0.9c0.1-0.2,0.2-0.5,0.3-0.8c0.1-0.1,0.1-0.3,0.2-0.5c0.4-1.2,1-2.8,1.7-4.7c0.6-1.7,1.3-3.6,2.1-5.7v0
			c1-2.6,2-5.4,3-8.1c0.5-1.2,0.9-2.5,1.4-3.7c0.7-1.8,1.4-3.6,2-5.3c0.4-0.9,0.7-1.7,1-2.5c0,0,0,0,0,0c1.3-3.3,2.4-5.9,3-6.8
			c1.4-2.3,1.7-5.3,2.1-7.9c0.3-1.6,0.6-3,1.3-3.9c0.1-0.1,0.1-0.2,0.2-0.2c0,0,0,0,0,0c0.1-0.1,0.1-0.1,0.2-0.2
			c2.2-1.9,11.1-8.8,14.5-11.4c0.8-0.6,1.3-1,1.3-1l0.1,0.3L293.5,188.8z"/>
	</g>
</g>
</svg>
