<?xml version="1.0" encoding="utf-8"?>
<!-- Generator: Adobe Illustrator 27.2.0, SVG Export Plug-In . SVG Version: 6.00 Build 0)  -->
<svg version="1.1" id="Calque_2_00000156548916493535322540000003623804104569546935_"
	 xmlns="http://www.w3.org/2000/svg" xmlns:xlink="http://www.w3.org/1999/xlink" x="0px" y="0px" viewBox="0 0 370.9 506"
	 style="enable-background:new 0 0 370.9 506;" xml:space="preserve">
<style type="text/css">
	.st0{fill:#35A88A;}
	.st1{fill:#FFFFFF;}
	.st2{fill:#BCFFEC;}
	.st3{fill:#5277B8;}
	.st4{fill:#AC4250;}
</style>
<g id="Calque_1-2">
	<path class="st0" d="M135.2,267.1L49.6,476.8L185,492.6L319.2,476l-87.1-213.6C232.1,262.4,206.6,282.8,135.2,267.1L135.2,267.1z"
		/>
	<path d="M371.2,494.8c-2.8-16.9-32.2-18.4-49.5-17.8c-6.8,0.2-11.7,0.8-12.5,0.9l-30.7,3.1l-91.4,9.4l-2,0.2l-0.3,0l-1.7,0.3
		l-0.2,0l0.1,1.4v0l0,0.4c0.1,0.7,0.2,1.1,0.6,1.4c0.2,0.1,0.4,0.2,0.6,0.3c0,0,0,0,0,0c0.3,0.1,0.6,0.1,1,0.1h0.2
		c0.6,0,1.3,0,2.1,0c0.8,0,1.6,0,1.7,0c1.9,0.2,5.9,0.6,11.4,1.3c18.9,2.2,58.2,6.7,93.6,8.9c14.9,0.9,26.8,1.3,36.4,1.3l0,0
		c33,0,37.3-4.6,39-6.3C371,498.3,371.5,496.6,371.2,494.8z M366.7,497c-2.8,2.9-15.9,7.3-72.2,3.8c-18.6-1.2-38.4-3-55.6-4.8
		c-12.8-1.3-24.2-2.6-32.9-3.6l103.6-10.6h0c2.9-0.3,6.8-0.7,11.1-0.8c18-0.7,44.2,1.2,46.5,14.5C367.3,495.8,367.3,496.3,366.7,497
		z"/>
	<path class="st1" d="M366.7,497c-2.8,2.9-15.9,7.3-72.2,3.8c-18.6-1.2-38.4-3-55.6-4.8l81.9-15c18-0.7,44.2,1.2,46.5,14.5
		C367.3,495.8,367.3,496.3,366.7,497z"/>
	<path d="M182.4,494.5c-1.9,0.2-5.9,0.6-11.4,1.3c-18.9,2.2-58.2,6.7-93.6,8.9c-14.9,0.9-26.8,1.3-36.4,1.3l0,0
		c-33,0-37.3-4.6-39-6.3c-1.3-1.4-1.9-3.1-1.6-4.9c2.7-16.2,29.9-18.3,47.4-17.9c1,0,2,0.1,2.9,0.1c6.4,0.3,11,0.8,11.6,0.9
		l-0.1,0.5l-0.2,1.5l-0.2,1.6l0,0.4c-3.9-0.5-9.4-0.9-15.5-0.9c-17.6-0.2-40.1,2.3-42.1,14.6c-0.1,0.4-0.1,0.9,0.5,1.5
		c2.8,2.9,15.9,7.3,72.2,3.8c17.8-1.1,36.5-2.8,53.2-4.5c13.6-1.4,25.7-2.7,34.8-3.8c2-0.2,3.8-0.4,5.4-0.6c1.3-0.2,2.5-0.3,3.6-0.4
		c0.1,0,0.3,0,0.4-0.1c0.9-0.1,1.8-0.2,2.5-0.3c2.2-0.2,3.8-0.4,4.9-0.5l0.2,1.6l0,0.1l0.2,2.1L182.4,494.5z"/>
	<path class="st0" d="M139,264.1c0,0-50.9-76,39.8-102.1c0,0,40.1,3.8,50.6,17c10.6,13.3,20.5,18.9,19.2,45.2s-7.8,35.8-28.1,46.1
		C195,283.4,139,264.1,139,264.1L139,264.1z"/>
	<polygon class="st2" points="181.3,182 191.2,182.5 196.9,241.3 184.7,248.4 174.3,238.5 	"/>
	<polygon class="st3" points="149.4,175.6 154.7,173.1 236.5,259.6 232.6,263 	"/>
	<polygon class="st1" points="154.7,173.1 159.1,170.5 237.7,255.1 236.5,259.6 	"/>
	<polygon class="st4" points="159.1,170.5 162.9,168 241.3,249.2 237.7,255.1 	"/>
	<polygon class="st2" points="177.2,172.4 185.9,162.8 196.2,173.5 192.9,179.5 179.4,179.5 	"/>
	<polygon class="st4" points="270.7,297.2 262.3,299.9 261.9,299.5 242.8,278.2 241.6,276.9 241.3,276.6 240.9,276.1 241.1,276 
		241.1,276 241.2,275.9 241.2,275.9 242.2,275.5 	"/>
	<path d="M193.4,182.3h-15.2l-5.1-11.4l10.1-9.1c0.8-0.8,2.8-2.6,4.8-0.9l0.1,0.1l10.2,10L193.4,182.3L193.4,182.3z M180.7,178.3h10
		l2.7-6.4l-7.4-7.3c-0.1,0.1-0.1,0.1-0.1,0.1l-8,7.2L180.7,178.3L180.7,178.3z"/>
	<path d="M196,204.7l-18.7-20l0.6-5.9h15.5L196,204.7z M181.4,183.4l9.4,10l-1.1-10.5h-8.3L181.4,183.4z"/>
	<path d="M185.9,251.8l-14.1-11.7l3.8-38.6l22.3,23l1.6,15.9L185.9,251.8L185.9,251.8z M176,238.4l9.9,8.2l9.5-7.9l-1.2-12.4
		l-15.4-15.8L176,238.4L176,238.4z"/>
	<path d="M235.7,264.8l-3.1-2.6c1.6-1.9,3.1-3.9,4.4-5.9c1.2-1.9,2.3-3.7,3.2-5.6l0.1-0.2c1.9-3.8,3.4-7.9,4.5-12.1
		c1.1-4.6,1.7-9.4,1.8-14.2c0.2-33.1-26.6-60.1-59.6-60.3c-0.1,0-0.3,0-0.4,0c-5.7,0-11.4,0.8-16.9,2.4l-0.9,0.3
		c-1.7,0.6-3.4,1.2-5.1,1.8l-1.5-3.7c1.7-0.7,3.5-1.4,5.3-1.9l0.3-0.1l0.4-0.1l0.4-0.1c6-1.8,12.2-2.6,18.4-2.6
		c35.3,0.2,63.8,29.1,63.6,64.3c0,5.1-0.7,10.2-1.9,15.1c-1.1,4.5-2.8,8.9-4.8,13.1l-0.1,0.1c-1,2-2.1,4-3.4,5.9
		C239,260.6,237.4,262.8,235.7,264.8L235.7,264.8z"/>
	<path d="M137.6,264.9c-2.6-3-4.9-6.4-6.8-9.8c-4.1-7.3-6.7-15.3-7.7-23.7v-0.1c-0.3-2.6-0.5-5.2-0.4-7.9c0.1-11.4,3.2-22.6,9-32.3
		c3.6-6,8-11.3,13.4-15.9c0.5-0.4,1-0.9,1.5-1.3l2.5,3.1c-0.5,0.4-0.9,0.8-1.4,1.2c-5,4.3-9.2,9.3-12.5,14.9
		c-5.4,9.1-8.3,19.6-8.4,30.3c0,2.5,0.1,5,0.4,7.5v0.1c1,7.8,3.4,15.2,7.2,22.1c1.8,3.3,4,6.4,6.4,9.2L137.6,264.9L137.6,264.9z"/>
	<g>
		<path class="st1" d="M217.9,172.6l-16.4,6.3c-0.3,0.1-0.7,0-0.9-0.2l-12.7-15.4c-0.5-0.6,0-1.4,0.7-1.4c5.1,0.4,19.2,2,29.5,9.1
			C218.6,171.5,218.5,172.3,217.9,172.6L217.9,172.6z"/>
		<path d="M201.2,181c-0.8,0-1.6-0.4-2.2-1l-12.7-15.4c-0.7-0.9-0.9-2.1-0.3-3.1s1.6-1.6,2.7-1.5c5.6,0.4,19.9,2.1,30.5,9.5
			c0.9,0.6,1.3,1.6,1.2,2.7c-0.1,1-0.8,1.9-1.8,2.3l-16.4,6.3C201.9,180.9,201.5,181,201.2,181L201.2,181z M202.1,177.4L202.1,177.4
			L202.1,177.4z M191.1,164.2l10.4,12.6l13.5-5.2C206.9,166.7,197,164.9,191.1,164.2L191.1,164.2z M217.2,170.7L217.2,170.7
			L217.2,170.7z"/>
	</g>
	<g>
		<path class="st1" d="M184.1,163.3l-1.1,1.3l-6.9,8.3l-3.4,4.1l-9.8-10.5c0,0,0,0,0,0c-3.6,1.5-7.1,3.3-10.3,5.5
			c2.4-1.8,5.1-3.3,7.8-4.6c0,0,0,0,0.1,0c2.6-1.2,5.3-2.1,7.8-2.8c0,0,0.1,0,0.1,0c0.3-0.1,0.6-0.2,0.9-0.2
			c6.1-1.6,11.5-2.2,14.3-2.4C184.2,161.9,184.6,162.7,184.1,163.3L184.1,163.3z"/>
		<path d="M172.8,180l-10.4-11.1c-3,1.3-5.9,2.9-8.7,4.8l-2.3-3.3c2.3-1.7,4.9-3.3,7.8-4.6l0.3-0.4h0.5c2.3-1,4.8-1.9,7.6-2.7
			l0.3-0.1h0.2c0.1,0,0.2-0.1,0.4-0.1l0.3-0.1c6.3-1.7,11.9-2.3,14.7-2.5c1.1-0.1,2.2,0.5,2.7,1.5s0.4,2.2-0.3,3.1l-1.1,1.3
			L172.8,180L172.8,180z M166.4,167.3l6.3,6.7l8.1-9.8c-2.9,0.3-6.8,0.9-11.1,2.1l-0.3,0.1c-0.1,0-0.3,0.1-0.4,0.1l-0.4,0.1
			C167.8,166.8,167.1,167,166.4,167.3L166.4,167.3z"/>
	</g>
	<g>
		<path d="M208,99.9c1.1,1,1.7,2.5,1.6,4.2c-0.3,5.5-5,8.3-9.2,10.9c-5.6,3.4-8.7,5.6-6.7,11l0.1,0.2l7.2,31.2l0.6,2.5l0.3,1.2
			l-0.2,0l-1.1,0.3l-0.8,0.2l-0.1,0l-1.7,0.4l-0.1-0.4l-0.1-0.4l-0.1-0.4l-1.2-5.3l-6.5-28.3c-3.1-8.7,3.3-12.6,8.5-15.7
			c3.8-2.3,7.1-4.3,7.2-7.7c0-0.6-0.1-0.8-0.3-1c-2-1.8-10.2-0.7-16.2,0c-9.1,1.2-16.4,2.1-18.7-1.7c-2.6-4.3,3.8-8.5,12-13.9
			c5.6-3.7,13.4-8.8,13.4-11.7c0-0.2,0-0.7-1.1-1.5c-1.5-1.1-2.9-1.9-4.2-2.7c-2.9-1.7-5.3-3.1-5.8-6c-0.8-4.3,2.6-9.7,18.1-28.8
			c8.5-10.5,8.9-21.3,1.1-27.7c-10.6-8.7-36.9-7.1-62.3,23.5c-14.6,17.6-16.8,38.1-6.5,60.7c8.5,18.7,23.4,34,31.5,41.5
			c0.1,0.1,0.2,0.2,0.3,0.3c4,3.7,7,8,9.1,12.9l0.1,0.2l4.1,12.4l0,0.1l0.4,1.1l-1.8,0.6l0,0h0l-1.9,0.6v0l0-0.1l-0.6-1.7l0-0.1
			l-3.8-11.6c-1.9-4.4-4.8-8.3-8.4-11.7c-8.3-7.7-23.7-23.5-32.5-42.8c-11-24.2-8.6-46,7.1-64.9c25.6-30.8,54.1-35.4,67.9-24
			c7.9,6.5,10.8,19.3-0.6,33.3c-11.9,14.7-17.8,22.7-17.3,25.6c0.2,1,1.5,1.9,3.9,3.3c1.3,0.8,2.8,1.7,4.5,2.8
			c2.3,1.7,2.8,3.5,2.7,4.8c-0.1,5-7.5,9.9-15.2,15c-3.9,2.6-10.4,6.8-10.7,8.5c1.2,1.5,10,0.4,14.7-0.2
			C196.9,97.8,204.7,96.8,208,99.9z"/>
		<path d="M180.6,24.1c-2.2,0.8-4.6-0.2-5.4-2.2c-0.7-2,0.5-4.3,2.8-5.1c2.2-0.8,4.7,0.2,5.4,2.2C184.1,21,182.9,23.3,180.6,24.1z"
			/>
	</g>
	<path d="M169.3,162.4l-0.1,1.8l0,0.2l0,0.8l-0.1,1.2c-0.7,0-1.7-0.1-2.9-0.1c-0.2,0-0.5,0-0.8,0c-0.5,0-1,0-1.5,0h-0.4
		c-0.2,0-0.4,0-0.6,0h-0.1c-0.6,0-1.2,0-1.6,0c-0.7,0-1.4,0-2.1,0c-0.1,0-0.2,0-0.4,0c-0.2,0-0.3,0-0.5,0c0,0-0.1,0-0.1,0
		c-1.2,0-2.4,0.1-3.6,0.2c-22.9,1.9-42.1,13.5-50.9,29.3c-0.3,0.6-0.7,1.2-1,1.8c-0.2,0.5-0.5,1-0.7,1.5c-0.1,0.1-0.1,0.3-0.2,0.5
		c-0.8,1.7-1.4,3.5-1.9,5.3c0,0,0,0,0,0c-0.9,3.3-1.4,6.7-1.4,10.1c0,18.3,12.8,34.7,33.3,43.1c0.3,0.1,0.5,0.2,0.8,0.3
		c0.1,0.1,0.2,0.1,0.3,0.1c0.4,0.2,0.8,0.3,1.2,0.5c0.8,0.3,1.6,0.6,2.4,0.8c0.6,0.2,1.2,0.4,1.8,0.6l0,0.1l-0.5,1.6l-0.7,2.1
		c0,0,0,0-0.1,0c-0.8-0.3-1.7-0.5-2.5-0.8c-1.1-0.4-2.2-0.8-3.2-1.2c-22.5-8.9-36.8-26.9-36.8-47.2c0-6.5,1.5-12.6,4.2-18.4
		c0.3-0.6,0.6-1.2,0.9-1.9c0.3-0.6,0.6-1.2,1-1.8c10.6-18.2,33.8-30.8,60.6-30.8c0.5,0,1.1,0,1.9,0c1.7,0,3.8,0.1,5.3,0.1
		c0.2,0,0.3,0,0.5,0h0.1C169.1,162.4,169.2,162.4,169.3,162.4z"/>
	<path d="M123.6,232.5c-4.6-5.1-7-11.2-7-17.5c0-9.7,5.9-18.9,15.7-24.6l2,3.5c-8.6,5-13.7,12.9-13.7,21.1c0,5.3,2.1,10.5,5.9,14.9
		L123.6,232.5L123.6,232.5z"/>
	<path d="M233.7,265.8c-0.7,0-1.4-0.3-1.8-0.8l-1.2-1.2l-85.8-88.4l1.7-1.4c1.6-1.3,3.3-2.6,5-3.7c3.4-2.2,6.9-4.1,10.6-5.6l0.3-0.2
		h1.3l80.2,85.6l-3.3,7.5h0.6l-1.9,3.1c-2.1,3.3-3.8,4.9-5.5,5C233.9,265.7,233.8,265.8,233.7,265.8L233.7,265.8z M234.7,262.2
		L234.7,262.2C234.7,262.3,234.7,262.2,234.7,262.2z M179.2,205.1l54.7,56.3c0.4-0.4,1.1-1.2,2-2.6l3.4-7.8l-76.9-82
		c-3,1.3-5.9,2.9-8.7,4.8c-1,0.6-2,1.4-3,2.1L179.2,205.1L179.2,205.1z"/>
	<path d="M147.5,178.3l-2.6-2.9l1.4-1.3c0.2-0.2,5.2-5.1,13-8.3l0.3-0.3h0.5c0.8-0.3,1.5-0.6,2.3-0.8l1.4,3.8
		c-3.4,1.4-6.8,3.2-10,5.3c-1.6,1-3.2,2.2-4.7,3.4L147.5,178.3L147.5,178.3z"/>
	<path d="M238.9,261.6h-4.1l6.4-14.7l3.6,3.8l-0.7,1.4c0,0.1-0.1,0.2-0.1,0.3l-0.1,0.1c-1.6,3.3-3,6.1-4.4,8.2L238.9,261.6
		L238.9,261.6z"/>
	<path d="M273.2,296.6l-34.9-28.1l-0.6-0.5l-2.2,2.7l-0.3,0.4l0.7,0.6l5.2,4.2l0.1,0.1l0.2,0.2l27,21.7l-6.4,1.6l-0.9,0.2l3,9.1
		l0.4,1l-11.3-8.1l-1,1.4l-0.1,0.2l-1.2,1.6l2.8,2l12.6,9c0.4,0.3,0.9,0.4,1.3,0.4h0c0.5,0,1-0.2,1.4-0.5c0.8-0.6,1.2-1.7,0.8-2.6
		l-3.7-10.9l6-1.5c0.9-0.2,1.6-1,1.8-1.9C274.3,298.2,273.9,297.2,273.2,296.6z"/>
	<g>
		<path class="st0" d="M171,161.5c2-0.6,0.8-2.9-3.4-4.5c-18.3-6.9-48.2,0.2-76.2,30.1l31.4,29.5C122.8,216.5,127.9,174.5,171,161.5
			L171,161.5z"/>
		<path d="M124.3,220.7l-35.8-33.6l1.4-1.5c30.7-32.7,61.4-36.9,78.3-30.6c3.7,1.4,5.8,3.4,5.7,5.5c0,1.3-0.9,2.4-2.4,2.8l0,0
			c-41.4,12.4-46.7,52.9-46.8,53.3L124.3,220.7L124.3,220.7z M94.2,186.9l27.3,25.6c2.4-10.6,12.4-41.3,47.6-52.6
			c-0.5-0.3-1.2-0.8-2.3-1.1C151.3,153,123,157,94.2,186.9L94.2,186.9z"/>
	</g>
	<path d="M232,262.4l-6.6,4.7L197,234.7l-20.3-23.2l-1.4-1.6l-14.1-16.1l-9.9-11.3l0,0h0l-5-5.7l-0.1-0.1l1.5-1.2l0.1,0.1l29.5,30.3
		l0,0l18.9,19.4L232,262.4L232,262.4z"/>
	<polygon class="st1" points="264.1,308.8 242.8,278.2 261.9,299.5 261,299.7 	"/>
	<polygon points="266.6,312.4 252.3,303.5 252,303.4 241.3,276.6 241.1,276 241,275.9 240.9,275.5 241.2,275.9 241.3,276 
		241.4,276.2 242.8,278.2 264.1,308.8 	"/>
	<polygon points="176.1,174.8 173.9,177.3 178.8,180.3 	"/>
	<polygon points="194.2,174.1 192.1,178.1 198.6,182.5 220.5,173.7 203,177.6 	"/>
	<path d="M151.2,182.5c0,0,14.1,11.9,17.3,27.9c3.2,16,1.9,32,1.9,32l10.9,8.3c0.5,0.4,1.5,1.1,2.5,1.8c0.9,0.6,2.1-0.1,2.1-1.2
		v-2.2l-12-9.9l1.6-33.2L151.2,182.5L151.2,182.5z"/>
	<path class="st1" d="M189.1,102.9c-9.1,1.2-16.4,2.1-18.7-1.7c-2.6-4.3,3.8-8.5,12-13.9c5.6-3.7,13.4-8.8,13.4-11.7
		c0-0.2,0-0.7-1.1-1.5c-1.5-1.1-2.9-1.9-4.2-2.7c-2.9-1.7-5.3-3.1-5.8-6c-0.8-4.3,2.6-9.7,18.1-28.8c8.5-10.5,8.9-21.3,1.1-27.7
		c-10.6-8.7-36.9-7.1-62.3,23.5c-14.6,17.6-16.8,38.1-6.5,60.7c8.5,18.7,23.4,34,31.5,41.5c0.1,0.1,0.2,0.2,0.3,0.3l0-0.1
		c0.5,0.5,14.9,15.1,29.4,20.9l-6.5-28.3c-3.1-8.7,3.3-12.6,8.5-15.7c3.8-2.3,7.1-4.3,7.2-7.7c0-0.6-0.1-0.8-0.3-1
		C203.3,101,195.1,102.1,189.1,102.9z M178,16.8c2.2-0.8,4.7,0.2,5.4,2.2c0.7,2-0.5,4.3-2.8,5.1s-4.6-0.2-5.4-2.2
		C174.5,19.8,175.8,17.6,178,16.8z"/>
	<path d="M199.8,161.5l-0.3,0h-0.1l-1.7,0l-8.9,0.2l-2.7,0l-0.3,0l-2.7,0.1l-4.3,0.1h0l-0.5-1.5l0-0.1l-3.1-9.6l-6.6-11.6l-1.6-4.5
		l0-0.1c0.5,0.5,14.9,15.1,29.4,20.9c0.8,0.3,1.5,0.6,2.2,0.8l0.8,3.5l0.3,1.4L199.8,161.5z"/>
	<path class="st1" d="M131.8,258.2c-20.4-8.4-33.3-24.8-33.3-43.1c0-3.5,0.5-6.9,1.4-10.1c0,0,0,0,0,0c3.4,1.5,11.4,6.2,14.7,16.4
		c4.2,13.1,4.1,12.4,6.2,18C123,245.3,128.4,253.6,131.8,258.2z"/>
	<path d="M134.8,261.4c-0.2,0.2-1.1-0.8-2.4-2.4c-0.2-0.2-0.4-0.5-0.6-0.8c-3.4-4.5-8.8-12.9-11-18.9c-2.1-5.6-2-4.9-6.2-18
		c-3.3-10.2-11.3-14.9-14.7-16.4c0,0,0,0,0,0c-0.8-0.4-1.4-0.6-1.5-0.6l1.8-6.1l0.1-0.3c0,0,0.6,0.5,1.6,1.2
		c3.6,2.8,12,9.3,14.1,11.1c0.1,0.1,0.2,0.2,0.2,0.2c0,0,0,0,0,0c0.2,0.2,0.4,0.5,0.6,0.8c0.4,0.8,0.7,2,0.9,3.3
		c0.4,2.5,0.7,5.6,2.1,7.9c0.6,1,1.7,3.5,3,6.8c0.4,0.9,0.8,1.9,1.2,2.9c3.1,8.1,7.1,19,9.3,24.8c0.3,0.8,0.6,1.5,0.8,2.1
		c0.2,0.6,0.4,1.1,0.6,1.5C134.9,261,134.9,261.3,134.8,261.4z"/>
	<g>
		<path class="st0" d="M202.3,161.5c-2-0.6-0.8-2.9,3.4-4.5c18.3-6.9,48.2,0.2,76.2,30.1l-31.4,29.5
			C250.5,216.5,245.4,174.5,202.3,161.5z"/>
		<path d="M249,220.7l-0.5-3.9c-0.1-0.4-5.5-40.9-46.8-53.3c-1.4-0.4-2.3-1.5-2.4-2.8c-0.1-2.1,2-4.1,5.7-5.5
			c17-6.4,47.7-2.1,78.3,30.6l1.4,1.5L249,220.7L249,220.7z M204.1,160c35.2,11.2,45.1,41.9,47.6,52.6l27.3-25.6
			C250.2,157,222,153,206.4,158.8C205.4,159.2,204.6,159.6,204.1,160L204.1,160z"/>
	</g>
	<path d="M306.9,207c-6.7,9.8-17.9,15-30.7,15c-7.2,0-15-1.7-22.8-5.1c-0.1-0.1-0.3-0.1-0.4-0.2c-0.6-0.5-0.9-1.2-0.8-2
		c0-0.1,0.1-0.3,0.1-0.4c0.3-0.7,0.9-1.1,1.6-1.2c0.1,0,0.2,0,0.4,0c0.2,0,0.5,0.1,0.7,0.2c0.4,0.2,0.8,0.3,1.2,0.5
		c2.1,0.9,4.1,1.6,6.2,2.2c17,5,33,0.8,41.2-11.2c6.9-10.2,10.4-25.7,9.2-40.3c-0.1-1.3-0.2-2.5-0.4-3.8c0-0.3-0.1-0.7-0.1-1
		c-0.1-0.8-0.3-1.6-0.4-2.5c-0.2-1.1,0.5-2.1,1.6-2.3c1.1-0.2,2.1,0.5,2.3,1.6c0.1,0.3,0.1,0.7,0.2,1
		C319,175.1,315.5,194.4,306.9,207z"/>
	<path d="M297.7,175.7c-1.3,6-3.7,10.8-7.2,14.4c-4.8,4.8-10.4,6.2-13.8,6.5c-0.9,0.1-1.6,0.1-2.1,0.1h0c-0.5,0-0.9,0-0.9,0
		c-0.5,0-0.9-0.3-1.3-0.6c0,0,0,0,0,0c-0.4-0.4-0.6-1-0.5-1.5c0-0.5,0.3-0.9,0.6-1.3c0,0,0.1,0,0.1-0.1c0.4-0.3,0.9-0.5,1.5-0.5
		c0,0,0.8,0,2-0.1h0c1-0.1,2.2-0.3,3.6-0.7c2.5-0.7,5.5-2.1,8.1-4.7c5.8-5.9,8.1-15.9,6.8-29.8c0-0.1,0-0.2,0-0.3
		c-0.1-1.1,0.7-2.1,1.8-2.2c1.1-0.1,2.1,0.7,2.2,1.8c0.1,1.3,0.2,2.6,0.3,3.9c0,0.6,0.1,1.2,0.1,1.8
		C298.9,167.3,298.5,171.8,297.7,175.7z"/>
	<path d="M314.1,158.9c0,0,0,0.1,0,0.3c0,0.8-0.2,3.1-1.4,5.2c-1,1.7-2.6,3.4-5.4,3.9c-7,1.3-7.7,7.5-9.6,7.3c0,0,0,0,0,0
		c-1.7-0.2-0.6-10.7-0.1-14.2c0.1-0.7,0.1-1.1,0.1-1.1l1,0.3l6.8,1.9l6.8-2.8L314.1,158.9z"/>
	<path d="M185,494.5c-0.1,0-0.1,0-0.2,0L49.4,480c-0.6-0.1-1.2-0.4-1.5-1c-0.3-0.5-0.4-1.2-0.1-1.8l87.6-215.8
		c0.2-0.6,0.7-1,1.3-1.2s1.2,0,1.7,0.3c0.2,0.1,21,15.1,54.3,10.2c1.1-0.1,2.1,0.6,2.3,1.7s-0.6,2.1-1.7,2.3
		c-29.1,4.2-48.8-5.8-55.1-9.6L52.5,476.3l130.6,14l6.1-156.8c0-1.1,1-2,2.1-1.9c1.1,0,2,1,1.9,2.1L187,492.6c0,0.5-0.3,1.1-0.7,1.4
		C185.9,494.4,185.5,494.6,185,494.5L185,494.5z"/>
	<path d="M185,494.5c-0.5,0-1-0.2-1.4-0.5c-0.4-0.4-0.7-1-0.6-1.5l6.2-158.9c0-1.1,0.9-1.9,2-1.9c0,0,0.1,0,0.1,0c1.1,0,2,1,1.9,2.1
		l-6.1,156.6l130.1-13.9l-83.8-209.3c-4.2,2.9-14.6,7.5-39.8,7.5l0,0c-1.1,0-2-0.9-2-2s0.9-2,2-2c33,0,38.8-7.9,38.9-8
		c0.4-0.6,1.1-1,1.9-0.9s1.4,0.5,1.7,1.2l85.9,214.5c0.2,0.6,0.2,1.2-0.1,1.8c-0.3,0.5-0.9,0.9-1.5,1l-135.1,14.4
		C185.1,494.5,185,494.6,185,494.5L185,494.5z"/>
	<polygon points="191.2,333.6 177.2,491.5 185,492.5 	"/>
	<path class="st1" d="M130.4,496.2c-16.7,1.7-35.4,3.4-53.2,4.5C20.9,504.3,7.8,499.9,5,497c-0.6-0.6-0.6-1.1-0.5-1.5
		c2-12.2,24.5-14.8,42.1-14.6L130.4,496.2z"/>
	<polygon points="175.3,491.5 167.5,492.7 136.5,497.3 130.4,496.2 46.5,480.8 42.8,480.1 46.8,478.2 47.6,478.2 62.2,479.8 
		174.3,491.4 	"/>
	<polygon points="325.3,480.1 320.8,481 238.9,496 231.5,497.3 201.4,492.8 193,491.5 192.8,491.5 196.8,491.1 321.3,478.2 
		322,478.5 	"/>
	<path class="st1" d="M303.6,204.8c-8.2,12-24.1,16.2-41.2,11.2c-0.5-5.8,10.4-16,14.3-19.5c3.4-0.3,9-1.7,13.8-6.5
		c3.6-3.6,6-8.4,7.2-14.4c2,0.2,2.6-6,9.6-7.3c2.8-0.5,4.5-2.2,5.4-3.9C313.9,179.1,310.5,194.6,303.6,204.8z"/>
	<path d="M278.1,195.3c0,0-0.5,0.4-1.4,1.2c-3.9,3.5-14.8,13.7-14.3,19.5c0.1,0.9,0.4,1.7,1.2,2.4l-7.7-4.2l-1.6-0.9l0.1-0.1
		l18-17.2l2.2-2.1l2,0.8L278.1,195.3z"/>
	<path d="M110,324.1l23.1-67.2c0,0,45.6,26.3,97.7,6.1c0,0,4.2,0.6,2.4,1.7c-7.5,4.5-35.7,15.6-74.8,10.8
		C126.2,271.5,140.1,307,110,324.1L110,324.1z"/>
	<path d="M346.2,124.3c-11.1,3.8-13.3,7.6-17.7,15.2c-2.3,3.9-5.1,8.8-9.9,15c-0.9,1.2-1.8,2.2-2.7,3.1c-0.6,0.6-1.2,1.2-1.8,1.7v0
		c-0.6,0.5-1.2,1-1.8,1.4c-3.3,2.4-6.1,3.2-8.4,3.2l0,0c-1.6,0-3-0.4-4-0.8c-0.4-0.2-0.9-0.4-1.3-0.7c-0.4-0.3-0.8-0.6-1.2-0.9
		c-1.2-1.1-2.3-2.5-3.1-4.1v0c-0.9-1.8-1.5-3.9-1.7-6c-0.1-1.4-0.1-2.9,0.2-4.3c0-0.3,0.1-0.6,0.2-0.9c0.5-2.5,1.6-5.4,4.2-5.9
		c3-0.5,5.3,3.1,5.9,4.2c0.5,1,0.2,2.2-0.8,2.7c-1,0.5-2.2,0.2-2.7-0.8c-0.5-0.9-1.2-1.8-1.7-2.1c-0.2,0.3-0.7,1.2-1.1,3.4
		c-0.9,4.9,1.3,10.1,4.7,11.7c3.7,1.7,8.8-1,13.8-7.5c4.7-5.9,7.4-10.6,9.6-14.5c4.4-7.7,7.3-12.8,19.9-17
		c9.7-3.3,13.6-8.6,13.2-12.1c-0.3-2-2-3.3-4.7-3.5c-13.1-0.9-26.1,13-29.7,17.1c-0.6,0.7-0.9,1.1-1,1.1c-0.7,0.9-2,1-2.8,0.3
		c0,0-0.1-0.1-0.1-0.1c-0.2-0.2-0.4-0.5-0.5-0.8c0,0,0,0,0,0c-0.2-0.6-0.1-1.3,0.3-1.9c0.1-0.2,0.7-0.9,1.8-2.1
		c4.7-5.3,18.1-18.6,32.3-17.6c4.6,0.3,7.9,3,8.5,7C362.7,112.8,359,120,346.2,124.3z"/>
	<path d="M310.9,136.8c-1,0.6-2.2,0.2-2.7-0.7c-2.6-4.3-6.8-9.9-10.5-12.4c0,0-0.1,0-0.1-0.1c-1.3-0.9-2.6-1.4-3.7-1.3
		c-1.9,0.2-3.1,2.7-3.8,4.7c-3.2,9.4,0,15.6,3.1,19.1c1,1.1,1.9,1.9,2.7,2.5c0.9,0.7,1,1.9,0.4,2.8c-0.4,0.5-1,0.8-1.6,0.8v0
		c-0.4,0-0.9-0.1-1.2-0.4c-0.2-0.1-0.4-0.3-0.6-0.5c-3.5-2.9-11.4-11.3-6.5-25.6c1.6-4.6,4-7.1,7.2-7.4c0.3,0,0.6,0,0.9,0
		c0.8,0,1.7,0.2,2.5,0.5c1.2,0.4,2.3,1.1,3.4,1.9c0,0,0.1,0,0.1,0.1c5.6,4.1,10.3,12,11.1,13.2C312.1,135.1,311.8,136.3,310.9,136.8
		z"/>
	<path class="st1" d="M345,120.5c-12.6,4.3-15.5,9.3-19.9,17c-2.2,3.8-4.9,8.6-9.6,14.5c-5.1,6.4-10.1,9.1-13.8,7.5
		c-3.5-1.6-5.6-6.8-4.7-11.7c0.4-2.2,0.9-3.1,1.1-3.4c0.5,0.3,1.2,1.2,1.7,2.1c0.5,1,1.8,1.3,2.7,0.8c1-0.5,1.3-1.8,0.8-2.7
		c-0.6-1.1-2.9-4.7-5.9-4.2c-2.6,0.4-3.6,3.3-4.2,5.9c-3.1-3.5-6.3-9.7-3.1-19.1c0.7-2.1,2-4.5,3.8-4.7c1.1-0.1,2.3,0.4,3.7,1.3
		c0,0,0.1,0,0.1,0.1c3.7,2.5,7.9,8.1,10.5,12.4c0.6,1,1.8,1.3,2.7,0.7c1-0.6,1.3-1.8,0.7-2.7c-0.7-1.2-5.5-9.1-11.1-13.2
		c0.1-0.7,0.8-2.7,5.1-5.4c1.7-1.1,3.5-1.3,5.2-0.8c3.3,1,6.3,4.5,8.5,7.8c0,0,0,0,0,0c0.1,0.3,0.3,0.6,0.5,0.8
		c1.1,1.8,1.9,3.4,2.4,4.4c0.3,0.8,1.1,1.2,1.8,1.2v0c0.3,0,0.5-0.1,0.8-0.2c1-0.4,1.5-1.6,1-2.6c-0.1-0.2-0.8-1.9-2.1-4.1
		c3.6-4.1,16.6-18,29.7-17.1c2.7,0.2,4.5,1.5,4.7,3.5C358.6,111.9,354.7,117.2,345,120.5z"/>
	<path d="M324.8,128.7c-0.3,0.1-0.5,0.2-0.8,0.2v0c-0.8,0-1.5-0.4-1.8-1.2c-0.5-1-1.3-2.6-2.4-4.4c-0.2-0.3-0.3-0.5-0.5-0.8
		c0,0,0,0,0,0c-2.2-3.3-5.2-6.8-8.5-7.8c-1.8-0.5-3.5-0.3-5.2,0.8c-4.3,2.7-5,4.7-5.1,5.4c0,0.2,0,0.3,0,0.3c0.5,1,0.1,2.2-0.9,2.7
		c-0.6,0.3-1.4,0.2-1.9-0.1c0,0-0.1,0-0.1-0.1c-0.3-0.2-0.5-0.5-0.7-0.8c-0.1-0.2-0.3-0.7-0.3-1.6c0-0.7,0-1.5,0.4-2.4
		c0.2-0.7,0.6-1.4,1.2-2.2c1-1.4,2.7-3,5.3-4.6c1.3-0.8,2.7-1.3,4-1.6c1.3-0.2,2.7-0.2,4,0.2c0.2,0,0.3,0.1,0.5,0.1
		c3.8,1.2,7,4.5,9.4,7.7c0.9,1.2,1.7,2.4,2.3,3.5c1.3,2.2,2.1,3.9,2.1,4.1C326.3,127.1,325.8,128.3,324.8,128.7z"/>
	<path class="st1" d="M307.5,110.6c-1.4,0.2-2.7,0.7-4,1.6c-2.6,1.6-4.3,3.2-5.3,4.6c-1.1-1.8-2.4-4.5-2.2-7.3
		c0.2-2.9,1.9-5.7,5.1-8.1c2.1-1.6,3.8-2.3,4.6-1.8C307.4,100.5,307.8,106.1,307.5,110.6z"/>
	<path d="M311.5,110.7c-0.1,0.8-0.1,1.5-0.2,1.9c-0.1,1.1-1.2,1.9-2.2,1.7c-1.1-0.1-1.9-1.1-1.7-2.2c0.1-0.5,0.1-1,0.2-1.5
		c0.3-4.4,0-10-1.8-11.1c-0.8-0.5-2.5,0.2-4.6,1.8c-3.1,2.4-4.8,5.2-5.1,8.1c-0.2,2.9,1,5.6,2.2,7.3c0.9,1.4,1.7,2.3,1.7,2.3
		c0.5,0.5,0.6,1.2,0.5,1.8c-0.1,0.4-0.3,0.7-0.6,1c-0.4,0.4-0.9,0.6-1.4,0.6c-0.5,0-1-0.2-1.4-0.6c0,0-0.2-0.2-0.5-0.5
		c-0.5-0.6-1.3-1.6-2.1-3c-1.4-2.3-2.7-5.5-2.5-9.2c0.3-4.1,2.5-7.9,6.6-11c3.6-2.8,6.7-3.5,9.1-2.1
		C311.9,98.5,311.8,106.7,311.5,110.7z"/>
</g>
</svg>
