<?xml version="1.0" encoding="utf-8"?>
<!-- Generator: Adobe Illustrator 27.2.0, SVG Export Plug-In . SVG Version: 6.00 Build 0)  -->
<svg version="1.1" id="Calque_2_00000103261661481836751520000011673465831657014185_"
	 xmlns="http://www.w3.org/2000/svg" xmlns:xlink="http://www.w3.org/1999/xlink" x="0px" y="0px" viewBox="0 0 408 485.5"
	 style="enable-background:new 0 0 408 485.5;" xml:space="preserve">
<style type="text/css">
	.st0{fill:#35A88A;}
	.st1{fill:#BCFFEC;}
	.st2{fill:#5277B8;}
	.st3{fill:#FFFFFF;}
	.st4{fill:#AC4250;}
</style>
<g id="Calque_1-2">
	<path class="st0" d="M156.9,248.6L62.2,457l124.1,19.7l18.1-159.1l26.4,159.1l115-21.1l-94.1-205.2
		C251.8,250.4,203.8,269.3,156.9,248.6L156.9,248.6z"/>
	<path class="st0" d="M156.9,248.6c0,0-50.9-76,39.8-102.1c0,0,40.1,3.8,50.6,17c10.6,13.3,20.5,18.9,19.2,45.2s-7.8,35.8-28.1,46.1
		C212.8,267.8,156.9,248.6,156.9,248.6L156.9,248.6z"/>
	<polygon class="st1" points="199.2,166.5 209.1,167 214.8,225.8 202.5,232.9 192.2,223 	"/>
	<polygon class="st2" points="167.3,160.1 172.6,157.5 254.4,244.1 250.5,247.4 	"/>
	<polygon class="st3" points="172.6,157.5 177,154.9 255.6,239.6 254.4,244.1 	"/>
	<polygon class="st4" points="177,154.9 180.8,152.5 259.2,233.6 255.6,239.6 	"/>
	<polygon class="st1" points="195,156.9 203.8,147.3 214.1,157.9 210.8,164 197.2,164 	"/>
	<polygon class="st4" points="288.6,281.7 280.2,284.4 279.8,284 260.7,262.7 260.2,262.2 259.2,261.1 258.7,260.6 259,260.5 
		259,260.5 259.1,260.4 259.4,260.3 260.1,259.9 	"/>
	<path d="M211.3,166.8H196l-5.1-11.4l10.1-9.1c0.8-0.8,2.8-2.6,4.8-0.9l0.1,0.1l10.2,10L211.3,166.8L211.3,166.8z M198.6,162.8h10
		l2.7-6.4l-7.4-7.3c-0.1,0.1-0.1,0.1-0.1,0.1l-8,7.2L198.6,162.8L198.6,162.8z"/>
	<path d="M213.9,189.2l-18.7-20l0.6-5.9h15.5L213.9,189.2z M199.3,167.9l9.4,10l-1.1-10.5h-8.3L199.3,167.9z"/>
	<path d="M203.8,236.2l-14.1-11.7l3.8-38.7l22.3,23l1.6,15.9L203.8,236.2L203.8,236.2z M193.9,222.8l9.9,8.2l9.5-7.9l-1.2-12.4
		l-15.4-15.8L193.9,222.8L193.9,222.8z"/>
	<path d="M179.7,475.7c-0.3-0.5-0.8-0.8-1.4-0.9l-0.5-0.1l-32.5-5.5l-10.4-1.8l-69.9-11.9l-2.1-0.3l-0.5-0.1h-0.1
		c-0.2,0-0.7-0.1-1.5-0.2c-9.3-0.9-56.9-4.6-60.5,17.1c-0.3,1.9,0.3,3.6,1.7,5.1c2.1,2.2,7.7,8.4,57.9,8.4v0c8.8,0,19-0.2,30.7-0.6
		c39.9-1.5,79.9-5.1,87.5-5.8c0.2,0,0.3,0,0.5-0.1c0.5-0.2,0.9-0.5,1.2-1c0.2-0.3,0.3-0.6,0.3-1C180.1,476.5,180,476,179.7,475.7z
		 M90.5,480.8c-66.9,2.5-82.3-3-85.5-6.5c-0.7-0.7-0.7-1.3-0.6-1.7c2-11.8,22.8-14.6,40-14.6c6.9,0,13.2,0.5,17.5,1l1.3,0.2
		c0,0,0,0,0,0c0,0,0,0,0.1,0l11.1,1.9l0,0l89.2,15.2c-8.6,0.7-20.1,1.6-33.1,2.5C118,479.6,104.3,480.3,90.5,480.8z"/>
	<path class="st3" d="M130.5,478.8c-12.4,0.8-26.2,1.6-39.9,2.1c-66.9,2.5-82.3-3-85.5-6.5c-0.7-0.7-0.7-1.3-0.6-1.7
		c2-11.8,22.8-14.6,40-14.6c6.9,0,13.2,0.5,17.5,1l1.3,0.2c0,0,0,0,0,0c0,0,0,0,0.1,0l11.1,1.9l0,0L130.5,478.8z"/>
	<path d="M347.7,454.9c0,0,0-0.1,0-0.1l-73.2-161.1l0,0l-1.8-4.1l0,0l-1.5-3.2l0,0l-11-24.1l-0.2-0.4l-0.4-0.8l-0.3-0.7l-3.3-7.4
		l-1.8-3.9l-0.2-0.4l-0.4-0.9c-0.2-0.5-0.6-0.9-1.1-1l0,0c-0.3-0.1-0.7-0.2-1-0.1c0,0-0.1,0-0.1,0h0c-0.1,0-0.2,0-0.3,0.1l-0.4,0.2
		l-0.6,0.2l-1.2,0.4h0l-0.6,0.2c-0.1,0-0.2,0.1-0.2,0.1c-2,0.8-4.1,1.5-6.2,2.2c-25.9,8.3-54,7.8-79.6-1.6l-3.9-1.4l-0.9-0.3
		c-0.6-0.2-1.2-0.1-1.7,0.2c-0.1,0-0.2,0.1-0.2,0.2v0c-0.2,0.2-0.4,0.4-0.5,0.7l-0.3,0.7l-0.1,0.2h0L61,454.8c0,0,0,0,0,0
		c-0.4,0.9-0.4,1.9,0.1,2.8c0.4,0.8,1.2,1.4,2.1,1.6c0,0,0,0,0,0c0,0,0,0,0.1,0l11.1,1.9l0,0l89.2,15.2l4.5,0.8h0l8.9,1.5
		c0.1,0,0.1,0,0.2,0c0.9,0.1,1.9-0.1,2.6-0.6c0,0,0.1,0,0.1-0.1c0.7-0.5,1.2-1.2,1.4-2c0.1-0.2,0.1-0.4,0.2-0.6l17.8-112.8l0-0.1
		l4.8-30.5v0l0.2-1.5l22.9,145.4c0.1,0.9,0.7,1.8,1.4,2.3c0.2,0.1,0.3,0.2,0.5,0.3c0.5,0.2,1,0.4,1.5,0.4l0,0c0.2,0,0.4,0,0.6,0
		l9.8-1.7l4.1-0.7l81.5-13.9l18.6-3.2c0,0,0.1,0,0.2,0c0.9-0.2,1.7-0.8,2.1-1.6C348,456.8,348.1,455.8,347.7,454.9z M204.4,315.6
		L204.4,315.6c-1,0-1.8,0.7-2,1.7l-24.8,157.3l-32.2-5.5l-10.4-1.8l-69.9-11.9l0,0l67.6-148.8v0l25.2-55.6l3,1.1
		c17.8,6.5,36.7,8.8,55.4,7.1h0c6.6-0.6,13.1-1.7,19.5-3.4c0,0,0,0,0,0c0,0,0,0,0,0c4.6-1.2,9.1-2.6,13.6-4.3c0,0,0,0,0,0
		c0.1,0,0.2,0,0.2-0.1l1.1-0.4l92.8,204.4l-112.5,19.2l-24.8-157.3C206.2,316.3,205.3,315.6,204.4,315.6z"/>
	<path d="M408.3,472c-3.6-21.8-51.5-18-60.6-17.1c-0.8,0.1-1.2,0.1-1.4,0.1l-0.6,0.1l-2,0.3l-112.5,19.2l-0.7,0.1h0
		c-1.1,0.2-1.9,1.1-1.8,2.2c0,0.5,0.2,1,0.5,1.4c0.4,0.4,0.9,0.7,1.4,0.7c7.6,0.7,47.7,4.3,87.5,5.8c11.7,0.4,21.8,0.6,30.5,0.6l0,0
		c50.1,0,55.8-6.1,57.9-8.3C408,475.6,408.6,473.8,408.3,472z M403.7,474.4c-3.2,3.5-18.6,8.9-85.3,6.5c-16-0.6-32.1-1.5-46-2.5
		c-10.6-0.7-19.9-1.5-27.1-2.1l81.5-13.9l18.7-3.2l1.4-0.2c15.1-1.8,54.8-2.8,57.5,13.6C404.4,473.1,404.4,473.6,403.7,474.4z"/>
	<path class="st3" d="M403.7,474.4c-3.2,3.5-18.6,8.9-85.3,6.5c-16-0.6-32.1-1.5-46-2.5l54.4-15.9l18.6-3.2c0,0,0.1,0,0.2,0l1.4-0.2
		c15.1-1.8,54.8-2.8,57.5,13.6C404.4,473.1,404.4,473.6,403.7,474.4z"/>
	<path d="M268.5,208.7c0,5.1-0.7,10.2-1.9,15.1c-1,3.9-2.3,7.8-4.1,11.5c-0.2,0.5-0.5,1.1-0.8,1.6l-0.1,0.2
		c-0.9,1.7-1.8,3.4-2.9,5.1c-0.2,0.3-0.3,0.5-0.5,0.8c-0.7,1.1-1.4,2.1-2.2,3.2c-0.6,0.9-1.3,1.7-2,2.5c-0.1,0.2-0.3,0.4-0.5,0.6
		l0,0l-2.7-2.2l0,0l-0.2-0.2l-0.2-0.2c0.3-0.4,0.6-0.7,0.9-1.1c0.7-0.8,1.3-1.7,1.9-2.5c0.5-0.7,1-1.4,1.5-2.1l0,0
		c0,0,0-0.1,0.1-0.1c0.2-0.3,0.4-0.7,0.6-1c0.6-1,1.1-1.9,1.7-2.9c0.3-0.6,0.6-1.2,0.9-1.8l0.1-0.2c0.3-0.5,0.5-1,0.8-1.6
		c0.2-0.4,0.4-0.9,0.6-1.3c0,0,0,0,0,0c1.3-3,2.3-6.1,3.1-9.2c1.1-4.6,1.7-9.4,1.8-14.2c0.1-20.9-10.5-39.4-26.7-50.2
		c0,0-0.1,0-0.1-0.1c-0.1,0-0.1-0.1-0.2-0.1c-0.6-0.4-1.2-0.8-1.8-1.2c-4.1-2.5-8.5-4.5-13.1-6c-0.1,0-0.2-0.1-0.3-0.1
		c-2.9-0.9-5.9-1.6-9-2.1c-1.4-0.2-2.9-0.4-4.3-0.5c-1-0.1-1.9-0.1-2.9-0.1c-0.4,0-0.9,0-1.3,0h-0.1c-0.3,0-0.5,0-0.8,0
		c-0.1,0-0.2,0-0.3,0c-0.3,0-0.6,0-0.8,0c-0.5,0-0.9,0-1.4,0c-1,0-2,0.1-3,0.2c-3.7,0.4-7.3,1.1-10.9,2.1l-0.9,0.3
		c-0.2,0.1-0.4,0.1-0.6,0.2c-0.6,0.2-1.2,0.4-1.7,0.6h0c-0.7,0.2-1.4,0.5-2,0.8c-0.2,0.1-0.5,0.2-0.7,0.3l-0.2-0.5l-0.2-0.5
		l-0.3-0.8l0-0.1l0-0.1l-0.1-0.2l-0.6-1.4l0-0.1l0,0c0.1,0,0.2-0.1,0.3-0.1c0.8-0.3,1.5-0.6,2.3-0.9c0,0,0,0,0.1,0
		c0.8-0.3,1.6-0.6,2.3-0.8c0.1,0,0.2-0.1,0.3-0.1l0.3-0.1l0.4-0.1l0.4-0.1c0.1,0,0.2-0.1,0.3-0.1c1.3-0.4,2.7-0.7,4-1
		c0.3-0.1,0.7-0.2,1-0.2c0.7-0.1,1.3-0.2,2-0.4c0.3,0,0.6-0.1,0.9-0.1c3.4-0.5,6.8-0.8,10.2-0.8c0.1,0,0.2,0,0.3,0
		c2.9,0,5.8,0.2,8.6,0.7c1.2,0.2,2.4,0.4,3.5,0.6c0.1,0,0.3,0,0.5,0.1c3.1,0.6,6.1,1.5,9,2.6c0.1,0,0.2,0.1,0.4,0.1
		c20,7.6,35.2,24.9,39.9,46.1c0.7,3,1.1,6.1,1.3,9.2C268.4,205.4,268.5,207,268.5,208.7z"/>
	<path d="M155.5,249.4c-2.6-3.1-4.9-6.4-6.8-9.8c-4.1-7.3-6.7-15.3-7.7-23.7v-0.1c-0.3-2.6-0.5-5.2-0.4-7.9
		c0.1-11.4,3.2-22.6,9-32.3c3.6-6,8-11.3,13.4-15.9c0.5-0.4,1-0.9,1.5-1.3l2.5,3.1c-0.5,0.4-0.9,0.8-1.4,1.2
		c-5,4.3-9.2,9.3-12.5,14.9c-5.4,9.1-8.3,19.6-8.4,30.3c0,2.5,0.1,5,0.4,7.5v0.1c1,7.8,3.4,15.2,7.2,22.1c1.8,3.3,4,6.4,6.4,9.2
		L155.5,249.4L155.5,249.4z"/>
	<g>
		<path class="st3" d="M235.8,157.1l-16.4,6.3c-0.3,0.1-0.7,0-0.9-0.2l-12.7-15.4c-0.5-0.6,0-1.4,0.7-1.4c5.1,0.4,19.2,2,29.5,9.1
			C236.5,156,236.4,156.8,235.8,157.1L235.8,157.1z"/>
		<path d="M219.1,165.5c-0.8,0-1.6-0.4-2.2-1l-12.7-15.4c-0.7-0.9-0.9-2.1-0.3-3.1s1.6-1.6,2.7-1.5c5.6,0.4,19.9,2.1,30.5,9.5
			c0.9,0.6,1.3,1.6,1.2,2.7c-0.1,1-0.8,1.9-1.8,2.3l-16.4,6.3C219.7,165.4,219.4,165.4,219.1,165.5L219.1,165.5z M218.6,161.5
			L218.6,161.5L218.6,161.5z M209,148.7l10.4,12.6l13.5-5.2C224.8,151.1,214.9,149.3,209,148.7z M235,155.2L235,155.2L235,155.2z"/>
	</g>
	<g>
		<path class="st3" d="M202,147.8l-1.1,1.3l-6.9,8.3l-3.4,4.1l-9.8-10.5c0,0,0,0,0,0c-3.6,1.5-7.1,3.3-10.3,5.5
			c2.4-1.8,5.1-3.3,7.8-4.6c0,0,0,0,0.1,0c2.6-1.2,5.3-2.1,7.8-2.8c0,0,0.1,0,0.1,0c0.3-0.1,0.6-0.2,0.9-0.2
			c6.1-1.6,11.5-2.2,14.3-2.4C202,146.4,202.5,147.2,202,147.8L202,147.8z"/>
		<path d="M190.7,164.5l-10.4-11.1c-3,1.3-5.9,2.9-8.7,4.8l-2.3-3.3c2.3-1.7,4.9-3.3,7.8-4.6l0.3-0.3h0.4c2.3-1,4.8-1.9,7.5-2.7
			l0.2-0.1h0.2c0.1,0,0.2-0.1,0.4-0.1l0.3-0.1c6.3-1.7,11.9-2.3,14.7-2.5c1.1-0.1,2.2,0.5,2.7,1.5s0.4,2.2-0.3,3.1l-1.1,1.3
			L190.7,164.5L190.7,164.5z M184.2,151.8l6.3,6.7l8.1-9.8c-2.9,0.3-6.8,0.9-11.1,2.1l-0.3,0.1c-0.1,0-0.2,0.1-0.4,0.1l-0.4,0.1
			C185.7,151.3,185,151.5,184.2,151.8L184.2,151.8z M201.5,148.4L201.5,148.4L201.5,148.4z"/>
	</g>
	<g>
		<path d="M258.8,44.8c-16.1,9.8-24.4,15.3-24.9,18.3c-0.2,1,0.8,2.3,2.6,4.4c1,1.2,2.1,2.5,3.2,4.2c1.6,2.3,1.4,4.3,0.9,5.5
			c-1.8,4.7-10.4,6.8-19.4,9c-4.5,1.1-12.1,2.9-13,4.4c0.6,1.9,9.3,3.7,14,4.8c8.2,1.8,15.9,3.5,17.9,7.5c0.7,1.4,0.7,2.9,0.1,4.4
			c-2.1,5-7.5,6.2-12.3,7.1c-6.4,1.3-10.1,2.4-10.1,8.1l-0.1,20.6l0,2.6v1l-4,0l0-1.4V145l0.1-22.5c0-9.3,7.3-10.8,13.3-12
			c4.4-0.9,8.1-1.7,9.4-4.8c0.2-0.5,0.2-0.8,0-1c-1.2-2.4-9.3-4.1-15.2-5.4c-9-2-16.1-3.5-17-8c-1-4.9,6.5-6.7,16-9
			c6.6-1.6,15.5-3.8,16.6-6.5c0.1-0.2,0.3-0.7-0.5-1.8c-1-1.5-2.1-2.8-3-3.9c-2.1-2.5-3.9-4.8-3.5-7.6c0.7-4.3,5.7-8.2,26.8-21
			c11.5-7,15.6-17.1,10.4-25.7c-7-11.7-32.4-19.2-66.6,1.1c-19.7,11.7-28.7,30.2-26.6,54.9c1.7,20,10.1,39,15.3,49
			c0.1,0.2,0.2,0.5,0.4,0.7c2.6,4.9,4.1,10.1,4.4,15.5l0.6,8.1l0,0.1l0.1,0.9l-0.9,0.1l-2.3,0.2l-0.7,0l0-0.5l0-0.1l-0.2-3.7
			l-0.3-4.9c-0.3-4.8-1.7-9.5-4-13.9c-5.3-10.1-14.4-30.1-16.2-51.2c-2.2-26.5,7.4-46.2,28.5-58.7c34.5-20.4,62.8-15.1,72.1,0.3
			C275.8,22.4,274.2,35.4,258.8,44.8z"/>
		<ellipse cx="240" cy="18.3" rx="4.3" ry="3.9"/>
	</g>
	<path d="M187.2,146.8l-0.1,1.8l0,0.2l0,0.8l-0.1,1.2c-0.7-0.1-1.7-0.1-2.9-0.1c-0.3,0-0.5,0-0.8,0c-0.5,0-1,0-1.5,0
		c-0.1,0-0.3,0-0.5,0c0,0,0,0,0,0h-0.7c-0.6,0-1.1,0-1.6,0c-0.7,0-1.4,0-2.1,0c-0.1,0-0.2,0-0.4,0c-0.2,0-0.3,0-0.5,0
		c0,0-0.1,0-0.1,0c-1.2,0-2.4,0.1-3.6,0.2c-22.9,1.9-42.1,13.5-50.9,29.3c-0.3,0.6-0.7,1.2-1,1.8c-0.2,0.5-0.5,1-0.7,1.5
		c-0.1,0.1-0.1,0.3-0.2,0.5c-0.8,1.7-1.4,3.5-1.9,5.3c-0.9,3.3-1.4,6.7-1.4,10.1c0,18.3,12.8,34.7,33.3,43.1
		c0.4,0.1,0.7,0.3,1.1,0.4c0.4,0.2,0.8,0.3,1.2,0.5c0.8,0.3,1.6,0.6,2.4,0.8c0.6,0.2,1.2,0.4,1.8,0.6l-0.5,1.7l-0.1,0.4l-0.5,1.7
		c0,0-0.1,0-0.1,0c-0.1,0-0.2-0.1-0.3-0.1c-25.6-8-42.2-27.3-42.2-49.2c0-6.5,1.5-12.6,4.2-18.3c0.3-0.6,0.6-1.2,0.9-1.9
		c0.3-0.6,0.6-1.2,1-1.8c10.6-18.2,33.8-30.8,60.6-30.8c0.5,0,1.2,0,1.9,0c1.7,0,3.9,0.1,5.3,0.1c0.1,0,0.3,0,0.4,0c0,0,0,0,0,0
		c0,0,0.1,0,0.1,0C186.9,146.8,187.1,146.8,187.2,146.8z"/>
	<path d="M141.5,217c-4.6-5.1-7-11.2-7-17.5c0-9.7,5.9-18.9,15.7-24.6l2,3.5c-8.6,5-13.7,12.9-13.7,21.1c0,5.3,2.1,10.5,5.9,14.9
		L141.5,217L141.5,217z"/>
	<path d="M251.5,250.3c-0.7,0-1.4-0.3-1.8-0.8l-1.2-1.2l-85.9-88.4l1.7-1.4c1.6-1.3,3.3-2.6,5-3.7c3.4-2.2,6.9-4.1,10.6-5.6l0.3-0.2
		h1.4l80.3,85.6l-3.3,7.5h0.6l-1.9,3.1c-2.1,3.3-3.8,4.9-5.5,5.1C251.7,250.2,251.6,250.3,251.5,250.3L251.5,250.3z M252.6,246.7
		L252.6,246.7C252.6,246.7,252.6,246.7,252.6,246.7z M197.1,189.6l54.7,56.3c0.4-0.4,1.1-1.2,2-2.6l3.4-7.8l-76.9-82
		c-3,1.3-5.9,2.9-8.7,4.8c-1,0.6-2,1.4-3,2.1L197.1,189.6L197.1,189.6z"/>
	<path d="M165.4,162.8l-2.6-2.9l1.4-1.3c0.2-0.2,5.2-5.1,13-8.3l0.3-0.3h0.5c0.7-0.3,1.5-0.6,2.3-0.8l1.4,3.8
		c-3.4,1.4-6.8,3.2-10,5.3c-1.6,1-3.2,2.2-4.7,3.4L165.4,162.8L165.4,162.8z"/>
	<path d="M256.7,246.1h-4.1l6.4-14.7l3.6,3.9l-0.7,1.3c0,0.1-0.1,0.2-0.1,0.3l-0.1,0.1c-1.6,3.4-3,6.1-4.4,8.2L256.7,246.1
		L256.7,246.1z"/>
	<path d="M291.9,283.6c-0.2,0.9-0.9,1.6-1.8,1.9l-6,1.5l3.7,10.9c0.3,1,0,2-0.8,2.6c-0.4,0.3-0.9,0.5-1.4,0.5v0
		c-0.5,0-1-0.2-1.4-0.4l-9.7-6.9l-4.3-3.1l-1.5-1l0.6-0.8l0.6-0.8l1.2-1.6l0.1,0.1l11.1,8l-0.3-1l-3-9.1l0.9-0.2l6.4-1.6L259.7,261
		l-0.5-0.4l-0.2-0.2l-0.1-0.1l-4.1-3.3l-1.8-1.5l0.7-0.9l1.8-2.2l0.5,0.4l35.1,28.2C291.8,281.7,292.2,282.7,291.9,283.6z"/>
	<g>
		<path class="st0" d="M188.9,146c2-0.6,0.8-2.9-3.4-4.5c-18.3-6.9-48.2,0.2-76.2,30.1l31.4,29.5C140.7,201,145.8,158.9,188.9,146
			L188.9,146z"/>
		<path d="M142.2,205.1l-35.8-33.5l1.4-1.5c30.7-32.7,61.4-36.9,78.3-30.6c3.7,1.4,5.8,3.4,5.7,5.5c0,1.3-0.9,2.4-2.4,2.8
			c-41.3,12.4-46.7,52.9-46.8,53.3L142.2,205.1L142.2,205.1z M112.1,171.4l27.3,25.6c2.4-10.6,12.4-41.4,47.6-52.6
			c-0.5-0.3-1.2-0.8-2.3-1.1C169.1,137.5,140.9,141.5,112.1,171.4L112.1,171.4z"/>
	</g>
	<path d="M249.9,246.9l-6.6,4.7l-28.4-32.4l-20.3-23.2l-1.4-1.6L179,178.3l-9.9-11.3l0,0h0l-5-5.7l-0.1-0.1l1.5-1.2l0.1,0.1
		l29.5,30.3l0,0l18.9,19.4L249.9,246.9L249.9,246.9z"/>
	<polygon class="st3" points="282,293.3 260.7,262.7 279.8,284 278.9,284.2 	"/>
	<polygon points="284.5,296.9 272.7,289.6 269.9,287.9 269.9,287.9 259.2,261.1 259,260.5 258.9,260.4 258.7,259.9 259.1,260.4 
		259.2,260.6 260.1,261.8 260.7,262.7 282,293.3 	"/>
	<polygon points="175.3,476.3 168.1,477.1 168.1,477.1 136.5,480.6 130.5,478.8 74.4,461.1 74.4,461.1 60.9,456.9 	"/>
	<polygon points="343.3,457.6 326.7,462.4 326.7,462.4 272.3,478.4 270,479 241.1,477 232.7,476.4 	"/>
	<polygon points="193.9,159.3 191.8,161.8 196.6,164.8 	"/>
	<polygon points="212.1,158.6 210,162.6 216.5,167 238.4,158.2 220.9,162.1 	"/>
	<path d="M204.4,329.7l-15.8,147.9c-0.1,0.8-0.8,1.5-1.6,1.5l-9.8-0.1l25.3-149.2H204.4z"/>
	<path d="M129.6,308.6l27.9-59.7c0,0,42.1,21.8,94.2,1.6c0,0-25.1,15.5-73.7,9.5C145.8,256,159.7,291.5,129.6,308.6L129.6,308.6z"/>
	<path d="M169.1,167c0,0,14.1,11.9,17.3,27.9c3.2,16,1.9,32,1.9,32l10.9,8.3c0.5,0.4,1.5,1.1,2.5,1.8c0.9,0.6,2.1-0.1,2.1-1.2v-2.2
		l-12-9.9l1.6-33.2L169.1,167L169.1,167z"/>
	<path class="st3" d="M267.1,15.7c-7-11.7-32.4-19.2-66.6,1.1c-19.7,11.7-28.7,30.2-26.6,54.9c1.7,20,10.1,39,15.3,49l-0.1-0.7
		c0,0,7.8,18.3,16,24.3c2.9,0,5.8,0.2,8.6,0.7l0.1-22.5c0-9.3,7.3-10.8,13.3-12c4.4-0.9,8.1-1.7,9.4-4.8c0.2-0.5,0.2-0.8,0-1
		c-1.2-2.4-9.3-4.1-15.2-5.4c-9-2-16.1-3.5-17-8c-1-4.9,6.5-6.7,16-9c6.6-1.6,15.5-3.8,16.6-6.5c0.1-0.2,0.3-0.7-0.5-1.8
		c-1-1.5-2.1-2.8-3-3.9c-2.1-2.5-3.9-4.8-3.5-7.6c0.7-4.3,5.7-8.2,26.8-21C268.2,34.4,272.3,24.3,267.1,15.7z M240,22.2
		c-2.4,0-4.3-1.7-4.3-3.9c0-2.1,1.9-3.9,4.3-3.9c2.4,0,4.3,1.7,4.3,3.9C244.3,20.5,242.3,22.2,240,22.2z"/>
	<path d="M207.1,145.5l-1.1,0.1l-2,0.1l-0.3,0l-2.1,0.1l-7.8,0.5l0-0.2l-0.1-0.8l0-0.1l-0.7-9.9l-3.2-11.7l-0.5-2.9l-0.1-0.7
		c0,0,7.8,18.3,16,24.3c0.1,0.1,0.2,0.1,0.3,0.2C206,144.9,206.5,145.2,207.1,145.5z"/>
	<path class="st3" d="M149.7,242.6c-20.4-8.4-33.3-24.8-33.3-43.1c0-3.5,0.5-6.8,1.4-10.1c3.4,1.5,11.4,6.2,14.7,16.4
		c4.2,13.1,4.1,12.4,6.2,18C140.9,229.8,146.3,238.1,149.7,242.6z"/>
	<path d="M152.7,245.9c-0.2,0.2-1.4-1.1-3-3.2c-3.4-4.5-8.8-12.9-11-18.9c-2.1-5.6-2-4.9-6.2-18c-3.3-10.2-11.3-14.9-14.7-16.4
		c-0.8-0.4-1.4-0.6-1.5-0.6l1.8-6.2l0.1-0.3c0,0,0.6,0.5,1.6,1.3c3.7,2.9,12.7,9.8,14.3,11.3c0.2,0.2,0.4,0.5,0.6,0.8
		c0.5,0.8,0.7,2,0.9,3.3c0.4,2.5,0.7,5.6,2.1,7.9c0.6,1,1.7,3.5,3,6.8c0.4,0.9,0.8,1.9,1.2,2.9c3.6,9.1,8.2,21.9,10.1,26.9
		c0.2,0.6,0.4,1.1,0.6,1.5C152.8,245.5,152.8,245.8,152.7,245.9z"/>
	<g>
		<path class="st0" d="M220.2,146c-2-0.6-0.8-2.9,3.4-4.5c18.3-6.9,48.2,0.2,76.2,30.1L268.3,201C268.3,201,263.2,158.9,220.2,146
			L220.2,146z"/>
		<path d="M301.2,170.1c-30.7-32.7-61.4-36.9-78.3-30.6c-2.5,1-4.3,2.2-5.1,3.5c0,0,0,0,0,0c-0.4,0.6-0.6,1.3-0.6,1.9
			c0,0.2,0,0.4,0.1,0.5c0,0.1,0.1,0.3,0.1,0.4c0.1,0.2,0.2,0.4,0.3,0.6c0.4,0.6,1,1,1.8,1.3c7.3,2.2,13.5,5.3,18.7,8.8
			c0,0,0.1,0,0.1,0.1c24.3,16.6,28,44.1,28,44.4l0.2,1.8l0.3,2.2l1.5-1.4l2.7-2.5l3.2-3l18.1-17l3.8-3.5l6.6-6.2L301.2,170.1z
			 M290.3,177.6C290.3,177.7,290.3,177.7,290.3,177.6l-20.7,19.4c-2.5-10.7-12.4-41.3-47.6-52.6c0.5-0.3,1.2-0.7,2.3-1.1
			c15.6-5.8,43.8-1.9,72.6,28.1L290.3,177.6z"/>
	</g>
	<path d="M324.8,191.5c-6.7,9.8-17.9,15-30.7,15v0c-7.2,0-15-1.7-22.8-5.1c-0.1-0.1-0.3-0.1-0.4-0.2c-0.6-0.5-0.9-1.2-0.8-2
		c0-0.2,0.1-0.3,0.1-0.4c0.3-0.7,0.9-1.1,1.6-1.2c0.4,0,0.7,0,1.1,0.2c0.4,0.2,0.8,0.3,1.2,0.5c19.3,8,38.2,4.5,47.3-9
		c8.7-12.7,11.4-24.3,9.1-38.5c0-0.1,0-0.2-0.1-0.4c0-0.1,0-0.2,0-0.3c-0.1-0.3-0.1-0.7-0.2-1c-0.2-1.1,0.5-2.1,1.6-2.3
		c1.1-0.2,2.1,0.5,2.3,1.6c0.1,0.3,0.1,0.6,0.2,1C337.1,164.9,334.2,177.6,324.8,191.5z"/>
	<path d="M314.2,163c-1,7.2-3.5,12.4-7.5,15.5c-3.3,2.7-7.1,3.4-10.1,3.4v0c-1.8,0-3.4-0.3-4.4-0.5c-0.7-0.2-1.1-0.3-1.2-0.3
		c-0.3-0.1-0.6-0.3-0.8-0.5c-0.5-0.5-0.7-1.3-0.4-2c0.1-0.3,0.3-0.6,0.5-0.8c0,0,0,0,0.1-0.1c0.5-0.5,1.3-0.7,2-0.4
		c0,0,0.4,0.1,1.1,0.3c0.6,0.1,1.5,0.3,2.6,0.3c2.4,0.1,5.6-0.3,8.3-2.5c5.2-4.1,7.2-13.4,6.1-26.8c0-0.3,0-0.6-0.1-1
		c-0.1-1.1,0.7-2.1,1.8-2.2c0.4,0,0.8,0.1,1.2,0.3c0.1,0,0.1,0.1,0.1,0.1c0.5,0.3,0.8,0.8,0.8,1.4c0,0.6,0.1,1.1,0.1,1.7
		c0.1,0.6,0.1,1.3,0.1,1.9C314.8,155.3,314.7,159.4,314.2,163z"/>
	<g>
		<path d="M342.6,144.1c-2.9,2.3-5.7,3.9-8.2,5.2c-1.3,0.6-2.6,1.1-3.8,1.5c-0.1,0-0.2,0-0.2,0.1c-2.9,0.9-5.6,1.3-8,1.3l0,0
			c-3.2,0-5.9-0.7-7.9-1.4c-0.8-0.3-1.4-0.6-2-0.9c-0.1,0-0.2-0.1-0.2-0.1c-0.7-0.4-1.3-0.8-1.9-1.2c-4.5-3.2-7.2-8-6.9-12.6
			c0.2-3.3,0.4-6.2,0.5-8.1c0-0.9-0.1-1.8-0.5-2.7c-0.2-0.5-0.5-1-0.9-1.6c-0.8-1.4-1.6-2.8-1.8-4.1c-0.5-3.6,2-8.2,5.7-10.5
			c3.6-2.2,7.7-2,11.3,0.5c5.1,3.5,5.3,7.8,5.5,10.3c0,0.5,0.1,1.1,0.1,1.4c1.8-1.2,6.1-4.3,10.2-10.5c5.6-8.5,13.6-10.5,17.1-9.5
			c0.3,0.1,0.6,0.2,0.8,0.3c1,0.6,1.3,1.8,0.7,2.7s-1.8,1.3-2.7,0.7c-0.6-0.2-2.5-0.1-4.9,1c-2.4,1.1-5.2,3.2-7.7,6.9
			c-4.6,7.1-9.6,10.6-11.5,11.8c-1.3,0.8-2.8,0.9-4.1,0.1c-1.9-1.1-2-3.1-2.1-4.8c-0.1-2.4-0.2-4.8-3.7-7.2
			c-2.4-1.6-4.7-1.8-6.9-0.4c-2.5,1.6-4.2,4.8-3.9,6.5c0.1,0.6,0.8,1.8,1.3,2.7c0.4,0.6,0.7,1.3,1,1.9c0.7,1.4,1,3,0.9,4.5
			c-0.1,1.9-0.2,4.9-0.5,8.2c-0.2,3.3,2.1,7.1,5.9,9.5c0.1,0,0.1,0.1,0.1,0.1c0.2,0.2,0.5,0.3,0.8,0.4c3.4,1.8,12.8,5,26-5.2
			c13.4-10.4,17.6-18,17.1-21.7c-0.1-0.8-0.5-1.3-1-1.5c-1.5-0.3-7.1,4.1-10.1,6.4c-3.4,2.7-6.4,5-8.6,5.8c-1.1,0.4-2.2-0.2-2.5-1.2
			c-0.4-1,0.2-2.2,1.2-2.5c1.5-0.5,4.5-2.9,7.4-5.1c6.2-4.8,10.2-7.8,13.3-7.2c0.2,0,0.5,0.1,0.7,0.2c1.1,0.4,2,1.2,2.6,2.2
			c0.4,0.7,0.7,1.6,0.9,2.5C361.7,122.4,360,130.6,342.6,144.1z"/>
		<path class="st3" d="M357.2,119.2c0.5,3.7-3.7,11.3-17.1,21.7c-13.2,10.2-22.6,7.1-26,5.2c-0.2-0.1-0.5-0.3-0.8-0.4
			c0,0-0.1-0.1-0.1-0.1c-3.7-2.3-6.1-6.1-5.9-9.5c0.2-3.3,0.4-6.3,0.5-8.2c0.1-1.6-0.2-3.1-0.9-4.5c-0.3-0.6-0.7-1.2-1-1.9
			c-0.5-0.9-1.2-2.1-1.3-2.7c-0.3-1.8,1.3-4.9,3.9-6.5c2.2-1.4,4.6-1.3,6.9,0.4c3.5,2.4,3.6,4.9,3.7,7.2c0.1,1.6,0.2,3.7,2.1,4.8
			c1.2,0.7,2.8,0.7,4.1-0.1c1.9-1.2,6.9-4.7,11.5-11.8c2.4-3.7,5.3-5.8,7.7-6.9c-0.6,0.8-1.2,1.8-1.7,2.7c-3,6.2-7.1,10.6-9.4,11.2
			c-1.1,0.3-1.7,1.4-1.4,2.5c0.2,0.9,1.1,1.4,1.9,1.4v0c0.2,0,0.4,0,0.6-0.1c4.4-1.3,9.1-7.6,11.9-13.3c1.5-3.1,4.4-5.5,7-5.9
			c1.5-0.2,2.7,0.3,3.7,1.4c2.1,2.4,0.8,6-0.2,8c-3.1-0.6-7.1,2.4-13.3,7.2c-2.9,2.3-5.9,4.6-7.4,5.1c-1,0.4-1.6,1.5-1.2,2.5
			c0.4,1,1.5,1.6,2.5,1.2c2.2-0.8,5.1-3.1,8.6-5.8c3-2.3,8.5-6.7,10.1-6.4C356.8,117.9,357.1,118.4,357.2,119.2z"/>
		<path d="M360.3,116.2c-0.4,0.8-0.7,1.2-0.8,1.3c-0.6,0.9-1.9,1.1-2.8,0.5c-0.9-0.6-1.1-1.9-0.5-2.8c0,0,0.4-0.6,0.8-1.4
			c1-2,2.3-5.6,0.2-8c-1-1.1-2.2-1.6-3.7-1.4c-2.6,0.4-5.5,2.8-7,5.9c-2.8,5.7-7.5,12-11.9,13.3c-0.2,0.1-0.4,0.1-0.6,0.1v0
			c-0.9,0-1.7-0.6-1.9-1.4c-0.3-1.1,0.3-2.2,1.4-2.5c2.3-0.7,6.4-5,9.4-11.2c0.5-1,1-1.9,1.7-2.7c1.7-2.2,3.8-3.9,6.1-4.8
			c0.8-0.3,1.5-0.5,2.3-0.6c2.8-0.4,5.4,0.6,7.3,2.7C364.2,107.6,361.7,113.6,360.3,116.2z"/>
	</g>
	<path class="st3" d="M321.5,189.3c-9.2,13.5-28.1,17.1-47.3,9l18.1-17c1,0.2,2.6,0.5,4.4,0.5v0c3,0,6.7-0.7,10.1-3.4
		c4-3.2,6.5-8.4,7.5-15.5c1.3-1.8,3.1-5.3,8.2-6.2c5.4-1,7.4-4.4,8-5.9c0.1,0,0.2-0.1,0.2-0.1C332.9,164.9,330.1,176.5,321.5,189.3z
		"/>
	<path d="M330.6,150.1c0,0,0,0.1-0.1,0.3c0,0.1-0.1,0.3-0.2,0.5c-0.6,1.5-2.5,4.8-8,5.9c-5.1,1-6.8,4.5-8.2,6.2
		c-0.5,0.7-1,1.1-1.5,1c-1.7-0.2-0.6-10.7-0.1-14.2c0.1-0.7,0.1-1.1,0.1-1.1l1.7,0.1l16,1.3L330.6,150.1z"/>
</g>
</svg>
