<?xml version="1.0" encoding="utf-8"?>
<!-- Generator: Adobe Illustrator 27.2.0, SVG Export Plug-In . SVG Version: 6.00 Build 0)  -->
<svg version="1.1" id="Calque_2_00000075851948558821939050000013345430293709143957_"
	 xmlns="http://www.w3.org/2000/svg" xmlns:xlink="http://www.w3.org/1999/xlink" x="0px" y="0px" viewBox="0 0 408 485.5"
	 style="enable-background:new 0 0 408 485.5;" xml:space="preserve">
<style type="text/css">
	.st0{fill:#35A88A;}
	.st1{fill:#BCFFEC;}
	.st2{fill:#5277B8;}
	.st3{fill:#FFFFFF;}
	.st4{fill:#AC4250;}
</style>
<g id="Calque_1-2">
	<path class="st0" d="M158.2,248.5L63.6,456.9l124.1,19.7l18.1-159.1l26.4,159.1l115.1-21.1l-94.1-205.2
		C253.1,250.3,205.2,269.2,158.2,248.5L158.2,248.5z"/>
	<path class="st0" d="M158.2,248.5c0,0-50.9-76,39.8-102.1c0,0,40.1,3.8,50.6,17c10.6,13.3,20.5,18.9,19.2,45.2s-7.8,35.8-28.1,46.1
		C214.2,267.8,158.2,248.5,158.2,248.5L158.2,248.5z"/>
	<polygon class="st1" points="200.6,166.4 210.4,166.9 216.1,225.8 203.9,232.9 193.6,222.9 	"/>
	<polygon class="st2" points="168.6,160 173.9,157.5 255.7,244.1 251.8,247.4 	"/>
	<polygon class="st3" points="173.9,157.5 178.4,154.9 257,239.5 255.7,244.1 	"/>
	<polygon class="st4" points="178.4,154.9 182.1,152.4 260.5,233.6 257,239.5 	"/>
	<polygon class="st1" points="196.4,156.8 205.1,147.3 215.4,157.9 212.2,163.9 198.6,163.9 	"/>
	<polygon class="st4" points="289.9,281.6 281.5,284.3 281.1,283.9 262,262.7 261.6,262.2 260.5,261 260.1,260.5 260.3,260.4 
		260.3,260.4 260.4,260.3 260.7,260.2 261.5,259.9 	"/>
	<path d="M212.6,166.7h-15.2l-5.1-11.4l10.1-9.1c0.8-0.8,2.8-2.6,4.8-0.9l0.1,0.1l10.2,10L212.6,166.7L212.6,166.7z M200,162.7h10
		l2.7-6.4l-7.4-7.3c-0.1,0.1-0.1,0.1-0.1,0.1l-8,7.2L200,162.7L200,162.7z"/>
	<path d="M215.2,189.2l-18.7-20l0.6-5.9h15.5L215.2,189.2z M200.7,167.8l9.4,10l-1.1-10.5h-8.3L200.7,167.8L200.7,167.8z"/>
	<path d="M205.1,236.2L191,224.5l3.8-38.6l22.3,23l1.6,15.9L205.1,236.2L205.1,236.2z M195.2,222.8l9.9,8.2l9.5-7.9l-1.2-12.4
		L198,194.8L195.2,222.8L195.2,222.8z"/>
	<path d="M181,475.6c-0.3-0.5-0.8-0.8-1.4-0.9l-0.5-0.1l-42.8-7.3l-69.9-11.9l-2-0.3l-0.5-0.1h-0.1c-0.2,0-0.7-0.1-1.5-0.2
		c-9.2-0.9-56.9-4.7-60.5,17.1c-0.3,1.9,0.3,3.6,1.6,5.1c2.1,2.2,7.7,8.4,57.9,8.4h0c8.8,0,18.9-0.2,30.7-0.6
		c39.9-1.5,79.9-5.1,87.5-5.8c0.2,0,0.3,0,0.5-0.1c0.5-0.2,0.9-0.5,1.2-1c0.2-0.3,0.3-0.6,0.3-1C181.5,476.4,181.3,476,181,475.6z
		 M91.9,480.8c-66.9,2.5-82.3-3-85.5-6.4c-0.7-0.7-0.7-1.3-0.6-1.7c2-11.8,22.8-14.6,40-14.6c6.9,0,13.2,0.5,17.5,1l1,0.2
		c0,0,0.1,0,0.1,0l11.3,1.9l89.2,15.2h-0.1c-8.6,0.7-20.1,1.6-33.1,2.5C119.4,479.5,105.6,480.2,91.9,480.8z"/>
	<path class="st3" d="M131.8,478.7c-12.4,0.8-26.2,1.6-39.9,2.1c-66.9,2.5-82.3-3-85.5-6.4c-0.7-0.7-0.7-1.3-0.6-1.7
		c2-11.8,22.8-14.6,40-14.6c6.9,0,13.2,0.5,17.5,1l1,0.2c0,0,0.1,0,0.1,0c0.1,0,0.2,0,0.3,0.1l11.1,1.9L131.8,478.7z"/>
	<path d="M349.1,454.8c0,0,0-0.1,0-0.1l-73.2-161.1l-1.8-4.1v0l-1.5-3.2l-10.9-24.1l-0.2-0.4v0l-0.4-0.9v0l-0.3-0.7l-3.3-7.4v0
		l-1.8-3.9l-0.1-0.3l-0.4-0.9c-0.2-0.5-0.6-0.9-1.1-1l0,0c-0.3-0.1-0.7-0.2-1-0.1c0,0-0.1,0-0.1,0c-0.1,0-0.1,0-0.2,0.1l-0.4,0.2
		l-0.6,0.2l-1.2,0.5l-0.6,0.2c-0.1,0-0.2,0.1-0.2,0.1c-2,0.8-4.1,1.5-6.2,2.1c-25.9,8.3-53.9,7.8-79.6-1.6l-3.9-1.4l-0.8-0.3
		c-0.6-0.2-1.2-0.1-1.7,0.2c-0.1,0-0.2,0.1-0.2,0.2v0c-0.2,0.2-0.4,0.4-0.5,0.7l-0.3,0.7l-0.1,0.2L62.3,454.8l0,0
		c-0.4,0.9-0.4,1.9,0.1,2.8c0.4,0.8,1.1,1.3,1.9,1.5c0,0,0.1,0,0.1,0c0.1,0,0.2,0,0.3,0.1l11.1,1.9l89.1,15.2l4.5,0.8l8.9,1.5l0.2,0
		c0.9,0.1,1.9-0.1,2.6-0.6c0,0,0.1,0,0.1-0.1c0.7-0.5,1.2-1.2,1.5-2c0.1-0.2,0.1-0.4,0.1-0.6l17.8-112.9l0-0.1l4.8-30.4l0-0.1
		l0.2-1.5l22.9,145.4c0.1,0.9,0.7,1.8,1.4,2.3c0.2,0.1,0.3,0.2,0.5,0.3c0.5,0.2,1,0.4,1.5,0.4l0,0c0.2,0,0.4,0,0.6,0l9.8-1.7h0
		l4.1-0.7c0,0,0,0,0,0l81.3-13.9l18.7-3.2c0.1,0,0.2,0,0.4-0.1l0,0c0.8-0.2,1.5-0.8,1.9-1.6C349.4,456.7,349.4,455.7,349.1,454.8z
		 M205.7,315.6L205.7,315.6c-1,0-1.8,0.7-2,1.7l-24.8,157.3l-42.6-7.2l-69.9-11.9l0,0L134,306.6l25.2-55.6l3,1.1
		c17.8,6.5,36.7,8.8,55.3,7.1h0c6.6-0.6,13.1-1.7,19.5-3.4c0,0,0,0,0,0c0,0,0,0,0,0c4.6-1.2,9.1-2.6,13.6-4.3c0,0,0.1,0,0.1,0
		c0.1,0,0.1,0,0.2-0.1l1.1-0.4L345,455.4l-112.5,19.2l-24.8-157.3C207.6,316.3,206.7,315.6,205.7,315.6z"/>
	<path d="M409.6,471.9c-3.6-21.8-51.4-18-60.5-17.1c-0.8,0.1-1.2,0.1-1.4,0.1l-0.6,0.1l-2,0.3l-112.5,19.2l-0.7,0.1h0
		c-1.1,0.2-1.8,1.1-1.8,2.2c0,0.5,0.2,1,0.6,1.4c0.4,0.4,0.9,0.7,1.4,0.7c7.6,0.7,47.7,4.3,87.6,5.8c11.7,0.4,21.8,0.6,30.5,0.6l0,0
		c50.1,0,55.8-6.1,57.9-8.3C409.4,475.5,409.9,473.8,409.6,471.9z M405,474.3c-3.2,3.5-18.6,8.9-85.3,6.5c-16-0.6-32.1-1.5-46.1-2.5
		c-10.5-0.7-19.8-1.5-27.1-2c0,0,0,0,0,0c0,0-0.1,0-0.1,0l81.6-13.9l18.9-3.2l0,0l1.1-0.2c15.1-1.8,54.8-2.8,57.5,13.6
		C405.7,473,405.7,473.6,405,474.3z"/>
	<path class="st3" d="M405,474.3c-3.2,3.5-18.6,8.9-85.3,6.5c-16-0.6-32.1-1.5-46.1-2.5l54.2-15.9l18.7-3.2c0.1,0,0.2,0,0.4-0.1l0,0
		l1.1-0.2c15.1-1.8,54.8-2.8,57.5,13.6C405.7,473,405.7,473.6,405,474.3z"/>
	<path d="M269.8,208.6c0,5.1-0.7,10.2-1.9,15.2c-1,3.9-2.3,7.8-4,11.4c-0.2,0.5-0.5,1.1-0.8,1.6L263,237c-0.1,0.2-0.2,0.5-0.4,0.7
		c-0.8,1.5-1.6,2.9-2.5,4.4c-0.2,0.3-0.3,0.6-0.5,0.9c-0.7,1.1-1.4,2.1-2.2,3.2c-0.6,0.9-1.3,1.7-2,2.6c-0.2,0.2-0.3,0.4-0.5,0.6
		l0,0l-2.6-2.2l0,0l-0.2-0.2l-0.2-0.2c0.3-0.4,0.6-0.7,0.9-1.1c0.7-0.8,1.3-1.7,1.9-2.5c0.5-0.7,1-1.4,1.5-2.2c0,0,0-0.1,0.1-0.1
		c0.2-0.3,0.4-0.7,0.6-1c0.6-1,1.2-2,1.7-2.9c0.3-0.6,0.6-1.1,0.9-1.7l0.1-0.1c0.3-0.5,0.5-1.1,0.8-1.6c0.2-0.4,0.4-0.9,0.6-1.3
		c1.3-3,2.3-6.1,3.1-9.2c1.2-4.6,1.7-9.4,1.8-14.2c0.1-16-6.1-31.1-17.3-42.5c-2.9-2.9-6-5.5-9.3-7.7c0,0-0.1-0.1-0.1-0.1
		c-0.1,0-0.1-0.1-0.2-0.1c-0.6-0.4-1.2-0.8-1.8-1.1c-4.2-2.5-8.6-4.6-13.2-6c-2.8-0.9-5.7-1.6-8.7-2c0,0-0.1,0-0.1,0
		c-1.5-0.2-3.1-0.4-4.7-0.5c-1-0.1-1.9-0.1-2.9-0.1c-0.4,0-0.9,0-1.3,0h0c-0.3,0-0.5,0-0.8,0c-0.1,0-0.2,0-0.3,0c-0.3,0-0.6,0-0.9,0
		c-0.5,0-0.9,0-1.4,0c-1,0-2,0.1-3,0.2c-3.7,0.4-7.3,1.1-10.8,2.1l-0.2,0.1l-0.1,0L188,151c-0.8,0.2-1.6,0.5-2.4,0.8h0
		c-0.7,0.2-1.4,0.5-2,0.8c-0.2,0.1-0.5,0.2-0.7,0.3l-0.2-0.6l-0.2-0.4l-0.3-0.8l0-0.1l-0.1-0.1l-0.1-0.2l-0.6-1.4l0,0
		c0,0,0.1,0,0.1,0c0.1,0,0.2-0.1,0.3-0.1c0.4-0.2,0.8-0.3,1.1-0.5c1.2-0.5,2.5-0.9,3.8-1.3l0.3-0.1l0.1,0l0.3,0c0.1,0,0.1,0,0.2,0
		l0.3-0.1c0.1,0,0.2-0.1,0.3-0.1c1.3-0.4,2.5-0.7,3.8-1c0.3-0.1,0.7-0.1,1-0.2c0.7-0.1,1.3-0.3,2-0.4c0.3,0,0.6-0.1,0.9-0.2
		c3.4-0.5,6.8-0.8,10.2-0.8c0.1,0,0.2,0,0.4,0c2.9,0,5.7,0.2,8.5,0.7c1.2,0.2,2.4,0.4,3.5,0.6c0.1,0,0.3,0,0.4,0.1
		c3,0.6,5.9,1.4,8.7,2.5c0,0,0.1,0,0.1,0c8.7,3.2,16.7,8.3,23.4,15.1c8.8,8.9,14.7,19.9,17.1,31.9c0.6,2.8,1,5.6,1.2,8.5
		C269.8,205.3,269.8,207,269.8,208.6z"/>
	<path d="M156.8,249.4c-2.6-3.1-4.9-6.4-6.8-9.8c-4.1-7.3-6.7-15.3-7.7-23.7v-0.1c-0.3-2.6-0.5-5.3-0.4-7.9
		c0.1-11.4,3.2-22.6,9-32.3c3.6-6,8-11.3,13.4-15.9c0.5-0.4,1-0.9,1.5-1.3l2.5,3.1c-0.5,0.4-0.9,0.8-1.4,1.2
		c-5,4.3-9.2,9.3-12.5,14.9c-5.4,9.1-8.3,19.6-8.4,30.3c0,2.5,0.1,5,0.4,7.5v0.1c1,7.8,3.4,15.2,7.2,22.1c1.8,3.3,4,6.4,6.4,9.2
		L156.8,249.4L156.8,249.4z"/>
	<g>
		<path class="st3" d="M237.1,157l-16.4,6.3c-0.3,0.1-0.7,0-0.9-0.2L207,147.7c-0.5-0.6,0-1.4,0.7-1.4c5.1,0.4,19.2,2,29.5,9.1
			C237.8,155.9,237.7,156.7,237.1,157L237.1,157z"/>
		<path d="M220.4,165.4c-0.8,0-1.6-0.4-2.2-1L205.5,149c-0.7-0.9-0.9-2.1-0.3-3.1s1.6-1.6,2.7-1.5c5.6,0.4,19.9,2.1,30.5,9.5
			c0.9,0.6,1.3,1.6,1.2,2.7c-0.1,1-0.8,1.9-1.8,2.3l-16.4,6.3C221.1,165.3,220.7,165.4,220.4,165.4L220.4,165.4z M210.4,148.6
			l10.4,12.6l13.5-5.2C226.1,151.1,216.2,149.3,210.4,148.6z"/>
	</g>
	<g>
		<path class="st3" d="M203.3,147.7l-1.1,1.3l-6.9,8.3l-3.4,4.1l-9.8-10.5c0,0,0,0,0,0c-3.6,1.5-7.1,3.3-10.3,5.5
			c2.4-1.8,5.1-3.3,7.8-4.6c0,0,0,0,0.1,0c2.6-1.2,5.3-2.1,7.8-2.8c0,0,0.1,0,0.1,0c0.3-0.1,0.6-0.2,0.9-0.2
			c6.1-1.6,11.5-2.2,14.3-2.4C203.4,146.3,203.8,147.1,203.3,147.7L203.3,147.7z"/>
		<path d="M192.1,164.4l-10.4-11.1c-3,1.3-5.9,2.9-8.7,4.8l-2.3-3.3c2.3-1.7,4.9-3.3,7.8-4.6l0.3-0.3h0.4c2.3-1,4.8-1.9,7.5-2.7
			l0.2-0.1h0.2c0.1,0,0.2-0.1,0.4-0.1l0.3-0.1c6.3-1.7,11.9-2.3,14.7-2.5c1.1-0.1,2.2,0.5,2.7,1.5s0.4,2.2-0.3,3.1l-1.1,1.3
			L192.1,164.4L192.1,164.4z M185.6,151.7l6.3,6.7l8.1-9.8c-2.9,0.3-6.8,0.9-11.1,2.1l-0.3,0.1c-0.1,0-0.3,0.1-0.4,0.1l-0.4,0.1
			C187.1,151.2,186.3,151.5,185.6,151.7L185.6,151.7z M202.8,148.4L202.8,148.4L202.8,148.4z"/>
	</g>
	<g>
		<path d="M260.1,44.7c-16.1,9.8-24.4,15.3-24.9,18.3c-0.2,1,0.8,2.3,2.6,4.4c1,1.2,2.1,2.5,3.2,4.2c1.6,2.3,1.4,4.3,0.9,5.5
			c-1.8,4.7-10.3,6.8-19.4,9c-4.5,1.1-12,2.9-13,4.4c1.3,1.5,10.8,0.6,15.9,0.2c10.3-0.9,16.7-1.2,18.9,1.8c0.6,0.8,1.1,2.2,0.3,4.2
			c-1.9,4.4-6.8,7.4-12,10.6c-6.6,4-13.5,8.2-13.5,15.1l-0.1,20.7l0,2.5v1l0,0l-4,0l0-1.4V145l0.1-22.5c0-9.2,8.2-14.1,15.4-18.5
			c4.7-2.8,9.1-5.5,10.4-8.8c0.1-0.2,0.1-0.3,0.1-0.4c-1.4-1.3-10.1-0.6-15.3-0.1c-10.7,0.9-19.2,1.6-20.2-3.4c-1-4.9,6.5-6.7,16-9
			c6.6-1.6,15.5-3.8,16.6-6.5c0.1-0.2,0.3-0.7-0.5-1.8c-1-1.5-2.1-2.8-3-3.9c-2.1-2.5-3.9-4.8-3.5-7.6c0.7-4.3,5.7-8.2,26.8-21
			c11.5-7,15.6-17.1,10.4-25.7c-7-11.7-32.4-19.2-66.6,1.1c-19.7,11.7-28.7,30.2-26.6,55c1.7,20,10.2,39,15.4,49
			c0.1,0.2,0.2,0.5,0.3,0.7c2.6,4.9,4.1,10.1,4.4,15.5l0.6,8.1l0,0.1l0.1,0.9l-0.9,0.1l-2.3,0.2l-0.7,0l0-0.5l0-0.1l-0.2-3.7
			l-0.3-4.9c-0.3-4.8-1.7-9.5-4-13.9c-5.3-10.1-14.4-30.1-16.1-51.2c-2.2-26.5,7.4-46.2,28.5-58.7c34.5-20.4,62.9-15.1,72.1,0.3
			C277.1,22.3,275.5,35.4,260.1,44.7z"/>
		<ellipse cx="241.3" cy="18.3" rx="4.3" ry="3.9"/>
	</g>
	<path d="M188.5,146.8l-0.1,1.8l0,0.2l0,0.8l-0.1,1.2c-0.7-0.1-1.8-0.1-2.9-0.1c-0.3,0-0.5,0-0.8,0c-0.5,0-1,0-1.5,0
		c-0.2,0-0.3,0-0.5,0H182c-0.6,0-1.1,0-1.5,0c-0.7,0-1.4,0-2.1,0c-0.1,0-0.2,0-0.4,0c-0.1,0-0.3,0-0.4,0c0,0-0.1,0-0.1,0
		c-1.2,0-2.5,0.1-3.7,0.2c-22.9,1.9-42.1,13.5-50.9,29.3c-0.3,0.6-0.7,1.2-1,1.8c-0.2,0.5-0.5,1-0.7,1.5c-0.1,0.1-0.1,0.3-0.2,0.5
		c-0.8,1.7-1.4,3.5-1.9,5.3c-0.9,3.3-1.4,6.7-1.4,10.1c0,18.3,12.8,34.7,33.2,43.1c0.4,0.1,0.7,0.3,1.1,0.4c0.4,0.2,0.8,0.3,1.2,0.5
		c0.8,0.3,1.6,0.6,2.4,0.8c0.6,0.2,1.2,0.4,1.8,0.6l-0.5,1.7l-0.1,0.4l-0.5,1.7h0c0,0-0.1,0-0.1,0c-0.1,0-0.2-0.1-0.3-0.1
		c-25.6-8-42.2-27.3-42.2-49.2c0-6.5,1.5-12.6,4.1-18.3c0.3-0.6,0.6-1.2,0.9-1.9c0.3-0.6,0.7-1.2,1-1.8
		c10.6-18.2,33.7-30.8,60.6-30.8c0.5,0,1.2,0,1.9,0c1.7,0,3.8,0.1,5.3,0.1c0.2,0,0.3,0,0.5,0c0,0,0,0,0,0h0
		C188.3,146.8,188.4,146.8,188.5,146.8z"/>
	<path d="M142.8,216.9c-4.6-5.1-7-11.2-7-17.5c0-9.7,5.9-18.9,15.7-24.6l2,3.5c-8.6,5-13.7,12.9-13.7,21.1c0,5.3,2.1,10.5,5.9,14.9
		L142.8,216.9L142.8,216.9z"/>
	<path d="M252.9,250.2c-0.7,0-1.4-0.3-1.8-0.8l-1.2-1.2L164,159.8l1.7-1.4c1.6-1.3,3.3-2.6,5-3.7c3.4-2.2,6.9-4.1,10.6-5.6l0.4-0.2
		h1.4l80.3,85.6L260,242h0.6l-1.9,3.1c-2.1,3.3-3.8,4.9-5.5,5.1C253.1,250.2,253,250.2,252.9,250.2L252.9,250.2z M253.9,246.6
		L253.9,246.6C253.9,246.7,253.9,246.7,253.9,246.6z M198.4,189.5l54.7,56.3c0.4-0.4,1.1-1.2,2-2.6l3.4-7.8l-76.9-82
		c-3,1.3-5.9,2.9-8.7,4.8c-1,0.6-2,1.4-3,2.1L198.4,189.5L198.4,189.5z"/>
	<path d="M166.7,162.7l-2.6-2.9l1.4-1.3c0.2-0.2,5.2-5.1,13-8.3l0.3-0.3h0.5c0.7-0.3,1.5-0.6,2.3-0.8l1.4,3.8
		c-3.5,1.4-6.8,3.2-10,5.3c-1.6,1-3.2,2.2-4.7,3.4L166.7,162.7L166.7,162.7z"/>
	<path d="M258.1,246.1h-4.2l6.4-14.7l3.6,3.9l-0.7,1.3c0,0.1-0.1,0.2-0.1,0.3l-0.1,0.1c-1.5,3.3-3,6.1-4.4,8.2L258.1,246.1
		L258.1,246.1z"/>
	<path d="M293.3,283.5c-0.2,0.9-0.9,1.6-1.8,1.9l-6,1.5l3.7,10.9c0.3,1,0,2-0.8,2.6c-0.4,0.3-0.9,0.5-1.4,0.5v0
		c-0.5,0-1-0.2-1.4-0.4l-9.7-6.9l-4.3-3.1l-1.5-1l0.6-0.8l0.6-0.8l1.2-1.6l0.2,0.1l11.1,8l-0.3-1l-3-9.1l0.9-0.2l6.4-1.6L261,260.9
		v0l-0.5-0.4l-0.2-0.2l-0.1-0.1l-4.1-3.3l-1.8-1.5l0.7-0.9l1.8-2.2l0.5,0.4v0l35,28.2C293.2,281.6,293.5,282.6,293.3,283.5z"/>
	<g>
		<path class="st0" d="M190.2,145.9c2-0.6,0.8-2.9-3.4-4.5c-18.3-6.9-48.2,0.2-76.2,30.1l31.4,29.5
			C142,200.9,147.1,158.9,190.2,145.9L190.2,145.9z"/>
		<path d="M143.5,205.1l-35.8-33.5l1.4-1.5c30.7-32.7,61.4-36.9,78.3-30.6c3.7,1.4,5.8,3.4,5.7,5.5c0,1.3-0.9,2.4-2.4,2.8
			c-41.3,12.4-46.7,52.9-46.8,53.3L143.5,205.1L143.5,205.1z M113.4,171.4l27.3,25.6c2.4-10.6,12.4-41.4,47.6-52.6
			c-0.5-0.3-1.2-0.8-2.3-1.1C170.5,137.4,142.3,141.4,113.4,171.4L113.4,171.4z"/>
	</g>
	<path d="M251.3,246.8l-6.6,4.7l-28.4-32.4l-20.3-23.2l-1.4-1.6l-14.1-16.1l-9.9-11.3l0,0h0l-5-5.7l-0.1-0.1l1.5-1.2l0.1,0.1
		l29.5,30.3l0,0l18.9,19.4L251.3,246.8L251.3,246.8z"/>
	<polygon class="st3" points="283.3,293.2 262,262.7 281.1,283.9 280.3,284.1 	"/>
	<polygon points="274,289.5 274,289.5 271.2,287.8 271.2,287.8 260.5,261 260.3,260.4 260.3,260.3 260.1,259.9 260.4,260.3 
		260.6,260.6 261.4,261.8 261.4,261.8 262,262.7 283.3,293.2 285.8,296.8 	"/>
	<polygon points="176.6,476.2 169.4,477 137.8,480.6 131.8,478.7 75.8,461.1 75.7,461 62.2,456.8 	"/>
	<polygon points="344.6,457.5 328.1,462.3 327.9,462.4 273.7,478.3 271.3,479 242.5,476.9 242.5,476.9 234,476.3 	"/>
	<polygon points="195.3,159.2 193.1,161.7 198,164.7 	"/>
	<polygon points="213.4,158.5 211.3,162.5 217.8,166.9 239.7,158.1 222.2,162 	"/>
	<path d="M205.7,329.6l-15.8,147.9c-0.1,0.8-0.8,1.5-1.6,1.5l-9.8-0.1l25.3-149.2H205.7z"/>
	<path d="M131,308.5l27.9-59.7c0,0,42.1,21.8,94.2,1.6c0,0-25.1,15.5-73.7,9.5C147.1,255.9,161,291.4,131,308.5L131,308.5z"/>
	<path d="M170.5,166.9c0,0,14.1,11.9,17.3,27.9c3.2,16,1.9,32,1.9,32l10.9,8.3c0.5,0.4,1.5,1.1,2.5,1.8c0.9,0.6,2.1-0.1,2.1-1.2
		v-2.2l-12-9.9l1.6-33.2L170.5,166.9L170.5,166.9z"/>
	<path class="st3" d="M268.4,15.6c-7-11.7-32.4-19.2-66.6,1.1c-19.7,11.7-28.7,30.2-26.6,55c1.7,20,10.2,39,15.4,49l-0.1-0.7
		c0,0,7.8,18.4,16.1,24.3c2.9,0,5.7,0.2,8.5,0.7l0.1-22.5c0-9.2,8.2-14.1,15.4-18.5c4.7-2.8,9.1-5.5,10.4-8.8
		c0.1-0.2,0.1-0.3,0.1-0.4c-1.4-1.3-10.1-0.6-15.3-0.1c-10.7,0.9-19.2,1.6-20.2-3.4c-1-4.9,6.5-6.7,16-9c6.6-1.6,15.5-3.8,16.6-6.5
		c0.1-0.2,0.3-0.7-0.5-1.8c-1-1.5-2.1-2.8-3-3.9c-2.1-2.5-3.9-4.8-3.5-7.6c0.7-4.3,5.7-8.2,26.8-21
		C269.5,34.3,273.6,24.2,268.4,15.6z M241.3,22.1c-2.4,0-4.3-1.7-4.3-3.9c0-2.1,1.9-3.9,4.3-3.9s4.3,1.7,4.3,3.9
		C245.6,20.4,243.7,22.1,241.3,22.1z"/>
	<path d="M208.4,145.4l-1.1,0.1l-2,0.1l-0.3,0l-2.1,0.1l-7.8,0.5l0-0.2l-0.1-0.8v-0.1l-0.7-9.9l-3.2-11.7l-0.5-2.9l-0.1-0.7
		c0,0,7.8,18.4,16.1,24.3c0.1,0.1,0.2,0.1,0.3,0.2C207.4,144.8,207.9,145.1,208.4,145.4z"/>
	<path class="st3" d="M151,242.6c-20.4-8.4-33.2-24.8-33.2-43.1c0-3.5,0.5-6.8,1.4-10.1c3.4,1.5,11.4,6.2,14.7,16.4
		c4.2,13.1,4.1,12.4,6.2,18C142.3,229.7,147.6,238,151,242.6z"/>
	<path d="M154.1,245.8c-0.2,0.2-1.4-1.1-3-3.2c-3.4-4.5-8.8-12.9-11-18.9c-2.1-5.6-2-4.9-6.2-18c-3.3-10.2-11.3-14.9-14.7-16.4
		c-0.9-0.4-1.4-0.6-1.5-0.6l1.8-6.2l0.1-0.3c0,0,0.6,0.5,1.6,1.3c3.7,2.9,12.7,9.8,14.3,11.3c0.2,0.2,0.4,0.5,0.6,0.9
		c0.4,0.8,0.7,2,0.9,3.3c0.4,2.5,0.7,5.6,2.1,7.9c0.6,1,1.7,3.5,3,6.8c0.4,0.9,0.8,1.9,1.2,2.9c3.6,9.1,8.2,21.9,10.1,26.9
		c0.2,0.6,0.4,1.1,0.6,1.5C154.1,245.4,154.1,245.7,154.1,245.8z"/>
	<g>
		<path class="st0" d="M221.5,145.9c-2-0.6-0.8-2.9,3.4-4.5c18.3-6.9,48.2,0.2,76.2,30.1l-31.4,29.5
			C269.7,200.9,264.6,158.9,221.5,145.9L221.5,145.9z"/>
		<path d="M302.6,170.1c-30.7-32.7-61.4-36.9-78.3-30.6c-2.6,1-4.4,2.2-5.2,3.6c0,0,0,0,0,0c-0.4,0.6-0.5,1.2-0.5,1.9
			c0,0.2,0,0.4,0.1,0.6c0,0.1,0.1,0.2,0.1,0.4c0.1,0.2,0.2,0.4,0.3,0.6c0,0.1,0.1,0.2,0.2,0.2c0.4,0.5,1,0.9,1.7,1.1
			c7.3,2.2,13.5,5.3,18.7,8.8c0,0,0.1,0,0.1,0.1c24.3,16.6,28,44.1,28,44.4l0.2,1.8l0.3,2.2l0,0l1.5-1.4l2.7-2.5l3.1-3l18.1-17
			l3.8-3.6l6.6-6.2L302.6,170.1z M291.7,177.6L291.7,177.6L271,197c-2.5-10.7-12.4-41.3-47.6-52.6c0.5-0.3,1.2-0.7,2.3-1.1
			c15.6-5.8,43.8-1.9,72.6,28.1L291.7,177.6z"/>
	</g>
	<path d="M326.1,191.5c-6.7,9.8-17.9,15-30.7,15v0c-7.2,0-15-1.7-22.8-5.1c-0.1-0.1-0.2-0.1-0.4-0.2c-0.6-0.5-0.9-1.2-0.8-2
		c0-0.2,0.1-0.3,0.1-0.4c0.3-0.7,0.9-1.1,1.6-1.2c0.4,0,0.7,0,1.1,0.2c0.4,0.2,0.8,0.3,1.2,0.5c19.3,8,38.2,4.5,47.3-9
		c8.7-12.7,11.4-24.3,9.1-38.5c0-0.1-0.1-0.2-0.1-0.4c0-0.1,0-0.2,0-0.3c-0.1-0.3-0.1-0.7-0.2-1c-0.2-1.1,0.5-2.1,1.6-2.3
		c1.1-0.2,2.1,0.5,2.3,1.6c0.1,0.3,0.1,0.6,0.2,1C338.5,164.8,335.6,177.5,326.1,191.5z"/>
	<path d="M315.5,162.9c-1,7.2-3.5,12.4-7.5,15.5c-3.4,2.7-7.1,3.4-10.1,3.4h0c-1.8,0-3.4-0.3-4.4-0.5c-0.7-0.2-1.1-0.3-1.2-0.3
		c-0.3-0.1-0.6-0.3-0.8-0.5c-0.5-0.5-0.7-1.3-0.4-2c0.1-0.3,0.3-0.6,0.5-0.8l0.1-0.1c0.5-0.5,1.3-0.7,2-0.4c0,0,0.4,0.1,1.1,0.3
		c0.6,0.1,1.5,0.3,2.6,0.3c2.4,0.1,5.6-0.3,8.3-2.5c5.2-4.1,7.2-13.4,6.1-26.8c0-0.3-0.1-0.6-0.1-1c-0.1-1.1,0.7-2.1,1.8-2.2
		c0.4,0,0.8,0,1.1,0.2c0.1,0.1,0.2,0.1,0.3,0.2c0.4,0.3,0.7,0.8,0.8,1.4c0,0.6,0.1,1.1,0.1,1.7c0.1,0.6,0.1,1.3,0.1,1.9
		C316.2,155.2,316,159.3,315.5,162.9z"/>
	<g>
		<path d="M343.9,144c-2.9,2.3-5.7,3.9-8.3,5.2c-1.3,0.6-2.6,1.1-3.8,1.5c-0.1,0-0.2,0.1-0.2,0.1c-2.9,0.9-5.6,1.3-7.9,1.3l0,0
			c-3.2,0-5.9-0.7-7.8-1.4c-0.8-0.3-1.4-0.6-2-0.9c-0.1,0-0.2-0.1-0.2-0.1c-0.7-0.4-1.3-0.8-1.9-1.2c-4.5-3.2-7.2-8-6.9-12.6
			c0.2-3.3,0.4-6.2,0.5-8.1c0-0.9-0.1-1.8-0.5-2.7c-0.2-0.5-0.5-1-0.9-1.6c-0.8-1.4-1.6-2.8-1.8-4.1c-0.5-3.6,2-8.2,5.7-10.5
			c3.6-2.2,7.7-2,11.3,0.5c5.1,3.5,5.3,7.8,5.5,10.3c0,0.5,0.1,1.1,0.1,1.4c1.9-1.2,6.1-4.3,10.2-10.5c5.6-8.5,13.6-10.5,17.1-9.5
			c0.3,0.1,0.6,0.2,0.8,0.3c1,0.6,1.3,1.8,0.7,2.7s-1.8,1.3-2.7,0.7c-0.6-0.2-2.5-0.1-4.9,1c-2.4,1.1-5.2,3.2-7.7,6.9
			c-4.6,7.1-9.6,10.6-11.5,11.8c-1.3,0.8-2.8,0.9-4.1,0.1c-1.9-1.1-2-3.1-2.1-4.8c-0.1-2.4-0.2-4.8-3.7-7.2
			c-2.4-1.6-4.7-1.8-6.9-0.4c-2.5,1.6-4.2,4.8-3.9,6.5c0.1,0.6,0.8,1.8,1.3,2.7c0.4,0.6,0.7,1.3,1,1.9c0.7,1.4,1,3,0.9,4.5
			c-0.1,1.9-0.2,4.9-0.5,8.2c-0.2,3.3,2.1,7.1,5.8,9.4c0.1,0.1,0.2,0.1,0.3,0.2c0.2,0.1,0.5,0.3,0.7,0.4c3.4,1.8,12.8,5,26-5.2
			c13.4-10.4,17.6-18,17.1-21.7c-0.1-0.8-0.5-1.3-1-1.5c-1.5-0.3-7.1,4.1-10.1,6.4c-3.4,2.7-6.4,5-8.6,5.7c-1,0.4-2.2-0.2-2.5-1.2
			c-0.4-1,0.2-2.2,1.2-2.5c1.5-0.5,4.5-2.9,7.4-5.1c6.1-4.8,10.2-7.8,13.3-7.2c0.2,0,0.5,0.1,0.7,0.2c1.1,0.4,2,1.2,2.6,2.2
			c0.5,0.7,0.8,1.6,0.9,2.5C363.1,122.3,361.4,130.5,343.9,144z"/>
		<path class="st3" d="M358.6,119.1c0.5,3.7-3.7,11.3-17.1,21.7c-13.2,10.2-22.6,7.1-26,5.2c-0.2-0.1-0.5-0.3-0.7-0.4
			c-0.1-0.1-0.2-0.1-0.3-0.2c-3.7-2.4-6-6.1-5.8-9.4c0.2-3.4,0.4-6.3,0.5-8.2c0.1-1.6-0.2-3.1-0.9-4.5c-0.3-0.6-0.7-1.2-1-1.9
			c-0.5-0.9-1.2-2.1-1.3-2.7c-0.3-1.8,1.4-4.9,3.9-6.5c2.2-1.4,4.6-1.3,6.9,0.4c3.5,2.4,3.6,4.9,3.7,7.2c0.1,1.6,0.2,3.7,2.1,4.8
			c1.2,0.7,2.8,0.7,4.1-0.1c1.9-1.2,6.9-4.7,11.5-11.8c2.4-3.7,5.3-5.8,7.7-6.9c-0.6,0.8-1.2,1.8-1.7,2.7c-3,6.2-7.1,10.6-9.4,11.2
			c-1.1,0.3-1.7,1.4-1.4,2.5c0.2,0.9,1,1.4,1.9,1.4v0c0.2,0,0.4,0,0.6-0.1c4.4-1.3,9.1-7.6,11.9-13.3c1.5-3.1,4.4-5.5,7-5.9
			c1.5-0.2,2.7,0.3,3.7,1.4c2.1,2.4,0.8,6-0.2,8c-3.1-0.6-7.2,2.4-13.3,7.2c-2.9,2.3-5.9,4.6-7.4,5.1c-1,0.4-1.6,1.5-1.2,2.5
			c0.4,1,1.5,1.6,2.5,1.2c2.2-0.8,5.1-3.1,8.6-5.7c3-2.3,8.6-6.7,10.1-6.4C358.1,117.8,358.5,118.4,358.6,119.1z"/>
		<path d="M361.7,116.1c-0.4,0.8-0.7,1.2-0.8,1.3c-0.6,0.9-1.9,1.1-2.8,0.5c-0.9-0.6-1.1-1.9-0.5-2.8c0,0,0.4-0.6,0.8-1.4
			c1-2,2.3-5.6,0.2-8c-1-1.1-2.2-1.6-3.7-1.4c-2.6,0.4-5.5,2.8-7,5.9c-2.8,5.7-7.5,12.1-11.9,13.3c-0.2,0-0.4,0.1-0.6,0.1v0
			c-0.9,0-1.7-0.6-1.9-1.4c-0.3-1.1,0.3-2.2,1.4-2.5c2.3-0.7,6.4-5,9.4-11.2c0.5-1,1-1.9,1.7-2.7c1.7-2.2,3.9-3.9,6.1-4.8
			c0.8-0.3,1.5-0.5,2.3-0.6c2.8-0.4,5.4,0.6,7.3,2.7C365.5,107.5,363.1,113.5,361.7,116.1z"/>
	</g>
	<path class="st3" d="M322.8,189.2c-9.2,13.5-28.1,17.1-47.3,9l18.1-17c1,0.2,2.6,0.5,4.4,0.5h0c3,0,6.7-0.7,10.1-3.4
		c4-3.2,6.5-8.4,7.5-15.5c1.3-1.8,3.1-5.3,8.2-6.2c5.4-1,7.4-4.4,8-5.9c0.1,0,0.2-0.1,0.2-0.1C334.2,164.9,331.5,176.5,322.8,189.2z
		"/>
	<path d="M331.9,150c0,0,0,0.1-0.1,0.3c0,0.1-0.1,0.3-0.2,0.5c-0.6,1.5-2.5,4.8-8,5.9c-5.1,1-6.8,4.4-8.2,6.2
		c-0.5,0.7-1,1.1-1.5,1.1c-1.7-0.2-0.6-10.7-0.1-14.2c0.1-0.7,0.1-1.1,0.1-1.1l1.7,0.1l16,1.3L331.9,150z"/>
</g>
</svg>
