<?xml version="1.0" encoding="UTF-8"?><svg id="Calque_2" xmlns="http://www.w3.org/2000/svg" viewBox="0 0 370.86 490.54"><defs><style>.cls-1{fill:#fff;}.cls-2{fill:#5277b8;}.cls-3{fill:#bcffec;}.cls-4{fill:#ac4250;}.cls-5{fill:#35a88a;}</style></defs><g id="Calque_1-2"><path class="cls-5" d="m134.82,251.58l-85.63,209.72,135.37,15.73,134.19-16.58-87.11-213.57s-25.42,20.35-96.81,4.7Z"/><path d="m330.19,490.54c-9.52,0-21.43-.38-36.35-1.32-35.43-2.23-74.74-6.75-93.63-8.92-5.51-.63-9.5-1.09-11.39-1.27-.09,0-.89,0-1.74.01-.9,0-1.63,0-2.22-.02h-.1s0,0,0,0c-1.5-.1-2.08-.48-2.2-1.79l-.16-1.83,1.96-.33,124.48-12.73c2.62-.31,58.03-6.58,61.96,16.95.3,1.82-.25,3.52-1.59,4.94-1.68,1.77-6.03,6.34-39,6.34Zm-124.57-13.65c20.21,2.31,55.99,6.29,88.47,8.34,56.32,3.54,69.41-.85,72.21-3.78.6-.63.61-1.12.54-1.52-2.75-16.48-42.48-15.43-57.55-13.64h-.03s-103.63,10.6-103.63,10.6Z"/><path d="m40.68,490.54c-32.98,0-37.32-4.57-39-6.34-1.34-1.41-1.89-3.12-1.59-4.94,3.93-23.59,59.61-17.23,61.97-16.95l-.47,3.97c-15.08-1.8-54.81-2.84-57.56,13.64-.07.4-.05.89.54,1.52,2.79,2.94,15.88,7.33,72.21,3.78,35.33-2.23,74.57-6.74,93.42-8.91,5.54-.64,9.54-1.1,11.48-1.28l.37,3.98c-1.9.18-5.88.63-11.39,1.27-18.89,2.17-58.2,6.69-93.63,8.92-14.92.94-26.83,1.32-36.35,1.32Z"/><path class="cls-5" d="m138.58,248.58s-50.92-76.04,39.77-102.14c0,0,40.05,3.76,50.62,17.02,10.56,13.26,20.47,18.87,19.21,45.2s-7.76,35.77-28.06,46.13c-25.58,13.05-81.53-6.21-81.53-6.21Z"/><polygon class="cls-3" points="180.91 166.5 190.77 166.96 196.49 225.84 184.24 232.94 173.93 222.97 180.91 166.5"/><polygon class="cls-2" points="148.97 160.06 154.26 157.55 236.07 244.13 232.19 247.45 148.97 160.06"/><polygon class="cls-1" points="154.26 157.55 158.73 154.95 237.32 239.58 236.07 244.13 154.26 157.55"/><polygon class="cls-4" points="158.73 154.95 162.51 152.48 240.9 233.64 237.32 239.58 158.73 154.95"/><polygon class="cls-3" points="176.75 156.88 185.5 147.34 195.79 157.95 192.52 164.02 178.94 164.02 176.75 156.88"/><polygon class="cls-4" points="240.45 260.56 261.89 284.41 270.31 281.7 241.83 259.94 240.45 260.56"/><path d="m192.98,166.82h-15.23l-5.12-11.4,10.12-9.15c.84-.77,2.81-2.58,4.75-.94l.11.1,10.17,10.02-4.79,11.37Zm-12.64-4h9.99l2.7-6.42-7.43-7.32c-.05.05-.1.09-.15.14l-7.98,7.21,2.87,6.38Z"/><path d="m195.59,189.24l-18.73-19.97.59-5.91h15.54l2.6,25.88Zm-14.57-21.38l9.41,10.03-1.06-10.53h-8.3l-.05.5Z"/><path d="m185.51,236.25l-14.1-11.67,3.82-38.64,22.33,23,1.6,15.87-13.65,11.45Zm-9.91-13.4l9.9,8.19,9.47-7.95-1.24-12.37-15.37-15.82-2.76,27.96Z"/><path d="m235.33,249.28l-3.07-2.56c1.59-1.91,3.06-3.9,4.37-5.92,1.19-1.85,2.28-3.74,3.22-5.64l.07-.14c1.92-3.88,3.43-7.97,4.49-12.17,1.15-4.6,1.74-9.38,1.77-14.21.09-16.02-6.06-31.11-17.33-42.5-11.26-11.39-26.29-17.72-42.31-17.8-5.89-.03-11.67.78-17.26,2.42l-.92.27c-1.74.55-3.45,1.17-5.09,1.85l-1.53-3.7c1.72-.71,3.52-1.37,5.34-1.94l.28-.14.38-.06.41-.12c5.97-1.75,12.16-2.65,18.41-2.58,17.09.09,33.11,6.84,45.13,18.99,12.01,12.15,18.58,28.25,18.48,45.34-.03,5.14-.67,10.24-1.89,15.15-1.13,4.51-2.76,8.91-4.83,13.07l-.07.14c-1.01,2.02-2.15,4-3.4,5.94-1.39,2.16-2.96,4.28-4.65,6.32Z"/><path d="m137.2,249.43c-2.56-3.05-4.85-6.36-6.8-9.83-4.13-7.34-6.73-15.3-7.72-23.67v-.13c-.32-2.61-.46-5.25-.44-7.85.06-11.39,3.16-22.56,8.96-32.31,3.55-5.98,8.04-11.32,13.36-15.88.5-.43,1.01-.85,1.52-1.26l2.49,3.13c-.47.38-.94.77-1.4,1.16-4.98,4.28-9.19,9.29-12.52,14.89-5.44,9.14-8.34,19.61-8.4,30.29-.02,2.48.12,4.99.42,7.47v.13c.96,7.8,3.39,15.23,7.24,22.07,1.83,3.25,3.97,6.35,6.38,9.21l-3.06,2.57Z"/><g><path class="cls-1" d="m217.46,157.07l-16.4,6.34c-.33.13-.71.03-.94-.25l-12.74-15.35c-.47-.57-.04-1.42.7-1.37,5.07.37,19.19,2,29.54,9.15.56.38.47,1.23-.16,1.47Z"/><path d="m200.76,165.46c-.82,0-1.63-.36-2.18-1.02l-12.74-15.36c-.73-.88-.86-2.1-.34-3.11.52-1.01,1.59-1.61,2.72-1.53,5.63.41,19.88,2.14,30.54,9.5.87.6,1.34,1.63,1.21,2.68-.12,1.04-.81,1.93-1.79,2.3l-16.4,6.34c-.33.13-.68.19-1.02.19Zm-.42-3.92s0,0,0,0h0Zm-9.63-12.85l10.41,12.55,13.48-5.21c-8.12-4.89-18.02-6.68-23.89-7.34Z"/></g><g><path class="cls-1" d="m183.71,147.77l-1.1,1.32-6.9,8.31-3.39,4.09-9.81-10.46s-.02.01-.03.01c-3.62,1.5-7.07,3.34-10.31,5.47,2.41-1.83,5.06-3.33,7.79-4.56.01-.01.03-.02.05-.02,2.6-1.18,5.26-2.1,7.83-2.83.02-.01.05-.02.07-.02.29-.09.57-.16.85-.24,6.08-1.64,11.53-2.21,14.27-2.4.71-.05,1.13.78.68,1.33Z"/><path d="m172.41,164.51l-10.4-11.09c-3.02,1.33-5.95,2.93-8.74,4.76l-2.31-3.26c2.29-1.74,4.93-3.3,7.84-4.64l.33-.33h.43c2.31-1.03,4.84-1.94,7.55-2.72l.26-.13h.21c.12-.04.24-.07.35-.11l.28-.08c6.31-1.7,11.9-2.28,14.68-2.47,1.1-.09,2.17.51,2.69,1.51.52,1,.39,2.21-.32,3.08h-.01s-12.83,15.48-12.83,15.48Zm-6.46-12.74l6.28,6.7,8.11-9.77c-2.85.32-6.79.93-11.06,2.08l-.3.08c-.13.04-.27.07-.4.11l-.09.03-.3.08c-.76.22-1.51.45-2.24.69Z"/></g><g><path d="m199.47,146.7l-4-.02.12-24.14c0-9.32,7.35-10.83,13.26-12.04,4.35-.89,8.1-1.66,9.41-4.77.23-.55.16-.83.04-1.05-1.22-2.36-9.33-4.13-15.25-5.42-9.02-1.96-16.14-3.51-17.04-7.95-1-4.93,6.49-6.74,15.98-9.04,6.56-1.59,15.55-3.76,16.6-6.51.07-.17.26-.69-.49-1.79-1.04-1.51-2.09-2.79-3.02-3.91-2.11-2.55-3.94-4.76-3.46-7.63.72-4.29,5.73-8.22,26.79-21.04,11.5-7,15.59-17.09,10.42-25.71-7.05-11.74-32.37-19.16-66.6,1.09-19.73,11.67-28.67,30.16-26.58,54.94,1.73,20.46,10.58,39.94,15.71,49.73,2.58,4.92,4.07,10.14,4.44,15.52l.63,9.14-3.99.28-.63-9.14c-.33-4.82-1.68-9.51-4-13.94-5.27-10.06-14.36-30.09-16.15-51.24-2.23-26.45,7.37-46.2,28.53-58.72,34.45-20.39,62.84-15.07,72.06.29,5.26,8.76,3.66,21.8-11.77,31.19-16.14,9.83-24.43,15.35-24.92,18.29-.17,1.02.82,2.28,2.59,4.42.98,1.18,2.09,2.53,3.24,4.19,1.61,2.34,1.4,4.27.93,5.48-1.8,4.71-10.35,6.78-19.39,8.97-4.54,1.1-12.11,2.93-12.98,4.43.59,1.85,9.26,3.74,13.95,4.76,8.16,1.78,15.86,3.45,17.95,7.48.71,1.37.74,2.91.09,4.45-2.13,5.04-7.53,6.15-12.29,7.13-6.43,1.32-10.06,2.35-10.06,8.14l-.12,24.15Z"/><ellipse cx="221.66" cy="18.33" rx="4.32" ry="3.88"/></g><path d="m136.74,248.79c-25.88-7.93-42.61-27.28-42.61-49.29,0-29.13,29.91-52.83,66.67-52.83,1.89,0,6.21.05,8.09.18l-.26,3.99c-1.78-.12-6.04-.17-7.83-.17-34.55,0-62.67,21.91-62.67,48.83,0,20.22,15.61,38.06,39.78,45.47l-1.17,3.82Z"/><path d="m123.16,217.01c-4.55-5.13-6.96-11.19-6.96-17.51,0-9.7,5.87-18.88,15.7-24.57l2,3.46c-8.58,4.96-13.7,12.85-13.7,21.11,0,5.33,2.06,10.47,5.95,14.86l-2.99,2.65Z"/><path d="m233.25,250.27c-.71,0-1.39-.27-1.84-.75l-1.21-1.24-85.85-88.4,1.71-1.38c1.66-1.34,3.34-2.57,5.02-3.67,3.35-2.2,6.91-4.09,10.58-5.62l.35-.18h1.37s80.25,85.58,80.25,85.58l-3.26,7.51h.59l-1.93,3.07c-2.11,3.33-3.81,4.88-5.5,5.05-.09,0-.19.01-.28.01Zm1.01-3.55l.03.03s-.02-.02-.03-.03Zm-55.47-57.11l54.69,56.31c.41-.39,1.08-1.16,2.03-2.62l3.41-7.85-76.9-82.02c-3.02,1.33-5.95,2.93-8.74,4.76-.99.65-1.98,1.34-2.97,2.09l28.49,29.33Z"/><path d="m147.09,162.81l-2.64-2.92,1.36-1.34c.21-.21,5.2-5.08,13.02-8.29l.3-.3h.47c.74-.3,1.5-.57,2.27-.82l1.37,3.75c-3.46,1.43-6.81,3.21-9.98,5.29-1.57,1.03-3.15,2.18-4.7,3.44l-1.47,1.19Z"/><path d="m238.44,246.13h-4.15l6.36-14.7,3.59,3.85-.67,1.34c-.04.09-.08.19-.13.28l-.06.11c-1.57,3.36-3.04,6.13-4.37,8.2l-.59.92Z"/><path d="m267.24,301.03c-.48,0-.96-.15-1.37-.44l-15.44-11.09,2.33-3.25,11.26,8.09-3.39-10.14,7.28-1.85-33.19-26.71,2.51-3.12,35.54,28.6c.74.6,1.08,1.54.87,2.47-.2.93-.9,1.65-1.82,1.89l-6.03,1.53,3.66,10.93c.32.97-.01,2.02-.83,2.63-.41.3-.9.46-1.39.46Zm.96-3.69h0s0,0,0,0Z"/><g><path class="cls-5" d="m170.55,145.99c1.96-.59.84-2.93-3.45-4.53-18.34-6.86-48.21.23-76.17,30.06l31.44,29.48s5.1-42.05,48.18-55.01Z"/><path d="m123.88,205.15l-35.77-33.54,1.37-1.46c30.68-32.71,61.37-36.91,78.33-30.56,3.68,1.38,5.75,3.38,5.68,5.5-.04,1.32-.95,2.4-2.36,2.82h0c-41.27,12.42-46.72,52.93-46.77,53.34l-.48,3.91Zm-30.11-33.71l27.33,25.63c2.45-10.65,12.42-41.34,47.6-52.59-.49-.34-1.23-.75-2.29-1.14-15.56-5.82-43.78-1.85-72.64,28.1Z"/></g><path d="m231.63,246.88l-6.63,4.7-28.42-32.43-20.34-23.2-1.37-1.56-14.13-16.13-9.89-11.28s-.01-.01-.01-.01h-.01s-4.98-5.7-4.98-5.7l-.11-.12,1.48-1.19.09.1,29.48,30.34h0s18.85,19.42,18.85,19.42l35.99,37.06Z"/><polygon points="240.45 259.94 266.16 296.87 251.6 287.87 240.45 259.94"/><polygon points="175.65 159.3 173.51 161.78 178.35 164.82 175.65 159.3"/><polygon points="193.77 158.59 191.65 162.58 198.19 166.96 220.11 158.21 202.59 162.06 193.77 158.59"/><path d="m111.33,308.58l23.13-67.21s45.64,26.33,97.72,6.08c0,0,4.25.61,2.41,1.71-7.54,4.5-35.72,15.57-74.77,10.77-32.36-3.97-18.42,31.58-48.49,48.64Z"/><path d="m150.83,166.96s14.09,11.95,17.34,27.95c3.24,16,1.85,32.02,1.85,32.02l10.92,8.34c.46.35,1.48,1.13,2.52,1.78.89.56,2.05-.11,2.05-1.16v-2.24l-12-9.93,1.55-33.18-24.22-23.57Z"/><path d="m170.86,120.04s9.06,21.24,17.9,25.42l-13.26.88-.76-11.02-3.25-11.7-.63-3.58Z"/><path d="m97.99,188.76s11.99,3.95,16.18,17.01c4.19,13.07,4.08,12.39,6.19,18,3.72,9.87,15.84,26.13,13.89,21.23s-12.36-34.2-14.79-38.08c-2.43-3.88-1.48-10.04-3.57-12s-15.96-12.6-15.96-12.6l-1.93,6.44Z"/><g><path class="cls-5" d="m201.86,145.99c-1.96-.59-.84-2.93,3.45-4.53,18.34-6.86,48.21.23,76.17,30.06l-31.44,29.48s-5.1-42.05-48.18-55.01Z"/><path d="m248.54,205.15l-.48-3.91c-.05-.41-5.5-40.92-46.77-53.34-1.41-.42-2.31-1.51-2.36-2.82-.07-2.12,2-4.12,5.68-5.5,16.96-6.35,47.66-2.15,78.33,30.56l1.37,1.46-35.77,33.54Zm-44.82-60.68c35.18,11.24,45.15,41.93,47.6,52.59l27.33-25.63c-28.85-29.96-57.07-33.93-72.64-28.1-1.06.4-1.8.8-2.29,1.14Z"/></g><path d="m275.82,206.56c-7.25,0-15.01-1.66-22.78-5.08-1.01-.44-1.47-1.62-1.02-2.64.45-1.01,1.63-1.47,2.64-1.02,19.67,8.66,39.16,5.23,48.51-8.53,9-13.25,11.63-25.28,8.78-40.24-.21-1.08.51-2.13,1.59-2.34,1.08-.2,2.13.51,2.34,1.59,3.07,16.1.26,29.03-9.4,43.24-6.68,9.84-17.86,15.03-30.66,15.03Z"/><path d="m277.67,181.74c-2.72,0-4.76-.67-4.93-.72-1.05-.35-1.61-1.49-1.26-2.53.35-1.04,1.48-1.61,2.53-1.26.07.02,5.9,1.88,9.82-1.64,3.12-2.81,6.04-9.91,2.2-27.82-.23-1.08.46-2.14,1.54-2.38,1.08-.23,2.14.46,2.38,1.54,3.41,15.91,2.24,26.56-3.47,31.66-2.81,2.51-6.13,3.16-8.8,3.16Z"/><path d="m313.29,147.34s-2.18,8.03-9.23,9.37c-7.05,1.34-11.56,7.07-13.56,6.83s-2.33-18.25-2.33-18.25l10.45,5.04,14.68-2.99Z"/><path d="m184.55,479.03c-.07,0-.14,0-.21-.01l-135.37-14.52c-.62-.07-1.18-.42-1.5-.96-.32-.54-.37-1.2-.14-1.78l87.6-215.79c.23-.57.72-1,1.31-1.17.59-.17,1.23-.05,1.73.31.2.15,21.01,15.05,54.26,10.25,1.08-.15,2.11.6,2.27,1.69.16,1.09-.6,2.11-1.69,2.27-29.12,4.21-48.8-5.76-55.08-9.59l-85.69,211.08,130.6,14.01,6.13-156.77c.04-1.1.98-1.99,2.08-1.92,1.1.04,1.96.97,1.92,2.08l-6.21,158.91c-.02.55-.27,1.07-.69,1.44-.37.32-.83.49-1.31.49Z"/><path d="m184.55,479.03c-.5,0-.99-.19-1.37-.54-.42-.4-.66-.96-.63-1.54l6.21-158.91c.04-1.1.98-1.99,2.08-1.92,1.1.04,1.96.97,1.92,2.08l-6.12,156.6,130.12-13.91-83.8-209.32c-4.16,2.94-14.65,7.47-39.81,7.49h0c-1.1,0-2-.89-2-2s.89-2,2-2c32.79-.01,38.88-7.94,38.93-8.02.4-.64,1.1-.97,1.86-.9.75.07,1.38.58,1.66,1.28l85.86,214.46c.23.58.18,1.24-.14,1.77-.32.54-.88.89-1.5.96l-135.05,14.44c-.07,0-.14.01-.21.01Z"/><polygon points="190.76 318.12 176.75 475.95 184.55 477.04 190.76 318.12"/><polygon points="136.1 481.83 42.34 464.62 46.35 462.65 174.88 476 136.1 481.83"/><polygon points="231.11 481.83 324.88 464.62 320.86 462.65 192.34 476 231.11 481.83"/><path d="m302.1,150.67c-.71,0-1.42-.03-2.14-.09-1.43,0-10.39-.2-13.68-5.13-1.03-1.54-1.9-4.18-.26-8.05,4.01-9.45,14.58-10.49,19.6-9.73,1.09.17,1.84,1.19,1.68,2.28-.17,1.09-1.19,1.84-2.28,1.68-.46-.07-11.53-1.6-15.32,7.34-1.14,2.69-.36,3.88-.1,4.26,1.83,2.75,8.19,3.35,10.36,3.35h.07c.06,0,.12,0,.17,0,8.8.75,15.95-3.66,19.61-12.11,4.55-10.52,2.17-23.68-5.55-30.61-4.44-3.98-9.67-5.46-15.56-4.37-9.94,1.83-19.38,10.63-21.44,14.64-2.45,4.77,3.59,9.65,3.65,9.7.86.69,1.01,1.94.33,2.81-.68.86-1.94,1.01-2.8.33-.36-.28-8.69-6.97-4.73-14.67,2.5-4.87,12.75-14.62,24.27-16.74,7.17-1.32,13.55.47,18.96,5.33,9.09,8.16,11.84,22.95,6.55,35.17-4.01,9.27-11.91,14.61-21.4,14.61Z"/><path d="m287.15,142.76c-.16,0-.32-.02-.48-.06-1.02-.25-9.99-2.64-11.67-8.94-.96-3.6.7-7.47,4.93-11.51,13.63-13.01,26.21-10.15,26.75-10.02,1.07.26,1.73,1.34,1.47,2.41-.26,1.08-1.35,1.73-2.41,1.47-.44-.1-11.08-2.39-23.04,9.03-2.13,2.03-4.52,4.99-3.83,7.58.9,3.42,6.63,5.56,8.77,6.09,1.07.27,1.72,1.35,1.46,2.42-.23.91-1.04,1.52-1.94,1.52Z"/><path d="m283.88,106.12c-1.11,0-3.54-.28-5.84-2.39-3.34-3.08-4.89-8.65-4.59-16.56.31-8.21,7.31-12.39,14.13-12.33,6.2.08,12.92,3.91,13.02,12.13.03,2.42,0,10.19,0,10.52,0,1.1-.9,1.99-2,1.99h0c-1.1,0-2-.9-1.99-2.01,0-.08.03-8.07,0-10.46-.06-5.57-4.6-8.12-9.07-8.18-4.7-.02-9.85,2.57-10.08,8.48-.31,8.23,1.58,11.83,3.22,13.39,1.6,1.53,3.27,1.41,3.34,1.4,1.1-.09,2.07.7,2.18,1.79s-.65,2.06-1.73,2.19c-.08,0-.28.03-.58.03Z"/></g></svg>