<svg width="169" height="142" viewBox="0 0 169 142" fill="none" xmlns="http://www.w3.org/2000/svg">
<g clip-path="url(#clip0_395_2597)">
<path d="M90.2662 141.997C86.3791 141.997 82.2121 141.46 78.118 140.931C73.4604 140.333 69.0634 139.766 65.6056 140.099C60.5838 140.586 53.2351 137.278 46.1317 134.077C39.864 131.255 33.3778 128.334 29.9239 128.89C26.7613 129.396 21.4903 126.694 14.2489 120.855C8.7211 116.397 3.73761 111.475 2.34224 110.072C2.2004 109.93 2.02406 109.796 1.84006 109.654L1.79789 109.623C0.858692 108.91 0 107.185 0 106.012V92.7292C0 91.215 0.782023 89.4976 1.90139 88.5507C2.59141 87.9681 3.3466 87.7265 4.08646 87.8492C6.6587 88.2824 9.21561 89.4669 12.1789 90.8355C16.1618 92.6755 21.1185 94.9679 28.1873 96.4055C31.1314 97.0035 34.7502 97.0457 38.5837 97.0917C42.2868 97.1377 46.1164 97.1798 49.9038 97.705C50.7932 97.7165 63.3746 97.9197 75.8256 99.3764C79.4291 99.7981 82.929 100.446 86.3178 101.075C91.7996 102.09 96.5301 102.968 99.8537 102.527C102.963 102.113 106.294 102.324 109.821 102.547C115.69 102.915 121.758 103.298 127.397 100.802C137.759 96.2176 145.311 94.4658 151.973 92.9209C156.899 91.7785 161.154 90.7933 165.521 88.8727C166.084 88.6274 166.705 88.6772 167.227 89.0184C167.844 89.4209 168.227 90.1761 168.227 90.9926V105.035C168.227 106.3 167.92 106.763 167.338 107.545C167.023 107.963 166.598 108.535 166.046 109.543C163.853 113.403 160.702 116.661 156.93 118.977C151.851 122.097 142.317 127.955 135.578 132.118C129.804 135.683 122.513 136.362 115.46 137.017C109.736 137.55 104.335 138.052 100.295 140.068C97.4041 141.514 93.9578 141.997 90.2586 142.001L90.2662 141.997ZM67.8559 138.466C70.984 138.466 74.5683 138.926 78.3135 139.409C86.0801 140.41 94.1112 141.445 99.616 138.692C103.909 136.546 109.453 136.032 115.322 135.484C122.195 134.843 129.306 134.184 134.773 130.807C141.516 126.644 151.049 120.786 156.129 117.666C159.678 115.485 162.646 112.418 164.708 108.791C165.306 107.699 165.77 107.074 166.111 106.622C166.583 105.993 166.694 105.843 166.694 105.031V90.9888C166.694 90.6246 166.529 90.3908 166.387 90.2988C166.276 90.226 166.195 90.2451 166.138 90.272C161.641 92.25 157.321 93.2505 152.318 94.4121C145.721 95.9416 138.242 97.6743 128.014 102.202C122.03 104.851 115.774 104.456 109.721 104.072C106.271 103.854 103.016 103.651 100.053 104.046C96.4879 104.521 91.6424 103.624 86.0341 102.581C82.6722 101.956 79.1991 101.312 75.6454 100.898C62.8724 99.4071 49.9613 99.2384 49.831 99.2384L49.7352 99.2307C46.0282 98.7132 42.2293 98.6672 38.5607 98.625C34.6544 98.579 30.9628 98.533 27.8768 97.9082C20.6316 96.4361 15.583 94.1016 11.531 92.227C8.66743 90.9045 6.19485 89.7621 3.82578 89.3596C3.4731 89.2983 3.12043 89.5206 2.88659 89.7199C2.11223 90.3755 1.52955 91.6673 1.52955 92.7254V106.008C1.52955 106.702 2.1659 107.975 2.72175 108.4L2.76392 108.431C2.98242 108.596 3.21243 108.768 3.4271 108.987C10.6302 116.224 24.2581 128.242 29.6786 127.372C33.5887 126.747 39.9867 129.626 46.7604 132.674C53.6836 135.79 60.8407 139.014 65.46 138.57C66.2228 138.497 67.024 138.462 67.8559 138.462V138.466Z" fill="#59A78D"/>
<path d="M2.90919 89.7006L1.9585 88.4969C2.06967 88.4087 4.76075 86.3118 13.3553 82.9997C13.8422 82.7812 20.1022 80.0135 30.9509 77.9051C41.1363 75.927 57.4285 74.2135 77.1861 77.2802L76.9523 78.7944C57.44 75.766 41.3587 77.4527 31.3035 79.4001C20.4012 81.5124 14.0377 84.3759 13.9725 84.4066L13.9304 84.4258C5.60027 87.6344 2.93986 89.6814 2.91303 89.7006H2.90919Z" fill="#59A78D"/>
<path d="M166.502 90.3716C162.791 88.5085 158.287 88.7807 158.241 88.7845L158.137 87.255C158.337 87.2396 163.098 86.9445 167.192 89.003L166.506 90.3716H166.502Z" fill="#59A78D"/>
<path d="M110.38 136.76C112.182 137.297 129.843 134.161 132.116 133.376C134.389 132.59 156.393 119.299 159.475 116.213C162.553 113.127 167.464 106.392 167.464 106.392C167.464 106.392 167.464 99.323 166.847 101.788C166.717 102.309 166.502 102.995 166.249 103.754C165.053 107.304 163.489 110.49 158.425 112.445C157.7 112.725 155.542 115.151 155.044 116.343C153.208 120.748 148.492 120.714 144.414 123.738C140.335 126.763 135.965 123.102 134.684 126.951C133.607 130.186 130.855 131.528 125.818 132.616C124.863 132.823 117.978 132.321 117.081 132.505C113.508 133.234 112.285 132.843 111.779 132.839C111.365 132.835 110.311 132.708 109.092 132.54C104.952 131.972 100.735 132.444 96.8328 133.939C93.4402 135.239 90.1128 136.626 90.1128 136.626C86.931 138.616 80.6327 138.144 77.2707 138.378C73.6865 138.631 70.9379 134.238 66.7288 133.962C65.5404 133.885 61.4386 137.205 54.1321 135.055C50.7586 134.062 48.9876 132.041 48.0599 130.155C47.1667 128.338 45.2844 127.161 43.2642 127.273C40.9872 127.399 38.9899 126.061 31.9594 125.942C27.0372 125.858 24.4267 123.846 23.0389 121.783C21.6627 119.732 19.5122 118.314 17.0664 117.977C9.21936 116.892 0.766602 105.234 0.766602 105.234V107.132C0.766602 107.132 18.619 123.225 22.0154 126.008C25.4118 128.791 31.1544 128.062 33.2666 128.331C35.3788 128.599 60.5492 140.18 64.0032 139.363C67.461 138.547 92.4819 141.617 93.9846 141.487C95.4873 141.357 98.4544 139.601 98.4544 139.601L110.38 136.764V136.76Z" fill="#59A78D"/>
<path d="M101.943 104.958C103.61 104.674 102.817 104.409 109.211 104.513C109.253 104.513 112.174 105.379 114.183 106.238C117.074 107.472 117.396 107.426 119.937 105.579C121.175 104.678 123.533 103.62 128.03 102.891C129.532 102.65 131.062 102.688 132.568 102.922C133.902 103.129 135.731 103.102 136.827 101.787C138.71 99.5332 142.24 96.8421 145.709 97.5398C149.183 98.2414 153.315 93.9211 156.692 93.4764C160.073 93.0355 163.539 94.6801 165.145 92.3493C165.145 92.3493 167.441 89.4513 165.831 89.5663C164.221 89.6813 154.595 93.3154 147.76 94.8373C140.929 96.3553 124.196 104.651 117.173 104.133C110.15 103.62 101.303 103.236 101.303 103.236C96.2962 103.578 74.4264 100.998 71.973 99.7249C69.5196 98.4522 43.249 98.1187 43.249 98.1187C38.5952 98.0267 28.7892 98.3372 23.7866 96.3055C18.7839 94.2737 5.37451 89.0909 5.37451 89.0909V89.6314C5.37451 89.6314 7.96592 92.0542 10.5842 94.2699C13.2024 96.4895 14.7511 94.7682 17.2505 95.9835C19.7499 97.2025 22.8474 99.7824 26.2975 99.5026C29.7514 99.2227 32.454 102.186 35.6281 103.543C38.3767 104.72 39.3427 102.343 41.6581 101.964C42.5896 101.81 43.5097 101.592 44.4067 101.308C46.4077 100.676 55.2362 102.726 61.3467 103.999C70.6543 105.939 72.0344 103.19 78.6164 102.976C85.1946 102.761 83.1015 105.08 91.4009 105.218C99.7004 105.356 101.935 104.942 101.935 104.942L101.943 104.958Z" fill="#59A78D"/>
<path d="M164.444 91.3523C164.444 91.3523 166.43 91.7433 166.629 94.0663C167.07 99.138 167.215 89.2017 167.215 89.2017L164.444 91.3523Z" fill="#59A78D"/>
<path d="M5.37858 89.4629C5.37858 89.4629 1.26913 89.1409 1.16946 101.791L0.759277 91.6863C0.759277 91.6863 2.33099 87.78 4.38572 87.8835C6.44045 87.9832 5.37475 89.4629 5.37475 89.4629H5.37858Z" fill="#59A78D"/>
<path d="M19.7003 108.791C16.0892 108.641 10.1397 105.498 9.88672 105.364L10.0669 105.027C10.1282 105.057 16.1927 108.262 19.7157 108.408L19.7003 108.791Z" fill="#59A78D"/>
<path d="M11.2166 105.816C11.2166 105.816 10.5688 106.897 11.7687 107.847C12.9685 108.798 12.9647 108.166 14.0649 108.798C15.1651 109.431 15.2686 110.006 16.7368 110.006C18.205 110.006 18.4427 108.445 18.4427 108.445C18.4427 108.445 12.8957 106.897 11.2166 105.816Z" fill="#59A78D"/>
<path d="M33.3166 106.392C29.7054 106.242 23.7559 103.099 23.5029 102.964L23.6831 102.627C23.7444 102.658 29.809 105.863 33.3319 106.008L33.3166 106.392Z" fill="#59A78D"/>
<path d="M24.8328 103.416C24.8328 103.416 24.185 104.263 25.3849 105.015C26.5809 105.762 26.5042 106.211 27.6006 106.713C28.697 107.211 28.8848 106.713 30.353 106.713C31.8212 106.713 32.5687 106.203 32.5687 106.203C32.5687 106.203 26.5272 104.716 24.8328 103.42V103.416Z" fill="#59A78D"/>
<path d="M54.9905 115.385C52.0388 115.385 50.5476 114.771 49.8384 114.296L50.0531 113.978C51.0689 114.656 53.7753 115.626 60.4954 114.461L60.5605 114.84C58.2873 115.235 56.4587 115.385 54.9905 115.385Z" fill="#59A78D"/>
<path d="M51.2608 114.664C51.2608 114.664 50.9273 115.38 52.2844 115.764C53.6414 116.147 53.4574 116.856 54.6496 117.029C55.1978 117.109 55.9913 115.511 56.4973 115.66C57.4595 115.948 58.5137 115.756 59.2804 115.108C59.4376 114.974 59.5142 114.886 59.5142 114.886C59.5142 114.886 53.2504 115.434 51.2608 114.664Z" fill="#59A78D"/>
<path d="M91.0833 114.43C87.7099 114.43 83.8803 113.648 83.6694 113.602L83.7461 113.226C83.8151 113.242 90.5313 114.614 93.9546 113.767L94.0466 114.139C93.1956 114.35 92.1605 114.43 91.0833 114.43Z" fill="#59A78D"/>
<path d="M85.0718 113.664C85.0718 113.664 84.6884 114.66 86.0493 115.044C87.4102 115.427 87.414 116.358 88.61 116.527C89.8022 116.7 89.8866 115.688 91.2934 115.277C92.7003 114.867 93.2792 114.166 93.2792 114.166C93.2792 114.166 87.0651 114.434 85.0718 113.664Z" fill="#59A78D"/>
<path d="M124.35 110.592C122.701 110.592 121.463 110.508 121.344 110.496L121.371 110.113C121.44 110.117 128.283 110.588 131.564 109.293L131.706 109.649C129.747 110.42 126.654 110.588 124.353 110.588L124.35 110.592Z" fill="#59A78D"/>
<path d="M122.743 110.374C122.743 110.374 122.494 111.413 123.893 111.613C125.293 111.812 126.201 112.487 127.405 112.498C128.612 112.51 127.78 111.747 129.122 111.152C130.464 110.558 130.943 109.788 130.943 109.788C130.943 109.788 124.817 110.876 122.743 110.378V110.374Z" fill="#59A78D"/>
<path d="M108.567 121.495C106.919 121.495 105.677 121.411 105.558 121.399L105.585 121.016C105.654 121.02 112.497 121.491 115.778 120.196L115.92 120.552C113.961 121.323 110.867 121.491 108.567 121.491V121.495Z" fill="#59A78D"/>
<path d="M106.957 121.277C106.957 121.277 106.267 121.798 107.662 121.997C109.057 122.197 109.303 122.254 110.507 122.266C111.714 122.277 112.657 122.983 113.999 122.388C115.341 121.794 115.156 120.686 115.156 120.686C115.156 120.686 109.031 121.775 106.957 121.277Z" fill="#59A78D"/>
<path d="M135.141 117.431L135.11 117.048C135.19 117.04 143.118 116.377 146.189 114.637L146.376 114.97C143.233 116.749 135.466 117.404 135.141 117.431Z" fill="#59A78D"/>
<path d="M136.505 117.114C136.505 117.114 136.486 118.743 137.896 118.747C139.307 118.75 138.813 117.397 140.009 117.244C141.205 117.091 141.684 117.773 142.93 116.995C144.176 116.217 145.64 115.208 145.64 115.208C145.64 115.208 138.629 117.321 136.505 117.117V117.114Z" fill="#59A78D"/>
<path d="M147.653 104.371C147.653 104.371 147.553 105.433 148.964 105.437C150.375 105.437 150.302 106.606 151.498 106.449C152.694 106.292 152.832 105.027 154.078 104.252C155.324 103.478 155.692 102.646 155.692 102.646C155.692 102.646 149.777 104.574 147.653 104.371Z" fill="#59A78D"/>
<path d="M116.728 89.2092C101.494 76.9805 83.849 77.2335 71.7314 79.5988C58.552 82.171 48.8918 87.7103 48.7959 87.764L48.0254 86.4376C48.1251 86.3801 58.0077 80.7143 71.4363 78.0922C83.872 75.6656 101.993 75.4165 117.687 88.0132L116.728 89.2092Z" fill="#59A78D"/>
<path d="M160.453 91.7009C156.198 87.1889 151.164 83.5011 145.495 80.741L146.165 79.361C152.004 82.2054 157.187 86.0044 161.568 90.6505L160.453 91.7047V91.7009Z" fill="#59A78D"/>
<path d="M86.6479 78.2878L86.1802 76.8273C86.3488 76.7736 103.174 71.4643 122.314 73.0935L122.184 74.623C103.362 73.0207 86.8127 78.2342 86.6479 78.2878Z" fill="#59A78D"/>
<path d="M36.54 78.4642L35.7427 77.1532C36.0992 76.9385 44.6094 71.8209 59.2456 68.6928C72.7316 65.8138 94.1223 64.2076 119.446 72.9172L118.948 74.3663C93.9881 65.7793 72.9156 67.3472 59.6366 70.1763C45.2343 73.2431 36.6282 78.4106 36.5439 78.4604L36.54 78.4642Z" fill="#59A78D"/>
<path d="M23.7447 80.224L23.5146 70.0156L28.226 63.7095L33.474 70.1421L33.8765 78.5488L32.3469 78.6216L31.9674 70.7209L28.2796 66.2013L25.0595 70.5101L25.278 80.1895L23.7447 80.224Z" fill="#59A78D"/>
<path d="M28.2262 63.7058L24.5653 64.4802L21.2148 69.5634V80.4273L24.5921 79.814L24.2586 70.1499L28.2262 63.7058Z" fill="#59A78D"/>
<path d="M36.4561 78.0466L35.9194 59.2972L38.4687 48L42.6471 59.4505L42.9385 75.3478L36.4561 78.0427V78.0466ZM37.4566 59.4467L37.9243 75.7772L41.3859 74.3396L41.1176 59.7419L38.8175 53.432L37.4566 59.4505V59.4467Z" fill="#59A78D"/>
<path d="M36.0344 59.0019L34.1177 63.1075L34.5087 77.5749L37.5256 77.2951L36.0344 59.0019Z" fill="#59A78D"/>
<path d="M34.685 67.9648L32.6495 65.1702L31.0279 67.8038L29.7207 66.9988L32.5421 62.4216L35.9232 67.0601L34.685 67.9648Z" fill="#59A78D"/>
<path d="M13.8582 82.8381L13.7969 77.5825L21.6478 73.1702L22.3991 74.5042L15.3379 78.4718L15.3916 82.8228L13.8582 82.8381Z" fill="#59A78D"/>
<path d="M13.8423 77.5598L11.9141 79.4229L11.9179 84.115L14.8543 82.8116L13.8423 77.5598Z" fill="#59A78D"/>
<path d="M47.3696 72.1549L47.109 67.9726L44.713 65.5383L42.7465 66.9759L41.8418 65.7377L44.8779 63.5181L48.604 67.3055L48.903 72.059L47.3696 72.1549Z" fill="#59A78D"/>
<path d="M52.4031 70.5019L51.8817 65.8251L49.252 62.6203L46.8101 66.3541L45.5259 65.5145L49.114 60.0327L53.3576 65.204L53.925 70.3294L52.4031 70.5019Z" fill="#59A78D"/>
<path d="M49.0987 60.0825L45.1196 64.1306L46.0857 65.5145L49.0987 60.0825Z" fill="#59A78D"/>
<path d="M121.797 85.7018L121.237 64.7098L134.083 55.0764L146.288 63.6671L147.017 80.6685L145.483 80.7337L144.79 64.4875L134.11 56.9701L122.789 65.4612L123.33 85.6635L121.797 85.7018Z" fill="#59A78D"/>
<path d="M134.078 55.0764L123.751 55.6092L113.362 63.3451L113.634 83.1641L121.842 85.7171L121.531 67.6271L122.034 64.9705L134.078 55.0764Z" fill="#59A78D"/>
<path d="M145.352 67.5384L122.1 70.5129L122.294 72.0339L145.546 69.0594L145.352 67.5384Z" fill="#59A78D"/>
<path d="M126.76 62.1434L125.227 62.1774L125.41 70.4173L126.943 70.3833L126.76 62.1434Z" fill="#59A78D"/>
<path d="M141.317 60.6296L139.787 60.7299L140.291 68.4187L141.821 68.3184L141.317 60.6296Z" fill="#59A78D"/>
<path d="M130.375 59.4247L128.843 59.4849L129.255 69.9651L130.787 69.9049L130.375 59.4247Z" fill="#59A78D"/>
<path d="M136.819 57.5667L135.287 57.64L135.847 69.3416L137.379 69.2683L136.819 57.5667Z" fill="#59A78D"/>
<path d="M133.98 56.8651L132.447 56.8887L132.644 69.6832L134.177 69.6597L133.98 56.8651Z" fill="#59A78D"/>
<path d="M145.754 63.8065L121.907 65.6833L122.028 67.2119L145.875 65.3351L145.754 63.8065Z" fill="#59A78D"/>
<path d="M125.273 85.7251L121.838 85.6369L121.877 84.1036L123.732 84.1534L123.671 70.9932L125.204 70.9855L125.273 85.7251Z" fill="#59A78D"/>
<path d="M146.472 81.2203L143.294 80.8561L142.497 68.6465L144.027 68.5469L144.74 79.4799L146.645 79.6984L146.472 81.2203Z" fill="#59A78D"/>
<path d="M53.3346 77.0496L52.4146 75.8229C52.4836 75.7692 59.4489 70.5634 66.3146 67.4736L66.9433 68.8728C60.2386 71.8898 53.4036 76.9959 53.3346 77.0496Z" fill="#59A78D"/>
<path d="M61.044 77.1644L60.0166 76.0258C60.2964 75.7767 66.9015 69.8463 73.7979 66.7412L74.4265 68.1404C67.7487 71.1458 61.1091 77.103 61.044 77.1644Z" fill="#59A78D"/>
<path d="M68.7341 77.2953L67.6377 76.2219C67.906 75.9497 74.2504 69.5134 81.1659 66.4006L81.7946 67.7998C75.1436 70.7937 68.7954 77.2301 68.7302 77.2953H68.7341Z" fill="#59A78D"/>
<path d="M75.5609 78.1994L74.4492 77.1452C74.7291 76.8501 81.4069 69.8578 88.3301 66.7451L88.9588 68.1443C82.3155 71.1344 75.6261 78.1343 75.5609 78.2033V78.1994Z" fill="#59A78D"/>
<path d="M84.2326 78.0886L83.0825 77.0728C83.3164 76.8083 88.8787 70.5483 95.8172 67.4278L96.4459 68.827C89.8179 71.8095 84.2901 78.0235 84.2326 78.0886Z" fill="#59A78D"/>
<path d="M91.5426 76.9727L90.5957 75.7652C90.8104 75.5965 95.9434 71.5982 102.817 68.5046L103.445 69.9038C96.7522 72.9169 91.5924 76.9305 91.5426 76.9727Z" fill="#59A78D"/>
<path d="M102.763 75.0025L102.571 73.4806C102.636 73.4691 104.262 73.2007 110.783 70.2682L111.411 71.6674C104.634 74.7188 102.935 74.9833 102.763 75.0025Z" fill="#59A78D"/>
<path d="M45.396 77.3221L44.4683 76.103C44.7404 75.896 51.1231 71.0429 52.9402 70.1957L53.588 71.5834C52.2042 72.2312 47.2053 75.9459 45.396 77.3221Z" fill="#59A78D"/>
<path d="M55.3971 86.4534H53.8638V89.2671H55.3971V86.4534Z" fill="#59A78D"/>
<path d="M53.9251 86.8939C54.4692 86.8939 54.9103 86.4529 54.9103 85.9087C54.9103 85.3646 54.4692 84.9236 53.9251 84.9236C53.381 84.9236 52.9399 85.3646 52.9399 85.9087C52.9399 86.4529 53.381 86.8939 53.9251 86.8939Z" fill="#59A78D"/>
<path d="M55.4588 86.8939C56.0029 86.8939 56.444 86.4529 56.444 85.9087C56.444 85.3646 56.0029 84.9236 55.4588 84.9236C54.9147 84.9236 54.4736 85.3646 54.4736 85.9087C54.4736 86.4529 54.9147 86.8939 55.4588 86.8939Z" fill="#59A78D"/>
<path d="M53.9251 85.3611C54.4692 85.3611 54.9103 84.92 54.9103 84.3759C54.9103 83.8318 54.4692 83.3907 53.9251 83.3907C53.381 83.3907 52.9399 83.8318 52.9399 84.3759C52.9399 84.92 53.381 85.3611 53.9251 85.3611Z" fill="#59A78D"/>
<path d="M55.4588 85.744C56.0029 85.744 56.444 85.3029 56.444 84.7588C56.444 84.2147 56.0029 83.7736 55.4588 83.7736C54.9147 83.7736 54.4736 84.2147 54.4736 84.7588C54.4736 85.3029 54.9147 85.744 55.4588 85.744Z" fill="#59A78D"/>
<path d="M54.6922 84.2104C55.2363 84.2104 55.6774 83.7693 55.6774 83.2252C55.6774 82.6811 55.2363 82.24 54.6922 82.24C54.1481 82.24 53.707 82.6811 53.707 83.2252C53.707 83.7693 54.1481 84.2104 54.6922 84.2104Z" fill="#59A78D"/>
<path d="M60.2355 84.4981H58.7021V87.3119H60.2355V84.4981Z" fill="#59A78D"/>
<path d="M58.7669 84.935C59.311 84.935 59.7521 84.4939 59.7521 83.9498C59.7521 83.4057 59.311 82.9646 58.7669 82.9646C58.2228 82.9646 57.7817 83.4057 57.7817 83.9498C57.7817 84.4939 58.2228 84.935 58.7669 84.935Z" fill="#59A78D"/>
<path d="M60.3006 84.935C60.8447 84.935 61.2858 84.4939 61.2858 83.9498C61.2858 83.4057 60.8447 82.9646 60.3006 82.9646C59.7565 82.9646 59.3154 83.4057 59.3154 83.9498C59.3154 84.4939 59.7565 84.935 60.3006 84.935Z" fill="#59A78D"/>
<path d="M58.7669 83.4014C59.311 83.4014 59.7521 82.9603 59.7521 82.4162C59.7521 81.8721 59.311 81.431 58.7669 81.431C58.2228 81.431 57.7817 81.8721 57.7817 82.4162C57.7817 82.9603 58.2228 83.4014 58.7669 83.4014Z" fill="#59A78D"/>
<path d="M60.3006 83.7851C60.8447 83.7851 61.2858 83.344 61.2858 82.7999C61.2858 82.2558 60.8447 81.8147 60.3006 81.8147C59.7565 81.8147 59.3154 82.2558 59.3154 82.7999C59.3154 83.344 59.7565 83.7851 60.3006 83.7851Z" fill="#59A78D"/>
<path d="M59.534 82.2514C60.0781 82.2514 60.5192 81.8103 60.5192 81.2662C60.5192 80.7221 60.0781 80.281 59.534 80.281C58.9899 80.281 58.5488 80.7221 58.5488 81.2662C58.5488 81.8103 58.9899 82.2514 59.534 82.2514Z" fill="#59A78D"/>
<path d="M65.111 83.2338H63.5776V86.0475H65.111V83.2338Z" fill="#59A78D"/>
<path d="M63.6434 83.6707C64.1875 83.6707 64.6286 83.2296 64.6286 82.6855C64.6286 82.1414 64.1875 81.7003 63.6434 81.7003C63.0993 81.7003 62.6582 82.1414 62.6582 82.6855C62.6582 83.2296 63.0993 83.6707 63.6434 83.6707Z" fill="#59A78D"/>
<path d="M65.1766 83.6707C65.7207 83.6707 66.1618 83.2296 66.1618 82.6855C66.1618 82.1414 65.7207 81.7003 65.1766 81.7003C64.6325 81.7003 64.1914 82.1414 64.1914 82.6855C64.1914 83.2296 64.6325 83.6707 65.1766 83.6707Z" fill="#59A78D"/>
<path d="M63.6434 82.1371C64.1875 82.1371 64.6286 81.696 64.6286 81.1519C64.6286 80.6078 64.1875 80.1667 63.6434 80.1667C63.0993 80.1667 62.6582 80.6078 62.6582 81.1519C62.6582 81.696 63.0993 82.1371 63.6434 82.1371Z" fill="#59A78D"/>
<path d="M65.1766 82.5207C65.7207 82.5207 66.1618 82.0796 66.1618 81.5355C66.1618 80.9914 65.7207 80.5503 65.1766 80.5503C64.6325 80.5503 64.1914 80.9914 64.1914 81.5355C64.1914 82.0796 64.6325 82.5207 65.1766 82.5207Z" fill="#59A78D"/>
<path d="M64.4095 80.9871C64.9536 80.9871 65.3947 80.546 65.3947 80.0019C65.3947 79.4577 64.9536 79.0167 64.4095 79.0167C63.8654 79.0167 63.4243 79.4577 63.4243 80.0019C63.4243 80.546 63.8654 80.9871 64.4095 80.9871Z" fill="#59A78D"/>
<path d="M69.8488 81.5157H68.3154V84.3295H69.8488V81.5157Z" fill="#59A78D"/>
<path d="M68.3807 81.957C68.9248 81.957 69.3659 81.5159 69.3659 80.9718C69.3659 80.4277 68.9248 79.9866 68.3807 79.9866C67.8366 79.9866 67.3955 80.4277 67.3955 80.9718C67.3955 81.5159 67.8366 81.957 68.3807 81.957Z" fill="#59A78D"/>
<path d="M69.9139 81.957C70.458 81.957 70.8991 81.5159 70.8991 80.9718C70.8991 80.4277 70.458 79.9866 69.9139 79.9866C69.3698 79.9866 68.9287 80.4277 68.9287 80.9718C68.9287 81.5159 69.3698 81.957 69.9139 81.957Z" fill="#59A78D"/>
<path d="M68.3807 80.4235C68.9248 80.4235 69.3659 79.9824 69.3659 79.4383C69.3659 78.8942 68.9248 78.4531 68.3807 78.4531C67.8366 78.4531 67.3955 78.8942 67.3955 79.4383C67.3955 79.9824 67.8366 80.4235 68.3807 80.4235Z" fill="#59A78D"/>
<path d="M69.9139 80.8064C70.458 80.8064 70.8991 80.3653 70.8991 79.8212C70.8991 79.2771 70.458 78.836 69.9139 78.836C69.3698 78.836 68.9287 79.2771 68.9287 79.8212C68.9287 80.3653 69.3698 80.8064 69.9139 80.8064Z" fill="#59A78D"/>
<path d="M69.1478 79.2736C69.6919 79.2736 70.133 78.8325 70.133 78.2884C70.133 77.7442 69.6919 77.3032 69.1478 77.3032C68.6037 77.3032 68.1626 77.7442 68.1626 78.2884C68.1626 78.8325 68.6037 79.2736 69.1478 79.2736Z" fill="#59A78D"/>
<path d="M79.9767 78.7718H78.4434V81.5855H79.9767V78.7718Z" fill="#59A78D"/>
<path d="M78.5047 79.2086C79.0488 79.2086 79.4899 78.7675 79.4899 78.2234C79.4899 77.6792 79.0488 77.2382 78.5047 77.2382C77.9606 77.2382 77.5195 77.6792 77.5195 78.2234C77.5195 78.7675 77.9606 79.2086 78.5047 79.2086Z" fill="#59A78D"/>
<path d="M80.0384 79.2086C80.5825 79.2086 81.0236 78.7675 81.0236 78.2234C81.0236 77.6792 80.5825 77.2382 80.0384 77.2382C79.4943 77.2382 79.0532 77.6792 79.0532 78.2234C79.0532 78.7675 79.4943 79.2086 80.0384 79.2086Z" fill="#59A78D"/>
<path d="M78.5047 77.6749C79.0488 77.6749 79.4899 77.2338 79.4899 76.6897C79.4899 76.1456 79.0488 75.7045 78.5047 75.7045C77.9606 75.7045 77.5195 76.1456 77.5195 76.6897C77.5195 77.2338 77.9606 77.6749 78.5047 77.6749Z" fill="#59A78D"/>
<path d="M80.0384 78.0577C80.5825 78.0577 81.0236 77.6166 81.0236 77.0725C81.0236 76.5284 80.5825 76.0873 80.0384 76.0873C79.4943 76.0873 79.0532 76.5284 79.0532 77.0725C79.0532 77.6166 79.4943 78.0577 80.0384 78.0577Z" fill="#59A78D"/>
<path d="M79.2713 76.5249C79.8154 76.5249 80.2565 76.0838 80.2565 75.5397C80.2565 74.9956 79.8154 74.5545 79.2713 74.5545C78.7272 74.5545 78.2861 74.9956 78.2861 75.5397C78.2861 76.0838 78.7272 76.5249 79.2713 76.5249Z" fill="#59A78D"/>
<path d="M90.3473 78.2186H88.814V81.0323H90.3473V78.2186Z" fill="#59A78D"/>
<path d="M88.8748 78.66C89.419 78.66 89.86 78.2189 89.86 77.6748C89.86 77.1307 89.419 76.6896 88.8748 76.6896C88.3307 76.6896 87.8896 77.1307 87.8896 77.6748C87.8896 78.2189 88.3307 78.66 88.8748 78.66Z" fill="#59A78D"/>
<path d="M90.4081 78.66C90.9522 78.66 91.3932 78.2189 91.3932 77.6748C91.3932 77.1307 90.9522 76.6896 90.4081 76.6896C89.8639 76.6896 89.4229 77.1307 89.4229 77.6748C89.4229 78.2189 89.8639 78.66 90.4081 78.66Z" fill="#59A78D"/>
<path d="M88.8748 77.1272C89.419 77.1272 89.86 76.6861 89.86 76.142C89.86 75.5979 89.419 75.1568 88.8748 75.1568C88.3307 75.1568 87.8896 75.5979 87.8896 76.142C87.8896 76.6861 88.3307 77.1272 88.8748 77.1272Z" fill="#59A78D"/>
<path d="M90.4081 77.51C90.9522 77.51 91.3932 77.0689 91.3932 76.5248C91.3932 75.9807 90.9522 75.5396 90.4081 75.5396C89.8639 75.5396 89.4229 75.9807 89.4229 76.5248C89.4229 77.0689 89.8639 77.51 90.4081 77.51Z" fill="#59A78D"/>
<path d="M89.6414 75.9764C90.1856 75.9764 90.6266 75.5353 90.6266 74.9912C90.6266 74.4471 90.1856 74.006 89.6414 74.006C89.0973 74.006 88.6562 74.4471 88.6562 74.9912C88.6562 75.5353 89.0973 75.9764 89.6414 75.9764Z" fill="#59A78D"/>
<path d="M99.5773 80.1429H98.0439V82.9567H99.5773V80.1429Z" fill="#59A78D"/>
<path d="M98.1097 80.5798C98.6538 80.5798 99.0949 80.1387 99.0949 79.5946C99.0949 79.0505 98.6538 78.6094 98.1097 78.6094C97.5656 78.6094 97.1245 79.0505 97.1245 79.5946C97.1245 80.1387 97.5656 80.5798 98.1097 80.5798Z" fill="#59A78D"/>
<path d="M99.6429 80.5798C100.187 80.5798 100.628 80.1387 100.628 79.5946C100.628 79.0505 100.187 78.6094 99.6429 78.6094C99.0988 78.6094 98.6577 79.0505 98.6577 79.5946C98.6577 80.1387 99.0988 80.5798 99.6429 80.5798Z" fill="#59A78D"/>
<path d="M98.1097 79.047C98.6538 79.047 99.0949 78.6059 99.0949 78.0618C99.0949 77.5177 98.6538 77.0766 98.1097 77.0766C97.5656 77.0766 97.1245 77.5177 97.1245 78.0618C97.1245 78.6059 97.5656 79.047 98.1097 79.047Z" fill="#59A78D"/>
<path d="M99.6429 79.4298C100.187 79.4298 100.628 78.9887 100.628 78.4446C100.628 77.9005 100.187 77.4594 99.6429 77.4594C99.0988 77.4594 98.6577 77.9005 98.6577 78.4446C98.6577 78.9887 99.0988 79.4298 99.6429 79.4298Z" fill="#59A78D"/>
<path d="M98.8763 77.8969C99.4204 77.8969 99.8615 77.4558 99.8615 76.9117C99.8615 76.3676 99.4204 75.9265 98.8763 75.9265C98.3322 75.9265 97.8911 76.3676 97.8911 76.9117C97.8911 77.4558 98.3322 77.8969 98.8763 77.8969Z" fill="#59A78D"/>
<path d="M104.148 82.5134H102.614V85.3272H104.148V82.5134Z" fill="#59A78D"/>
<path d="M102.675 82.9504C103.219 82.9504 103.66 82.5093 103.66 81.9652C103.66 81.4211 103.219 80.98 102.675 80.98C102.131 80.98 101.69 81.4211 101.69 81.9652C101.69 82.5093 102.131 82.9504 102.675 82.9504Z" fill="#59A78D"/>
<path d="M104.209 82.9504C104.753 82.9504 105.194 82.5093 105.194 81.9652C105.194 81.4211 104.753 80.98 104.209 80.98C103.665 80.98 103.224 81.4211 103.224 81.9652C103.224 82.5093 103.665 82.9504 104.209 82.9504Z" fill="#59A78D"/>
<path d="M102.675 81.4174C103.219 81.4174 103.66 80.9763 103.66 80.4322C103.66 79.888 103.219 79.447 102.675 79.447C102.131 79.447 101.69 79.888 101.69 80.4322C101.69 80.9763 102.131 81.4174 102.675 81.4174Z" fill="#59A78D"/>
<path d="M104.209 81.8003C104.753 81.8003 105.194 81.3593 105.194 80.8152C105.194 80.271 104.753 79.83 104.209 79.83C103.665 79.83 103.224 80.271 103.224 80.8152C103.224 81.3593 103.665 81.8003 104.209 81.8003Z" fill="#59A78D"/>
<path d="M103.442 80.2667C103.986 80.2667 104.427 79.8256 104.427 79.2815C104.427 78.7374 103.986 78.2963 103.442 78.2963C102.898 78.2963 102.457 78.7374 102.457 79.2815C102.457 79.8256 102.898 80.2667 103.442 80.2667Z" fill="#59A78D"/>
<path d="M108.778 84.4324H107.245V87.2462H108.778V84.4324Z" fill="#59A78D"/>
<path d="M107.31 84.8738C107.854 84.8738 108.295 84.4327 108.295 83.8886C108.295 83.3445 107.854 82.9034 107.31 82.9034C106.766 82.9034 106.325 83.3445 106.325 83.8886C106.325 84.4327 106.766 84.8738 107.31 84.8738Z" fill="#59A78D"/>
<path d="M108.843 84.8738C109.387 84.8738 109.828 84.4327 109.828 83.8886C109.828 83.3445 109.387 82.9034 108.843 82.9034C108.299 82.9034 107.858 83.3445 107.858 83.8886C107.858 84.4327 108.299 84.8738 108.843 84.8738Z" fill="#59A78D"/>
<path d="M107.31 83.3401C107.854 83.3401 108.295 82.8991 108.295 82.3549C108.295 81.8108 107.854 81.3698 107.31 81.3698C106.766 81.3698 106.325 81.8108 106.325 82.3549C106.325 82.8991 106.766 83.3401 107.31 83.3401Z" fill="#59A78D"/>
<path d="M108.843 83.7237C109.387 83.7237 109.828 83.2827 109.828 82.7386C109.828 82.1944 109.387 81.7534 108.843 81.7534C108.299 81.7534 107.858 82.1944 107.858 82.7386C107.858 83.2827 108.299 83.7237 108.843 83.7237Z" fill="#59A78D"/>
<path d="M108.077 82.1901C108.621 82.1901 109.062 81.749 109.062 81.2049C109.062 80.6608 108.621 80.2197 108.077 80.2197C107.532 80.2197 107.091 80.6608 107.091 81.2049C107.091 81.749 107.532 82.1901 108.077 82.1901Z" fill="#59A78D"/>
<path d="M113.21 87.2164H111.676V90.0302H113.21V87.2164Z" fill="#59A78D"/>
<path d="M111.738 87.6532C112.282 87.6532 112.723 87.2121 112.723 86.668C112.723 86.1239 112.282 85.6828 111.738 85.6828C111.194 85.6828 110.752 86.1239 110.752 86.668C110.752 87.2121 111.194 87.6532 111.738 87.6532Z" fill="#59A78D"/>
<path d="M113.271 87.6532C113.815 87.6532 114.256 87.2121 114.256 86.668C114.256 86.1239 113.815 85.6828 113.271 85.6828C112.727 85.6828 112.286 86.1239 112.286 86.668C112.286 87.2121 112.727 87.6532 113.271 87.6532Z" fill="#59A78D"/>
<path d="M111.738 86.1197C112.282 86.1197 112.723 85.6787 112.723 85.1345C112.723 84.5904 112.282 84.1494 111.738 84.1494C111.194 84.1494 110.752 84.5904 110.752 85.1345C110.752 85.6787 111.194 86.1197 111.738 86.1197Z" fill="#59A78D"/>
<path d="M113.271 86.5033C113.815 86.5033 114.256 86.0622 114.256 85.5181C114.256 84.974 113.815 84.5329 113.271 84.5329C112.727 84.5329 112.286 84.974 112.286 85.5181C112.286 86.0622 112.727 86.5033 113.271 86.5033Z" fill="#59A78D"/>
<path d="M112.504 84.9697C113.048 84.9697 113.489 84.5286 113.489 83.9845C113.489 83.4404 113.048 82.9993 112.504 82.9993C111.96 82.9993 111.519 83.4404 111.519 83.9845C111.519 84.5286 111.96 84.9697 112.504 84.9697Z" fill="#59A78D"/>
<path d="M68.2355 86.3931H66.7021V89.2068H68.2355V86.3931Z" fill="#59A78D"/>
<path d="M66.7674 86.8299C67.3115 86.8299 67.7526 86.3888 67.7526 85.8447C67.7526 85.3006 67.3115 84.8595 66.7674 84.8595C66.2233 84.8595 65.7822 85.3006 65.7822 85.8447C65.7822 86.3888 66.2233 86.8299 66.7674 86.8299Z" fill="#59A78D"/>
<path d="M68.3006 86.8299C68.8447 86.8299 69.2858 86.3888 69.2858 85.8447C69.2858 85.3006 68.8447 84.8595 68.3006 84.8595C67.7565 84.8595 67.3154 85.3006 67.3154 85.8447C67.3154 86.3888 67.7565 86.8299 68.3006 86.8299Z" fill="#59A78D"/>
<path d="M66.7674 85.2962C67.3115 85.2962 67.7526 84.8551 67.7526 84.311C67.7526 83.7669 67.3115 83.3258 66.7674 83.3258C66.2233 83.3258 65.7822 83.7669 65.7822 84.311C65.7822 84.8551 66.2233 85.2962 66.7674 85.2962Z" fill="#59A78D"/>
<path d="M68.3006 85.679C68.8447 85.679 69.2858 85.238 69.2858 84.6938C69.2858 84.1497 68.8447 83.7086 68.3006 83.7086C67.7565 83.7086 67.3154 84.1497 67.3154 84.6938C67.3154 85.238 67.7565 85.679 68.3006 85.679Z" fill="#59A78D"/>
<path d="M67.534 84.1462C68.0781 84.1462 68.5192 83.7051 68.5192 83.161C68.5192 82.6169 68.0781 82.1758 67.534 82.1758C66.9899 82.1758 66.5488 82.6169 66.5488 83.161C66.5488 83.7051 66.9899 84.1462 67.534 84.1462Z" fill="#59A78D"/>
<path d="M73.1071 85.2195H71.5737V88.0332H73.1071V85.2195Z" fill="#59A78D"/>
<path d="M71.639 85.6563C72.1831 85.6563 72.6242 85.2152 72.6242 84.6711C72.6242 84.127 72.1831 83.6859 71.639 83.6859C71.0949 83.6859 70.6538 84.127 70.6538 84.6711C70.6538 85.2152 71.0949 85.6563 71.639 85.6563Z" fill="#59A78D"/>
<path d="M73.1722 85.6563C73.7163 85.6563 74.1574 85.2152 74.1574 84.6711C74.1574 84.127 73.7163 83.6859 73.1722 83.6859C72.6281 83.6859 72.187 84.127 72.187 84.6711C72.187 85.2152 72.6281 85.6563 73.1722 85.6563Z" fill="#59A78D"/>
<path d="M71.639 84.1227C72.1831 84.1227 72.6242 83.6816 72.6242 83.1375C72.6242 82.5934 72.1831 82.1523 71.639 82.1523C71.0949 82.1523 70.6538 82.5934 70.6538 83.1375C70.6538 83.6816 71.0949 84.1227 71.639 84.1227Z" fill="#59A78D"/>
<path d="M73.1722 84.5063C73.7163 84.5063 74.1574 84.0652 74.1574 83.5211C74.1574 82.977 73.7163 82.5359 73.1722 82.5359C72.6281 82.5359 72.187 82.977 72.187 83.5211C72.187 84.0652 72.6281 84.5063 73.1722 84.5063Z" fill="#59A78D"/>
<path d="M72.4056 82.9727C72.9497 82.9727 73.3908 82.5316 73.3908 81.9875C73.3908 81.4433 72.9497 81.0023 72.4056 81.0023C71.8615 81.0023 71.4204 81.4433 71.4204 81.9875C71.4204 82.5316 71.8615 82.9727 72.4056 82.9727Z" fill="#59A78D"/>
<path d="M77.9841 83.605H76.4507V86.4188H77.9841V83.605Z" fill="#59A78D"/>
<path d="M76.5121 84.0418C77.0562 84.0418 77.4972 83.6007 77.4972 83.0566C77.4972 82.5125 77.0562 82.0714 76.5121 82.0714C75.9679 82.0714 75.5269 82.5125 75.5269 83.0566C75.5269 83.6007 75.9679 84.0418 76.5121 84.0418Z" fill="#59A78D"/>
<path d="M78.0453 84.0418C78.5894 84.0418 79.0305 83.6007 79.0305 83.0566C79.0305 82.5125 78.5894 82.0714 78.0453 82.0714C77.5011 82.0714 77.0601 82.5125 77.0601 83.0566C77.0601 83.6007 77.5011 84.0418 78.0453 84.0418Z" fill="#59A78D"/>
<path d="M76.5121 82.5082C77.0562 82.5082 77.4972 82.0671 77.4972 81.523C77.4972 80.9789 77.0562 80.5378 76.5121 80.5378C75.9679 80.5378 75.5269 80.9789 75.5269 81.523C75.5269 82.0671 75.9679 82.5082 76.5121 82.5082Z" fill="#59A78D"/>
<path d="M78.0453 82.8917C78.5894 82.8917 79.0305 82.4507 79.0305 81.9066C79.0305 81.3624 78.5894 80.9214 78.0453 80.9214C77.5011 80.9214 77.0601 81.3624 77.0601 81.9066C77.0601 82.4507 77.5011 82.8917 78.0453 82.8917Z" fill="#59A78D"/>
<path d="M77.2791 81.3583C77.8233 81.3583 78.2643 80.9172 78.2643 80.3731C78.2643 79.829 77.8233 79.3879 77.2791 79.3879C76.735 79.3879 76.2939 79.829 76.2939 80.3731C76.2939 80.9172 76.735 81.3583 77.2791 81.3583Z" fill="#59A78D"/>
<path d="M82.9636 83.0567H81.4302V85.8705H82.9636V83.0567Z" fill="#59A78D"/>
<path d="M81.4915 83.4935C82.0357 83.4935 82.4767 83.0524 82.4767 82.5083C82.4767 81.9642 82.0357 81.5231 81.4915 81.5231C80.9474 81.5231 80.5063 81.9642 80.5063 82.5083C80.5063 83.0524 80.9474 83.4935 81.4915 83.4935Z" fill="#59A78D"/>
<path d="M83.0247 83.4935C83.5689 83.4935 84.0099 83.0524 84.0099 82.5083C84.0099 81.9642 83.5689 81.5231 83.0247 81.5231C82.4806 81.5231 82.0396 81.9642 82.0396 82.5083C82.0396 83.0524 82.4806 83.4935 83.0247 83.4935Z" fill="#59A78D"/>
<path d="M81.4915 81.9606C82.0357 81.9606 82.4767 81.5195 82.4767 80.9754C82.4767 80.4313 82.0357 79.9902 81.4915 79.9902C80.9474 79.9902 80.5063 80.4313 80.5063 80.9754C80.5063 81.5195 80.9474 81.9606 81.4915 81.9606Z" fill="#59A78D"/>
<path d="M83.0247 82.3434C83.5689 82.3434 84.0099 81.9024 84.0099 81.3582C84.0099 80.8141 83.5689 80.373 83.0247 80.373C82.4806 80.373 82.0396 80.8141 82.0396 81.3582C82.0396 81.9024 82.4806 82.3434 83.0247 82.3434Z" fill="#59A78D"/>
<path d="M82.2581 80.8106C82.8023 80.8106 83.2433 80.3695 83.2433 79.8254C83.2433 79.2813 82.8023 78.8402 82.2581 78.8402C81.714 78.8402 81.2729 79.2813 81.2729 79.8254C81.2729 80.3695 81.714 80.8106 82.2581 80.8106Z" fill="#59A78D"/>
<path d="M87.5637 82.3362H86.0303V85.1499H87.5637V82.3362Z" fill="#59A78D"/>
<path d="M86.0916 82.7729C86.6357 82.7729 87.0768 82.3318 87.0768 81.7877C87.0768 81.2436 86.6357 80.8025 86.0916 80.8025C85.5475 80.8025 85.1064 81.2436 85.1064 81.7877C85.1064 82.3318 85.5475 82.7729 86.0916 82.7729Z" fill="#59A78D"/>
<path d="M87.6248 82.7729C88.169 82.7729 88.61 82.3318 88.61 81.7877C88.61 81.2436 88.169 80.8025 87.6248 80.8025C87.0807 80.8025 86.6396 81.2436 86.6396 81.7877C86.6396 82.3318 87.0807 82.7729 87.6248 82.7729Z" fill="#59A78D"/>
<path d="M86.0916 81.2403C86.6357 81.2403 87.0768 80.7992 87.0768 80.2551C87.0768 79.711 86.6357 79.2699 86.0916 79.2699C85.5475 79.2699 85.1064 79.711 85.1064 80.2551C85.1064 80.7992 85.5475 81.2403 86.0916 81.2403Z" fill="#59A78D"/>
<path d="M87.6248 81.6238C88.169 81.6238 88.61 81.1827 88.61 80.6386C88.61 80.0945 88.169 79.6534 87.6248 79.6534C87.0807 79.6534 86.6396 80.0945 86.6396 80.6386C86.6396 81.1827 87.0807 81.6238 87.6248 81.6238Z" fill="#59A78D"/>
<path d="M86.8582 80.0902C87.4023 80.0902 87.8434 79.6491 87.8434 79.105C87.8434 78.5609 87.4023 78.1198 86.8582 78.1198C86.3141 78.1198 85.873 78.5609 85.873 79.105C85.873 79.6491 86.3141 80.0902 86.8582 80.0902Z" fill="#59A78D"/>
<path d="M93.2258 83.4322H91.6924V86.2459H93.2258V83.4322Z" fill="#59A78D"/>
<path d="M91.7577 83.8737C92.3018 83.8737 92.7429 83.4326 92.7429 82.8885C92.7429 82.3443 92.3018 81.9033 91.7577 81.9033C91.2135 81.9033 90.7725 82.3443 90.7725 82.8885C90.7725 83.4326 91.2135 83.8737 91.7577 83.8737Z" fill="#59A78D"/>
<path d="M93.2909 83.8737C93.835 83.8737 94.2761 83.4326 94.2761 82.8885C94.2761 82.3443 93.835 81.9033 93.2909 81.9033C92.7467 81.9033 92.3057 82.3443 92.3057 82.8885C92.3057 83.4326 92.7467 83.8737 93.2909 83.8737Z" fill="#59A78D"/>
<path d="M91.7577 82.3408C92.3018 82.3408 92.7429 81.8997 92.7429 81.3556C92.7429 80.8115 92.3018 80.3704 91.7577 80.3704C91.2135 80.3704 90.7725 80.8115 90.7725 81.3556C90.7725 81.8997 91.2135 82.3408 91.7577 82.3408Z" fill="#59A78D"/>
<path d="M93.2909 82.7236C93.835 82.7236 94.2761 82.2825 94.2761 81.7384C94.2761 81.1943 93.835 80.7532 93.2909 80.7532C92.7467 80.7532 92.3057 81.1943 92.3057 81.7384C92.3057 82.2825 92.7467 82.7236 93.2909 82.7236Z" fill="#59A78D"/>
<path d="M92.5243 81.19C93.0684 81.19 93.5095 80.7489 93.5095 80.2048C93.5095 79.6607 93.0684 79.2196 92.5243 79.2196C91.9801 79.2196 91.5391 79.6607 91.5391 80.2048C91.5391 80.7489 91.9801 81.19 92.5243 81.19Z" fill="#59A78D"/>
<path d="M97.7575 84.4981H96.2241V87.3119H97.7575V84.4981Z" fill="#59A78D"/>
<path d="M96.2889 84.935C96.833 84.935 97.2741 84.4939 97.2741 83.9498C97.2741 83.4057 96.833 82.9646 96.2889 82.9646C95.7448 82.9646 95.3037 83.4057 95.3037 83.9498C95.3037 84.4939 95.7448 84.935 96.2889 84.935Z" fill="#59A78D"/>
<path d="M97.8221 84.935C98.3662 84.935 98.8073 84.4939 98.8073 83.9498C98.8073 83.4057 98.3662 82.9646 97.8221 82.9646C97.278 82.9646 96.8369 83.4057 96.8369 83.9498C96.8369 84.4939 97.278 84.935 97.8221 84.935Z" fill="#59A78D"/>
<path d="M96.2889 83.4014C96.833 83.4014 97.2741 82.9603 97.2741 82.4162C97.2741 81.8721 96.833 81.431 96.2889 81.431C95.7448 81.431 95.3037 81.8721 95.3037 82.4162C95.3037 82.9603 95.7448 83.4014 96.2889 83.4014Z" fill="#59A78D"/>
<path d="M97.8221 83.7851C98.3662 83.7851 98.8073 83.344 98.8073 82.7999C98.8073 82.2558 98.3662 81.8147 97.8221 81.8147C97.278 81.8147 96.8369 82.2558 96.8369 82.7999C96.8369 83.344 97.278 83.7851 97.8221 83.7851Z" fill="#59A78D"/>
<path d="M97.0555 82.2514C97.5996 82.2514 98.0407 81.8103 98.0407 81.2662C98.0407 80.7221 97.5996 80.281 97.0555 80.281C96.5114 80.281 96.0703 80.7221 96.0703 81.2662C96.0703 81.8103 96.5114 82.2514 97.0555 82.2514Z" fill="#59A78D"/>
<path d="M102.46 86.0777H100.927V88.8914H102.46V86.0777Z" fill="#59A78D"/>
<path d="M100.992 86.5145C101.536 86.5145 101.977 86.0734 101.977 85.5293C101.977 84.9852 101.536 84.5441 100.992 84.5441C100.448 84.5441 100.007 84.9852 100.007 85.5293C100.007 86.0734 100.448 86.5145 100.992 86.5145Z" fill="#59A78D"/>
<path d="M102.525 86.5145C103.069 86.5145 103.51 86.0734 103.51 85.5293C103.51 84.9852 103.069 84.5441 102.525 84.5441C101.981 84.5441 101.54 84.9852 101.54 85.5293C101.54 86.0734 101.981 86.5145 102.525 86.5145Z" fill="#59A78D"/>
<path d="M100.992 84.9809C101.536 84.9809 101.977 84.5398 101.977 83.9957C101.977 83.4516 101.536 83.0105 100.992 83.0105C100.448 83.0105 100.007 83.4516 100.007 83.9957C100.007 84.5398 100.448 84.9809 100.992 84.9809Z" fill="#59A78D"/>
<path d="M102.525 85.3646C103.069 85.3646 103.51 84.9235 103.51 84.3794C103.51 83.8353 103.069 83.3942 102.525 83.3942C101.981 83.3942 101.54 83.8353 101.54 84.3794C101.54 84.9235 101.981 85.3646 102.525 85.3646Z" fill="#59A78D"/>
<path d="M101.759 83.8309C102.303 83.8309 102.744 83.3898 102.744 82.8457C102.744 82.3016 102.303 81.8605 101.759 81.8605C101.215 81.8605 100.773 82.3016 100.773 82.8457C100.773 83.3898 101.215 83.8309 101.759 83.8309Z" fill="#59A78D"/>
<path d="M106.754 88.2399H105.221V91.0536H106.754V88.2399Z" fill="#59A78D"/>
<path d="M105.282 88.6766C105.826 88.6766 106.267 88.2355 106.267 87.6914C106.267 87.1473 105.826 86.7062 105.282 86.7062C104.737 86.7062 104.296 87.1473 104.296 87.6914C104.296 88.2355 104.737 88.6766 105.282 88.6766Z" fill="#59A78D"/>
<path d="M106.815 88.6766C107.359 88.6766 107.8 88.2355 107.8 87.6914C107.8 87.1473 107.359 86.7062 106.815 86.7062C106.271 86.7062 105.83 87.1473 105.83 87.6914C105.83 88.2355 106.271 88.6766 106.815 88.6766Z" fill="#59A78D"/>
<path d="M105.282 87.1432C105.826 87.1432 106.267 86.7021 106.267 86.158C106.267 85.6139 105.826 85.1728 105.282 85.1728C104.737 85.1728 104.296 85.6139 104.296 86.158C104.296 86.7021 104.737 87.1432 105.282 87.1432Z" fill="#59A78D"/>
<path d="M106.815 87.5267C107.359 87.5267 107.8 87.0856 107.8 86.5415C107.8 85.9974 107.359 85.5563 106.815 85.5563C106.271 85.5563 105.83 85.9974 105.83 86.5415C105.83 87.0856 106.271 87.5267 106.815 87.5267Z" fill="#59A78D"/>
<path d="M106.049 85.9932C106.593 85.9932 107.034 85.5521 107.034 85.008C107.034 84.4639 106.593 84.0228 106.049 84.0228C105.505 84.0228 105.063 84.4639 105.063 85.008C105.063 85.5521 105.505 85.9932 106.049 85.9932Z" fill="#59A78D"/>
<path d="M66.1725 92.2225H64.6392V95.0362H66.1725V92.2225Z" fill="#59A78D"/>
<path d="M64.7044 92.66C65.2485 92.66 65.6896 92.2189 65.6896 91.6748C65.6896 91.1307 65.2485 90.6896 64.7044 90.6896C64.1603 90.6896 63.7192 91.1307 63.7192 91.6748C63.7192 92.2189 64.1603 92.66 64.7044 92.66Z" fill="#59A78D"/>
<path d="M66.2376 92.66C66.7817 92.66 67.2228 92.2189 67.2228 91.6748C67.2228 91.1307 66.7817 90.6896 66.2376 90.6896C65.6935 90.6896 65.2524 91.1307 65.2524 91.6748C65.2524 92.2189 65.6935 92.66 66.2376 92.66Z" fill="#59A78D"/>
<path d="M64.7044 91.1264C65.2485 91.1264 65.6896 90.6853 65.6896 90.1412C65.6896 89.5971 65.2485 89.156 64.7044 89.156C64.1603 89.156 63.7192 89.5971 63.7192 90.1412C63.7192 90.6853 64.1603 91.1264 64.7044 91.1264Z" fill="#59A78D"/>
<path d="M66.2376 91.5093C66.7817 91.5093 67.2228 91.0682 67.2228 90.5241C67.2228 89.98 66.7817 89.5389 66.2376 89.5389C65.6935 89.5389 65.2524 89.98 65.2524 90.5241C65.2524 91.0682 65.6935 91.5093 66.2376 91.5093Z" fill="#59A78D"/>
<path d="M65.471 89.9757C66.0151 89.9757 66.4562 89.5346 66.4562 88.9905C66.4562 88.4464 66.0151 88.0053 65.471 88.0053C64.9269 88.0053 64.4858 88.4464 64.4858 88.9905C64.4858 89.5346 64.9269 89.9757 65.471 89.9757Z" fill="#59A78D"/>
<path d="M61.8141 92.9431H60.2808V95.7568H61.8141V92.9431Z" fill="#59A78D"/>
<path d="M60.3465 93.3798C60.8906 93.3798 61.3317 92.9387 61.3317 92.3946C61.3317 91.8505 60.8906 91.4094 60.3465 91.4094C59.8024 91.4094 59.3613 91.8505 59.3613 92.3946C59.3613 92.9387 59.8024 93.3798 60.3465 93.3798Z" fill="#59A78D"/>
<path d="M61.8802 93.3798C62.4243 93.3798 62.8654 92.9387 62.8654 92.3946C62.8654 91.8505 62.4243 91.4094 61.8802 91.4094C61.3361 91.4094 60.895 91.8505 60.895 92.3946C60.895 92.9387 61.3361 93.3798 61.8802 93.3798Z" fill="#59A78D"/>
<path d="M60.3465 91.847C60.8906 91.847 61.3317 91.4059 61.3317 90.8618C61.3317 90.3177 60.8906 89.8766 60.3465 89.8766C59.8024 89.8766 59.3613 90.3177 59.3613 90.8618C59.3613 91.4059 59.8024 91.847 60.3465 91.847Z" fill="#59A78D"/>
<path d="M61.8802 92.2305C62.4243 92.2305 62.8654 91.7894 62.8654 91.2453C62.8654 90.7012 62.4243 90.2601 61.8802 90.2601C61.3361 90.2601 60.895 90.7012 60.895 91.2453C60.895 91.7894 61.3361 92.2305 61.8802 92.2305Z" fill="#59A78D"/>
<path d="M61.1131 90.697C61.6572 90.697 62.0983 90.256 62.0983 89.7119C62.0983 89.1677 61.6572 88.7267 61.1131 88.7267C60.569 88.7267 60.1279 89.1677 60.1279 89.7119C60.1279 90.256 60.569 90.697 61.1131 90.697Z" fill="#59A78D"/>
<path d="M69.197 96.2043H67.6636V99.018H69.197V96.2043Z" fill="#59A78D"/>
<path d="M67.7245 96.641C68.2686 96.641 68.7097 96.1999 68.7097 95.6558C68.7097 95.1117 68.2686 94.6706 67.7245 94.6706C67.1803 94.6706 66.7393 95.1117 66.7393 95.6558C66.7393 96.1999 67.1803 96.641 67.7245 96.641Z" fill="#59A78D"/>
<path d="M69.2581 96.641C69.8023 96.641 70.2433 96.1999 70.2433 95.6558C70.2433 95.1117 69.8023 94.6706 69.2581 94.6706C68.714 94.6706 68.2729 95.1117 68.2729 95.6558C68.2729 96.1999 68.714 96.641 69.2581 96.641Z" fill="#59A78D"/>
<path d="M67.7245 95.1082C68.2686 95.1082 68.7097 94.6671 68.7097 94.123C68.7097 93.5789 68.2686 93.1378 67.7245 93.1378C67.1803 93.1378 66.7393 93.5789 66.7393 94.123C66.7393 94.6671 67.1803 95.1082 67.7245 95.1082Z" fill="#59A78D"/>
<path d="M69.2581 95.4917C69.8023 95.4917 70.2433 95.0506 70.2433 94.5065C70.2433 93.9624 69.8023 93.5213 69.2581 93.5213C68.714 93.5213 68.2729 93.9624 68.2729 94.5065C68.2729 95.0506 68.714 95.4917 69.2581 95.4917Z" fill="#59A78D"/>
<path d="M68.4915 93.9582C69.0357 93.9582 69.4767 93.5171 69.4767 92.973C69.4767 92.4288 69.0357 91.9878 68.4915 91.9878C67.9474 91.9878 67.5063 92.4288 67.5063 92.973C67.5063 93.5171 67.9474 93.9582 68.4915 93.9582Z" fill="#59A78D"/>
<path d="M73.3146 93.2498H71.7812V96.0635H73.3146V93.2498Z" fill="#59A78D"/>
<path d="M71.8465 93.6912C72.3906 93.6912 72.8317 93.2501 72.8317 92.706C72.8317 92.1619 72.3906 91.7208 71.8465 91.7208C71.3024 91.7208 70.8613 92.1619 70.8613 92.706C70.8613 93.2501 71.3024 93.6912 71.8465 93.6912Z" fill="#59A78D"/>
<path d="M73.3797 93.6912C73.9238 93.6912 74.3649 93.2501 74.3649 92.706C74.3649 92.1619 73.9238 91.7208 73.3797 91.7208C72.8356 91.7208 72.3945 92.1619 72.3945 92.706C72.3945 93.2501 72.8356 93.6912 73.3797 93.6912Z" fill="#59A78D"/>
<path d="M71.8465 92.1582C72.3906 92.1582 72.8317 91.7171 72.8317 91.173C72.8317 90.6289 72.3906 90.1878 71.8465 90.1878C71.3024 90.1878 70.8613 90.6289 70.8613 91.173C70.8613 91.7171 71.3024 92.1582 71.8465 92.1582Z" fill="#59A78D"/>
<path d="M73.3797 92.5412C73.9238 92.5412 74.3649 92.1001 74.3649 91.556C74.3649 91.0119 73.9238 90.5708 73.3797 90.5708C72.8356 90.5708 72.3945 91.0119 72.3945 91.556C72.3945 92.1001 72.8356 92.5412 73.3797 92.5412Z" fill="#59A78D"/>
<path d="M72.6136 91.0076C73.1577 91.0076 73.5988 90.5665 73.5988 90.0224C73.5988 89.4783 73.1577 89.0372 72.6136 89.0372C72.0695 89.0372 71.6284 89.4783 71.6284 90.0224C71.6284 90.5665 72.0695 91.0076 72.6136 91.0076Z" fill="#59A78D"/>
<path d="M79.5637 92.0503H78.0303V94.8641H79.5637V92.0503Z" fill="#59A78D"/>
<path d="M78.0912 92.4872C78.6353 92.4872 79.0763 92.0461 79.0763 91.502C79.0763 90.9579 78.6353 90.5168 78.0912 90.5168C77.547 90.5168 77.106 90.9579 77.106 91.502C77.106 92.0461 77.547 92.4872 78.0912 92.4872Z" fill="#59A78D"/>
<path d="M79.6244 92.4872C80.1685 92.4872 80.6096 92.0461 80.6096 91.502C80.6096 90.9579 80.1685 90.5168 79.6244 90.5168C79.0803 90.5168 78.6392 90.9579 78.6392 91.502C78.6392 92.0461 79.0803 92.4872 79.6244 92.4872Z" fill="#59A78D"/>
<path d="M78.0912 90.9537C78.6353 90.9537 79.0763 90.5126 79.0763 89.9685C79.0763 89.4244 78.6353 88.9833 78.0912 88.9833C77.547 88.9833 77.106 89.4244 77.106 89.9685C77.106 90.5126 77.547 90.9537 78.0912 90.9537Z" fill="#59A78D"/>
<path d="M79.6244 91.3372C80.1685 91.3372 80.6096 90.8962 80.6096 90.352C80.6096 89.8079 80.1685 89.3669 79.6244 89.3669C79.0803 89.3669 78.6392 89.8079 78.6392 90.352C78.6392 90.8962 79.0803 91.3372 79.6244 91.3372Z" fill="#59A78D"/>
<path d="M78.8578 89.8037C79.4019 89.8037 79.843 89.3626 79.843 88.8185C79.843 88.2744 79.4019 87.8333 78.8578 87.8333C78.3136 87.8333 77.8726 88.2744 77.8726 88.8185C77.8726 89.3626 78.3136 89.8037 78.8578 89.8037Z" fill="#59A78D"/>
<path d="M84.6769 91.6354H83.1436V94.4491H84.6769V91.6354Z" fill="#59A78D"/>
<path d="M83.2093 92.0767C83.7534 92.0767 84.1945 91.6356 84.1945 91.0915C84.1945 90.5474 83.7534 90.1063 83.2093 90.1063C82.6652 90.1063 82.2241 90.5474 82.2241 91.0915C82.2241 91.6356 82.6652 92.0767 83.2093 92.0767Z" fill="#59A78D"/>
<path d="M84.7425 92.0767C85.2866 92.0767 85.7277 91.6356 85.7277 91.0915C85.7277 90.5474 85.2866 90.1063 84.7425 90.1063C84.1984 90.1063 83.7573 90.5474 83.7573 91.0915C83.7573 91.6356 84.1984 92.0767 84.7425 92.0767Z" fill="#59A78D"/>
<path d="M83.2093 90.5431C83.7534 90.5431 84.1945 90.102 84.1945 89.5579C84.1945 89.0138 83.7534 88.5727 83.2093 88.5727C82.6652 88.5727 82.2241 89.0138 82.2241 89.5579C82.2241 90.102 82.6652 90.5431 83.2093 90.5431Z" fill="#59A78D"/>
<path d="M84.7425 90.9266C85.2866 90.9266 85.7277 90.4855 85.7277 89.9414C85.7277 89.3973 85.2866 88.9562 84.7425 88.9562C84.1984 88.9562 83.7573 89.3973 83.7573 89.9414C83.7573 90.4855 84.1984 90.9266 84.7425 90.9266Z" fill="#59A78D"/>
<path d="M83.9759 89.3932C84.52 89.3932 84.9611 88.9521 84.9611 88.408C84.9611 87.8639 84.52 87.4228 83.9759 87.4228C83.4318 87.4228 82.9907 87.8639 82.9907 88.408C82.9907 88.9521 83.4318 89.3932 83.9759 89.3932Z" fill="#59A78D"/>
<path d="M89.3815 92.5981H87.8481V95.4118H89.3815V92.5981Z" fill="#59A78D"/>
<path d="M87.9124 93.0395C88.4565 93.0395 88.8976 92.5985 88.8976 92.0543C88.8976 91.5102 88.4565 91.0692 87.9124 91.0692C87.3683 91.0692 86.9272 91.5102 86.9272 92.0543C86.9272 92.5985 87.3683 93.0395 87.9124 93.0395Z" fill="#59A78D"/>
<path d="M89.4461 93.0395C89.9902 93.0395 90.4313 92.5985 90.4313 92.0543C90.4313 91.5102 89.9902 91.0692 89.4461 91.0692C88.902 91.0692 88.4609 91.5102 88.4609 92.0543C88.4609 92.5985 88.902 93.0395 89.4461 93.0395Z" fill="#59A78D"/>
<path d="M87.9124 91.5059C88.4565 91.5059 88.8976 91.0648 88.8976 90.5207C88.8976 89.9766 88.4565 89.5355 87.9124 89.5355C87.3683 89.5355 86.9272 89.9766 86.9272 90.5207C86.9272 91.0648 87.3683 91.5059 87.9124 91.5059Z" fill="#59A78D"/>
<path d="M89.4461 91.8887C89.9902 91.8887 90.4313 91.4476 90.4313 90.9035C90.4313 90.3594 89.9902 89.9183 89.4461 89.9183C88.902 89.9183 88.4609 90.3594 88.4609 90.9035C88.4609 91.4476 88.902 91.8887 89.4461 91.8887Z" fill="#59A78D"/>
<path d="M88.6795 90.3559C89.2236 90.3559 89.6647 89.9148 89.6647 89.3707C89.6647 88.8266 89.2236 88.3855 88.6795 88.3855C88.1354 88.3855 87.6943 88.8266 87.6943 89.3707C87.6943 89.9148 88.1354 90.3559 88.6795 90.3559Z" fill="#59A78D"/>
<path d="M74.653 98.6051H73.1196V101.419H74.653V98.6051Z" fill="#59A78D"/>
<path d="M73.1844 99.0464C73.7285 99.0464 74.1696 98.6053 74.1696 98.0612C74.1696 97.5171 73.7285 97.076 73.1844 97.076C72.6403 97.076 72.1992 97.5171 72.1992 98.0612C72.1992 98.6053 72.6403 99.0464 73.1844 99.0464Z" fill="#59A78D"/>
<path d="M74.7181 99.0464C75.2622 99.0464 75.7033 98.6053 75.7033 98.0612C75.7033 97.5171 75.2622 97.076 74.7181 97.076C74.174 97.076 73.7329 97.5171 73.7329 98.0612C73.7329 98.6053 74.174 99.0464 74.7181 99.0464Z" fill="#59A78D"/>
<path d="M73.1844 97.5128C73.7285 97.5128 74.1696 97.0717 74.1696 96.5276C74.1696 95.9835 73.7285 95.5424 73.1844 95.5424C72.6403 95.5424 72.1992 95.9835 72.1992 96.5276C72.1992 97.0717 72.6403 97.5128 73.1844 97.5128Z" fill="#59A78D"/>
<path d="M74.7181 97.8957C75.2622 97.8957 75.7033 97.4546 75.7033 96.9105C75.7033 96.3664 75.2622 95.9253 74.7181 95.9253C74.174 95.9253 73.7329 96.3664 73.7329 96.9105C73.7329 97.4546 74.174 97.8957 74.7181 97.8957Z" fill="#59A78D"/>
<path d="M73.9515 96.3629C74.4956 96.3629 74.9367 95.9218 74.9367 95.3777C74.9367 94.8335 74.4956 94.3925 73.9515 94.3925C73.4074 94.3925 72.9663 94.8335 72.9663 95.3777C72.9663 95.9218 73.4074 96.3629 73.9515 96.3629Z" fill="#59A78D"/>
<path d="M82.4123 96.2248H80.8789V99.0386H82.4123V96.2248Z" fill="#59A78D"/>
<path d="M80.9432 96.6617C81.4873 96.6617 81.9284 96.2206 81.9284 95.6765C81.9284 95.1324 81.4873 94.6913 80.9432 94.6913C80.3991 94.6913 79.958 95.1324 79.958 95.6765C79.958 96.2206 80.3991 96.6617 80.9432 96.6617Z" fill="#59A78D"/>
<path d="M82.4764 96.6617C83.0205 96.6617 83.4616 96.2206 83.4616 95.6765C83.4616 95.1324 83.0205 94.6913 82.4764 94.6913C81.9323 94.6913 81.4912 95.1324 81.4912 95.6765C81.4912 96.2206 81.9323 96.6617 82.4764 96.6617Z" fill="#59A78D"/>
<path d="M80.9432 95.128C81.4873 95.128 81.9284 94.687 81.9284 94.1429C81.9284 93.5987 81.4873 93.1577 80.9432 93.1577C80.3991 93.1577 79.958 93.5987 79.958 94.1429C79.958 94.687 80.3991 95.128 80.9432 95.128Z" fill="#59A78D"/>
<path d="M82.4764 95.5117C83.0205 95.5117 83.4616 95.0707 83.4616 94.5265C83.4616 93.9824 83.0205 93.5414 82.4764 93.5414C81.9323 93.5414 81.4912 93.9824 81.4912 94.5265C81.4912 95.0707 81.9323 95.5117 82.4764 95.5117Z" fill="#59A78D"/>
<path d="M81.7103 93.978C82.2544 93.978 82.6955 93.5369 82.6955 92.9928C82.6955 92.4487 82.2544 92.0076 81.7103 92.0076C81.1662 92.0076 80.7251 92.4487 80.7251 92.9928C80.7251 93.5369 81.1662 93.978 81.7103 93.978Z" fill="#59A78D"/>
<path d="M88.7297 100.307H87.1963V103.121H88.7297V100.307Z" fill="#59A78D"/>
<path d="M87.2572 100.749C87.8013 100.749 88.2424 100.308 88.2424 99.7634C88.2424 99.2193 87.8013 98.7782 87.2572 98.7782C86.7131 98.7782 86.272 99.2193 86.272 99.7634C86.272 100.308 86.7131 100.749 87.2572 100.749Z" fill="#59A78D"/>
<path d="M88.7904 100.749C89.3345 100.749 89.7756 100.308 89.7756 99.7634C89.7756 99.2193 89.3345 98.7782 88.7904 98.7782C88.2463 98.7782 87.8052 99.2193 87.8052 99.7634C87.8052 100.308 88.2463 100.749 88.7904 100.749Z" fill="#59A78D"/>
<path d="M87.2572 99.2151C87.8013 99.2151 88.2424 98.774 88.2424 98.2299C88.2424 97.6858 87.8013 97.2447 87.2572 97.2447C86.7131 97.2447 86.272 97.6858 86.272 98.2299C86.272 98.774 86.7131 99.2151 87.2572 99.2151Z" fill="#59A78D"/>
<path d="M88.7904 99.598C89.3345 99.598 89.7756 99.1569 89.7756 98.6128C89.7756 98.0687 89.3345 97.6276 88.7904 97.6276C88.2463 97.6276 87.8052 98.0687 87.8052 98.6128C87.8052 99.1569 88.2463 99.598 88.7904 99.598Z" fill="#59A78D"/>
<path d="M88.0238 98.0652C88.5679 98.0652 89.009 97.6241 89.009 97.08C89.009 96.5358 88.5679 96.0948 88.0238 96.0948C87.4797 96.0948 87.0386 96.5358 87.0386 97.08C87.0386 97.6241 87.4797 98.0652 88.0238 98.0652Z" fill="#59A78D"/>
<path d="M91.5778 96.5317H90.0444V99.3455H91.5778V96.5317Z" fill="#59A78D"/>
<path d="M90.1092 96.9724C90.6533 96.9724 91.0944 96.5313 91.0944 95.9872C91.0944 95.4431 90.6533 95.002 90.1092 95.002C89.5651 95.002 89.124 95.4431 89.124 95.9872C89.124 96.5313 89.5651 96.9724 90.1092 96.9724Z" fill="#59A78D"/>
<path d="M91.6424 96.9724C92.1865 96.9724 92.6276 96.5313 92.6276 95.9872C92.6276 95.4431 92.1865 95.002 91.6424 95.002C91.0983 95.002 90.6572 95.4431 90.6572 95.9872C90.6572 96.5313 91.0983 96.9724 91.6424 96.9724Z" fill="#59A78D"/>
<path d="M90.1092 95.4395C90.6533 95.4395 91.0944 94.9985 91.0944 94.4543C91.0944 93.9102 90.6533 93.4691 90.1092 93.4691C89.5651 93.4691 89.124 93.9102 89.124 94.4543C89.124 94.9985 89.5651 95.4395 90.1092 95.4395Z" fill="#59A78D"/>
<path d="M91.6424 95.8224C92.1865 95.8224 92.6276 95.3814 92.6276 94.8372C92.6276 94.2931 92.1865 93.8521 91.6424 93.8521C91.0983 93.8521 90.6572 94.2931 90.6572 94.8372C90.6572 95.3814 91.0983 95.8224 91.6424 95.8224Z" fill="#59A78D"/>
<path d="M90.8763 94.2896C91.4204 94.2896 91.8615 93.8485 91.8615 93.3044C91.8615 92.7603 91.4204 92.3192 90.8763 92.3192C90.3322 92.3192 89.8911 92.7603 89.8911 93.3044C89.8911 93.8485 90.3322 94.2896 90.8763 94.2896Z" fill="#59A78D"/>
<path d="M94.2604 100.016H92.7271V102.83H94.2604V100.016Z" fill="#59A78D"/>
<path d="M92.7889 100.457C93.333 100.457 93.7741 100.016 93.7741 99.4716C93.7741 98.9275 93.333 98.4864 92.7889 98.4864C92.2448 98.4864 91.8037 98.9275 91.8037 99.4716C91.8037 100.016 92.2448 100.457 92.7889 100.457Z" fill="#59A78D"/>
<path d="M94.3221 100.457C94.8662 100.457 95.3073 100.016 95.3073 99.4716C95.3073 98.9275 94.8662 98.4864 94.3221 98.4864C93.778 98.4864 93.3369 98.9275 93.3369 99.4716C93.3369 100.016 93.778 100.457 94.3221 100.457Z" fill="#59A78D"/>
<path d="M92.7889 98.9233C93.333 98.9233 93.7741 98.4823 93.7741 97.9381C93.7741 97.394 93.333 96.9529 92.7889 96.9529C92.2448 96.9529 91.8037 97.394 91.8037 97.9381C91.8037 98.4823 92.2448 98.9233 92.7889 98.9233Z" fill="#59A78D"/>
<path d="M94.3221 99.3068C94.8662 99.3068 95.3073 98.8658 95.3073 98.3217C95.3073 97.7775 94.8662 97.3365 94.3221 97.3365C93.778 97.3365 93.3369 97.7775 93.3369 98.3217C93.3369 98.8658 93.778 99.3068 94.3221 99.3068Z" fill="#59A78D"/>
<path d="M93.5555 97.7733C94.0996 97.7733 94.5407 97.3322 94.5407 96.7881C94.5407 96.244 94.0996 95.8029 93.5555 95.8029C93.0114 95.8029 92.5703 96.244 92.5703 96.7881C92.5703 97.3322 93.0114 97.7733 93.5555 97.7733Z" fill="#59A78D"/>
<path d="M98.071 95.1784H96.5376V97.9921H98.071V95.1784Z" fill="#59A78D"/>
<path d="M96.599 95.6152C97.1431 95.6152 97.5842 95.1741 97.5842 94.63C97.5842 94.0859 97.1431 93.6448 96.599 93.6448C96.0549 93.6448 95.6138 94.0859 95.6138 94.63C95.6138 95.1741 96.0549 95.6152 96.599 95.6152Z" fill="#59A78D"/>
<path d="M98.1317 95.6152C98.6758 95.6152 99.1169 95.1741 99.1169 94.63C99.1169 94.0859 98.6758 93.6448 98.1317 93.6448C97.5876 93.6448 97.1465 94.0859 97.1465 94.63C97.1465 95.1741 97.5876 95.6152 98.1317 95.6152Z" fill="#59A78D"/>
<path d="M96.599 94.0816C97.1431 94.0816 97.5842 93.6405 97.5842 93.0964C97.5842 92.5523 97.1431 92.1112 96.599 92.1112C96.0549 92.1112 95.6138 92.5523 95.6138 93.0964C95.6138 93.6405 96.0549 94.0816 96.599 94.0816Z" fill="#59A78D"/>
<path d="M98.1317 94.4653C98.6758 94.4653 99.1169 94.0242 99.1169 93.4801C99.1169 92.936 98.6758 92.4949 98.1317 92.4949C97.5876 92.4949 97.1465 92.936 97.1465 93.4801C97.1465 94.0242 97.5876 94.4653 98.1317 94.4653Z" fill="#59A78D"/>
<path d="M97.3656 92.9317C97.9097 92.9317 98.3508 92.4906 98.3508 91.9465C98.3508 91.4024 97.9097 90.9613 97.3656 90.9613C96.8215 90.9613 96.3804 91.4024 96.3804 91.9465C96.3804 92.4906 96.8215 92.9317 97.3656 92.9317Z" fill="#59A78D"/>
<path d="M105.761 94.0088H104.228V96.8225H105.761V94.0088Z" fill="#59A78D"/>
<path d="M104.289 94.4502C104.834 94.4502 105.275 94.0091 105.275 93.465C105.275 92.9209 104.834 92.4798 104.289 92.4798C103.745 92.4798 103.304 92.9209 103.304 93.465C103.304 94.0091 103.745 94.4502 104.289 94.4502Z" fill="#59A78D"/>
<path d="M105.823 94.4502C106.367 94.4502 106.808 94.0091 106.808 93.465C106.808 92.9209 106.367 92.4798 105.823 92.4798C105.278 92.4798 104.837 92.9209 104.837 93.465C104.837 94.0091 105.278 94.4502 105.823 94.4502Z" fill="#59A78D"/>
<path d="M104.289 92.9166C104.834 92.9166 105.275 92.4755 105.275 91.9314C105.275 91.3873 104.834 90.9462 104.289 90.9462C103.745 90.9462 103.304 91.3873 103.304 91.9314C103.304 92.4755 103.745 92.9166 104.289 92.9166Z" fill="#59A78D"/>
<path d="M105.823 93.3002C106.367 93.3002 106.808 92.8591 106.808 92.315C106.808 91.7709 106.367 91.3298 105.823 91.3298C105.278 91.3298 104.837 91.7709 104.837 92.315C104.837 92.8591 105.278 93.3002 105.823 93.3002Z" fill="#59A78D"/>
<path d="M105.056 91.7666C105.6 91.7666 106.041 91.3255 106.041 90.7814C106.041 90.2373 105.6 89.7962 105.056 89.7962C104.512 89.7962 104.071 90.2373 104.071 90.7814C104.071 91.3255 104.512 91.7666 105.056 91.7666Z" fill="#59A78D"/>
<path d="M102.771 96.4127H101.237V99.2264H102.771V96.4127Z" fill="#59A78D"/>
<path d="M101.303 96.8494C101.847 96.8494 102.288 96.4083 102.288 95.8642C102.288 95.3201 101.847 94.879 101.303 94.879C100.758 94.879 100.317 95.3201 100.317 95.8642C100.317 96.4083 100.758 96.8494 101.303 96.8494Z" fill="#59A78D"/>
<path d="M102.836 96.8494C103.38 96.8494 103.821 96.4083 103.821 95.8642C103.821 95.3201 103.38 94.879 102.836 94.879C102.292 94.879 101.851 95.3201 101.851 95.8642C101.851 96.4083 102.292 96.8494 102.836 96.8494Z" fill="#59A78D"/>
<path d="M101.303 95.3158C101.847 95.3158 102.288 94.8747 102.288 94.3306C102.288 93.7865 101.847 93.3454 101.303 93.3454C100.758 93.3454 100.317 93.7865 100.317 94.3306C100.317 94.8747 100.758 95.3158 101.303 95.3158Z" fill="#59A78D"/>
<path d="M102.836 95.6995C103.38 95.6995 103.821 95.2584 103.821 94.7143C103.821 94.1702 103.38 93.7291 102.836 93.7291C102.292 93.7291 101.851 94.1702 101.851 94.7143C101.851 95.2584 102.292 95.6995 102.836 95.6995Z" fill="#59A78D"/>
<path d="M102.069 94.1659C102.613 94.1659 103.054 93.7248 103.054 93.1807C103.054 92.6366 102.613 92.1955 102.069 92.1955C101.525 92.1955 101.084 92.6366 101.084 93.1807C101.084 93.7248 101.525 94.1659 102.069 94.1659Z" fill="#59A78D"/>
<path d="M106.137 100.016H104.604V102.83H106.137V100.016Z" fill="#59A78D"/>
<path d="M104.669 100.457C105.213 100.457 105.654 100.016 105.654 99.4716C105.654 98.9275 105.213 98.4864 104.669 98.4864C104.125 98.4864 103.684 98.9275 103.684 99.4716C103.684 100.016 104.125 100.457 104.669 100.457Z" fill="#59A78D"/>
<path d="M106.201 100.457C106.746 100.457 107.187 100.016 107.187 99.4716C107.187 98.9275 106.746 98.4864 106.201 98.4864C105.657 98.4864 105.216 98.9275 105.216 99.4716C105.216 100.016 105.657 100.457 106.201 100.457Z" fill="#59A78D"/>
<path d="M104.669 98.9233C105.213 98.9233 105.654 98.4823 105.654 97.9381C105.654 97.394 105.213 96.9529 104.669 96.9529C104.125 96.9529 103.684 97.394 103.684 97.9381C103.684 98.4823 104.125 98.9233 104.669 98.9233Z" fill="#59A78D"/>
<path d="M106.201 99.3068C106.746 99.3068 107.187 98.8658 107.187 98.3217C107.187 97.7775 106.746 97.3365 106.201 97.3365C105.657 97.3365 105.216 97.7775 105.216 98.3217C105.216 98.8658 105.657 99.3068 106.201 99.3068Z" fill="#59A78D"/>
<path d="M105.435 97.7733C105.979 97.7733 106.421 97.3322 106.421 96.7881C106.421 96.244 105.979 95.8029 105.435 95.8029C104.891 95.8029 104.45 96.244 104.45 96.7881C104.45 97.3322 104.891 97.7733 105.435 97.7733Z" fill="#59A78D"/>
<path d="M109.705 96.6535H108.172V99.4673H109.705V96.6535Z" fill="#59A78D"/>
<path d="M108.237 97.0912C108.781 97.0912 109.222 96.6501 109.222 96.106C109.222 95.5618 108.781 95.1208 108.237 95.1208C107.693 95.1208 107.252 95.5618 107.252 96.106C107.252 96.6501 107.693 97.0912 108.237 97.0912Z" fill="#59A78D"/>
<path d="M109.771 97.0912C110.315 97.0912 110.756 96.6501 110.756 96.106C110.756 95.5618 110.315 95.1208 109.771 95.1208C109.227 95.1208 108.786 95.5618 108.786 96.106C108.786 96.6501 109.227 97.0912 109.771 97.0912Z" fill="#59A78D"/>
<path d="M108.237 95.5575C108.781 95.5575 109.222 95.1164 109.222 94.5723C109.222 94.0282 108.781 93.5871 108.237 93.5871C107.693 93.5871 107.252 94.0282 107.252 94.5723C107.252 95.1164 107.693 95.5575 108.237 95.5575Z" fill="#59A78D"/>
<path d="M109.771 95.9412C110.315 95.9412 110.756 95.5001 110.756 94.956C110.756 94.4119 110.315 93.9708 109.771 93.9708C109.227 93.9708 108.786 94.4119 108.786 94.956C108.786 95.5001 109.227 95.9412 109.771 95.9412Z" fill="#59A78D"/>
<path d="M109.004 94.4076C109.548 94.4076 109.989 93.9665 109.989 93.4224C109.989 92.8783 109.548 92.4372 109.004 92.4372C108.46 92.4372 108.019 92.8783 108.019 93.4224C108.019 93.9665 108.46 94.4076 109.004 94.4076Z" fill="#59A78D"/>
<path d="M112.006 100.909H110.473V103.722H112.006V100.909Z" fill="#59A78D"/>
<path d="M110.537 101.35C111.082 101.35 111.523 100.909 111.523 100.365C111.523 99.8209 111.082 99.3798 110.537 99.3798C109.993 99.3798 109.552 99.8209 109.552 100.365C109.552 100.909 109.993 101.35 110.537 101.35Z" fill="#59A78D"/>
<path d="M112.071 101.35C112.615 101.35 113.056 100.909 113.056 100.365C113.056 99.8209 112.615 99.3798 112.071 99.3798C111.527 99.3798 111.085 99.8209 111.085 100.365C111.085 100.909 111.527 101.35 112.071 101.35Z" fill="#59A78D"/>
<path d="M110.537 99.8172C111.082 99.8172 111.523 99.3761 111.523 98.832C111.523 98.2879 111.082 97.8468 110.537 97.8468C109.993 97.8468 109.552 98.2879 109.552 98.832C109.552 99.3761 109.993 99.8172 110.537 99.8172Z" fill="#59A78D"/>
<path d="M112.071 100.2C112.615 100.2 113.056 99.759 113.056 99.2149C113.056 98.6708 112.615 98.2297 112.071 98.2297C111.527 98.2297 111.085 98.6708 111.085 99.2149C111.085 99.759 111.527 100.2 112.071 100.2Z" fill="#59A78D"/>
<path d="M111.304 98.6665C111.848 98.6665 112.289 98.2254 112.289 97.6813C112.289 97.1372 111.848 96.6961 111.304 96.6961C110.76 96.6961 110.319 97.1372 110.319 97.6813C110.319 98.2254 110.76 98.6665 111.304 98.6665Z" fill="#59A78D"/>
<path d="M113.896 93.5301H112.362V96.3438H113.896V93.5301Z" fill="#59A78D"/>
<path d="M112.424 93.9669C112.968 93.9669 113.409 93.5259 113.409 92.9817C113.409 92.4376 112.968 91.9966 112.424 91.9966C111.88 91.9966 111.438 92.4376 111.438 92.9817C111.438 93.5259 111.88 93.9669 112.424 93.9669Z" fill="#59A78D"/>
<path d="M113.956 93.9669C114.5 93.9669 114.942 93.5259 114.942 92.9817C114.942 92.4376 114.5 91.9966 113.956 91.9966C113.412 91.9966 112.971 92.4376 112.971 92.9817C112.971 93.5259 113.412 93.9669 113.956 93.9669Z" fill="#59A78D"/>
<path d="M112.424 92.4333C112.968 92.4333 113.409 91.9923 113.409 91.4481C113.409 90.904 112.968 90.463 112.424 90.463C111.88 90.463 111.438 90.904 111.438 91.4481C111.438 91.9923 111.88 92.4333 112.424 92.4333Z" fill="#59A78D"/>
<path d="M113.956 92.817C114.5 92.817 114.942 92.3759 114.942 91.8318C114.942 91.2876 114.5 90.8466 113.956 90.8466C113.412 90.8466 112.971 91.2876 112.971 91.8318C112.971 92.3759 113.412 92.817 113.956 92.817Z" fill="#59A78D"/>
<path d="M113.19 91.2833C113.734 91.2833 114.175 90.8422 114.175 90.2981C114.175 89.754 113.734 89.3129 113.19 89.3129C112.646 89.3129 112.205 89.754 112.205 90.2981C112.205 90.8422 112.646 91.2833 113.19 91.2833Z" fill="#59A78D"/>
<path d="M118.017 92.1231H116.483V94.9369H118.017V92.1231Z" fill="#59A78D"/>
<path d="M116.544 92.56C117.088 92.56 117.529 92.1189 117.529 91.5748C117.529 91.0307 117.088 90.5896 116.544 90.5896C116 90.5896 115.559 91.0307 115.559 91.5748C115.559 92.1189 116 92.56 116.544 92.56Z" fill="#59A78D"/>
<path d="M118.077 92.56C118.622 92.56 119.063 92.1189 119.063 91.5748C119.063 91.0307 118.622 90.5896 118.077 90.5896C117.533 90.5896 117.092 91.0307 117.092 91.5748C117.092 92.1189 117.533 92.56 118.077 92.56Z" fill="#59A78D"/>
<path d="M116.544 91.0271C117.088 91.0271 117.529 90.586 117.529 90.0419C117.529 89.4978 117.088 89.0567 116.544 89.0567C116 89.0567 115.559 89.4978 115.559 90.0419C115.559 90.586 116 91.0271 116.544 91.0271Z" fill="#59A78D"/>
<path d="M118.077 91.41C118.622 91.41 119.063 90.9689 119.063 90.4248C119.063 89.8807 118.622 89.4396 118.077 89.4396C117.533 89.4396 117.092 89.8807 117.092 90.4248C117.092 90.9689 117.533 91.41 118.077 91.41Z" fill="#59A78D"/>
<path d="M117.311 89.8764C117.855 89.8764 118.296 89.4353 118.296 88.8912C118.296 88.3471 117.855 87.906 117.311 87.906C116.767 87.906 116.326 88.3471 116.326 88.8912C116.326 89.4353 116.767 89.8764 117.311 89.8764Z" fill="#59A78D"/>
<path d="M115.474 102.454H113.941V105.268H115.474V102.454Z" fill="#59A78D"/>
<path d="M114.003 102.896C114.547 102.896 114.988 102.454 114.988 101.91C114.988 101.366 114.547 100.925 114.003 100.925C113.459 100.925 113.018 101.366 113.018 101.91C113.018 102.454 113.459 102.896 114.003 102.896Z" fill="#59A78D"/>
<path d="M115.536 102.896C116.08 102.896 116.521 102.454 116.521 101.91C116.521 101.366 116.08 100.925 115.536 100.925C114.992 100.925 114.551 101.366 114.551 101.91C114.551 102.454 114.992 102.896 115.536 102.896Z" fill="#59A78D"/>
<path d="M114.003 101.362C114.547 101.362 114.988 100.921 114.988 100.377C114.988 99.8327 114.547 99.3916 114.003 99.3916C113.459 99.3916 113.018 99.8327 113.018 100.377C113.018 100.921 113.459 101.362 114.003 101.362Z" fill="#59A78D"/>
<path d="M115.536 101.745C116.08 101.745 116.521 101.304 116.521 100.76C116.521 100.216 116.08 99.7745 115.536 99.7745C114.992 99.7745 114.551 100.216 114.551 100.76C114.551 101.304 114.992 101.745 115.536 101.745Z" fill="#59A78D"/>
<path d="M114.769 100.211C115.313 100.211 115.755 99.7702 115.755 99.2261C115.755 98.682 115.313 98.2409 114.769 98.2409C114.225 98.2409 113.784 98.682 113.784 99.2261C113.784 99.7702 114.225 100.211 114.769 100.211Z" fill="#59A78D"/>
<path d="M120.11 101.907H118.577V104.72H120.11V101.907Z" fill="#59A78D"/>
<path d="M118.638 102.344C119.182 102.344 119.623 101.903 119.623 101.359C119.623 100.815 119.182 100.374 118.638 100.374C118.093 100.374 117.652 100.815 117.652 101.359C117.652 101.903 118.093 102.344 118.638 102.344Z" fill="#59A78D"/>
<path d="M120.171 102.344C120.715 102.344 121.156 101.903 121.156 101.359C121.156 100.815 120.715 100.374 120.171 100.374C119.627 100.374 119.186 100.815 119.186 101.359C119.186 101.903 119.627 102.344 120.171 102.344Z" fill="#59A78D"/>
<path d="M118.638 100.811C119.182 100.811 119.623 100.37 119.623 99.8254C119.623 99.2813 119.182 98.8402 118.638 98.8402C118.093 98.8402 117.652 99.2813 117.652 99.8254C117.652 100.37 118.093 100.811 118.638 100.811Z" fill="#59A78D"/>
<path d="M120.171 101.193C120.715 101.193 121.156 100.752 121.156 100.208C121.156 99.664 120.715 99.2229 120.171 99.2229C119.627 99.2229 119.186 99.664 119.186 100.208C119.186 100.752 119.627 101.193 120.171 101.193Z" fill="#59A78D"/>
<path d="M119.405 99.6599C119.949 99.6599 120.39 99.2188 120.39 98.6747C120.39 98.1306 119.949 97.6895 119.405 97.6895C118.861 97.6895 118.419 98.1306 118.419 98.6747C118.419 99.2188 118.861 99.6599 119.405 99.6599Z" fill="#59A78D"/>
<path d="M120.831 95.7617H119.297V98.5755H120.831V95.7617Z" fill="#59A78D"/>
<path d="M119.358 96.1985C119.902 96.1985 120.343 95.7574 120.343 95.2133C120.343 94.6692 119.902 94.2281 119.358 94.2281C118.814 94.2281 118.373 94.6692 118.373 95.2133C118.373 95.7574 118.814 96.1985 119.358 96.1985Z" fill="#59A78D"/>
<path d="M120.892 96.1985C121.436 96.1985 121.877 95.7574 121.877 95.2133C121.877 94.6692 121.436 94.2281 120.892 94.2281C120.348 94.2281 119.907 94.6692 119.907 95.2133C119.907 95.7574 120.348 96.1985 120.892 96.1985Z" fill="#59A78D"/>
<path d="M119.358 94.6649C119.902 94.6649 120.343 94.2238 120.343 93.6797C120.343 93.1356 119.902 92.6945 119.358 92.6945C118.814 92.6945 118.373 93.1356 118.373 93.6797C118.373 94.2238 118.814 94.6649 119.358 94.6649Z" fill="#59A78D"/>
<path d="M120.892 95.0478C121.436 95.0478 121.877 94.6067 121.877 94.0626C121.877 93.5185 121.436 93.0774 120.892 93.0774C120.348 93.0774 119.907 93.5185 119.907 94.0626C119.907 94.6067 120.348 95.0478 120.892 95.0478Z" fill="#59A78D"/>
<path d="M120.125 93.5142C120.669 93.5142 121.11 93.0731 121.11 92.529C121.11 91.9849 120.669 91.5438 120.125 91.5438C119.581 91.5438 119.14 91.9849 119.14 92.529C119.14 93.0731 119.581 93.5142 120.125 93.5142Z" fill="#59A78D"/>
<path d="M124.917 99.7793H123.383V102.593H124.917V99.7793Z" fill="#59A78D"/>
<path d="M123.445 100.216C123.989 100.216 124.43 99.7752 124.43 99.231C124.43 98.6869 123.989 98.2458 123.445 98.2458C122.901 98.2458 122.459 98.6869 122.459 99.231C122.459 99.7752 122.901 100.216 123.445 100.216Z" fill="#59A78D"/>
<path d="M124.978 100.216C125.522 100.216 125.963 99.7752 125.963 99.231C125.963 98.6869 125.522 98.2458 124.978 98.2458C124.434 98.2458 123.993 98.6869 123.993 99.231C123.993 99.7752 124.434 100.216 124.978 100.216Z" fill="#59A78D"/>
<path d="M123.445 98.6832C123.989 98.6832 124.43 98.2421 124.43 97.698C124.43 97.1539 123.989 96.7128 123.445 96.7128C122.901 96.7128 122.459 97.1539 122.459 97.698C122.459 98.2421 122.901 98.6832 123.445 98.6832Z" fill="#59A78D"/>
<path d="M124.978 99.0662C125.522 99.0662 125.963 98.6251 125.963 98.081C125.963 97.5369 125.522 97.0958 124.978 97.0958C124.434 97.0958 123.993 97.5369 123.993 98.081C123.993 98.6251 124.434 99.0662 124.978 99.0662Z" fill="#59A78D"/>
<path d="M124.212 97.5326C124.756 97.5326 125.197 97.0915 125.197 96.5474C125.197 96.0033 124.756 95.5622 124.212 95.5622C123.668 95.5622 123.227 96.0033 123.227 96.5474C123.227 97.0915 123.668 97.5326 124.212 97.5326Z" fill="#59A78D"/>
<path d="M59.1393 95.5149H57.606V98.3287H59.1393V95.5149Z" fill="#59A78D"/>
<path d="M57.6668 95.9562C58.2109 95.9562 58.652 95.5151 58.652 94.971C58.652 94.4269 58.2109 93.9858 57.6668 93.9858C57.1227 93.9858 56.6816 94.4269 56.6816 94.971C56.6816 95.5151 57.1227 95.9562 57.6668 95.9562Z" fill="#59A78D"/>
<path d="M59.2 95.9562C59.7442 95.9562 60.1852 95.5151 60.1852 94.971C60.1852 94.4269 59.7442 93.9858 59.2 93.9858C58.6559 93.9858 58.2148 94.4269 58.2148 94.971C58.2148 95.5151 58.6559 95.9562 59.2 95.9562Z" fill="#59A78D"/>
<path d="M57.6668 94.4234C58.2109 94.4234 58.652 93.9823 58.652 93.4382C58.652 92.8941 58.2109 92.453 57.6668 92.453C57.1227 92.453 56.6816 92.8941 56.6816 93.4382C56.6816 93.9823 57.1227 94.4234 57.6668 94.4234Z" fill="#59A78D"/>
<path d="M59.2 94.8062C59.7442 94.8062 60.1852 94.3652 60.1852 93.821C60.1852 93.2769 59.7442 92.8358 59.2 92.8358C58.6559 92.8358 58.2148 93.2769 58.2148 93.821C58.2148 94.3652 58.6559 94.8062 59.2 94.8062Z" fill="#59A78D"/>
<path d="M58.4339 93.2727C58.978 93.2727 59.4191 92.8316 59.4191 92.2875C59.4191 91.7434 58.978 91.3023 58.4339 91.3023C57.8898 91.3023 57.4487 91.7434 57.4487 92.2875C57.4487 92.8316 57.8898 93.2727 58.4339 93.2727Z" fill="#59A78D"/>
<path d="M58.2453 65.6564H56.7119V69.5397H58.2453V65.6564Z" fill="#59A78D"/>
<path d="M56.5055 66.2583C57.255 66.2583 57.8625 65.6507 57.8625 64.9012C57.8625 64.1518 57.255 63.5442 56.5055 63.5442C55.756 63.5442 55.1484 64.1518 55.1484 64.9012C55.1484 65.6507 55.756 66.2583 56.5055 66.2583Z" fill="#59A78D"/>
<path d="M58.6212 66.2583C59.3707 66.2583 59.9782 65.6507 59.9782 64.9012C59.9782 64.1518 59.3707 63.5442 58.6212 63.5442C57.8717 63.5442 57.2642 64.1518 57.2642 64.9012C57.2642 65.6507 57.8717 66.2583 58.6212 66.2583Z" fill="#59A78D"/>
<path d="M56.5055 64.1459C57.255 64.1459 57.8625 63.5383 57.8625 62.7888C57.8625 62.0394 57.255 61.4318 56.5055 61.4318C55.756 61.4318 55.1484 62.0394 55.1484 62.7888C55.1484 63.5383 55.756 64.1459 56.5055 64.1459Z" fill="#59A78D"/>
<path d="M58.6212 64.6749C59.3707 64.6749 59.9782 64.0673 59.9782 63.3178C59.9782 62.5684 59.3707 61.9608 58.6212 61.9608C57.8717 61.9608 57.2642 62.5684 57.2642 63.3178C57.2642 64.0673 57.8717 64.6749 58.6212 64.6749Z" fill="#59A78D"/>
<path d="M57.5631 62.5587C58.3126 62.5587 58.9201 61.9512 58.9201 61.2017C58.9201 60.4522 58.3126 59.8447 57.5631 59.8447C56.8136 59.8447 56.2061 60.4522 56.2061 61.2017C56.2061 61.9512 56.8136 62.5587 57.5631 62.5587Z" fill="#59A78D"/>
<path d="M48.5275 90.7809H46.9941V93.5947H48.5275V90.7809Z" fill="#59A78D"/>
<path d="M47.0594 91.2177C47.6035 91.2177 48.0446 90.7766 48.0446 90.2325C48.0446 89.6884 47.6035 89.2473 47.0594 89.2473C46.5153 89.2473 46.0742 89.6884 46.0742 90.2325C46.0742 90.7766 46.5153 91.2177 47.0594 91.2177Z" fill="#59A78D"/>
<path d="M48.5926 91.2177C49.1367 91.2177 49.5778 90.7766 49.5778 90.2325C49.5778 89.6884 49.1367 89.2473 48.5926 89.2473C48.0485 89.2473 47.6074 89.6884 47.6074 90.2325C47.6074 90.7766 48.0485 91.2177 48.5926 91.2177Z" fill="#59A78D"/>
<path d="M47.0594 89.6849C47.6035 89.6849 48.0446 89.2438 48.0446 88.6997C48.0446 88.1556 47.6035 87.7145 47.0594 87.7145C46.5153 87.7145 46.0742 88.1556 46.0742 88.6997C46.0742 89.2438 46.5153 89.6849 47.0594 89.6849Z" fill="#59A78D"/>
<path d="M48.5926 90.0677C49.1367 90.0677 49.5778 89.6266 49.5778 89.0825C49.5778 88.5383 49.1367 88.0973 48.5926 88.0973C48.0485 88.0973 47.6074 88.5383 47.6074 89.0825C47.6074 89.6266 48.0485 90.0677 48.5926 90.0677Z" fill="#59A78D"/>
<path d="M47.826 88.5349C48.3701 88.5349 48.8112 88.0938 48.8112 87.5497C48.8112 87.0056 48.3701 86.5645 47.826 86.5645C47.2819 86.5645 46.8408 87.0056 46.8408 87.5497C46.8408 88.0938 47.2819 88.5349 47.826 88.5349Z" fill="#59A78D"/>
<path d="M45.028 96.1708H43.4946V98.9846H45.028V96.1708Z" fill="#59A78D"/>
<path d="M43.5555 96.6084C44.0996 96.6084 44.5407 96.1673 44.5407 95.6232C44.5407 95.0791 44.0996 94.638 43.5555 94.638C43.0114 94.638 42.5703 95.0791 42.5703 95.6232C42.5703 96.1673 43.0114 96.6084 43.5555 96.6084Z" fill="#59A78D"/>
<path d="M45.0887 96.6084C45.6328 96.6084 46.0739 96.1673 46.0739 95.6232C46.0739 95.0791 45.6328 94.638 45.0887 94.638C44.5446 94.638 44.1035 95.0791 44.1035 95.6232C44.1035 96.1673 44.5446 96.6084 45.0887 96.6084Z" fill="#59A78D"/>
<path d="M43.5555 95.0748C44.0996 95.0748 44.5407 94.6337 44.5407 94.0896C44.5407 93.5455 44.0996 93.1044 43.5555 93.1044C43.0114 93.1044 42.5703 93.5455 42.5703 94.0896C42.5703 94.6337 43.0114 95.0748 43.5555 95.0748Z" fill="#59A78D"/>
<path d="M45.0887 95.4585C45.6328 95.4585 46.0739 95.0174 46.0739 94.4733C46.0739 93.9292 45.6328 93.4881 45.0887 93.4881C44.5446 93.4881 44.1035 93.9292 44.1035 94.4733C44.1035 95.0174 44.5446 95.4585 45.0887 95.4585Z" fill="#59A78D"/>
<path d="M44.3221 93.9249C44.8662 93.9249 45.3073 93.4838 45.3073 92.9397C45.3073 92.3956 44.8662 91.9545 44.3221 91.9545C43.778 91.9545 43.3369 92.3956 43.3369 92.9397C43.3369 93.4838 43.778 93.9249 44.3221 93.9249Z" fill="#59A78D"/>
<path d="M52.7526 95.7572H51.2192V98.571H52.7526V95.7572Z" fill="#59A78D"/>
<path d="M51.2806 96.1985C51.8247 96.1985 52.2658 95.7574 52.2658 95.2133C52.2658 94.6692 51.8247 94.2281 51.2806 94.2281C50.7365 94.2281 50.2954 94.6692 50.2954 95.2133C50.2954 95.7574 50.7365 96.1985 51.2806 96.1985Z" fill="#59A78D"/>
<path d="M52.8138 96.1985C53.3579 96.1985 53.799 95.7574 53.799 95.2133C53.799 94.6692 53.3579 94.2281 52.8138 94.2281C52.2697 94.2281 51.8286 94.6692 51.8286 95.2133C51.8286 95.7574 52.2697 96.1985 52.8138 96.1985Z" fill="#59A78D"/>
<path d="M51.2806 94.6649C51.8247 94.6649 52.2658 94.2238 52.2658 93.6797C52.2658 93.1356 51.8247 92.6945 51.2806 92.6945C50.7365 92.6945 50.2954 93.1356 50.2954 93.6797C50.2954 94.2238 50.7365 94.6649 51.2806 94.6649Z" fill="#59A78D"/>
<path d="M52.8138 95.0478C53.3579 95.0478 53.799 94.6067 53.799 94.0626C53.799 93.5185 53.3579 93.0774 52.8138 93.0774C52.2697 93.0774 51.8286 93.5185 51.8286 94.0626C51.8286 94.6067 52.2697 95.0478 52.8138 95.0478Z" fill="#59A78D"/>
<path d="M52.0467 93.5142C52.5908 93.5142 53.0319 93.0731 53.0319 92.529C53.0319 91.9849 52.5908 91.5438 52.0467 91.5438C51.5026 91.5438 51.0615 91.9849 51.0615 92.529C51.0615 93.0731 51.5026 93.5142 52.0467 93.5142Z" fill="#59A78D"/>
<path d="M91.4743 88.2747H89.9409V91.0885H91.4743V88.2747Z" fill="#59A78D"/>
<path d="M90.0052 88.7123C90.5493 88.7123 90.9904 88.2712 90.9904 87.7271C90.9904 87.183 90.5493 86.7419 90.0052 86.7419C89.4611 86.7419 89.02 87.183 89.02 87.7271C89.02 88.2712 89.4611 88.7123 90.0052 88.7123Z" fill="#59A78D"/>
<path d="M91.5389 88.7123C92.083 88.7123 92.5241 88.2712 92.5241 87.7271C92.5241 87.183 92.083 86.7419 91.5389 86.7419C90.9948 86.7419 90.5537 87.183 90.5537 87.7271C90.5537 88.2712 90.9948 88.7123 91.5389 88.7123Z" fill="#59A78D"/>
<path d="M90.0052 87.1788C90.5493 87.1788 90.9904 86.7377 90.9904 86.1936C90.9904 85.6495 90.5493 85.2084 90.0052 85.2084C89.4611 85.2084 89.02 85.6495 89.02 86.1936C89.02 86.7377 89.4611 87.1788 90.0052 87.1788Z" fill="#59A78D"/>
<path d="M91.5389 87.5615C92.083 87.5615 92.5241 87.1204 92.5241 86.5763C92.5241 86.0322 92.083 85.5911 91.5389 85.5911C90.9948 85.5911 90.5537 86.0322 90.5537 86.5763C90.5537 87.1204 90.9948 87.5615 91.5389 87.5615Z" fill="#59A78D"/>
<path d="M90.7723 86.028C91.3164 86.028 91.7575 85.5869 91.7575 85.0428C91.7575 84.4987 91.3164 84.0576 90.7723 84.0576C90.2282 84.0576 89.7871 84.4987 89.7871 85.0428C89.7871 85.5869 90.2282 86.028 90.7723 86.028Z" fill="#59A78D"/>
<path d="M96.3537 90.0952H94.8203V92.9089H96.3537V90.0952Z" fill="#59A78D"/>
<path d="M94.8817 90.5358C95.4258 90.5358 95.8669 90.0947 95.8669 89.5506C95.8669 89.0065 95.4258 88.5654 94.8817 88.5654C94.3376 88.5654 93.8965 89.0065 93.8965 89.5506C93.8965 90.0947 94.3376 90.5358 94.8817 90.5358Z" fill="#59A78D"/>
<path d="M96.4154 90.5358C96.9595 90.5358 97.4006 90.0947 97.4006 89.5506C97.4006 89.0065 96.9595 88.5654 96.4154 88.5654C95.8713 88.5654 95.4302 89.0065 95.4302 89.5506C95.4302 90.0947 95.8713 90.5358 96.4154 90.5358Z" fill="#59A78D"/>
<path d="M94.8817 89.0022C95.4258 89.0022 95.8669 88.5611 95.8669 88.017C95.8669 87.4729 95.4258 87.0318 94.8817 87.0318C94.3376 87.0318 93.8965 87.4729 93.8965 88.017C93.8965 88.5611 94.3376 89.0022 94.8817 89.0022Z" fill="#59A78D"/>
<path d="M96.4154 89.3859C96.9595 89.3859 97.4006 88.9448 97.4006 88.4007C97.4006 87.8566 96.9595 87.4155 96.4154 87.4155C95.8713 87.4155 95.4302 87.8566 95.4302 88.4007C95.4302 88.9448 95.8713 89.3859 96.4154 89.3859Z" fill="#59A78D"/>
<path d="M95.6488 87.8522C96.1929 87.8522 96.634 87.4111 96.634 86.867C96.634 86.3229 96.1929 85.8818 95.6488 85.8818C95.1047 85.8818 94.6636 86.3229 94.6636 86.867C94.6636 87.4111 95.1047 87.8522 95.6488 87.8522Z" fill="#59A78D"/>
<path d="M10.634 82.2022H9.10059V85.0159H10.634V82.2022Z" fill="#59A78D"/>
<path d="M9.16147 82.6427C9.70557 82.6427 10.1467 82.2016 10.1467 81.6575C10.1467 81.1134 9.70557 80.6723 9.16147 80.6723C8.61736 80.6723 8.17627 81.1134 8.17627 81.6575C8.17627 82.2016 8.61736 82.6427 9.16147 82.6427Z" fill="#59A78D"/>
<path d="M10.6952 82.6427C11.2393 82.6427 11.6804 82.2016 11.6804 81.6575C11.6804 81.1134 11.2393 80.6723 10.6952 80.6723C10.151 80.6723 9.70996 81.1134 9.70996 81.6575C9.70996 82.2016 10.151 82.6427 10.6952 82.6427Z" fill="#59A78D"/>
<path d="M9.16147 81.11C9.70557 81.11 10.1467 80.6689 10.1467 80.1248C10.1467 79.5807 9.70557 79.1396 9.16147 79.1396C8.61736 79.1396 8.17627 79.5807 8.17627 80.1248C8.17627 80.6689 8.61736 81.11 9.16147 81.11Z" fill="#59A78D"/>
<path d="M10.6952 81.4927C11.2393 81.4927 11.6804 81.0516 11.6804 80.5075C11.6804 79.9634 11.2393 79.5223 10.6952 79.5223C10.151 79.5223 9.70996 79.9634 9.70996 80.5075C9.70996 81.0516 10.151 81.4927 10.6952 81.4927Z" fill="#59A78D"/>
<path d="M9.92856 79.96C10.4727 79.96 10.9138 79.5189 10.9138 78.9748C10.9138 78.4307 10.4727 77.9896 9.92856 77.9896C9.38445 77.9896 8.94336 78.4307 8.94336 78.9748C8.94336 79.5189 9.38445 79.96 9.92856 79.96Z" fill="#59A78D"/>
<path d="M6.75457 84.4672H5.22119V87.2809H6.75457V84.4672Z" fill="#59A78D"/>
<path d="M5.28256 84.9079C5.82667 84.9079 6.26776 84.4668 6.26776 83.9227C6.26776 83.3786 5.82667 82.9375 5.28256 82.9375C4.73845 82.9375 4.29736 83.3786 4.29736 83.9227C4.29736 84.4668 4.73845 84.9079 5.28256 84.9079Z" fill="#59A78D"/>
<path d="M6.81576 84.9079C7.35987 84.9079 7.80096 84.4668 7.80096 83.9227C7.80096 83.3786 7.35987 82.9375 6.81576 82.9375C6.27165 82.9375 5.83057 83.3786 5.83057 83.9227C5.83057 84.4668 6.27165 84.9079 6.81576 84.9079Z" fill="#59A78D"/>
<path d="M5.28256 83.3749C5.82667 83.3749 6.26776 82.9338 6.26776 82.3897C6.26776 81.8456 5.82667 81.4045 5.28256 81.4045C4.73845 81.4045 4.29736 81.8456 4.29736 82.3897C4.29736 82.9338 4.73845 83.3749 5.28256 83.3749Z" fill="#59A78D"/>
<path d="M6.81576 83.7579C7.35987 83.7579 7.80096 83.3168 7.80096 82.7727C7.80096 82.2286 7.35987 81.7875 6.81576 81.7875C6.27165 81.7875 5.83057 82.2286 5.83057 82.7727C5.83057 83.3168 6.27165 83.7579 6.81576 83.7579Z" fill="#59A78D"/>
<path d="M6.04867 82.2249C6.59278 82.2249 7.03387 81.7838 7.03387 81.2397C7.03387 80.6956 6.59278 80.2545 6.04867 80.2545C5.50456 80.2545 5.06348 80.6956 5.06348 81.2397C5.06348 81.7838 5.50456 82.2249 6.04867 82.2249Z" fill="#59A78D"/>
<path d="M149.854 78.9596H148.321V81.7733H149.854V78.9596Z" fill="#59A78D"/>
<path d="M148.385 79.3963C148.929 79.3963 149.37 78.9552 149.37 78.4111C149.37 77.867 148.929 77.4259 148.385 77.4259C147.841 77.4259 147.4 77.867 147.4 78.4111C147.4 78.9552 147.841 79.3963 148.385 79.3963Z" fill="#59A78D"/>
<path d="M149.919 79.3963C150.463 79.3963 150.904 78.9552 150.904 78.4111C150.904 77.867 150.463 77.4259 149.919 77.4259C149.375 77.4259 148.934 77.867 148.934 78.4111C148.934 78.9552 149.375 79.3963 149.919 79.3963Z" fill="#59A78D"/>
<path d="M148.385 77.8629C148.929 77.8629 149.37 77.4218 149.37 76.8777C149.37 76.3336 148.929 75.8925 148.385 75.8925C147.841 75.8925 147.4 76.3336 147.4 76.8777C147.4 77.4218 147.841 77.8629 148.385 77.8629Z" fill="#59A78D"/>
<path d="M149.919 78.2464C150.463 78.2464 150.904 77.8053 150.904 77.2612C150.904 76.7171 150.463 76.276 149.919 76.276C149.375 76.276 148.934 76.7171 148.934 77.2612C148.934 77.8053 149.375 78.2464 149.919 78.2464Z" fill="#59A78D"/>
<path d="M149.152 76.7129C149.696 76.7129 150.137 76.2718 150.137 75.7277C150.137 75.1835 149.696 74.7425 149.152 74.7425C148.608 74.7425 148.167 75.1835 148.167 75.7277C148.167 76.2718 148.608 76.7129 149.152 76.7129Z" fill="#59A78D"/>
<path d="M110.166 65.7374H108.633V70.8972H110.166V65.7374Z" fill="#59A78D"/>
<path d="M109.376 66.2356C107.586 66.2356 106.133 64.7827 106.133 62.9925C106.133 61.2023 107.586 59.7494 109.376 59.7494C111.167 59.7494 112.62 61.2023 112.62 62.9925C112.62 64.7827 111.167 66.2356 109.376 66.2356ZM109.376 61.2828C108.433 61.2828 107.667 62.0495 107.667 62.9925C107.667 63.9355 108.433 64.7022 109.376 64.7022C110.319 64.7022 111.086 63.9355 111.086 62.9925C111.086 62.0495 110.319 61.2828 109.376 61.2828Z" fill="#59A78D"/>
<path d="M109.966 65.7488C109.334 65.1354 108.989 64.3112 108.989 63.4295C108.989 62.2066 109.667 61.0988 110.756 60.5391L111.454 61.9038C110.879 62.199 110.522 62.7817 110.522 63.4295C110.522 63.8934 110.706 64.3265 111.036 64.6524L109.966 65.7526V65.7488Z" fill="#59A78D"/>
<path d="M109.369 65.4071L107.839 65.296C107.839 64.5369 107.367 63.8814 106.662 63.6514L107.137 62.1947C108.475 62.6317 109.372 63.8699 109.372 65.2768C109.372 65.319 109.372 65.365 109.369 65.4071Z" fill="#59A78D"/>
<path d="M162.377 84.0804H160.844V90.7161H162.377V84.0804Z" fill="#59A78D"/>
<path d="M161.58 84.5104C159.402 84.5104 157.627 82.7394 157.627 80.5581C157.627 78.3769 159.398 76.6058 161.58 76.6058C163.761 76.6058 165.532 78.3769 165.532 80.5581C165.532 82.7394 163.761 84.5104 161.58 84.5104ZM161.58 78.143C160.246 78.143 159.161 79.2279 159.161 80.562C159.161 81.896 160.246 82.9809 161.58 82.9809C162.914 82.9809 163.999 81.896 163.999 80.562C163.999 79.2279 162.914 78.143 161.58 78.143Z" fill="#59A78D"/>
<path d="M162.488 83.9425C161.721 83.195 161.296 82.1906 161.296 81.1173C161.296 79.626 162.12 78.2767 163.45 77.5981L164.148 78.9629C163.335 79.3807 162.829 80.2049 162.829 81.1173C162.829 81.7728 163.086 82.3861 163.558 82.8461L162.488 83.9425Z" fill="#59A78D"/>
<path d="M161.353 83.6506L159.828 83.5164L160.591 83.5854L159.828 83.5241C159.828 82.4469 159.161 81.523 158.164 81.1972L158.639 79.7404C160.269 80.2733 161.361 81.7837 161.361 83.4934C161.361 83.5471 161.361 83.5969 161.357 83.6506H161.353Z" fill="#59A78D"/>
<path d="M158.402 88.294L160.713 90.8815L164.857 89.4402C164.857 89.4402 159.364 88.0908 158.402 88.294Z" fill="#59A78D"/>
<path d="M31.469 98.46C30.9937 98.1955 19.7847 91.9124 15.5296 88.5275C14.6287 87.8106 14.5635 87.0248 14.6632 86.4919C15.3647 82.8157 28.3371 78.6985 30.9285 77.9088L31.3732 79.3771C25.2933 81.2248 16.5569 84.7439 16.1659 86.7794C16.1506 86.8638 16.1161 87.0401 16.4802 87.3276C20.6395 90.6359 32.0977 97.0569 32.2127 97.1221L31.4652 98.46H31.469Z" fill="#59A78D"/>
<path d="M43.7929 98.5901C43.7316 98.5633 37.5061 95.9872 31.3994 93.2731C18.4845 87.5344 18.6378 86.8827 18.8295 86.0586C19.071 85.0235 20.3974 83.4096 28.578 80.0975C32.9826 78.315 37.3566 76.8736 37.4026 76.8583L37.8818 78.315C29.0533 81.2131 21.5436 84.6095 20.4511 86.1506C22.2719 87.6341 33.8681 92.8246 44.3833 97.1756L43.7968 98.5939L43.7929 98.5901Z" fill="#59A78D"/>
<path d="M124.407 102.895L123.602 101.592C126.964 99.5178 128.747 97.1334 128.904 94.5113C129.195 89.6774 123.936 85.4261 123.882 85.3839L124.836 84.184C125.078 84.3757 130.771 88.9682 130.433 94.5957C130.245 97.7506 128.218 100.541 124.407 102.899V102.895Z" fill="#59A78D"/>
<path d="M139.687 97.5284L138.671 96.3783C146.235 89.689 143.325 80.9219 143.295 80.8337L144.744 80.3354C144.778 80.4312 148.006 90.1682 139.687 97.5284Z" fill="#59A78D"/>
<path d="M40.8459 85.1813H39.3125V90.3412H40.8459V85.1813Z" fill="#59A78D"/>
<path d="M40.0556 85.6828C38.2654 85.6828 36.8125 84.2299 36.8125 82.4397C36.8125 80.6495 38.2654 79.1966 40.0556 79.1966C41.8458 79.1966 43.2987 80.6495 43.2987 82.4397C43.2987 84.2299 41.8458 85.6828 40.0556 85.6828ZM40.0556 80.73C39.1126 80.73 38.3459 81.4967 38.3459 82.4397C38.3459 83.3828 39.1126 84.1494 40.0556 84.1494C40.9986 84.1494 41.7653 83.3828 41.7653 82.4397C41.7653 81.4967 40.9986 80.73 40.0556 80.73Z" fill="#59A78D"/>
<path d="M40.646 85.1925C40.0135 84.5792 39.6685 83.755 39.6685 82.8733C39.6685 81.6504 40.347 80.5426 41.4357 79.9829L42.1334 81.3476C41.5583 81.6428 41.2018 82.2254 41.2018 82.8733C41.2018 83.3371 41.3858 83.7703 41.7155 84.0962L40.646 85.1925Z" fill="#59A78D"/>
<path d="M40.0521 84.8588L38.5226 84.7399C38.5226 83.9809 38.0511 83.3292 37.3457 83.0954L37.821 81.6387C39.1589 82.0757 40.056 83.3139 40.056 84.7208C40.056 84.7668 40.056 84.8128 40.0521 84.8588Z" fill="#59A78D"/>
<path d="M35.6552 90.3676L35.4406 89.9498C35.2681 89.6163 34.7391 88.4624 35.2144 87.6191C35.3524 87.3737 35.6936 86.9559 36.4373 86.9022C36.9471 86.8677 37.3611 86.998 37.6908 87.2204C37.7636 87.1207 37.848 87.0249 37.9438 86.9444C38.2582 86.6799 38.6568 86.5802 39.0709 86.6569C40.6426 86.9482 40.7154 89.2981 40.7192 89.5626L40.7269 90.3331L35.6514 90.3638L35.6552 90.3676ZM36.5523 88.4318C36.5523 88.5276 36.5868 88.6733 36.6328 88.8266H37.0813C36.9931 88.6158 36.836 88.4164 36.5523 88.4318ZM38.8715 88.2324C38.8178 88.3666 38.7718 88.5851 38.745 88.8113H39.09C39.0287 88.5468 38.9443 88.3359 38.8715 88.2324Z" fill="#59A78D"/>
<path d="M155.32 88.3845H153.787V92.8428H155.32V88.3845Z" fill="#59A78D"/>
<path d="M153.438 89.0828C154.299 89.0828 154.998 88.3842 154.998 87.5226C154.998 86.6609 154.299 85.9623 153.438 85.9623C152.576 85.9623 151.877 86.6609 151.877 87.5226C151.877 88.3842 152.576 89.0828 153.438 89.0828Z" fill="#59A78D"/>
<path d="M155.868 89.0828C156.73 89.0828 157.428 88.3842 157.428 87.5226C157.428 86.6609 156.73 85.9623 155.868 85.9623C155.006 85.9623 154.308 86.6609 154.308 87.5226C154.308 88.3842 155.006 89.0828 155.868 89.0828Z" fill="#59A78D"/>
<path d="M153.438 86.6525C154.299 86.6525 154.998 85.954 154.998 85.0923C154.998 84.2306 154.299 83.5321 153.438 83.5321C152.576 83.5321 151.877 84.2306 151.877 85.0923C151.877 85.954 152.576 86.6525 153.438 86.6525Z" fill="#59A78D"/>
<path d="M155.868 87.2614C156.73 87.2614 157.428 86.5629 157.428 85.7012C157.428 84.8395 156.73 84.141 155.868 84.141C155.006 84.141 154.308 84.8395 154.308 85.7012C154.308 86.5629 155.006 87.2614 155.868 87.2614Z" fill="#59A78D"/>
<path d="M154.653 84.831C155.514 84.831 156.213 84.1324 156.213 83.2708C156.213 82.4091 155.514 81.7105 154.653 81.7105C153.791 81.7105 153.092 82.4091 153.092 83.2708C153.092 84.1324 153.791 84.831 154.653 84.831Z" fill="#59A78D"/>
<path d="M14.5554 89.1169H13.022V93.7746H14.5554V89.1169Z" fill="#59A78D"/>
<path d="M12.6234 89.8417C13.5231 89.8417 14.2526 89.1123 14.2526 88.2125C14.2526 87.3127 13.5231 86.5833 12.6234 86.5833C11.7236 86.5833 10.9941 87.3127 10.9941 88.2125C10.9941 89.1123 11.7236 89.8417 12.6234 89.8417Z" fill="#59A78D"/>
<path d="M15.1619 89.8417C16.0617 89.8417 16.7911 89.1123 16.7911 88.2125C16.7911 87.3127 16.0617 86.5833 15.1619 86.5833C14.2621 86.5833 13.5327 87.3127 13.5327 88.2125C13.5327 89.1123 14.2621 89.8417 15.1619 89.8417Z" fill="#59A78D"/>
<path d="M12.6234 87.3036C13.5231 87.3036 14.2526 86.5742 14.2526 85.6744C14.2526 84.7746 13.5231 84.0452 12.6234 84.0452C11.7236 84.0452 10.9941 84.7746 10.9941 85.6744C10.9941 86.5742 11.7236 87.3036 12.6234 87.3036Z" fill="#59A78D"/>
<path d="M15.1619 87.9367C16.0617 87.9367 16.7911 87.2073 16.7911 86.3075C16.7911 85.4077 16.0617 84.6783 15.1619 84.6783C14.2621 84.6783 13.5327 85.4077 13.5327 86.3075C13.5327 87.2073 14.2621 87.9367 15.1619 87.9367Z" fill="#59A78D"/>
<path d="M13.8924 85.4022C14.7922 85.4022 15.5216 84.6727 15.5216 83.773C15.5216 82.8732 14.7922 82.1437 13.8924 82.1437C12.9926 82.1437 12.2632 82.8732 12.2632 83.773C12.2632 84.6727 12.9926 85.4022 13.8924 85.4022Z" fill="#59A78D"/>
<path d="M38.1048 115.235C34.7314 115.235 30.9018 114.453 30.6909 114.407L30.7676 114.031C30.8366 114.046 37.5528 115.419 40.9761 114.571L41.0681 114.943C40.217 115.154 39.182 115.235 38.1048 115.235Z" fill="#59A78D"/>
<path d="M32.0937 114.468C32.0937 114.468 31.7104 115.465 33.0713 115.848C34.4321 116.231 34.436 117.163 35.632 117.332C36.8242 117.504 36.9085 116.492 38.3154 116.082C39.7223 115.672 40.3011 114.97 40.3011 114.97C40.3011 114.97 34.0871 115.239 32.0937 114.468Z" fill="#59A78D"/>
<path d="M88.5336 124.964L88.5029 124.581C88.5834 124.573 96.511 123.91 99.5816 122.17L99.7694 122.503C96.626 124.282 88.8594 124.937 88.5336 124.964Z" fill="#59A78D"/>
<path d="M89.898 124.642C89.898 124.642 89.8788 126.271 91.2895 126.275C92.7002 126.279 92.2057 124.925 93.4017 124.772C94.5978 124.615 95.0769 125.301 96.3228 124.523C97.5687 123.749 99.0331 122.737 99.0331 122.737C99.0331 122.737 92.0217 124.849 89.898 124.646V124.642Z" fill="#59A78D"/>
<path d="M76.2396 123.779C76.2396 123.779 70.0179 123.844 68.0552 123.009C68.0552 123.009 67.6412 123.994 68.9867 124.419C70.3323 124.845 69.9106 125.937 71.099 126.144C72.2873 126.355 72.801 125.19 74.2194 124.822C75.6378 124.454 76.2396 123.775 76.2396 123.775" fill="#59A78D"/>
<path d="M143.648 79.7135L124.391 83.9723L124.722 85.4695L143.98 81.2107L143.648 79.7135Z" fill="#59A78D"/>
<path d="M124.603 77.9205L124.277 76.4216L131.192 74.9112L130.951 70.3456L132.484 70.2651L132.791 76.1303L124.603 77.9205Z" fill="#59A78D"/>
<path d="M132.57 74.7873L132.167 76.2666L143.746 79.4257L144.149 77.9464L132.57 74.7873Z" fill="#59A78D"/>
<path d="M115.774 69.2638C104.001 59.2776 87.2531 58.7141 75.2774 59.9983C62.2168 61.3975 51.8282 65.2387 51.7247 65.2808L51.188 63.8433C51.2915 63.8049 61.8335 59.9025 75.078 58.4765C92.6966 56.5827 107.114 59.9063 116.767 68.0946L115.774 69.2638Z" fill="#59A78D"/>
<path d="M103.408 69.6898C101.364 64.6603 99.4323 61.0224 99.4131 60.9841L100.766 60.2634C100.785 60.3017 102.756 64.0086 104.83 69.111L103.408 69.6898Z" fill="#59A78D"/>
<path d="M97.8798 68.6811C95.8442 63.6708 93.7051 59.9945 93.6821 59.9562L95.0047 59.1818C95.0928 59.3352 97.2204 62.9846 99.2981 68.1023L97.8759 68.6811H97.8798Z" fill="#59A78D"/>
<path d="M92.3283 67.7195C90.3157 62.7667 87.6592 59.3932 87.6323 59.3587L88.8322 58.4042C88.9472 58.546 91.6498 61.9731 93.7505 67.1406L92.3283 67.7195Z" fill="#59A78D"/>
<path d="M87.2766 68.5782C85.2602 63.6139 82.1513 59.5504 82.1206 59.5121L83.3358 58.5768C83.47 58.7493 86.5981 62.8395 88.6988 68.0032L87.2766 68.5821V68.5782Z" fill="#59A78D"/>
<path d="M81.4456 67.0908C79.456 62.1917 76.6001 59.6693 76.5732 59.6463L77.5814 58.4886C77.7079 58.5998 80.7402 61.2793 82.8678 66.5158L81.4456 67.0947V67.0908Z" fill="#59A78D"/>
<path d="M75.975 67.2973C73.997 62.4327 71.2676 60.0636 71.2407 60.0406L72.2336 58.8714C72.3563 58.9749 75.2697 61.4781 77.3972 66.7223L75.975 67.3012V67.2973Z" fill="#59A78D"/>
<path d="M70.8383 68.2439C68.8488 63.3486 66.1308 61.0102 66.104 60.9872L67.093 59.818C67.2157 59.9215 70.1291 62.4247 72.2567 67.6689L70.8345 68.2477L70.8383 68.2439Z" fill="#59A78D"/>
<path d="M65.2758 69.5513C63.2978 64.6866 60.5683 62.3176 60.5415 62.2946L61.5344 61.1254C61.657 61.2289 64.5705 63.7321 66.698 68.9763L65.2758 69.5551V69.5513Z" fill="#59A78D"/>
<path d="M60.3578 70.2951C58.3683 65.3998 55.6504 63.0614 55.6235 63.0384L56.6126 61.8692C56.7352 61.9727 59.6487 64.4759 61.7762 69.7201L60.354 70.2989L60.3578 70.2951Z" fill="#59A78D"/>
<path d="M55.7041 70.9315C53.7797 66.1895 51.7134 64.936 51.6904 64.9245L52.4456 63.5905C52.5491 63.648 54.968 65.0433 57.1263 70.3565L55.7041 70.9353V70.9315Z" fill="#59A78D"/>
<path d="M109.403 71.1084C107.363 66.0904 105.401 62.5291 105.381 62.4946L106.723 61.7509C106.742 61.7854 108.751 65.4195 110.825 70.5295L109.403 71.1084Z" fill="#59A78D"/>
<path d="M112.481 72.0778C110.442 67.0598 109.016 64.4377 109 64.4109L110.346 63.6748C110.407 63.7822 111.826 66.3928 113.903 71.5027L112.481 72.0816V72.0778Z" fill="#59A78D"/>
<path d="M74.8635 56.6293H73.3301V59.4431H74.8635V56.6293Z" fill="#59A78D"/>
<path d="M73.3914 57.0661C73.9356 57.0661 74.3766 56.625 74.3766 56.0809C74.3766 55.5368 73.9356 55.0957 73.3914 55.0957C72.8473 55.0957 72.4062 55.5368 72.4062 56.0809C72.4062 56.625 72.8473 57.0661 73.3914 57.0661Z" fill="#59A78D"/>
<path d="M74.9247 57.0661C75.4688 57.0661 75.9098 56.625 75.9098 56.0809C75.9098 55.5368 75.4688 55.0957 74.9247 55.0957C74.3805 55.0957 73.9395 55.5368 73.9395 56.0809C73.9395 56.625 74.3805 57.0661 74.9247 57.0661Z" fill="#59A78D"/>
<path d="M73.3914 55.5334C73.9356 55.5334 74.3766 55.0923 74.3766 54.5482C74.3766 54.0041 73.9356 53.563 73.3914 53.563C72.8473 53.563 72.4062 54.0041 72.4062 54.5482C72.4062 55.0923 72.8473 55.5334 73.3914 55.5334Z" fill="#59A78D"/>
<path d="M74.9247 55.9161C75.4688 55.9161 75.9098 55.475 75.9098 54.9309C75.9098 54.3868 75.4688 53.9457 74.9247 53.9457C74.3805 53.9457 73.9395 54.3868 73.9395 54.9309C73.9395 55.475 74.3805 55.9161 74.9247 55.9161Z" fill="#59A78D"/>
<path d="M74.1581 54.3826C74.7022 54.3826 75.1432 53.9415 75.1432 53.3974C75.1432 52.8533 74.7022 52.4122 74.1581 52.4122C73.6139 52.4122 73.1729 52.8533 73.1729 53.3974C73.1729 53.9415 73.6139 54.3826 74.1581 54.3826Z" fill="#59A78D"/>
<path d="M103.278 59.4269H101.744V61.1942H103.278V59.4269Z" fill="#59A78D"/>
<path d="M102.07 59.6997C102.411 59.6997 102.687 59.4234 102.687 59.0825C102.687 58.7417 102.411 58.4654 102.07 58.4654C101.729 58.4654 101.453 58.7417 101.453 59.0825C101.453 59.4234 101.729 59.6997 102.07 59.6997Z" fill="#59A78D"/>
<path d="M103.032 59.6997C103.373 59.6997 103.649 59.4234 103.649 59.0825C103.649 58.7417 103.373 58.4654 103.032 58.4654C102.691 58.4654 102.415 58.7417 102.415 59.0825C102.415 59.4234 102.691 59.6997 103.032 59.6997Z" fill="#59A78D"/>
<path d="M102.07 58.7375C102.411 58.7375 102.687 58.4612 102.687 58.1204C102.687 57.7795 102.411 57.5032 102.07 57.5032C101.729 57.5032 101.453 57.7795 101.453 58.1204C101.453 58.4612 101.729 58.7375 102.07 58.7375Z" fill="#59A78D"/>
<path d="M103.032 58.9786C103.373 58.9786 103.649 58.7023 103.649 58.3614C103.649 58.0206 103.373 57.7442 103.032 57.7442C102.691 57.7442 102.415 58.0206 102.415 58.3614C102.415 58.7023 102.691 58.9786 103.032 58.9786Z" fill="#59A78D"/>
<path d="M102.549 58.017C102.89 58.017 103.166 57.7407 103.166 57.3998C103.166 57.059 102.89 56.7827 102.549 56.7827C102.208 56.7827 101.932 57.059 101.932 57.3998C101.932 57.7407 102.208 58.017 102.549 58.017Z" fill="#59A78D"/>
<path d="M140.829 93.1511H139.296V97.3257H140.829V93.1511Z" fill="#59A78D"/>
<path d="M139.02 93.7978C139.827 93.7978 140.481 93.1439 140.481 92.3373C140.481 91.5306 139.827 90.8767 139.02 90.8767C138.213 90.8767 137.56 91.5306 137.56 92.3373C137.56 93.1439 138.213 93.7978 139.02 93.7978Z" fill="#59A78D"/>
<path d="M141.294 93.7978C142.1 93.7978 142.754 93.1439 142.754 92.3373C142.754 91.5306 142.1 90.8767 141.294 90.8767C140.487 90.8767 139.833 91.5306 139.833 92.3373C139.833 93.1439 140.487 93.7978 141.294 93.7978Z" fill="#59A78D"/>
<path d="M139.02 91.5249C139.827 91.5249 140.481 90.871 140.481 90.0643C140.481 89.2577 139.827 88.6038 139.02 88.6038C138.213 88.6038 137.56 89.2577 137.56 90.0643C137.56 90.871 138.213 91.5249 139.02 91.5249Z" fill="#59A78D"/>
<path d="M141.294 92.0924C142.1 92.0924 142.754 91.4385 142.754 90.6319C142.754 89.8252 142.1 89.1713 141.294 89.1713C140.487 89.1713 139.833 89.8252 139.833 90.6319C139.833 91.4385 140.487 92.0924 141.294 92.0924Z" fill="#59A78D"/>
<path d="M140.158 89.8189C140.965 89.8189 141.619 89.1649 141.619 88.3583C141.619 87.5517 140.965 86.8978 140.158 86.8978C139.352 86.8978 138.698 87.5517 138.698 88.3583C138.698 89.1649 139.352 89.8189 140.158 89.8189Z" fill="#59A78D"/>
</g>
<defs>
<clipPath id="clip0_395_2597">
<rect width="169" height="142" fill="white"/>
</clipPath>
</defs>
</svg>
