<?xml version="1.0" encoding="utf-8"?>
<svg version="1.1" id="Calque_2_1_" xmlns="http://www.w3.org/2000/svg" xmlns:xlink="http://www.w3.org/1999/xlink" x="0px"
	 y="0px" viewBox="0 0 438.9 245.2" style="enable-background:new 0 0 438.9 245.2;" xml:space="preserve">
<style type="text/css">
	.st0{fill:#FF0000;}
</style>
<g id="Calque_1-2">
	<g>
		<g>
			<path class="st0" d="M235.5,245.2c-10.1,0-21-1.4-31.7-2.8c-12.1-1.6-23.6-3-32.6-2.2c-13.1,1.3-32.3-7.4-50.8-15.7
				c-16.3-7.4-33.3-15-42.3-13.5c-8.3,1.3-22-5.7-40.9-21c-14.4-11.6-27.4-24.5-31.1-28.1c-0.4-0.4-0.8-0.7-1.3-1.1l-0.1-0.1
				c-2.5-1.9-4.7-6.4-4.7-9.4v-34.7c0-3.9,2-8.4,5-10.9c1.8-1.5,3.8-2.2,5.7-1.8c6.7,1.1,13.4,4.2,21.1,7.8
				c10.4,4.8,23.3,10.8,41.8,14.5c7.7,1.6,17.1,1.7,27.1,1.8c9.7,0.1,19.7,0.2,29.5,1.6c2.3,0,35.1,0.6,67.6,4.4
				c9.4,1.1,18.5,2.8,27.4,4.4c14.3,2.6,26.6,4.9,35.3,3.8l0.3,2l-0.3-2c8.1-1.1,16.8-0.5,26,0.1c15.3,1,31.1,2,45.9-4.6
				c27-12,46.7-16.5,64.1-20.6c12.9-3,24-5.6,35.3-10.6c1.5-0.6,3.1-0.5,4.5,0.4c1.6,1.1,2.6,3,2.6,5.2v36.6c0,3.3-0.8,4.5-2.3,6.6
				c-0.8,1.1-1.9,2.6-3.4,5.2c-5.7,10.1-13.9,18.6-23.8,24.6c-13.3,8.1-38.1,23.4-55.7,34.3c-15.1,9.3-34.1,11.1-52.5,12.8
				c-14.9,1.4-29,2.7-39.6,8C254.1,243.9,245.1,245.2,235.5,245.2L235.5,245.2z M177,236c8.2,0,17.5,1.2,27.3,2.5
				c20.3,2.6,41.2,5.3,55.6-1.9c11.2-5.6,25.7-6.9,41-8.4c17.9-1.7,36.5-3.4,50.7-12.2c17.6-10.9,42.5-26.1,55.7-34.3
				c9.3-5.7,17-13.7,22.4-23.1c1.6-2.9,2.8-4.5,3.7-5.7c1.2-1.6,1.5-2,1.5-4.1v-36.6c0-0.9-0.4-1.6-0.8-1.8
				c-0.3-0.2-0.5-0.1-0.6-0.1c-11.7,5.2-23,7.8-36,10.8c-17.2,4-36.7,8.5-63.4,20.3c-15.6,6.9-31.9,5.9-47.7,4.9
				c-9-0.6-17.5-1.1-25.2-0.1l0,0c-9.3,1.2-21.9-1.1-36.6-3.8c-8.8-1.6-17.8-3.3-27.1-4.4c-33.3-3.9-67-4.3-67.3-4.3l-0.3,0
				c-9.7-1.4-19.6-1.5-29.2-1.6c-10.2-0.1-19.8-0.2-27.9-1.9c-18.9-3.8-32.1-9.9-42.6-14.8c-7.5-3.4-13.9-6.4-20.1-7.5
				c-0.9-0.2-1.8,0.4-2.4,0.9c-2,1.7-3.5,5.1-3.5,7.8v34.7c0,1.8,1.7,5.1,3.1,6.2l0.1,0.1c0.6,0.4,1.2,0.9,1.7,1.4
				c18.8,18.9,54.3,50.2,68.5,48c10.2-1.6,26.9,5.9,44.6,13.8c18.1,8.1,36.7,16.5,48.8,15.4C172.8,236.1,174.9,236,177,236L177,236z
				"/>
			<path class="st0" d="M7.6,108.8l-2.5-3.1c0.3-0.2,7.3-5.7,29.7-14.3c1.3-0.6,17.6-7.8,45.9-13.3c26.6-5.2,69.1-9.6,120.6-1.6
				l-0.6,3.9c-50.9-7.9-92.8-3.5-119.1,1.6c-28.4,5.5-45,13-45.2,13.1L36.3,95C14.6,103.4,7.7,108.7,7.6,108.8L7.6,108.8z"/>
			<path class="st0" d="M434.4,110.5c-9.7-4.9-21.4-4.2-21.5-4.1l-0.3-4c0.5,0,12.9-0.8,23.6,4.6L434.4,110.5L434.4,110.5z"/>
			<path class="st0" d="M288,231.5c4.7,1.4,50.8-6.8,56.7-8.8c5.9-2.1,63.3-36.7,71.4-44.8c8-8.1,20.8-25.6,20.8-25.6s0-18.4-1.6-12
				c-0.3,1.4-0.9,3.1-1.6,5.1c-3.1,9.3-7.2,17.6-20.4,22.7c-1.9,0.7-7.5,7.1-8.8,10.2c-4.8,11.5-17.1,11.4-27.7,19.3
				c-10.6,7.9-22-1.7-25.4,8.4c-2.8,8.4-10,11.9-23.1,14.8c-2.5,0.5-20.5-0.8-22.8-0.3c-9.3,1.9-12.5,0.9-13.8,0.9
				c-1.1,0-3.8-0.3-7-0.8c-10.8-1.5-21.8-0.3-32,3.6c-8.9,3.4-17.5,7-17.5,7c-8.3,5.2-24.7,4-33.5,4.6c-9.4,0.7-16.5-10.8-27.5-11.5
				c-3.1-0.2-13.8,8.5-32.9,2.9c-8.8-2.6-13.4-7.9-15.8-12.8c-2.3-4.7-7.2-7.8-12.5-7.5c-5.9,0.3-11.2-3.2-29.5-3.5
				c-12.8-0.2-19.7-5.5-23.3-10.9c-3.6-5.4-9.2-9.1-15.6-9.9C24.1,179.7,2,149.3,2,149.3v4.9c0,0,46.6,42,55.4,49.2
				c8.9,7.3,23.8,5.4,29.4,6.1s71.2,30.9,80.2,28.8c9-2.1,74.3,5.9,78.2,5.5c3.9-0.3,11.7-4.9,11.7-4.9L288,231.5L288,231.5z"/>
			<path class="st0" d="M265.9,148.6c4.4-0.7,2.3-1.4,19-1.2c0.1,0,7.7,2.3,13,4.5c7.5,3.2,8.4,3.1,15-1.7c3.2-2.4,9.4-5.1,21.1-7
				c3.9-0.6,7.9-0.5,11.8,0.1c3.5,0.5,8.3,0.5,11.1-3c4.9-5.9,14.1-12.9,23.2-11.1c9.1,1.8,19.8-9.4,28.6-10.6
				c8.8-1.2,17.9,3.1,22-2.9c0,0,6-7.6,1.8-7.3s-29.3,9.8-47.1,13.8c-17.8,4-61.5,25.6-79.8,24.3c-18.3-1.3-41.4-2.3-41.4-2.3
				c-13.1,0.9-70.1-5.8-76.5-9.2s-74.9-4.2-74.9-4.2c-12.1-0.2-37.7,0.6-50.8-4.7c-13-5.3-48-18.8-48-18.8v1.4
				c0,0,6.8,6.3,13.6,12.1c6.8,5.8,10.9,1.3,17.4,4.5c6.5,3.2,14.6,9.9,23.6,9.2c9-0.7,16.1,7,24.3,10.5c7.2,3.1,9.7-3.1,15.7-4.1
				c2.4-0.4,4.8-1,7.2-1.7c5.2-1.6,28.3,3.7,44.2,7c24.3,5.1,27.9-2.1,45.1-2.7c17.2-0.6,11.7,5.5,33.3,5.9S265.9,148.5,265.9,148.6
				L265.9,148.6z"/>
			<path class="st0" d="M429,113.1c0,0,5.2,1,5.7,7.1c1.1,13.2,1.5-12.7,1.5-12.7L429,113.1z"/>
			<path class="st0" d="M14,108.2c0,0-10.7-0.8-11,32.2L2,114c0,0,4.1-10.2,9.5-9.9C16.8,104.3,14,108.2,14,108.2L14,108.2z"/>
			<path class="st0" d="M51.4,158.6c-9.4-0.4-24.9-8.6-25.6-8.9l0.5-0.9c0.2,0.1,16,8.4,25.2,8.8L51.4,158.6L51.4,158.6z"/>
			<path class="st0" d="M29.3,150.8c0,0-1.7,2.8,1.4,5.3s3.1,0.8,6,2.5s3.1,3.1,7,3.1s4.5-4.1,4.5-4.1S33.7,153.6,29.3,150.8
				L29.3,150.8z"/>
			<path class="st0" d="M86.9,152.3c-9.4-0.4-24.9-8.6-25.6-8.9l0.5-0.9c0.2,0.1,16,8.4,25.2,8.8L86.9,152.3z"/>
			<path class="st0" d="M64.8,144.6c0,0-1.7,2.2,1.4,4.2c3.1,1.9,2.9,3.1,5.8,4.4c2.9,1.3,3.3,0,7.2,0s5.8-1.3,5.8-1.3
				S69.2,147.9,64.8,144.6L64.8,144.6z"/>
			<path class="st0" d="M143.5,175.8c-7.7,0-11.6-1.6-13.4-2.8l0.6-0.8c2.6,1.8,9.7,4.3,27.2,1.3l0.2,1
				C152.1,175.4,147.3,175.8,143.5,175.8z"/>
			<path class="st0" d="M133.7,173.9c0,0-0.9,1.9,2.7,2.9s3.1,2.9,6.2,3.3c1.4,0.2,3.5-4,4.8-3.6c2.5,0.8,5.3,0.3,7.3-1.4
				c0.4-0.4,0.6-0.6,0.6-0.6S138.9,175.9,133.7,173.9L133.7,173.9z"/>
			<path class="st0" d="M237.6,173.3c-8.8,0-18.8-2-19.3-2.2l0.2-1c0.2,0,17.7,3.6,26.6,1.4l0.2,1
				C243.1,173.1,240.4,173.3,237.6,173.3L237.6,173.3z"/>
			<path class="st0" d="M221.9,171.3c0,0-1,2.6,2.6,3.6s3.6,3.4,6.7,3.9c3.1,0.4,3.3-2.2,7-3.3s5.2-2.9,5.2-2.9
				S227.1,173.3,221.9,171.3L221.9,171.3z"/>
			<path class="st0" d="M324.4,163.3c-4.3,0-7.5-0.2-7.8-0.3l0.1-1c0.2,0,18,1.2,26.6-2.1l0.4,0.9
				C338.5,162.8,330.4,163.3,324.4,163.3L324.4,163.3z"/>
			<path class="st0" d="M320.2,162.7c0,0-0.6,2.7,3,3.2c3.6,0.5,6,2.3,9.2,2.3c3.1,0,1-2,4.5-3.5c3.5-1.6,4.8-3.6,4.8-3.6
				S325.6,164,320.2,162.7L320.2,162.7z"/>
			<path class="st0" d="M283.2,191.7c-4.3,0-7.5-0.2-7.9-0.3l0.1-1c0.2,0,18,1.2,26.6-2.1l0.4,0.9
				C297.3,191.3,289.2,191.7,283.2,191.7L283.2,191.7z"/>
			<path class="st0" d="M279,191.1c0,0-1.8,1.4,1.8,1.9s4.3,0.7,7.4,0.7c3.1,0,5.6,1.9,9.1,0.3c3.5-1.6,3-4.4,3-4.4
				S284.4,192.4,279,191.1L279,191.1z"/>
			<path class="st0" d="M352.5,181.1l-0.1-1c0.2,0,20.9-1.8,28.9-6.3l0.5,0.9C373.6,179.3,353.4,181.1,352.5,181.1z"/>
			<path class="st0" d="M356.1,180.3c0,0,0,4.3,3.6,4.3s2.4-3.5,5.5-3.9s4.4,1.4,7.6-0.6s7.1-4.7,7.1-4.7S361.6,180.8,356.1,180.3
				L356.1,180.3z"/>
			<path class="st0" d="M385.2,147.1c0,0-0.3,2.8,3.4,2.8c3.7,0,3.5,3.1,6.6,2.6s3.5-3.7,6.7-5.7c3.3-2,4.2-4.2,4.2-4.2
				S390.7,147.6,385.2,147.1z"/>
		</g>
		<path class="st0" d="M304.5,107.5c-39.7-31.9-85.8-31.2-117.4-25.1c-34.4,6.7-59.6,21.2-59.8,21.3l-2-3.5
			c0.3-0.2,26-14.9,61.1-21.8c32.4-6.3,79.7-7,120.7,25.9L304.5,107.5z"/>
		<path class="st0" d="M418.6,114c-11.1-11.8-24.2-21.4-39-28.6l1.8-3.6c15.2,7.4,28.8,17.3,40.2,29.5L418.6,114L418.6,114z"/>
		<path class="st0" d="M226,79l-1.2-3.8c0.4-0.1,44.3-14,94.3-9.7l-0.3,4C269.6,65.3,226.5,78.9,226,79z"/>
		<path class="st0" d="M95.3,79.5l-2.1-3.4c0.9-0.6,23.1-13.9,61.3-22.1c35.2-7.5,91-11.7,157,11l-1.3,3.8
			c-65.1-22.4-120.1-18.3-154.7-10.9C118,65.8,95.6,79.3,95.3,79.5L95.3,79.5z"/>
		<polygon class="st0" points="62,84.1 61.3,57.4 73.6,41 87.3,57.8 88.4,79.7 84.4,79.9 83.4,59.3 73.8,47.5 65.4,58.7 65.9,84 		
			"/>
		<polygon class="st0" points="73.6,41 64.1,43 55.3,56.3 55.3,84.6 64.2,83 63.3,57.8 		"/>
		<path class="st0" d="M95.1,78.4l-1.4-48.9L100.4,0l10.9,29.9l0.8,41.5L95.1,78.4L95.1,78.4z M97.7,29.9l1.2,42.6l9-3.8l-0.7-38.1
			l-6-16.5L97.7,29.9L97.7,29.9z"/>
		<polygon class="st0" points="94,28.7 89,39.4 90,77.2 97.9,76.4 		"/>
		<polygon class="st0" points="90.5,52.1 85.2,44.8 80.9,51.7 77.5,49.6 84.9,37.6 93.7,49.7 		"/>
		<polygon class="st0" points="36.2,90.9 36,77.2 56.5,65.7 58.4,69.1 40,79.5 40.2,90.8 		"/>
		<polygon class="st0" points="36.1,77.1 31.1,82 31.1,94.2 38.8,90.8 		"/>
		<polygon class="st0" points="123.6,63 122.9,52.1 116.7,45.8 111.5,49.5 109.2,46.3 117.1,40.5 126.8,50.4 127.6,62.8 		"/>
		<polygon class="st0" points="136.7,58.7 135.4,46.5 128.5,38.1 122.1,47.9 118.8,45.7 128.1,31.4 139.2,44.9 140.7,58.3 		"/>
		<polygon class="st0" points="128.1,31.5 117.7,42.1 120.2,45.7 		"/>
		<polygon class="st0" points="317.7,98.3 316.3,43.6 349.8,18.5 381.6,40.9 383.5,85.2 379.5,85.4 377.7,43 349.9,23.4 320.3,45.5 
			321.7,98.3 		"/>
		<polygon class="st0" points="349.8,18.5 322.8,19.9 295.7,40 296.4,91.7 317.9,98.4 317,51.2 318.4,44.3 		"/>
		
			<rect x="318.5" y="54.8" transform="matrix(0.9919 -0.1269 0.1269 0.9919 -4.3896 44.7574)" class="st0" width="61.1" height="4"/>
		
			<rect x="326.9" y="36.9" transform="matrix(0.9998 -2.216387e-02 2.216387e-02 0.9998 -0.9762 7.3018)" class="st0" width="4" height="21.5"/>
		
			<rect x="365.3" y="33.1" transform="matrix(0.9979 -6.540313e-02 6.540313e-02 0.9979 -2.0327 24.1158)" class="st0" width="4" height="20.1"/>
		
			<rect x="336.6" y="29.9" transform="matrix(0.9992 -3.925982e-02 3.925982e-02 0.9992 -1.4487 13.3289)" class="st0" width="4" height="27.4"/>
		
			<rect x="353.6" y="25" transform="matrix(0.9989 -4.780380e-02 4.780380e-02 0.9989 -1.5205 17.0475)" class="st0" width="4" height="30.6"/>
		
			<rect x="345.8" y="23.2" transform="matrix(0.9999 -1.535829e-02 1.535829e-02 0.9999 -0.5709 5.3459)" class="st0" width="4" height="33.4"/>
		
			<rect x="318.1" y="43.7" transform="matrix(0.9969 -7.845910e-02 7.845910e-02 0.9969 -2.5069 27.5449)" class="st0" width="62.4" height="4"/>
		<polygon class="st0" points="326.8,98.4 317.8,98.2 317.9,94.2 322.8,94.3 322.6,60 326.6,60 		"/>
		<polygon class="st0" points="382.1,86.7 373.8,85.7 371.7,53.9 375.7,53.6 377.6,82.1 382.5,82.7 		"/>
		<path class="st0" d="M139.1,75.8l-2.4-3.2c0.2-0.1,18.4-13.7,36.3-21.8l1.6,3.7C157.1,62.3,139.3,75.6,139.1,75.8z"/>
		<path class="st0" d="M159.3,76.1l-2.7-3c0.7-0.7,18-16.1,35.9-24.2l1.6,3.7C176.7,60.4,159.4,75.9,159.3,76.1z"/>
		<path class="st0" d="M179.3,76.4l-2.9-2.8c0.7-0.7,17.3-17.5,35.3-25.6l1.6,3.7C196,59.5,179.5,76.2,179.3,76.4L179.3,76.4z"/>
		<path class="st0" d="M197.1,78.8l-2.9-2.8c0.7-0.8,18.1-19,36.2-27.1l1.6,3.7C214.7,60.4,197.3,78.6,197.1,78.8L197.1,78.8z"/>
		<path class="st0" d="M219.7,78.5l-3-2.7c0.6-0.7,15.1-17,33.2-25.2l1.6,3.7C234.3,62.1,219.9,78.3,219.7,78.5z"/>
		<path class="st0" d="M238.8,75.6l-2.5-3.2c0.6-0.4,13.9-10.9,31.9-18.9l1.6,3.7C252.4,65,238.9,75.5,238.8,75.6L238.8,75.6z"/>
		<path class="st0" d="M268.1,70.4l-0.5-4c0.2,0,4.4-0.7,21.4-8.4l1.6,3.7C273,69.7,268.5,70.4,268.1,70.4L268.1,70.4z"/>
		<path class="st0" d="M118.4,76.5l-2.4-3.2c0.7-0.5,17.4-13.2,22.1-15.4l1.7,3.6C136.2,63.2,123.2,72.9,118.4,76.5z"/>
		<g>
			<rect x="140.5" y="100.3" class="st0" width="4" height="7.3"/>
			<circle class="st0" cx="140.7" cy="98.9" r="2.6"/>
			<circle class="st0" cx="144.7" cy="98.9" r="2.6"/>
			<circle class="st0" cx="140.7" cy="94.9" r="2.6"/>
			<circle class="st0" cx="144.7" cy="95.9" r="2.6"/>
			<circle class="st0" cx="142.7" cy="91.9" r="2.6"/>
		</g>
		<g>
			<rect x="153.1" y="95.2" class="st0" width="4" height="7.3"/>
			<circle class="st0" cx="153.3" cy="93.8" r="2.6"/>
			<circle class="st0" cx="157.3" cy="93.8" r="2.6"/>
			<circle class="st0" cx="153.3" cy="89.8" r="2.6"/>
			<circle class="st0" cx="157.3" cy="90.8" r="2.6"/>
			<circle class="st0" cx="155.3" cy="86.8" r="2.6"/>
		</g>
		<g>
			<rect x="165.9" y="91.9" class="st0" width="4" height="7.3"/>
			<circle class="st0" cx="166" cy="90.5" r="2.6"/>
			<circle class="st0" cx="170" cy="90.5" r="2.6"/>
			<circle class="st0" cx="166" cy="86.5" r="2.6"/>
			<circle class="st0" cx="170" cy="87.5" r="2.6"/>
			<circle class="st0" cx="168" cy="83.5" r="2.6"/>
		</g>
		<g>
			<rect x="178.2" y="87.4" class="st0" width="4" height="7.3"/>
			<circle class="st0" cx="178.4" cy="86" r="2.6"/>
			<circle class="st0" cx="182.4" cy="86" r="2.6"/>
			<circle class="st0" cx="178.4" cy="82" r="2.6"/>
			<circle class="st0" cx="182.4" cy="83" r="2.6"/>
			<circle class="st0" cx="180.4" cy="79" r="2.6"/>
		</g>
		<g>
			<rect x="204.6" y="80.3" class="st0" width="4" height="7.3"/>
			<circle class="st0" cx="204.8" cy="78.8" r="2.6"/>
			<circle class="st0" cx="208.8" cy="78.8" r="2.6"/>
			<circle class="st0" cx="204.8" cy="74.8" r="2.6"/>
			<circle class="st0" cx="208.8" cy="75.8" r="2.6"/>
			<circle class="st0" cx="206.8" cy="71.8" r="2.6"/>
		</g>
		<g>
			<rect x="231.7" y="78.8" class="st0" width="4" height="7.3"/>
			<circle class="st0" cx="231.9" cy="77.4" r="2.6"/>
			<circle class="st0" cx="235.9" cy="77.4" r="2.6"/>
			<circle class="st0" cx="231.9" cy="73.4" r="2.6"/>
			<circle class="st0" cx="235.9" cy="74.4" r="2.6"/>
			<circle class="st0" cx="233.9" cy="70.4" r="2.6"/>
		</g>
		<g>
			<rect x="255.8" y="83.8" class="st0" width="4" height="7.3"/>
			<circle class="st0" cx="255.9" cy="82.4" r="2.6"/>
			<circle class="st0" cx="259.9" cy="82.4" r="2.6"/>
			<circle class="st0" cx="255.9" cy="78.4" r="2.6"/>
			<circle class="st0" cx="259.9" cy="79.4" r="2.6"/>
			<circle class="st0" cx="257.9" cy="75.4" r="2.6"/>
		</g>
		<g>
			<rect x="267.7" y="90" class="st0" width="4" height="7.3"/>
			<circle class="st0" cx="267.9" cy="88.6" r="2.6"/>
			<circle class="st0" cx="271.9" cy="88.6" r="2.6"/>
			<circle class="st0" cx="267.9" cy="84.6" r="2.6"/>
			<circle class="st0" cx="271.9" cy="85.6" r="2.6"/>
			<circle class="st0" cx="269.9" cy="81.6" r="2.6"/>
		</g>
		<g>
			<rect x="279.8" y="95" class="st0" width="4" height="7.3"/>
			<circle class="st0" cx="279.9" cy="93.6" r="2.6"/>
			<circle class="st0" cx="283.9" cy="93.6" r="2.6"/>
			<circle class="st0" cx="279.9" cy="89.6" r="2.6"/>
			<circle class="st0" cx="283.9" cy="90.6" r="2.6"/>
			<circle class="st0" cx="281.9" cy="86.6" r="2.6"/>
		</g>
		<g>
			<rect x="291.3" y="102.3" class="st0" width="4" height="7.3"/>
			<circle class="st0" cx="291.5" cy="100.9" r="2.6"/>
			<circle class="st0" cx="295.5" cy="100.9" r="2.6"/>
			<circle class="st0" cx="291.5" cy="96.9" r="2.6"/>
			<circle class="st0" cx="295.5" cy="97.9" r="2.6"/>
			<circle class="st0" cx="293.5" cy="93.9" r="2.6"/>
		</g>
		<g>
			<rect x="174" y="100.2" class="st0" width="4" height="7.3"/>
			<circle class="st0" cx="174.2" cy="98.7" r="2.6"/>
			<circle class="st0" cx="178.2" cy="98.7" r="2.6"/>
			<circle class="st0" cx="174.2" cy="94.7" r="2.6"/>
			<circle class="st0" cx="178.2" cy="95.7" r="2.6"/>
			<circle class="st0" cx="176.2" cy="91.7" r="2.6"/>
		</g>
		<g>
			<rect x="186.7" y="97.1" class="st0" width="4" height="7.3"/>
			<circle class="st0" cx="186.9" cy="95.7" r="2.6"/>
			<circle class="st0" cx="190.9" cy="95.7" r="2.6"/>
			<circle class="st0" cx="186.9" cy="91.7" r="2.6"/>
			<circle class="st0" cx="190.9" cy="92.7" r="2.6"/>
			<circle class="st0" cx="188.9" cy="88.7" r="2.6"/>
		</g>
		<g>
			<rect x="199.4" y="92.9" class="st0" width="4" height="7.3"/>
			<circle class="st0" cx="199.6" cy="91.4" r="2.6"/>
			<circle class="st0" cx="203.6" cy="91.4" r="2.6"/>
			<circle class="st0" cx="199.6" cy="87.4" r="2.6"/>
			<circle class="st0" cx="203.6" cy="88.4" r="2.6"/>
			<circle class="st0" cx="201.6" cy="84.4" r="2.6"/>
		</g>
		<g>
			<rect x="212.4" y="91.4" class="st0" width="4" height="7.3"/>
			<circle class="st0" cx="212.6" cy="90" r="2.6"/>
			<circle class="st0" cx="216.6" cy="90" r="2.6"/>
			<circle class="st0" cx="212.6" cy="86" r="2.6"/>
			<circle class="st0" cx="216.6" cy="87" r="2.6"/>
			<circle class="st0" cx="214.6" cy="83" r="2.6"/>
		</g>
		<g>
			<rect x="224.4" y="89.6" class="st0" width="4" height="7.3"/>
			<circle class="st0" cx="224.6" cy="88.1" r="2.6"/>
			<circle class="st0" cx="228.6" cy="88.1" r="2.6"/>
			<circle class="st0" cx="224.6" cy="84.1" r="2.6"/>
			<circle class="st0" cx="228.6" cy="85.1" r="2.6"/>
			<circle class="st0" cx="226.6" cy="81.1" r="2.6"/>
		</g>
		<g>
			<rect x="239.2" y="92.4" class="st0" width="4" height="7.3"/>
			<circle class="st0" cx="239.4" cy="91" r="2.6"/>
			<circle class="st0" cx="243.4" cy="91" r="2.6"/>
			<circle class="st0" cx="239.4" cy="87" r="2.6"/>
			<circle class="st0" cx="243.4" cy="88" r="2.6"/>
			<circle class="st0" cx="241.4" cy="84" r="2.6"/>
		</g>
		<g>
			<rect x="251" y="95.2" class="st0" width="4" height="7.3"/>
			<circle class="st0" cx="251.2" cy="93.8" r="2.6"/>
			<circle class="st0" cx="255.2" cy="93.8" r="2.6"/>
			<circle class="st0" cx="251.2" cy="89.8" r="2.6"/>
			<circle class="st0" cx="255.2" cy="90.8" r="2.6"/>
			<circle class="st0" cx="253.2" cy="86.8" r="2.6"/>
		</g>
		<g>
			<rect x="263.3" y="99.3" class="st0" width="4" height="7.3"/>
			<circle class="st0" cx="263.5" cy="97.9" r="2.6"/>
			<circle class="st0" cx="267.5" cy="97.9" r="2.6"/>
			<circle class="st0" cx="263.5" cy="93.9" r="2.6"/>
			<circle class="st0" cx="267.5" cy="94.9" r="2.6"/>
			<circle class="st0" cx="265.5" cy="90.9" r="2.6"/>
		</g>
		<g>
			<rect x="274.5" y="105" class="st0" width="4" height="7.3"/>
			<circle class="st0" cx="274.6" cy="103.5" r="2.6"/>
			<circle class="st0" cx="278.6" cy="103.5" r="2.6"/>
			<circle class="st0" cx="274.6" cy="99.5" r="2.6"/>
			<circle class="st0" cx="278.6" cy="100.5" r="2.6"/>
			<circle class="st0" cx="276.6" cy="96.5" r="2.6"/>
		</g>
		<g>
			<rect x="168.6" y="115.4" class="st0" width="4" height="7.3"/>
			<circle class="st0" cx="168.8" cy="113.9" r="2.6"/>
			<circle class="st0" cx="172.8" cy="113.9" r="2.6"/>
			<circle class="st0" cx="168.8" cy="109.9" r="2.6"/>
			<circle class="st0" cx="172.8" cy="110.9" r="2.6"/>
			<circle class="st0" cx="170.8" cy="106.9" r="2.6"/>
		</g>
		<g>
			<rect x="157.3" y="117.2" class="st0" width="4" height="7.3"/>
			<circle class="st0" cx="157.4" cy="115.8" r="2.6"/>
			<circle class="st0" cx="161.4" cy="115.8" r="2.6"/>
			<circle class="st0" cx="157.4" cy="111.8" r="2.6"/>
			<circle class="st0" cx="161.4" cy="112.8" r="2.6"/>
			<circle class="st0" cx="159.4" cy="108.8" r="2.6"/>
		</g>
		<g>
			<rect x="176.5" y="125.8" class="st0" width="4" height="7.3"/>
			<circle class="st0" cx="176.7" cy="124.3" r="2.6"/>
			<circle class="st0" cx="180.7" cy="124.3" r="2.6"/>
			<circle class="st0" cx="176.7" cy="120.3" r="2.6"/>
			<circle class="st0" cx="180.7" cy="121.3" r="2.6"/>
			<circle class="st0" cx="178.7" cy="117.3" r="2.6"/>
		</g>
		<g>
			<rect x="187.3" y="118" class="st0" width="4" height="7.3"/>
			<circle class="st0" cx="187.4" cy="116.6" r="2.6"/>
			<circle class="st0" cx="191.4" cy="116.6" r="2.6"/>
			<circle class="st0" cx="187.4" cy="112.6" r="2.6"/>
			<circle class="st0" cx="191.4" cy="113.6" r="2.6"/>
			<circle class="st0" cx="189.4" cy="109.6" r="2.6"/>
		</g>
		<g>
			<rect x="203.6" y="114.9" class="st0" width="4" height="7.3"/>
			<circle class="st0" cx="203.7" cy="113.5" r="2.6"/>
			<circle class="st0" cx="207.7" cy="113.5" r="2.6"/>
			<circle class="st0" cx="203.7" cy="109.5" r="2.6"/>
			<circle class="st0" cx="207.7" cy="110.5" r="2.6"/>
			<circle class="st0" cx="205.7" cy="106.5" r="2.6"/>
		</g>
		<g>
			<rect x="216.9" y="113.8" class="st0" width="4" height="7.3"/>
			<circle class="st0" cx="217.1" cy="112.4" r="2.6"/>
			<circle class="st0" cx="221.1" cy="112.4" r="2.6"/>
			<circle class="st0" cx="217.1" cy="108.4" r="2.6"/>
			<circle class="st0" cx="221.1" cy="109.4" r="2.6"/>
			<circle class="st0" cx="219.1" cy="105.4" r="2.6"/>
		</g>
		<g>
			<rect x="229.2" y="116.3" class="st0" width="4" height="7.3"/>
			<circle class="st0" cx="229.3" cy="114.9" r="2.6"/>
			<circle class="st0" cx="233.3" cy="114.9" r="2.6"/>
			<circle class="st0" cx="229.3" cy="110.9" r="2.6"/>
			<circle class="st0" cx="233.3" cy="111.9" r="2.6"/>
			<circle class="st0" cx="231.3" cy="107.9" r="2.6"/>
		</g>
		<g>
			<rect x="190.8" y="132" class="st0" width="4" height="7.3"/>
			<circle class="st0" cx="190.9" cy="130.6" r="2.6"/>
			<circle class="st0" cx="194.9" cy="130.6" r="2.6"/>
			<circle class="st0" cx="190.9" cy="126.6" r="2.6"/>
			<circle class="st0" cx="194.9" cy="127.6" r="2.6"/>
			<circle class="st0" cx="192.9" cy="123.6" r="2.6"/>
		</g>
		<g>
			<rect x="211" y="125.8" class="st0" width="4" height="7.3"/>
			<circle class="st0" cx="211.2" cy="124.4" r="2.6"/>
			<circle class="st0" cx="215.2" cy="124.4" r="2.6"/>
			<circle class="st0" cx="211.2" cy="120.4" r="2.6"/>
			<circle class="st0" cx="215.2" cy="121.4" r="2.6"/>
			<circle class="st0" cx="213.2" cy="117.4" r="2.6"/>
		</g>
		<g>
			<rect x="227.5" y="136.4" class="st0" width="4" height="7.3"/>
			<circle class="st0" cx="227.6" cy="135" r="2.6"/>
			<circle class="st0" cx="231.6" cy="135" r="2.6"/>
			<circle class="st0" cx="227.6" cy="131" r="2.6"/>
			<circle class="st0" cx="231.6" cy="132" r="2.6"/>
			<circle class="st0" cx="229.6" cy="128" r="2.6"/>
		</g>
		<g>
			<rect x="234.9" y="126.6" class="st0" width="4" height="7.3"/>
			<circle class="st0" cx="235.1" cy="125.2" r="2.6"/>
			<circle class="st0" cx="239.1" cy="125.2" r="2.6"/>
			<circle class="st0" cx="235.1" cy="121.2" r="2.6"/>
			<circle class="st0" cx="239.1" cy="122.2" r="2.6"/>
			<circle class="st0" cx="237.1" cy="118.2" r="2.6"/>
		</g>
		<g>
			<rect x="241.9" y="135.7" class="st0" width="4" height="7.3"/>
			<circle class="st0" cx="242.1" cy="134.3" r="2.6"/>
			<circle class="st0" cx="246.1" cy="134.3" r="2.6"/>
			<circle class="st0" cx="242.1" cy="130.3" r="2.6"/>
			<circle class="st0" cx="246.1" cy="131.3" r="2.6"/>
			<circle class="st0" cx="244.1" cy="127.3" r="2.6"/>
		</g>
		<g>
			<rect x="251.8" y="123.1" class="st0" width="4" height="7.3"/>
			<circle class="st0" cx="252" cy="121.6" r="2.6"/>
			<circle class="st0" cx="256" cy="121.6" r="2.6"/>
			<circle class="st0" cx="252" cy="117.6" r="2.6"/>
			<circle class="st0" cx="256" cy="118.6" r="2.6"/>
			<circle class="st0" cx="254" cy="114.6" r="2.6"/>
		</g>
		<g>
			<rect x="271.9" y="120" class="st0" width="4" height="7.3"/>
			<circle class="st0" cx="272.1" cy="118.6" r="2.6"/>
			<circle class="st0" cx="276.1" cy="118.6" r="2.6"/>
			<circle class="st0" cx="272.1" cy="114.6" r="2.6"/>
			<circle class="st0" cx="276.1" cy="115.6" r="2.6"/>
			<circle class="st0" cx="274.1" cy="111.6" r="2.6"/>
		</g>
		<g>
			<rect x="264.1" y="126.3" class="st0" width="4" height="7.3"/>
			<circle class="st0" cx="264.3" cy="124.9" r="2.6"/>
			<circle class="st0" cx="268.3" cy="124.9" r="2.6"/>
			<circle class="st0" cx="264.3" cy="120.9" r="2.6"/>
			<circle class="st0" cx="268.3" cy="121.9" r="2.6"/>
			<circle class="st0" cx="266.3" cy="117.9" r="2.6"/>
		</g>
		<g>
			<rect x="272.9" y="135.7" class="st0" width="4" height="7.3"/>
			<circle class="st0" cx="273" cy="134.3" r="2.6"/>
			<circle class="st0" cx="277" cy="134.3" r="2.6"/>
			<circle class="st0" cx="273" cy="130.3" r="2.6"/>
			<circle class="st0" cx="277" cy="131.3" r="2.6"/>
			<circle class="st0" cx="275" cy="127.3" r="2.6"/>
		</g>
		<g>
			<rect x="282.2" y="126.9" class="st0" width="4" height="7.3"/>
			<circle class="st0" cx="282.4" cy="125.5" r="2.6"/>
			<circle class="st0" cx="286.4" cy="125.5" r="2.6"/>
			<circle class="st0" cx="282.4" cy="121.5" r="2.6"/>
			<circle class="st0" cx="286.4" cy="122.5" r="2.6"/>
			<circle class="st0" cx="284.4" cy="118.5" r="2.6"/>
		</g>
		<g>
			<rect x="288.2" y="138" class="st0" width="4" height="7.3"/>
			<circle class="st0" cx="288.4" cy="136.6" r="2.6"/>
			<circle class="st0" cx="292.4" cy="136.6" r="2.6"/>
			<circle class="st0" cx="288.4" cy="132.6" r="2.6"/>
			<circle class="st0" cx="292.4" cy="133.6" r="2.6"/>
			<circle class="st0" cx="290.4" cy="129.6" r="2.6"/>
		</g>
		<g>
			<rect x="293.1" y="118.8" class="st0" width="4" height="7.3"/>
			<circle class="st0" cx="293.3" cy="117.3" r="2.6"/>
			<circle class="st0" cx="297.3" cy="117.3" r="2.6"/>
			<circle class="st0" cx="293.3" cy="113.3" r="2.6"/>
			<circle class="st0" cx="297.3" cy="114.3" r="2.6"/>
			<circle class="st0" cx="295.3" cy="110.3" r="2.6"/>
		</g>
		<g>
			<rect x="303.9" y="115.1" class="st0" width="4" height="7.3"/>
			<circle class="st0" cx="304" cy="113.7" r="2.6"/>
			<circle class="st0" cx="308" cy="113.7" r="2.6"/>
			<circle class="st0" cx="304" cy="109.7" r="2.6"/>
			<circle class="st0" cx="308" cy="110.7" r="2.6"/>
			<circle class="st0" cx="306" cy="106.7" r="2.6"/>
		</g>
		<g>
			<rect x="297.2" y="142.1" class="st0" width="4" height="7.3"/>
			<circle class="st0" cx="297.4" cy="140.6" r="2.6"/>
			<circle class="st0" cx="301.4" cy="140.6" r="2.6"/>
			<circle class="st0" cx="297.4" cy="136.6" r="2.6"/>
			<circle class="st0" cx="301.4" cy="137.6" r="2.6"/>
			<circle class="st0" cx="299.4" cy="133.6" r="2.6"/>
		</g>
		<g>
			<rect x="309.3" y="140.6" class="st0" width="4" height="7.3"/>
			<circle class="st0" cx="309.5" cy="139.2" r="2.6"/>
			<circle class="st0" cx="313.5" cy="139.2" r="2.6"/>
			<circle class="st0" cx="309.5" cy="135.2" r="2.6"/>
			<circle class="st0" cx="313.5" cy="136.2" r="2.6"/>
			<circle class="st0" cx="311.5" cy="132.2" r="2.6"/>
		</g>
		<g>
			<rect x="311.2" y="124.6" class="st0" width="4" height="7.3"/>
			<circle class="st0" cx="311.4" cy="123.2" r="2.6"/>
			<circle class="st0" cx="315.4" cy="123.2" r="2.6"/>
			<circle class="st0" cx="311.4" cy="119.2" r="2.6"/>
			<circle class="st0" cx="315.4" cy="120.2" r="2.6"/>
			<circle class="st0" cx="313.4" cy="116.2" r="2.6"/>
		</g>
		<g>
			<rect x="321.9" y="135.1" class="st0" width="4" height="7.3"/>
			<circle class="st0" cx="322" cy="133.6" r="2.6"/>
			<circle class="st0" cx="326" cy="133.6" r="2.6"/>
			<circle class="st0" cx="322" cy="129.6" r="2.6"/>
			<circle class="st0" cx="326" cy="130.6" r="2.6"/>
			<circle class="st0" cx="324" cy="126.6" r="2.6"/>
		</g>
		<g>
			<rect x="150.3" y="123.9" class="st0" width="4" height="7.3"/>
			<circle class="st0" cx="150.4" cy="122.5" r="2.6"/>
			<circle class="st0" cx="154.4" cy="122.5" r="2.6"/>
			<circle class="st0" cx="150.4" cy="118.5" r="2.6"/>
			<circle class="st0" cx="154.4" cy="119.5" r="2.6"/>
			<circle class="st0" cx="152.4" cy="115.5" r="2.6"/>
		</g>
		<g>
			<rect x="147.9" y="46.1" class="st0" width="4" height="10.1"/>
			<circle class="st0" cx="147.4" cy="44.1" r="3.5"/>
			<circle class="st0" cx="152.9" cy="44.1" r="3.5"/>
			<circle class="st0" cx="147.4" cy="38.6" r="3.5"/>
			<circle class="st0" cx="152.9" cy="40" r="3.5"/>
			<circle class="st0" cx="150.2" cy="34.4" r="3.5"/>
		</g>
		<g>
			<rect x="122.6" y="111.6" class="st0" width="4" height="7.3"/>
			<circle class="st0" cx="122.8" cy="110.2" r="2.6"/>
			<circle class="st0" cx="126.8" cy="110.2" r="2.6"/>
			<circle class="st0" cx="122.8" cy="106.2" r="2.6"/>
			<circle class="st0" cx="126.8" cy="107.2" r="2.6"/>
			<circle class="st0" cx="124.8" cy="103.2" r="2.6"/>
		</g>
		<g>
			<rect x="113.5" y="125.7" class="st0" width="4" height="7.3"/>
			<circle class="st0" cx="113.6" cy="124.2" r="2.6"/>
			<circle class="st0" cx="117.6" cy="124.2" r="2.6"/>
			<circle class="st0" cx="113.6" cy="120.2" r="2.6"/>
			<circle class="st0" cx="117.6" cy="121.2" r="2.6"/>
			<circle class="st0" cx="115.6" cy="117.2" r="2.6"/>
		</g>
		<g>
			<rect x="133.6" y="124.6" class="st0" width="4" height="7.3"/>
			<circle class="st0" cx="133.8" cy="123.2" r="2.6"/>
			<circle class="st0" cx="137.8" cy="123.2" r="2.6"/>
			<circle class="st0" cx="133.8" cy="119.2" r="2.6"/>
			<circle class="st0" cx="137.8" cy="120.2" r="2.6"/>
			<circle class="st0" cx="135.8" cy="116.2" r="2.6"/>
		</g>
		<g>
			<rect x="234.6" y="105.1" class="st0" width="4" height="7.3"/>
			<circle class="st0" cx="234.8" cy="103.6" r="2.6"/>
			<circle class="st0" cx="238.8" cy="103.6" r="2.6"/>
			<circle class="st0" cx="234.8" cy="99.6" r="2.6"/>
			<circle class="st0" cx="238.8" cy="100.6" r="2.6"/>
			<circle class="st0" cx="236.8" cy="96.6" r="2.6"/>
		</g>
		<g>
			<rect x="247.4" y="109.8" class="st0" width="4" height="7.3"/>
			<circle class="st0" cx="247.5" cy="108.4" r="2.6"/>
			<circle class="st0" cx="251.5" cy="108.4" r="2.6"/>
			<circle class="st0" cx="247.5" cy="104.4" r="2.6"/>
			<circle class="st0" cx="251.5" cy="105.4" r="2.6"/>
			<circle class="st0" cx="249.5" cy="101.4" r="2.6"/>
		</g>
		<g>
			<rect x="23.8" y="89.2" class="st0" width="4" height="7.3"/>
			<circle class="st0" cx="23.9" cy="87.8" r="2.6"/>
			<circle class="st0" cx="27.9" cy="87.8" r="2.6"/>
			<circle class="st0" cx="23.9" cy="83.8" r="2.6"/>
			<circle class="st0" cx="27.9" cy="84.8" r="2.6"/>
			<circle class="st0" cx="25.9" cy="80.8" r="2.6"/>
		</g>
		<g>
			<rect x="13.6" y="95.1" class="st0" width="4" height="7.3"/>
			<circle class="st0" cx="13.8" cy="93.7" r="2.6"/>
			<circle class="st0" cx="17.8" cy="93.7" r="2.6"/>
			<circle class="st0" cx="13.8" cy="89.7" r="2.6"/>
			<circle class="st0" cx="17.8" cy="90.7" r="2.6"/>
			<circle class="st0" cx="15.8" cy="86.7" r="2.6"/>
		</g>
		<g>
			<rect x="386.9" y="80.8" class="st0" width="4" height="7.3"/>
			<circle class="st0" cx="387.1" cy="79.3" r="2.6"/>
			<circle class="st0" cx="391.1" cy="79.3" r="2.6"/>
			<circle class="st0" cx="387.1" cy="75.3" r="2.6"/>
			<circle class="st0" cx="391.1" cy="76.3" r="2.6"/>
			<circle class="st0" cx="389.1" cy="72.3" r="2.6"/>
		</g>
		<g>
			<rect x="283.4" y="46.3" class="st0" width="4" height="13.5"/>
			<g>
				<path class="st0" d="M285.3,47.6c-4.7,0-8.5-3.8-8.5-8.5s3.8-8.5,8.5-8.5s8.5,3.8,8.5,8.5S290,47.6,285.3,47.6z M285.3,34.7
					c-2.5,0-4.5,2-4.5,4.5s2,4.5,4.5,4.5s4.5-2,4.5-4.5S287.8,34.7,285.3,34.7z"/>
				<path class="st0" d="M286.9,46.3c-1.6-1.6-2.5-3.8-2.5-6c0-3.2,1.8-6.1,4.6-7.5l1.8,3.6c-1.5,0.8-2.4,2.3-2.4,4
					c0,1.2,0.5,2.3,1.3,3.2L286.9,46.3L286.9,46.3z"/>
				<path class="st0" d="M285.3,45.4l-4-0.3c0-2-1.2-3.7-3.1-4.3l1.2-3.8c3.5,1.1,5.8,4.4,5.8,8C285.3,45.2,285.3,45.3,285.3,45.4
					L285.3,45.4z"/>
			</g>
		</g>
		<g>
			<rect x="419.6" y="94.1" class="st0" width="4" height="17.3"/>
			<g>
				<path class="st0" d="M421.5,95.2c-5.7,0-10.3-4.6-10.3-10.3s4.6-10.3,10.3-10.3s10.3,4.6,10.3,10.3S427.2,95.2,421.5,95.2z
					 M421.5,78.6c-3.5,0-6.3,2.8-6.3,6.3s2.8,6.3,6.3,6.3s6.3-2.8,6.3-6.3S425,78.6,421.5,78.6z"/>
				<path class="st0" d="M423.9,93.8c-2-1.9-3.1-4.6-3.1-7.4c0-3.9,2.1-7.4,5.6-9.2l1.8,3.6c-2.1,1.1-3.4,3.2-3.4,5.6
					c0,1.7,0.7,3.3,1.9,4.5L423.9,93.8z"/>
				<path class="st0" d="M420.9,93l-4-0.3l2,0.2l-2-0.2c0-2.8-1.7-5.2-4.3-6.1l1.2-3.8c4.3,1.4,7.1,5.3,7.1,9.8
					C420.9,92.7,420.9,92.9,420.9,93L420.9,93z"/>
			</g>
		</g>
		<path class="st0" d="M413.2,105.1l6,6.8l10.8-3.8C430.1,108.1,415.7,104.6,413.2,105.1z"/>
		<path class="st0" d="M82.1,131.6c-1.2-0.7-30.5-17.1-41.6-25.9c-2.3-1.9-2.5-3.9-2.3-5.3c1.8-9.6,35.7-20.3,42.4-22.4l1.2,3.8
			c-15.9,4.8-38.7,14-39.7,19.3c0,0.2-0.1,0.7,0.8,1.4c10.8,8.6,40.7,25.4,41,25.5L82.1,131.6L82.1,131.6z"/>
		<path class="st0" d="M114.3,132c-0.2-0.1-16.4-6.8-32.3-13.9c-33.7-15-33.3-16.7-32.8-18.8c0.6-2.7,4.1-6.9,25.4-15.6
			c11.5-4.7,22.9-8.4,23-8.4l1.3,3.8c-23,7.6-42.6,16.4-45.5,20.4c4.8,3.9,35,17.4,62.4,28.8L114.3,132L114.3,132z"/>
		<path class="st0" d="M324.5,143.2l-2.1-3.4c8.8-5.4,13.4-11.6,13.8-18.5c0.8-12.6-13-23.7-13.1-23.8l2.5-3.1
			c0.6,0.5,15.5,12.5,14.6,27.2C339.8,129.8,334.5,137.1,324.5,143.2L324.5,143.2z"/>
		<path class="st0" d="M364.4,129.2l-2.6-3c19.7-17.4,12.1-40.3,12.1-40.6l3.8-1.3C377.7,84.6,386.1,110,364.4,129.2L364.4,129.2z"
			/>
		<g>
			<rect x="102.6" y="97" class="st0" width="4" height="13.5"/>
			<g>
				<path class="st0" d="M104.5,98.3c-4.7,0-8.5-3.8-8.5-8.5s3.8-8.5,8.5-8.5s8.5,3.8,8.5,8.5S109.2,98.3,104.5,98.3z M104.5,85.4
					c-2.5,0-4.5,2-4.5,4.5s2,4.5,4.5,4.5s4.5-2,4.5-4.5S107,85.4,104.5,85.4z"/>
				<path class="st0" d="M106,97c-1.7-1.6-2.6-3.8-2.6-6.1c0-3.2,1.8-6.1,4.6-7.5l1.8,3.6c-1.5,0.8-2.4,2.3-2.4,4
					c0,1.2,0.5,2.3,1.3,3.2C108.8,94.2,106,97,106,97z"/>
				<path class="st0" d="M104.5,96.2l-4-0.3c0-2-1.2-3.7-3.1-4.3l1.2-3.8c3.5,1.1,5.8,4.4,5.8,8C104.5,95.9,104.5,96,104.5,96.2z"/>
			</g>
		</g>
		<path class="st0" d="M93,110.5l-0.6-1.1c-0.4-0.9-1.8-3.9-0.6-6.1c0.4-0.6,1.3-1.7,3.2-1.9c1.3-0.1,2.4,0.3,3.3,0.8
			c0.2-0.3,0.4-0.5,0.7-0.7c0.8-0.7,1.9-0.9,2.9-0.8c4.1,0.8,4.3,6.9,4.3,7.6l0,2L93,110.5L93,110.5z M95.4,105.5
			c0,0.3,0.1,0.6,0.2,1h1.2C96.5,105.9,96.1,105.4,95.4,105.5z M101.4,104.9c-0.1,0.3-0.3,0.9-0.3,1.5h0.9
			C101.8,105.8,101.6,105.2,101.4,104.9z"/>
		<g>
			<rect x="401.2" y="105.3" class="st0" width="4" height="11.6"/>
			<circle class="st0" cx="400.3" cy="103.1" r="4.1"/>
			<circle class="st0" cx="406.6" cy="103.1" r="4.1"/>
			<circle class="st0" cx="400.3" cy="96.8" r="4.1"/>
			<circle class="st0" cx="406.6" cy="98.3" r="4.1"/>
			<circle class="st0" cx="403.4" cy="92" r="4.1"/>
		</g>
		<g>
			<rect x="34" y="107.3" class="st0" width="4" height="12.2"/>
			<circle class="st0" cx="32.9" cy="104.9" r="4.3"/>
			<circle class="st0" cx="39.6" cy="104.9" r="4.3"/>
			<circle class="st0" cx="32.9" cy="98.3" r="4.3"/>
			<circle class="st0" cx="39.6" cy="99.9" r="4.3"/>
			<circle class="st0" cx="36.3" cy="93.3" r="4.3"/>
		</g>
		<path class="st0" d="M99.4,175.4c-8.8,0-18.8-2-19.3-2.2l0.2-1c0.2,0,17.7,3.6,26.6,1.4l0.2,1C104.9,175.2,102.2,175.4,99.4,175.4
			z"/>
		<path class="st0" d="M83.7,173.4c0,0-1,2.6,2.6,3.6s3.6,3.4,6.7,3.9c3.1,0.4,3.3-2.2,7-3.3s5.2-2.9,5.2-2.9S88.9,175.4,83.7,173.4
			L83.7,173.4z"/>
		<path class="st0" d="M231,200.8l-0.1-1c0.2,0,20.9-1.8,28.9-6.3l0.5,0.9C252.1,199,231.8,200.7,231,200.8L231,200.8z"/>
		<path class="st0" d="M234.5,199.9c0,0-0.1,4.3,3.6,4.3s2.4-3.5,5.5-3.9c3.1-0.4,4.4,1.4,7.6-0.6c3.3-2,7.1-4.7,7.1-4.7
			S240.1,200.5,234.5,199.9L234.5,199.9z"/>
		<path class="st0" d="M198.9,197.7c0,0-16.2,0.2-21.4-2c0,0-1.1,2.6,2.4,3.7c3.5,1.1,2.4,4,5.5,4.5c3.1,0.6,4.4-2.5,8.1-3.4
			S198.9,197.7,198.9,197.7"/>
		
			<rect x="324.3" y="88.2" transform="matrix(0.9764 -0.2159 0.2159 0.9764 -11.2265 77.7143)" class="st0" width="51.5" height="4"/>
		<polygon class="st0" points="325,78.1 324.2,74.1 342.2,70.2 341.6,58.3 345.6,58.1 346.4,73.4 		"/>
		
			<rect x="358.4" y="60.3" transform="matrix(0.2632 -0.9647 0.9647 0.2632 192.3002 403.6459)" class="st0" width="4" height="31.3"/>
		<path class="st0" d="M302,55.5c-30.7-26-74.4-27.5-105.6-24.2C162.3,35,135.2,45,134.9,45.1l-1.4-3.8c0.3-0.1,27.8-10.3,62.3-14
			c46-4.9,83.6,3.7,108.8,25.1L302,55.5z"/>
		<path class="st0" d="M269.8,56.6c-5.3-13.1-10.4-22.6-10.4-22.7l3.5-1.9c0,0.1,5.2,9.8,10.6,23.1L269.8,56.6z"/>
		<path class="st0" d="M255.3,54c-5.3-13.1-10.9-22.7-10.9-22.8l3.4-2c0.2,0.4,5.8,9.9,11.2,23.3L255.3,54L255.3,54z"/>
		<path class="st0" d="M240.9,51.4c-5.3-12.9-12.2-21.7-12.3-21.8l3.1-2.5c0.3,0.4,7.4,9.3,12.8,22.8L240.9,51.4z"/>
		<path class="st0" d="M227.7,53.7c-5.3-13-13.4-23.5-13.4-23.6l3.2-2.4c0.4,0.5,8.5,11.1,14,24.6L227.7,53.7L227.7,53.7z"/>
		<path class="st0" d="M212.5,49.8c-5.2-12.8-12.6-19.4-12.7-19.4l2.6-3c0.3,0.3,8.2,7.3,13.8,20.9L212.5,49.8L212.5,49.8z"/>
		<path class="st0" d="M198.2,50.3c-5.2-12.7-12.3-18.9-12.4-18.9l2.6-3c0.3,0.3,7.9,6.8,13.5,20.5L198.2,50.3L198.2,50.3z"/>
		<path class="st0" d="M184.8,52.8c-5.2-12.8-12.3-18.9-12.4-18.9l2.6-3c0.3,0.3,7.9,6.8,13.5,20.5L184.8,52.8L184.8,52.8z"/>
		<path class="st0" d="M170.3,56.2c-5.2-12.7-12.3-18.9-12.4-18.9l2.6-3c0.3,0.3,7.9,6.8,13.5,20.5L170.3,56.2L170.3,56.2z"/>
		<path class="st0" d="M157.5,58.2c-5.2-12.8-12.3-18.9-12.4-18.9l2.6-3c0.3,0.3,7.9,6.8,13.5,20.5L157.5,58.2L157.5,58.2z"/>
		<path class="st0" d="M145.3,59.8c-5-12.4-10.4-15.6-10.5-15.7l2-3.5c0.3,0.2,6.6,3.8,12.2,17.6L145.3,59.8L145.3,59.8z"/>
		<path class="st0" d="M285.4,60.3c-5.3-13.1-10.4-22.4-10.5-22.5l3.5-1.9c0,0.1,5.3,9.6,10.7,22.9L285.4,60.3L285.4,60.3z"/>
		<path class="st0" d="M293.4,62.8c-5.3-13.1-9-19.9-9.1-20l3.5-1.9c0.2,0.3,3.9,7.1,9.3,20.4L293.4,62.8L293.4,62.8z"/>
		<g>
			<rect x="191.3" y="22.5" class="st0" width="4" height="7.3"/>
			<circle class="st0" cx="191.5" cy="21.1" r="2.6"/>
			<circle class="st0" cx="195.5" cy="21.1" r="2.6"/>
			<circle class="st0" cx="191.5" cy="17.1" r="2.6"/>
			<circle class="st0" cx="195.5" cy="18.1" r="2.6"/>
			<circle class="st0" cx="193.5" cy="14.1" r="2.6"/>
		</g>
		<g>
			<rect x="265.4" y="29.8" class="st0" width="4" height="4.6"/>
			<circle class="st0" cx="266.3" cy="28.9" r="1.6"/>
			<circle class="st0" cx="268.8" cy="28.9" r="1.6"/>
			<circle class="st0" cx="266.3" cy="26.4" r="1.6"/>
			<circle class="st0" cx="268.8" cy="27" r="1.6"/>
			<circle class="st0" cx="267.5" cy="24.5" r="1.6"/>
		</g>
		<g>
			<rect x="363.4" y="117.8" class="st0" width="4" height="10.9"/>
			<circle class="st0" cx="362.7" cy="115.7" r="3.8"/>
			<circle class="st0" cx="368.6" cy="115.7" r="3.8"/>
			<circle class="st0" cx="362.7" cy="109.7" r="3.8"/>
			<circle class="st0" cx="368.6" cy="111.2" r="3.8"/>
			<circle class="st0" cx="365.6" cy="105.3" r="3.8"/>
		</g>
	</g>
</g>
</svg>
