<?xml version="1.0" encoding="utf-8"?>
<!-- Generator: Adobe Illustrator 24.1.0, SVG Export Plug-In . SVG Version: 6.00 Build 0)  -->
<svg version="1.1" id="Calque_1" xmlns="http://www.w3.org/2000/svg" xmlns:xlink="http://www.w3.org/1999/xlink" x="0px" y="0px"
	 viewBox="0 0 128 131.3" style="enable-background:new 0 0 128 131.3;" xml:space="preserve">
<style type="text/css">
	.st0{fill:#FFFFFF;}
	.st1{fill:#35A88A;}
	.st2{fill:#BCFFEC;}
	.st3{fill:#AC4250;}
	.st4{fill:#5277B8;}
</style>
<g>
	<g>
		<g>
			<path class="st0" d="M104.1,74c1,15.2-7,16.8-11.1,15.7l-11.5,9.9c8.9,5,18.8,2.1,22.6,0c9.9-6.6,10.1-19.6,9-25.2
				c9.2-5,12.6-10.9,13.2-13.2v-3.3l0.8-4.1l-2.9-2.5l-6.2,0.8l-7.4,8.3l-2.9,1.2v-3.3l-5.3-3.7l-4.5,3.7l1.6,4.1v5.4
				C99.9,71.7,102.7,73.6,104.1,74z"/>
		</g>
		<g>
			<path class="st0" d="M11.6,96.7l12.3,26l-0.4,0.4C6.4,117.5,3.2,104.3,3.8,98.4L5.4,93L11.6,96.7z"/>
		</g>
		<g>
			<path d="M4.9,94.5c0,0,6,2,8.1,8.5c2.1,6.5,2,6.2,3.1,9c1.9,4.9,7.9,13.1,6.9,10.6c-1-2.5-6.2-17.1-7.4-19.1
				c-1.2-1.9-0.7-5-1.8-6c-1-1-8-6.3-8-6.3L4.9,94.5L4.9,94.5z"/>
		</g>
		<g>
			<path class="st0" d="M34.8,48.4l8.6,21.5l5.8,4.1l5.3-0.4l0.8-14.1l1.6-2.9l10.3-7.9l-0.4-2.1l-17.3-0.4v-1.7l5.8-2.1l10.3-3.7
				l0.4-1.7l-3.3-5l0.8-2.5l7.4-6.2C86.8,16,83.3,8,79.6,5c-2.1-3.3-11.2-7.8-31.3,0.8C28.3,14.4,30.9,37.8,34.8,48.4z"/>
		</g>
		<g>
			<path class="st1" d="M25.2,124.4c0,0-25.5-38.1,19.9-51.1c0,0,20,1.9,25.3,8.5c5.3,6.6,10.2,9.4,9.6,22.6
				c-0.6,13.2-3.9,17.9-14,23.1C53.2,134.1,25.2,124.4,25.2,124.4L25.2,124.4z"/>
		</g>
		<g>
			<path class="st2" d="M46.4,83.3l4.9,0.2l2.9,29.5l-6.1,3.6l-5.2-5L46.4,83.3z"/>
		</g>
		<g>
			<path class="st3" d="M30.4,80.1l2.6-1.3L74,122.2l-1.9,1.7L30.4,80.1z"/>
		</g>
		<g>
			<path class="st0" d="M33.1,78.9l2.2-1.3l39.3,42.4l-0.6,2.3L33.1,78.9z"/>
		</g>
		<g>
			<path class="st4" d="M35.3,77.6l1.9-1.2L76.4,117l-1.8,3L35.3,77.6z"/>
		</g>
		<g>
			<path class="st2" d="M44.3,78.5l4.4-4.8l5.1,5.3l-1.6,3h-6.8L44.3,78.5z"/>
		</g>
		<g>
			<path d="M52.4,83.5h-7.6l-2.6-5.7l5.1-4.6c0.4-0.4,1.4-1.3,2.4-0.5l0.1,0l5.1,5L52.4,83.5L52.4,83.5z M46.1,81.5h5l1.4-3.2
				l-3.7-3.7c0,0-0.1,0-0.1,0.1l-4,3.6L46.1,81.5L46.1,81.5z"/>
		</g>
		<g>
			<path d="M53.8,94.7l-9.4-10l0.3-3h7.8L53.8,94.7z M46.5,84l4.7,5l-0.5-5.3h-4.2L46.5,84z"/>
		</g>
		<g>
			<path d="M48.7,118.3l-7.1-5.8l1.9-19.3l11.2,11.5l0.8,7.9L48.7,118.3L48.7,118.3z M43.8,111.6l5,4.1l4.7-4l-0.6-6.2l-7.7-7.9
				L43.8,111.6L43.8,111.6z"/>
		</g>
		<g>
			<path d="M73.6,124.8l-1.5-1.3c0.8-1,1.5-1.9,2.2-3c0.6-0.9,1.1-1.9,1.6-2.8l0-0.1c1-1.9,1.7-4,2.2-6.1c0.6-2.3,0.9-4.7,0.9-7.1
				c0.1-16.6-13.3-30.1-29.8-30.2c-2.9,0-5.8,0.4-8.6,1.2l-0.5,0.1c-0.9,0.3-1.7,0.6-2.5,0.9l-0.8-1.9c0.9-0.4,1.8-0.7,2.7-1
				l0.1-0.1h0.1l0.3-0.1c3-0.9,6.1-1.3,9.2-1.3c17.6,0.1,31.9,14.5,31.8,32.2c0,2.6-0.3,5.1-0.9,7.6c-0.6,2.3-1.4,4.5-2.4,6.5l0,0.1
				c-0.5,1-1.1,2-1.7,3C75.3,122.7,74.5,123.8,73.6,124.8L73.6,124.8z"/>
		</g>
		<g>
			<path d="M24.6,124.9c-1.3-1.5-2.4-3.2-3.4-4.9c-2.1-3.7-3.4-7.7-3.9-11.8V108c-0.2-1.3-0.2-2.6-0.2-3.9c0-5.7,1.6-11.3,4.5-16.2
				c1.8-3,4-5.7,6.7-7.9c0.3-0.2,0.5-0.4,0.8-0.6l1.2,1.6c-0.2,0.2-0.5,0.4-0.7,0.6c-2.5,2.1-4.6,4.7-6.3,7.5
				c-2.7,4.6-4.2,9.8-4.2,15.2c0,1.2,0.1,2.5,0.2,3.7v0.1c0.5,3.9,1.7,7.6,3.6,11c0.9,1.6,2,3.2,3.2,4.6L24.6,124.9L24.6,124.9z"/>
		</g>
		<g>
			<path class="st0" d="M64.7,78.6l-8.2,3.2c-0.2,0.1-0.4,0-0.5-0.1L49.6,74c-0.2-0.3,0-0.7,0.4-0.7c2.5,0.2,9.6,1,14.8,4.6
				C65,78.1,65,78.5,64.7,78.6L64.7,78.6z"/>
		</g>
		<g>
			<path d="M56.3,82.8c-0.4,0-0.8-0.2-1.1-0.5l-6.4-7.7c-0.4-0.4-0.4-1.1-0.2-1.6c0.3-0.5,0.8-0.8,1.4-0.8c2.8,0.2,9.9,1.1,15.3,4.8
				c0.4,0.3,0.7,0.8,0.6,1.3c-0.1,0.5-0.4,1-0.9,1.2l-8.2,3.2C56.7,82.8,56.5,82.8,56.3,82.8L56.3,82.8z M51.3,74.4l5.2,6.3l6.7-2.6
				C59.2,75.7,54.2,74.8,51.3,74.4z"/>
		</g>
		<g>
			<path class="st0" d="M47.8,74l-0.6,0.7l-3.5,4.2l-1.7,2l-4.9-5.2c0,0,0,0,0,0c-1.8,0.8-3.5,1.7-5.2,2.7c1.2-0.9,2.5-1.7,3.9-2.3
				c0,0,0,0,0,0c1.3-0.6,2.6-1.1,3.9-1.4c0,0,0,0,0,0c0.1,0,0.3-0.1,0.4-0.1c3-0.8,5.8-1.1,7.1-1.2C47.8,73.3,48,73.7,47.8,74z"/>
		</g>
		<g>
			<path d="M42.2,82.3L37,76.8c-1.5,0.7-3,1.5-4.4,2.4l-1.2-1.6c1.1-0.9,2.5-1.6,3.9-2.3l0.2-0.2h0.2c1.2-0.5,2.4-1,3.8-1.4l0.1-0.1
				h0.1c0.1,0,0.1,0,0.2-0.1l0.1,0c3.2-0.9,6-1.1,7.3-1.2c0.6,0,1.1,0.3,1.3,0.8c0.3,0.5,0.2,1.1-0.2,1.5L48,75.3L42.2,82.3
				L42.2,82.3z M38.9,76l3.1,3.4l4.1-4.9c-1.4,0.2-3.4,0.5-5.5,1l-0.2,0c-0.1,0-0.1,0-0.2,0.1l0,0l-0.2,0
				C39.7,75.7,39.3,75.9,38.9,76L38.9,76z"/>
		</g>
		<g>
			<path d="M55.7,73.4l-2,0l0.1-12.1c0-4.6,4.1-7.1,7.7-9.3c2.3-1.4,4.5-2.8,5.2-4.4c0-0.1,0.1-0.2,0.1-0.2
				c-0.7-0.6-5.2-0.3-7.6-0.1c-5.4,0.5-9.6,0.8-10.1-1.7c-0.5-2.5,3.2-3.4,8-4.5c3.1-0.8,7.8-1.9,8.3-3.3c0-0.1,0.1-0.3-0.2-0.9
				c-0.5-0.8-1-1.4-1.5-2c-1.1-1.3-2-2.4-1.7-3.8c0.4-2.1,2.9-4.1,13.4-10.5c5.8-3.5,7.8-8.6,5.2-12.9c-2-3.3-6.3-5.4-11.5-5.8
				c-4.5-0.3-12,0.5-21.8,6.3c-9.9,5.8-14.3,15.1-13.3,27.5c0.9,10.2,5.3,20,7.9,24.9c1.3,2.5,2,5.1,2.2,7.8l0.3,4.6l-2,0.1
				l-0.3-4.6c-0.2-2.4-0.8-4.8-2-7c-2.6-5-7.2-15.1-8.1-25.6C30.7,22.8,35.5,12.9,46,6.7c17.2-10.2,31.4-7.5,36,0.1
				c3.6,6.1-0.3,12.2-5.9,15.6c-8.1,4.9-12.2,7.7-12.5,9.2c-0.1,0.5,0.4,1.1,1.3,2.2c0.5,0.6,1,1.3,1.6,2.1c0.8,1.2,0.7,2.1,0.5,2.7
				c-0.9,2.4-5.2,3.4-9.7,4.5c-2.3,0.5-6,1.5-6.5,2.2c0.6,0.7,5.4,0.3,8,0.1c5.1-0.4,8.3-0.6,9.5,0.9c0.3,0.4,0.6,1.1,0.1,2.1
				c-0.9,2.2-3.4,3.7-6,5.3c-3.3,2-6.7,4.1-6.7,7.6L55.7,73.4L55.7,73.4z"/>
		</g>
		<g>
			<path d="M66.8,11.1c1.2,0,2.2-0.9,2.2-1.9s-1-1.9-2.2-1.9c-1.2,0-2.2,0.9-2.2,1.9S65.6,11.1,66.8,11.1z"/>
		</g>
		<g>
			<path d="M24.3,124.5C11.4,120.6,3,110.9,3,99.9c0-14.6,15-26.4,33.3-26.4c0.9,0,3.1,0,4,0.1l-0.1,2c-0.9-0.1-3-0.1-3.9-0.1
				C19.1,75.4,5,86.4,5,99.9c0,10.1,7.8,19.1,19.9,22.8L24.3,124.5z"/>
		</g>
		<g>
			<path d="M17.5,108.6c-2.3-2.6-3.5-5.6-3.5-8.8c0-4.9,2.9-9.5,7.9-12.3l1,1.7c-4.3,2.5-6.9,6.4-6.9,10.6c0,2.7,1,5.2,3,7.4
				L17.5,108.6z"/>
		</g>
		<g>
			<path d="M72.6,125.3c-0.4,0-0.7-0.1-0.9-0.4l-0.6-0.6L28.1,80l0.9-0.7c0.8-0.7,1.7-1.3,2.5-1.8c1.7-1.1,3.5-2.1,5.3-2.8l0.2-0.1
				h0.7l40.1,42.8l-1.6,3.8h0.3l-1,1.5c-1.1,1.7-1.9,2.4-2.8,2.5C72.7,125.3,72.6,125.3,72.6,125.3L72.6,125.3z M73.1,123.5
				L73.1,123.5C73.1,123.5,73.1,123.5,73.1,123.5z M45.3,94.9l27.3,28.2c0.2-0.2,0.5-0.6,1-1.3l1.7-3.9L37,76.8
				c-1.5,0.7-3,1.5-4.4,2.4c-0.5,0.3-1,0.7-1.5,1L45.3,94.9L45.3,94.9z"/>
		</g>
		<g>
			<path d="M29.5,81.5L28.2,80l0.7-0.7c0.1-0.1,2.6-2.5,6.5-4.1l0.1-0.2h0.3c0.4-0.2,0.8-0.3,1.1-0.4l0.7,1.9
				c-1.7,0.7-3.4,1.6-5,2.6c-0.8,0.5-1.6,1.1-2.4,1.7L29.5,81.5L29.5,81.5z"/>
		</g>
		<g>
			<path d="M75.2,123.2h-2.1l3.2-7.4l1.8,1.9l-0.3,0.7c0,0,0,0.1-0.1,0.1l0,0.1c-0.8,1.7-1.5,3.1-2.2,4.1L75.2,123.2z"/>
		</g>
		<g>
			<path class="st1" d="M41.2,73.1c1-0.3,0.4-1.5-1.7-2.3c-9.2-3.4-24.1,0.1-38.1,15l15.7,14.8C17.1,100.6,19.7,79.6,41.2,73.1z"/>
		</g>
		<g>
			<path d="M17.9,102.7L0,85.9l0.7-0.7C16,68.8,31.4,66.7,39.9,69.9c1.8,0.7,2.9,1.7,2.8,2.8c0,0.7-0.5,1.2-1.2,1.4
				c-20.7,6.2-23.4,26.5-23.4,26.7L17.9,102.7L17.9,102.7z M2.8,85.8l13.7,12.8c1.2-5.3,6.2-20.7,23.8-26.3
				c-0.2-0.2-0.6-0.4-1.1-0.6C31.4,68.8,17.3,70.8,2.8,85.8z"/>
		</g>
		<g>
			<path d="M71.8,123.6l-3.3,2.4l-14.2-16.2L44.1,98.1l-0.7-0.8l-7.1-8.1l-4.9-5.6l0,0h0l-2.5-2.9l-0.1-0.1l0.7-0.6l0,0.1l14.7,15.2
				l9.4,9.7L71.8,123.6z"/>
		</g>
		<g>
			<path d="M43.8,79.7L42.7,81l2.4,1.5L43.8,79.7z"/>
		</g>
		<g>
			<path d="M52.8,79.4l-1.1,2l3.3,2.2l11-4.4l-8.8,1.9L52.8,79.4z"/>
		</g>
		<g>
			<path d="M31.4,83.6c0,0,7,6,8.7,14c1.6,8,0.9,16,0.9,16l5.5,4.2c0.2,0.2,0.7,0.6,1.3,0.9c0.4,0.3,1-0.1,1-0.6V117l-6-5l0.8-16.6
				L31.4,83.6L31.4,83.6z"/>
		</g>
		<g>
			<path d="M41.4,60.1c0,0,4.5,10.6,9,12.7l-6.6,0.4l-0.4-5.5l-1.6-5.9L41.4,60.1z"/>
		</g>
		<g>
			<path class="st1" d="M56.9,73.1c-1-0.3-0.4-1.5,1.7-2.3c9.2-3.4,24.1,0.1,38.1,15L81,100.6C81,100.6,78.4,79.6,56.9,73.1z"/>
		</g>
		<g>
			<path d="M80.2,102.7l-0.2-2c0-0.2-2.8-20.5-23.4-26.7c-0.7-0.2-1.2-0.8-1.2-1.4c0-1.1,1-2.1,2.8-2.8c8.5-3.2,23.8-1.1,39.2,15.3
				l0.7,0.7L80.2,102.7L80.2,102.7z M57.8,72.3c17.6,5.6,22.6,21,23.8,26.3l13.7-12.8c-14.4-15-28.5-17-36.3-14.1
				C58.4,71.9,58.1,72.1,57.8,72.3z"/>
		</g>
		<g>
			<path d="M93.9,103.4c-3.6,0-7.5-0.8-11.4-2.5c-0.5-0.2-0.7-0.8-0.5-1.3c0.2-0.5,0.8-0.7,1.3-0.5c9.8,4.3,19.6,2.6,24.3-4.3
				c4.5-6.6,5.8-12.7,4.4-20.1c-0.1-0.5,0.3-1.1,0.8-1.2c0.5-0.1,1.1,0.3,1.2,0.8c1.5,8.1,0.1,14.5-4.7,21.6
				C105.9,100.8,100.3,103.4,93.9,103.4L93.9,103.4z"/>
		</g>
		<g>
			<path d="M95.1,91c-1.6,0-2.7-0.4-2.8-0.4c-0.5-0.2-0.8-0.7-0.6-1.3c0.2-0.5,0.7-0.8,1.3-0.6c0,0,3.4,1.1,6-1
				c2.6-2.1,3.7-6.9,3-13.9c-0.1-0.6,0.3-1,0.9-1.1c0.5-0.1,1,0.4,1.1,0.9c0.8,7.8-0.5,13.1-3.8,15.7C98.5,90.7,96.6,91,95.1,91
				L95.1,91z"/>
		</g>
		<g>
			<path d="M108,76.1c-2.3,0-4.1-0.7-5-1.2c-2.8-1.5-4.6-4.3-4.4-6.9c0.1-1.7,0.2-3.1,0.2-4.1c0-0.5-0.1-0.9-0.3-1.3
				c-0.1-0.2-0.3-0.5-0.4-0.8c-0.4-0.7-0.8-1.4-0.9-2.1c-0.3-1.8,1-4.1,2.9-5.3c1.8-1.1,3.8-1,5.7,0.2c2.6,1.8,2.7,3.9,2.7,5.1
				c0,0.2,0,0.5,0.1,0.7c0.9-0.6,3-2.2,5.1-5.3c3-4.6,7.5-5.4,9-4.6c0.5,0.3,0.6,0.9,0.3,1.4c-0.3,0.5-0.9,0.6-1.4,0.4
				c-0.6-0.2-3.8,0.2-6.3,3.9c-2.3,3.5-4.8,5.3-5.8,5.9c-0.6,0.4-1.4,0.4-2,0.1c-0.9-0.5-1-1.6-1-2.4c-0.1-1.2-0.1-2.4-1.9-3.6
				c-1.2-0.8-2.3-0.9-3.5-0.2c-1.3,0.8-2.1,2.4-1.9,3.3c0,0.3,0.4,0.9,0.7,1.4c0.2,0.3,0.4,0.6,0.5,0.9c0.3,0.7,0.5,1.5,0.5,2.3
				c0,1-0.1,2.4-0.3,4.1c-0.1,1.8,1.3,3.9,3.4,5c1.7,0.9,6.4,2.5,13-2.6c6.7-5.2,8.8-9,8.5-10.9c-0.1-0.4-0.2-0.7-0.5-0.8
				c-0.8-0.1-3.5,2-5,3.2c-1.7,1.3-3.2,2.5-4.3,2.9c-0.5,0.2-1.1-0.1-1.3-0.6c-0.2-0.5,0.1-1.1,0.6-1.3c0.8-0.3,2.3-1.4,3.7-2.6
				c3.3-2.6,5.4-4.1,7-3.5c0.9,0.4,1.6,1.2,1.7,2.3c0.3,1.9-0.6,6-9.3,12.7C114.1,75.2,110.7,76.1,108,76.1L108,76.1z"/>
		</g>
		<g>
			<path d="M113.8,61.9c-0.4,0-0.8-0.3-1-0.7c-0.2-0.5,0.1-1.1,0.7-1.2c1.1-0.3,3.2-2.5,4.7-5.6c1-2.2,3.1-3.8,5-4.1
				c1.4-0.2,2.7,0.3,3.6,1.4c2.5,2.9-0.2,7-0.4,7.2c-0.3,0.5-0.9,0.6-1.4,0.3c-0.5-0.3-0.6-0.9-0.3-1.4c0,0,2-3,0.5-4.7
				c-0.5-0.6-1.1-0.8-1.9-0.7c-1.3,0.2-2.8,1.4-3.5,2.9c-1.4,2.9-3.8,6-5.9,6.7C114,61.9,113.9,61.9,113.8,61.9L113.8,61.9z"/>
		</g>
		<g>
			<path d="M112.1,75.1c0,0-0.6,2.6-4.1,3.3c-3.5,0.7-3.8,3.8-4.8,3.7c-1-0.1,0-7.7,0-7.7L112.1,75.1z"/>
		</g>
		<g>
			<path d="M51.1,131.3c-11.7,0-23.4-3.9-28.8-8.4l1.3-1.5c8.7,7.3,35.2,12.9,48.7,1.3l1.3,1.5C67.7,129.4,59.4,131.3,51.1,131.3z"
				/>
		</g>
	</g>
</g>
</svg>
