<?xml version="1.0" encoding="utf-8"?>
<!-- Generator: Adobe Illustrator 24.1.0, SVG Export Plug-In . SVG Version: 6.00 Build 0)  -->
<svg version="1.1" id="Calque_1" xmlns="http://www.w3.org/2000/svg" xmlns:xlink="http://www.w3.org/1999/xlink" x="0px" y="0px"
	 viewBox="0 0 128 131.3" style="enable-background:new 0 0 128 131.3;" xml:space="preserve">
<style type="text/css">
	.st0{fill:#FFFFFF;}
	.st1{fill:#35A88A;}
	.st2{fill:#BCFFEC;}
	.st3{fill:#AC4250;}
	.st4{fill:#5277B8;}
</style>
<g>
	<g>
		<path class="st0" d="M23.8,74c-1,15.2,7,16.8,11.1,15.7l11.5,9.9c-8.9,5-18.8,2.1-22.6,0c-9.9-6.6-10.1-19.6-9-25.2
			c-9.2-5-12.6-10.9-13.2-13.2v-3.3l-0.8-4.1l2.9-2.5l6.2,0.8l7.4,8.3l2.9,1.2v-3.3l5.3-3.7l4.5,3.7l-1.6,4.1v5.4
			C28,71.7,25.2,73.6,23.8,74z"/>
	</g>
	<g>
		<path class="st0" d="M116.3,96.7l-12.3,26l0.4,0.4c17.1-5.6,20.3-18.8,19.7-24.7l-1.6-5.4L116.3,96.7z"/>
	</g>
	<g>
		<path d="M123,94.5c0,0-6,2-8.1,8.5s-2,6.2-3.1,9c-1.9,4.9-7.9,13.1-6.9,10.6s6.2-17.1,7.4-19.1c1.2-1.9,0.7-5,1.8-6
			c1-1,8-6.3,8-6.3L123,94.5L123,94.5z"/>
	</g>
	<g>
		<path class="st0" d="M93.1,48.4l-8.6,21.5L78.7,74l-5.3-0.4l-0.8-14.1L71,56.6l-10.3-7.9l0.4-2.1l17.3-0.4v-1.7l-5.8-2.1
			l-10.3-3.7L61.9,37l3.3-5l-0.8-2.5L57,23.3C41.1,16,44.6,8,48.3,5c2.1-3.3,11.2-7.8,31.3,0.8C99.6,14.4,97,37.8,93.1,48.4z"/>
	</g>
	<g>
		<path class="st1" d="M102.7,124.4c0,0,25.5-38.1-19.9-51.1c0,0-20,1.9-25.3,8.5c-5.3,6.6-10.2,9.4-9.6,22.6s3.9,17.9,14,23.1
			C74.7,134.1,102.7,124.4,102.7,124.4L102.7,124.4z"/>
	</g>
	<g>
		<path class="st2" d="M81.5,83.3l-4.9,0.2L73.7,113l6.1,3.6l5.2-5L81.5,83.3z"/>
	</g>
	<g>
		<path class="st3" d="M97.5,80.1l-2.6-1.3l-41,43.4l1.9,1.7L97.5,80.1z"/>
	</g>
	<g>
		<path class="st0" d="M94.8,78.9l-2.2-1.3L53.3,120l0.6,2.3L94.8,78.9z"/>
	</g>
	<g>
		<path class="st4" d="M92.6,77.6l-1.9-1.2L51.5,117l1.8,3L92.6,77.6z"/>
	</g>
	<g>
		<path class="st2" d="M83.6,78.5l-4.4-4.8L74.1,79l1.6,3h6.8L83.6,78.5z"/>
	</g>
	<g>
		<path d="M75.5,83.5h7.6l2.6-5.7l-5.1-4.6c-0.4-0.4-1.4-1.3-2.4-0.5h-0.1l-5.1,5L75.5,83.5L75.5,83.5z M81.8,81.5h-5l-1.4-3.2
			l3.7-3.7c0,0,0.1,0,0.1,0.1l4,3.6L81.8,81.5L81.8,81.5z"/>
	</g>
	<g>
		<path d="M74.1,94.7l9.4-10l-0.3-3h-7.8L74.1,94.7z M81.4,84l-4.7,5l0.5-5.3h4.2V84z"/>
	</g>
	<g>
		<path d="M79.2,118.3l7.1-5.8l-1.9-19.3l-11.2,11.5l-0.8,7.9L79.2,118.3L79.2,118.3z M84.1,111.6l-5,4.1l-4.7-4l0.6-6.2l7.7-7.9
			L84.1,111.6L84.1,111.6z"/>
	</g>
	<g>
		<path d="M54.3,124.8l1.5-1.3c-0.8-1-1.5-1.9-2.2-3c-0.6-0.9-1.1-1.9-1.6-2.8v-0.1c-1-1.9-1.7-4-2.2-6.1c-0.6-2.3-0.9-4.7-0.9-7.1
			c-0.1-16.6,13.3-30.1,29.8-30.2c2.9,0,5.8,0.4,8.6,1.2l0.5,0.1c0.9,0.3,1.7,0.6,2.5,0.9l0.8-1.9c-0.9-0.4-1.8-0.7-2.7-1l-0.1-0.1
			h-0.1l-0.3-0.1c-3-0.9-6.1-1.3-9.2-1.3c-17.6,0.1-31.9,14.5-31.8,32.2c0,2.6,0.3,5.1,0.9,7.6c0.6,2.3,1.4,4.5,2.4,6.5v0.1
			c0.5,1,1.1,2,1.7,3C52.6,122.7,53.4,123.8,54.3,124.8L54.3,124.8z"/>
	</g>
	<g>
		<path d="M103.3,124.9c1.3-1.5,2.4-3.2,3.4-4.9c2.1-3.7,3.4-7.7,3.9-11.8V108c0.2-1.3,0.2-2.6,0.2-3.9c0-5.7-1.6-11.3-4.5-16.2
			c-1.8-3-4-5.7-6.7-7.9c-0.3-0.2-0.5-0.4-0.8-0.6L97.6,81c0.2,0.2,0.5,0.4,0.7,0.6c2.5,2.1,4.6,4.7,6.3,7.5
			c2.7,4.6,4.2,9.8,4.2,15.2c0,1.2-0.1,2.5-0.2,3.7v0.1c-0.5,3.9-1.7,7.6-3.6,11c-0.9,1.6-2,3.2-3.2,4.6L103.3,124.9L103.3,124.9z"
			/>
	</g>
	<g>
		<path class="st0" d="M63.2,78.6l8.2,3.2c0.2,0.1,0.4,0,0.5-0.1l6.4-7.7c0.2-0.3,0-0.7-0.4-0.7c-2.5,0.2-9.6,1-14.8,4.6
			C62.9,78.1,62.9,78.5,63.2,78.6L63.2,78.6z"/>
	</g>
	<g>
		<path d="M71.6,82.8c0.4,0,0.8-0.2,1.1-0.5l6.4-7.7c0.4-0.4,0.4-1.1,0.2-1.6c-0.3-0.5-0.8-0.8-1.4-0.8c-2.8,0.2-9.9,1.1-15.3,4.8
			c-0.4,0.3-0.7,0.8-0.6,1.3s0.4,1,0.9,1.2l8.2,3.2C71.2,82.8,71.4,82.8,71.6,82.8L71.6,82.8z M76.6,74.4l-5.2,6.3l-6.7-2.6
			C68.7,75.7,73.7,74.8,76.6,74.4z"/>
	</g>
	<g>
		<path class="st0" d="M80.1,74l0.6,0.7l3.5,4.2l1.7,2l4.9-5.2l0,0c1.8,0.8,3.5,1.7,5.2,2.7c-1.2-0.9-2.5-1.7-3.9-2.3l0,0
			c-1.3-0.6-2.6-1.1-3.9-1.4l0,0c-0.1,0-0.3-0.1-0.4-0.1c-3-0.8-5.8-1.1-7.1-1.2C80.1,73.3,79.9,73.7,80.1,74z"/>
	</g>
	<g>
		<path d="M85.7,82.3l5.2-5.5c1.5,0.7,3,1.5,4.4,2.4l1.2-1.6c-1.1-0.9-2.5-1.6-3.9-2.3l-0.2-0.2h-0.2c-1.2-0.5-2.4-1-3.8-1.4
			l-0.1-0.1h-0.1c-0.1,0-0.1,0-0.2-0.1h-0.1c-3.2-0.9-6-1.1-7.3-1.2c-0.6,0-1.1,0.3-1.3,0.8c-0.3,0.5-0.2,1.1,0.2,1.5l0.4,0.7
			L85.7,82.3L85.7,82.3z M89,76l-3.1,3.4l-4.1-4.9c1.4,0.2,3.4,0.5,5.5,1h0.2c0.1,0,0.1,0,0.2,0.1l0,0h0.2
			C88.2,75.7,88.6,75.9,89,76L89,76z"/>
	</g>
	<g>
		<path d="M72.2,73.4h2l-0.1-12.1c0-4.6-4.1-7.1-7.7-9.3c-2.3-1.4-4.5-2.8-5.2-4.4c0-0.1-0.1-0.2-0.1-0.2c0.7-0.6,5.2-0.3,7.6-0.1
			c5.4,0.5,9.6,0.8,10.1-1.7s-3.2-3.4-8-4.5c-3.1-0.8-7.8-1.9-8.3-3.3c0-0.1-0.1-0.3,0.2-0.9c0.5-0.8,1-1.4,1.5-2
			c1.1-1.3,2-2.4,1.7-3.8C65.5,29,63,27,52.5,20.6c-5.8-3.5-7.8-8.6-5.2-12.9c2-3.3,6.3-5.4,11.5-5.8c4.5-0.3,12,0.5,21.8,6.3
			c9.9,5.8,14.3,15.1,13.3,27.5c-0.9,10.2-5.3,20-7.9,24.9c-1.3,2.5-2,5.1-2.2,7.8L83.5,73l2,0.1l0.3-4.6c0.2-2.4,0.8-4.8,2-7
			c2.6-5,7.2-15.1,8.1-25.6c1.3-13.1-3.5-23-14-29.2c-17.2-10.2-31.4-7.5-36,0.1c-3.6,6.1,0.3,12.2,5.9,15.6
			c8.1,4.9,12.2,7.7,12.5,9.2c0.1,0.5-0.4,1.1-1.3,2.2c-0.5,0.6-1,1.3-1.6,2.1c-0.8,1.2-0.7,2.1-0.5,2.7c0.9,2.4,5.2,3.4,9.7,4.5
			c2.3,0.5,6,1.5,6.5,2.2c-0.6,0.7-5.4,0.3-8,0.1c-5.1-0.4-8.3-0.6-9.5,0.9c-0.3,0.4-0.6,1.1-0.1,2.1c0.9,2.2,3.4,3.7,6,5.3
			c3.3,2,6.7,4.1,6.7,7.6V73.4L72.2,73.4z"/>
	</g>
	<g>
		<path d="M61.1,11.1c-1.2,0-2.2-0.9-2.2-1.9s1-1.9,2.2-1.9s2.2,0.9,2.2,1.9S62.3,11.1,61.1,11.1z"/>
	</g>
	<g>
		<path d="M103.6,124.5c12.9-3.9,21.3-13.6,21.3-24.6c0-14.6-15-26.4-33.3-26.4c-0.9,0-3.1,0-4,0.1l0.1,2c0.9-0.1,3-0.1,3.9-0.1
			c17.2-0.1,31.3,10.9,31.3,24.4c0,10.1-7.8,19.1-19.9,22.8L103.6,124.5z"/>
	</g>
	<g>
		<path d="M110.4,108.6c2.3-2.6,3.5-5.6,3.5-8.8c0-4.9-2.9-9.5-7.9-12.3l-1,1.7c4.3,2.5,6.9,6.4,6.9,10.6c0,2.7-1,5.2-3,7.4
			L110.4,108.6z"/>
	</g>
	<g>
		<path d="M55.3,125.3c0.4,0,0.7-0.1,0.9-0.4l0.6-0.6l43-44.3l-0.9-0.7c-0.8-0.7-1.7-1.3-2.5-1.8c-1.7-1.1-3.5-2.1-5.3-2.8l-0.2-0.1
			h-0.7l-40.1,42.8l1.6,3.8h-0.3l1,1.5c1.1,1.7,1.9,2.4,2.8,2.5C55.2,125.3,55.3,125.3,55.3,125.3L55.3,125.3z M54.8,123.5
			L54.8,123.5L54.8,123.5z M82.6,94.9l-27.3,28.2c-0.2-0.2-0.5-0.6-1-1.3l-1.7-3.9l38.3-41.1c1.5,0.7,3,1.5,4.4,2.4
			c0.5,0.3,1,0.7,1.5,1L82.6,94.9L82.6,94.9z"/>
	</g>
	<g>
		<path d="M98.4,81.5l1.3-1.5L99,79.3c-0.1-0.1-2.6-2.5-6.5-4.1L92.4,75h-0.3c-0.4-0.2-0.8-0.3-1.1-0.4l-0.7,1.9
			c1.7,0.7,3.4,1.6,5,2.6c0.8,0.5,1.6,1.1,2.4,1.7L98.4,81.5L98.4,81.5z"/>
	</g>
	<g>
		<path d="M52.7,123.2h2.1l-3.2-7.4l-1.8,1.9l0.3,0.7c0,0,0,0.1,0.1,0.1v0.1c0.8,1.7,1.5,3.1,2.2,4.1L52.7,123.2z"/>
	</g>
	<g>
		<path class="st1" d="M86.7,73.1c-1-0.3-0.4-1.5,1.7-2.3c9.2-3.4,24.1,0.1,38.1,15l-15.7,14.8C110.8,100.6,108.2,79.6,86.7,73.1z"
			/>
	</g>
	<g>
		<path d="M110,102.7l17.9-16.8l-0.7-0.7C111.9,68.8,96.5,66.7,88,69.9c-1.8,0.7-2.9,1.7-2.8,2.8c0,0.7,0.5,1.2,1.2,1.4
			c20.7,6.2,23.4,26.5,23.4,26.7L110,102.7L110,102.7z M125.1,85.8l-13.7,12.8c-1.2-5.3-6.2-20.7-23.8-26.3c0.2-0.2,0.6-0.4,1.1-0.6
			C96.5,68.8,110.6,70.8,125.1,85.8z"/>
	</g>
	<g>
		<path d="M56.1,123.6l3.3,2.4l14.2-16.2l10.2-11.7l0.7-0.8l7.1-8.1l4.9-5.6l0,0l0,0l2.5-2.9l0.1-0.1L98.4,80v0.1L83.7,95.3
			l-9.4,9.7L56.1,123.6z"/>
	</g>
	<g>
		<path d="M84.1,79.7l1.1,1.3l-2.4,1.5L84.1,79.7z"/>
	</g>
	<g>
		<path d="M75.1,79.4l1.1,2l-3.3,2.2l-11-4.4l8.8,1.9L75.1,79.4z"/>
	</g>
	<g>
		<path d="M96.5,83.6c0,0-7,6-8.7,14c-1.6,8-0.9,16-0.9,16l-5.5,4.2c-0.2,0.2-0.7,0.6-1.3,0.9c-0.4,0.3-1-0.1-1-0.6V117l6-5
			l-0.8-16.6L96.5,83.6L96.5,83.6z"/>
	</g>
	<g>
		<path d="M86.5,60.1c0,0-4.5,10.6-9,12.7l6.6,0.4l0.4-5.5l1.6-5.9L86.5,60.1z"/>
	</g>
	<g>
		<path class="st1" d="M71,73.1c1-0.3,0.4-1.5-1.7-2.3c-9.2-3.4-24.1,0.1-38.1,15l15.7,14.8C46.9,100.6,49.5,79.6,71,73.1z"/>
	</g>
	<g>
		<path d="M47.7,102.7l0.2-2c0-0.2,2.8-20.5,23.4-26.7c0.7-0.2,1.2-0.8,1.2-1.4c0-1.1-1-2.1-2.8-2.8c-8.5-3.2-23.8-1.1-39.2,15.3
			l-0.7,0.7L47.7,102.7L47.7,102.7z M70.1,72.3c-17.6,5.6-22.6,21-23.8,26.3L32.6,85.8c14.4-15,28.5-17,36.3-14.1
			C69.5,71.9,69.8,72.1,70.1,72.3z"/>
	</g>
	<g>
		<path d="M34,103.4c3.6,0,7.5-0.8,11.4-2.5c0.5-0.2,0.7-0.8,0.5-1.3s-0.8-0.7-1.3-0.5c-9.8,4.3-19.6,2.6-24.3-4.3
			c-4.5-6.6-5.8-12.7-4.4-20.1c0.1-0.5-0.3-1.1-0.8-1.2s-1.1,0.3-1.2,0.8c-1.5,8.1-0.1,14.5,4.7,21.6C22,100.8,27.6,103.4,34,103.4
			L34,103.4z"/>
	</g>
	<g>
		<path d="M32.8,91c1.6,0,2.7-0.4,2.8-0.4c0.5-0.2,0.8-0.7,0.6-1.3c-0.2-0.5-0.7-0.8-1.3-0.6c0,0-3.4,1.1-6-1s-3.7-6.9-3-13.9
			c0.1-0.6-0.3-1-0.9-1.1c-0.5-0.1-1,0.4-1.1,0.9c-0.8,7.8,0.5,13.1,3.8,15.7C29.4,90.7,31.3,91,32.8,91L32.8,91z"/>
	</g>
	<g>
		<path d="M19.9,76.1c2.3,0,4.1-0.7,5-1.2c2.8-1.5,4.6-4.3,4.4-6.9c-0.1-1.7-0.2-3.1-0.2-4.1c0-0.5,0.1-0.9,0.3-1.3
			c0.1-0.2,0.3-0.5,0.4-0.8c0.4-0.7,0.8-1.4,0.9-2.1c0.3-1.8-1-4.1-2.9-5.3c-1.8-1.1-3.8-1-5.7,0.2c-2.6,1.8-2.7,3.9-2.7,5.1
			c0,0.2,0,0.5-0.1,0.7c-0.9-0.6-3-2.2-5.1-5.3c-3-4.6-7.5-5.4-9-4.6c-0.5,0.3-0.6,0.9-0.3,1.4c0.3,0.5,0.9,0.6,1.4,0.4
			c0.6-0.2,3.8,0.2,6.3,3.9c2.3,3.5,4.8,5.3,5.8,5.9c0.6,0.4,1.4,0.4,2,0.1c0.9-0.5,1-1.6,1-2.4c0.1-1.2,0.1-2.4,1.9-3.6
			c1.2-0.8,2.3-0.9,3.5-0.2c1.3,0.8,2.1,2.4,1.9,3.3c0,0.3-0.4,0.9-0.7,1.4c-0.2,0.3-0.4,0.6-0.5,0.9c-0.3,0.7-0.5,1.5-0.5,2.3
			c0,1,0.1,2.4,0.3,4.1c0.1,1.8-1.3,3.9-3.4,5c-1.7,0.9-6.4,2.5-13-2.6c-6.7-5.2-8.8-9-8.5-10.9c0.1-0.4,0.2-0.7,0.5-0.8
			c0.8-0.1,3.5,2,5,3.2c1.7,1.3,3.2,2.5,4.3,2.9c0.5,0.2,1.1-0.1,1.3-0.6c0.2-0.5-0.1-1.1-0.6-1.3c-0.8-0.3-2.3-1.4-3.7-2.6
			c-3.3-2.6-5.4-4.1-7-3.5c-0.9,0.4-1.6,1.2-1.7,2.3c-0.3,1.9,0.6,6,9.3,12.7C13.8,75.2,17.2,76.1,19.9,76.1L19.9,76.1z"/>
	</g>
	<g>
		<path d="M14.1,61.9c0.4,0,0.8-0.3,1-0.7c0.2-0.5-0.1-1.1-0.7-1.2c-1.1-0.3-3.2-2.5-4.7-5.6c-1-2.2-3.1-3.8-5-4.1
			c-1.4-0.2-2.7,0.3-3.6,1.4c-2.5,2.9,0.2,7,0.4,7.2c0.3,0.5,0.9,0.6,1.4,0.3s0.6-0.9,0.3-1.4c0,0-2-3-0.5-4.7
			c0.5-0.6,1.1-0.8,1.9-0.7c1.3,0.2,2.8,1.4,3.5,2.9c1.4,2.9,3.8,6,5.9,6.7C13.9,61.9,14,61.9,14.1,61.9L14.1,61.9z"/>
	</g>
	<g>
		<path d="M15.8,75.1c0,0,0.6,2.6,4.1,3.3c3.5,0.7,3.8,3.8,4.8,3.7c1-0.1,0-7.7,0-7.7L15.8,75.1z"/>
	</g>
	<g>
		<path d="M76.8,131.3c11.7,0,23.4-3.9,28.8-8.4l-1.3-1.5c-8.7,7.3-35.2,12.9-48.7,1.3l-1.3,1.5C60.2,129.4,68.5,131.3,76.8,131.3z"
			/>
	</g>
</g>
</svg>
