<svg width="169" height="142" viewBox="0 0 169 142" fill="none" xmlns="http://www.w3.org/2000/svg">
<g clip-path="url(#clip0_393_523)">
<path d="M116.712 51.0978H63.251V67.2863H116.712V51.0978ZM115.19 65.7558H103.249L99.4852 61.593L101.083 59.4503L100.254 56.4468L98.7888 56.8562L99.4167 59.1366L98.1914 60.778L95.9653 60.227L95.6418 58.4861L92.6546 57.0513L91.9963 58.4326L94.2871 59.5345L94.6486 61.482L98.0886 62.3353L101.186 65.7635H64.7655V52.6359H70.0359L72.6311 55.0158L71.3563 56.4315L68.5518 60.051L72.5854 60.667L73.259 61.7384L71.9461 63.6821L73.2057 64.543L75.0817 61.769L74.3435 60.5905L76.9767 60.3074L77.7797 58.7922L79.9221 59.5115L80.4053 58.0614L77.0414 56.9327L76.0102 58.8764L73.0611 59.194L71.3449 58.9338L72.4979 57.4416L74.7697 54.9163L72.2886 52.6397H105.178L104.565 55.1038L106.879 56.1981L107.149 57.9275L106.042 60.1543L108.846 63.5367L110.014 62.5572L107.849 59.9439L108.314 59.0103L110.654 59.8941L111.187 58.4593L108.622 57.4913L108.256 55.1573L106.346 54.2544L106.746 52.6397H115.174V65.7673L115.19 65.7558Z" fill="#FFAC7F"/>
<path d="M167.608 89.7536C167.444 89.4972 167.231 89.2868 166.988 89.1261V80.984L150.975 67.3322V72.2221L147.988 56.6572H149.057L150.309 55.5361H150.324V55.5247H150.328L150.324 55.5132L151.192 35.2574H152.132L153.825 33.7116H153.821C153.875 33.6466 153.92 33.5777 153.955 33.4974C154.092 33.1683 154.004 32.7895 153.73 32.56L140.762 21.5023L125.354 29.9046C125.278 29.9467 125.209 30.0002 125.152 30.0576L125.126 30.05L122.45 32.2921L125.826 32.4987L124.916 55.758L129.06 55.9226L126.739 67.3437L125.308 65.9816V73.2743L125.282 65.9892L122.747 69.7618V50.7572L122.507 50.5315C90.7141 20.6185 60.8994 47.3519 57.604 50.4971C57.429 50.6654 57.3377 50.7572 57.3377 50.7572L57.117 50.9792L57.0903 50.9983L54.6283 53.5657L54.5636 73.5651L47.3563 73.9362L39.2815 52.3948L42.965 56.8141L48.9926 49.7624L36.6482 42.0183C36.6977 41.7543 36.7395 41.4902 36.7623 41.2186L49.9325 44.0385L50.3587 34.7524L36.496 36.2331L35.6778 36.3211L35.7121 36.5162C35.5827 36.2981 35.4457 36.0839 35.2973 35.8811L43.9848 24.1271L35.7653 19.8724L31.3854 33.0114C30.7994 32.8163 30.1868 32.6824 29.5627 32.6327L28.6418 19L19.646 21.1427L24.749 33.8188C24.4293 34.0216 24.1287 34.2435 23.8471 34.4845L13.5994 25.5121L8.74381 33.4247L21.2671 38.7584C21.1834 39.1218 21.1225 39.4892 21.0921 39.8641L8.017 37.7176L8.03222 47.0152L21.2519 44.9529L14.6573 57.6635L14.8133 57.453L14.6611 57.7017L23.2116 61.241L23.771 58.9223L25.1371 75.0802L9.07868 75.9029V75.8761L9.04443 75.9067H9.03682V75.9143L5.12496 79.3502L5.16682 87.9897C5.16682 87.9897 5.14779 87.9897 5.14018 87.9859L5.05266 87.9706C3.98717 87.7869 2.89124 88.3838 2.06929 89.5776C2.06929 89.5776 2.06929 89.5776 2.06929 89.5814L2.0046 89.6771C1.89044 89.8646 1.78389 90.0444 1.68496 90.2166L1.65832 90.2701C1.63549 90.3122 1.61266 90.3505 1.59743 90.3964C1.29301 91.0315 1.09513 91.7011 1.02664 92.3363C1.00761 92.5046 1 92.673 1 92.8451V106.103C1 106.616 1.15982 107.255 1.45283 107.897C1.80673 108.67 2.29 109.332 2.78089 109.707L2.85699 109.764C3.03204 109.898 3.19567 110.025 3.32505 110.155C4.81673 111.666 12.6328 119.46 19.8896 124.514C23.6835 127.154 26.762 128.647 29.0376 128.945C29.6198 129.022 30.1411 129.029 30.7005 128.945C31.4768 128.819 32.4661 128.869 33.642 129.094L33.779 129.125L33.8437 129.156H33.935L34.1709 129.217H34.2166C37.6794 130.001 42.105 132.006 46.7855 134.126C48.2886 134.807 49.845 135.511 51.3671 136.173C54.263 137.432 58.015 138.973 61.318 139.716C62.4634 139.972 63.5289 140.125 64.4879 140.175H64.5069C65.0549 140.202 65.599 140.19 66.1241 140.14C66.6036 140.095 67.1021 140.064 67.6196 140.052C69.9751 139.991 72.6503 140.255 74.7241 140.492C74.7622 140.5 74.7965 140.5 74.8231 140.504C76.0294 140.646 77.2699 140.806 78.5219 140.967C82.5365 141.487 86.6843 142.027 90.5847 142.027C90.6494 142.027 90.7103 142.027 90.775 142.027C93.1913 142.015 95.2576 141.793 97.0956 141.357C98.3628 141.051 99.5348 140.634 100.57 140.11C100.753 140.018 100.935 139.93 101.122 139.846C105.064 138.051 110.186 137.569 115.608 137.06C116.773 136.949 117.949 136.842 119.125 136.716H119.288L119.326 136.693C122.367 136.372 125.909 135.905 129.296 134.902L129.414 134.872C131.77 134.168 133.79 133.284 135.59 132.167C141.755 128.337 150.583 122.881 156.786 119.051C157.847 118.396 158.867 117.662 159.811 116.87C160.538 116.265 161.238 115.611 161.896 114.926C163.411 113.35 164.731 111.582 165.82 109.665L165.926 109.485V109.466C166.428 108.563 166.824 108.035 167.113 107.641C167.585 107.006 167.928 106.551 167.985 105.533C167.992 105.41 168 105.28 168 105.135V91.1195C168 90.626 167.867 90.1592 167.616 89.7727L167.608 89.7536ZM2.51451 106.088V96.5221C3.09673 92.3975 4.27257 90.7178 5.17062 90.0329H5.17443C5.40655 89.8569 5.61585 89.7498 5.7947 89.6847C5.97355 89.7306 6.1562 89.7766 6.35408 89.8301C6.38452 89.8378 6.41877 89.8493 6.45301 89.8607C6.79169 90.1783 7.86098 91.1731 9.19665 92.3631C9.20045 92.3631 9.20426 92.3669 9.20806 92.3707C9.39833 92.5391 9.5962 92.7151 9.79789 92.8911C10.3459 93.3808 10.9281 93.8859 11.5103 94.3833C14.1131 96.5948 15.6467 94.8768 18.1315 96.0936C20.6126 97.3103 23.6835 99.8853 27.1121 99.606C30.5407 99.3305 33.2234 102.284 36.3742 103.643C39.1026 104.817 40.0615 102.445 42.3638 102.066C43.2847 101.917 44.1979 101.699 45.0922 101.416C46.6638 100.915 52.5087 102.097 57.8856 103.245C59.286 103.543 60.6521 103.838 61.9041 104.102C70.1273 105.824 72.1175 103.842 77.0606 103.229H77.8217V103.149C78.2098 103.115 78.617 103.088 79.047 103.076C85.5769 102.862 83.4992 105.177 91.7377 105.318C99.9724 105.456 102.195 105.039 102.195 105.039C103.85 104.756 103.062 104.492 109.41 104.595C109.425 104.595 109.684 104.672 110.095 104.798C111.08 105.104 112.937 105.713 114.341 106.317C117.21 107.549 117.534 107.503 120.053 105.659C121.084 104.905 122.892 104.044 126.077 103.356C126.693 103.222 127.359 103.095 128.086 102.977C129.578 102.736 131.096 102.774 132.592 103.007C133.916 103.214 135.731 103.191 136.819 101.879C137.223 101.393 137.706 100.884 138.246 100.39C138.246 100.39 138.25 100.39 138.254 100.387C138.844 99.8509 139.506 99.3382 140.217 98.8982V99.6634H140.221V98.8982C140.872 98.4926 141.561 98.1521 142.276 97.911C142.39 97.8727 142.504 97.8345 142.622 97.8039C143.6 97.5207 144.62 97.4327 145.632 97.6393C145.781 97.67 145.929 97.6891 146.081 97.7006C147.779 97.8421 149.62 96.8894 151.439 95.8602C152.448 95.2901 153.452 94.697 154.423 94.257C155.153 93.9241 155.861 93.6754 156.538 93.5874C157.109 93.5109 157.684 93.4956 158.247 93.5147C158.255 93.5109 158.262 93.5147 158.266 93.5147C161.025 93.5913 163.609 94.3871 164.929 92.4625C164.929 92.4625 165.081 92.2674 165.283 91.9804C165.789 92.3745 166.303 93.0403 166.402 94.169C166.425 94.433 166.447 94.6549 166.466 94.8386V102.422C166.345 102.843 166.192 103.321 166.021 103.838C164.834 107.381 163.281 110.56 158.255 112.512C157.535 112.791 155.393 115.213 154.898 116.403C153.076 120.799 148.395 120.765 144.346 123.784C140.297 126.802 135.959 123.148 134.688 126.99C133.619 130.219 130.887 131.558 125.887 132.645C124.939 132.852 118.105 132.35 117.214 132.534C113.668 133.261 112.454 132.871 111.952 132.867C111.541 132.863 110.494 132.737 109.284 132.568C105.174 132.002 100.988 132.473 97.1146 133.965C93.7469 135.262 90.4439 136.647 90.4439 136.647C87.2855 138.633 81.0334 138.162 77.6961 138.396C74.1381 138.648 71.4097 134.263 67.2315 133.988C66.0518 133.911 61.9802 137.225 54.7272 135.078C51.3786 134.087 49.6205 132.071 48.6996 130.189C47.813 128.375 45.9446 127.2 43.9392 127.311C41.6788 127.438 39.6962 126.102 32.7173 125.984C27.8313 125.899 25.2398 123.891 23.8623 121.832C22.4962 119.785 20.3614 118.37 17.9336 118.033C11.5674 117.145 4.80151 109.214 2.54115 106.348C2.52593 106.252 2.51451 106.164 2.51451 106.088ZM134.087 86.9681L141.279 88.1428L140.328 96.0362C139.449 96.3078 138.608 96.5757 137.79 96.8512V96.8397L136.781 97.1917C136.751 97.2032 136.72 97.2146 136.686 97.2223L136.614 97.2452C136.024 97.4519 135.392 97.6814 134.707 97.934L134.091 86.9643L134.087 86.9681ZM95.5697 102.583C94.3482 102.464 92.944 102.269 91.205 101.974C89.7285 101.726 88.195 101.443 86.5739 101.14C85.8851 101.01 85.1812 100.88 84.4734 100.754V84.5309L97.3125 84.0679L95.5659 102.587L95.5697 102.583ZM39.232 97.184C37.7099 97.1649 36.2638 97.1458 34.8673 97.096L33.5088 85.277L40.7655 85.3229L41.1461 97.2146C40.5068 97.2032 39.8637 97.1955 39.232 97.1879V97.184ZM152.497 70.6342L165.466 81.6919V85.0015L163.632 83.5629L160.249 83.0195L160.172 80.2915L158.076 78.0876L156.976 79.1474L158.666 80.9228L158.715 82.6714L156.957 82.2007L154.807 83.7656L155.697 85.0053L157.265 83.8651L158.761 84.2669V84.3319L163.004 85.013L165.466 86.9414V88.9233C165.412 88.9425 165.355 88.9578 165.306 88.9807C161.828 90.515 158.426 91.4677 154.054 92.5046C153.612 92.6118 153.159 92.7189 152.706 92.8222L151.694 93.0556C150.328 93.3732 148.916 93.706 147.44 94.0734C145.393 94.5822 143.608 95.0605 141.918 95.5579L142.969 86.8687L132.466 85.1507L133.216 98.5002C131.321 99.231 129.387 100.031 127.466 100.884C127.26 100.976 127.051 101.06 126.846 101.144V74.5484L127.698 70.3472L138.901 80.9878V70.7069L152.505 81.9099V70.6304L152.497 70.6342ZM128.075 53.0415L128.988 31.745L149.742 33.6772L148.871 53.9444L138.543 53.4968L141.115 48.9895L141.077 48.9436L141.85 47.1683L143.741 44.7195L142.539 43.7821L140.533 46.3839L139.974 47.6733L139.243 46.8316L139.141 43.8701L136.431 42.8906L133.748 44.4938L134.525 45.81L136.591 44.5741L137.656 44.9606L137.744 47.4285L139.266 49.177L136.842 53.4241L128.086 53.0453L128.075 53.0415ZM146.116 74.6785L143.928 55.2606L146.188 55.3601L150.606 78.3784L146.116 74.6785ZM133.969 55.9953L142.523 56.3779L144.426 73.2896L137.371 67.4814V77.441L132.036 72.3675L133.969 55.9953ZM149.636 31.0716L130.13 29.0475L140.579 23.3504L149.639 31.0716H149.636ZM130.872 54.6982L132.576 54.7709L130.651 71.0589L128.044 68.5834L130.868 54.6982H130.872ZM58.6581 51.6067C61.8394 48.5687 90.5467 22.83 121.229 51.423V102.59C117.5 103.095 113.691 102.866 109.999 102.633C108.245 102.522 106.578 102.422 104.938 102.391V99.5257L107.541 101.041L108.306 99.717L104.95 97.7618V96.4532L107.218 97.7427L107.967 96.4111L104.957 94.6932V93.3846L106.636 94.3221L107.374 92.9829L103.995 91.0966L100.889 93.002L101.681 94.3106L103.439 93.2354V94.5478L100.368 96.4303L101.16 97.7388L103.435 96.3461V97.5705L99.9001 99.7361L100.692 101.045L103.428 99.3649V102.399C102.267 102.418 101.217 102.487 100.246 102.613L100.121 102.629C99.2608 102.743 98.26 102.77 97.088 102.713L98.9945 82.4915L82.9512 83.0693V100.494C81.0181 100.149 79.3552 99.8853 77.8179 99.6787V72.3866L58.6429 73.3699V51.6411C58.6429 51.6411 58.6543 51.6296 58.6619 51.6258L58.6581 51.6067ZM45.7695 74.0127L28.6266 74.8927L26.1722 48.9666L26.4043 48.01C26.7239 48.1172 27.0436 48.209 27.3708 48.2741L31.2903 62.0177L31.3854 62.4424L39.9664 58.9835L33.0712 47.2372C33.4936 46.9732 33.8893 46.6709 34.2508 46.338L36.3323 48.8365L45.7695 74.0089V74.0127ZM30.0231 49.1617C30.788 48.9589 31.4768 48.6299 31.9638 48.3621L37.7555 58.2298L32.4852 60.3533L30.0231 49.1617ZM46.6904 50.1106L42.9878 54.4418L35.6702 45.657C36.2562 45.1213 36.7167 44.5091 37.0211 44.0461L46.6904 50.1106ZM37.4359 37.6679L48.7681 36.4588L48.5055 42.1637L37.356 39.7761C37.4892 38.9918 37.4777 38.2227 37.4359 37.6717V37.6679ZM36.6596 22.0418L41.7093 24.6551L34.913 33.8532C34.2584 33.4055 33.5583 33.0956 33.0407 32.9043L36.6596 22.0418ZM27.2491 20.9016L28.033 32.3342C27.2491 32.4222 26.5146 32.6441 25.9971 32.8354L21.7199 22.214L27.2453 20.8978L27.2491 20.9016ZM13.9533 27.8461L22.5495 35.3722C22.0548 35.992 21.6933 36.6693 21.465 37.1743L10.9737 32.7054L13.9571 27.8461H13.9533ZM27.4736 34.297C27.9645 34.1784 28.4553 34.1249 28.9386 34.1249C31.8154 34.1249 34.4297 36.1068 35.1184 39.0415C35.9252 42.4697 33.8094 45.9171 30.3999 46.7283C28.7484 47.1224 27.0436 46.8431 25.6014 45.9477C24.1591 45.0524 23.1469 43.6444 22.755 41.9838C22.6218 41.4176 22.5761 40.8551 22.5952 40.3003L22.6446 40.1128L22.599 40.1052C22.774 37.3771 24.6919 34.959 27.4736 34.297ZM9.55435 45.2246L9.54293 39.5159L20.7914 41.364C20.6963 42.1522 20.7458 42.9212 20.8143 43.4722L9.55435 45.2284V45.2246ZM22.1537 59.1404L16.9024 56.9671L22.8996 47.2219C23.4704 47.5471 24.0602 47.769 24.5511 47.9182L24.6386 48.8595L22.1537 59.1404ZM50.9562 75.2792L47.9994 79.2431L50.3093 81.0299L49.4416 82.6484L46.9035 86.0499L48.1212 86.9681L50.393 83.9225L52.737 84.4773L54.1488 85.1851L52.8474 86.5894L53.9624 87.6339L56.6489 84.7337L53.2584 83.031L51.2187 82.5489L52.2614 80.6167L50.1152 78.9561L52.7485 75.4246L52.4555 75.2065L76.2957 73.9821V99.4721C76.2957 99.4721 76.2767 99.4721 76.2653 99.4721C75.0476 99.3305 73.788 99.1928 72.5171 99.0703C71.7636 98.9976 71.0178 98.9326 70.2757 98.8675L70.2833 95.6995L73.7195 97.7006L74.4844 96.3767L70.291 93.9318V91.9383L73.32 93.664L74.0696 92.3324L70.2986 90.1821V88.1887L72.6084 89.4743L73.3466 88.1351L69.2978 85.8739L65.58 88.1504L66.3715 89.459L68.7803 87.9821V89.987L64.9369 92.3401L65.7284 93.6486L68.7726 91.7853V93.6831L64.3623 96.3844L65.1538 97.6929L68.765 95.4814L68.7574 98.7375C65.2908 98.4505 61.6529 98.2171 57.9161 98.0487C53.7949 97.8613 50.9371 97.8153 50.5338 97.8115C49.7803 97.7082 49.004 97.6202 48.1631 97.5437C46.2376 97.3677 44.3387 97.295 42.6682 97.2529L42.2382 83.8116L31.7964 83.7465L33.3223 97.0348C31.5833 96.9277 30.183 96.7593 28.9729 96.5106C27.0017 96.1089 25.1067 95.623 23.1812 95.0222C21.9064 94.6243 20.7077 94.2034 19.5775 93.7711L17.8347 89.9143L21.0768 86.1111L24.1059 82.8741L27.4888 81.7378L27.0055 80.2876L23.2573 81.5465L20.6164 84.3663L18.2875 80.7659L13.6222 81.6574L13.9076 83.1611L17.5683 82.4609L19.5585 85.5372L16.0462 89.6579L17.5341 92.9446C16.3811 92.4625 15.2928 91.9728 14.2501 91.4907C13.8163 91.2917 13.3977 91.0966 12.9829 90.9053C12.1343 90.5112 11.3352 90.1439 10.5513 89.7995V77.3606L50.9485 75.2868L50.9562 75.2792Z" fill="#FFAC7F"/>
<path d="M12.6786 107.924C13.8658 108.873 13.8658 108.242 14.958 108.873C16.0463 109.508 16.1528 110.078 17.6103 110.078C18.7557 110.078 19.1476 109.122 19.2618 108.708C19.7146 108.793 20.1484 108.85 20.5556 108.865L20.5708 108.483C17.0737 108.337 11.0537 105.139 10.9928 105.108L10.814 105.445C10.8787 105.479 11.3429 105.728 12.0545 106.072C11.9289 106.417 11.7805 107.205 12.6786 107.924Z" fill="#FFAC7F"/>
<path d="M28.8054 116.2C29.9927 116.946 29.9166 117.394 31.0049 117.895C32.0932 118.393 32.2797 117.895 33.7371 117.895C34.7912 117.895 35.4647 117.631 35.7615 117.482C36.0812 117.532 36.3894 117.566 36.6786 117.578L36.6938 117.195C33.1968 117.05 27.1767 113.851 27.1159 113.82L26.937 114.157C27.0017 114.191 27.4621 114.436 28.1661 114.777C28.0444 115.06 27.9378 115.657 28.8054 116.2Z" fill="#FFAC7F"/>
<path d="M50.6933 115.098C52.0442 115.481 51.8577 116.189 53.0412 116.361C53.5854 116.441 54.3731 114.846 54.8754 114.995C55.8305 115.282 56.8769 115.091 57.638 114.444C57.6723 114.413 57.7027 114.387 57.7293 114.364C58.1099 114.306 58.498 114.249 58.9052 114.176L58.8405 113.801C52.1698 114.964 49.4794 113.996 48.4748 113.319L48.2617 113.637C48.5623 113.839 49.0076 114.065 49.643 114.26C49.6697 114.505 49.86 114.865 50.6933 115.102V115.098Z" fill="#FFAC7F"/>
<path d="M71.1469 124.017C72.4978 124.4 72.5016 125.329 73.6888 125.498C74.8761 125.666 74.956 124.66 76.3526 124.25C77.3724 123.952 77.947 123.5 78.1867 123.279C78.5026 123.236 78.807 123.183 79.0886 123.114L78.9973 122.743C75.5991 123.588 68.9284 122.219 68.8637 122.207L68.7876 122.582C68.8599 122.597 69.3698 122.701 70.1385 122.831C70.1004 123.137 70.1651 123.741 71.1507 124.017H71.1469Z" fill="#FFAC7F"/>
<path d="M116.754 114.696C118.143 114.895 119.044 115.569 120.239 115.58C121.438 115.592 120.612 114.83 121.944 114.237C122.907 113.809 123.42 113.288 123.63 113.036C123.938 112.952 124.235 112.856 124.505 112.749L124.364 112.393C121.107 113.686 114.314 113.216 114.246 113.212L114.219 113.594C114.295 113.598 114.809 113.637 115.593 113.66C115.593 113.969 115.741 114.559 116.75 114.7L116.754 114.696Z" fill="#FFAC7F"/>
<path d="M120.46 122.353L120.434 122.735C120.502 122.739 120.966 122.773 121.674 122.796C121.602 122.965 121.674 123.206 122.523 123.328C123.912 123.527 124.151 123.588 125.346 123.596C126.545 123.608 127.481 124.312 128.813 123.719C129.875 123.244 129.974 122.448 129.97 122.142C130.232 122.066 130.483 121.981 130.716 121.89L130.575 121.534C127.317 122.827 120.525 122.356 120.456 122.353H120.46Z" fill="#FFAC7F"/>
<path d="M141.146 110.537C141.191 110.966 141.412 111.972 142.516 111.972C143.916 111.972 143.425 110.625 144.612 110.472C145.8 110.319 146.275 111 147.512 110.224C148.406 109.665 148.84 109.08 149.015 108.796C149.312 108.67 149.59 108.532 149.845 108.387L149.658 108.054C146.61 109.787 139.821 110.273 139.753 110.277L139.78 110.66C139.856 110.656 140.373 110.618 141.149 110.534L141.146 110.537Z" fill="#FFAC7F"/>
<path d="M156.162 101.684C157.562 101.684 157.49 102.851 158.677 102.694C159.864 102.537 160.001 101.274 161.238 100.501C162.475 99.7284 162.84 98.8982 162.84 98.8982C162.84 98.8982 156.969 100.823 154.86 100.62C154.86 100.62 154.761 101.68 156.162 101.684Z" fill="#FFAC7F"/>
<path d="M112.945 47.4285H67.8784V48.9589H112.945V47.4285Z" fill="#FFAC7F"/>
</g>
<defs>
<clipPath id="clip0_393_523">
<rect width="169" height="142" fill="white"/>
</clipPath>
</defs>
</svg>
