<?xml version="1.0" encoding="utf-8"?>
<svg version="1.1" id="Calque_2_00000170264693193820269720000011184943321269504942_"
	 xmlns="http://www.w3.org/2000/svg" xmlns:xlink="http://www.w3.org/1999/xlink" x="0px" y="0px" viewBox="0 0 438.9 321.5"
	 style="enable-background:new 0 0 438.9 321.5;" xml:space="preserve">
<style type="text/css">
	.st0{fill:#FF0000;}
</style>
<g>
	<path class="st0" d="M304.1,83.9H163.6v42.3h140.5V83.9z M300.1,122.2h-31.4l-2.6-2.9l-7.3-8l3.1-4.1l1.1-1.5l-2.2-7.9l-1.9,0.5
		l-1.9,0.5l1.7,6l-3.2,4.3l-4.6-1.1l-1.3-0.3l-0.1-0.5l-0.8-4l-7.9-3.8l-0.9,1.8L239,103l6,2.9l1,5.1l9,2.2l8.1,9h-95.7V87.9h13.9
		l1.8,1.6l5,4.6l-3.3,3.7l-0.2,0.3l-7.2,9.2l9,1.4l1.6,0.2l1.8,2.8l-2.3,3.4l-1.2,1.7l3.3,2.2l4.9-7.2l-1.9-3.1l6.9-0.7l1.5-2.9
		l0.6-1.1l2,0.7l3.6,1.2l0.6-1.9l0.6-1.9l-8.8-3l-2.7,5.1l-7.8,0.8l-3.6-0.5l-0.9-0.1l0.7-0.9l2.3-3l6-6.6l-6.5-6h86.5l-1.6,6.4
		l6.1,2.9l0.7,4.5l-2.9,5.8l7.4,8.8l1.5-1.3l1.5-1.3l-3-3.6l-2.7-3.2l1.1-2.1l0.1-0.3l6.2,2.3l0.7-1.9l0.7-1.9l-2.7-1l-4-1.5
		l-0.9-5.5l-0.1-0.6l-0.5-0.2l-4.6-2.1l0.8-3.2l0.2-1h22.2v34.3H300.1z"/>
	<path class="st0" d="M436.2,183.3L436.2,183.3V162l-42.1-35.7v12.8l-7.8-40.7h2.8l3.3-2.9l0,0l0,0l0,0l0,0l0,0l2.3-52.9l0,0h2.5
		l4.2-3.8l0,0l0,0l0.2-0.2l0,0c0.1-0.2,0.2-0.3,0.3-0.5c0.4-0.9,0.1-1.8-0.6-2.5l-34-29.1l-40.5,22c-0.2,0.1-0.4,0.2-0.5,0.4l0,0
		h-0.1l-7,5.9l8.9,0.5l-2.4,60.8l10.9,0.4l0,0l-6.1,29.9l-3.8-3.6v19.9l-0.1-19.9l-6.7,9.9V83l-0.6-0.6
		c-20.1-18.8-41.7-30.5-64-34.8c-17.9-3.4-36.4-2-54.8,4.1c-31.3,10.4-51.6,30.4-52.4,31.3l-0.6,0.6l0,0h-0.1l-6.5,6.7l-0.2,52.3
		l-19,1l-21.2-56.3l9.7,11.5L126,80.4L95.1,61l-1.3-0.8c0.1-0.7,0.2-1.4,0.3-2.1l34.6,7.4l0,0l1.1-24.3L93.3,45l-2.2,0.2l0.1,0.4
		c-0.3-0.6-0.7-1.1-1.1-1.6L113,13.4L91.4,2.3L79.9,36.6c-1.6-0.5-3.2-0.9-4.8-1L72.7,0L49,5.6l13.4,33.1c-0.8,0.5-1.6,1.1-2.4,1.8
		L33.1,17L20.3,37.7l32.9,13.9c-0.2,0.9-0.4,1.9-0.5,2.9l-34.3-5.6v24.3l0,0l34.7-5.4L35.9,101l0.4-0.5l0,0l-0.4,0.6l22.5,9.2
		l1.5-6.1l0,0l0,0l3.6,42.3l0,0l-42.2,2.2v-0.1l-0.1,0.1l0,0l-10.3,9l0.1,22.6c-0.1,0-0.2,0-0.3-0.1c-1.9-0.3-3.9,0.3-5.7,1.8
		c-2.9,2.5-5,7-5,10.9v34.7c0,3.1,2.2,7.6,4.7,9.4l0.1,0.1c0.5,0.4,0.9,0.7,1.3,1.1c3.6,3.7,16.6,16.5,31.1,28.1
		c18.9,15.2,32.6,22.3,40.9,21c9-1.5,25.9,6.2,42.3,13.5c18.5,8.3,37.7,17,50.8,15.7c9-0.9,20.5,0.6,32.6,2.2
		c10.7,1.4,21.5,2.8,31.7,2.8l0,0c9.7,0,18.6-1.3,26.2-5c10.5-5.3,24.6-6.6,39.6-8c18.4-1.7,37.4-3.5,52.5-12.8
		c17.7-10.9,42.5-26.2,55.7-34.3c9.8-6,18.1-14.5,23.8-24.6c1.4-2.6,2.6-4.1,3.4-5.2c1.5-2,2.3-3.2,2.3-6.5v-36.6
		C438.9,186.3,437.9,184.3,436.2,183.3z M4,227.6v-25c1.5-10.8,4.6-15.2,7-17c0.6-0.5,1.2-0.7,1.6-0.9l0,0c0.6,0.1,1.2,0.3,1.8,0.5
		c0.9,0.8,3.5,3.2,6.8,6.1c0.1,0.1,0.3,0.3,0.4,0.4c0.5,0.5,1,0.9,1.5,1.4c0.7,0.6,1.3,1.2,2,1.8c0.8,0.7,1.7,1.4,2.5,2.1
		c6.8,5.8,10.9,1.3,17.4,4.5s14.6,9.9,23.6,9.2s16.1,7,24.3,10.5c7.2,3.1,9.7-3.1,15.7-4.1c2.4-0.4,4.8-1,7.2-1.7
		c3.9-1.2,18.1,1.5,31.6,4.4c0.7,0.1,1.3,0.3,2,0.4c0.7,0.1,1.3,0.3,2,0.4c3,0.6,5.9,1.2,8.5,1.8c20.5,4.3,26.2-0.2,37.8-2
		c0.7-0.1,1.3-0.2,2-0.3c0.6-0.1,1.3-0.1,2-0.2c1-0.1,2.1-0.2,3.2-0.2c4.9-0.2,7.9,0.2,10.3,0.8c2.3,0.6,3.9,1.5,6,2.3
		c3.3,1.3,7.5,2.6,17.1,2.7c10.5,0.2,17.3,0,21.5-0.2c0,0,0,0,0.1,0l0,0c4.3-0.2,5.9-0.5,5.9-0.5l0,0c1-0.2,1.7-0.3,2.3-0.5
		c0,0,0,0,0.1,0l5.5-0.6c0,0,0,0,0.1,0c2.3-0.1,5.7-0.1,11,0c0,0,0.7,0.2,1.8,0.5l0,0c1.2,0.3,2.8,0.9,4.6,1.5
		c2.2,0.7,4.6,1.6,6.6,2.5c7.5,3.2,8.4,3.1,15-1.7c2.5-1.8,6.7-3.8,13.8-5.6c0.6-0.2,1.3-0.3,2-0.5c0.6-0.1,1.3-0.3,2-0.4
		c1-0.2,2.1-0.4,3.3-0.6c0.4-0.1,0.8-0.1,1.2-0.2l0,0c2.2-0.3,4.5-0.3,6.7-0.2l0,0c1.3,0.1,2.6,0.2,3.9,0.4c0.2,0,0.5,0.1,0.7,0.1
		c3.4,0.4,7.7,0.1,10.4-3.1c0.2-0.2,0.4-0.5,0.6-0.7l0,0c0.9-1.1,2-2.1,3.2-3.2c0.6-0.5,1.1-1,1.8-1.5c1.1-0.8,2.2-1.6,3.4-2.4l0,0
		h0.1l0,0c0.3-0.2,0.7-0.4,1-0.6c0.2-0.1,0.3-0.2,0.5-0.3l0,0c0.7-0.4,1.4-0.7,2.1-1c0.9-0.4,1.8-0.7,2.8-1c1.3-0.4,2.7-0.6,4-0.7
		l0,0c1.2-0.1,2.5,0,3.8,0.3c0.4,0.1,0.8,0.1,1.2,0.2c2.2,0.2,4.4-0.3,6.8-1.2c0.5-0.2,0.9-0.4,1.4-0.6c2-0.8,3.9-1.9,5.9-3l0,0
		c2-1.1,4-2.3,6-3.3c0.6-0.3,1.2-0.6,1.9-0.9c0.6-0.3,1.2-0.5,1.9-0.8c1.2-0.5,2.5-0.8,3.7-1c1.5-0.2,3-0.2,4.5-0.2h0.1
		c1.8,0,3.5,0.2,5.2,0.4l0,0c5.2,0.4,9.7,0.7,12.3-3.1c0,0,0.4-0.5,0.9-1.3c1.3,1,2.7,2.8,2.9,5.7c0.1,0.7,0.1,1.3,0.2,1.8v20
		c-0.3,1.1-0.7,2.4-1.2,3.7c-3.1,9.3-7.2,17.6-20.4,22.7c-1.9,0.7-7.5,7.1-8.8,10.2c-4.8,11.5-17.1,11.4-27.7,19.3s-22-1.7-25.4,8.4
		c-2.8,8.4-10,11.9-23.1,14.8c-2.5,0.5-20.5-0.8-22.8-0.3c-9.3,1.9-12.5,0.9-13.8,0.9c-1.1,0-3.8-0.3-7-0.8
		c-10.8-1.5-21.8-0.2-32,3.6c-8.8,3.4-17.5,7-17.5,7c-8.3,5.2-24.7,4-33.5,4.6c-9.3,0.7-16.5-10.8-27.5-11.5
		c-3.1-0.2-13.8,8.5-32.9,2.9c-8.8-2.6-13.4-7.9-15.8-12.8c-2.3-4.7-7.2-7.8-12.5-7.5c-5.9,0.3-11.1-3.2-29.5-3.5
		c-12.8-0.2-19.6-5.5-23.3-10.8c-3.6-5.4-9.2-9.1-15.6-9.9C27.8,256.5,10,235.7,4,228.3C4,228,4,227.8,4,227.6z M41.8,99.2
		l15.8-25.5c1.5,0.8,3.1,1.4,4.3,1.8c0.3,0.1,0.5,0.2,0.8,0.2L62.1,78l-6.5,26.9L41.8,99.2z M22.5,53.6L52,58.4
		c-0.2,2.1-0.1,4.1,0.1,5.5l-29.6,4.6L22.5,53.6L22.5,53.6z M26.2,35.8L26.2,35.8L34,23.1l22.6,19.7c-1.3,1.6-2.2,3.4-2.8,4.7
		L26.2,35.8z M69.6,40c1.3-0.3,2.6-0.5,3.9-0.5l0,0c3.1,0,6.1,0.8,8.7,2.5c1.9,1.2,3.5,2.7,4.8,4.4c1.3,1.8,2.2,3.8,2.7,5.9
		c0.7,2.8,0.6,5.7-0.2,8.4c-0.3,1-0.6,1.9-1.1,2.8l0,0c-0.2,0.5-0.5,0.9-0.8,1.4c-0.4,0.6-0.8,1.2-1.3,1.8c-2.3,2.9-5.5,4.8-9.1,5.7
		c-3.7,0.9-7.4,0.5-10.8-1.1c-0.6-0.3-1.2-0.6-1.8-1c-0.5-0.3-0.9-0.6-1.3-0.9l0,0c-0.8-0.6-1.5-1.3-2.2-2c-1.9-2.1-3.3-4.6-3.9-7.5
		c-0.3-1.5-0.5-2.9-0.4-4.3L57,55h-0.1C57.2,48,62.2,41.7,69.6,40z M69,5l2,29.9c-2.1,0.2-4,0.8-5.3,1.3L54.5,8.4L69,5z M107,14.8
		l-17.9,24c-1.7-1.2-3.6-2-4.9-2.5L93.7,8L107,14.8z M120.1,81.3l-9.7,11.3l-14-16.7l-3.9-4.6l-1.4-1.6c0.2-0.2,0.4-0.3,0.6-0.5
		c0.5-0.6,1-1.1,1.5-1.7c0.6-0.7,1.1-1.4,1.5-2L120.1,81.3z M81.4,76.7l15.2,25.8l-13.9,5.6l-6.5-29.2
		C78.3,78.3,80.1,77.4,81.4,76.7z M72.6,146.1l-6.4-67.8l0.6-2.5c0.8,0.3,1.7,0.5,2.5,0.7l0,0l10.3,36v0.1l0.2,1l22.6-9L84.3,73.8
		c1.1-0.7,2.1-1.5,3.1-2.4l5.5,6.5l24.8,65.8L72.6,146.1z M25.1,152.5l43.9-2.2l2-0.1l2-0.1l46.2-2.4l2.1-0.1l2.1-0.1l8-0.4
		l-5.4,7.2l-1.4,1.9l-1,1.3l2,1.6l2.8,2.2l0.2,0.1l0,0l1,0.8l-0.4,0.8l-1.2,2.3l-0.6,1.1l-0.8,1l-1.4,1.9l-4.5,6l1.6,1.2l1.6,1.2
		l4.4-5.8l1.4-1.9l0.2-0.2l1.3,0.3l0.8,0.2l4.1,1l3.7,1.9l-3.2,3.5l-0.2,0.2l1.4,1.3l0,0l1.5,1.4l7.1-7.6l-8.9-4.5l-5.4-1.3l2.7-5.1
		l-4.8-3.7l-0.8-0.7l2.4-3.2l4.5-6l-0.8-0.6l12.3-0.6l2-0.1l2-0.1l46.4-2.4v66.6c0,0,0,0-0.1,0c-5.3-0.6-10.6-1.2-15.7-1.6v-8.3
		l9,5.2l2-3.5l-11-6.4v-5.2l8,4.5l2-3.5l-9.9-5.6v-5.2l6.1,3.4l1.9-3.5l-10.6-5.9l-9.8,5.9l2.1,3.4l6.3-3.9v5.2l-10.1,6.1l2.1,3.4
		l8-4.9v5l-11.6,7l2.1,3.4l9.5-5.8v8.5c-9.8-0.8-18.9-1.3-26.6-1.7c-0.7,0-1.3-0.1-2-0.1s-1.3-0.1-2-0.1c-9.7-0.4-16.3-0.5-17.3-0.5
		c-6.9-1-13.8-1.3-20.7-1.5l-0.6-17.6l-0.1-2l-0.1-2l-0.4-13.4l-27.4-0.2l2.3,19.7l0.2,2l0.2,2l1.3,11c-4.1-0.2-7.9-0.6-11.4-1.4
		c-9.6-2-17.7-4.5-24.7-7.2l0,0l-4.6-10.1l8.5-9.9l6.1-6.5l1.9-2l2.1-0.7l6.8-2.3L69,162l-0.6-1.9l-9.8,3.3l-6.9,7.4l-6.1-9.4
		l-12.3,2.3l0.8,3.9l0.5-0.1l9.2-1.8l5.2,8l-7.7,9l-1.6,1.8l3.9,8.6c-4.3-1.8-8.1-3.6-11.7-5.2c-2.3-1.1-4.5-2.1-6.6-3v-32.4H25.1z
		 M151.5,85.3c3.5-3.4,22.8-20.7,50.4-29.8c17.8-5.8,35.6-7.2,52.8-3.9c21.3,4.1,42,15.2,61.3,33.1v112.5V208v10.5
		c-9.8,1.3-19.7,0.7-29.5,0.1c-4.6-0.3-9-0.6-13.3-0.7v-7.5l6.8,4l2-3.5l-8.8-5.1v-3.4l6,3.4l2-3.5l-7.9-4.5v-3.4l4.4,2.4l1.9-3.5
		l-8.9-4.9l-8.2,5l2.1,3.4l4.6-2.8v3.4l-8.1,4.9l2.1,3.4l6-3.6v3.2l-9.3,5.7l2.1,3.4l7.2-4.4v7.9c-3,0-5.8,0.2-8.7,0.6
		c-2.4,0.3-5,0.4-8,0.2l5-52.8l-42.2,1.5V213c-4.4-0.8-8.9-1.5-13.5-2.1v-71.4l-50.4,2.6L151.5,85.3L151.5,85.3z M339.4,26.3
		l27.5-14.9l23.8,20.2l3.7,3.1l-1.2-0.1l-58.5-5.4v-0.3l1.7-0.9L339.4,26.3z M381.5,95l11.6,60.2l-11.8-9.7l-5.8-50.8L381.5,95z
		 M349.4,96.7l22.5,1l5,44.2l-18.5-15.2v26l-14-13.2L349.4,96.7z M388.6,91.3l-3.7-0.2l-2-0.1l-2.1-0.1l-5.6-0.2l-4.1-0.2l-9.6-0.4
		l1.8-3.2l0.1-0.2l0,0l1.2-2.1l1.2-2.1l0,0l2.4-4.2l-0.1-0.1l2-4.6l5-6.4l-3.2-2.4l-5.3,6.8l-1.5,3.4l-1.9-2.2L363,65l-7.1-2.6
		l-7,4.2l2,3.4l5.4-3.2l2.8,1l0.2,6.5l4,4.6l-2.2,3.9l0,0l-0.2,0.3l-1,1.7l-1.1,2l-0.2,0.3L357,90l-6.7-0.3l-4-0.2l-4.1-0.2l-2-0.1
		l-2-0.1L334,89l2.4-55.6l54.5,5L388.6,91.3z M341.3,93.3l4.5,0.2l-5.1,42.6l-6.8-6.5L341.3,93.3z M331.2,132.6l1.7,1.6l7.2,6.8
		l3.6,3.4l18.6,17.6v-26.9l15.2,12.4l4.4,3.6l12.3,10.1l2.4,2l1.4,1.1v-4.5v-24.9l34.1,28.9v8.7l-4.8-3.8l-2.2-0.3l-6.7-1.1
		l-0.2-5.1l-0.1-2l-5.5-5.8l-1.4,1.4l-1.4,1.4l4.4,4.6l0.1,4.6l-4.6-1.2l-5.6,4.1l1.2,1.6l1.2,1.6l3.3-2.4l0.8-0.6l1.1,0.3l2.8,0.8
		v0.2l11.2,1.8l6.5,5v5.2c-0.1,0-0.3,0.1-0.4,0.2c-9,4-17.9,6.4-27.5,8.7c-0.6,0.1-1.3,0.3-1.9,0.5c-0.7,0.2-1.3,0.3-2,0.5
		c-1.3,0.3-2.6,0.6-3.9,0.9c-3.1,0.7-6.2,1.4-9.4,2.2c-1.3,0.3-2.6,0.6-3.9,1c-4.1,1-8.3,2.1-12.8,3.4l2.8-22.7l-27.6-4.5l1.8,31.1
		v0.3l0.1,1.7l0.1,1.8c-0.2,0.1-0.4,0.1-0.5,0.2c-0.2,0.1-0.5,0.2-0.7,0.3c-4.4,1.7-9,3.6-13.8,5.8c-0.5,0.2-1.1,0.5-1.6,0.7V208v-2
		v-2v-58.8v-9.9L331.2,132.6z M351.3,206l-0.1-1.7V204l-1.5-26.3l18.9,3.1l-2.5,20.6c-2.6,0.8-5.3,1.7-8.1,2.6
		c-0.3,0.1-0.6,0.2-0.8,0.3c-1.6,0.5-3.2,1.1-4.9,1.7l0,0c-0.3,0.1-0.6,0.2-0.9,0.3L351.3,206z M225.2,214.7
		c-1.9-0.4-3.8-0.7-5.8-1.1v-42.4l33.7-1.2l-4.6,48.4C241.7,217.8,233.8,216.3,225.2,214.7z M87.6,191.9l-0.2-2l-0.2-2l-1.7-14.7
		l19.1,0.1l0.3,10.4l0.1,2l0.1,2l0.5,16.6c-1.6,0-3.2,0-4.9-0.1c-4,0-7.9-0.1-11.6-0.2L87.6,191.9z M124.8,60.5l-29.3-6.2l0,0
		c0.4-2,0.3-4,0.2-5.5l29.8-3.2L124.8,60.5z"/>
	<path class="st0" d="M30.7,232.4c3.1,2.5,3.1,0.8,6,2.5s3.1,3.1,7,3.1c3,0,4-2.5,4.3-3.6c1.2,0.2,2.3,0.4,3.4,0.4v-1
		c-9.2-0.4-25-8.7-25.2-8.8l-0.5,0.9c0.2,0.1,1.4,0.7,3.3,1.6C28.7,228.5,28.3,230.5,30.7,232.4z"/>
	<path class="st0" d="M73.1,254c3.1,2,2.9,3.1,5.8,4.4s3.4,0,7.2,0c2.8,0,4.6-0.7,5.3-1.1c0.8,0.1,1.6,0.2,2.4,0.2v-1
		c-9.2-0.4-25-8.7-25.2-8.8l-0.5,0.9c0.2,0.1,1.4,0.7,3.2,1.6C71.1,251,70.8,252.6,73.1,254z"/>
	<path class="st0" d="M130.6,251.2c3.5,1,3.1,2.9,6.2,3.3c1.4,0.2,3.5-4,4.8-3.6c2.5,0.8,5.3,0.2,7.3-1.4c0.1-0.1,0.2-0.2,0.2-0.2
		c1-0.1,2-0.3,3.1-0.5l-0.2-1c-17.5,3-24.6,0.5-27.2-1.3l-0.6,0.8c0.8,0.5,2,1.1,3.6,1.6C127.9,249.6,128.4,250.5,130.6,251.2z"/>
	<path class="st0" d="M184.3,274.5c3.6,1,3.6,3.4,6.7,3.9s3.3-2.2,7-3.3c2.7-0.8,4.2-2,4.8-2.5c0.8-0.1,1.6-0.3,2.4-0.4l-0.2-1
		c-8.9,2.2-26.5-1.4-26.6-1.4l-0.2,1c0.2,0,1.5,0.3,3.5,0.6C181.6,272.2,181.8,273.7,184.3,274.5z"/>
	<path class="st0" d="M304.2,250.1c3.6,0.5,6,2.3,9.2,2.3s1-2,4.5-3.5c2.5-1.1,3.9-2.5,4.4-3.1c0.8-0.2,1.6-0.5,2.3-0.8l-0.4-0.9
		c-8.6,3.4-26.4,2.1-26.6,2.1l-0.1,1c0.2,0,1.5,0.1,3.6,0.2C301.2,248.2,301.5,249.7,304.2,250.1z"/>
	<path class="st0" d="M314,270.1l-0.1,1c0.2,0,1.4,0.1,3.2,0.2c-0.2,0.4,0,1.1,2.2,1.4c3.7,0.5,4.3,0.7,7.4,0.7s5.6,1.9,9.1,0.3
		c2.8-1.2,3-3.3,3-4.1c0.7-0.2,1.4-0.4,2-0.7l-0.4-0.9C332,271.4,314.1,270.1,314,270.1z"/>
	<path class="st0" d="M368.3,239.2c0.1,1.1,0.7,3.7,3.6,3.7c3.7,0,2.4-3.5,5.5-3.9s4.4,1.4,7.6-0.7c2.3-1.5,3.5-3,3.9-3.7
		c0.8-0.3,1.5-0.7,2.2-1.1l-0.5-0.9c-8,4.5-25.9,5.8-26,5.8l0.1,1C364.9,239.6,366.2,239.5,368.3,239.2z"/>
	<path class="st0" d="M407.8,216.1c3.7,0,3.5,3.1,6.6,2.6c3.1-0.4,3.5-3.7,6.7-5.7s4.2-4.2,4.2-4.2s-15.4,5-21,4.5
		C404.3,213.3,404.1,216.1,407.8,216.1z"/>
	<rect x="175.8" y="74.3" class="st0" width="118.4" height="4"/>
</g>
</svg>
