<svg width="129" height="21" viewBox="0 0 129 21" fill="none" xmlns="http://www.w3.org/2000/svg">
<g clip-path="url(#clip0_367_78)">
<path d="M68.3616 17.715H69.9179V19.2621H68.3616V17.715ZM38.3199 14.8696C38.5828 15.413 38.7121 16.0352 38.7121 16.7278C38.7121 17.4205 38.5828 18.0551 38.3199 18.6068C38.057 19.1584 37.6982 19.5981 37.2434 19.9257C36.3338 20.5562 35.2907 20.8714 34.1182 20.8714H31.4019V12.6838H34.1182C35.3074 12.6838 36.3463 12.9824 37.2309 13.5839C37.694 13.8949 38.057 14.3221 38.3157 14.8696H38.3199ZM36.9388 16.7278C36.9388 15.1019 35.9082 14.2848 33.847 14.2848H33.1544V19.2745H33.8595C35.9124 19.2745 36.9388 18.4243 36.9388 16.7278ZM39.9805 20.8756H46.0556V19.2745H41.7288V17.4869H45.8554V15.9107H41.7288V14.2848H46.0556V12.6838H39.9805V20.8714V20.8756ZM50.8748 20.8756H52.6273V17.6528H56.2823V16.0642H52.6273V14.289H56.5535V12.6879H50.879V20.8756H50.8748ZM86.9165 19.3782C86.1947 19.3782 85.5981 19.146 85.1182 18.6773C84.6342 18.2086 84.388 17.5698 84.388 16.761C84.388 15.9522 84.63 15.3383 85.1182 14.8821C85.6106 14.4134 86.178 14.1811 86.8206 14.1811C87.267 14.1811 87.6843 14.2807 88.0682 14.4715C88.452 14.6664 88.765 14.9402 89.007 15.2886L90.1836 14.0982C89.3533 13.0695 88.2601 12.5552 86.904 12.5552C85.6648 12.5552 84.6384 12.9451 83.8248 13.7249C83.0028 14.4964 82.5897 15.5208 82.5897 16.7983C82.5897 18.0759 83.0028 19.0755 83.8248 19.8469C84.6634 20.6184 85.7107 21.0042 86.9624 21.0042C88.3477 21.0042 89.4659 20.4898 90.3129 19.4612L89.1488 18.2335C88.5855 18.9967 87.8387 19.3782 86.9165 19.3782ZM62.7538 17.9182L64.5772 20.8756H62.5911L60.968 18.2459H59.5702V20.8756H57.8178V12.6838H61.2267C62.153 12.6838 62.904 12.9202 63.484 13.3972C64.0807 13.8742 64.3769 14.5254 64.3769 15.3591C64.3769 15.9273 64.2309 16.4375 63.943 16.8896C63.6562 17.339 63.2446 17.6963 62.758 17.9182H62.7538ZM62.637 15.4545C62.637 14.6747 62.0654 14.2848 60.9221 14.2848H59.5702V16.6573H60.9221C62.0654 16.6573 62.637 16.255 62.637 15.4545ZM97.5855 14.2848V12.6838H91.5104V20.8714H97.5855V19.2704H93.2587V17.4827H97.3853V15.9066H93.2587V14.2807H97.5855V14.2848ZM79.5688 18.2335L76.2434 12.6838H74.1405V20.8714H75.8929V15.3466L79.2184 20.8714H81.3088V12.6838H79.5688V18.2335ZM68.3241 12.6838L65.1029 20.8714H66.9138L67.4228 19.6022L68.1363 17.7191L68.3032 17.2836L69.1586 15.0439L70.0139 17.2795L70.1808 17.7191L70.8859 19.6022L71.4033 20.8714H73.2142L69.993 12.6838H68.3241ZM0 1.63422H1.73992V9.82185H0V1.63422ZM8.96662 7.18389L5.64117 1.63422H3.53825V9.82185H5.29068V4.29706L8.61613 9.82185H10.7065V1.63422H8.96662V7.18389ZM11.8456 3.23524H14.2072V9.826H15.9471V3.2311H18.3088V1.63422H11.8456V3.23524ZM19.4353 9.826H25.5104V8.22497H21.1836V6.4373H25.3102V4.86116H21.1836V3.23524H25.5104V1.63422H19.4353V9.82185V9.826ZM33.9388 9.826H31.9527L30.3296 7.19633H28.9318V9.826H27.1794V1.63422H30.5883C31.5146 1.63422 32.2656 1.87064 32.8456 2.34763C33.4423 2.82462 33.7385 3.47581 33.7385 4.30951C33.7385 4.87775 33.5925 5.38792 33.3046 5.84002C33.0178 6.28944 32.6062 6.64671 32.1196 6.86866L33.943 9.826H33.9388ZM31.9986 4.40491C31.9986 3.62513 31.427 3.23524 30.2837 3.23524H28.9318V5.60775H30.2837C31.427 5.60775 31.9986 5.20542 31.9986 4.40491Z" fill="black"/>
<path d="M41.1656 7.19218L42.3297 8.41991C41.4827 9.44855 40.3686 9.96287 38.9792 9.96287C37.7274 9.96287 36.6802 9.57713 35.8415 8.80565C35.0195 8.03417 34.6064 7.01797 34.6064 5.75706C34.6064 4.49615 35.0195 3.45506 35.8415 2.68358C36.6551 1.90381 37.6815 1.51392 38.9208 1.51392C40.2768 1.51392 41.37 2.02824 42.2003 3.05688L41.0237 4.24728C40.7817 3.89887 40.4688 3.62512 40.0849 3.43018C39.701 3.23523 39.2838 3.13984 38.8373 3.13984C38.1948 3.13984 37.6273 3.37211 37.135 3.8408C36.651 4.3012 36.4048 4.92751 36.4048 5.72388C36.4048 6.52024 36.6468 7.17144 37.135 7.64013C37.6148 8.10883 38.2115 8.3411 38.9333 8.3411C39.8596 8.3411 40.6023 7.95951 41.1656 7.19632V7.19218ZM50.2615 2.71677C51.0835 3.51313 51.4966 4.51688 51.4966 5.73217C51.4966 6.94746 51.0835 7.9678 50.2615 8.76832C49.4395 9.56468 48.4298 9.95872 47.2281 9.95872C46.0265 9.95872 45.0334 9.56053 44.2198 8.76832C43.4062 7.95951 42.9973 6.94746 42.9973 5.73217C42.9973 4.51688 43.4062 3.51313 44.2198 2.71677C45.0251 1.91625 46.0306 1.51392 47.2281 1.51392C48.4256 1.51392 49.4437 1.91625 50.2615 2.71677ZM49.7191 5.73217C49.7191 5.02291 49.4896 4.41734 49.0265 3.91131C48.5633 3.40529 47.9792 3.15228 47.274 3.15228C46.523 3.15228 45.918 3.40114 45.4632 3.89887C45.0167 4.3966 44.7914 5.01047 44.7914 5.73217C44.7914 6.45388 45.0167 7.07189 45.4632 7.57792C45.9096 8.07564 46.5147 8.32451 47.274 8.32451C48.0334 8.32451 48.6176 8.07564 49.0473 7.57792C49.4938 7.07189 49.7191 6.45803 49.7191 5.73217ZM56.854 6.23405L54.5174 1.6425H52.765V9.83014H54.5174V5.18052L56.0821 8.17104H57.6343L59.2073 5.18052V9.83014H60.9472V1.6425H59.2073L56.8582 6.23405H56.854ZM66.7594 6.23405L64.4229 1.6425H62.6704V9.83014H64.4229V5.18052L65.9875 8.17104H67.5397L69.1127 5.18052V9.83014H70.8526V1.6425H69.1127L66.7636 6.23405H66.7594ZM77.4868 6.25893C77.4868 7.66917 76.9152 8.37428 75.772 8.37428C75.2254 8.37428 74.7998 8.18349 74.5035 7.80604C74.2073 7.4286 74.0571 6.91843 74.0571 6.27967V1.6425H72.3172V6.19672C72.3172 7.40371 72.6217 8.3328 73.2268 8.984C73.8359 9.63519 74.6829 9.95872 75.772 9.95872C76.861 9.95872 77.708 9.63519 78.3172 8.984C78.9263 8.3328 79.2268 7.40371 79.2268 6.19672V1.6425H77.4868V6.25479V6.25893ZM86.1238 7.19218L82.7984 1.6425H80.6955V9.83014H82.4479V4.30535L85.7733 9.83014H87.8638V1.6425H86.1238V7.19218ZM99.5967 1.6425H97.8443V9.83014H103.356V8.22911H99.5967V1.6425ZM104.554 9.83014H106.294V1.6425H104.554V9.83014ZM107.491 3.23938H109.853V9.83014H111.593V3.24353H113.954V1.6425H107.491V3.24353V3.23938ZM126.225 4.89848L125.416 4.7699C124.631 4.62887 124.239 4.34268 124.239 3.90717C124.239 3.6666 124.348 3.47165 124.569 3.32234C124.79 3.17302 125.082 3.09836 125.449 3.09836C126.217 3.09836 126.914 3.41359 127.54 4.04404L128.716 2.81631C127.886 1.94529 126.826 1.50977 125.545 1.50977C124.707 1.50977 123.989 1.73375 123.396 2.18586C122.8 2.62966 122.504 3.23109 122.504 3.98597C122.504 4.64961 122.729 5.18882 123.184 5.60359C123.638 6.01837 124.277 6.30041 125.099 6.43729L126.109 6.61149C126.876 6.75252 127.26 7.03871 127.26 7.47422C127.26 7.73968 127.131 7.95536 126.872 8.11712C126.613 8.27888 126.263 8.36184 125.825 8.36184C124.886 8.36184 124.11 7.9678 123.497 7.18388L122.299 8.38672C122.683 8.86371 123.171 9.24116 123.768 9.52735C124.364 9.81355 125.015 9.95457 125.72 9.95457C126.701 9.95457 127.49 9.72644 128.095 9.26605C128.7 8.80565 129 8.20422 129 7.45348C129 6.04325 128.074 5.19297 126.225 4.89433V4.89848ZM92.0571 8.21667H93.6134V6.66956H92.0571V8.21667ZM92.0237 1.63835L88.8026 9.82599H90.6134L91.1224 8.55678L91.8359 6.67371L92.0028 6.2382L92.8582 3.99842L93.7135 6.23405L93.8804 6.67371L94.5856 8.55678L95.103 9.82599H96.9138L93.6927 1.63835H92.0237ZM119.115 1.16136L118.089 -0.00415039L116.203 1.63835H115.081V9.83014H121.156V8.22911H116.833V6.44144H120.96V4.86529H116.833V3.23938H121.156V1.6425H118.565L119.115 1.16551V1.16136Z" fill="black"/>
<path d="M0 15.2015H26.2865V18.1049H0V15.2015ZM102.713 15.2015H129V18.1049H102.713V15.2015Z" fill="black"/>
</g>
<defs>
<clipPath id="clip0_367_78">
<rect width="129" height="21" fill="white"/>
</clipPath>
</defs>
</svg>
