<?xml version="1.0" encoding="utf-8"?>
<svg version="1.1"
	 id="svg91" inkscape:version="1.1.1 (3bf5ae0d25, 2021-09-20)" sodipodi:docname="logo v2.svg" xmlns:inkscape="http://www.inkscape.org/namespaces/inkscape" xmlns:sodipodi="http://sodipodi.sourceforge.net/DTD/sodipodi-0.dtd" xmlns:svg="http://www.w3.org/2000/svg"
	 xmlns="http://www.w3.org/2000/svg" xmlns:xlink="http://www.w3.org/1999/xlink" x="0px" y="0px" viewBox="0 0 296 122"
	 style="enable-background:new 0 0 296 122;" xml:space="preserve">
<style type="text/css">
	.st0{fill:#FF0000;}
</style>
<sodipodi:namedview  bordercolor="#666666" borderopacity="1.0" id="namedview93" inkscape:current-layer="svg91" inkscape:cx="196.69677" inkscape:cy="55.062366" inkscape:pagecheckerboard="0" inkscape:pageopacity="0.0" inkscape:pageshadow="2" inkscape:window-height="991" inkscape:window-maximized="1" inkscape:window-width="1920" inkscape:window-x="-9" inkscape:window-y="-9" inkscape:zoom="1.5709459" pagecolor="#ffffff" showgrid="false">
	</sodipodi:namedview>
<path id="path52" class="st0" d="M38,120.4c-0.1,0-0.2,0-0.3,0c-1.6-0.2-2.8-1.6-2.6-3.2l0.6-5.6c0.1-8.7,7.2-13.6,12.9-17.5
	c3.3-2.2,6.4-4.4,7.7-6.7c-2.2-0.4-7.3,0.1-10.5,0.4c-9,0.8-16.7,1.6-17.8-4.1c-1-5.4,5.9-7.3,13.8-9.4c4.1-1.1,11.7-3.2,12.5-5.1
	c0-0.1,0-0.4-0.3-0.8c-0.8-1.3-1.6-2.5-2.4-3.4c-1.8-2.4-3.5-4.7-3-7.8c0.8-4.5,5.9-8.6,22.1-19.6C80,31.2,82.9,22,78,14.5
	c-5.8-8.7-24.1-15.1-51,2.6C8.9,29.2,2.3,49.3,7.6,76.9c4,21.1,13.8,38.9,13.9,39.1c0.8,1.4,0.3,3.2-1.1,4c-1.4,0.8-3.2,0.3-4-1.1
	C16,118.1,6.1,100.2,1.9,78.1c-5.7-29.8,1.8-52.6,21.9-65.9C36.5,3.8,49.2-0.4,60.4,0c9.8,0.4,18,4.5,22.5,11.2
	c7.9,11.9,1,24.5-8.9,31.2C64.3,49,54.8,55.7,54.4,58.2c-0.1,0.6,0.9,1.9,1.9,3.2c0.8,1.1,1.7,2.3,2.7,3.9c1.6,2.6,1.3,4.7,0.8,6.1
	c-1.8,4.7-8.9,6.6-16.4,8.6c-2.5,0.7-5.8,1.6-7.9,2.4c2.6,0.1,6.9-0.2,9.8-0.5c8.6-0.8,14-1.2,16.3,1.9c0.6,0.8,1.5,2.5,0.5,5
	c-1.6,4.3-6,7.3-10.1,10.1c-5.3,3.6-10.3,7-10.3,12.7c0,0.1,0,0.2,0,0.3l-0.6,5.7C40.8,119.2,39.5,120.4,38,120.4L38,120.4z"/>
<path id="path54" class="st0" d="M58,21.1c1.9,0,3.5-1.6,3.5-3.5s-1.6-3.5-3.5-3.5s-3.5,1.6-3.5,3.5S56.1,21.1,58,21.1z"/>
<path id="path56" class="st0" d="M119.9,36c0-0.7,0-1.2,0.1-1.6c0-0.4,0.2-0.8,0.4-1.2c0.4-0.8,1.6-1.3,3.6-1.3s3,0.4,3.5,1.3
	c0.2,0.5,0.4,0.9,0.4,1.3c0,0.4,0.1,0.9,0.1,1.6v21.4c0,1.1,0.1,1.8,0.3,2.1c0.2,0.3,0.6,0.4,1.2,0.4s1.1,0,1.3,0.1
	c0.2,0,0.5,0.2,0.8,0.4c0.6,0.4,0.9,1.5,0.9,3.3c0,1.9-0.3,3.1-0.9,3.6c-0.8,0.6-2.7,0.7-5.7,0.3c-2.4-0.3-3.9-1.1-4.6-2.4
	c-0.9-1.5-1.3-3.9-1.3-7.2L119.9,36z"/>
<path id="path58" class="st0" d="M150.8,46c0.2-1.7,1.4-2.6,3.6-2.6c1.2,0,2.1,0.1,2.7,0.3c0.6,0.2,1,0.5,1.2,1
	c0.2,0.5,0.4,0.9,0.4,1.2c0,0.4,0.1,0.9,0.1,1.6v16.2c0,0.7,0,1.2-0.1,1.6c0,0.4-0.2,0.8-0.4,1.2c-0.4,0.8-1.5,1.2-3.2,1.2
	c-1.7,0-2.8-0.2-3.4-0.6c-0.6-0.4-0.9-1-1-1.8c-1.1,1.6-3,2.5-5.7,2.5c-2.7,0-5.1-1.2-7.4-3.7c-2.3-2.4-3.4-5.3-3.4-8.5
	c0-3.2,1.1-6.1,3.4-8.5c2.3-2.4,4.8-3.6,7.5-3.6c1,0,2,0.2,2.9,0.6c0.9,0.4,1.5,0.7,1.8,1C150.3,45.4,150.6,45.7,150.8,46L150.8,46z
	 M142.4,55.7c0,1,0.4,1.9,1.2,2.8c0.8,0.8,1.8,1.2,2.9,1.2c1.1,0,2.1-0.4,2.8-1.3c0.8-0.8,1.1-1.8,1.1-2.8c0-1-0.4-1.9-1.1-2.8
	c-0.7-0.9-1.7-1.3-2.9-1.3s-2.2,0.4-3,1.3S142.4,54.7,142.4,55.7L142.4,55.7z"/>
<path id="path60" class="st0" d="M198.7,44c1.6,1,2.4,2,2.4,3.1c0,0.6-0.3,1.5-0.9,2.5L190.6,66c-0.3,0.5-0.8,1-1.5,1.4
	c-0.7,0.4-1.3,0.6-2,0.6c-0.7,0-1.3-0.2-1.9-0.5c-0.6-0.3-1-0.7-1.3-1l-0.4-0.5L174,49.6c-0.6-1-0.9-1.9-0.9-2.5
	c0-1.1,0.8-2.1,2.4-3.1c1.2-0.7,2.1-1,2.8-1s1.2,0.2,1.6,0.6s0.8,1,1.2,1.9l6,11.7l6-11.7c0.3-0.6,0.6-1,0.8-1.3
	c0.2-0.3,0.4-0.5,0.8-0.8c0.4-0.3,0.9-0.4,1.5-0.4S197.6,43.3,198.7,44L198.7,44z"/>
<path id="path62" class="st0" d="M211.2,38.9c-0.2,0.5-0.6,0.8-1.2,0.9c-0.6,0.2-1.4,0.3-2.3,0.3s-1.7-0.1-2.3-0.3
	c-0.6-0.2-1-0.5-1.2-1c-0.2-0.5-0.4-0.9-0.4-1.2c0-0.4-0.1-0.9-0.1-1.6s0-1.2,0.1-1.6c0-0.4,0.2-0.7,0.4-1.2
	c0.4-0.8,1.6-1.3,3.6-1.3c2,0,3.1,0.4,3.5,1.3c0.2,0.5,0.4,0.9,0.4,1.2s0.1,0.9,0.1,1.6c0,0.7,0,1.2-0.1,1.6S211.5,38.5,211.2,38.9
	L211.2,38.9z M203.6,47.5c0-0.7,0-1.2,0.1-1.6s0.2-0.8,0.4-1.2c0.4-0.8,1.6-1.2,3.6-1.2c1.5,0,2.5,0.3,3.1,0.8
	c0.5,0.4,0.8,1.1,0.8,2c0,0.3,0,0.8,0,1.3v16.2c0,0.7,0,1.2-0.1,1.6s-0.2,0.8-0.4,1.2c-0.4,0.8-1.6,1.2-3.6,1.2
	c-2,0-3.1-0.4-3.6-1.3c-0.2-0.5-0.3-0.9-0.4-1.2c0-0.3-0.1-0.9-0.1-1.6L203.6,47.5L203.6,47.5z"/>
<path id="path64" class="st0" d="M238.8,52.7c0,1.9-0.5,3.3-1.4,4.2c-0.9,0.9-2,1.4-3.1,1.4h-10.9c0,0.9,0.5,1.6,1.5,2.2
	c1,0.6,2,0.9,3,0.9c1.8,0,3.2-0.2,4.2-0.6l0.5-0.2c0.7-0.3,1.4-0.5,1.8-0.5c1,0,1.8,0.7,2.5,2.1c0.4,0.8,0.6,1.5,0.6,2.1
	c0,2.7-3.3,4.1-9.8,4.1c-2.3,0-4.3-0.4-6.1-1.2s-3.1-1.8-4.1-3.1c-1.9-2.5-2.9-5.3-2.9-8.4c0-3.9,1.3-7,3.8-9.3
	c2.5-2.3,5.6-3.5,9.4-3.5c4.3,0,7.4,1.5,9.4,4.5C238.3,49.1,238.8,50.8,238.8,52.7L238.8,52.7z M229.1,54.1c1.2,0,1.8-0.5,1.8-1.5
	c0-0.7-0.3-1.3-0.8-1.7c-0.5-0.4-1.3-0.7-2.3-0.7s-2,0.4-3,1.2c-1,0.8-1.5,1.7-1.5,2.6L229.1,54.1L229.1,54.1z"/>
<path id="path66" class="st0" d="M143.4,89.5c0,1.9-0.5,3.3-1.4,4.2c-0.9,0.9-2,1.4-3.1,1.4h-10.9c0,0.9,0.5,1.6,1.5,2.2
	c1,0.6,2,0.9,3,0.9c1.8,0,3.2-0.2,4.2-0.6l0.5-0.2c0.7-0.3,1.4-0.5,1.8-0.5c1,0,1.8,0.7,2.5,2.1c0.4,0.8,0.6,1.5,0.6,2.1
	c0,2.7-3.3,4.1-9.8,4.1c-2.3,0-4.3-0.4-6.1-1.2c-1.8-0.8-3.1-1.8-4.1-3.1c-1.9-2.5-2.9-5.3-2.9-8.4c0-3.9,1.3-7,3.8-9.3
	c2.5-2.3,5.6-3.5,9.4-3.5c4.3,0,7.4,1.5,9.4,4.5C142.9,85.8,143.4,87.6,143.4,89.5L143.4,89.5z M133.6,90.8c1.2,0,1.8-0.5,1.8-1.5
	c0-0.7-0.3-1.3-0.8-1.7s-1.3-0.7-2.3-0.7c-1,0-2,0.4-3,1.2c-1,0.8-1.5,1.7-1.5,2.6L133.6,90.8L133.6,90.8z"/>
<path id="path68" class="st0" d="M159.9,80.2c3.1,0,5.6,1.2,7.7,3.5c2,2.4,3.1,5.2,3.1,8.6v8.1c0,0.7,0,1.2-0.1,1.6
	c0,0.4-0.2,0.7-0.4,1.2c-0.4,0.8-1.6,1.3-3.6,1.3c-2.2,0-3.4-0.6-3.8-1.7c-0.2-0.5-0.3-1.3-0.3-2.4v-8.2c0-1.3-0.4-2.3-1.1-3
	c-0.7-0.7-1.7-1.1-2.9-1.1s-2.2,0.4-3,1.1c-0.8,0.7-1.1,1.7-1.1,2.9v8.2c0,0.7,0,1.2-0.1,1.6c0,0.4-0.2,0.7-0.4,1.2
	c-0.4,0.8-1.6,1.3-3.6,1.3c-2,0-3.1-0.4-3.6-1.3c-0.2-0.5-0.3-0.9-0.4-1.2c0-0.4-0.1-0.9-0.1-1.6V84.1c0-0.7,0-1.2,0.1-1.5
	c0-0.4,0.2-0.7,0.4-1.2c0.4-0.8,1.6-1.2,3.6-1.2c1.9,0,3,0.4,3.5,1.1c0.3,0.5,0.5,1.2,0.5,1.9c0.1-0.2,0.4-0.5,0.8-0.9
	s0.8-0.7,1.2-1C157.5,80.5,158.6,80.2,159.9,80.2L159.9,80.2z"/>
<path id="path70" class="st0" d="M210.5,80.7c1.6,1,2.4,2,2.4,3.1c0,0.6-0.3,1.5-0.9,2.5l-9.6,16.4c-0.3,0.5-0.8,1-1.5,1.4
	c-0.7,0.4-1.3,0.6-2,0.6c-0.7,0-1.3-0.2-1.9-0.5c-0.6-0.3-1-0.7-1.3-1l-0.4-0.5l-9.6-16.5c-0.6-1-0.9-1.9-0.9-2.5
	c0-1.1,0.8-2.1,2.4-3.1c1.2-0.7,2.1-1,2.8-1c0.7,0,1.2,0.2,1.6,0.6c0.4,0.4,0.8,1,1.2,1.9l6,11.7l6-11.7c0.3-0.6,0.6-1,0.8-1.3
	c0.2-0.3,0.4-0.5,0.8-0.8c0.4-0.3,0.9-0.4,1.5-0.4C208.6,79.7,209.4,80.1,210.5,80.7L210.5,80.7z"/>
<path id="path72" class="st0" d="M237.5,89.5c0,1.9-0.5,3.3-1.4,4.2c-0.9,0.9-2,1.4-3.1,1.4H222c0,0.9,0.5,1.6,1.5,2.2
	c1,0.6,2,0.9,3,0.9c1.8,0,3.2-0.2,4.2-0.6l0.5-0.2c0.7-0.3,1.4-0.5,1.8-0.5c1,0,1.8,0.7,2.5,2.1c0.4,0.8,0.6,1.5,0.6,2.1
	c0,2.7-3.3,4.1-9.8,4.1c-2.3,0-4.3-0.4-6.1-1.2c-1.8-0.8-3.1-1.8-4.1-3.1c-1.9-2.5-2.9-5.3-2.9-8.4c0-3.9,1.3-7,3.8-9.3
	c2.5-2.3,5.6-3.5,9.4-3.5c4.3,0,7.4,1.5,9.4,4.5C237,85.8,237.5,87.6,237.5,89.5L237.5,89.5z M227.7,90.8c1.2,0,1.8-0.5,1.8-1.5
	c0-0.7-0.3-1.3-0.8-1.7s-1.3-0.7-2.3-0.7s-2,0.4-3,1.2c-1,0.8-1.5,1.7-1.5,2.6L227.7,90.8L227.7,90.8z"/>
<path id="path74" class="st0" d="M257,80.5c0.6,0.2,1.1,0.5,1.5,0.9c0.4,0.4,0.6,1.2,0.6,2.2c0,1-0.3,2.1-0.9,3.2
	c-0.6,1.2-1.4,1.8-2.5,1.8c-0.5,0-1.1-0.1-1.6-0.4c-0.5-0.2-1.2-0.4-2-0.4c-0.8,0-1.6,0.3-2.3,0.9c-0.7,0.6-1.1,1.3-1.1,2.1v9.7
	c0,0.7,0,1.2-0.1,1.6s-0.2,0.8-0.4,1.2c-0.5,0.8-1.7,1.2-3.6,1.2c-1.5,0-2.5-0.3-3.2-0.8c-0.5-0.4-0.8-1.1-0.8-2V84.2
	c0-0.7,0-1.2,0.1-1.6c0-0.4,0.2-0.7,0.4-1.2c0.4-0.8,1.6-1.3,3.6-1.3c1.8,0,3,0.4,3.5,1.1c0.3,0.5,0.5,1,0.5,1.5
	c0.2-0.2,0.4-0.5,0.7-0.8c0.3-0.3,0.9-0.7,1.9-1.3c1-0.5,1.8-0.8,2.5-0.8c0.7,0,1.3,0,1.8,0.1C255.9,80.1,256.4,80.3,257,80.5
	L257,80.5z"/>
<path id="path76" class="st0" d="M275.7,88.4l-3-0.2v6.4c0,0.8,0.1,1.4,0.4,1.8c0.3,0.4,0.8,0.6,1.5,0.6c0.7,0,1.3,0,1.7,0.1
	s0.8,0.2,1.2,0.4c0.7,0.4,1.1,1.4,1.1,3.1c0,1.9-0.4,3.1-1.3,3.6c-0.5,0.2-0.9,0.3-1.2,0.4c-0.4,0-0.9,0.1-1.5,0.1
	c-3.2,0-5.6-0.7-7.3-2.2c-1.7-1.4-2.5-3.9-2.5-7.4v-6.9c-0.6,0.1-1.2,0.1-1.9,0.1s-1.2-0.3-1.7-0.8c-0.5-0.5-0.7-1.4-0.7-2.7
	c0-1.3,0.1-2.2,0.2-2.8c0.2-0.6,0.4-1,0.6-1.2c0.5-0.4,1.1-0.6,1.8-0.6l1.5,0.2v-4.8c0-0.7,0-1.2,0.1-1.6c0-0.3,0.2-0.7,0.4-1.1
	c0.4-0.8,1.6-1.2,3.6-1.2c2.1,0,3.3,0.6,3.7,1.7c0.2,0.5,0.2,1.3,0.2,2.4v4.5c1.4-0.1,2.4-0.2,3.1-0.2s1.2,0,1.6,0.1
	c0.4,0,0.8,0.2,1.2,0.4c0.8,0.4,1.2,1.6,1.2,3.6c0,2-0.4,3.1-1.2,3.6c-0.5,0.2-0.9,0.3-1.2,0.4C276.9,88.4,276.4,88.4,275.7,88.4
	L275.7,88.4z"/>
<path id="path78" class="st0" d="M276.9,67.6h-21.4c-1.6,0-2.9-1.3-2.9-3V48.8c0-1.6,1.3-3,2.9-3c1.6,0,2.9,1.3,2.9,3v12.8H274V23.5
	H119.1c-1.6,0-2.9-1.3-2.9-3c0-1.6,1.3-3,2.9-3h157.8c1.6,0,2.9,1.3,2.9,3v44.1C279.8,66.2,278.5,67.6,276.9,67.6z"/>
<path id="path80" class="st0" d="M264.6,46.8c-0.8,0-1.6-0.3-2.1-0.9l-6.7-7.1l-7,6.7c-1.2,1.1-3,1.1-4.2-0.1
	c-1.1-1.2-1.1-3.1,0.1-4.2l9.2-8.7c1.2-1.1,3-1.1,4.2,0.1l8.7,9.2c1.1,1.2,1.1,3.1-0.1,4.2C266,46.6,265.3,46.8,264.6,46.8z"/>
<path id="path82" class="st0" d="M273.7,122H124.5c-12.3,0-22.3-9.9-22.3-22V81l-34-5.3l-0.3-2.3c-0.2-1.4,0.6-2.7,1.9-3.2l32.5-13
	V22.9c0-12.2,10-22,22.3-22h149.2c12.3,0,22.3,9.9,22.3,22v77C296,112.1,286,122,273.7,122z M81.6,71.8l23.8,3.7
	c1.5,0.3,2.6,1.5,2.6,3V100c0,8.9,7.4,16.1,16.5,16.1h149.2c9.1,0,16.5-7.2,16.5-16.1v-77c0-8.9-7.4-16.1-16.5-16.1H124.5
	c-9.1,0-16.4,7.2-16.4,16.1v38.3l-1.9,0.8L81.6,71.8L81.6,71.8z"/>
</svg>
