<?xml version="1.0" encoding="utf-8"?>
<svg version="1.1" id="Calque_2_1_" xmlns="http://www.w3.org/2000/svg" xmlns:xlink="http://www.w3.org/1999/xlink" x="0px"
	 y="0px" viewBox="0 0 438.9 371.4" style="enable-background:new 0 0 438.9 371.4;" xml:space="preserve">
<style type="text/css">
	.st0{fill:#FF0000;}
</style>
<g id="Calque_1-2">
	<g>
		<g>
			<path class="st0" d="M235.5,371.4c-10.1,0-21-1.4-31.7-2.8c-12.1-1.6-23.6-3-32.6-2.2c-13.1,1.3-32.3-7.4-50.8-15.7
				c-16.3-7.4-33.3-15-42.3-13.5c-8.2,1.3-22-5.7-40.9-21c-14.4-11.6-27.4-24.5-31.1-28.1c-0.4-0.4-0.8-0.7-1.3-1.1L4.7,287
				c-2.5-1.9-4.7-6.4-4.7-9.4v-34.6c0-3.9,2-8.4,5-10.9c1.8-1.5,3.8-2.1,5.7-1.8c6.7,1.1,13.4,4.2,21.1,7.8
				c10.4,4.8,23.3,10.8,41.8,14.5c7.7,1.6,17.1,1.7,27.1,1.8c9.7,0.1,19.7,0.2,29.5,1.6c2.3,0,35.1,0.6,67.6,4.4
				c9.4,1.1,18.5,2.8,27.4,4.4c14.3,2.6,26.6,4.9,35.3,3.8l0,0c8.1-1.1,16.8-0.5,26,0c15.3,1,31.1,2,45.9-4.5
				c27-12,46.7-16.5,64.1-20.6c12.9-3,24-5.6,35.3-10.6c1.5-0.6,3.1-0.5,4.5,0.4c1.6,1.1,2.6,3,2.6,5.1V275c0,3.3-0.8,4.5-2.3,6.5
				c-0.8,1.1-1.9,2.6-3.4,5.2c-5.7,10.1-13.9,18.6-23.8,24.6c-16.4,10-39.3,24.1-55.7,34.3c-15.1,9.3-34.1,11.1-52.5,12.8
				c-14.9,1.4-29,2.7-39.6,8C254.1,370.2,245.1,371.4,235.5,371.4L235.5,371.4z M177,362.2c8.2,0,17.5,1.2,27.3,2.5
				c20.3,2.6,41.2,5.3,55.6-1.9c11.2-5.6,25.7-6.9,41-8.4c17.9-1.7,36.5-3.4,50.7-12.2c16.4-10.1,39.4-24.2,55.7-34.3
				c9.3-5.7,17-13.7,22.4-23.1c1.6-2.9,2.8-4.5,3.7-5.7c1.2-1.6,1.5-2,1.5-4.1v-36.6c0-0.9-0.4-1.6-0.8-1.8
				c-0.3-0.2-0.5-0.1-0.6-0.1c-11.7,5.2-23,7.8-36,10.8c-17.2,4-36.7,8.5-63.4,20.3c-15.6,6.9-31.9,5.9-47.7,4.9
				c-9-0.6-17.5-1.1-25.2-0.1l0,0c-9.3,1.2-21.9-1.1-36.6-3.8c-8.8-1.6-17.8-3.3-27.1-4.4c-33.3-3.9-67-4.3-67.3-4.3l-0.3,0
				c-9.7-1.4-19.6-1.5-29.2-1.6c-10.2-0.1-19.8-0.2-27.9-1.9c-18.9-3.8-32.1-9.9-42.6-14.8c-7.5-3.4-13.9-6.4-20.1-7.5
				c-0.9-0.2-1.9,0.4-2.4,0.9c-2,1.7-3.5,5.1-3.5,7.8v34.7c0,1.8,1.7,5.1,3.1,6.2l0.1,0.1c0.6,0.4,1.2,0.9,1.7,1.5
				c18.8,18.9,54.3,50.2,68.5,48c10.2-1.6,26.9,5.9,44.6,13.8c18.1,8.1,36.7,16.5,48.8,15.4C172.8,362.3,174.9,362.2,177,362.2
				L177,362.2z"/>
			<path class="st0" d="M146.8,237.9c-7.9,0-15.1-1.9-21.2-5.6c-21.3-13-51.3-16.6-51.6-16.7l-0.3-0.1c-17.2-4.5-37,5.5-37.2,5.6
				l-0.2,0.1C14.6,229.6,7.7,235,7.6,235l-2.5-3.1c0.3-0.2,7.3-5.7,29.7-14.3c1.8-0.9,21.6-10.6,39.8-5.9
				c2.6,0.3,31.5,4.1,53.1,17.2c20.7,12.6,47.8-2.6,48.1-2.8l2,3.5c-0.3,0.2-7.4,4.2-17.4,6.6C155.7,237.3,151.1,237.9,146.8,237.9
				L146.8,237.9z"/>
			<path class="st0" d="M434.4,236.8c-9.7-4.9-21.4-4.1-21.5-4.1l-0.3-4c0.5,0,12.9-0.8,23.6,4.6L434.4,236.8L434.4,236.8z"/>
			<path class="st0" d="M288,357.8c4.7,1.4,50.8-6.8,56.7-8.8c5.9-2,63.3-36.7,71.4-44.8s20.8-25.6,20.8-25.6s0-18.4-1.6-12
				c-0.3,1.4-0.9,3.1-1.6,5.1c-3.1,9.3-7.2,17.6-20.4,22.7c-1.9,0.7-7.5,7.1-8.8,10.2c-4.8,11.5-17.1,11.4-27.7,19.3
				s-22-1.7-25.4,8.4c-2.8,8.4-10,11.9-23.1,14.8c-2.5,0.5-20.5-0.8-22.8-0.3c-9.3,1.9-12.5,0.9-13.8,0.9c-1.1,0-3.8-0.3-7-0.8
				c-10.8-1.5-21.8-0.3-32,3.6c-8.9,3.4-17.5,7-17.5,7c-8.3,5.2-24.7,4-33.5,4.6c-9.4,0.7-16.5-10.8-27.5-11.5
				c-3.1-0.2-13.8,8.5-32.9,2.9c-8.8-2.6-13.4-7.9-15.8-12.8c-2.3-4.7-7.2-7.8-12.5-7.5c-5.9,0.3-11.2-3.2-29.5-3.5
				c-12.8-0.2-19.7-5.5-23.3-10.9c-3.6-5.4-9.2-9-15.6-9.9C24.1,305.9,2,275.5,2,275.5v5c0,0,46.6,42,55.4,49.2
				c8.9,7.3,23.8,5.4,29.4,6.1s71.2,30.9,80.2,28.8c9-2.1,74.3,5.9,78.2,5.5c3.9-0.3,11.7-4.9,11.7-4.9L288,357.8L288,357.8z"/>
			<path class="st0" d="M265.9,274.8c4.4-0.7,2.3-1.4,19-1.2c0.1,0,7.7,2.3,13,4.5c7.5,3.2,8.4,3.1,15-1.7c3.2-2.4,9.4-5.1,21.1-7
				c3.9-0.6,7.9-0.5,11.8,0.1c3.5,0.5,8.3,0.5,11.1-3c4.9-5.9,14.1-12.9,23.2-11.1c9.1,1.8,19.8-9.4,28.6-10.6s17.9,3.1,22-2.9
				c0,0,6-7.6,1.8-7.3s-29.3,9.8-47.1,13.8c-17.8,4-61.5,25.6-79.8,24.3c-18.3-1.3-41.4-2.3-41.4-2.3c-13.1,0.9-70.1-5.8-76.5-9.2
				c-6.4-3.3-74.9-4.2-74.9-4.2c-12.1-0.2-37.7,0.6-50.8-4.7s-48-18.8-48-18.8v1.4c0,0,6.8,6.3,13.6,12.1c6.8,5.8,10.9,1.3,17.4,4.5
				c6.5,3.2,14.6,9.9,23.6,9.2c9-0.7,16.1,7,24.3,10.5c7.2,3.1,9.7-3.1,15.7-4.1c2.4-0.4,4.8-1,7.2-1.7c5.2-1.6,28.3,3.7,44.2,7
				c24.3,5.1,27.9-2.1,45.1-2.7s11.7,5.5,33.3,5.9C260.1,275.8,265.9,274.8,265.9,274.8L265.9,274.8z"/>
			<path class="st0" d="M429,239.3c0,0,5.2,1,5.7,7.1c1.1,13.2,1.5-12.7,1.5-12.7L429,239.3z"/>
			<path class="st0" d="M14,234.4c0,0-10.7-0.8-11,32.2L2,240.2c0,0,4.1-10.2,9.5-9.9C16.8,230.5,14,234.4,14,234.4L14,234.4z"/>
			<path class="st0" d="M51.4,284.8c-9.4-0.4-24.9-8.6-25.6-8.9l0.5-0.9c0.2,0.1,16,8.4,25.2,8.8L51.4,284.8z"/>
			<path class="st0" d="M29.3,277c0,0-1.7,2.8,1.4,5.3s3.1,0.8,6,2.5c2.9,1.7,3.1,3.1,7,3.1s4.5-4.1,4.5-4.1S33.7,279.9,29.3,277z"
				/>
			<path class="st0" d="M86.9,278.5c-9.4-0.4-24.9-8.6-25.6-8.9l0.5-0.9c0.2,0.1,16,8.4,25.2,8.8L86.9,278.5z"/>
			<path class="st0" d="M64.8,270.8c0,0-1.7,2.2,1.4,4.2c3.1,2,2.9,3.1,5.8,4.4c2.9,1.3,3.3,0,7.2,0s5.8-1.3,5.8-1.3
				S69.2,274.2,64.8,270.8L64.8,270.8z"/>
			<path class="st0" d="M143.5,302c-7.7,0-11.6-1.6-13.4-2.8l0.6-0.8c2.6,1.8,9.7,4.3,27.2,1.3l0.2,1
				C152.1,301.6,147.3,302,143.5,302L143.5,302z"/>
			<path class="st0" d="M133.7,300.1c0,0-0.9,1.9,2.7,2.9c3.6,1,3.1,2.9,6.2,3.3c1.4,0.2,3.5-4,4.8-3.6c2.5,0.8,5.3,0.3,7.3-1.4
				c0.4-0.4,0.6-0.6,0.6-0.6S138.9,302.1,133.7,300.1z"/>
			<path class="st0" d="M237.6,299.5c-8.8,0-18.8-2-19.3-2.2l0.2-1c0.2,0,17.7,3.6,26.6,1.4l0.2,1
				C243.1,299.3,240.4,299.5,237.6,299.5L237.6,299.5z"/>
			<path class="st0" d="M221.9,297.5c0,0-1,2.6,2.6,3.6s3.6,3.4,6.7,3.9c3.1,0.5,3.3-2.2,7-3.3c3.7-1.1,5.2-2.9,5.2-2.9
				S227.1,299.5,221.9,297.5L221.9,297.5z"/>
			<path class="st0" d="M324.4,289.5c-4.3,0-7.5-0.2-7.8-0.3l0.1-1c0.2,0,18,1.2,26.6-2.1l0.4,0.9
				C338.5,289.1,330.4,289.5,324.4,289.5L324.4,289.5z"/>
			<path class="st0" d="M320.2,288.9c0,0-0.6,2.7,3,3.2c3.6,0.5,6,2.3,9.2,2.3c3.1,0,1-2,4.5-3.5c3.5-1.5,4.8-3.6,4.8-3.6
				S325.6,290.3,320.2,288.9L320.2,288.9z"/>
			<path class="st0" d="M283.2,318c-4.3,0-7.5-0.2-7.8-0.3l0.1-1c0.2,0,18,1.2,26.6-2.1l0.4,0.9C297.3,317.5,289.2,317.9,283.2,318
				L283.2,318z"/>
			<path class="st0" d="M279,317.4c0,0-1.8,1.4,1.8,1.9s4.3,0.7,7.4,0.7c3.1,0,5.6,1.9,9.1,0.3s3-4.4,3-4.4S284.4,318.7,279,317.4
				L279,317.4z"/>
			<path class="st0" d="M352.5,307.4l-0.1-1c0.2,0,20.9-1.8,28.9-6.3l0.5,0.9C373.6,305.6,353.4,307.3,352.5,307.4z"/>
			<path class="st0" d="M356.1,306.5c0,0,0,4.3,3.6,4.3s2.4-3.5,5.5-3.9c3.1-0.4,4.4,1.4,7.6-0.6c3.3-2,7.1-4.7,7.1-4.7
				S361.6,307.1,356.1,306.5L356.1,306.5z"/>
			<path class="st0" d="M385.2,273.3c0,0-0.3,2.8,3.4,2.8s3.5,3,6.6,2.6c3.1-0.4,3.5-3.7,6.7-5.7c3.3-2,4.2-4.2,4.2-4.2
				S390.7,273.8,385.2,273.3z"/>
		</g>
		<path class="st0" d="M69.8,214.6l-2.5-3.1c0.4-0.4,10.9-8.6,38.6-9.7c6.1-0.2,12.4-0.9,19.2-1.6c23.7-2.6,48.3-5.2,58.4,12.4
			l-3.5,2c-8.8-15.4-32-12.9-54.5-10.4c-6.5,0.7-13.3,1.4-19.5,1.7C79.8,206.9,69.9,214.6,69.8,214.6L69.8,214.6z"/>
		<polygon class="st0" points="114.2,202.4 110.2,202.4 110.9,47.7 145,47.1 147,200.7 143,200.8 141,51.2 114.9,51.6 		"/>
		<polygon class="st0" points="114.1,51.6 105.7,49.6 105,18.1 150.8,17.2 150.6,50.4 143.2,51.1 142.8,47.2 146.6,46.8 146.7,21.2 
			109.1,22 109.7,46.4 115,47.7 		"/>
		<rect x="111.8" y="176.4" class="st0" width="32.1" height="9.5"/>
		<polygon class="st0" points="155.2,199.8 101.1,203.2 101.1,180.7 155.2,180.7 		"/>
		<rect x="111.9" y="152.3" class="st0" width="32.1" height="9.5"/>
		<rect x="111.9" y="128.1" class="st0" width="32.1" height="9.5"/>
		<rect x="111.9" y="104.6" class="st0" width="32.1" height="9.5"/>
		<rect x="111.9" y="80.6" class="st0" width="32.1" height="9.5"/>
		<rect x="111.9" y="57.2" class="st0" width="32.1" height="9.5"/>
		<path class="st0" d="M107.4,19.3c0,0,6.7-12.7,18.9-13.7S147.9,18,147.9,18"/>
		
			<rect x="126.3" y="0" transform="matrix(0.9999 -1.727790e-02 1.727790e-02 0.9999 -4.129471e-02 2.2168)" class="st0" width="4" height="6.9"/>
		
			<rect x="107.4" y="25" transform="matrix(0.9998 -1.972094e-02 1.972094e-02 0.9998 -0.5069 2.5383)" class="st0" width="42" height="4"/>
		<rect x="106.8" y="41.4" class="st0" width="42.9" height="4"/>
		<path class="st0" d="M283.1,244.7c-5.6,0-9.4-0.8-12-1.3c-1-0.2-1.8-0.4-2.3-0.4v-4c0.8,0,1.8,0.2,3,0.4
			c6.5,1.3,21.7,4.3,55.2-9.8c3-1.3,6.1-2.4,9.4-3.4l0.3-0.1c7.5-2.2,15.7-3.6,24.1-4.2c9-0.6,18.5-0.2,28.3,1.1l0.2,0
			c14.7,2,24.5,5.5,25,5.6l-1.3,3.8c-0.1,0-9.9-3.5-24.1-5.4h-0.2l-0.2-0.1c-9.5-1.3-18.7-1.6-27.4-1.1c-8.3,0.5-16.2,1.9-23.5,4.1
			l-0.3,0.1c-3,0.9-6,2-8.7,3.1C306.9,242.6,292.5,244.7,283.1,244.7L283.1,244.7z"/>
		<path class="st0" d="M229.7,240.5c-16.8,0-33.8-4-47.1-8.3c-21.1-6.7-37.4-15.4-39.1-16.3c-0.8-0.3-5.8-1.9-14.3-2.6
			c-8.6-0.7-22.5-0.5-40.5,4.1l-1-3.9c35.7-9.3,56.4-1.8,57.3-1.4l0.3,0.1c0.2,0.1,16.8,9.1,38.6,16.1c20,6.4,48.6,12.2,71.2,4
			c45.2-16.3,72.5-3.3,73.7-2.8l-1.8,3.6c-0.3-0.1-27.1-12.8-70.6,2.9C248,239.3,238.9,240.5,229.7,240.5L229.7,240.5z"/>
		<path class="st0" d="M238.6,64.8l-1.7-3c-3.2-5.4-10.7-8.1-10.8-8.1l1.3-3.8c0.3,0.1,6.7,2.4,11,7.3c2.1-3.2,5.6-7.8,8.7-8.4
			l0.8,3.9c-1.6,0.3-5.2,5-7.6,9.1L238.6,64.8L238.6,64.8z"/>
		<path class="st0" d="M356.5,225.7l-2.7-3c2.5-2.3,5.4-5.3,8.5-9c0.4-0.5,0.8-0.9,1.1-1.4c-2.5,0.3-5.9,0.6-10,1c0,0-0.1,0-0.2,0
			c-21.6,1.9-61.9,3.9-97.7-3c0.4,0.4,0.7,0.8,1.1,1.2l-2.9,2.7c-1.4-1.5-2.6-2.8-3.5-3.8c-1.1-1.3-1.8-2-1.8-2l1.9-3.3
			c36.7,8.2,79.9,6.1,102.4,4.2c0,0,0.1,0,0.1,0c9-0.8,14.6-1.6,14.7-1.6l1.9,3.1c-0.3,0.4-1.9,2.6-4.3,5.4
			C362.1,220.2,359.1,223.3,356.5,225.7L356.5,225.7z"/>
		<path class="st0" d="M319.1,230.7v-4c5.4,0,12.8-0.3,17.9-0.4l0.1,2v2C332,230.4,324.5,230.7,319.1,230.7z"/>
		<path class="st0" d="M351.1,212l-2.7-9.6l-12.9-1.6l-1.8-2.1l0.4-7l-59.2-1.2c-0.4,7.9-0.9,18.3-0.9,18.9l-4,0
			c0-0.4,0.7-14.8,1-21l2-1.9l63.3,1.3l2,2.1l-0.5,7.1l12.3,1.5l1.7,1.4l3,10.9L351.1,212L351.1,212z"/>
		<rect x="296.4" y="177.8" class="st0" width="4" height="9.3"/>
		
			<rect x="279.4" y="178.6" transform="matrix(0.9988 -4.989569e-02 4.989569e-02 0.9988 -8.7781 14.2664)" class="st0" width="4" height="8.6"/>
		<path class="st0" d="M280.8,174c-0.8,0-1.7-0.1-2.6-0.4l-0.7-0.3c-2.9-2-7.5-7.3-5.4-13.2c-0.7-2.2-2.2-7.6-0.6-11.2
			c-0.9-2.3-2.5-8,0.6-11.8c0.9-1.3,4.9-6.6,9.1-5.3l0.8,0.4c5.1,4.6,5,8.1,4.3,10c1.3,1.7,3.3,4.8,2.9,7.4
			c-0.1,0.6-0.3,1.2-0.6,1.7c0.5,1.3,1,3.4,0.4,5.3c-0.3,0.8-0.7,1.5-1.3,2c0.9,1.9,1.9,4.8,1.3,7.1c-0.2,0.8-0.6,1.4-1.1,1.9
			c-0.3,1.3-1,3.5-3,4.9C283.6,173.6,282.3,174,280.8,174L280.8,174z M279.6,169.9c1.2,0.3,2.2,0.1,2.9-0.3c1.1-0.8,1.5-2.4,1.5-3
			l1-1.6c0,0,0,0,0.1-0.1c0.3-1.2-0.9-4.1-1.8-5.7l1-2.9c0.6-0.3,0.8-0.6,0.9-0.8c0.4-1-0.3-2.8-0.7-3.4l0.6-2.7
			c0.1-0.1,0.1-0.1,0.1-0.1c0.1-1.1-1.3-3.6-2.8-5.3v-2.6c1-1.1-1.1-4-2.7-5.6c-1,0.2-3,1.9-4.3,3.8l-0.1,0.2c-2,2.3-0.5,7,0.3,8.6
			l-0.2,2c-1.1,1.6-0.2,6.5,0.8,9.3l-0.1,1.5C274.2,165.2,278.4,168.9,279.6,169.9L279.6,169.9z"/>
		<path class="st0" d="M267.6,91.7l-1.8-3.6c-2.1-4.4-5.1-8.6-6.3-9l0.9-3.9c2.6,0.6,5.5,4.7,7.4,8c3.7-4.6,8.9-6.8,9.1-6.9l1.5,3.7
			l-0.8-1.8l0.8,1.8c-0.1,0-6.4,2.7-9,8L267.6,91.7L267.6,91.7z"/>
		<path class="st0" d="M100.1,245.9c-5.5-1.1-15.6-5.7-18.7-7.1c-7.5,3.4-24.5,1.4-26.5,1.2l0.5-4c5.3,0.6,20.2,1.7,25-1.2l0.9-0.6
			l1,0.5c0.1,0.1,12.7,6.1,18.6,7.2L100.1,245.9L100.1,245.9z"/>
		<path class="st0" d="M287.6,261.7l-0.7-3.9c8.1-1.4,21.9-4.7,24.5-7.3l0.8-0.8l1.1,0.3c0.1,0,11.7,3.3,19.6,2.8l0.2,4
			c-7.3,0.4-16.8-1.9-19.9-2.7C307.7,258,291.1,261.1,287.6,261.7L287.6,261.7z"/>
		<g>
			<path class="st0" d="M78.8,208c0,0-4.7-7.9,2.9-11.1c7.6-3.2,10.5-7.5,16.1-4.8c5.6,2.7,7.9,10.5,7.9,10.5S81.6,206.6,78.8,208z"
				/>
			<path class="st0" d="M79.7,209.8l-2.6-0.8c-0.1-0.2-2.7-4.6-1.3-8.8c0.8-2.3,2.5-4.1,5.1-5.2c2.2-0.9,4-2,5.7-2.9
				c3.9-2.3,7.2-4.2,12.1-1.9c6.4,3.1,8.8,11.4,8.9,11.8l-1.6,2.5C94.3,206.5,81.3,209,79.7,209.8L79.7,209.8z M94.4,193.2
				c-1.6,0-3.2,0.9-5.8,2.4c-1.7,1-3.7,2.1-6.1,3.1c-1.6,0.7-2.5,1.6-2.9,2.8c-0.4,1.4-0.1,2.9,0.3,4c5.1-1.4,17.3-3.5,23.1-4.5
				c-1-2.3-3-5.7-6-7.2C96,193.4,95.2,193.2,94.4,193.2L94.4,193.2z"/>
		</g>
		<g>
			<path class="st0" d="M108.2,209.9c0,0-0.4-0.4-2-2.9c-1.6-2.5-4-1.8-6-0.1c-1.6,1.3-1.7,3.6-1.7,3.6S107.1,209.7,108.2,209.9
				L108.2,209.9z"/>
			<path class="st0" d="M98.6,212.4l-2.2-2.1c0-0.3,0.3-3.1,2.4-4.9c1.8-1.5,3.6-2.2,5.3-1.9c1,0.1,2.5,0.7,3.7,2.5
				c1.4,2.1,1.8,2.6,1.9,2.7l-1.8,3.3C107.2,211.8,102.5,212.1,98.6,212.4L98.6,212.4z M103.5,207.4c-0.4,0-1.1,0.3-1.7,0.8
				c0.9-0.1,1.8-0.1,2.7-0.2c-0.3-0.4-0.5-0.6-0.8-0.6C103.6,207.4,103.5,207.4,103.5,207.4L103.5,207.4z"/>
		</g>
		<g>
			<path class="st0" d="M147.6,199.6c0,0-2.2-7.9,5.1-8.9c7.3-1,10.8-4.1,15.1-0.4s4.4,11.9,4.4,11.9S150.3,199,147.6,199.6
				L147.6,199.6z"/>
			<path class="st0" d="M171.8,204.1c-10.4-1.5-22.2-2.9-23.9-2.6l-2.3-1.4c-0.1-0.5-1.2-4.7,1-8.1c0.9-1.3,2.5-2.9,5.8-3.4
				c2.1-0.3,3.9-0.8,5.6-1.2c3.9-1.1,7.4-2,11.1,1.3c4.9,4.2,5.1,13.1,5.1,13.4L171.8,204.1L171.8,204.1z M149.3,197.5
				c4.7,0.1,14.9,1.5,20.6,2.3c-0.4-2.6-1.4-6.3-3.5-8.1c-2-1.8-3.5-1.5-7.4-0.4c-1.7,0.5-3.7,1-6,1.3c-1.4,0.2-2.4,0.7-3,1.6
				C149.3,195.2,149.2,196.5,149.3,197.5L149.3,197.5z"/>
		</g>
		<g>
			<path class="st0" d="M161.1,216.5c0,0,0.9-2.6-2-2.9c-2.9-0.3-4.3-1.3-6-0.1s-1.7,3.6-1.7,3.6S160,216.3,161.1,216.5L161.1,216.5
				z"/>
			<path class="st0" d="M151.5,219l-2.2-2c0-0.4,0.1-3.4,2.6-5.1c1.9-1.3,3.6-0.9,5.3-0.6c0.6,0.1,1.3,0.3,2.1,0.4
				c1.9,0.2,2.9,1.1,3.3,1.9c1,1.6,0.5,3.3,0.4,3.6l-2.2,1.3C160,218.4,155.3,218.7,151.5,219L151.5,219z"/>
		</g>
		<path class="st0" d="M277.3,228.9c-29.1-33.9-121.6-8.9-122.5-8.7l-1.1-3.9c0.2-0.1,24.1-6.6,51.3-8.6c37-2.8,62.3,3.4,75.3,18.6
			L277.3,228.9L277.3,228.9z"/>
		<path class="st0" d="M309.4,207h-31.3v-12.8h31.3V207z M282.1,203h23.3v-4.8h-23.3V203z"/>
		<path class="st0" d="M201.4,237.4h-0.1l0-4c0.2,0,24.9,0,40.5-8.3l1.9,3.5C227.6,237.2,203.4,237.4,201.4,237.4L201.4,237.4z"/>
		<polygon class="st0" points="105.8,19.5 100.9,22.9 101.8,50.3 106.3,53 107.4,182.1 112.2,182.8 112.9,49.7 105.6,46.9 		"/>
	</g>
</g>
</svg>
