<svg width="169" height="142" viewBox="0 0 169 142" fill="none" xmlns="http://www.w3.org/2000/svg">
<path d="M90.8522 141.733C86.9829 141.733 82.8351 141.199 78.7597 140.672C74.1234 140.073 69.7466 139.512 66.3047 139.844C61.306 140.329 53.9909 137.036 46.9201 133.849C40.6812 131.041 34.2286 128.133 30.7867 128.687C27.6424 129.19 22.3917 126.5 15.1836 120.689C9.6811 116.251 4.72047 111.351 3.33149 109.954C3.19031 109.813 3.01478 109.68 2.83162 109.539L2.78964 109.508C1.85475 108.798 1 107.081 1 105.913V92.6915C1 91.1842 1.77844 89.4747 2.89267 88.5322C3.57953 87.9522 4.33125 87.7118 5.06771 87.8339C7.62816 88.2651 10.1733 89.4442 13.123 90.8065C17.0877 92.6381 22.0216 94.92 29.0581 96.3509C31.9887 96.9462 35.5908 96.9882 39.4067 97.034C43.0928 97.0798 46.9049 97.1217 50.675 97.6445C51.5602 97.6559 64.0839 97.8582 76.4778 99.3082C80.0648 99.728 83.5486 100.373 86.918 100.999C92.3747 102.01 97.0835 102.884 100.392 102.445C103.487 102.033 106.803 102.243 110.309 102.464C116.151 102.83 122.192 103.212 127.805 100.728C138.119 96.1639 145.637 94.4201 152.272 92.8823C157.176 91.7452 161.411 90.7645 165.758 88.8527C166.319 88.6047 166.937 88.662 167.456 88.9977C168.07 89.3984 168.452 90.154 168.452 90.9629V104.94C168.452 106.2 168.146 106.661 167.566 107.44C167.253 107.856 166.83 108.424 166.28 109.428C164.098 113.27 160.961 116.514 157.206 118.819C150.964 122.65 142.21 128.03 135.952 131.9C130.205 135.448 122.947 136.124 115.926 136.776C110.229 137.307 104.853 137.806 100.831 139.814C97.9535 141.252 94.5231 141.733 90.8408 141.733H90.8522ZM68.5447 138.219C71.6584 138.219 75.2262 138.677 78.9543 139.157C86.6853 140.153 94.6795 141.184 100.159 138.444C104.433 136.307 109.954 135.796 115.797 135.25C122.638 134.613 129.717 133.956 135.158 130.595C141.42 126.725 150.174 121.345 156.416 117.514C159.95 115.342 162.903 112.29 164.956 108.68C165.552 107.592 166.017 106.97 166.353 106.52C166.822 105.894 166.933 105.746 166.933 104.937V90.9591C166.933 90.5966 166.769 90.3638 166.628 90.2723C166.517 90.1997 166.437 90.2188 166.38 90.2455C161.904 92.2145 157.603 93.2105 152.623 94.3667C146.056 95.8892 138.612 97.614 128.431 102.121C122.474 104.757 116.243 104.364 110.222 103.983C106.791 103.765 103.548 103.563 100.602 103.956C97.0492 104.429 92.2297 103.536 86.6471 102.498C83.3006 101.876 79.8434 101.235 76.3061 100.823C63.5917 99.3387 50.7398 99.1709 50.6101 99.1709L50.5147 99.1632C46.8247 98.6481 43.0432 98.6023 39.3914 98.5603C35.5031 98.5145 31.8284 98.4687 28.7566 97.8467C21.5446 96.3815 16.5191 94.0576 12.4858 92.1916C9.63531 90.8752 7.17407 89.738 4.81587 89.3374C4.46099 89.2763 4.10993 89.4976 3.88098 89.6961C3.11017 90.3486 2.53016 91.6345 2.53016 92.6877V105.91C2.53016 106.6 3.1636 107.867 3.7169 108.291L3.75887 108.321C3.97638 108.485 4.20151 108.657 4.41902 108.875C11.589 116.079 25.1544 128.038 30.5501 127.175C34.4423 126.554 40.8109 129.419 47.5536 132.453C54.445 135.555 61.5692 138.764 66.1674 138.322C66.9267 138.249 67.7242 138.215 68.5523 138.215L68.5447 138.219Z" fill="#5A76B4"/>
<path d="M57.0095 90.7723C53.9911 90.7723 51.2552 90.0587 48.9275 88.643C40.7806 83.6824 29.3483 82.2934 29.2338 82.2781L29.1308 82.2591C22.5637 80.5305 15.0082 84.3578 14.9357 84.3959L14.8594 84.4303C6.56755 87.6242 3.91934 89.6618 3.89262 89.6809L2.94629 88.4827C3.05695 88.395 5.73187 86.3115 14.2756 83.0184C14.951 82.6788 22.5331 78.9698 29.4704 80.7709C30.4434 80.8892 41.5018 82.3316 49.725 87.3418C57.6162 92.146 67.9839 86.342 68.087 86.2848L68.8463 87.6089C68.7318 87.6738 66.0187 89.2116 62.222 90.1274C60.4171 90.5624 58.6732 90.7799 57.0133 90.7799L57.0095 90.7723Z" fill="#5A76B4"/>
<path d="M166.738 90.3449C163.045 88.4904 158.561 88.7613 158.515 88.7651L158.412 87.2426C158.611 87.2312 163.35 86.9335 167.425 88.9826L166.738 90.3449Z" fill="#5A76B4"/>
<path d="M110.874 136.521C112.668 137.055 130.247 133.933 132.51 133.151C134.773 132.369 156.676 119.139 159.744 116.068C162.812 112.996 167.696 106.291 167.696 106.291C167.696 106.291 167.696 99.2549 167.082 101.708C166.952 102.227 166.738 102.91 166.486 103.666C165.296 107.2 163.739 110.37 158.698 112.317C157.977 112.595 155.829 115.011 155.333 116.197C153.505 120.582 148.811 120.547 144.751 123.558C140.691 126.569 136.341 122.925 135.067 126.756C133.994 129.976 131.255 131.312 126.241 132.396C125.29 132.602 118.437 132.102 117.544 132.285C113.988 133.01 112.771 132.621 112.267 132.617C111.855 132.613 110.805 132.487 109.592 132.319C105.471 131.755 101.273 132.224 97.3888 133.712C94.0117 135.006 90.6996 136.387 90.6996 136.387C87.5324 138.368 81.2629 137.898 77.9164 138.131C74.3486 138.383 71.6126 134.01 67.4228 133.735C66.2399 133.659 62.1569 136.963 54.8839 134.823C51.5259 133.834 49.763 131.823 48.8395 129.946C47.9504 128.137 46.0768 126.966 44.0659 127.076C41.7993 127.202 39.8112 125.871 32.8129 125.752C27.9133 125.668 25.3147 123.665 23.9334 121.612C22.5635 119.571 20.4228 118.159 17.9882 117.823C10.1772 116.743 1.76318 105.139 1.76318 105.139V107.028C1.76318 107.028 19.5337 123.047 22.9145 125.817C26.2954 128.587 32.0116 127.862 34.1141 128.13C36.2166 128.397 61.2716 139.924 64.7097 139.112C68.1516 138.299 93.0578 141.355 94.5536 141.226C96.0494 141.096 99.0029 139.348 99.0029 139.348L110.874 136.524V136.521Z" fill="#5A76B4"/>
<path d="M102.475 104.864C104.135 104.582 103.345 104.318 109.71 104.422C109.752 104.422 112.66 105.284 114.659 106.139C117.536 107.367 117.857 107.322 120.387 105.482C121.619 104.586 123.966 103.532 128.442 102.807C129.938 102.567 131.46 102.605 132.96 102.838C134.288 103.044 136.108 103.017 137.199 101.708C139.073 99.4647 142.587 96.786 146.041 97.4805C149.498 98.1788 153.612 93.8783 156.973 93.4356C160.335 92.993 163.788 94.6338 165.387 92.3138C165.387 92.3138 167.673 89.429 166.07 89.5435C164.468 89.6579 154.886 93.2754 148.082 94.7903C141.282 96.3014 124.626 104.559 117.636 104.044C110.645 103.532 101.838 103.151 101.838 103.151C96.8543 103.49 75.0848 100.922 72.6426 99.6555C70.2005 98.3886 44.0504 98.0566 44.0504 98.0566C39.4179 97.9651 29.6569 98.2742 24.6772 96.2517C19.6975 94.2293 6.34961 89.0703 6.34961 89.0703V89.6083C6.34961 89.6083 8.92914 92.0199 11.5354 94.2255C14.1416 96.4349 15.6832 94.7216 18.1712 95.9312C20.6591 97.1447 23.7423 99.7127 27.1766 99.4342C30.6147 99.1556 33.3049 102.105 36.4644 103.456C39.2004 104.628 40.162 102.262 42.4668 101.884C43.394 101.731 44.3098 101.514 45.2028 101.231C47.1946 100.602 55.9826 102.643 62.0651 103.91C71.33 105.841 72.7037 103.105 79.2555 102.891C85.8074 102.678 83.7201 104.986 91.9815 105.124C100.243 105.261 102.467 104.849 102.467 104.849L102.475 104.864Z" fill="#5A76B4"/>
<path d="M164.689 91.3217C164.689 91.3217 166.666 91.7109 166.864 94.0234C167.303 99.0718 167.448 89.181 167.448 89.181L164.689 91.3217Z" fill="#5A76B4"/>
<path d="M6.35349 89.4405C6.35349 89.4405 2.26288 89.1199 2.16367 101.712L1.75537 91.6537C1.75537 91.6537 3.31988 87.7653 5.36518 87.8683C7.41049 87.9676 6.34967 89.4405 6.34967 89.4405H6.35349Z" fill="#5A76B4"/>
<path d="M20.6099 108.68C17.0154 108.531 11.0932 105.402 10.8413 105.269L11.0207 104.933C11.0817 104.963 17.1184 108.154 20.6252 108.299L20.6099 108.68Z" fill="#5A76B4"/>
<path d="M12.1655 105.715C12.1655 105.715 11.5207 106.791 12.715 107.737C13.9094 108.684 13.9056 108.054 15.0007 108.684C16.0921 109.317 16.1989 109.886 17.6604 109.886C19.1219 109.886 19.3584 108.333 19.3584 108.333C19.3584 108.333 13.8369 106.791 12.1655 105.715Z" fill="#5A76B4"/>
<path d="M34.1636 106.291C30.5691 106.143 24.6469 103.014 24.395 102.88L24.5744 102.544C24.6354 102.575 30.6721 105.765 34.1789 105.91L34.1636 106.291Z" fill="#5A76B4"/>
<path d="M25.7188 103.33C25.7188 103.33 25.0739 104.174 26.2682 104.921C27.4588 105.666 27.3825 106.112 28.4738 106.612C29.5652 107.108 29.7521 106.612 31.2136 106.612C32.6751 106.612 33.4192 106.104 33.4192 106.104C33.4192 106.104 27.4054 104.624 25.7188 103.334V103.33Z" fill="#5A76B4"/>
<path d="M55.7389 115.243C52.8007 115.243 51.3163 114.633 50.6104 114.16L50.824 113.843C51.8352 114.518 54.5292 115.484 61.2185 114.324L61.2833 114.701C59.0205 115.094 57.2004 115.243 55.7389 115.243Z" fill="#5A76B4"/>
<path d="M52.0258 114.526C52.0258 114.526 51.6938 115.239 53.0446 115.621C54.3993 116.003 54.2123 116.709 55.399 116.88C55.9447 116.96 56.7346 115.369 57.2383 115.518C58.1961 115.804 59.2454 115.613 60.0086 114.969C60.165 114.835 60.2414 114.747 60.2414 114.747C60.2414 114.747 54.0062 115.293 52.0258 114.526Z" fill="#5A76B4"/>
<path d="M91.665 114.293C88.3071 114.293 84.495 113.515 84.2852 113.469L84.3615 113.095C84.4302 113.11 91.1156 114.476 94.5231 113.633L94.6147 114.003C93.7676 114.213 92.7373 114.293 91.665 114.293Z" fill="#5A76B4"/>
<path d="M85.6814 113.53C85.6814 113.53 85.2998 114.522 86.6544 114.904C88.0091 115.285 88.0129 116.213 89.2034 116.38C90.3902 116.552 90.4741 115.545 91.8745 115.136C93.2788 114.728 93.8512 114.03 93.8512 114.03C93.8512 114.03 87.6656 114.297 85.6814 113.53Z" fill="#5A76B4"/>
<path d="M124.779 110.474C123.138 110.474 121.906 110.39 121.788 110.378L121.814 109.997C121.883 110 128.694 110.47 131.961 109.18L132.102 109.535C130.152 110.302 127.073 110.47 124.783 110.47L124.779 110.474Z" fill="#5A76B4"/>
<path d="M123.18 110.256C123.18 110.256 122.932 111.29 124.325 111.489C125.718 111.687 126.622 112.359 127.82 112.37C129.022 112.382 128.194 111.622 129.53 111.031C130.865 110.439 131.342 109.672 131.342 109.672C131.342 109.672 125.245 110.756 123.18 110.26V110.256Z" fill="#5A76B4"/>
<path d="M109.069 121.326C107.428 121.326 106.196 121.242 106.078 121.23L106.104 120.849C106.173 120.853 112.981 121.322 116.251 120.032L116.392 120.387C114.442 121.154 111.363 121.322 109.073 121.322L109.069 121.326Z" fill="#5A76B4"/>
<path d="M107.467 121.108C107.467 121.108 106.78 121.627 108.169 121.826C109.558 122.024 109.802 122.081 111 122.093C112.202 122.104 113.141 122.806 114.476 122.215C115.812 121.624 115.629 120.521 115.629 120.521C115.629 120.521 109.531 121.604 107.467 121.108Z" fill="#5A76B4"/>
<path d="M135.521 117.281L135.49 116.899C135.57 116.892 143.462 116.232 146.518 114.499L146.705 114.831C143.576 116.602 135.845 117.254 135.521 117.281Z" fill="#5A76B4"/>
<path d="M136.879 116.964C136.879 116.964 136.86 118.586 138.264 118.59C139.668 118.594 139.176 117.247 140.367 117.094C141.557 116.937 142.034 117.621 143.274 116.846C144.514 116.075 145.972 115.068 145.972 115.068C145.972 115.068 138.993 117.17 136.879 116.968V116.964Z" fill="#5A76B4"/>
<path d="M147.976 104.28C147.976 104.28 147.876 105.337 149.281 105.341C150.685 105.345 150.612 106.505 151.803 106.349C152.994 106.192 153.131 104.933 154.371 104.162C155.611 103.391 155.978 102.563 155.978 102.563C155.978 102.563 150.09 104.483 147.976 104.28Z" fill="#5A76B4"/>
<path d="M27.6159 81.9077L26.6543 80.721C26.8184 80.5874 30.8021 77.4394 41.3912 77.0234C43.7074 76.9318 46.1419 76.6685 48.7253 76.3938C57.7765 75.4169 67.1406 74.4096 70.9947 81.1369L69.6706 81.8963C66.3126 76.0351 57.4522 76.9891 48.8894 77.9087C46.3976 78.1758 43.8181 78.4544 41.4522 78.546C31.4508 78.939 27.6541 81.8734 27.6159 81.9039V81.9077Z" fill="#5A76B4"/>
<path d="M44.5771 77.2449L43.0508 77.2372L43.3293 18.1943L56.3224 17.9616L57.0855 76.5886L55.5592 76.6076L54.8151 19.5185L44.8481 19.694L44.5771 77.2449Z" fill="#5A76B4"/>
<path d="M44.5275 19.6864L41.3451 18.9385L41.0513 6.92229L58.5241 6.54834L58.4516 19.2246L55.6317 19.5147L55.4752 17.9959L56.9329 17.8471L56.9901 8.10521L42.6158 8.4143L42.8409 17.7212L44.8786 18.202L44.5275 19.6864Z" fill="#5A76B4"/>
<path d="M55.9104 67.3312H43.6768V70.9525H55.9104V67.3312Z" fill="#5A76B4"/>
<path d="M60.2301 76.2528L39.5786 77.554L39.5901 68.9378H60.2301V76.2528Z" fill="#5A76B4"/>
<path d="M43.6804 61.7296H55.9141V58.1084H43.6804V61.7296Z" fill="#5A76B4"/>
<path d="M43.6804 52.5028H55.9141V48.8815H43.6804V52.5028Z" fill="#5A76B4"/>
<path d="M43.6804 43.5507H55.9141V39.9295H43.6804V43.5507Z" fill="#5A76B4"/>
<path d="M43.6804 34.3927H55.9141V30.7714H43.6804V34.3927Z" fill="#5A76B4"/>
<path d="M43.6804 25.437H55.9141V21.8157H43.6804V25.437Z" fill="#5A76B4"/>
<path d="M41.9897 7.34956C41.9897 7.34956 44.5426 2.51867 49.1903 2.11038C53.838 1.70208 57.4364 6.84968 57.4364 6.84968" fill="#5A76B4"/>
<path d="M50.6829 2.55921e-05L49.1567 0.0263977L49.2024 2.6704L50.7285 2.64403L50.6829 2.55921e-05Z" fill="#5A76B4"/>
<path d="M58.0144 9.37108L41.9756 9.68744L42.0057 11.2135L58.0445 10.8971L58.0144 9.37108Z" fill="#5A76B4"/>
<path d="M58.1233 15.7902H41.7646V17.3165H58.1233V15.7902Z" fill="#5A76B4"/>
<path d="M109.016 93.3823C106.89 93.3823 105.429 93.0923 104.456 92.9015C104.078 92.8252 103.753 92.7641 103.589 92.7641V91.2378C103.898 91.2378 104.257 91.3102 104.749 91.4056C107.23 91.8979 113.034 93.0465 125.798 87.6547C126.923 87.1777 128.129 86.7427 129.385 86.3649L129.499 86.3305C132.376 85.4758 135.475 84.9416 138.711 84.7355C142.137 84.518 145.774 84.663 149.513 85.1705L149.586 85.1858C155.188 85.9642 158.954 87.2807 159.114 87.3379L158.607 88.7765C158.568 88.7651 154.825 87.4524 149.391 86.6969H149.33L149.254 86.674C145.636 86.1855 142.126 86.0444 138.814 86.2542C135.654 86.4526 132.632 86.9792 129.839 87.8187L129.728 87.8493C128.564 88.2041 127.446 88.6086 126.401 89.0513C118.113 92.5542 112.614 93.3746 109.019 93.3746L109.016 93.3823Z" fill="#5A76B4"/>
<path d="M88.6393 91.7832C82.2362 91.7832 75.7378 90.253 70.6589 88.6351C62.6151 86.0708 56.3914 82.7739 55.7389 82.4229C55.4336 82.3199 53.5295 81.7017 50.2898 81.446C47.0273 81.1904 41.6965 81.2552 34.8508 83.0296L34.4692 81.5529C48.0766 78.0232 55.9907 80.8851 56.3189 81.0072L56.4181 81.053C56.483 81.0873 62.8211 84.5369 71.1512 87.1889C78.7791 89.6158 89.6848 91.8519 98.3239 88.7267C115.56 82.4916 126.004 87.4522 126.439 87.6659L125.768 89.0358C125.665 88.9862 115.427 84.1629 98.8429 90.1615C95.6376 91.3215 92.1537 91.7832 88.6393 91.7832Z" fill="#5A76B4"/>
<path d="M92.0276 24.727L91.3637 23.5975C90.1579 21.5484 87.2883 20.5219 87.2578 20.5143L87.7615 19.0719C87.8798 19.1139 90.3334 19.9839 91.9666 21.846C92.7717 20.6135 94.0997 18.8735 95.2902 18.6369L95.5878 20.1327C94.9735 20.2548 93.5883 22.0216 92.6802 23.5937L92.0238 24.727H92.0276Z" fill="#5A76B4"/>
<path d="M137.016 86.1244L135.998 84.9911C136.967 84.1211 138.054 82.9725 139.237 81.5721C139.394 81.3851 139.539 81.2096 139.672 81.0455C138.718 81.1562 137.425 81.2935 135.864 81.4347C135.864 81.4347 135.83 81.4347 135.803 81.4385C127.572 82.1597 112.202 82.9153 98.5335 80.3014C98.667 80.4464 98.8082 80.599 98.957 80.7593L97.839 81.801C97.3124 81.2363 96.8583 80.7402 96.5111 80.3586C96.0761 79.874 95.8242 79.5878 95.8242 79.5878L96.5645 78.3401C110.573 81.4729 127.061 80.6792 135.643 79.9275C135.643 79.9275 135.673 79.9275 135.7 79.9236C139.153 79.6146 141.271 79.3131 141.294 79.3131L142.034 80.496C141.939 80.6372 141.313 81.4767 140.405 82.5642C139.176 84.0181 138.039 85.2162 137.016 86.1321V86.1244Z" fill="#5A76B4"/>
<path d="M122.749 88.0169V86.4906C124.794 86.4867 127.63 86.3952 129.587 86.3265L129.618 87.0897V87.8528C127.675 87.9215 124.821 88.0131 122.749 88.0169Z" fill="#5A76B4"/>
<path d="M134.975 80.9044L133.96 77.2373L129.049 76.6421L128.377 75.8369L128.545 73.1811L105.94 72.7193C105.795 75.7415 105.604 79.71 105.601 79.9123L104.074 79.9008C104.074 79.7367 104.338 74.2533 104.452 71.9027L105.23 71.1777L129.373 71.67L130.121 72.4828L129.95 75.2111L134.655 75.7797L135.299 76.333L136.448 80.4923L134.975 80.9006V80.9044Z" fill="#5A76B4"/>
<path d="M115.614 67.835H114.087V71.3952H115.614V67.835Z" fill="#5A76B4"/>
<path d="M109.039 68.1319L107.514 68.2081L107.678 71.4933L109.203 71.4171L109.039 68.1319Z" fill="#5A76B4"/>
<path d="M108.142 66.4078C107.833 66.4078 107.505 66.362 107.161 66.2743L106.909 66.156C105.822 65.3814 104.063 63.3742 104.857 61.1343C104.578 60.291 104.017 58.2343 104.608 56.8758C104.28 56.0096 103.639 53.8269 104.845 52.3693C105.189 51.877 106.722 49.8584 108.31 50.3507L108.596 50.5148C110.531 52.2662 110.496 53.6171 110.233 54.3459C110.718 54.9831 111.473 56.1584 111.336 57.1582C111.302 57.3948 111.225 57.6085 111.107 57.7954C111.305 58.3029 111.508 59.0966 111.252 59.8331C111.149 60.1346 110.981 60.394 110.752 60.6115C111.084 61.3251 111.489 62.447 111.252 63.317C111.172 63.6108 111.027 63.8588 110.828 64.0573C110.725 64.5419 110.439 65.3966 109.668 65.9423C109.23 66.2514 108.718 66.4078 108.142 66.4078ZM107.68 64.8281C108.146 64.9235 108.516 64.8815 108.779 64.6983C109.191 64.4083 109.34 63.7825 109.363 63.565L109.748 62.9697C109.748 62.9697 109.768 62.9583 109.779 62.9125C109.905 62.447 109.447 61.3366 109.096 60.7336L109.466 59.6423C109.706 59.5431 109.771 59.4286 109.806 59.337C109.939 58.9555 109.68 58.2877 109.531 58.0244L109.779 57.0055C109.813 56.9827 109.813 56.9788 109.817 56.9483C109.874 56.5438 109.306 55.5822 108.745 54.9373V53.93C109.123 53.5026 108.329 52.4036 107.73 51.8007C107.348 51.8618 106.593 52.5181 106.078 53.2622L106.032 53.3232C105.28 54.2047 105.856 55.9829 106.142 56.5934L106.074 57.3566C105.635 57.9786 106.001 59.8331 106.387 60.8901L106.364 61.4663C105.643 63.0537 107.23 64.4656 107.68 64.8243V64.8281Z" fill="#5A76B4"/>
<path d="M103.128 34.9995L102.448 33.622C101.628 31.9545 100.483 30.3251 100.044 30.1992L100.395 28.7148C101.407 28.9514 102.479 30.5121 103.2 31.7789C104.601 30.0274 106.589 29.1994 106.688 29.1612L107.264 30.5731C107.241 30.5846 104.83 31.5958 103.815 33.6258L103.128 34.9995Z" fill="#5A76B4"/>
<path d="M39.2045 93.84C37.1096 93.4355 33.2479 91.6688 32.0726 91.1155C29.2184 92.3976 22.7085 91.6611 21.9453 91.5695L22.1285 90.0546C24.1623 90.2989 29.8403 90.6957 31.672 89.6082L32.023 89.3983L32.3932 89.5738C32.4428 89.5967 37.2508 91.9053 39.4945 92.3365L39.2045 93.8362V93.84Z" fill="#5A76B4"/>
<path d="M110.744 99.8577L110.477 98.3543C113.556 97.8048 118.819 96.5646 119.822 95.5572L120.139 95.2405L120.57 95.3626C120.616 95.3741 125.046 96.6028 128.068 96.4272L128.156 97.9498C125.389 98.11 121.734 97.24 120.547 96.9309C118.418 98.4306 112.072 99.6173 110.752 99.8539L110.744 99.8577Z" fill="#5A76B4"/>
<path d="M31.069 79.3741C31.069 79.3741 29.2946 76.3748 32.1833 75.1423C35.0719 73.9136 36.1747 72.2651 38.323 73.2954C40.4675 74.3295 41.3375 77.3174 41.3375 77.3174C41.3375 77.3174 32.1451 78.8246 31.069 79.3741Z" fill="#5A76B4"/>
<path d="M31.4164 80.0534L30.4129 79.7595C30.3709 79.6909 29.3978 78.0157 29.9244 76.4168C30.2144 75.5354 30.8746 74.8676 31.8858 74.4364C32.7291 74.0777 33.4274 73.6732 34.0417 73.3184C35.5223 72.4598 36.8044 71.7157 38.6551 72.6086C41.082 73.7763 42.0322 76.9663 42.0703 77.1037L41.4598 78.0691C36.999 78.8018 32.0193 79.7443 31.4126 80.0534H31.4164ZM37.0296 73.7343C36.4076 73.7343 35.7932 74.0701 34.8087 74.6425C34.1562 75.0202 33.4159 75.4514 32.4849 75.8445C31.8858 76.1001 31.5233 76.4435 31.3745 76.8938C31.2027 77.4204 31.3325 78.0119 31.4813 78.4316C33.435 77.8936 38.0942 77.0846 40.2921 76.7145C39.9106 75.8559 39.1626 74.5433 37.9912 73.9823C37.6363 73.8106 37.331 73.7305 37.0258 73.7305L37.0296 73.7343Z" fill="#5A76B4"/>
<path d="M42.2995 80.0917C42.2995 80.0917 42.1392 79.92 41.5249 78.9889C40.8991 78.0426 39.9909 78.2982 39.2392 78.9355C38.6401 79.443 38.5752 80.2939 38.5752 80.2939C38.5752 80.2939 41.8797 80.023 42.3033 80.0955L42.2995 80.0917Z" fill="#5A76B4"/>
<path d="M38.6323 81.0493L37.8081 80.2289C37.8157 80.1106 37.9226 79.0422 38.743 78.3477C39.4184 77.7753 40.1167 77.5235 40.7654 77.6151C41.1508 77.6685 41.7079 77.8783 42.1582 78.5614C42.6962 79.3742 42.8641 79.5726 42.8679 79.5802L42.1849 80.8395C41.8949 80.8128 40.1167 80.9234 38.6323 81.0455V81.0493ZM40.4983 79.1261C40.3266 79.1261 40.09 79.233 39.8381 79.4276C40.1778 79.4047 40.525 79.3818 40.8494 79.3627C40.7463 79.2253 40.6471 79.1452 40.5441 79.1299C40.5288 79.1299 40.5097 79.1299 40.4945 79.1299L40.4983 79.1261Z" fill="#5A76B4"/>
<path d="M57.3065 76.1574C57.3065 76.1574 56.4708 73.1467 59.2564 72.7575C62.0458 72.3683 63.3813 71.1968 64.9993 72.5896C66.6172 73.9824 66.6706 77.1457 66.6706 77.1457C66.6706 77.1457 58.3635 75.9323 57.3027 76.1574H57.3065Z" fill="#5A76B4"/>
<path d="M66.5639 77.9013C62.5877 77.3213 58.1003 76.7871 57.463 76.9054L56.5739 76.3635C56.5243 76.1842 56.1084 74.5624 56.9402 73.2917C57.2646 72.7995 57.9095 72.1775 59.1534 72.002C59.9624 71.8875 60.6569 71.7005 61.2712 71.5364C62.7747 71.1319 64.0759 70.7809 65.503 72.0134C67.3576 73.6123 67.4377 76.9931 67.4415 77.1343L66.5677 77.9013H66.5639ZM57.9591 75.379C59.7678 75.4286 63.6638 75.9514 65.8274 76.2567C65.6786 75.2531 65.3122 73.8679 64.5033 73.1696C63.7287 72.5018 63.1677 72.6087 61.6643 73.0132C61.008 73.1887 60.2677 73.3909 59.3633 73.5169C58.8138 73.5932 58.4361 73.7954 58.2147 74.1274C57.9743 74.4899 57.9324 74.9822 57.9553 75.3828L57.9591 75.379Z" fill="#5A76B4"/>
<path d="M62.4587 82.6022C62.4587 82.6022 62.7906 81.6253 61.684 81.4994C60.5736 81.3734 60.0432 80.9919 59.3983 81.4459C58.7535 81.9 58.7344 82.8044 58.7344 82.8044C58.7344 82.8044 62.0389 82.5335 62.4625 82.606L62.4587 82.6022Z" fill="#5A76B4"/>
<path d="M58.7954 83.5639L57.9712 82.7855C57.9712 82.6519 58.0284 81.4766 58.9595 80.8241C59.6807 80.3166 60.3332 80.4616 60.9666 80.599C61.2109 80.6524 61.4665 80.7096 61.768 80.744C62.493 80.8279 62.8593 81.179 63.0387 81.4614C63.4202 82.0643 63.2218 82.7244 63.1799 82.8503L62.3442 83.3578C62.0542 83.3273 60.2722 83.4418 58.7916 83.5639H58.7954Z" fill="#5A76B4"/>
<path d="M106.795 87.3454C95.6946 74.402 60.4093 83.934 60.0544 84.0294L59.6499 82.5565C59.7415 82.5298 68.8347 80.0495 79.2253 79.2596C93.3326 78.1835 102.998 80.5723 107.955 86.3495L106.795 87.3416V87.3454Z" fill="#5A76B4"/>
<path d="M119.044 78.9772H107.108V74.1005H119.044V78.9772ZM108.634 77.4509H117.518V75.6269H108.634V77.4509Z" fill="#5A76B4"/>
<path d="M77.8477 90.5814H77.8096L77.8172 89.0551C77.9088 89.0551 87.3302 89.0551 93.2829 85.9032L93.9965 87.254C87.8415 90.5127 78.6262 90.5852 77.8477 90.5852V90.5814Z" fill="#5A76B4"/>
<path d="M41.3528 7.4335L39.5098 8.73471L39.8494 19.1902L41.5589 20.2128L41.971 69.4909L43.8141 69.7657L44.0888 18.946L41.2841 17.8928L41.3528 7.4335Z" fill="#5A76B4"/>
</svg>
