<svg width="169" height="142" viewBox="0 0 169 142" fill="none" xmlns="http://www.w3.org/2000/svg">
<g clip-path="url(#clip0_393_538)">
<path d="M13.6431 90.1108L12.5728 89.0629L70.5678 29.7132C71.058 29.2117 71.7429 28.9572 72.4427 29.0059C73.1425 29.0583 73.7787 29.4175 74.1866 29.9901L93.1266 56.4859L91.9103 57.3578L72.9704 30.8621C72.8207 30.6525 72.5849 30.5215 72.3267 30.4991C72.0685 30.4804 71.8177 30.5739 71.6381 30.7573L13.6431 90.1108Z" fill="#73CAD6"/>
<path d="M11.9772 92.416L69.3248 32.0633L10.2258 86.9372C7.55002 88.5015 5.32707 89.3398 6.29633 90.1144L11.9772 92.416Z" fill="#73CAD6"/>
<path d="M110.506 137.305H109.009V126.093C109.009 122.849 108.616 119.728 107.841 116.812C106.123 110.349 103.347 107.052 97.2203 104.212C89.5897 100.672 78.3178 98.6097 67.2741 96.9069C59.9429 95.7767 56.0172 93.928 55.28 91.2597C54.6288 88.9021 56.8293 87.0384 56.9228 86.9598L57.8809 88.1087C57.8809 88.1087 56.3241 89.441 56.7245 90.863C57.0426 91.9932 58.8651 94.0927 67.5024 95.425C78.6546 97.1464 90.05 99.2346 97.8528 102.853C104.364 105.874 107.463 109.552 109.289 116.427C110.098 119.466 110.506 122.718 110.506 126.09V137.302V137.305Z" fill="#73CAD6"/>
<path d="M162.038 92.0452C161.383 91.7795 160.739 91.6186 160.133 91.5587C157.547 91.308 155.178 90.2115 153.46 88.4713L109.282 43.6456C108.814 43.1703 108.062 43.1478 107.568 43.5932L57.5514 88.359L56.5522 87.2438L106.569 42.4779C107.661 41.5012 109.319 41.5536 110.348 42.5977L154.527 87.4234C155.997 88.9129 158.037 89.856 160.279 90.073C161.027 90.1479 161.809 90.3425 162.599 90.6606L162.041 92.049L162.038 92.0452Z" fill="#73CAD6"/>
<path d="M90.1209 142.417C86.3261 142.417 82.2582 141.893 78.2614 141.377C73.7144 140.789 69.422 140.239 66.0464 140.565C61.1402 141.04 53.9699 137.811 47.0353 134.686C40.9166 131.931 34.5845 129.08 31.2127 129.622C28.1253 130.116 22.9796 127.478 15.9103 121.778C10.5138 117.426 5.64878 112.621 4.28657 111.251C4.1481 111.113 3.97595 110.982 3.79632 110.847L3.75516 110.813C2.83828 110.117 2 108.437 2 107.288V94.3209C2 92.8427 2.76344 91.1661 3.8562 90.2417C4.52982 89.6729 5.26706 89.4371 5.98933 89.5569C8.50044 89.9835 10.9966 91.1362 13.8894 92.4722C17.7777 94.2685 22.6165 96.5064 29.5174 97.9098C32.3915 98.4936 35.9243 98.5348 39.6666 98.5797C43.2967 98.6246 47.0503 98.6695 50.7664 99.1859L50.5606 100.668C46.9418 100.163 43.2331 100.118 39.6517 100.077C35.8382 100.032 32.2344 99.9868 29.2218 99.3768C22.1488 97.9397 17.2201 95.6606 13.2644 93.8306C10.4689 92.5395 8.0551 91.4243 5.74234 91.0314C5.3943 90.9715 5.05001 91.1885 4.82172 91.3831C4.06577 92.0231 3.49694 93.2843 3.49694 94.3171V107.284C3.49694 107.962 4.11816 109.204 4.6608 109.62L4.70197 109.653C4.91528 109.814 5.13608 109.983 5.34939 110.196C12.3812 117.261 25.689 128.994 30.9769 128.148C34.7941 127.538 41.0401 130.348 47.6528 133.324C54.4115 136.366 61.4021 139.513 65.9079 139.079C69.4482 138.739 73.823 139.3 78.456 139.899C86.038 140.876 93.8782 141.886 99.2522 139.199C103.444 137.103 108.859 136.602 114.588 136.067C121.298 135.442 128.24 134.798 133.577 131.501C139.778 127.669 148.337 122.411 154.425 118.672C157.891 116.543 160.787 113.549 162.801 110.009C163.385 108.942 163.841 108.332 164.171 107.891C164.631 107.277 164.739 107.131 164.739 106.338V92.6293C164.739 92.2738 164.578 92.0455 164.44 91.9557C164.331 91.8846 164.253 91.9033 164.197 91.9295C159.807 93.8606 155.589 94.8373 150.706 95.9713C144.265 97.4644 136.964 99.156 126.979 103.576C120.591 106.401 113.634 105.971 107.497 105.593C104.708 105.421 102.078 105.256 99.6227 105.383L99.5478 103.886C102.085 103.759 104.761 103.924 107.59 104.1C113.847 104.489 120.322 104.889 126.377 102.21C136.492 97.7339 143.865 96.0236 150.373 94.5155C155.181 93.4003 159.335 92.4385 163.598 90.5636C164.148 90.3241 164.754 90.3727 165.263 90.7058C165.866 91.0987 166.24 91.8397 166.24 92.6331V106.341C166.24 107.576 165.941 108.029 165.372 108.793C165.065 109.2 164.65 109.758 164.111 110.742C161.97 114.511 158.894 117.692 155.211 119.952C149.126 123.691 140.568 128.949 134.367 132.781C128.731 136.261 121.613 136.924 114.727 137.564C109.139 138.084 103.866 138.574 99.922 140.543C97.1003 141.953 93.736 142.425 90.1283 142.425L90.1209 142.417Z" fill="#73CAD6"/>
<path d="M98.2384 140.763L96.7452 140.632C96.7526 140.55 97.4263 132.29 94.8066 123.765C91.3337 112.471 84.0025 106.075 73.015 104.754C48.6187 101.82 43.6264 98.4557 41.9611 95.5554C41.0891 94.036 41.0891 92.3257 41.9536 90.3236C43.1511 87.558 47.2228 85.1329 54.0563 83.1196C59.0299 81.6526 63.7377 80.9378 63.7826 80.9303L64.0072 82.4123C58.9513 83.172 45.3816 86.1883 43.327 90.9223C42.6497 92.4829 42.6309 93.7179 43.2597 94.8144C45.3292 98.422 54.5615 101.03 73.1946 103.272C84.6724 104.653 92.6436 111.603 96.2512 123.368C98.9494 132.167 98.2683 140.415 98.2384 140.763Z" fill="#73CAD6"/>
<path d="M4.84102 91.3644L3.90918 90.193C4.01771 90.1069 6.64857 88.0561 15.0539 84.819L15.5928 86.2149C7.39704 89.3697 4.86348 91.3456 4.84102 91.3644Z" fill="#73CAD6"/>
<path d="M164.545 92.0194C160.923 90.2006 156.525 90.4663 156.48 90.4701L156.379 88.9769C156.574 88.9619 161.222 88.6738 165.219 90.6834L164.545 92.0194Z" fill="#73CAD6"/>
<path d="M87.0263 49.2368C87.0263 49.2368 69.325 75.7663 62.3418 83.0638L92.52 56.9198L87.0263 49.2368Z" fill="#73CAD6"/>
<path d="M46.7547 98.4524L44.9434 100.223C44.9434 100.223 54.0747 101.499 63.6476 103.838C66.9071 104.635 72.981 105.503 76.4913 106.611C81.4125 108.164 84.2941 111.494 87.6434 115.42C91.7039 120.18 95.072 127.478 94.1851 140.696H97.4933C97.4933 140.696 99.6002 110.349 78.3175 105.095L58.079 101.581L46.7584 98.4486L46.7547 98.4524Z" fill="#73CAD6"/>
<path d="M2.74463 106.528C2.74463 106.528 10.9927 117.905 18.6533 118.968C21.0447 119.301 23.1404 120.682 24.4876 122.688C25.8423 124.705 28.3909 126.666 33.196 126.748C40.0595 126.864 42.0092 128.17 44.2322 128.047C46.2044 127.938 48.0419 129.087 48.9139 130.861C49.8195 132.702 51.5447 134.675 54.8417 135.644C61.9746 137.74 65.9789 134.502 67.1391 134.577C71.2481 134.843 73.9314 139.132 77.4305 138.888C80.9296 138.645 92.0219 141.205 94.2972 138.507C94.2972 138.507 95.2178 141.793 93.7508 141.92C92.2838 142.047 67.8538 139.053 64.482 139.846C61.1064 140.644 36.5379 129.338 34.4759 129.076C32.4139 128.814 26.8079 129.525 23.4922 126.808C20.1764 124.091 2.74463 108.385 2.74463 108.385V106.532V106.528Z" fill="#73CAD6"/>
<path d="M45.7853 93.5084C45.209 92.644 45.0743 91.772 45.3811 90.9187C46.3017 88.359 51.0021 86.9144 51.2005 86.8546L51.4175 87.5731C51.3726 87.5881 46.8781 88.9652 46.0884 91.1732C45.8639 91.8019 45.9687 92.4306 46.414 93.0968L45.7928 93.5122L45.7853 93.5084Z" fill="#73CAD6"/>
<path d="M62.9066 98.8268C54.9205 98.0334 53.0268 96.5702 52.9482 96.5065L53.416 95.9227C53.416 95.9227 55.3097 97.3186 62.9815 98.0821L62.9066 98.8268Z" fill="#73CAD6"/>
<path d="M52.2596 95.7504C49.2956 94.7774 47.8324 93.6922 47.78 92.431C47.7313 91.1661 49.1983 90.2904 49.595 90.1257L49.8832 90.818C49.6661 90.9078 48.4948 91.5852 48.5285 92.4048C48.5472 92.91 49.0898 93.9242 52.4916 95.0431L52.2596 95.7542V95.7504Z" fill="#73CAD6"/>
<path d="M57.9598 99.9645C53.5438 99.9421 47.9864 97.1203 47.7544 97.0006L48.0949 96.3344C48.1511 96.3644 53.7272 99.1936 57.9635 99.216V99.9645H57.9598Z" fill="#73CAD6"/>
<path d="M74.4704 99.942C71.3418 98.8605 66.4954 98.8268 66.4468 98.8268V98.0783C66.6526 98.0783 71.4653 98.112 74.7136 99.2347L74.4704 99.942Z" fill="#73CAD6"/>
<path d="M53.9291 86.8776L53.4463 86.305C54.0451 85.7998 56.253 85.5191 56.6872 85.4667L56.7732 86.2114C55.7815 86.3274 54.2434 86.6119 53.9291 86.8776Z" fill="#73CAD6"/>
<path d="M53.596 93.7894C52.2301 93.4526 51.5041 92.9287 51.3731 92.1839C51.1635 90.9677 52.7914 89.8487 52.9748 89.7252L53.3902 90.3502C53.0235 90.5934 52.0018 91.4317 52.1103 92.0567C52.1814 92.4571 52.7727 92.8126 53.7719 93.0634L53.5923 93.7894H53.596Z" fill="#73CAD6"/>
<path d="M73.5796 101.97C69.3171 100.731 66.9295 101.255 66.907 101.259L66.7349 100.529C66.8359 100.507 69.3133 99.9492 73.7854 101.248L73.5759 101.966L73.5796 101.97Z" fill="#73CAD6"/>
<path d="M84.8405 103.482C81.8803 101.592 77.4756 101.566 77.4307 101.566V100.817C77.629 100.817 82.0974 100.84 85.2447 102.849L84.8405 103.482Z" fill="#73CAD6"/>
<path d="M99.6076 109.945C97.9535 105.582 90.6447 103.546 90.5698 103.527L90.7644 102.805C91.0788 102.891 98.5186 104.96 100.307 109.679L99.6076 109.945Z" fill="#73CAD6"/>
<path d="M93.1859 111.329C90.933 105.985 86.8913 105.832 86.8501 105.832L86.8651 105.083C87.0522 105.087 91.4345 105.252 93.8745 111.037L93.1859 111.329Z" fill="#73CAD6"/>
<path d="M100.046 118.119H99.2974C99.2974 112.49 95.686 109.541 95.6523 109.511L96.1164 108.924C96.2773 109.051 100.046 112.112 100.046 118.115V118.119Z" fill="#73CAD6"/>
<path d="M105.233 120.334C104.237 114.724 103.339 113.904 103.302 113.871L103.721 113.25C103.912 113.366 104.918 114.256 105.974 120.203L105.237 120.334H105.233Z" fill="#73CAD6"/>
<path d="M107.512 124.593H106.763V132.538H107.512V124.593Z" fill="#73CAD6"/>
<path d="M103.187 125.642L102.441 125.704L103.152 134.274L103.898 134.212L103.187 125.642Z" fill="#73CAD6"/>
<path d="M100.046 129.959H99.2972C99.2972 124.406 97.2988 120.892 97.2764 120.858L97.9238 120.48C98.0099 120.63 100.046 124.189 100.046 129.959Z" fill="#73CAD6"/>
<path d="M102.742 119.154L101.999 119.247L102.437 122.749L103.18 122.656L102.742 119.154Z" fill="#73CAD6"/>
<path d="M101.232 134.001H100.483V138.694H101.232V134.001Z" fill="#73CAD6"/>
<path d="M110.214 133.353C110.214 133.353 110.79 134.274 116.295 133.151C117.171 132.972 123.896 133.458 124.824 133.26C129.745 132.197 132.428 130.887 133.48 127.729C134.73 123.975 138.996 127.545 142.978 124.593C146.96 121.64 151.563 121.674 153.355 117.374C153.842 116.21 155.949 113.841 156.656 113.568C161.6 111.655 163.123 108.549 164.294 105.084C164.541 104.346 164.751 103.677 164.878 103.164C165.481 100.758 165.481 107.658 165.481 107.658C165.481 107.658 160.687 114.234 157.682 117.246C154.676 120.259 133.195 133.234 130.972 134.001C128.75 134.768 111.512 137.829 109.753 137.305L110.21 133.353H110.214Z" fill="#73CAD6"/>
<path d="M41.4071 94.089C41.4071 94.089 41.2536 96.3905 45.3852 99.0289C46.9532 100.028 45.9727 98.4563 45.9727 98.4563L41.4033 94.0927L41.4071 94.089Z" fill="#73CAD6"/>
<path d="M138.338 77.2408H136.841V98.2391H138.338V77.2408Z" fill="#73CAD6"/>
<path d="M139.366 96.1546L137.622 94.3433L136.152 96.1134L134.999 95.1554L137.536 92.0979L140.444 95.1142L139.366 96.1546Z" fill="#73CAD6"/>
<path d="M140.961 93.8641L137.446 90.5371L134.307 93.8379L133.225 92.805L137.39 88.4227L141.99 92.7788L140.961 93.8641Z" fill="#73CAD6"/>
<path d="M140.728 90.6608L137.431 87.3638L134.307 90.6459L133.225 89.6167L137.405 85.2195L141.788 89.6018L140.728 90.6608Z" fill="#73CAD6"/>
<path d="M140.37 87.3116L137.439 84.445L134.73 87.2929L133.645 86.26L137.398 82.3156L141.417 86.2413L140.37 87.3116Z" fill="#73CAD6"/>
<path d="M139.838 83.5762L137.443 81.2821L135.284 83.5537L134.198 82.5246L137.394 79.164L140.875 82.4984L139.838 83.5762Z" fill="#73CAD6"/>
<path d="M135.938 79.6735L134.853 78.6406L137.574 75.7815L140.508 78.5583L139.479 79.6436L137.63 77.8959L135.938 79.6735Z" fill="#73CAD6"/>
<path d="M28.3124 79.5138L28.2896 98.2367L29.7865 98.2385L29.8094 79.5156L28.3124 79.5138Z" fill="#73CAD6"/>
<path d="M30.8571 96.4651L29.0794 94.8222L27.5825 96.4277L26.4897 95.406L29.0009 92.7078L31.8712 95.3649L30.8571 96.4651Z" fill="#73CAD6"/>
<path d="M32.4517 94.4255L28.904 91.4316L25.738 94.3993L24.7163 93.3065L28.8516 89.4295L33.4172 93.2803L32.4517 94.4255Z" fill="#73CAD6"/>
<path d="M32.2234 91.5698L28.8928 88.5984L25.738 91.5548L24.7163 90.4621L28.8666 86.57L33.2189 90.4508L32.2234 91.5698Z" fill="#73CAD6"/>
<path d="M31.8602 88.5839L28.8963 85.9979L26.1607 88.5652L25.1353 87.4724L28.8589 83.9808L32.8445 87.4537L31.8602 88.5839Z" fill="#73CAD6"/>
<path d="M31.3292 85.2533L28.9004 83.18L26.7111 85.2308L25.6895 84.1418L28.8555 81.1704L32.3022 84.1156L31.3292 85.2533Z" fill="#73CAD6"/>
<path d="M27.3696 81.7728L26.3442 80.68L29.035 78.1577L31.9353 80.6014L30.9698 81.7466L29.0874 80.1598L27.3696 81.7728Z" fill="#73CAD6"/>
<path d="M119.862 89.1644L119.84 104.927L121.337 104.929L121.359 89.1665L119.862 89.1644Z" fill="#73CAD6"/>
<path d="M122.462 103.568L120.632 102.146L119.094 103.534L118.091 102.423L120.561 100.193L123.383 102.389L122.462 103.568Z" fill="#73CAD6"/>
<path d="M124.057 101.854L120.46 99.2945L117.249 101.832L116.321 100.657L120.412 97.4271L124.925 100.634L124.057 101.854Z" fill="#73CAD6"/>
<path d="M123.828 99.4479L120.449 96.9106L117.249 99.4367L116.321 98.2616L120.423 95.0207L124.727 98.2503L123.828 99.4479Z" fill="#73CAD6"/>
<path d="M123.469 96.9327L120.453 94.721L117.668 96.9177L116.74 95.7426L120.419 92.8386L124.352 95.7276L123.469 96.9327Z" fill="#73CAD6"/>
<path d="M122.938 94.1303L120.457 92.349L118.223 94.1116L117.294 92.9365L120.416 90.4741L123.81 92.9178L122.938 94.1303Z" fill="#73CAD6"/>
<path d="M118.877 91.1997L117.953 90.0246L120.595 87.9364L123.443 89.9573L122.578 91.181L120.643 89.8076L118.877 91.1997Z" fill="#73CAD6"/>
<path d="M72.9576 81.437L72.9355 97.1997L74.4325 97.2018L74.4545 81.4391L72.9576 81.437Z" fill="#73CAD6"/>
<path d="M75.5561 95.8404L73.7261 94.4146L72.188 95.803L71.1851 94.6952L73.655 92.4611L76.473 94.6578L75.5561 95.8404Z" fill="#73CAD6"/>
<path d="M77.1503 94.1228L73.5502 91.5668L70.3392 94.1004L69.4111 92.9253L73.5053 89.6956L78.0185 92.9028L77.1503 94.1228Z" fill="#73CAD6"/>
<path d="M76.9183 91.7163L73.5389 89.179L70.3392 91.705L69.4111 90.5299L73.5165 87.2928L77.8164 90.5187L76.9183 91.7163Z" fill="#73CAD6"/>
<path d="M76.559 89.2053L73.5426 86.9899L70.7621 89.1866L69.834 88.0115L73.5127 85.1112L77.4459 87.9966L76.559 89.2053Z" fill="#73CAD6"/>
<path d="M76.0274 86.4019L73.55 84.6168L71.3121 86.3832L70.3877 85.2081L73.5051 82.7457L76.9031 85.1857L76.0274 86.4019Z" fill="#73CAD6"/>
<path d="M71.9706 83.4683L71.0425 82.2932L73.6883 80.205L76.5362 82.2296L75.668 83.4496L73.7332 82.0761L71.9706 83.4683Z" fill="#73CAD6"/>
<path d="M131.65 100.05L129.816 98.6321L128.278 100.017L127.279 98.9053L129.745 96.6823L132.567 98.8678L131.65 100.05Z" fill="#73CAD6"/>
<path d="M133.016 97.9434L129.633 95.4173L126.429 97.9322L125.505 96.7533L129.61 93.5312L133.91 96.7421L133.016 97.9434Z" fill="#73CAD6"/>
<path d="M132.694 94.2758L129.678 92.0753L126.89 94.2609L125.965 93.082L129.644 90.1967L133.577 93.0671L132.694 94.2758Z" fill="#73CAD6"/>
<path d="M132.121 90.9416L129.64 89.164L127.406 90.9191L126.481 89.744L129.599 87.2928L132.993 89.7216L132.121 90.9416Z" fill="#73CAD6"/>
<path d="M128.061 88.0227L127.137 86.8439L129.783 84.7669L132.627 86.7803L131.762 88.0003L129.827 86.6343L128.061 88.0227Z" fill="#73CAD6"/>
<path d="M157.09 80.2372L157.066 93.6946L158.563 93.6973L158.587 80.2398L157.09 80.2372Z" fill="#73CAD6"/>
<path d="M159.676 92.0605L157.846 90.6421L156.308 92.0231L155.309 90.9116L157.775 88.6924L160.593 90.8779L159.676 92.0605Z" fill="#73CAD6"/>
<path d="M161.042 89.9498L157.663 87.4237L154.46 89.9385L153.535 88.7634L157.641 85.5413L161.94 88.7522L161.042 89.9498Z" fill="#73CAD6"/>
<path d="M160.724 86.2861L157.704 84.0819L154.919 86.2674L153.995 85.0923L157.674 82.2032L161.603 85.0773L160.724 86.2861Z" fill="#73CAD6"/>
<path d="M160.152 82.948L157.671 81.1741L155.436 82.9292L154.508 81.7504L157.629 79.3029L161.024 81.7317L160.152 82.948Z" fill="#73CAD6"/>
<path d="M145.523 84.2056L145.5 96.3794L146.996 96.3823L147.02 84.2085L145.523 84.2056Z" fill="#73CAD6"/>
<path d="M148.191 95.2978L146.283 94.1489L144.677 95.2716L143.82 94.0442L146.223 92.3676L148.962 94.0142L148.191 95.2978Z" fill="#73CAD6"/>
<path d="M149.557 92.914L146.099 90.9081L142.828 92.9028L142.05 91.6267L146.08 89.1679L150.309 91.6192L149.557 92.914Z" fill="#73CAD6"/>
<path d="M149.235 89.6917L146.144 87.9402L143.288 89.6804L142.51 88.4043L146.117 86.2038L149.972 88.3893L149.235 89.6917Z" fill="#73CAD6"/>
<path d="M148.663 86.3529L146.107 84.9345L143.801 86.3416L143.023 85.0618L146.073 83.2018L149.392 85.0468L148.663 86.3529Z" fill="#73CAD6"/>
<path d="M81.2272 86.1151L81.2041 99.3405L82.701 99.3431L82.7241 86.1177L81.2272 86.1151Z" fill="#73CAD6"/>
<path d="M83.8154 97.7074L81.9816 96.289L80.4435 97.6737L79.4443 96.5585L81.9105 94.3393L84.7323 96.5248L83.8154 97.7074Z" fill="#73CAD6"/>
<path d="M85.1813 95.6009L81.7982 93.0748L78.5948 95.5896L77.6704 94.4108L81.7758 91.1887L86.0757 94.3996L85.1813 95.6009Z" fill="#73CAD6"/>
<path d="M84.8591 91.9333L81.8428 89.7291L79.0547 91.9184L78.1304 90.7395L81.8091 87.8542L85.7423 90.7246L84.8591 91.9333Z" fill="#73CAD6"/>
<path d="M84.2867 88.5953L81.8055 86.8215L79.5713 88.5766L78.647 87.4015L81.7643 84.9503L85.1586 87.3791L84.2867 88.5953Z" fill="#73CAD6"/>
<path d="M19.6139 87.3798L19.5923 95.6541L21.0892 95.658L21.1109 87.3837L19.6139 87.3798Z" fill="#73CAD6"/>
<path d="M22.2801 94.5565L20.3715 93.3964L18.7698 94.5265L17.9053 93.3028L20.3116 91.6075L23.0547 93.2766L22.2801 94.5565Z" fill="#73CAD6"/>
<path d="M23.6419 92.9028L20.1915 90.8782L16.9207 92.8916L16.1348 91.6192L20.169 89.1342L24.4016 91.6079L23.6419 92.9028Z" fill="#73CAD6"/>
<path d="M23.3244 90.0283L20.2333 88.2581L17.3816 90.0133L16.5957 88.7409L20.2071 86.5179L24.0654 88.7297L23.3244 90.0283Z" fill="#73CAD6"/>
<path d="M36.13 87.1409L36.1074 98.9181L37.6044 98.9209L37.627 87.1438L36.13 87.1409Z" fill="#73CAD6"/>
<path d="M38.7236 97.2885L36.8936 95.8702L35.3555 97.2548L34.3525 96.1434L36.8187 93.9204L39.6405 96.1059L38.7236 97.2885Z" fill="#73CAD6"/>
<path d="M40.1233 95.6792L36.7066 93.4076L33.4732 95.6717L32.6162 94.4442L36.6841 91.5963L40.9504 94.433L40.1233 95.6792Z" fill="#73CAD6"/>
<path d="M39.8016 92.416L36.7516 90.4325L33.9337 92.401L33.0767 91.1735L36.718 88.625L40.6175 91.1623L39.8016 92.416Z" fill="#73CAD6"/>
<path d="M39.2291 89.4447L36.7142 87.8429L34.4464 89.426L33.5894 88.2022L36.6768 86.0429L40.0337 88.1835L39.2291 89.4447Z" fill="#73CAD6"/>
<path d="M7.25081 91.1323C7.25081 91.1323 9.78063 93.4975 12.3367 95.6606C14.8927 97.8274 16.4046 96.1471 18.8446 97.3334C21.2846 98.5197 24.3084 101.042 27.6765 100.769C31.0483 100.496 33.6867 103.388 36.7853 104.713C39.884 106.042 40.6624 102.737 43.8359 103.16C47.0094 103.587 52.5967 101.371 55.5532 101.989C58.5134 102.606 48.7646 99.5002 44.2214 99.4104C39.6782 99.3206 30.1053 99.6237 25.2215 97.6403C20.3378 95.6568 7.24707 90.5972 7.24707 90.5972V91.1248L7.25081 91.1323Z" fill="#73CAD6"/>
<path d="M129.044 85.9979L129.022 101.682L130.519 101.684L130.541 86L129.044 85.9979Z" fill="#73CAD6"/>
<path d="M103.522 106.528C103.522 106.528 108.806 104.642 110.838 106.487C110.872 106.517 110.906 106.547 110.939 106.577C113.23 108.613 116.613 108.661 119.09 106.861C120.299 105.982 122.601 104.949 126.987 104.242C128.454 104.006 129.951 104.043 131.418 104.272C132.72 104.474 134.505 104.447 135.575 103.164C137.413 100.963 140.859 98.3363 144.246 99.0174C147.637 99.7022 151.671 95.4846 154.968 95.0505C158.269 94.6201 161.652 96.2256 163.22 93.9502C163.22 93.9502 165.462 91.121 163.89 91.2333C162.318 91.3456 152.921 94.8933 146.248 96.379C139.58 97.861 123.244 105.959 116.388 105.454C109.532 104.953 100.895 104.578 100.895 104.578L103.515 106.521L103.522 106.528Z" fill="#73CAD6"/>
<path d="M162.535 92.977C162.535 92.977 164.474 93.3588 164.668 95.6266C165.099 100.578 165.241 90.8776 165.241 90.8776L162.535 92.977Z" fill="#73CAD6"/>
<path d="M7.25073 91.1327C7.25073 91.1327 3.23894 90.8183 3.14164 103.168L2.74121 93.3032C2.74121 93.3032 4.27557 89.4898 6.28146 89.5908C8.28736 89.6919 7.24699 91.1327 7.24699 91.1327H7.25073Z" fill="#73CAD6"/>
<path d="M21.2322 110.001C17.707 109.855 11.8988 106.786 11.6519 106.655L11.8277 106.326C11.8876 106.356 17.808 109.485 21.2472 109.627L21.2322 110.001Z" fill="#73CAD6"/>
<path d="M12.9503 107.097C12.9503 107.097 12.3178 108.153 13.4892 109.081C14.6605 110.009 14.6568 109.392 15.7308 110.009C16.8049 110.627 16.9059 111.188 18.3392 111.188C19.7726 111.188 20.0046 109.665 20.0046 109.665C20.0046 109.665 14.5894 108.153 12.9503 107.097Z" fill="#73CAD6"/>
<path d="M37.096 118.519C33.5707 118.373 27.7626 115.304 27.5156 115.173L27.6915 114.844C27.7514 114.874 33.6718 118.002 37.111 118.144L37.096 118.519Z" fill="#73CAD6"/>
<path d="M28.814 115.615C28.814 115.615 28.1816 116.442 29.3529 117.175C30.5243 117.909 30.4457 118.343 31.516 118.833C32.5863 119.323 32.7697 118.833 34.203 118.833C35.6363 118.833 36.3661 118.335 36.3661 118.335C36.3661 118.335 30.4682 116.883 28.814 115.618V115.615Z" fill="#73CAD6"/>
<path d="M53.517 115.723C50.6354 115.723 49.1796 115.124 48.4873 114.66L48.6969 114.35C49.6886 115.012 52.3307 115.959 58.891 114.821L58.9546 115.192C56.7354 115.577 54.9503 115.723 53.517 115.723Z" fill="#73CAD6"/>
<path d="M49.8757 115.02C49.8757 115.02 49.5501 115.72 50.8749 116.094C52.2034 116.468 52.02 117.161 53.1839 117.329C53.7191 117.408 54.4937 115.847 54.9877 115.993C55.9271 116.274 56.9562 116.087 57.7047 115.454C57.8581 115.323 57.9329 115.237 57.9329 115.237C57.9329 115.237 51.818 115.772 49.8757 115.02Z" fill="#73CAD6"/>
<path d="M75.9042 124.222C72.6109 124.222 68.8723 123.459 68.6665 123.414L68.7414 123.047C68.8087 123.062 75.3653 124.402 78.7072 123.575L78.797 123.938C77.9662 124.144 76.9558 124.222 75.9042 124.222Z" fill="#73CAD6"/>
<path d="M70.0359 123.474C70.0359 123.474 69.6617 124.447 70.9902 124.821C72.3187 125.195 72.3225 126.105 73.4901 126.269C74.6539 126.438 74.7363 125.45 76.1097 125.049C77.4869 124.649 78.0483 123.964 78.0483 123.964C78.0483 123.964 71.9819 124.226 70.0359 123.474Z" fill="#73CAD6"/>
<path d="M116.291 114.709C114.682 114.709 113.473 114.626 113.357 114.615L113.384 114.241C113.451 114.245 120.127 114.705 123.334 113.44L123.473 113.788C121.561 114.54 118.541 114.705 116.295 114.705L116.291 114.709Z" fill="#73CAD6"/>
<path d="M114.719 114.496C114.719 114.496 114.476 115.51 115.842 115.705C117.208 115.899 118.095 116.558 119.27 116.569C120.449 116.58 119.637 115.836 120.947 115.256C122.256 114.675 122.724 113.923 122.724 113.923C122.724 113.923 116.744 114.986 114.719 114.5V114.496Z" fill="#73CAD6"/>
<path d="M122.399 123.657C120.79 123.657 119.581 123.575 119.465 123.563L119.491 123.189C119.558 123.193 126.238 123.653 129.442 122.388L129.58 122.736C127.668 123.488 124.648 123.653 122.403 123.653L122.399 123.657Z" fill="#73CAD6"/>
<path d="M120.827 123.44C120.827 123.44 120.154 123.949 121.516 124.144C122.878 124.338 123.118 124.394 124.293 124.406C125.468 124.417 126.392 125.105 127.702 124.525C129.012 123.945 128.832 122.864 128.832 122.864C128.832 122.864 122.852 123.927 120.827 123.44Z" fill="#73CAD6"/>
<path d="M138.484 111.756L138.458 111.382C138.525 111.378 145.201 110.903 148.199 109.208L148.382 109.533C145.31 111.273 138.761 111.737 138.48 111.756H138.484Z" fill="#73CAD6"/>
<path d="M139.82 111.446C139.82 111.446 139.801 113.036 141.178 113.04C142.555 113.04 142.073 111.723 143.24 111.573C144.408 111.42 144.876 112.09 146.092 111.33C147.308 110.57 147.668 109.762 147.668 109.762C147.668 109.762 141.893 111.644 139.82 111.446Z" fill="#73CAD6"/>
<path d="M153.318 101.933C153.318 101.933 153.221 102.969 154.598 102.973C155.975 102.973 155.904 104.115 157.071 103.961C158.239 103.808 158.374 102.573 159.59 101.817C160.806 101.061 161.166 100.249 161.166 100.249C161.166 100.249 155.391 102.131 153.318 101.933Z" fill="#73CAD6"/>
</g>
<defs>
<clipPath id="clip0_393_538">
<rect width="169" height="142" fill="white"/>
</clipPath>
</defs>
</svg>
