<?xml version="1.0" encoding="utf-8"?>
<!-- Generator: Adobe Illustrator 24.1.0, SVG Export Plug-In . SVG Version: 6.00 Build 0)  -->
<svg version="1.1" id="Calque_1" xmlns="http://www.w3.org/2000/svg" xmlns:xlink="http://www.w3.org/1999/xlink" x="0px" y="0px"
	 viewBox="0 0 473.4 253.1" style="enable-background:new 0 0 473.4 253.1;" xml:space="preserve">
<style type="text/css">
	.text{fill:#000000;}
	.st1{fill:#D9D9D9;}
	.st2{fill:#59A78D;}
</style>
<g class="text">
	<path d="M5.7,59.7v1H0c0-0.3,0-0.5,0.1-0.7c0.1-0.4,0.4-0.8,0.7-1.1s0.8-0.8,1.4-1.3c0.9-0.8,1.6-1.4,1.9-1.8s0.5-0.9,0.5-1.3
		c0-0.4-0.1-0.8-0.4-1.1S3.4,52.9,3,52.9c-0.5,0-0.9,0.2-1.2,0.5s-0.5,0.7-0.5,1.3l-1.1-0.1c0.1-0.8,0.4-1.4,0.8-1.8s1.1-0.6,2-0.6
		c0.8,0,1.5,0.2,2,0.7s0.7,1,0.7,1.7c0,0.3-0.1,0.7-0.2,1s-0.4,0.7-0.7,1S3.9,57.4,3.1,58c-0.6,0.5-1,0.9-1.2,1.1s-0.3,0.4-0.4,0.6
		H5.7z"/>
	<path d="M6.8,58.4l1.1-0.1c0.1,0.5,0.3,0.9,0.6,1.2S9.1,60,9.6,60c0.5,0,0.9-0.2,1.3-0.6s0.5-0.9,0.5-1.5c0-0.6-0.2-1.1-0.5-1.4
		s-0.8-0.5-1.3-0.5c-0.3,0-0.6,0.1-0.9,0.2S8.1,56.5,8,56.7l-1-0.1l0.8-4.4h4.3v1H8.7l-0.5,2.3C8.7,55.2,9.3,55,9.8,55
		c0.8,0,1.4,0.3,1.9,0.8s0.8,1.2,0.8,2c0,0.8-0.2,1.4-0.7,2c-0.6,0.7-1.3,1-2.3,1c-0.8,0-1.4-0.2-1.9-0.7S6.9,59.2,6.8,58.4z"/>
	<path d="M13.6,53.2v-1h5.6V53c-0.5,0.6-1.1,1.4-1.6,2.3s-1,2-1.2,3c-0.2,0.7-0.3,1.5-0.4,2.4h-1.1c0-0.7,0.1-1.5,0.4-2.4
		s0.6-1.9,1.1-2.8c0.5-0.9,1-1.6,1.5-2.2H13.6z"/>
	<path d="M20.2,56.4c0-1,0.1-1.8,0.3-2.5s0.5-1.1,0.9-1.4s0.9-0.5,1.6-0.5c0.5,0,0.9,0.1,1.2,0.3s0.6,0.5,0.9,0.8s0.4,0.8,0.5,1.3
		s0.2,1.2,0.2,2c0,1-0.1,1.8-0.3,2.4s-0.5,1.1-0.9,1.4s-0.9,0.5-1.6,0.5c-0.8,0-1.5-0.3-2-0.9C20.4,59.2,20.2,58.1,20.2,56.4z
		 M21.2,56.4c0,1.4,0.2,2.3,0.5,2.8S22.5,60,23,60s0.9-0.2,1.2-0.7s0.5-1.4,0.5-2.8c0-1.4-0.2-2.4-0.5-2.8s-0.7-0.7-1.2-0.7
		c-0.5,0-0.9,0.2-1.2,0.6C21.4,54.1,21.2,55,21.2,56.4z"/>
	<path d="M32.6,60.7v-7.6h-2.8v-1h6.8v1h-2.8v7.6H32.6z"/>
	<path d="M39.2,60.7l-2.3-8.6h1.2l1.3,5.6c0.1,0.6,0.3,1.2,0.4,1.8c0.2-0.9,0.3-1.4,0.4-1.6l1.6-5.8h1.4l1.2,4.3
		c0.3,1.1,0.5,2.1,0.7,3c0.1-0.5,0.3-1.2,0.4-1.9l1.3-5.5H48l-2.4,8.6h-1.1l-1.8-6.5c-0.2-0.5-0.2-0.9-0.3-1c-0.1,0.4-0.2,0.7-0.3,1
		l-1.8,6.5H39.2z"/>
</g>
<g class="text">
	<path d="M429.5,160h-1.1v-6.7c-0.3,0.2-0.6,0.5-1,0.7s-0.8,0.4-1.1,0.5v-1c0.6-0.3,1.1-0.6,1.5-1s0.8-0.8,0.9-1.1h0.7V160z"/>
	<path d="M433.8,155.3c-0.4-0.2-0.8-0.4-1-0.7s-0.3-0.7-0.3-1.1c0-0.6,0.2-1.2,0.7-1.6s1-0.6,1.8-0.6c0.8,0,1.4,0.2,1.8,0.7
		s0.7,1,0.7,1.6c0,0.4-0.1,0.7-0.3,1s-0.5,0.5-1,0.7c0.5,0.2,0.9,0.4,1.2,0.8s0.4,0.8,0.4,1.4c0,0.7-0.3,1.4-0.8,1.9
		s-1.2,0.8-2.1,0.8s-1.5-0.3-2.1-0.8s-0.8-1.1-0.8-1.9c0-0.6,0.1-1,0.4-1.4S433.3,155.4,433.8,155.3z M433.3,157.5
		c0,0.3,0.1,0.6,0.2,0.9s0.4,0.5,0.6,0.7s0.6,0.2,0.9,0.2c0.5,0,0.9-0.2,1.2-0.5s0.5-0.7,0.5-1.2c0-0.5-0.2-0.9-0.5-1.3
		s-0.8-0.5-1.3-0.5c-0.5,0-0.9,0.2-1.2,0.5S433.3,157,433.3,157.5z M433.6,153.5c0,0.4,0.1,0.7,0.4,1s0.6,0.4,1,0.4
		c0.4,0,0.7-0.1,1-0.4s0.4-0.6,0.4-0.9c0-0.4-0.1-0.7-0.4-1s-0.6-0.4-1-0.4c-0.4,0-0.7,0.1-1,0.4S433.6,153.1,433.6,153.5z"/>
	<path d="M444.4,158.9v1h-5.7c0-0.3,0-0.5,0.1-0.7c0.1-0.4,0.4-0.8,0.7-1.1s0.8-0.8,1.4-1.3c0.9-0.8,1.6-1.4,1.9-1.8
		s0.5-0.9,0.5-1.3c0-0.4-0.1-0.8-0.4-1.1s-0.7-0.4-1.2-0.4c-0.5,0-0.9,0.2-1.2,0.5s-0.5,0.7-0.5,1.3l-1.1-0.1
		c0.1-0.8,0.4-1.4,0.8-1.8s1.1-0.6,2-0.6c0.8,0,1.5,0.2,2,0.7s0.7,1,0.7,1.7c0,0.3-0.1,0.7-0.2,1s-0.4,0.7-0.7,1s-0.9,0.9-1.6,1.5
		c-0.6,0.5-1,0.9-1.2,1.1s-0.3,0.4-0.4,0.6H444.4z"/>
	<path d="M445.5,155.7c0-1,0.1-1.8,0.3-2.5s0.5-1.1,0.9-1.4s0.9-0.5,1.6-0.5c0.5,0,0.9,0.1,1.2,0.3s0.6,0.5,0.9,0.8s0.4,0.8,0.5,1.3
		s0.2,1.2,0.2,2c0,1-0.1,1.8-0.3,2.4s-0.5,1.1-0.9,1.4s-0.9,0.5-1.6,0.5c-0.8,0-1.5-0.3-2-0.9C445.8,158.5,445.5,157.3,445.5,155.7z
		 M446.6,155.7c0,1.4,0.2,2.3,0.5,2.8s0.7,0.7,1.2,0.7s0.9-0.2,1.2-0.7s0.5-1.4,0.5-2.8c0-1.4-0.2-2.4-0.5-2.8s-0.7-0.7-1.2-0.7
		c-0.5,0-0.9,0.2-1.2,0.6C446.8,153.3,446.6,154.3,446.6,155.7z"/>
	<path d="M457.9,160v-7.6h-2.8v-1h6.8v1h-2.8v7.6H457.9z"/>
	<path d="M464.6,160l-2.3-8.6h1.2l1.3,5.6c0.1,0.6,0.3,1.2,0.4,1.8c0.2-0.9,0.3-1.4,0.4-1.6l1.6-5.8h1.4l1.2,4.3
		c0.3,1.1,0.5,2.1,0.7,3c0.1-0.5,0.3-1.2,0.4-1.9l1.3-5.5h1.1L471,160h-1.1l-1.8-6.5c-0.2-0.5-0.2-0.9-0.3-1c-0.1,0.4-0.2,0.7-0.3,1
		l-1.8,6.5H464.6z"/>
</g>
<g class="text">
	<path d="M51.8,251.7v1.3h-7.1c0-0.3,0-0.6,0.2-0.9c0.2-0.5,0.5-1,0.9-1.4s1-1,1.7-1.6c1.2-1,2-1.7,2.4-2.3c0.4-0.6,0.6-1.1,0.6-1.6
		c0-0.5-0.2-1-0.6-1.3c-0.4-0.4-0.9-0.5-1.5-0.5c-0.6,0-1.1,0.2-1.5,0.6s-0.6,0.9-0.6,1.6l-1.4-0.1c0.1-1,0.4-1.8,1-2.3
		c0.6-0.5,1.4-0.8,2.4-0.8c1,0,1.8,0.3,2.4,0.9c0.6,0.6,0.9,1.3,0.9,2.1c0,0.4-0.1,0.9-0.3,1.3s-0.5,0.9-0.9,1.3
		c-0.4,0.5-1.1,1.1-2,1.9c-0.8,0.7-1.3,1.1-1.5,1.4c-0.2,0.2-0.4,0.5-0.6,0.7H51.8z"/>
	<path d="M53.2,247.6c0-1.3,0.1-2.3,0.4-3.1c0.3-0.8,0.6-1.4,1.2-1.8s1.2-0.6,1.9-0.6c0.6,0,1.1,0.1,1.5,0.3c0.4,0.2,0.8,0.6,1.1,1
		c0.3,0.4,0.5,1,0.7,1.6c0.2,0.6,0.2,1.5,0.2,2.5c0,1.3-0.1,2.3-0.4,3c-0.3,0.8-0.6,1.4-1.2,1.8c-0.5,0.4-1.2,0.6-2,0.6
		c-1,0-1.8-0.4-2.4-1.1C53.6,251.1,53.2,249.7,53.2,247.6z M54.6,247.6c0,1.8,0.2,2.9,0.6,3.5c0.4,0.6,0.9,0.9,1.5,0.9
		s1.1-0.3,1.5-0.9s0.6-1.8,0.6-3.5c0-1.8-0.2-2.9-0.6-3.5s-0.9-0.9-1.5-0.9c-0.6,0-1.1,0.3-1.5,0.8
		C54.8,244.7,54.6,245.9,54.6,247.6z"/>
	<path d="M68.5,251.7v1.3h-7.1c0-0.3,0-0.6,0.2-0.9c0.2-0.5,0.5-1,0.9-1.4s1-1,1.7-1.6c1.2-1,2-1.7,2.4-2.3c0.4-0.6,0.6-1.1,0.6-1.6
		c0-0.5-0.2-1-0.6-1.3c-0.4-0.4-0.9-0.5-1.5-0.5c-0.6,0-1.1,0.2-1.5,0.6s-0.6,0.9-0.6,1.6l-1.4-0.1c0.1-1,0.4-1.8,1-2.3
		c0.6-0.5,1.4-0.8,2.4-0.8c1,0,1.8,0.3,2.4,0.9c0.6,0.6,0.9,1.3,0.9,2.1c0,0.4-0.1,0.9-0.3,1.3s-0.5,0.9-0.9,1.3
		c-0.4,0.5-1.1,1.1-2,1.9c-0.8,0.7-1.3,1.1-1.5,1.4c-0.2,0.2-0.4,0.5-0.6,0.7H68.5z"/>
	<path d="M69.9,247.6c0-1.3,0.1-2.3,0.4-3.1c0.3-0.8,0.6-1.4,1.2-1.8s1.2-0.6,1.9-0.6c0.6,0,1.1,0.1,1.5,0.3c0.4,0.2,0.8,0.6,1.1,1
		c0.3,0.4,0.5,1,0.7,1.6c0.2,0.6,0.2,1.5,0.2,2.5c0,1.3-0.1,2.3-0.4,3c-0.3,0.8-0.6,1.4-1.2,1.8c-0.5,0.4-1.2,0.6-2,0.6
		c-1,0-1.8-0.4-2.4-1.1C70.2,251.1,69.9,249.7,69.9,247.6z M71.2,247.6c0,1.8,0.2,2.9,0.6,3.5c0.4,0.6,0.9,0.9,1.5,0.9
		s1.1-0.3,1.5-0.9s0.6-1.8,0.6-3.5c0-1.8-0.2-2.9-0.6-3.5s-0.9-0.9-1.5-0.9c-0.6,0-1.1,0.3-1.5,0.8
		C71.5,244.7,71.2,245.9,71.2,247.6z"/>
</g>
<g class="text">
	<path d="M404.3,251.7v1.3h-7.1c0-0.3,0-0.6,0.2-0.9c0.2-0.5,0.5-1,0.9-1.4s1-1,1.7-1.6c1.2-1,2-1.7,2.4-2.3
		c0.4-0.6,0.6-1.1,0.6-1.6c0-0.5-0.2-1-0.6-1.3c-0.4-0.4-0.9-0.5-1.5-0.5c-0.6,0-1.1,0.2-1.5,0.6s-0.6,0.9-0.6,1.6l-1.4-0.1
		c0.1-1,0.4-1.8,1-2.3c0.6-0.5,1.4-0.8,2.4-0.8c1,0,1.8,0.3,2.4,0.9c0.6,0.6,0.9,1.3,0.9,2.1c0,0.4-0.1,0.9-0.3,1.3
		s-0.5,0.9-0.9,1.3c-0.4,0.5-1.1,1.1-2,1.9c-0.8,0.7-1.3,1.1-1.5,1.4c-0.2,0.2-0.4,0.5-0.6,0.7H404.3z"/>
	<path d="M405.7,247.6c0-1.3,0.1-2.3,0.4-3.1c0.3-0.8,0.6-1.4,1.2-1.8c0.5-0.4,1.2-0.6,1.9-0.6c0.6,0,1.1,0.1,1.5,0.3
		c0.4,0.2,0.8,0.6,1.1,1c0.3,0.4,0.5,1,0.7,1.6c0.2,0.6,0.2,1.5,0.2,2.5c0,1.3-0.1,2.3-0.4,3c-0.3,0.8-0.6,1.4-1.2,1.8
		c-0.5,0.4-1.2,0.6-2,0.6c-1,0-1.8-0.4-2.4-1.1C406.1,251.1,405.7,249.7,405.7,247.6z M407.1,247.6c0,1.8,0.2,2.9,0.6,3.5
		c0.4,0.6,0.9,0.9,1.5,0.9s1.1-0.3,1.5-0.9c0.4-0.6,0.6-1.8,0.6-3.5c0-1.8-0.2-2.9-0.6-3.5c-0.4-0.6-0.9-0.9-1.5-0.9
		c-0.6,0-1.1,0.3-1.5,0.8C407.3,244.7,407.1,245.9,407.1,247.6z"/>
	<path d="M414,250.1l1.4-0.1c0.1,0.7,0.3,1.2,0.7,1.5c0.4,0.3,0.8,0.5,1.4,0.5c0.6,0,1.2-0.2,1.6-0.7c0.4-0.5,0.7-1.1,0.7-1.9
		c0-0.8-0.2-1.3-0.6-1.8s-1-0.7-1.7-0.7c-0.4,0-0.8,0.1-1.2,0.3c-0.3,0.2-0.6,0.4-0.8,0.8l-1.2-0.2l1-5.5h5.3v1.3h-4.3l-0.6,2.9
		c0.6-0.4,1.3-0.7,2-0.7c0.9,0,1.7,0.3,2.4,1s1,1.5,1,2.5c0,1-0.3,1.8-0.8,2.5c-0.7,0.9-1.6,1.3-2.8,1.3c-1,0-1.8-0.3-2.4-0.8
		S414.1,251,414,250.1z"/>
	<path d="M422.4,247.6c0-1.3,0.1-2.3,0.4-3.1c0.3-0.8,0.6-1.4,1.2-1.8c0.5-0.4,1.2-0.6,1.9-0.6c0.6,0,1.1,0.1,1.5,0.3
		c0.4,0.2,0.8,0.6,1.1,1c0.3,0.4,0.5,1,0.7,1.6c0.2,0.6,0.2,1.5,0.2,2.5c0,1.3-0.1,2.3-0.4,3c-0.3,0.8-0.6,1.4-1.2,1.8
		c-0.5,0.4-1.2,0.6-2,0.6c-1,0-1.8-0.4-2.4-1.1C422.7,251.1,422.4,249.7,422.4,247.6z M423.7,247.6c0,1.8,0.2,2.9,0.6,3.5
		c0.4,0.6,0.9,0.9,1.5,0.9s1.1-0.3,1.5-0.9c0.4-0.6,0.6-1.8,0.6-3.5c0-1.8-0.2-2.9-0.6-3.5c-0.4-0.6-0.9-0.9-1.5-0.9
		c-0.6,0-1.1,0.3-1.5,0.8C424,244.7,423.7,245.9,423.7,247.6z"/>
</g>
<g>
	<g>
		<path class="st1" d="M60.8,227.8L60.8,227.8c-0.6,0-1-0.4-1-1V1c0-0.6,0.4-1,1-1l0,0c0.6,0,1,0.4,1,1v225.8
			C61.8,227.3,61.3,227.8,60.8,227.8z"/>
	</g>
	<g>
		<path class="st1" d="M413.3,227.8L413.3,227.8c-0.6,0-1-0.4-1-1V1c0-0.6,0.4-1,1-1l0,0c0.6,0,1,0.4,1,1v225.8
			C414.3,227.3,413.8,227.8,413.3,227.8z"/>
	</g>
</g>
<path class="st2" d="M413.3,153c-1.6,0-2.8,1.3-2.8,2.8c0,1.6,1.3,2.8,2.8,2.8c1.6,0,2.8-1.3,2.8-2.8
	C416.1,154.2,414.8,153,413.3,153z"/>
<circle class="st2" cx="60.8" cy="56.4" r="2.8"/>
<path class="st2" d="M410,155.8c0-0.9,0.4-1.7,1-2.3L64,55.8c0,0.2,0.1,0.4,0.1,0.6c0,0.9-0.3,1.7-0.9,2.2L410,156.3
	C410,156.1,410,156,410,155.8z"/>
</svg>
