<?xml version="1.0" encoding="utf-8"?>
<svg version="1.1" id="Calque_2_1_" xmlns="http://www.w3.org/2000/svg" xmlns:xlink="http://www.w3.org/1999/xlink" x="0px"
	 y="0px" viewBox="0 0 438.9 303.1" style="enable-background:new 0 0 438.9 303.1;" xml:space="preserve">
<style type="text/css">
	.st0{fill:#D30000;}
</style>
<g id="Calque_1-2">
	<g>
		<path class="st0" d="M31.1,163.3l-2.9-2.8l155-158.6c1.3-1.3,3.1-2,5-1.9c1.9,0.1,3.6,1.1,4.7,2.6l50.6,70.8l-3.3,2.3L189.6,5
			c-0.4-0.6-1-0.9-1.7-1c-0.7,0-1.4,0.2-1.8,0.7L31.1,163.3z"/>
		<path class="st0" d="M26.7,169.4L179.9,8.2L22,154.8c-7.1,4.2-13.1,6.4-10.5,8.5L26.7,169.4z"/>
		<path class="st0" d="M290,289.4h-4v-30c0-8.7-1-17-3.1-24.8c-4.6-17.3-12-26.1-28.4-33.7c-20.4-9.5-50.5-15-80-19.5
			c-19.6-3-30.1-8-32.1-15.1c-1.7-6.3,4.1-11.3,4.4-11.5l2.6,3.1c0,0-4.2,3.6-3.1,7.4c0.9,3,5.7,8.6,28.8,12.2
			c29.8,4.6,60.3,10.2,81.1,19.9c17.4,8.1,25.7,17.9,30.6,36.3c2.2,8.1,3.3,16.8,3.3,25.8V289.4L290,289.4z"/>
		<path class="st0" d="M427.6,168.5c-1.8-0.7-3.5-1.1-5.1-1.3c-6.9-0.7-13.2-3.6-17.8-8.3L286.7,39.1c-1.3-1.3-3.3-1.3-4.6-0.1
			L148.5,158.6l-2.7-3L279.4,36c2.9-2.6,7.4-2.5,10.1,0.3l118.1,119.8c3.9,4,9.4,6.5,15.4,7.1c2,0.2,4.1,0.7,6.2,1.6L427.6,168.5
			L427.6,168.5z"/>
		<path class="st0" d="M235.5,303.1c-10.1,0-21-1.4-31.7-2.8c-12.1-1.6-23.6-3-32.6-2.2c-13.1,1.3-32.3-7.4-50.8-15.7
			c-16.3-7.4-33.3-15-42.3-13.5c-8.3,1.3-22-5.7-40.9-21c-14.4-11.6-27.4-24.5-31.1-28.1c-0.4-0.4-0.8-0.7-1.3-1.1l-0.1-0.1
			c-2.5-1.9-4.7-6.4-4.7-9.4v-34.6c0-3.9,2-8.4,5-10.9c1.8-1.5,3.8-2.1,5.7-1.8c6.7,1.1,13.4,4.2,21.1,7.8
			c10.4,4.8,23.3,10.8,41.8,14.5c7.7,1.6,17.1,1.7,27.1,1.8c9.7,0.1,19.7,0.2,29.7,1.6l-0.6,4c-9.7-1.4-19.6-1.5-29.2-1.6
			c-10.2-0.1-19.8-0.2-27.9-1.9c-18.9-3.8-32.1-9.9-42.6-14.8c-7.5-3.4-13.9-6.4-20.1-7.5c-0.9-0.2-1.9,0.4-2.5,0.9
			c-2,1.7-3.5,5.1-3.5,7.8v34.7c0,1.8,1.7,5.1,3.1,6.2l0.1,0.1c0.6,0.4,1.2,0.9,1.7,1.4c18.8,18.9,54.3,50.2,68.5,48
			c10.2-1.6,26.9,5.9,44.6,13.8c18.1,8.1,36.7,16.5,48.8,15.4c9.5-0.9,21.1,0.6,33.5,2.2c20.3,2.6,41.2,5.3,55.6-1.9
			c11.2-5.6,25.7-6.9,41-8.4c17.9-1.7,36.5-3.4,50.7-12.2c16.6-10.2,39.4-24.3,55.7-34.3c9.3-5.7,17-13.7,22.4-23.1
			c1.6-2.9,2.8-4.5,3.7-5.7c1.2-1.6,1.5-2,1.5-4.1V170c0-0.9-0.4-1.6-0.8-1.8c-0.3-0.2-0.5-0.1-0.6-0.1c-11.7,5.2-23,7.8-36,10.8
			c-17.2,4-36.7,8.5-63.4,20.3c-17.1,7.6-35.7,6.4-52.1,5.4c-7.5-0.5-14.5-0.9-21-0.6l-0.2-4c6.8-0.3,13.9,0.1,21.5,0.6
			c16.7,1,34,2.1,50.2-5.1c27-12,46.7-16.5,64.1-20.6c12.9-3,24-5.6,35.3-10.6c1.5-0.6,3.1-0.5,4.5,0.4c1.6,1.1,2.6,3,2.6,5.1v36.6
			c0,3.3-0.8,4.5-2.3,6.6c-0.8,1.1-1.9,2.6-3.4,5.2c-5.7,10.1-13.9,18.6-23.8,24.6c-16.3,10-39.1,24-55.7,34.3
			c-15.1,9.3-34.1,11.1-52.5,12.8c-14.9,1.4-29,2.7-39.6,8C254.1,301.8,245.1,303.1,235.5,303.1L235.5,303.1z"/>
		<path class="st0" d="M257.2,298.6l-4-0.4c0-0.2,1.8-22.3-5.2-45.1c-9.3-30.2-28.9-47.3-58.2-50.8c-65.2-7.8-78.5-16.8-83-24.6
			c-2.3-4.1-2.3-8.6,0-14c3.2-7.4,14.1-13.9,32.3-19.3c13.3-3.9,25.9-5.8,26-5.9l0.6,4c-13.5,2-49.8,10.1-55.3,22.7
			c-1.8,4.2-1.9,7.5-0.2,10.4c5.5,9.6,30.2,16.6,80,22.6c30.7,3.7,52,22.3,61.6,53.7C259.1,275.7,257.3,297.7,257.2,298.6
			L257.2,298.6z"/>
		<path class="st0" d="M7.6,166.6l-2.5-3.1c0.3-0.2,7.3-5.7,29.8-14.4l1.4,3.7C14.4,161.3,7.7,166.6,7.6,166.6L7.6,166.6z"/>
		<path class="st0" d="M434.4,168.4c-9.7-4.9-21.4-4.1-21.5-4.1l-0.3-4c0.5,0,12.9-0.8,23.6,4.6L434.4,168.4L434.4,168.4z"/>
		<path class="st0" d="M227.2,54.1c0,0-47.3,70.9-66,90.4l80.6-69.9L227.2,54.1L227.2,54.1z"/>
		<path class="st0" d="M119.6,185.6l-4.8,4.7c0,0,24.4,3.4,50,9.7c8.7,2.1,24.9,4.4,34.3,7.4c13.1,4.1,20.9,13.1,29.8,23.5
			c10.9,12.7,19.9,32.2,17.5,67.5h8.8c0,0,5.6-81.1-51.2-95.1l-54.1-9.4L119.6,185.6L119.6,185.6z"/>
		<path class="st0" d="M2,207.2c0,0,22,30.4,42.5,33.2c6.4,0.9,12,4.6,15.6,9.9c3.6,5.4,10.4,10.6,23.3,10.8
			c18.3,0.3,23.6,3.8,29.5,3.5c5.3-0.3,10.2,2.8,12.5,7.5c2.4,4.9,7,10.2,15.8,12.8c19.1,5.6,29.8-3,32.9-2.9
			c11,0.7,18.1,12.2,27.5,11.5s39,6.2,45.1-1l0,0c0,0,2.5,8.8-1.5,9.1c-3.9,0.3-69.2-7.7-78.2-5.5c-9,2.1-74.7-28.1-80.2-28.8
			s-20.5,1.2-29.3-6.1S2,212.1,2,212.1V207.2L2,207.2z"/>
		<path class="st0" d="M117,172.4c-1.5-2.3-1.9-4.6-1.1-6.9c2.5-6.8,15-10.7,15.5-10.9l0.6,1.9c-0.1,0-12.1,3.7-14.2,9.6
			c-0.6,1.7-0.3,3.4,0.9,5.1L117,172.4L117,172.4z"/>
		<path class="st0" d="M162.8,186.6c-21.3-2.1-26.4-6-26.6-6.2l1.3-1.6c0,0,5.1,3.7,25.6,5.8L162.8,186.6L162.8,186.6z"/>
		<path class="st0" d="M134.3,178.4c-7.9-2.6-11.8-5.5-12-8.9c-0.1-3.4,3.8-5.7,4.8-6.2l0.8,1.9c-0.6,0.2-3.7,2.1-3.6,4.2
			c0.1,1.4,1.5,4.1,10.6,7.1L134.3,178.4L134.3,178.4z"/>
		<path class="st0" d="M149.5,189.6c-11.8-0.1-26.7-7.6-27.3-7.9l0.9-1.8c0.2,0.1,15.1,7.6,26.4,7.7L149.5,189.6L149.5,189.6z"/>
		<path class="st0" d="M193.7,189.6c-8.4-2.9-21.3-3-21.4-3v-2c0.6,0,13.4,0.1,22.1,3.1L193.7,189.6z"/>
		<path class="st0" d="M138.8,154.6l-1.3-1.5c1.6-1.4,7.5-2.1,8.7-2.2l0.2,2C143.7,153.2,139.6,153.9,138.8,154.6z"/>
		<path class="st0" d="M137.9,173.1c-3.6-0.9-5.6-2.3-5.9-4.3c-0.6-3.3,3.8-6.2,4.3-6.6l1.1,1.7c-1,0.6-3.7,2.9-3.4,4.6
			c0.2,1.1,1.8,2,4.4,2.7L137.9,173.1L137.9,173.1z"/>
		<path class="st0" d="M191.3,195c-11.4-3.3-17.8-1.9-17.8-1.9l-0.5-1.9c0.3-0.1,6.9-1.6,18.8,1.9L191.3,195L191.3,195z"/>
		<path class="st0" d="M221.4,199c-7.9-5.1-19.7-5.1-19.8-5.1v-2l0,0c0.5,0,12.5,0.1,20.9,5.4L221.4,199z"/>
		<path class="st0" d="M260.8,216.3c-4.4-11.7-23.9-17.1-24.1-17.1l0.5-1.9c0.8,0.2,20.7,5.8,25.5,18.4L260.8,216.3L260.8,216.3z"/>
		<path class="st0" d="M243.7,220c-6-14.3-16.8-14.7-16.9-14.7l0-2c0.5,0,12.2,0.4,18.7,15.9L243.7,220L243.7,220z"/>
		<path class="st0" d="M262,238.1h-2c0-15-9.6-22.9-9.7-23l1.2-1.6C251.9,213.9,262,222.1,262,238.1L262,238.1z"/>
		<path class="st0" d="M275.9,244.1c-2.7-15-5.1-17.2-5.2-17.3l1.1-1.7c0.5,0.3,3.2,2.7,6,18.6L275.9,244.1L275.9,244.1z"/>
		<rect x="280" y="255.4" class="st0" width="2" height="21.2"/>
		
			<rect x="269.3" y="258.3" transform="matrix(0.9966 -8.263427e-02 8.263427e-02 0.9966 -21.3675 23.2626)" class="st0" width="2" height="23"/>
		<path class="st0" d="M262,269.8h-2c0-14.8-5.3-24.2-5.4-24.3l1.7-1C256.6,244.8,262,254.3,262,269.8L262,269.8z"/>
		<rect x="267.8" y="241" transform="matrix(0.9923 -0.1241 0.1241 0.9923 -28.4181 35.2634)" class="st0" width="2" height="9.4"/>
		<rect x="263.2" y="280.6" class="st0" width="2" height="12.5"/>
		<path class="st0" d="M289.2,278.8c0,0,1.5,2.5,16.3-0.5c2.3-0.5,20.3,0.8,22.8,0.3c13.1-2.8,20.3-6.3,23.1-14.8
			c3.3-10,14.7-0.5,25.4-8.4c10.6-7.9,22.9-7.8,27.7-19.3c1.3-3.1,6.9-9.4,8.8-10.2c13.2-5.1,17.3-13.4,20.4-22.7
			c0.7-2,1.2-3.8,1.6-5.1c1.6-6.4,1.6,12,1.6,12S424,227.7,416,235.8s-65.4,42.7-71.4,44.8s-52,10.2-56.7,8.8L289.2,278.8
			L289.2,278.8z"/>
		<path class="st0" d="M105.3,173.9c0,0-0.4,6.1,10.6,13.2c4.2,2.7,1.6-1.5,1.6-1.5L105.3,173.9L105.3,173.9z"/>
		<rect x="360.3" y="128.9" class="st0" width="4" height="56.1"/>
		<polygon class="st0" points="367.1,179.4 362.4,174.6 358.5,179.3 355.4,176.8 362.2,168.6 370,176.7 		"/>
		<polygon class="st0" points="371.3,173.3 361.9,164.4 353.5,173.3 350.7,170.5 361.8,158.8 374.1,170.4 		"/>
		<polygon class="st0" points="370.7,164.8 361.9,155.9 353.5,164.7 350.7,162 361.8,150.2 373.5,161.9 		"/>
		<polygon class="st0" points="369.8,155.8 361.9,148.1 354.7,155.8 351.8,153 361.8,142.5 372.5,152.9 		"/>
		<polygon class="st0" points="368.3,145.8 361.9,139.7 356.2,145.8 353.3,143 361.8,134 371.1,142.9 		"/>
		<polygon class="st0" points="357.9,135.4 355,132.6 362.3,125 370.1,132.4 367.4,135.3 362.4,130.6 		"/>
		
			<rect x="47.3" y="158" transform="matrix(1.221725e-03 -1 1 1.221725e-03 -87.7905 232.0832)" class="st0" width="50" height="4"/>
		<polygon class="st0" points="77.1,180.3 72.4,175.9 68.4,180.2 65.4,177.4 72.2,170.2 79.8,177.3 		"/>
		<polygon class="st0" points="81.4,174.8 71.9,166.8 63.4,174.8 60.7,171.8 71.8,161.5 84,171.8 		"/>
		<polygon class="st0" points="80.8,167.2 71.9,159.3 63.4,167.1 60.7,164.2 71.8,153.8 83.4,164.2 		"/>
		<polygon class="st0" points="79.8,159.2 71.9,152.3 64.6,159.2 61.8,156.2 71.8,146.9 82.4,156.2 		"/>
		<polygon class="st0" points="78.4,150.3 71.9,144.8 66,150.3 63.3,147.3 71.8,139.4 81,147.3 		"/>
		<polygon class="st0" points="67.8,141 65.1,138.1 72.3,131.4 80,137.9 77.4,140.9 72.4,136.7 		"/>
		
			<rect x="295.9" y="179.8" transform="matrix(1.396295e-03 -1 1 1.396295e-03 134.6559 498.4924)" class="st0" width="42.1" height="4"/>
		<polygon class="st0" points="321.9,199.3 317,195.4 312.9,199.2 310.2,196.2 316.8,190.2 324.4,196.1 		"/>
		<polygon class="st0" points="326.2,194.7 316.5,187.8 308,194.6 305.5,191.5 316.4,182.8 328.5,191.4 		"/>
		<polygon class="st0" points="325.5,188.2 316.5,181.5 308,188.2 305.5,185.1 316.5,176.4 328,185 		"/>
		<polygon class="st0" points="324.6,181.5 316.5,175.6 309.1,181.5 306.6,178.3 316.4,170.6 327,178.3 		"/>
		<polygon class="st0" points="323.2,174 316.5,169.3 310.6,174 308.1,170.8 316.4,164.3 325.5,170.8 		"/>
		<polygon class="st0" points="312.3,166.2 309.9,163.1 316.9,157.5 324.5,162.9 322.2,166.1 317,162.5 		"/>
		
			<rect x="170.5" y="159.2" transform="matrix(1.396295e-03 -1 1 1.396295e-03 30.1448 352.5374)" class="st0" width="42.1" height="4"/>
		<polygon class="st0" points="196.6,178.6 191.7,174.8 187.6,178.5 184.9,175.5 191.5,169.6 199,175.4 		"/>
		<polygon class="st0" points="200.8,174 191.2,167.2 182.6,173.9 180.1,170.8 191.1,162.2 203.1,170.8 		"/>
		<polygon class="st0" points="200.2,167.6 191.2,160.8 182.6,167.6 180.1,164.4 191.1,155.8 202.6,164.4 		"/>
		<polygon class="st0" points="199.2,160.9 191.2,154.9 183.8,160.8 181.3,157.7 191.1,149.9 201.6,157.6 		"/>
		<polygon class="st0" points="197.8,153.4 191.2,148.6 185.2,153.3 182.8,150.2 191.1,143.6 200.2,150.1 		"/>
		<polygon class="st0" points="187,145.5 184.5,142.4 191.6,136.8 199.2,142.2 196.9,145.5 191.7,141.8 		"/>
		<polygon class="st0" points="346.5,189.9 341.5,186.1 337.4,189.8 334.8,186.8 341.4,180.9 348.9,186.7 		"/>
		<polygon class="st0" points="350.1,184.2 341.1,177.5 332.5,184.2 330,181 341,172.4 352.5,181 		"/>
		<polygon class="st0" points="349.2,174.4 341.2,168.5 333.7,174.4 331.3,171.2 341.1,163.5 351.6,171.2 		"/>
		<polygon class="st0" points="347.7,165.5 341.1,160.8 335.1,165.4 332.6,162.3 341,155.8 350,162.3 		"/>
		<polygon class="st0" points="336.9,157.7 334.4,154.6 341.5,149 349.1,154.4 346.8,157.6 341.6,154 		"/>
		
			<rect x="398.4" y="152.9" transform="matrix(1.745302e-03 -1 1 1.745302e-03 260.779 571.0165)" class="st0" width="36" height="4"/>
		<polygon class="st0" points="421.3,168.5 416.5,164.7 412.3,168.4 409.7,165.4 416.3,159.5 423.8,165.3 		"/>
		<polygon class="st0" points="425,162.9 416,156.1 407.4,162.8 404.9,159.7 415.9,151.1 427.4,159.7 		"/>
		<polygon class="st0" points="424.1,153.1 416.1,147.2 408.6,153 406.2,149.9 416,142.2 426.5,149.8 		"/>
		<polygon class="st0" points="422.6,144.1 416,139.4 410,144.1 407.5,140.9 415.9,134.4 424.9,140.9 		"/>
		
			<rect x="369.2" y="161.8" transform="matrix(1.919872e-03 -1 1 1.919872e-03 220.9699 548.9548)" class="st0" width="32.5" height="4"/>
		<polygon class="st0" points="390.6,177.1 385.5,174.1 381.3,177.1 379,173.8 385.4,169.3 392.7,173.7 		"/>
		<polygon class="st0" points="394.3,170.8 385.1,165.4 376.3,170.8 374.2,167.3 385,160.8 396.3,167.3 		"/>
		<polygon class="st0" points="393.4,162.2 385.2,157.5 377.5,162.1 375.5,158.7 385.1,152.9 395.4,158.7 		"/>
		<polygon class="st0" points="391.9,153.3 385.1,149.5 378.9,153.2 376.8,149.8 385,144.8 393.9,149.8 		"/>
		
			<rect x="196" y="168.3" transform="matrix(1.745302e-03 -1 1 1.745302e-03 43.0224 383.6727)" class="st0" width="35.3" height="4"/>
		<polygon class="st0" points="218.6,183.6 213.7,179.8 209.6,183.5 206.9,180.5 213.5,174.6 221.1,180.4 		"/>
		<polygon class="st0" points="222.3,178 213.2,171.2 204.7,177.9 202.2,174.8 213.2,166.2 224.7,174.8 		"/>
		<polygon class="st0" points="221.4,168.2 213.4,162.3 205.9,168.1 203.4,165 213.3,157.3 223.8,164.9 		"/>
		<polygon class="st0" points="219.9,159.2 213.3,154.5 207.3,159.2 204.8,156.1 213.1,149.5 222.2,156 		"/>
		
			<rect x="38" y="165.1" transform="matrix(2.618018e-03 -1 1 2.618018e-03 -118.1325 215.6629)" class="st0" width="22.1" height="4"/>
		<polygon class="st0" points="54.2,175.2 49.1,172.1 44.8,175.1 42.5,171.8 48.9,167.3 56.3,171.8 		"/>
		<polygon class="st0" points="57.8,170.8 48.6,165.3 39.9,170.7 37.8,167.3 48.6,160.7 59.9,167.3 		"/>
		<polygon class="st0" points="57,163.1 48.7,158.3 41.1,163 39,159.6 48.7,153.7 59,159.6 		"/>
		
			<rect x="77.4" y="169.1" transform="matrix(1.919872e-03 -1 1 1.919872e-03 -78.0937 263.9436)" class="st0" width="31.5" height="4"/>
		<polygon class="st0" points="98.1,182.5 93.3,178.7 89.1,182.4 86.5,179.4 93.1,173.5 100.6,179.3 		"/>
		<polygon class="st0" points="101.9,178.2 92.8,172.1 84.1,178.1 81.8,174.9 92.7,167.3 104.1,174.8 		"/>
		<polygon class="st0" points="101,169.4 92.9,164.1 85.3,169.4 83.1,166.1 92.8,159.3 103.2,166.1 		"/>
		<polygon class="st0" points="99.5,161.5 92.8,157.2 86.7,161.5 84.4,158.2 92.7,152.4 101.6,158.1 		"/>
		<path class="st0" d="M14,166c0,0,6.8,6.3,13.6,12.1c6.8,5.8,10.9,1.3,17.4,4.5s14.6,9.9,23.6,9.2c9-0.7,16.1,7,24.3,10.5
			c8.3,3.6,10.4-5.3,18.8-4.1c8.5,1.1,23.4-4.8,31.3-3.1c7.9,1.6-18.1-6.6-30.3-6.9s-37.7,0.6-50.8-4.7s-48-18.8-48-18.8L14,166
			L14,166z"/>
		
			<rect x="320.5" y="171.3" transform="matrix(1.396295e-03 -1 1 1.396295e-03 167.7228 514.4716)" class="st0" width="41.9" height="4"/>
		<path class="st0" d="M271.3,207.2c0,0,14.1-5,19.5-0.1c0.1,0.1,0.2,0.2,0.3,0.2c6.1,5.4,15.2,5.6,21.8,0.8c3.2-2.4,9.4-5.1,21.1-7
			c3.9-0.6,7.9-0.5,11.8,0.1c3.5,0.5,8.3,0.5,11.1-3c4.9-5.9,14.1-12.9,23.2-11.1c9.1,1.8,19.8-9.4,28.6-10.6
			c8.8-1.1,17.9,3.1,22-2.9c0,0,6-7.6,1.8-7.3s-29.3,9.8-47.1,13.8c-17.8,4-61.5,25.6-79.8,24.3c-18.3-1.3-41.4-2.3-41.4-2.3
			L271.3,207.2L271.3,207.2z"/>
		<path class="st0" d="M429,170.9c0,0,5.2,1,5.7,7.1c1.1,13.2,1.5-12.7,1.5-12.7L429,170.9z"/>
		<path class="st0" d="M14,166c0,0-10.7-0.8-11,32.2L2,171.8c0,0,4.1-10.2,9.5-9.9S14,166,14,166L14,166z"/>
		<path class="st0" d="M51.4,216.4c-9.4-0.4-24.9-8.6-25.6-8.9l0.5-0.9c0.2,0.1,16,8.4,25.2,8.8L51.4,216.4z"/>
		<path class="st0" d="M29.3,208.7c0,0-1.7,2.8,1.4,5.3s3.1,0.8,6,2.5s3.1,3.1,7,3.1s4.5-4.1,4.5-4.1S33.7,211.5,29.3,208.7
			L29.3,208.7z"/>
		<path class="st0" d="M93.8,239.2c-9.4-0.4-24.9-8.6-25.6-8.9l0.5-0.9c0.2,0.1,16,8.4,25.2,8.8L93.8,239.2L93.8,239.2z"/>
		<path class="st0" d="M71.7,231.4c0,0-1.7,2.2,1.4,4.2s2.9,3.1,5.8,4.4s3.3,0,7.2,0s5.8-1.3,5.8-1.3S76.1,234.8,71.7,231.4
			L71.7,231.4z"/>
		<path class="st0" d="M137.7,231.7c-7.7,0-11.6-1.6-13.4-2.8l0.6-0.8c2.7,1.8,9.7,4.3,27.2,1.3l0.2,1
			C146.3,231.3,141.5,231.7,137.7,231.7z"/>
		<path class="st0" d="M127.9,229.9c0,0-0.9,1.9,2.7,2.9c3.6,1,3.1,2.9,6.2,3.3c1.4,0.2,3.5-4,4.8-3.6c2.5,0.8,5.3,0.3,7.3-1.4
			c0.4-0.4,0.6-0.6,0.6-0.6S133.1,231.9,127.9,229.9L127.9,229.9z"/>
		<path class="st0" d="M197.5,254.4c-8.8,0-18.8-2-19.3-2.2l0.2-1c0.2,0,17.7,3.6,26.6,1.4l0.2,1C203,254.2,200.3,254.4,197.5,254.4
			L197.5,254.4z"/>
		<path class="st0" d="M181.8,252.4c0,0-1,2.6,2.6,3.6s3.6,3.4,6.7,3.9c3.1,0.5,3.3-2.2,7-3.3c3.7-1.1,5.2-2.9,5.2-2.9
			S187,254.4,181.8,252.4L181.8,252.4z"/>
		<path class="st0" d="M305.4,229c-4.3,0-7.5-0.2-7.8-0.3l0.1-1c0.2,0,18,1.2,26.6-2.1l0.4,0.9C319.5,228.6,311.4,229,305.4,229
			L305.4,229z"/>
		<path class="st0" d="M301.2,228.4c0,0-0.6,2.7,3,3.2s6,2.3,9.2,2.3c3.1,0,1-2,4.5-3.5c3.5-1.6,4.8-3.6,4.8-3.6
			S306.6,229.8,301.2,228.4L301.2,228.4z"/>
		<path class="st0" d="M321.7,252.9c-4.3,0-7.5-0.2-7.8-0.3l0.1-1c0.2,0,18,1.2,26.6-2.1l0.4,0.9
			C335.8,252.5,327.7,252.9,321.7,252.9L321.7,252.9z"/>
		<path class="st0" d="M317.5,252.4c0,0-1.8,1.4,1.8,1.9s4.3,0.7,7.4,0.7s5.6,1.9,9.1,0.3s3-4.4,3-4.4S322.9,253.7,317.5,252.4
			L317.5,252.4z"/>
		<path class="st0" d="M364.7,221.1l-0.1-1c0.2,0,18-1.3,26-5.8l0.5,0.9C382.9,219.8,365.4,221.1,364.7,221.1L364.7,221.1z"/>
		<path class="st0" d="M368.3,220.3c0,0,0,4.3,3.6,4.3c3.7,0,2.4-3.5,5.5-3.9c3.1-0.4,4.4,1.4,7.6-0.6s4.2-4.2,4.2-4.2
			S373.8,220.8,368.3,220.3z"/>
		<path class="st0" d="M404.4,194.9c0,0-0.3,2.8,3.4,2.8c3.7,0,3.5,3.1,6.6,2.6s3.5-3.7,6.7-5.7c3.3-2,4.2-4.2,4.2-4.2
			S409.9,195.4,404.4,194.9z"/>
	</g>
</g>
</svg>
