<?xml version="1.0" encoding="utf-8"?>
<svg version="1.1" id="Calque_2_1_" xmlns="http://www.w3.org/2000/svg" xmlns:xlink="http://www.w3.org/1999/xlink" x="0px"
	 y="0px" viewBox="0 0 438.9 356.7" style="enable-background:new 0 0 438.9 356.7;" xml:space="preserve">
<style type="text/css">
	.st0{fill:#FF0000;}
</style>
<g id="Calque_1-2">
	<g>
		<g>
			<path class="st0" d="M235.5,356.7c-10.1,0-21-1.4-31.7-2.8c-12.1-1.6-23.6-3-32.6-2.2c-13.1,1.3-32.3-7.4-50.8-15.7
				c-16.3-7.4-33.3-15-42.3-13.5c-8.2,1.3-22-5.7-40.9-21C22.8,290,9.8,277.1,6.1,273.5c-0.4-0.4-0.8-0.7-1.3-1.1l-0.1-0.1
				c-2.5-1.9-4.7-6.4-4.7-9.4v-34.6c0-3.9,2-8.4,5-10.9c1.8-1.5,3.8-2.2,5.7-1.8c6.7,1.1,13.4,4.2,21.1,7.8
				c10.4,4.8,23.3,10.8,41.8,14.5c7.7,1.6,17.1,1.7,27.1,1.8c9.7,0.1,19.7,0.2,29.5,1.6c2.3,0,35.1,0.6,67.6,4.4
				c9.4,1.1,18.5,2.8,27.4,4.4c14.3,2.6,26.6,4.9,35.3,3.8l0,0c8.1-1.1,16.8-0.5,26,0.1c15.3,1,31.1,2,45.9-4.6
				c27-12,46.7-16.5,64.1-20.6c12.9-3,24-5.6,35.3-10.6c1.5-0.6,3.1-0.5,4.5,0.4c1.6,1.1,2.6,3,2.6,5.1v36.6c0,3.3-0.8,4.5-2.3,6.5
				c-0.8,1.1-1.9,2.6-3.4,5.2c-5.7,10.1-13.9,18.6-23.8,24.6c-13.1,8-37.8,23.2-55.7,34.3c-15.1,9.3-34.1,11.1-52.5,12.8
				c-14.9,1.4-29,2.7-39.6,8C254.1,355.5,245.1,356.7,235.5,356.7L235.5,356.7z M177,347.5c8.2,0,17.5,1.2,27.3,2.5
				c20.3,2.6,41.2,5.3,55.6-1.9c11.2-5.6,25.7-6.9,41-8.4c17.9-1.7,36.5-3.4,50.7-12.2c17.9-11.1,42.6-26.2,55.7-34.3
				c9.3-5.7,17-13.7,22.4-23.1c1.6-2.9,2.8-4.5,3.7-5.7c1.2-1.6,1.5-2,1.5-4.1v-36.6c0-0.9-0.4-1.6-0.8-1.8
				c-0.3-0.2-0.5-0.1-0.6-0.1c-11.7,5.2-23,7.8-36,10.8c-17.2,4-36.7,8.5-63.4,20.3c-15.6,6.9-31.9,5.9-47.7,4.9
				c-9-0.6-17.5-1.1-25.2-0.1l0,0c-9.3,1.2-21.9-1.1-36.6-3.8c-8.8-1.6-17.8-3.3-27.1-4.4c-33.3-3.9-67-4.3-67.3-4.3l-0.3,0
				c-9.7-1.4-19.6-1.5-29.2-1.6c-10.2-0.1-19.8-0.2-27.9-1.9c-18.9-3.8-32.1-9.9-42.6-14.8c-7.5-3.4-13.9-6.4-20.1-7.5
				c-0.9-0.2-1.9,0.4-2.4,0.9c-2,1.7-3.5,5.1-3.5,7.8v34.7c0,1.8,1.7,5.1,3.1,6.2l0.1,0.1c0.6,0.4,1.2,0.9,1.7,1.5
				c18.8,18.9,54.3,50.2,68.5,48c10.2-1.6,26.9,5.9,44.6,13.8c18.1,8.1,36.7,16.5,48.8,15.4C172.8,347.6,174.9,347.5,177,347.5
				L177,347.5z"/>
			<path class="st0" d="M7.6,220.3l-2.5-3.1c0.3-0.2,7.3-5.7,29.8-14.4l1.4,3.7C14.4,215,7.7,220.3,7.6,220.3L7.6,220.3z"/>
			<path class="st0" d="M434.4,222.1c-9.7-4.9-21.4-4.1-21.5-4.1l-0.3-4c0.5,0,12.9-0.8,23.6,4.6L434.4,222.1L434.4,222.1z"/>
			<path class="st0" d="M288,343.1c4.7,1.4,50.8-6.8,56.7-8.8c5.9-2,63.3-36.7,71.4-44.8c8-8,20.8-25.6,20.8-25.6s0-18.4-1.6-12
				c-0.3,1.4-0.9,3.1-1.6,5.1c-3.1,9.3-7.2,17.6-20.4,22.7c-1.9,0.7-7.5,7.1-8.8,10.2c-4.8,11.5-17.1,11.4-27.7,19.3
				s-22-1.7-25.4,8.4c-2.8,8.4-10,11.9-23.1,14.8c-2.5,0.5-20.5-0.8-22.8-0.3c-9.3,1.9-12.5,0.9-13.8,0.9c-1.1,0-3.8-0.3-7-0.8
				c-10.8-1.5-21.8-0.3-32,3.6c-8.9,3.4-17.5,7-17.5,7c-8.3,5.2-24.7,4-33.5,4.6c-9.4,0.7-16.5-10.8-27.5-11.5
				c-3.1-0.2-13.8,8.5-32.9,2.9c-8.8-2.6-13.4-7.9-15.8-12.8c-2.3-4.7-7.2-7.8-12.5-7.5c-5.9,0.3-11.2-3.2-29.5-3.5
				c-12.8-0.2-19.7-5.5-23.3-10.9c-3.6-5.4-9.2-9-15.6-9.9C24.1,291.2,2,260.8,2,260.8v5c0,0,46.6,42,55.4,49.2
				c8.9,7.3,23.8,5.4,29.4,6.1S158,352,167,349.9c9-2.1,74.3,5.9,78.2,5.5c3.9-0.3,11.7-4.9,11.7-4.9L288,343.1L288,343.1z"/>
			<path class="st0" d="M265.9,260.1c4.4-0.7,2.3-1.4,19-1.2c0.1,0,7.7,2.3,13,4.5c7.5,3.2,8.4,3.1,15-1.7c3.2-2.4,9.4-5.1,21.1-7
				c3.9-0.6,7.9-0.5,11.8,0.1c3.5,0.5,8.3,0.5,11.1-3c4.9-5.9,14.1-12.9,23.2-11.1c9.1,1.8,19.8-9.4,28.6-10.6
				c8.8-1.1,17.9,3.1,22-2.9c0,0,6-7.6,1.8-7.3s-29.3,9.8-47.1,13.8c-17.8,4-61.5,25.6-79.8,24.2c-18.3-1.3-41.4-2.3-41.4-2.3
				c-13.1,0.9-70.1-5.8-76.5-9.2s-74.9-4.2-74.9-4.2c-12.1-0.2-37.7,0.6-50.8-4.7s-48-18.8-48-18.8v1.4c0,0,6.8,6.3,13.6,12.1
				c6.8,5.8,10.9,1.3,17.4,4.5c6.5,3.2,14.6,9.9,23.6,9.2c9-0.7,16.1,7,24.3,10.5c7.2,3.1,9.7-3.1,15.7-4.1c2.4-0.4,4.8-1,7.2-1.7
				c5.2-1.6,28.3,3.7,44.2,7c24.3,5.1,27.9-2.1,45.1-2.7s11.7,5.5,33.3,5.8S265.9,260.1,265.9,260.1L265.9,260.1z"/>
			<path class="st0" d="M429,224.6c0,0,5.2,1,5.7,7.1c1.1,13.2,1.5-12.7,1.5-12.7L429,224.6z"/>
			<path class="st0" d="M14,219.7c0,0-10.7-0.8-11,32.2L2,225.5c0,0,4.1-10.2,9.5-9.9C16.8,215.8,14,219.7,14,219.7L14,219.7z"/>
			<path class="st0" d="M51.4,270.1c-9.4-0.4-24.9-8.6-25.6-8.9l0.5-0.9c0.2,0.1,16,8.4,25.2,8.8L51.4,270.1z"/>
			<path class="st0" d="M29.3,262.3c0,0-1.7,2.8,1.4,5.3c3.1,2.5,3.1,0.8,6,2.5c2.9,1.7,3.1,3.1,7,3.1s4.5-4.1,4.5-4.1
				S33.7,265.2,29.3,262.3z"/>
			<path class="st0" d="M100.7,278.5c-9.4-0.4-24.9-8.6-25.6-8.9l0.5-0.9c0.2,0.1,16,8.4,25.2,8.8L100.7,278.5z"/>
			<path class="st0" d="M78.6,270.8c0,0-1.7,2.2,1.4,4.2c3.1,2,2.9,3.1,5.8,4.4c2.9,1.3,3.3,0,7.2,0s5.8-1.3,5.8-1.3
				S83,274.2,78.6,270.8L78.6,270.8z"/>
			<path class="st0" d="M139.3,300.2c-7.7,0-11.6-1.6-13.4-2.8l0.6-0.8c2.6,1.8,9.7,4.3,27.2,1.3l0.2,1
				C147.9,299.8,143.2,300.2,139.3,300.2L139.3,300.2z"/>
			<path class="st0" d="M129.6,298.3c0,0-0.9,1.9,2.7,2.9c3.6,1,3.1,2.9,6.2,3.3c1.4,0.2,3.5-4,4.8-3.6c2.5,0.8,5.3,0.3,7.3-1.4
				c0.4-0.4,0.6-0.6,0.6-0.6S134.8,300.3,129.6,298.3z"/>
			<path class="st0" d="M197.5,308.1c-8.8,0-18.8-2-19.3-2.2l0.2-1c0.2,0,17.7,3.6,26.6,1.4l0.2,1
				C203,307.9,200.3,308.1,197.5,308.1L197.5,308.1z"/>
			<path class="st0" d="M181.8,306.1c0,0-1,2.6,2.6,3.6s3.6,3.4,6.7,3.9s3.3-2.2,7-3.3c3.7-1.1,5.2-2.9,5.2-2.9
				S187,308.1,181.8,306.1L181.8,306.1z"/>
			<path class="st0" d="M305.4,282.7c-4.3,0-7.5-0.2-7.8-0.2l0.1-1c0.2,0,18,1.2,26.6-2.1l0.4,0.9
				C319.5,282.3,311.4,282.7,305.4,282.7L305.4,282.7z"/>
			<path class="st0" d="M301.2,282.1c0,0-0.6,2.7,3,3.2c3.6,0.5,6,2.3,9.2,2.3c3.1,0,1-2,4.5-3.5c3.5-1.5,4.8-3.6,4.8-3.6
				S306.6,283.4,301.2,282.1L301.2,282.1z"/>
			<path class="st0" d="M285.9,314.7c-4.3,0-7.5-0.2-7.8-0.2l0.1-1c0.2,0,18,1.2,26.6-2.1l0.4,0.9
				C300,314.3,291.9,314.7,285.9,314.7L285.9,314.7z"/>
			<path class="st0" d="M281.7,314.1c0,0-1.8,1.4,1.8,1.9s4.3,0.7,7.4,0.7c3.1,0,5.6,1.9,9.1,0.3s3-4.4,3-4.4
				S287.1,315.4,281.7,314.1L281.7,314.1z"/>
			<path class="st0" d="M361.9,275.3l-0.1-1c0.2,0,20.9-1.8,28.9-6.3l0.5,0.9C383,273.5,362.7,275.2,361.9,275.3z"/>
			<path class="st0" d="M365.4,274.5c0,0,0,4.3,3.6,4.3s2.4-3.5,5.5-3.9s4.4,1.4,7.6-0.6c3.3-2,7.1-4.7,7.1-4.7S371,275,365.4,274.5
				L365.4,274.5z"/>
			<path class="st0" d="M402.2,259.3c0,0-0.3,2.8,3.4,2.8c3.7,0,3.5,3,6.6,2.6c3.1-0.4,3.5-3.7,6.7-5.7c3.3-2,4.2-4.2,4.2-4.2
				S407.7,259.8,402.2,259.3z"/>
		</g>
		<polygon class="st0" points="32.7,226 31.1,109.2 77.1,111 77.1,152.9 73.1,153 73.1,114.8 35.2,113.4 36.7,226 		"/>
		<polygon class="st0" points="75.2,112.6 71.2,112.6 71.3,103.9 59.9,103.5 59.7,112 55.7,111.9 56,99.4 75.3,100 		"/>
		<polygon class="st0" points="141.5,241.9 137.5,241.8 138.3,143.4 56.8,157.8 54,233.4 50,233.3 52.9,154.4 142.3,138.6 		"/>
		<polygon class="st0" points="360.5,239.2 358.3,178.9 380.9,177.5 380.5,145.2 414.3,144 414.5,225.7 410.5,225.7 410.3,148.1 
			384.6,149 385,181.2 362.4,182.6 364.5,239.1 		"/>
		<polygon class="st0" points="221.6,203.7 217.6,203.7 217.6,108.3 165.2,108.3 165.6,96.4 127.7,96.4 125.9,143.9 121.9,143.8 
			123.8,92.4 169.7,92.4 169.4,104.3 221.6,104.3 		"/>
		<polygon class="st0" points="237.4,253.9 233.4,253.8 234,205.6 183.9,202.3 181.8,247.1 177.8,246.9 180.1,198 238.1,201.8 		"/>
		<polygon class="st0" points="258.7,173.3 256.3,4.4 198.3,4 197.9,105.2 193.9,105.2 194.3,0 260.3,0.4 262.7,173.2 		"/>
		<polygon class="st0" points="365.4,178.8 362.3,88.9 316.7,51 321.6,171.9 317.6,172 312.4,42.2 366.2,86.9 369.4,178.6 		"/>
		<polygon class="st0" points="251.3,256 250.5,170.5 341.9,171.6 343.7,248.1 339.7,248.2 338,175.6 254.6,174.6 255.3,256 		"/>
		<polygon class="st0" points="289.2,171.6 287.9,125.5 259.9,124.6 260,120.6 291.7,121.6 293.2,171.5 		"/>
		<g>
			<rect x="71.1" y="227.1" class="st0" width="4" height="17.3"/>
			<g>
				<path class="st0" d="M73,228.2c-5.7,0-10.3-4.6-10.3-10.3s4.6-10.3,10.3-10.3s10.3,4.6,10.3,10.3S78.7,228.2,73,228.2z
					 M73,211.6c-3.5,0-6.3,2.8-6.3,6.3s2.8,6.3,6.3,6.3s6.3-2.8,6.3-6.3S76.4,211.6,73,211.6z"/>
				<path class="st0" d="M75.3,226.8c-2-1.9-3.1-4.6-3.1-7.4c0-3.9,2.2-7.4,5.6-9.2l1.8,3.6c-2.1,1.1-3.4,3.2-3.4,5.6
					c0,1.7,0.7,3.3,1.9,4.5L75.3,226.8z"/>
				<path class="st0" d="M72.4,226l-4-0.3l2,0.2l-2-0.1c0-2.8-1.7-5.2-4.3-6.1l1.2-3.8c4.3,1.4,7.1,5.3,7.1,9.8
					C72.4,225.7,72.4,225.8,72.4,226L72.4,226z"/>
			</g>
		</g>
		<g>
			<rect x="157.9" y="233" class="st0" width="4" height="17.3"/>
			<g>
				<path class="st0" d="M159.9,234.1c-5.7,0-10.3-4.6-10.3-10.3s4.6-10.3,10.3-10.3s10.3,4.6,10.3,10.3S165.6,234.1,159.9,234.1z
					 M159.9,217.5c-3.5,0-6.3,2.8-6.3,6.3s2.8,6.3,6.3,6.3s6.3-2.8,6.3-6.3S163.3,217.5,159.9,217.5z"/>
				<path class="st0" d="M162.2,232.6c-2-1.9-3.1-4.6-3.1-7.4c0-3.9,2.1-7.4,5.6-9.2l1.8,3.6c-2.1,1.1-3.4,3.2-3.4,5.6
					c0,1.7,0.7,3.3,1.9,4.5L162.2,232.6L162.2,232.6z"/>
				<path class="st0" d="M159.3,231.9l-4-0.4l2,0.2l-2-0.2c0-2.8-1.7-5.2-4.3-6.1l1.3-3.8c4.3,1.4,7.1,5.3,7.1,9.8
					C159.3,231.6,159.3,231.7,159.3,231.9L159.3,231.9z"/>
			</g>
		</g>
		<g>
			<rect x="375.4" y="219" class="st0" width="4" height="17.3"/>
			<g>
				<path class="st0" d="M377.3,220.1c-5.7,0-10.3-4.6-10.3-10.3s4.6-10.3,10.3-10.3s10.3,4.6,10.3,10.3S383,220.1,377.3,220.1z
					 M377.3,203.5c-3.5,0-6.3,2.8-6.3,6.3s2.8,6.3,6.3,6.3s6.3-2.8,6.3-6.3S380.8,203.5,377.3,203.5z"/>
				<path class="st0" d="M379.7,218.7c-2-1.9-3.1-4.6-3.1-7.4c0-3.9,2.1-7.4,5.6-9.2l1.8,3.6c-2.1,1.1-3.4,3.2-3.4,5.6
					c0,1.7,0.7,3.3,1.9,4.5L379.7,218.7L379.7,218.7z"/>
				<path class="st0" d="M376.7,217.9l-4-0.3l2,0.2l-2-0.1c0-2.8-1.7-5.2-4.3-6.1l1.2-3.8c4.3,1.4,7.1,5.3,7.1,9.8
					C376.7,217.6,376.7,217.8,376.7,217.9L376.7,217.9z"/>
			</g>
		</g>
		<g>
			<rect x="397.6" y="212.6" class="st0" width="4" height="17.3"/>
			<g>
				<path class="st0" d="M399.5,213.7c-5.7,0-10.3-4.6-10.3-10.3s4.6-10.3,10.3-10.3s10.3,4.6,10.3,10.3S405.2,213.7,399.5,213.7z
					 M399.5,197.1c-3.5,0-6.3,2.8-6.3,6.3s2.8,6.3,6.3,6.3s6.3-2.8,6.3-6.3S403,197.1,399.5,197.1z"/>
				<path class="st0" d="M401.9,212.2c-2-1.9-3.1-4.6-3.1-7.4c0-3.9,2.1-7.4,5.6-9.2l1.8,3.6c-2.1,1.1-3.4,3.2-3.4,5.6
					c0,1.7,0.7,3.3,1.9,4.5L401.9,212.2L401.9,212.2z"/>
				<path class="st0" d="M398.9,211.4l-4-0.3l2,0.2l-2-0.1c0-2.8-1.7-5.2-4.3-6.1l1.2-3.8c4.3,1.4,7.1,5.3,7.1,9.8
					C398.9,211.2,398.9,211.3,398.9,211.4L398.9,211.4z"/>
			</g>
		</g>
		
			<rect x="79.8" y="230" transform="matrix(1.919872e-03 -1 1 1.919872e-03 -136.0405 327.6191)" class="st0" width="32.5" height="4"/>
		<polygon class="st0" points="101.3,245.3 96.2,242.3 91.9,245.3 89.6,242 96,237.5 103.3,241.9 		"/>
		<polygon class="st0" points="104.9,239 95.7,233.6 86.9,238.9 84.8,235.5 95.6,229 106.9,235.5 		"/>
		<polygon class="st0" points="104.1,230.4 95.8,225.7 88.2,230.3 86.1,226.9 95.7,221 106,226.9 		"/>
		<polygon class="st0" points="102.5,221.4 95.7,217.6 89.5,221.4 87.4,218 95.6,213 104.5,217.9 		"/>
		<g>
			
				<rect x="95.8" y="215.4" transform="matrix(2.390878e-02 -0.9997 0.9997 2.390878e-02 -96.4678 335.9529)" class="st0" width="56.1" height="4"/>
			<polygon class="st0" points="128,240 123.5,235 119.4,239.7 116.4,237 123.4,229 131,237.3 			"/>
			<polygon class="st0" points="132.4,233.9 123.3,224.8 114.7,233.5 111.8,230.6 123.2,219.2 135.3,231.1 			"/>
			<polygon class="st0" points="132,225.4 123.4,216.4 114.9,224.9 112,222.1 123.5,210.6 134.9,222.6 			"/>
			<polygon class="st0" points="131.3,216.4 123.6,208.6 116.2,216 113.3,213.2 123.6,202.9 134.1,213.6 			"/>
			<polygon class="st0" points="130.1,206.4 123.8,200.1 117.9,206.1 115.1,203.2 123.8,194.4 132.9,203.6 			"/>
			<polygon class="st0" points="129.3,195.9 124.5,191.1 119.9,195.7 117.1,192.9 124.5,185.4 132.1,193 			"/>
		</g>
		<g>
			
				<rect x="277.3" y="231.8" transform="matrix(2.390878e-02 -0.9997 0.9997 2.390878e-02 64.3576 533.52)" class="st0" width="56.1" height="4"/>
			<polygon class="st0" points="309.6,256.4 305.1,251.4 301,256.1 298,253.5 305,245.4 312.6,253.7 			"/>
			<polygon class="st0" points="314,250.4 304.8,241.3 296.3,249.9 293.4,247.1 304.8,235.6 316.8,247.5 			"/>
			<polygon class="st0" points="313.6,241.8 305,232.8 296.5,241.4 293.6,238.6 305,227.1 316.5,239 			"/>
			<polygon class="st0" points="312.9,232.8 305.2,225 297.8,232.4 295,229.6 305.2,219.3 315.7,230 			"/>
			<polygon class="st0" points="311.6,222.8 305.4,216.6 299.5,222.5 296.6,219.7 305.4,210.9 314.5,220 			"/>
			<polygon class="st0" points="310.9,212.3 306.1,207.5 301.5,212.2 298.6,209.3 306.1,201.9 313.8,209.5 			"/>
		</g>
		<g>
			<rect x="272.9" y="227.3" class="st0" width="4" height="27.5"/>
			<g>
				<path class="st0" d="M274.8,227.8c-0.6,0-1.3,0-1.9-0.1c-4-0.5-7.6-2.6-10.1-5.8s-3.6-7.2-3.1-11.2s2.5-7.6,5.8-10.1
					c3.2-2.5,7.2-3.6,11.2-3.1s7.6,2.6,10.1,5.8s3.6,7.2,3.1,11.2s-2.5,7.6-5.8,10.1C281.4,226.7,278.1,227.8,274.8,227.8z
					 M274.7,201.4c-2.5,0-4.9,0.8-6.9,2.4l0,0c-2.4,1.8-3.9,4.5-4.3,7.5c-0.4,3,0.4,5.9,2.3,8.3s4.5,3.9,7.5,4.3
					c3,0.4,5.9-0.4,8.3-2.3c2.4-1.8,3.9-4.5,4.3-7.5c0.4-3-0.4-5.9-2.3-8.3s-4.5-3.9-7.5-4.3C275.7,201.4,275.2,201.4,274.7,201.4z"
					/>
				<path class="st0" d="M267.2,214.4c-2.2,0-4.4-0.5-6.5-1.4l1.7-3.6c3.8,1.8,8.3,1.3,11.6-1.3c2.4-1.9,3.9-4.6,4.3-7.6l4,0.4
					c-0.5,4.1-2.5,7.8-5.8,10.3C273.8,213.3,270.5,214.4,267.2,214.4L267.2,214.4z"/>
				<path class="st0" d="M280.7,223.9c-2.2-6.2-0.2-13.1,5-17.1c0.1-0.1,0.3-0.2,0.4-0.3l2.2,3.4c0,0-0.1,0.1-0.2,0.1
					c-3.8,3-5.3,8.1-3.7,12.6L280.7,223.9L280.7,223.9z"/>
			</g>
		</g>
		<polygon class="st0" points="124.2,92.4 124.3,143.5 109,146.8 110.7,101.3 		"/>
		<polygon class="st0" points="180.4,198.1 179.1,244.3 172.1,245.2 174.4,205.9 		"/>
		<polygon class="st0" points="251.3,170.7 252.5,255.3 243.4,254.8 242.5,175.4 250.6,170.5 		"/>
		<polygon class="st0" points="358.6,178.9 362.9,239.6 355,243.2 353.6,184.5 		"/>
		<polygon class="st0" points="268.3,123.1 267.8,172.9 262.4,172.5 261.4,123.7 		"/>
		<polygon class="st0" points="312.5,42.3 317.5,144.6 317.6,172.9 307.5,171.9 304.4,48.6 		"/>
		<polygon class="st0" points="53.1,154.1 51.4,236.8 43.2,232.4 45.5,165.5 		"/>
		<polygon class="st0" points="31.2,109.2 34,227.7 26.5,224.5 26.1,114.3 		"/>
		<polygon class="st0" points="194.4,0 196.8,105.9 186.8,106 187.7,6.8 		"/>
		<path class="st0" d="M254.9,14.8h-55V5.6h55V14.8L254.9,14.8z M203.9,10.8h47V9.6h-47C203.9,9.6,203.9,10.8,203.9,10.8z"/>
		<path class="st0" d="M254.9,26.8h-55v-9.2h55C254.9,17.6,254.9,26.8,254.9,26.8z M203.9,22.8h47v-1.2h-47V22.8z"/>
		<path class="st0" d="M254.9,38.8h-55v-9.2h55V38.8z M203.9,34.8h47v-1.2h-47V34.8z"/>
		<path class="st0" d="M254.9,50.8h-55v-9.2h55V50.8z M203.9,46.8h47v-1.2h-47V46.8z"/>
		<path class="st0" d="M254.9,62.8h-55v-9.2h55V62.8z M203.9,58.8h47v-1.2h-47V58.8z"/>
		<path class="st0" d="M254.9,74.8h-55v-9.2h55V74.8z M203.9,70.8h47v-1.2h-47V70.8z"/>
		<path class="st0" d="M254.9,86.8h-55v-9.2h55V86.8z M203.9,82.8h47v-1.2h-47V82.8z"/>
		<path class="st0" d="M254.9,98.8h-55v-9.2h55V98.8z M203.9,94.8h47v-1.2h-47V94.8z"/>
		<path class="st0" d="M254.9,110.8h-37.3v-9.2h37.3V110.8z M221.6,106.8h29.3v-1.2h-29.3V106.8z"/>
		<path class="st0" d="M254.9,122.8h-37v-9.2h37V122.8z M221.9,118.8h29v-1.2h-29V118.8z"/>
		<path class="st0" d="M254.9,134.8h-37.3v-9.2h37.3V134.8z M221.6,130.8h29.3v-1.2h-29.3V130.8z"/>
		<path class="st0" d="M254.9,146.8h-36.7v-9.2h36.7V146.8z M222.2,142.8h28.7v-1.2h-28.7V142.8z"/>
		<path class="st0" d="M254.9,158.8h-37.3v-9.2h37.3V158.8z M221.6,154.8h29.3v-1.2h-29.3V154.8z"/>
		<path class="st0" d="M254.9,170.8h-37.1v-9.2h37.1V170.8z M221.8,166.8h29.1v-1.2h-29.1V166.8z"/>
		<path class="st0" d="M254.4,182.8h-36.8v-9.2h36.8V182.8z M221.6,178.8h28.8v-1.2h-28.8V178.8z"/>
		<path class="st0" d="M254.4,194.8h-36.7v-9.2h36.7V194.8z M221.7,190.8h28.7v-1.2h-28.7V190.8z"/>
		<path class="st0" d="M254.4,216.8h-20.4v-9.2h20.4V216.8z M238.1,212.8h12.4v-1.2h-12.4V212.8z"/>
		<path class="st0" d="M254.4,228.8h-20.6v-9.2h20.6V228.8z M237.8,224.8h12.6v-1.2h-12.6V224.8z"/>
		<path class="st0" d="M254.4,240.8h-20.6v-9.2h20.6V240.8z M237.8,236.8h12.6v-1.2h-12.6V236.8z"/>
		<path class="st0" d="M254.4,252.8h-20.6v-9.2h20.6V252.8z M237.8,248.8h12.6v-1.2h-12.6V248.8z"/>
		<path class="st0" d="M254.4,206.9l-36.4-2.6l-0.4-6.7h36.9L254.4,206.9L254.4,206.9z M235.8,201.6l14.6,1.1v-1.1H235.8z"/>
		
			<rect x="1.7" y="199.7" transform="matrix(1.919872e-03 -1 1 1.919872e-03 -183.7823 219.2091)" class="st0" width="32.5" height="4"/>
		<polygon class="st0" points="26.7,208.7 17.5,203.3 8.7,208.6 6.7,205.2 17.4,198.7 28.7,205.2 		"/>
		<polygon class="st0" points="25.9,200.1 17.6,195.4 10,200 7.9,196.6 17.5,190.8 27.8,196.6 		"/>
		<polygon class="st0" points="24.3,191.1 17.5,187.4 11.4,191.1 9.3,187.7 17.4,182.7 26.3,187.7 		"/>
		
			<rect x="10.9" y="205.9" transform="matrix(1.919872e-03 -1 1 1.919872e-03 -180.8443 234.6968)" class="st0" width="32.5" height="4"/>
		<polygon class="st0" points="36,214.9 26.7,209.6 18,214.9 15.9,211.5 26.7,204.9 38,211.5 		"/>
		<polygon class="st0" points="35.1,206.3 26.8,201.7 19.2,206.3 17.1,202.9 26.8,197 37.1,202.9 		"/>
		<polygon class="st0" points="33.6,197.4 26.7,193.6 20.6,197.4 18.5,194 26.6,189 35.5,193.9 		"/>
		<path class="st0" d="M11.6,217.1l23.5,9.6c0,0-0.9-13-0.9-13.3s-9.4-5.2-9.4-5.2L11.6,217.1L11.6,217.1z"/>
		<polygon class="st0" points="412.1,217.1 413.5,226.8 429.9,220.1 424.2,216.5 		"/>
		<path class="st0" d="M246.3,293.6c-4.3,0-7.5-0.2-7.9-0.3l0.1-1c0.2,0,18,1.2,26.6-2.1l0.4,0.9
			C260.4,293.1,252.3,293.6,246.3,293.6L246.3,293.6z"/>
		<path class="st0" d="M242.1,293c0,0-0.6,2.7,3,3.2s3.9,1.7,7.1,1.7s3.1-1.4,6.6-2.9c3.5-1.5,4.8-3.6,4.8-3.6
			S247.5,294.3,242.1,293L242.1,293z"/>
		<path class="st0" d="M177.3,275.1c-4.3,0-7.5-0.2-7.8-0.2l0.1-1c0.2,0,18,1.2,26.6-2.1l0.4,0.9
			C191.3,274.7,183.3,275.1,177.3,275.1L177.3,275.1z"/>
		<path class="st0" d="M173.1,274.5c0,0-1.8,1.4,1.8,1.9s4.3,0.7,7.4,0.7c3.1,0,5.6,1.9,9.1,0.3s3-4.4,3-4.4
			S178.5,275.8,173.1,274.5L173.1,274.5z"/>
		
			<rect x="51.8" y="105.2" transform="matrix(3.106184e-02 -0.9995 0.9995 3.106184e-02 -67.3964 169.6994)" class="st0" width="4" height="28.9"/>
		
			<rect x="51.8" y="112.2" transform="matrix(3.106184e-02 -0.9995 0.9995 3.106184e-02 -74.384 176.4861)" class="st0" width="4" height="28.9"/>
		
			<rect x="51.8" y="119.2" transform="matrix(3.106184e-02 -0.9995 0.9995 3.106184e-02 -81.3914 183.2726)" class="st0" width="4" height="28.9"/>
		
			<rect x="51.8" y="126.2" transform="matrix(3.106184e-02 -0.9995 0.9995 3.106184e-02 -88.3887 190.0493)" class="st0" width="4" height="28.9"/>
		
			<rect x="51.7" y="133.7" transform="matrix(6.505486e-02 -0.9979 0.9979 6.505486e-02 -97.5486 192.1018)" class="st0" width="4" height="28.7"/>
		
			<rect x="45.5" y="147.7" transform="matrix(7.758904e-02 -0.997 0.997 7.758904e-02 -111.5367 191.048)" class="st0" width="4" height="16.2"/>
		
			<rect x="44.9" y="156" transform="matrix(4.553735e-02 -0.999 0.999 4.553735e-02 -118.5349 202.9477)" class="st0" width="4" height="15.1"/>
		
			<rect x="44.9" y="164" transform="matrix(4.553735e-02 -0.999 0.999 4.553735e-02 -126.5288 210.5697)" class="st0" width="4" height="15.1"/>
		
			<rect x="44.9" y="172" transform="matrix(4.553735e-02 -0.999 0.999 4.553735e-02 -134.5231 218.2112)" class="st0" width="4" height="15.1"/>
		
			<rect x="44.9" y="180" transform="matrix(4.553735e-02 -0.999 0.999 4.553735e-02 -142.5075 225.8431)" class="st0" width="4" height="15.1"/>
		
			<rect x="44.9" y="188" transform="matrix(4.553735e-02 -0.999 0.999 4.553735e-02 -150.5019 233.4846)" class="st0" width="4" height="15.1"/>
		
			<rect x="44.9" y="196" transform="matrix(4.553735e-02 -0.999 0.999 4.553735e-02 -158.4863 241.1166)" class="st0" width="4" height="15.1"/>
		
			<rect x="44.7" y="204" transform="matrix(2.251286e-02 -0.9997 0.9997 2.251286e-02 -165.6094 253.2583)" class="st0" width="4" height="14.6"/>
		
			<rect x="44.2" y="212.6" transform="matrix(2.861948e-02 -0.9996 0.9996 2.861948e-02 -174.377 259.2928)" class="st0" width="4" height="13.6"/>
		
			<rect x="324.1" y="54.2" transform="matrix(0.9991 -4.187566e-02 4.187566e-02 0.9991 -4.4626 13.7556)" class="st0" width="4" height="118.4"/>
		
			<rect x="333.2" y="63.3" transform="matrix(0.9996 -2.670036e-02 2.670036e-02 0.9996 -3.0296 8.9917)" class="st0" width="4" height="109.3"/>
		
			<rect x="342.5" y="69.7" transform="matrix(0.9997 -2.460666e-02 2.460666e-02 0.9997 -3.7679 8.5244)" class="st0" width="4" height="175.4"/>
		
			<rect x="351.2" y="77.3" transform="matrix(0.9998 -2.059343e-02 2.059343e-02 0.9998 -3.2444 7.3071)" class="st0" width="4" height="167.8"/>
		
			<rect x="358.5" y="84.7" transform="matrix(0.9999 -1.099535e-02 1.099535e-02 0.9999 -1.4277 3.9723)" class="st0" width="4" height="94.2"/>
		<rect x="271.1" y="128.1" class="st0" width="13.7" height="4"/>
		<rect x="271.1" y="134.1" class="st0" width="13.7" height="4"/>
		<rect x="271.1" y="140.1" class="st0" width="13.7" height="4"/>
		<rect x="271.1" y="146.1" class="st0" width="13.7" height="4"/>
		<rect x="271.1" y="152.1" class="st0" width="13.7" height="4"/>
		<rect x="271.1" y="158.1" class="st0" width="13.7" height="4"/>
		<rect x="271.1" y="164.1" class="st0" width="13.7" height="4"/>
		
			<rect x="206.1" y="187.5" transform="matrix(8.280820e-02 -0.9966 0.9966 8.280820e-02 -16.863 398.5046)" class="st0" width="4" height="41.8"/>
		
			<rect x="206.1" y="193.5" transform="matrix(8.280820e-02 -0.9966 0.9966 8.280820e-02 -22.8307 404.0143)" class="st0" width="4" height="41.8"/>
		
			<rect x="206.1" y="199.5" transform="matrix(8.280820e-02 -0.9966 0.9966 8.280820e-02 -28.8174 409.5231)" class="st0" width="4" height="41.8"/>
		
			<rect x="206.1" y="205.5" transform="matrix(8.280820e-02 -0.9966 0.9966 8.280820e-02 -34.7942 415.0227)" class="st0" width="4" height="41.8"/>
		
			<rect x="206.1" y="211.5" transform="matrix(8.280820e-02 -0.9966 0.9966 8.280820e-02 -40.771 420.5224)" class="st0" width="4" height="41.8"/>
		
			<rect x="206.1" y="217.5" transform="matrix(8.280820e-02 -0.9966 0.9966 8.280820e-02 -46.7578 426.0312)" class="st0" width="4" height="41.8"/>
		
			<rect x="206.1" y="223.5" transform="matrix(8.280820e-02 -0.9966 0.9966 8.280820e-02 -52.7346 431.5309)" class="st0" width="4" height="41.8"/>
		
			<rect x="206.1" y="229.5" transform="matrix(8.280820e-02 -0.9966 0.9966 8.280820e-02 -58.7115 437.0305)" class="st0" width="4" height="41.8"/>
		
			<rect x="114.6" y="116.1" transform="matrix(6.104854e-02 -0.9981 0.9981 6.104854e-02 6.2489 242.8244)" class="st0" width="35.2" height="4"/>
		
			<rect x="124.6" y="116.1" transform="matrix(6.104854e-02 -0.9981 0.9981 6.104854e-02 15.6403 252.805)" class="st0" width="35.2" height="4"/>
		
			<rect x="95.8" y="153.3" transform="matrix(4.780376e-02 -0.9989 0.9989 4.780376e-02 -11.7273 298.3542)" class="st0" width="109.7" height="4"/>
		
			<rect x="105.8" y="153.3" transform="matrix(4.780376e-02 -0.9989 0.9989 4.780376e-02 -2.2086 308.3421)" class="st0" width="109.7" height="4"/>
		
			<rect x="120.4" y="158.5" transform="matrix(4.239879e-02 -0.9991 0.9991 4.239879e-02 2.506 323.664)" class="st0" width="99.3" height="4"/>
		
			<rect x="138.6" y="150.8" transform="matrix(4.100371e-02 -0.9992 0.9992 4.100371e-02 20.3859 326.9273)" class="st0" width="83.9" height="4"/>
		
			<rect x="148.7" y="151.1" transform="matrix(3.664368e-02 -0.9993 0.9993 3.664368e-02 30.3109 337.7009)" class="st0" width="83.3" height="4"/>
		
			<rect x="158.5" y="151.2" transform="matrix(3.908538e-02 -0.9992 0.9992 3.908538e-02 39.2636 347.2828)" class="st0" width="83.5" height="4"/>
		
			<rect x="168.7" y="151.1" transform="matrix(3.664368e-02 -0.9993 0.9993 3.664368e-02 49.5677 357.6836)" class="st0" width="83.3" height="4"/>
		
			<rect x="298.6" y="125.3" transform="matrix(0.1785 -0.9839 0.9839 0.1785 112.8005 407.7379)" class="st0" width="4" height="22.1"/>
		<polygon class="st0" points="311.7,172.8 307.7,172.5 307.9,170.6 290.2,168.2 290,157.9 306.9,161.1 306.8,157.6 289.2,154.8 
			289.2,142.8 307.5,147.3 307.3,145.2 290.5,141.7 291.3,137.7 311,141.9 312.2,152.6 293.2,147.9 293.2,151.4 310.7,154.2 
			311.1,165.9 294.1,162.8 294.1,164.7 312.1,167.1 		"/>
		<polygon class="st0" points="164.3,93.9 160.3,93.8 160.6,73 189.8,48.5 192.3,51.6 164.6,74.9 		"/>
		<polygon class="st0" points="160.9,72.8 155.4,78.1 154.5,92.9 160.8,93.6 		"/>
	</g>
</g>
</svg>
