<svg width="169" height="142" viewBox="0 0 169 142" fill="none" xmlns="http://www.w3.org/2000/svg">
<g clip-path="url(#clip0_393_524)">
<path d="M90.6848 142.379C86.7798 142.379 82.5937 141.84 78.4808 141.308C73.8018 140.704 69.3846 140.138 65.9109 140.473C60.8699 140.962 53.4835 137.638 46.3475 134.423C40.051 131.588 33.5389 128.658 30.0652 129.212C26.892 129.724 21.5929 127.005 14.3182 121.14C8.76502 116.662 3.75864 111.717 2.35685 110.307C2.21436 110.165 2.04106 110.03 1.85236 109.891L1.80615 109.857C0.862638 109.14 0 107.411 0 106.229V92.8851C0 91.3639 0.785617 89.6386 1.91013 88.6874C2.60332 88.1021 3.36198 87.8556 4.10523 87.9827C6.68929 88.4179 9.25795 89.6078 12.2348 90.9827C16.2361 92.8312 21.2155 95.1341 28.3169 96.5783C31.2745 97.179 34.9099 97.2214 38.7609 97.2676C42.4811 97.3138 46.3283 97.3562 50.1331 97.8838C51.0266 97.8953 63.6658 98.1033 76.174 99.5628C79.794 99.9865 83.31 100.637 86.7144 101.269C92.2175 102.289 96.9736 103.171 100.312 102.728C103.436 102.312 106.782 102.524 110.321 102.748C116.217 103.121 122.314 103.502 127.978 100.995C138.388 96.3896 145.975 94.6296 152.672 93.0776C157.62 91.93 161.895 90.9403 166.281 89.0109C166.847 88.7645 167.471 88.8145 167.995 89.1573C168.615 89.5616 169 90.3241 169 91.1406V105.247C169 106.518 168.692 106.984 168.107 107.769C167.791 108.189 167.363 108.763 166.809 109.776C164.606 113.654 161.44 116.927 157.651 119.253C152.598 122.353 143.094 128.195 136.201 132.455C130.401 136.04 123.076 136.718 115.99 137.376C110.241 137.912 104.814 138.416 100.755 140.442C97.8516 141.894 94.3895 142.383 90.6733 142.383L90.6848 142.379ZM68.1715 138.832C71.314 138.832 74.9147 139.294 78.6772 139.779C86.4795 140.785 94.5474 141.824 100.078 139.059C104.391 136.903 109.963 136.387 115.855 135.836C122.76 135.193 129.904 134.53 135.396 131.138C142.293 126.878 151.797 121.036 156.85 117.936C160.416 115.745 163.397 112.664 165.469 109.021C166.069 107.923 166.535 107.296 166.878 106.841C167.352 106.21 167.463 106.06 167.463 105.243V91.1367C167.463 90.7709 167.298 90.5359 167.155 90.4435C167.044 90.3703 166.963 90.3896 166.905 90.4166C162.388 92.4037 158.048 93.4088 153.022 94.5719C146.394 96.1084 138.881 97.8491 128.606 102.397C122.595 105.058 116.306 104.662 110.229 104.277C106.767 104.057 103.493 103.853 100.52 104.25C96.9389 104.727 92.0712 103.822 86.4371 102.778C83.0597 102.151 79.5706 101.504 76.0007 101.088C63.1728 99.5898 50.1986 99.4203 50.0677 99.4203L49.9714 99.4126C46.2474 98.8928 42.431 98.8465 38.7455 98.8042C34.8213 98.758 31.1127 98.7118 28.0126 98.084C20.7341 96.6052 15.6623 94.2599 11.5917 92.3768C8.71495 91.0481 6.23102 89.9005 3.85106 89.4962C3.49291 89.4345 3.13862 89.6579 2.90755 89.8582C2.12964 90.5167 1.54428 91.8145 1.54428 92.8774V106.221C1.54428 106.918 2.18355 108.197 2.74196 108.624L2.78817 108.659C3.00768 108.825 3.23489 108.998 3.45055 109.217C10.6867 116.488 24.3811 128.561 29.8226 127.691C33.7507 127.063 40.1781 129.955 46.983 133.017C53.938 136.148 61.1279 139.387 65.7684 138.94C66.5348 138.867 67.3397 138.832 68.1754 138.832H68.1715Z" fill="#A04952"/>
<path d="M2.92718 89.8428L1.96826 88.6374C2.07994 88.5488 4.78724 86.4385 13.4367 83.1073L13.9913 84.5437C5.55745 87.7902 2.95413 89.8235 2.92718 89.8428Z" fill="#A04952"/>
<path d="M167.271 90.5168C163.543 88.6452 159.018 88.9225 158.972 88.9225L158.868 87.3859C159.068 87.3705 163.851 87.074 167.964 89.142L167.271 90.5168Z" fill="#A04952"/>
<path d="M110.892 137.119C112.702 137.658 130.444 134.508 132.727 133.718C135.011 132.929 157.116 119.577 160.212 116.477C163.305 113.377 168.238 106.61 168.238 106.61C168.238 106.61 168.238 99.5091 167.618 101.985C167.487 102.509 167.271 103.198 167.017 103.961C165.816 107.527 164.244 110.727 159.157 112.691C158.429 112.972 156.261 115.41 155.76 116.608C153.916 121.033 149.179 120.998 145.081 124.037C140.984 127.075 136.594 123.397 135.307 127.264C134.225 130.514 131.46 131.862 126.4 132.956C125.441 133.164 118.524 132.659 117.623 132.844C114.034 133.576 112.806 133.183 112.297 133.179C111.881 133.175 110.822 133.048 109.598 132.879C105.439 132.309 101.202 132.782 97.282 134.284C93.8738 135.59 90.5311 136.984 90.5311 136.984C87.3347 138.983 81.0074 138.509 77.6301 138.744C74.0293 138.998 71.2681 134.585 67.0396 134.307C65.8458 134.23 61.7252 137.565 54.385 135.405C50.9961 134.407 49.2169 132.378 48.285 130.483C47.3877 128.658 45.4968 127.476 43.4673 127.587C41.1798 127.714 39.1733 126.37 32.1105 126.251C27.1657 126.166 24.5432 124.144 23.1491 122.072C21.7666 120.012 19.6061 118.587 17.1491 118.248C9.26601 117.159 0.774414 105.447 0.774414 105.447V107.354C0.774414 107.354 18.7088 123.52 22.1208 126.316C25.5329 129.112 31.3018 128.381 33.4237 128.65C35.5457 128.92 60.8317 140.554 64.3015 139.733C67.7752 138.913 92.9111 141.998 94.4207 141.867C95.9303 141.736 98.911 139.972 98.911 139.972L110.892 137.122V137.119Z" fill="#A04952"/>
<path d="M102.415 105.17C104.091 104.885 103.293 104.619 109.717 104.723C109.759 104.723 112.694 105.594 114.712 106.456C117.616 107.696 117.939 107.65 120.492 105.794C121.736 104.889 124.105 103.826 128.622 103.094C130.132 102.852 131.668 102.89 133.182 103.125C134.522 103.333 136.359 103.306 137.46 101.985C139.351 99.7209 142.898 97.0175 146.383 97.7184C149.872 98.4231 154.023 94.083 157.416 93.6362C160.813 93.1934 164.294 94.8455 165.908 92.504C165.908 92.504 168.215 89.5926 166.597 89.7082C164.98 89.8237 155.31 93.4745 148.443 95.0034C141.581 96.5284 124.771 104.862 117.716 104.342C110.661 103.826 101.772 103.441 101.772 103.441C96.7428 103.784 74.7725 101.192 72.3078 99.9135C69.8431 98.6349 43.4518 98.2999 43.4518 98.2999C38.7766 98.2074 28.9256 98.5194 23.9 96.4783C18.8743 94.4373 5.40332 89.2306 5.40332 89.2306V89.7736C5.40332 89.7736 8.00664 92.2075 10.6369 94.4334C13.2672 96.6632 14.823 94.934 17.3339 96.1548C19.8448 97.3795 22.9565 99.9712 26.4224 99.6901C29.8922 99.409 32.6072 102.386 35.7959 103.749C38.5571 104.931 39.5276 102.544 41.8536 102.162C42.7894 102.008 43.7137 101.789 44.6148 101.504C46.6251 100.869 55.4941 102.929 61.6327 104.207C70.983 106.156 72.3694 103.395 78.9817 103.179C85.594 102.964 83.4875 105.293 91.825 105.432C100.163 105.571 102.408 105.155 102.408 105.155L102.415 105.17Z" fill="#A04952"/>
<path d="M165.203 91.5027C165.203 91.5027 167.197 91.8955 167.398 94.2293C167.841 99.3242 167.987 89.3423 167.987 89.3423L165.203 91.5027Z" fill="#A04952"/>
<path d="M5.40713 89.6C5.40713 89.6 1.27879 89.2765 1.17867 101.985L0.766602 91.8337C0.766602 91.8337 2.34554 87.9094 4.40971 88.0134C6.47388 88.1135 5.40328 89.6 5.40328 89.6H5.40713Z" fill="#A04952"/>
<path d="M19.7948 109.021C16.1671 108.871 10.1902 105.713 9.93604 105.578L10.117 105.239C10.1787 105.27 16.271 108.49 19.8102 108.636L19.7948 109.021Z" fill="#A04952"/>
<path d="M11.2721 106.029C11.2721 106.029 10.6213 107.115 11.8267 108.07C13.0282 109.025 13.0282 108.389 14.1335 109.025C15.2349 109.664 15.3427 110.238 16.8177 110.238C18.2926 110.238 18.5314 108.671 18.5314 108.671C18.5314 108.671 12.9589 107.115 11.2721 106.029Z" fill="#A04952"/>
<path d="M38.784 112.267C35.1563 112.117 29.1795 108.959 28.9253 108.825L29.1063 108.486C29.1679 108.517 35.2603 111.736 38.7994 111.882L38.784 112.267Z" fill="#A04952"/>
<path d="M30.2614 109.279C30.2614 109.279 29.6106 110.13 30.8159 110.885C32.0175 111.636 31.9404 112.087 33.0418 112.591C34.1433 113.092 34.332 112.591 35.8069 112.591C37.2819 112.591 38.0328 112.079 38.0328 112.079C38.0328 112.079 31.9636 110.585 30.2614 109.283V109.279Z" fill="#A04952"/>
<path d="M53.6607 120.609C50.6915 120.609 49.1973 119.993 48.4849 119.515L48.7005 119.196C49.7211 119.877 52.4399 120.852 59.1908 119.681L59.2563 120.058C56.9726 120.455 55.1356 120.605 53.6607 120.605V120.609Z" fill="#A04952"/>
<path d="M49.9138 119.889C49.9138 119.889 49.5788 120.609 50.9421 120.994C52.3092 121.379 52.1205 122.092 53.3182 122.265C53.8689 122.346 54.666 120.74 55.1744 120.89C56.141 121.179 57.2 120.986 57.9702 120.336C58.1281 120.201 58.2052 120.112 58.2052 120.112C58.2052 120.112 51.9125 120.663 49.9138 119.889Z" fill="#A04952"/>
<path d="M76.0544 123.651C72.6655 123.651 68.8183 122.866 68.6064 122.82L68.6835 122.442C68.7528 122.458 75.4998 123.836 78.9388 122.981L79.0313 123.355C78.1763 123.567 77.1365 123.648 76.0505 123.648L76.0544 123.651Z" fill="#A04952"/>
<path d="M70.0158 122.881C70.0158 122.881 69.6307 123.882 70.9979 124.268C72.365 124.653 72.3688 125.588 73.5704 125.758C74.7719 125.927 74.8528 124.915 76.2661 124.502C77.6833 124.09 78.261 123.386 78.261 123.386C78.261 123.386 72.0184 123.655 70.0158 122.881Z" fill="#A04952"/>
<path d="M117.615 113.866C115.959 113.866 114.716 113.781 114.596 113.773L114.623 113.388C114.692 113.392 121.563 113.866 124.863 112.564L125.006 112.922C123.038 113.7 119.93 113.866 117.619 113.866H117.615Z" fill="#A04952"/>
<path d="M115.998 113.646C115.998 113.646 115.747 114.69 117.153 114.89C118.559 115.09 119.471 115.768 120.681 115.78C121.894 115.791 121.058 115.025 122.406 114.428C123.754 113.831 124.235 113.057 124.235 113.057C124.235 113.057 118.081 114.151 115.998 113.65V113.646Z" fill="#A04952"/>
<path d="M110.106 126.197C108.45 126.197 107.206 126.112 107.087 126.104L107.114 125.719C107.183 125.723 114.057 126.197 117.354 124.895L117.496 125.253C115.528 126.031 112.421 126.197 110.11 126.197H110.106Z" fill="#A04952"/>
<path d="M108.488 125.977C108.488 125.977 107.795 126.501 109.197 126.701C110.599 126.902 110.845 126.959 112.054 126.971C113.267 126.983 114.215 127.691 115.563 127.094C116.911 126.497 116.726 125.384 116.726 125.384C116.726 125.384 110.572 126.478 108.488 125.977Z" fill="#A04952"/>
<path d="M139.351 111.012L139.32 110.627C139.401 110.619 147.365 109.953 150.449 108.205L150.638 108.54C147.48 110.327 139.678 110.985 139.351 111.012Z" fill="#A04952"/>
<path d="M140.721 110.693C140.721 110.693 140.702 112.329 142.119 112.333C143.536 112.337 143.04 110.978 144.241 110.824C145.443 110.669 145.924 111.355 147.176 110.573C148.427 109.795 149.898 108.779 149.898 108.779C149.898 108.779 142.855 110.901 140.721 110.696V110.693Z" fill="#A04952"/>
<path d="M154.89 104.858C154.89 104.858 154.79 105.925 156.207 105.929C157.624 105.929 157.551 107.103 158.752 106.945C159.954 106.788 160.092 105.517 161.344 104.739C162.596 103.961 162.965 103.125 162.965 103.125C162.965 103.125 157.023 105.062 154.89 104.858Z" fill="#A04952"/>
<path d="M12.5779 92.0454L11.981 47.0535L29.6727 47.7351L29.6958 63.9019L28.1554 63.9057L28.1362 49.2178L13.5445 48.6555L14.1183 92.0223L12.5779 92.0454Z" fill="#A04952"/>
<path d="M28.9481 48.3782L27.4077 48.3667L27.4385 45.0124L23.0675 44.8583L22.9828 48.1163L21.4424 48.0778L21.5656 43.264L28.9905 43.5259L28.9481 48.3782Z" fill="#A04952"/>
<path d="M54.5044 98.1456L52.9639 98.1302L53.2566 60.2242L21.855 65.7505L20.7768 94.8914L19.2363 94.8337L20.3608 64.4488L54.8086 58.3872L54.5044 98.1456Z" fill="#A04952"/>
<path d="M138.839 97.1326L137.984 73.8953L146.691 73.3446L146.552 60.9095L159.55 60.4397L159.619 91.9298L158.079 91.9336L158.013 62.034L148.112 62.3922L148.247 74.7887L139.578 75.3394L140.375 97.0748L138.839 97.1326Z" fill="#A04952"/>
<path d="M85.3354 83.446H83.7949V46.6953H63.6308L63.7694 42.1434H49.1662L48.5038 60.4359L46.9634 60.382L47.6797 40.603H65.3561L65.2174 45.1549H85.3354V83.446Z" fill="#A04952"/>
<path d="M91.4049 102.771L89.8645 102.748L90.1302 84.1663L70.8133 82.8877L70.0238 100.175L68.4834 100.102L69.346 81.2472L91.6899 82.726L91.4049 102.771Z" fill="#A04952"/>
<path d="M99.6116 71.7312L98.7028 6.68678L76.3666 6.55585L76.2318 45.5132L74.6914 45.5093L74.83 5.00772L100.224 5.15406L101.152 71.712L99.6116 71.7312Z" fill="#A04952"/>
<path d="M140.733 73.853L139.505 39.2281L121.971 24.6403L123.87 71.1843L122.329 71.2459L120.292 21.2398L141.022 38.481L142.274 73.7991L140.733 73.853Z" fill="#A04952"/>
<path d="M96.7616 103.595L96.4805 70.6643L131.668 71.0994L132.376 100.533L130.836 100.572L130.162 72.6206L98.0324 72.224L98.302 103.579L96.7616 103.595Z" fill="#A04952"/>
<path d="M111.384 71.0997L110.857 53.3386L100.082 52.9958L100.132 51.4554L112.351 51.8443L112.925 71.0534L111.384 71.0997Z" fill="#A04952"/>
<path d="M28.9022 92.4616H27.3618V99.1278H28.9022V92.4616Z" fill="#A04952"/>
<path d="M28.1013 92.889C25.9139 92.889 24.1309 91.1098 24.1309 88.9185C24.1309 86.7273 25.9101 84.9481 28.1013 84.9481C30.2926 84.9481 32.0717 86.7273 32.0717 88.9185C32.0717 91.1098 30.2926 92.889 28.1013 92.889ZM28.1013 86.4923C26.7611 86.4923 25.6713 87.5822 25.6713 88.9224C25.6713 90.2625 26.7611 91.3524 28.1013 91.3524C29.4415 91.3524 30.5313 90.2625 30.5313 88.9224C30.5313 87.5822 29.4415 86.4923 28.1013 86.4923Z" fill="#A04952"/>
<path d="M29.018 92.3228C28.2478 91.5719 27.8203 90.5629 27.8203 89.4846C27.8203 87.9865 28.6483 86.631 29.9846 85.9493L30.6855 87.3203C29.8691 87.7401 29.3607 88.5681 29.3607 89.4846C29.3607 90.1431 29.6188 90.7593 30.0924 91.2214L29.018 92.3228Z" fill="#A04952"/>
<path d="M27.8739 92.0225L26.3374 91.8955L27.1037 91.9571L26.3374 91.8993C26.3374 90.8133 25.6673 89.8852 24.666 89.5579L25.1435 88.0945C26.7802 88.6298 27.8778 90.1471 27.8778 91.8647C27.8778 91.9147 27.8778 91.9648 27.8739 92.0187V92.0225Z" fill="#A04952"/>
<path d="M62.3642 94.7333H60.8237V101.399H62.3642V94.7333Z" fill="#A04952"/>
<path d="M61.5632 95.1608C59.3758 95.1608 57.5928 93.3816 57.5928 91.1904C57.5928 88.9991 59.372 87.2199 61.5632 87.2199C63.7545 87.2199 65.5337 88.9991 65.5337 91.1904C65.5337 93.3816 63.7545 95.1608 61.5632 95.1608ZM61.5632 88.7642C60.223 88.7642 59.1332 89.854 59.1332 91.1942C59.1332 92.5344 60.223 93.6242 61.5632 93.6242C62.9034 93.6242 63.9932 92.5344 63.9932 91.1942C63.9932 89.854 62.9034 88.7642 61.5632 88.7642Z" fill="#A04952"/>
<path d="M62.4755 94.5948C61.7053 93.8438 61.2778 92.8349 61.2778 91.7566C61.2778 90.2585 62.1058 88.9029 63.4421 88.2213L64.143 89.5923C63.3266 90.012 62.8183 90.84 62.8183 91.7566C62.8183 92.4151 63.0763 93.0313 63.55 93.4934L62.4755 94.5986V94.5948Z" fill="#A04952"/>
<path d="M61.3359 94.2981L59.8032 94.1634L60.5696 94.2327L59.8032 94.1711C59.8032 93.0889 59.1331 92.1608 58.1318 91.8335L58.6132 90.3701C60.2499 90.9054 61.3475 92.4227 61.3475 94.1402C61.3475 94.1942 61.3475 94.2442 61.3436 94.2981H61.3359Z" fill="#A04952"/>
<path d="M146.098 89.3535H144.557V96.0196H146.098V89.3535Z" fill="#A04952"/>
<path d="M145.297 89.7809C143.109 89.7809 141.326 88.0017 141.326 85.8104C141.326 83.6192 143.105 81.8438 145.297 81.8438C147.488 81.8438 149.267 83.623 149.267 85.8104C149.267 87.9978 147.488 89.7809 145.297 89.7809ZM145.297 83.3843C143.956 83.3843 142.867 84.4741 142.867 85.8104C142.867 87.1467 143.956 88.2404 145.297 88.2404C146.637 88.2404 147.727 87.1506 147.727 85.8104C147.727 84.4703 146.637 83.3843 145.297 83.3843Z" fill="#A04952"/>
<path d="M146.213 89.211C145.443 88.4601 145.016 87.4511 145.016 86.3728C145.016 84.8748 145.844 83.5192 147.18 82.8375L147.881 84.2085C147.064 84.6283 146.556 85.4563 146.556 86.3728C146.556 87.0313 146.814 87.6475 147.288 88.1096L146.213 89.211Z" fill="#A04952"/>
<path d="M145.07 88.9144L143.533 88.7912L144.3 88.8528L143.533 88.7951C143.533 87.7091 142.863 86.781 141.862 86.4536L142.339 84.9902C143.976 85.5255 145.074 87.0428 145.074 88.7604C145.074 88.8105 145.074 88.8605 145.07 88.9144Z" fill="#A04952"/>
<path d="M154.651 86.8697H153.11V93.5359H154.651V86.8697Z" fill="#A04952"/>
<path d="M153.85 87.2971C151.662 87.2971 149.879 85.5179 149.879 83.3267C149.879 81.1354 151.659 79.3562 153.85 79.3562C156.041 79.3562 157.82 81.1354 157.82 83.3267C157.82 85.5179 156.041 87.2971 153.85 87.2971ZM153.85 80.9005C152.51 80.9005 151.42 81.9904 151.42 83.3305C151.42 84.6707 152.51 85.7605 153.85 85.7605C155.19 85.7605 156.28 84.6707 156.28 83.3305C156.28 81.9904 155.19 80.9005 153.85 80.9005Z" fill="#A04952"/>
<path d="M154.767 86.7312C153.996 85.9802 153.569 84.9713 153.569 83.893C153.569 82.3949 154.397 81.0393 155.733 80.3577L156.434 81.7287C155.618 82.1484 155.109 82.9764 155.109 83.893C155.109 84.5515 155.367 85.1677 155.841 85.6298L154.767 86.7312Z" fill="#A04952"/>
<path d="M153.622 86.4306L152.086 86.3036L152.852 86.3652L152.086 86.3074C152.086 85.2214 151.416 84.2933 150.415 83.966L150.892 82.5026C152.529 83.0379 153.626 84.5552 153.626 86.2728C153.626 86.3228 153.626 86.3729 153.622 86.4268V86.4306Z" fill="#A04952"/>
<path d="M36.2521 88.0641L36.228 100.592L37.7684 100.595L37.7925 88.0671L36.2521 88.0641Z" fill="#A04952"/>
<path d="M38.9956 99.4818L37.0316 98.2995L35.3795 99.451L34.4976 98.1878L36.9699 96.4626L39.7889 98.1609L38.9956 99.4818Z" fill="#A04952"/>
<path d="M40.4015 97.0248L36.8431 94.9644L33.4773 97.0171L32.6763 95.7L36.8239 93.1737L41.1756 95.6923L40.4015 97.0248Z" fill="#A04952"/>
<path d="M40.0703 93.7129L36.8893 91.9106L33.9509 93.7014L33.1499 92.3843L36.8623 90.1237L40.8289 92.3727L40.0703 93.7129Z" fill="#A04952"/>
<path d="M39.4846 90.2779L36.8544 88.8145L34.4783 90.2625L33.6772 88.9454L36.8159 87.0353L40.2318 88.93L39.4846 90.2779Z" fill="#A04952"/>
<path d="M47.1675 77.8937L46.6509 99.4959L48.1909 99.5327L48.7075 77.9306L47.1675 77.8937Z" fill="#A04952"/>
<path d="M49.3046 97.4098L47.5524 95.5074L46.0004 97.2943L44.8374 96.2815L47.5216 93.1968L50.4407 96.3662L49.3046 97.4098Z" fill="#A04952"/>
<path d="M50.9996 95.0915L47.4643 91.5871L44.1601 94.9067L43.0664 93.8207L47.4566 89.4112L52.0856 93.9978L50.9996 95.0915Z" fill="#A04952"/>
<path d="M50.8379 91.791L47.5222 88.3212L44.2334 91.6254L43.1396 90.5394L47.5453 86.1146L51.9547 90.7281L50.8379 91.791Z" fill="#A04952"/>
<path d="M50.5448 88.3369L47.5987 85.3215L44.7451 88.1867L43.6514 87.1007L47.6064 83.1264L51.6462 87.2624L50.5448 88.3369Z" fill="#A04952"/>
<path d="M50.0867 84.4858L47.6759 82.0673L45.3999 84.3548L44.3101 83.2688L47.6759 79.8837L51.1765 83.3959L50.0867 84.4858Z" fill="#A04952"/>
<path d="M49.8096 80.4306L47.9496 78.5859L46.1665 80.3767L45.0767 79.2907L47.9418 76.4139L50.8918 79.3369L49.8096 80.4306Z" fill="#A04952"/>
<path d="M117.097 84.2193L116.581 105.821L118.121 105.858L118.637 84.2562L117.097 84.2193Z" fill="#A04952"/>
<path d="M119.24 103.737L117.484 101.835L115.932 103.622L114.769 102.609L117.453 99.5242L120.372 102.694L119.24 103.737Z" fill="#A04952"/>
<path d="M120.931 101.419L117.395 97.9145L114.091 101.234L112.998 100.148L117.388 95.7386L122.017 100.325L120.931 101.419Z" fill="#A04952"/>
<path d="M120.773 98.1187L117.453 94.6489L114.165 97.9531L113.075 96.8671L117.476 92.4423L121.886 97.0558L120.773 98.1187Z" fill="#A04952"/>
<path d="M120.48 94.6643L117.53 91.6489L114.677 94.5141L113.587 93.4281L117.538 89.4538L121.582 93.5898L120.48 94.6643Z" fill="#A04952"/>
<path d="M120.018 90.8132L117.607 88.3947L115.335 90.6823L114.241 89.5963L117.607 86.2112L121.108 89.7233L120.018 90.8132Z" fill="#A04952"/>
<path d="M119.741 86.758L117.881 84.9133L116.102 86.7041L115.008 85.6181L117.873 82.7375L120.827 85.6643L119.741 86.758Z" fill="#A04952"/>
<path d="M106.62 92.5151H105.08V103.121H106.62V92.5151Z" fill="#A04952"/>
<path d="M105.816 92.7424C105.569 92.7424 105.323 92.727 105.076 92.6962C103.524 92.4998 102.138 91.7142 101.179 90.478C100.22 89.2418 99.7964 87.7052 99.9928 86.1532C100.189 84.6013 100.975 83.2149 102.211 82.256C103.447 81.2932 104.984 80.8734 106.536 81.0698C108.088 81.2662 109.474 82.0519 110.433 83.288C111.392 84.5242 111.816 86.0608 111.619 87.6128C111.423 89.1648 110.637 90.5512 109.401 91.5101C108.361 92.3188 107.11 92.7424 105.816 92.7424ZM105.796 82.5602C104.841 82.5602 103.921 82.876 103.155 83.469C102.242 84.1776 101.664 85.1982 101.518 86.3419C101.375 87.4857 101.683 88.6179 102.392 89.5306C103.101 90.4433 104.121 91.021 105.265 91.1673C106.409 91.3098 107.541 90.9979 108.454 90.2931C109.366 89.5845 109.944 88.564 110.09 87.4202C110.233 86.2765 109.925 85.1443 109.216 84.2316C108.508 83.3189 107.487 82.7412 106.343 82.5949C106.162 82.5718 105.977 82.5602 105.796 82.5602Z" fill="#A04952"/>
<path d="M102.912 87.5626C102.069 87.5626 101.218 87.3777 100.42 87.008L101.071 85.6139C102.55 86.3071 104.271 86.1107 105.558 85.1133C106.486 84.3931 107.067 83.3533 107.198 82.1903L108.727 82.3636C108.55 83.9464 107.761 85.3559 106.501 86.3302C105.45 87.1466 104.187 87.5664 102.908 87.5664L102.912 87.5626Z" fill="#A04952"/>
<path d="M108.084 91.2442C107.225 88.8527 107.999 86.1994 110.005 84.6397C110.059 84.5973 110.117 84.5549 110.175 84.5164L111.011 85.8104C110.991 85.8258 110.972 85.8412 110.949 85.8566C109.47 87.0081 108.9 88.9644 109.532 90.7243L108.08 91.2442H108.084Z" fill="#A04952"/>
<path d="M47.8264 40.5916L47.8726 60.2705L41.9844 61.5144L42.6275 43.992L47.8264 40.5916Z" fill="#A04952"/>
<path d="M69.4618 81.2742L68.9766 99.0699L66.2886 99.4127L67.1512 84.3088L69.4618 81.2742Z" fill="#A04952"/>
<path d="M96.7733 70.7222L97.2547 103.31L93.7387 103.106L93.3921 72.5476L96.4961 70.6529L96.7733 70.7222Z" fill="#A04952"/>
<path d="M138.088 73.9069L139.744 97.2867L136.709 98.6654L136.158 76.0443L138.088 73.9069Z" fill="#A04952"/>
<path d="M103.328 52.4064L103.12 71.5847L101.052 71.4461L100.67 52.6491L103.328 52.4064Z" fill="#A04952"/>
<path d="M120.361 21.3014L122.267 60.7016L122.318 71.5847L118.436 71.2035L117.215 23.7006L120.361 21.3014Z" fill="#A04952"/>
<path d="M20.4645 64.3639L19.7983 96.2083L16.625 94.483L17.5223 68.731L20.4645 64.3639Z" fill="#A04952"/>
<path d="M12.0038 47.0496L13.0859 92.6885L10.2092 91.4716L10.0513 49.0059L12.0038 47.0496Z" fill="#A04952"/>
<path d="M74.8453 4.99994L75.7811 45.7865L71.9185 45.8327L72.2882 7.62251L74.8453 4.99994Z" fill="#A04952"/>
<path d="M98.1635 10.6917H76.998V7.14871H98.1635V10.6878V10.6917ZM78.5385 9.15126H96.6231V8.69299H78.5385V9.15126Z" fill="#A04952"/>
<path d="M98.1635 15.3131H76.998V11.7739H98.1635V15.3131ZM78.5385 13.7726H96.6231V13.3144H78.5385V13.7726Z" fill="#A04952"/>
<path d="M98.1635 19.9344H76.998V16.3952H98.1635V19.9344ZM78.5385 18.3939H96.6231V17.9357H78.5385V18.3939Z" fill="#A04952"/>
<path d="M98.1635 24.5557H76.998V21.0166H98.1635V24.5557ZM78.5385 23.0153H96.6231V22.557H78.5385V23.0153Z" fill="#A04952"/>
<path d="M98.1635 29.177H76.998V25.6379H98.1635V29.177ZM78.5385 27.6366H96.6231V27.1783H78.5385V27.6366Z" fill="#A04952"/>
<path d="M98.1635 33.7981H76.998V30.2589H98.1635V33.7981ZM78.5385 32.2576H96.6231V31.7994H78.5385V32.2576Z" fill="#A04952"/>
<path d="M98.1635 38.4194H76.998V34.8802H98.1635V38.4194ZM78.5385 36.879H96.6231V36.4207H78.5385V36.879Z" fill="#A04952"/>
<path d="M98.1635 43.0407H76.998V39.5016H98.1635V43.0407ZM78.5385 41.5003H96.6231V41.042H78.5385V41.5003Z" fill="#A04952"/>
<path d="M98.1632 47.662H83.7949V44.1229H98.1632V47.662ZM85.3353 46.1216H96.6228V45.6633H85.3353V46.1216Z" fill="#A04952"/>
<path d="M98.1637 52.2834H83.9302V48.7442H98.1637V52.2834ZM85.4706 50.7429H96.6233V50.2847H85.4706V50.7429Z" fill="#A04952"/>
<path d="M98.1632 56.9044H83.7949V53.3653H98.1632V56.9044ZM85.3353 55.364H96.6228V54.9057H85.3353V55.364Z" fill="#A04952"/>
<path d="M98.1636 61.5257H84.0225V57.9866H98.1636V61.5257ZM85.5629 59.9853H96.6231V59.527H85.5629V59.9853Z" fill="#A04952"/>
<path d="M98.1632 66.1471H83.7949V62.6079H98.1632V66.1471ZM85.3353 64.6066H96.6228V64.1484H85.3353V64.6066Z" fill="#A04952"/>
<path d="M98.1637 70.7684H83.8647V67.2292H98.1637V70.7684ZM85.4052 69.228H96.6233V68.7697H85.4052V69.228Z" fill="#A04952"/>
<path d="M97.9822 75.3897H83.7949V71.8506H97.9822V75.3897ZM85.3353 73.8493H96.4418V73.391H85.3353V73.8493Z" fill="#A04952"/>
<path d="M97.9829 80.011H83.8418V76.4719H97.9829V80.011ZM85.3822 78.4706H96.4425V78.0123H85.3822V78.4706Z" fill="#A04952"/>
<path d="M97.9828 88.4831H90.1421V84.9439H97.9828V88.4831ZM91.6825 86.9426H96.4424V86.4843H91.6825V86.9426Z" fill="#A04952"/>
<path d="M97.9825 93.1044H90.0493V89.5652H97.9825V93.1044ZM91.5897 91.5639H96.4421V91.1057H91.5897V91.5639Z" fill="#A04952"/>
<path d="M97.9825 97.7257H90.0493V94.1866H97.9825V97.7257ZM91.5897 96.1853H96.4421V95.727H91.5897V96.1853Z" fill="#A04952"/>
<path d="M97.9825 102.347H90.0493V98.8079H97.9825V102.347ZM91.5897 100.807H96.4421V100.348H91.5897V100.807Z" fill="#A04952"/>
<path d="M97.9822 84.6862L83.9567 83.681L83.7949 81.0854H97.9861V84.6823L97.9822 84.6862ZM90.8116 82.6297L96.4418 83.0341V82.6297H90.8116Z" fill="#A04952"/>
<path d="M6.14417 76.3998L6.12012 88.9273L7.66054 88.9303L7.68459 76.4028L6.14417 76.3998Z" fill="#A04952"/>
<path d="M10.2902 85.3638L6.73564 83.2996L3.36596 85.3523L2.56494 84.039L6.71254 81.5089L11.0642 84.0275L10.2902 85.3638Z" fill="#A04952"/>
<path d="M9.95844 82.0481L6.77747 80.2458L3.83911 82.0365L3.03809 80.7233L6.75051 78.4589L10.721 80.7079L9.95844 82.0481Z" fill="#A04952"/>
<path d="M9.37332 78.6128L6.74304 77.1533L4.37079 78.5974L3.56592 77.2842L6.70453 75.3702L10.1204 77.2688L9.37332 78.6128Z" fill="#A04952"/>
<path d="M9.69837 78.8153L9.67432 91.3427L11.2147 91.3457L11.2388 78.8182L9.69837 78.8153Z" fill="#A04952"/>
<path d="M13.8448 87.7784L10.2864 85.7143L6.92059 87.7669L6.11572 86.4537L10.2672 83.9235L14.615 86.4421L13.8448 87.7784Z" fill="#A04952"/>
<path d="M13.5136 84.4628L10.3326 82.6605L7.39423 84.4512L6.58936 83.1341L10.3018 80.8736L14.2722 83.1226L13.5136 84.4628Z" fill="#A04952"/>
<path d="M12.9246 81.0275L10.2944 79.5679L7.92211 81.0121L7.12109 79.6989L10.2597 77.7849L13.6717 79.6796L12.9246 81.0275Z" fill="#A04952"/>
<path d="M4.45166 88.6181L13.4863 92.3074C13.4863 92.3074 13.1397 87.3048 13.1397 87.1701C13.1397 87.0353 9.51966 85.1714 9.51966 85.1714L4.45166 88.6219V88.6181Z" fill="#A04952"/>
<path d="M158.714 88.6026L159.23 92.3458L165.542 89.7733L163.37 88.36L158.714 88.6026Z" fill="#A04952"/>
<path d="M94.859 118.063C93.2031 118.063 91.9553 117.978 91.8359 117.967L91.8629 117.582C91.9322 117.586 98.8064 118.059 102.103 116.761L102.245 117.12C100.277 117.894 97.1697 118.063 94.8629 118.063H94.859Z" fill="#A04952"/>
<path d="M93.2419 117.844C93.2419 117.844 92.9916 118.887 94.3972 119.088C95.8028 119.288 95.9107 119.731 97.1237 119.742C98.3368 119.754 98.3022 119.218 99.65 118.622C100.998 118.025 101.479 117.251 101.479 117.251C101.479 117.251 95.3253 118.344 93.2419 117.844Z" fill="#A04952"/>
<path d="M68.2639 110.939C66.6079 110.939 65.364 110.854 65.2446 110.846L65.2716 110.461C65.3409 110.465 72.2151 110.939 75.5116 109.637L75.654 109.995C73.6862 110.773 70.5784 110.939 68.2677 110.939H68.2639Z" fill="#A04952"/>
<path d="M66.6504 110.719C66.6504 110.719 65.9572 111.243 67.359 111.443C68.7608 111.643 69.0072 111.701 70.2165 111.713C71.4296 111.724 72.3769 112.433 73.7248 111.836C75.0727 111.239 74.8878 110.126 74.8878 110.126C74.8878 110.126 68.7338 111.22 66.6504 110.719Z" fill="#A04952"/>
<path d="M15.2017 50.1205L15.1538 51.6602L26.2588 52.0053L26.3066 50.4656L15.2017 50.1205Z" fill="#A04952"/>
<path d="M15.2041 52.8154L15.1562 54.355L26.2612 54.7001L26.309 53.1605L15.2041 52.8154Z" fill="#A04952"/>
<path d="M15.2026 55.514L15.1548 57.0537L26.2597 57.3988L26.3076 55.8591L15.2026 55.514Z" fill="#A04952"/>
<path d="M15.2017 58.2089L15.1538 59.7485L26.2588 60.0936L26.3066 58.554L15.2017 58.2089Z" fill="#A04952"/>
<path d="M15.2281 60.909L15.1279 62.4462L26.1648 63.1657L26.265 61.6285L15.2281 60.909Z" fill="#A04952"/>
<path d="M15.2396 63.9905L15.1201 65.5263L21.3285 66.0094L21.448 64.4737L15.2396 63.9905Z" fill="#A04952"/>
<path d="M15.2137 67.0649L15.1436 68.6038L20.9372 68.8679L21.0074 67.3291L15.2137 67.0649Z" fill="#A04952"/>
<path d="M15.2108 70.1438L15.1406 71.6826L20.9343 71.9467L21.0045 70.4079L15.2108 70.1438Z" fill="#A04952"/>
<path d="M15.2117 73.2262L15.1416 74.765L20.9353 75.0291L21.0054 73.4903L15.2117 73.2262Z" fill="#A04952"/>
<path d="M15.2122 76.3047L15.1421 77.8436L20.9358 78.1077L21.0059 76.5688L15.2122 76.3047Z" fill="#A04952"/>
<path d="M15.2127 79.3874L15.1426 80.9263L20.9363 81.1904L21.0064 79.6515L15.2127 79.3874Z" fill="#A04952"/>
<path d="M15.2132 82.466L15.1431 84.0048L20.9367 84.2689L21.0069 82.7301L15.2132 82.466Z" fill="#A04952"/>
<path d="M15.1943 85.5469L15.1597 87.087L20.7808 87.2136L20.8155 85.6735L15.1943 85.5469Z" fill="#A04952"/>
<path d="M15.2013 88.6346L15.1572 90.1743L20.4002 90.3245L20.4443 88.7847L15.2013 88.6346Z" fill="#A04952"/>
<path d="M125.402 25.8543L123.863 25.9188L125.773 71.4869L127.312 71.4224L125.402 25.8543Z" fill="#A04952"/>
<path d="M129.292 29.3519L127.752 29.393L128.876 71.4894L130.416 71.4483L129.292 29.3519Z" fill="#A04952"/>
<path d="M132.603 31.816L131.063 31.8539L132.726 99.3888L134.266 99.3509L132.603 31.816Z" fill="#A04952"/>
<path d="M136.11 34.7572L134.57 34.7889L135.901 99.3883L137.441 99.3566L136.11 34.7572Z" fill="#A04952"/>
<path d="M139.42 37.6254L137.879 37.6423L138.278 73.9133L139.819 73.8963L139.42 37.6254Z" fill="#A04952"/>
<path d="M109.671 54.3397H104.406V55.8801H109.671V54.3397Z" fill="#A04952"/>
<path d="M109.671 56.6502H104.406V58.1907H109.671V56.6502Z" fill="#A04952"/>
<path d="M109.671 58.961H104.406V60.5015H109.671V58.961Z" fill="#A04952"/>
<path d="M109.671 61.2716H104.406V62.812H109.671V61.2716Z" fill="#A04952"/>
<path d="M109.671 63.5821H104.406V65.1225H109.671V63.5821Z" fill="#A04952"/>
<path d="M109.671 65.8929H104.406V67.4333H109.671V65.8929Z" fill="#A04952"/>
<path d="M109.671 68.2034H104.406V69.7438H109.671V68.2034Z" fill="#A04952"/>
<path d="M72.1656 83.8268L72.0381 85.3619L88.0879 86.6956L88.2155 85.1604L72.1656 83.8268Z" fill="#A04952"/>
<path d="M72.1691 86.1363L72.0415 87.6714L88.0913 89.0051L88.2189 87.4699L72.1691 86.1363Z" fill="#A04952"/>
<path d="M72.1691 88.4494L72.0415 89.9846L88.0913 91.3182L88.2189 89.7831L72.1691 88.4494Z" fill="#A04952"/>
<path d="M72.1686 90.7589L72.041 92.2941L88.0908 93.6277L88.2184 92.0926L72.1686 90.7589Z" fill="#A04952"/>
<path d="M72.1686 93.0684L72.041 94.6035L88.0908 95.9372L88.2184 94.402L72.1686 93.0684Z" fill="#A04952"/>
<path d="M72.1681 95.3818L72.0405 96.9169L88.0904 98.2506L88.2179 96.7154L72.1681 95.3818Z" fill="#A04952"/>
<path d="M72.1681 97.691L72.0405 99.2262L88.0904 100.56L88.2179 99.0247L72.1681 97.691Z" fill="#A04952"/>
<path d="M72.1681 100.001L72.0405 101.536L88.0904 102.869L88.2179 101.334L72.1681 100.001Z" fill="#A04952"/>
<path d="M50.5515 43.6708L49.7246 57.1898L51.2622 57.2838L52.089 43.7649L50.5515 43.6708Z" fill="#A04952"/>
<path d="M54.403 43.6703L53.5762 57.1893L55.1137 57.2833L55.9406 43.7644L54.403 43.6703Z" fill="#A04952"/>
<path d="M58.2468 43.6742L56.2266 85.8875L57.7652 85.9611L59.7855 43.7479L58.2468 43.6742Z" fill="#A04952"/>
<path d="M62.0974 43.6747L60.0771 85.888L61.6158 85.9616L63.6361 43.7484L62.0974 43.6747Z" fill="#A04952"/>
<path d="M65.5473 47.6811L63.9258 85.8916L65.4648 85.9569L67.0864 47.7464L65.5473 47.6811Z" fill="#A04952"/>
<path d="M69.4053 47.6896L68.0806 79.969L69.6197 80.0321L70.9444 47.7527L69.4053 47.6896Z" fill="#A04952"/>
<path d="M73.1078 47.9176L71.9326 79.9677L73.472 80.0241L74.6472 47.974L73.1078 47.9176Z" fill="#A04952"/>
<path d="M76.9561 47.918L75.6997 80.0383L77.239 80.0985L78.4953 47.9783L76.9561 47.918Z" fill="#A04952"/>
<path d="M80.8071 47.9189L79.6318 79.969L81.1712 80.0254L82.3465 47.9753L80.8071 47.9189Z" fill="#A04952"/>
<path d="M111.704 55.9805L111.429 57.4962L119.799 59.0143L120.074 57.4986L111.704 55.9805Z" fill="#A04952"/>
<path d="M120.049 71.5386L118.513 71.4423L118.563 70.6875L111.766 69.7748L111.689 65.8275L118.205 67.0213L118.166 65.712L111.384 64.6067V59.9739L118.439 61.7377L118.347 60.9097L111.858 59.5541L112.174 58.0445L119.756 59.6311L120.215 63.771L112.925 61.9456V63.2935L119.664 64.3949L119.807 68.8814L113.264 67.6837L113.279 68.4231L120.188 69.3512L120.049 71.5386Z" fill="#A04952"/>
<path d="M63.265 41.1576L61.7246 41.1268L61.8671 33.1012L73.0814 23.6776L74.0711 24.856L63.396 33.829L63.265 41.1576Z" fill="#A04952"/>
<path d="M61.9751 33.028L59.857 35.0652L59.4873 40.7686L61.925 41.0459L61.9751 33.028Z" fill="#A04952"/>
</g>
<defs>
<clipPath id="clip0_393_524">
<rect width="169" height="142" fill="white"/>
</clipPath>
</defs>
</svg>
