<svg width="217" height="40" viewBox="0 0 217 40" fill="none" xmlns="http://www.w3.org/2000/svg">
<path d="M28.3977 8.27273H29.4545V14.5114C29.4545 15.0682 29.3523 15.5412 29.1477 15.9304C28.9432 16.3196 28.6548 16.6151 28.2827 16.8168C27.9105 17.0185 27.4716 17.1193 26.9659 17.1193C26.4886 17.1193 26.0639 17.0327 25.6918 16.8594C25.3196 16.6832 25.027 16.4332 24.8139 16.1094C24.6009 15.7855 24.4943 15.4006 24.4943 14.9545H25.5341C25.5341 15.2017 25.5952 15.4176 25.7173 15.6023C25.8423 15.7841 26.0128 15.9261 26.2287 16.0284C26.4446 16.1307 26.6903 16.1818 26.9659 16.1818C27.2699 16.1818 27.5284 16.1179 27.7415 15.9901C27.9545 15.8622 28.1165 15.6747 28.2273 15.4276C28.3409 15.1776 28.3977 14.8722 28.3977 14.5114V8.27273ZM34.1804 17.1364C33.5497 17.1364 33.0057 16.9972 32.5483 16.7188C32.0938 16.4375 31.7429 16.0455 31.4957 15.5426C31.2514 15.0369 31.1293 14.4489 31.1293 13.7784C31.1293 13.108 31.2514 12.517 31.4957 12.0057C31.7429 11.4915 32.0866 11.0909 32.527 10.804C32.9702 10.5142 33.4872 10.3693 34.0781 10.3693C34.419 10.3693 34.7557 10.4261 35.0881 10.5398C35.4205 10.6534 35.723 10.8381 35.9957 11.0938C36.2685 11.3466 36.4858 11.6818 36.6477 12.0994C36.8097 12.517 36.8906 13.0312 36.8906 13.642V14.0682H31.8452V13.1989H35.8679C35.8679 12.8295 35.794 12.5 35.6463 12.2102C35.5014 11.9205 35.294 11.6918 35.0241 11.5241C34.7571 11.3565 34.4418 11.2727 34.0781 11.2727C33.6776 11.2727 33.331 11.3722 33.0384 11.571C32.7486 11.767 32.5256 12.0227 32.3693 12.3381C32.2131 12.6534 32.1349 12.9915 32.1349 13.3523V13.9318C32.1349 14.4261 32.2202 14.8452 32.3906 15.1889C32.5639 15.5298 32.804 15.7898 33.1108 15.9688C33.4176 16.1449 33.7741 16.233 34.1804 16.233C34.4446 16.233 34.6832 16.196 34.8963 16.1222C35.1122 16.0455 35.2983 15.9318 35.4545 15.7812C35.6108 15.6278 35.7315 15.4375 35.8168 15.2102L36.7884 15.483C36.6861 15.8125 36.5142 16.1023 36.2727 16.3523C36.0313 16.5994 35.733 16.7926 35.3778 16.9318C35.0227 17.0682 34.6236 17.1364 34.1804 17.1364ZM44.4545 17.1364C43.8409 17.1364 43.3125 16.9915 42.8693 16.7017C42.4261 16.4119 42.0852 16.0128 41.8466 15.5043C41.608 14.9957 41.4886 14.4148 41.4886 13.7614C41.4886 13.0966 41.6108 12.5099 41.8551 12.0014C42.1023 11.4901 42.446 11.0909 42.8864 10.804C43.3295 10.5142 43.8466 10.3693 44.4375 10.3693C44.8977 10.3693 45.3125 10.4545 45.6818 10.625C46.0511 10.7955 46.3537 11.0341 46.5895 11.3409C46.8253 11.6477 46.9716 12.0057 47.0284 12.4148H46.0227C45.946 12.1165 45.7756 11.8523 45.5114 11.6222C45.25 11.3892 44.8977 11.2727 44.4545 11.2727C44.0625 11.2727 43.7188 11.375 43.4233 11.5795C43.1307 11.7812 42.902 12.0668 42.7372 12.4361C42.5753 12.8026 42.4943 13.233 42.4943 13.7273C42.4943 14.233 42.5739 14.6733 42.733 15.0483C42.8949 15.4233 43.1222 15.7145 43.4148 15.9219C43.7102 16.1293 44.0568 16.233 44.4545 16.233C44.7159 16.233 44.9531 16.1875 45.1662 16.0966C45.3793 16.0057 45.5597 15.875 45.7074 15.7045C45.8551 15.5341 45.9602 15.3295 46.0227 15.0909H47.0284C46.9716 15.4773 46.831 15.8253 46.6065 16.1349C46.3849 16.4418 46.0909 16.6861 45.7244 16.8679C45.3608 17.0469 44.9375 17.1364 44.4545 17.1364ZM51.1577 17.1364C50.5668 17.1364 50.0483 16.9957 49.6023 16.7145C49.1591 16.4332 48.8125 16.0398 48.5625 15.5341C48.3153 15.0284 48.1918 14.4375 48.1918 13.7614C48.1918 13.0795 48.3153 12.4844 48.5625 11.9759C48.8125 11.4673 49.1591 11.0724 49.6023 10.7912C50.0483 10.5099 50.5668 10.3693 51.1577 10.3693C51.7486 10.3693 52.2656 10.5099 52.7088 10.7912C53.1548 11.0724 53.5014 11.4673 53.7486 11.9759C53.9986 12.4844 54.1236 13.0795 54.1236 13.7614C54.1236 14.4375 53.9986 15.0284 53.7486 15.5341C53.5014 16.0398 53.1548 16.4332 52.7088 16.7145C52.2656 16.9957 51.7486 17.1364 51.1577 17.1364ZM51.1577 16.233C51.6065 16.233 51.9759 16.1179 52.2656 15.8878C52.5554 15.6577 52.7699 15.3551 52.9091 14.9801C53.0483 14.6051 53.1179 14.1989 53.1179 13.7614C53.1179 13.3239 53.0483 12.9162 52.9091 12.5384C52.7699 12.1605 52.5554 11.8551 52.2656 11.6222C51.9759 11.3892 51.6065 11.2727 51.1577 11.2727C50.7088 11.2727 50.3395 11.3892 50.0497 11.6222C49.7599 11.8551 49.5455 12.1605 49.4062 12.5384C49.267 12.9162 49.1974 13.3239 49.1974 13.7614C49.1974 14.1989 49.267 14.6051 49.4062 14.9801C49.5455 15.3551 49.7599 15.6577 50.0497 15.8878C50.3395 16.1179 50.7088 16.233 51.1577 16.233ZM56.6644 13.0625V17H55.6587V10.4545H56.6303V11.4773H56.7156C56.869 11.1449 57.1019 10.8778 57.4144 10.6761C57.7269 10.4716 58.1303 10.3693 58.6246 10.3693C59.0678 10.3693 59.4556 10.4602 59.788 10.642C60.1204 10.821 60.3789 11.0938 60.5636 11.4602C60.7482 11.8239 60.8406 12.2841 60.8406 12.8409V17H59.8349V12.9091C59.8349 12.3949 59.7013 11.9943 59.4343 11.7074C59.1673 11.4176 58.8008 11.2727 58.3349 11.2727C58.0138 11.2727 57.7269 11.3423 57.4741 11.4815C57.2241 11.6207 57.0266 11.8239 56.8817 12.0909C56.7369 12.358 56.6644 12.6818 56.6644 13.0625ZM63.6839 13.0625V17H62.6783V10.4545H63.6499V11.4773H63.7351C63.8885 11.1449 64.1214 10.8778 64.4339 10.6761C64.7464 10.4716 65.1499 10.3693 65.6442 10.3693C66.0874 10.3693 66.4751 10.4602 66.8075 10.642C67.1399 10.821 67.3984 11.0938 67.5831 11.4602C67.7678 11.8239 67.8601 12.2841 67.8601 12.8409V17H66.8544V12.9091C66.8544 12.3949 66.7209 11.9943 66.4538 11.7074C66.1868 11.4176 65.8203 11.2727 65.3544 11.2727C65.0334 11.2727 64.7464 11.3423 64.4936 11.4815C64.2436 11.6207 64.0462 11.8239 63.9013 12.0909C63.7564 12.358 63.6839 12.6818 63.6839 13.0625ZM71.6239 17.1534C71.2092 17.1534 70.8327 17.0753 70.4947 16.919C70.1566 16.7599 69.8881 16.5312 69.6893 16.233C69.4904 15.9318 69.391 15.5682 69.391 15.142C69.391 14.767 69.4648 14.4631 69.6126 14.2301C69.7603 13.9943 69.9577 13.8097 70.2049 13.6761C70.4521 13.5426 70.7248 13.4432 71.0231 13.3778C71.3242 13.3097 71.6268 13.2557 71.9308 13.2159C72.3285 13.1648 72.6509 13.1264 72.8981 13.1009C73.1481 13.0724 73.3299 13.0256 73.4435 12.9602C73.56 12.8949 73.6183 12.7812 73.6183 12.6193V12.5852C73.6183 12.1648 73.5032 11.8381 73.2731 11.6051C73.0458 11.3722 72.7006 11.2557 72.2376 11.2557C71.7575 11.2557 71.381 11.3608 71.1083 11.571C70.8356 11.7812 70.6438 12.0057 70.533 12.2443L69.5785 11.9034C69.7489 11.5057 69.9762 11.196 70.2603 10.9744C70.5472 10.75 70.8597 10.5937 71.1978 10.5057C71.5387 10.4148 71.8739 10.3693 72.2035 10.3693C72.4137 10.3693 72.6552 10.3949 72.9279 10.446C73.2035 10.4943 73.4691 10.5952 73.7248 10.7486C73.9833 10.902 74.1978 11.1335 74.3683 11.4432C74.5387 11.7528 74.6239 12.1676 74.6239 12.6875V17H73.6183V16.1136H73.5671C73.4989 16.2557 73.3853 16.4077 73.2262 16.5696C73.0671 16.7315 72.8555 16.8693 72.5913 16.983C72.3271 17.0966 72.0046 17.1534 71.6239 17.1534ZM71.7773 16.25C72.1751 16.25 72.5103 16.1719 72.783 16.0156C73.0586 15.8594 73.266 15.6577 73.4052 15.4105C73.5472 15.1634 73.6183 14.9034 73.6183 14.6307V13.7102C73.5756 13.7614 73.4819 13.8082 73.337 13.8509C73.195 13.8906 73.0302 13.9261 72.8427 13.9574C72.658 13.9858 72.4776 14.0114 72.3015 14.0341C72.1282 14.054 71.9876 14.071 71.8796 14.0852C71.6183 14.1193 71.3739 14.1747 71.1467 14.2514C70.9222 14.3253 70.7404 14.4375 70.6012 14.5881C70.4648 14.7358 70.3967 14.9375 70.3967 15.1932C70.3967 15.5426 70.5259 15.8068 70.7844 15.9858C71.0458 16.1619 71.3768 16.25 71.7773 16.25ZM76.4595 17V10.4545H77.4652V17H76.4595ZM76.9709 9.36364C76.7749 9.36364 76.6058 9.29688 76.4638 9.16335C76.3246 9.02983 76.255 8.86932 76.255 8.68182C76.255 8.49432 76.3246 8.33381 76.4638 8.20028C76.6058 8.06676 76.7749 8 76.9709 8C77.1669 8 77.3345 8.06676 77.4737 8.20028C77.6158 8.33381 77.6868 8.49432 77.6868 8.68182C77.6868 8.86932 77.6158 9.02983 77.4737 9.16335C77.3345 9.29688 77.1669 9.36364 76.9709 9.36364ZM83.9435 11.9205L83.0401 12.1761C82.9833 12.0256 82.8995 11.8793 82.7887 11.7372C82.6808 11.5923 82.533 11.473 82.3455 11.3793C82.158 11.2855 81.918 11.2386 81.6254 11.2386C81.2248 11.2386 80.891 11.331 80.6239 11.5156C80.3597 11.6974 80.2276 11.929 80.2276 12.2102C80.2276 12.4602 80.3185 12.6577 80.5004 12.8026C80.6822 12.9474 80.9663 13.0682 81.3526 13.1648L82.3242 13.4034C82.9094 13.5455 83.3455 13.7628 83.6325 14.0554C83.9194 14.3452 84.0629 14.7187 84.0629 15.1761C84.0629 15.5511 83.9549 15.8864 83.739 16.1818C83.5259 16.4773 83.2276 16.7102 82.8441 16.8807C82.4606 17.0511 82.0146 17.1364 81.506 17.1364C80.8384 17.1364 80.2859 16.9915 79.8484 16.7017C79.4109 16.4119 79.1339 15.9886 79.0174 15.4318L79.9719 15.1932C80.0629 15.5455 80.2347 15.8097 80.4876 15.9858C80.7433 16.1619 81.0771 16.25 81.489 16.25C81.9577 16.25 82.3299 16.1506 82.6055 15.9517C82.8839 15.75 83.0231 15.5085 83.0231 15.2273C83.0231 15 82.9435 14.8097 82.7844 14.6562C82.6254 14.5 82.381 14.3835 82.0515 14.3068L80.9606 14.0511C80.3612 13.9091 79.9208 13.6889 79.6396 13.3906C79.3612 13.0895 79.2219 12.7131 79.2219 12.2614C79.2219 11.892 79.3256 11.5653 79.533 11.2812C79.7433 10.9972 80.0288 10.7741 80.3896 10.6122C80.7532 10.4503 81.1651 10.3693 81.6254 10.3693C82.2731 10.3693 82.7816 10.5114 83.1509 10.7955C83.5231 11.0795 83.7873 11.4545 83.9435 11.9205ZM93.0767 14.3239V10.4545H94.0824V17H93.0767V15.892H93.0085C92.8551 16.2244 92.6165 16.5071 92.2926 16.7401C91.9688 16.9702 91.5597 17.0852 91.0653 17.0852C90.6562 17.0852 90.2926 16.9957 89.9744 16.8168C89.6563 16.6349 89.4063 16.3622 89.2244 15.9986C89.0426 15.6321 88.9517 15.1705 88.9517 14.6136V10.4545H89.9574V14.5455C89.9574 15.0227 90.0909 15.4034 90.358 15.6875C90.6278 15.9716 90.9716 16.1136 91.3892 16.1136C91.6392 16.1136 91.8935 16.0497 92.152 15.9219C92.4134 15.794 92.6321 15.598 92.8082 15.3338C92.9872 15.0696 93.0767 14.733 93.0767 14.3239ZM96.93 13.0625V17H95.9244V10.4545H96.896V11.4773H96.9812C97.1346 11.1449 97.3675 10.8778 97.68 10.6761C97.9925 10.4716 98.396 10.3693 98.8903 10.3693C99.3335 10.3693 99.7212 10.4602 100.054 10.642C100.386 10.821 100.645 11.0938 100.829 11.4602C101.014 11.8239 101.106 12.2841 101.106 12.8409V17H100.1V12.9091C100.1 12.3949 99.967 11.9943 99.6999 11.7074C99.4329 11.4176 99.0664 11.2727 98.6005 11.2727C98.2795 11.2727 97.9925 11.3423 97.7397 11.4815C97.4897 11.6207 97.2923 11.8239 97.1474 12.0909C97.0025 12.358 96.93 12.6818 96.93 13.0625ZM108.245 17.1534C107.83 17.1534 107.454 17.0753 107.116 16.919C106.778 16.7599 106.509 16.5312 106.31 16.233C106.112 15.9318 106.012 15.5682 106.012 15.142C106.012 14.767 106.086 14.4631 106.234 14.2301C106.381 13.9943 106.579 13.8097 106.826 13.6761C107.073 13.5426 107.346 13.4432 107.644 13.3778C107.945 13.3097 108.248 13.2557 108.552 13.2159C108.95 13.1648 109.272 13.1264 109.519 13.1009C109.769 13.0724 109.951 13.0256 110.065 12.9602C110.181 12.8949 110.239 12.7812 110.239 12.6193V12.5852C110.239 12.1648 110.124 11.8381 109.894 11.6051C109.667 11.3722 109.322 11.2557 108.859 11.2557C108.379 11.2557 108.002 11.3608 107.729 11.571C107.457 11.7812 107.265 12.0057 107.154 12.2443L106.2 11.9034C106.37 11.5057 106.597 11.196 106.881 10.9744C107.168 10.75 107.481 10.5937 107.819 10.5057C108.16 10.4148 108.495 10.3693 108.825 10.3693C109.035 10.3693 109.276 10.3949 109.549 10.446C109.825 10.4943 110.09 10.5952 110.346 10.7486C110.604 10.902 110.819 11.1335 110.989 11.4432C111.16 11.7528 111.245 12.1676 111.245 12.6875V17H110.239V16.1136H110.188C110.12 16.2557 110.006 16.4077 109.847 16.5696C109.688 16.7315 109.477 16.8693 109.212 16.983C108.948 17.0966 108.626 17.1534 108.245 17.1534ZM108.398 16.25C108.796 16.25 109.131 16.1719 109.404 16.0156C109.68 15.8594 109.887 15.6577 110.026 15.4105C110.168 15.1634 110.239 14.9034 110.239 14.6307V13.7102C110.197 13.7614 110.103 13.8082 109.958 13.8509C109.816 13.8906 109.651 13.9261 109.464 13.9574C109.279 13.9858 109.099 14.0114 108.923 14.0341C108.749 14.054 108.609 14.071 108.501 14.0852C108.239 14.1193 107.995 14.1747 107.768 14.2514C107.543 14.3253 107.362 14.4375 107.222 14.5881C107.086 14.7358 107.018 14.9375 107.018 15.1932C107.018 15.5426 107.147 15.8068 107.406 15.9858C107.667 16.1619 107.998 16.25 108.398 16.25ZM115.723 19.5909C115.237 19.5909 114.819 19.5284 114.47 19.4034C114.12 19.2812 113.829 19.1193 113.596 18.9176C113.366 18.7188 113.183 18.5057 113.047 18.2784L113.848 17.7159C113.939 17.8352 114.054 17.9716 114.193 18.125C114.332 18.2812 114.522 18.4162 114.764 18.5298C115.008 18.6463 115.328 18.7045 115.723 18.7045C116.251 18.7045 116.687 18.5767 117.031 18.321C117.375 18.0653 117.547 17.6648 117.547 17.1193V15.7898H117.461C117.387 15.9091 117.282 16.0568 117.146 16.233C117.012 16.4062 116.819 16.5611 116.566 16.6974C116.316 16.831 115.978 16.8977 115.552 16.8977C115.024 16.8977 114.549 16.7727 114.129 16.5227C113.711 16.2727 113.38 15.9091 113.136 15.4318C112.895 14.9545 112.774 14.375 112.774 13.6932C112.774 13.0227 112.892 12.4389 113.127 11.9418C113.363 11.4418 113.691 11.0554 114.112 10.7827C114.532 10.5071 115.018 10.3693 115.569 10.3693C115.995 10.3693 116.333 10.4403 116.583 10.5824C116.836 10.7216 117.029 10.8807 117.163 11.0597C117.299 11.2358 117.404 11.3807 117.478 11.4943H117.581V10.4545H118.552V17.1875C118.552 17.75 118.424 18.2074 118.169 18.5597C117.916 18.9148 117.575 19.1747 117.146 19.3395C116.72 19.5071 116.245 19.5909 115.723 19.5909ZM115.689 15.9943C116.092 15.9943 116.433 15.902 116.711 15.7173C116.99 15.5327 117.201 15.267 117.346 14.9205C117.491 14.5739 117.564 14.1591 117.564 13.6761C117.564 13.2045 117.493 12.7884 117.35 12.4276C117.208 12.0668 116.998 11.7841 116.72 11.5795C116.441 11.375 116.098 11.2727 115.689 11.2727C115.262 11.2727 114.907 11.3807 114.623 11.5966C114.342 11.8125 114.13 12.1023 113.988 12.4659C113.849 12.8295 113.779 13.233 113.779 13.6761C113.779 14.1307 113.85 14.5327 113.993 14.8821C114.137 15.2287 114.35 15.5014 114.632 15.7003C114.916 15.8963 115.268 15.9943 115.689 15.9943ZM120.393 17V10.4545H121.365V11.4432H121.433C121.552 11.1193 121.768 10.8565 122.081 10.6548C122.393 10.4531 122.745 10.3523 123.137 10.3523C123.211 10.3523 123.304 10.3537 123.414 10.3565C123.525 10.3594 123.609 10.3636 123.666 10.3693V11.392C123.632 11.3835 123.554 11.3707 123.431 11.3537C123.312 11.3338 123.186 11.3239 123.052 11.3239C122.734 11.3239 122.45 11.3906 122.2 11.5241C121.953 11.6548 121.757 11.8366 121.612 12.0696C121.47 12.2997 121.399 12.5625 121.399 12.858V17H120.393ZM124.858 17V10.4545H125.864V17H124.858ZM125.369 9.36364C125.173 9.36364 125.004 9.29688 124.862 9.16335C124.723 9.02983 124.653 8.86932 124.653 8.68182C124.653 8.49432 124.723 8.33381 124.862 8.20028C125.004 8.06676 125.173 8 125.369 8C125.565 8 125.733 8.06676 125.872 8.20028C126.014 8.33381 126.085 8.49432 126.085 8.68182C126.085 8.86932 126.014 9.02983 125.872 9.16335C125.733 9.29688 125.565 9.36364 125.369 9.36364ZM130.365 17.1364C129.751 17.1364 129.223 16.9915 128.779 16.7017C128.336 16.4119 127.995 16.0128 127.757 15.5043C127.518 14.9957 127.399 14.4148 127.399 13.7614C127.399 13.0966 127.521 12.5099 127.765 12.0014C128.012 11.4901 128.356 11.0909 128.797 10.804C129.24 10.5142 129.757 10.3693 130.348 10.3693C130.808 10.3693 131.223 10.4545 131.592 10.625C131.961 10.7955 132.264 11.0341 132.5 11.3409C132.735 11.6477 132.882 12.0057 132.939 12.4148H131.933C131.856 12.1165 131.686 11.8523 131.422 11.6222C131.16 11.3892 130.808 11.2727 130.365 11.2727C129.973 11.2727 129.629 11.375 129.333 11.5795C129.041 11.7812 128.812 12.0668 128.647 12.4361C128.485 12.8026 128.404 13.233 128.404 13.7273C128.404 14.233 128.484 14.6733 128.643 15.0483C128.805 15.4233 129.032 15.7145 129.325 15.9219C129.62 16.1293 129.967 16.233 130.365 16.233C130.626 16.233 130.863 16.1875 131.076 16.0966C131.289 16.0057 131.47 15.875 131.618 15.7045C131.765 15.5341 131.87 15.3295 131.933 15.0909H132.939C132.882 15.4773 132.741 15.8253 132.517 16.1349C132.295 16.4418 132.001 16.6861 131.635 16.8679C131.271 17.0469 130.848 17.1364 130.365 17.1364ZM138.534 14.3239V10.4545H139.539V17H138.534V15.892H138.466C138.312 16.2244 138.074 16.5071 137.75 16.7401C137.426 16.9702 137.017 17.0852 136.522 17.0852C136.113 17.0852 135.75 16.9957 135.431 16.8168C135.113 16.6349 134.863 16.3622 134.681 15.9986C134.5 15.6321 134.409 15.1705 134.409 14.6136V10.4545H135.414V14.5455C135.414 15.0227 135.548 15.4034 135.815 15.6875C136.085 15.9716 136.429 16.1136 136.846 16.1136C137.096 16.1136 137.35 16.0497 137.609 15.9219C137.87 15.794 138.089 15.598 138.265 15.3338C138.444 15.0696 138.534 14.733 138.534 14.3239ZM142.387 8.27273V17H141.381V8.27273H142.387ZM147.076 10.4545V11.3068H143.684V10.4545H147.076ZM144.672 8.88636H145.678V15.125C145.678 15.4091 145.719 15.6222 145.801 15.7642C145.887 15.9034 145.995 15.9972 146.125 16.0455C146.259 16.0909 146.4 16.1136 146.547 16.1136C146.658 16.1136 146.749 16.108 146.82 16.0966C146.891 16.0824 146.948 16.071 146.99 16.0625L147.195 16.9659C147.127 16.9915 147.032 17.017 146.909 17.0426C146.787 17.071 146.632 17.0852 146.445 17.0852C146.161 17.0852 145.882 17.0241 145.61 16.902C145.34 16.7798 145.115 16.5938 144.936 16.3438C144.76 16.0938 144.672 15.7784 144.672 15.3977V8.88636ZM151.262 17.1364C150.632 17.1364 150.088 16.9972 149.63 16.7188C149.176 16.4375 148.825 16.0455 148.578 15.5426C148.333 15.0369 148.211 14.4489 148.211 13.7784C148.211 13.108 148.333 12.517 148.578 12.0057C148.825 11.4915 149.169 11.0909 149.609 10.804C150.052 10.5142 150.569 10.3693 151.16 10.3693C151.501 10.3693 151.838 10.4261 152.17 10.5398C152.502 10.6534 152.805 10.8381 153.078 11.0938C153.35 11.3466 153.568 11.6818 153.73 12.0994C153.892 12.517 153.973 13.0312 153.973 13.642V14.0682H148.927V13.1989H152.95C152.95 12.8295 152.876 12.5 152.728 12.2102C152.583 11.9205 152.376 11.6918 152.106 11.5241C151.839 11.3565 151.524 11.2727 151.16 11.2727C150.76 11.2727 150.413 11.3722 150.12 11.571C149.831 11.767 149.608 12.0227 149.451 12.3381C149.295 12.6534 149.217 12.9915 149.217 13.3523V13.9318C149.217 14.4261 149.302 14.8452 149.473 15.1889C149.646 15.5298 149.886 15.7898 150.193 15.9688C150.5 16.1449 150.856 16.233 151.262 16.233C151.527 16.233 151.765 16.196 151.978 16.1222C152.194 16.0455 152.38 15.9318 152.537 15.7812C152.693 15.6278 152.814 15.4375 152.899 15.2102L153.87 15.483C153.768 15.8125 153.596 16.1023 153.355 16.3523C153.113 16.5994 152.815 16.7926 152.46 16.9318C152.105 17.0682 151.706 17.1364 151.262 17.1364ZM159.627 14.3239V10.4545H160.633V17H159.627V15.892H159.559C159.406 16.2244 159.167 16.5071 158.843 16.7401C158.52 16.9702 158.11 17.0852 157.616 17.0852C157.207 17.0852 156.843 16.9957 156.525 16.8168C156.207 16.6349 155.957 16.3622 155.775 15.9986C155.593 15.6321 155.502 15.1705 155.502 14.6136V10.4545H156.508V14.5455C156.508 15.0227 156.642 15.4034 156.909 15.6875C157.179 15.9716 157.522 16.1136 157.94 16.1136C158.19 16.1136 158.444 16.0497 158.703 15.9219C158.964 15.794 159.183 15.598 159.359 15.3338C159.538 15.0696 159.627 14.733 159.627 14.3239ZM162.475 17V10.4545H163.447V11.4432H163.515C163.634 11.1193 163.85 10.8565 164.163 10.6548C164.475 10.4531 164.827 10.3523 165.219 10.3523C165.293 10.3523 165.386 10.3537 165.496 10.3565C165.607 10.3594 165.691 10.3636 165.748 10.3693V11.392C165.714 11.3835 165.636 11.3707 165.513 11.3537C165.394 11.3338 165.268 11.3239 165.134 11.3239C164.816 11.3239 164.532 11.3906 164.282 11.5241C164.035 11.6548 163.839 11.8366 163.694 12.0696C163.552 12.2997 163.481 12.5625 163.481 12.858V17H162.475ZM170.315 19.4545V10.4545H171.287V11.4943H171.406C171.48 11.3807 171.582 11.2358 171.713 11.0597C171.846 10.8807 172.037 10.7216 172.284 10.5824C172.534 10.4403 172.872 10.3693 173.298 10.3693C173.849 10.3693 174.335 10.5071 174.755 10.7827C175.176 11.0582 175.504 11.4489 175.74 11.9545C175.975 12.4602 176.093 13.0568 176.093 13.7443C176.093 14.4375 175.975 15.0384 175.74 15.5469C175.504 16.0526 175.177 16.4446 174.76 16.723C174.342 16.9986 173.86 17.1364 173.315 17.1364C172.895 17.1364 172.558 17.0668 172.305 16.9276C172.052 16.7855 171.858 16.625 171.721 16.446C171.585 16.2642 171.48 16.1136 171.406 15.9943H171.321V19.4545H170.315ZM171.304 13.7273C171.304 14.2216 171.376 14.6577 171.521 15.0355C171.666 15.4105 171.877 15.7045 172.156 15.9176C172.434 16.1278 172.775 16.233 173.179 16.233C173.599 16.233 173.95 16.1222 174.231 15.9006C174.515 15.6761 174.728 15.375 174.87 14.9972C175.015 14.6165 175.088 14.1932 175.088 13.7273C175.088 13.267 175.017 12.8523 174.875 12.483C174.735 12.1108 174.524 11.8168 174.24 11.6009C173.958 11.3821 173.605 11.2727 173.179 11.2727C172.77 11.2727 172.426 11.3764 172.147 11.5838C171.869 11.7884 171.659 12.0753 171.517 12.4446C171.375 12.8111 171.304 13.2386 171.304 13.7273ZM177.627 17V10.4545H178.599V11.4432H178.667C178.787 11.1193 179.002 10.8565 179.315 10.6548C179.627 10.4531 179.98 10.3523 180.372 10.3523C180.446 10.3523 180.538 10.3537 180.649 10.3565C180.76 10.3594 180.843 10.3636 180.9 10.3693V11.392C180.866 11.3835 180.788 11.3707 180.666 11.3537C180.547 11.3338 180.42 11.3239 180.287 11.3239C179.968 11.3239 179.684 11.3906 179.434 11.5241C179.187 11.6548 178.991 11.8366 178.846 12.0696C178.704 12.2997 178.633 12.5625 178.633 12.858V17H177.627ZM184.637 17.1364C184.007 17.1364 183.463 16.9972 183.005 16.7188C182.551 16.4375 182.2 16.0455 181.953 15.5426C181.708 15.0369 181.586 14.4489 181.586 13.7784C181.586 13.108 181.708 12.517 181.953 12.0057C182.2 11.4915 182.544 11.0909 182.984 10.804C183.427 10.5142 183.944 10.3693 184.535 10.3693C184.876 10.3693 185.213 10.4261 185.545 10.5398C185.877 10.6534 186.18 10.8381 186.453 11.0938C186.725 11.3466 186.943 11.6818 187.105 12.0994C187.267 12.517 187.348 13.0312 187.348 13.642V14.0682H182.302V13.1989H186.325C186.325 12.8295 186.251 12.5 186.103 12.2102C185.958 11.9205 185.751 11.6918 185.481 11.5241C185.214 11.3565 184.899 11.2727 184.535 11.2727C184.135 11.2727 183.788 11.3722 183.495 11.571C183.206 11.767 182.983 12.0227 182.826 12.3381C182.67 12.6534 182.592 12.9915 182.592 13.3523V13.9318C182.592 14.4261 182.677 14.8452 182.848 15.1889C183.021 15.5298 183.261 15.7898 183.568 15.9688C183.875 16.1449 184.231 16.233 184.637 16.233C184.902 16.233 185.14 16.196 185.353 16.1222C185.569 16.0455 185.755 15.9318 185.912 15.7812C186.068 15.6278 186.189 15.4375 186.274 15.2102L187.245 15.483C187.143 15.8125 186.971 16.1023 186.73 16.3523C186.488 16.5994 186.19 16.7926 185.835 16.9318C185.48 17.0682 185.081 17.1364 184.637 17.1364ZM184.058 9.56818L182.728 7.59091H183.904L184.944 9.56818H184.058ZM193.514 11.9205L192.61 12.1761C192.554 12.0256 192.47 11.8793 192.359 11.7372C192.251 11.5923 192.103 11.473 191.916 11.3793C191.728 11.2855 191.488 11.2386 191.196 11.2386C190.795 11.2386 190.461 11.331 190.194 11.5156C189.93 11.6974 189.798 11.929 189.798 12.2102C189.798 12.4602 189.889 12.6577 190.071 12.8026C190.252 12.9474 190.537 13.0682 190.923 13.1648L191.895 13.4034C192.48 13.5455 192.916 13.7628 193.203 14.0554C193.49 14.3452 193.633 14.7187 193.633 15.1761C193.633 15.5511 193.525 15.8864 193.309 16.1818C193.096 16.4773 192.798 16.7102 192.414 16.8807C192.031 17.0511 191.585 17.1364 191.076 17.1364C190.409 17.1364 189.856 16.9915 189.419 16.7017C188.981 16.4119 188.704 15.9886 188.588 15.4318L189.542 15.1932C189.633 15.5455 189.805 15.8097 190.058 15.9858C190.314 16.1619 190.647 16.25 191.059 16.25C191.528 16.25 191.9 16.1506 192.176 15.9517C192.454 15.75 192.593 15.5085 192.593 15.2273C192.593 15 192.514 14.8097 192.355 14.6562C192.196 14.5 191.951 14.3835 191.622 14.3068L190.531 14.0511C189.931 13.9091 189.491 13.6889 189.21 13.3906C188.931 13.0895 188.792 12.7131 188.792 12.2614C188.792 11.892 188.896 11.5653 189.103 11.2812C189.314 10.9972 189.599 10.7741 189.96 10.6122C190.324 10.4503 190.735 10.3693 191.196 10.3693C191.843 10.3693 192.352 10.5114 192.721 10.7955C193.093 11.0795 193.358 11.4545 193.514 11.9205ZM27.392 32.1364C26.8466 32.1364 26.3651 31.9986 25.9474 31.723C25.5298 31.4446 25.2031 31.0526 24.9673 30.5469C24.7315 30.0384 24.6136 29.4375 24.6136 28.7443C24.6136 28.0568 24.7315 27.4602 24.9673 26.9545C25.2031 26.4489 25.5313 26.0582 25.9517 25.7827C26.3722 25.5071 26.858 25.3693 27.4091 25.3693C27.8352 25.3693 28.1719 25.4403 28.419 25.5824C28.669 25.7216 28.8594 25.8807 28.9901 26.0597C29.1236 26.2358 29.2273 26.3807 29.3011 26.4943H29.3864V23.2727H30.392V32H29.4205V30.9943H29.3011C29.2273 31.1136 29.1222 31.2642 28.9858 31.446C28.8494 31.625 28.6548 31.7855 28.402 31.9276C28.1491 32.0668 27.8125 32.1364 27.392 32.1364ZM27.5284 31.233C27.9318 31.233 28.2727 31.1278 28.5511 30.9176C28.8295 30.7045 29.0412 30.4105 29.1861 30.0355C29.331 29.6577 29.4034 29.2216 29.4034 28.7273C29.4034 28.2386 29.3324 27.8111 29.1903 27.4446C29.0483 27.0753 28.8381 26.7884 28.5597 26.5838C28.2813 26.3764 27.9375 26.2727 27.5284 26.2727C27.1023 26.2727 26.7472 26.3821 26.4631 26.6009C26.1818 26.8168 25.9702 27.1108 25.8281 27.483C25.6889 27.8523 25.6193 28.267 25.6193 28.7273C25.6193 29.1932 25.6903 29.6165 25.8324 29.9972C25.9773 30.375 26.1903 30.6761 26.4716 30.9006C26.7557 31.1222 27.108 31.233 27.5284 31.233ZM35.1179 32.1364C34.4872 32.1364 33.9432 31.9972 33.4858 31.7188C33.0312 31.4375 32.6804 31.0455 32.4332 30.5426C32.1889 30.0369 32.0668 29.4489 32.0668 28.7784C32.0668 28.108 32.1889 27.517 32.4332 27.0057C32.6804 26.4915 33.0241 26.0909 33.4645 25.804C33.9077 25.5142 34.4247 25.3693 35.0156 25.3693C35.3565 25.3693 35.6932 25.4261 36.0256 25.5398C36.358 25.6534 36.6605 25.8381 36.9332 26.0938C37.206 26.3466 37.4233 26.6818 37.5852 27.0994C37.7472 27.517 37.8281 28.0312 37.8281 28.642V29.0682H32.7827V28.1989H36.8054C36.8054 27.8295 36.7315 27.5 36.5838 27.2102C36.4389 26.9205 36.2315 26.6918 35.9616 26.5241C35.6946 26.3565 35.3793 26.2727 35.0156 26.2727C34.6151 26.2727 34.2685 26.3722 33.9759 26.571C33.6861 26.767 33.4631 27.0227 33.3068 27.3381C33.1506 27.6534 33.0724 27.9915 33.0724 28.3523V28.9318C33.0724 29.4261 33.1577 29.8452 33.3281 30.1889C33.5014 30.5298 33.7415 30.7898 34.0483 30.9688C34.3551 31.1449 34.7116 31.233 35.1179 31.233C35.3821 31.233 35.6207 31.196 35.8338 31.1222C36.0497 31.0455 36.2358 30.9318 36.392 30.7812C36.5483 30.6278 36.669 30.4375 36.7543 30.2102L37.7259 30.483C37.6236 30.8125 37.4517 31.1023 37.2102 31.3523C36.9688 31.5994 36.6705 31.7926 36.3153 31.9318C35.9602 32.0682 35.5611 32.1364 35.1179 32.1364ZM45.392 32.1364C44.7784 32.1364 44.25 31.9915 43.8068 31.7017C43.3636 31.4119 43.0227 31.0128 42.7841 30.5043C42.5455 29.9957 42.4261 29.4148 42.4261 28.7614C42.4261 28.0966 42.5483 27.5099 42.7926 27.0014C43.0398 26.4901 43.3835 26.0909 43.8239 25.804C44.267 25.5142 44.7841 25.3693 45.375 25.3693C45.8352 25.3693 46.25 25.4545 46.6193 25.625C46.9886 25.7955 47.2912 26.0341 47.527 26.3409C47.7628 26.6477 47.9091 27.0057 47.9659 27.4148H46.9602C46.8835 27.1165 46.7131 26.8523 46.4489 26.6222C46.1875 26.3892 45.8352 26.2727 45.392 26.2727C45 26.2727 44.6563 26.375 44.3608 26.5795C44.0682 26.7812 43.8395 27.0668 43.6747 27.4361C43.5128 27.8026 43.4318 28.233 43.4318 28.7273C43.4318 29.233 43.5114 29.6733 43.6705 30.0483C43.8324 30.4233 44.0597 30.7145 44.3523 30.9219C44.6477 31.1293 44.9943 31.233 45.392 31.233C45.6534 31.233 45.8906 31.1875 46.1037 31.0966C46.3168 31.0057 46.4972 30.875 46.6449 30.7045C46.7926 30.5341 46.8977 30.3295 46.9602 30.0909H47.9659C47.9091 30.4773 47.7685 30.8253 47.544 31.1349C47.3224 31.4418 47.0284 31.6861 46.6619 31.8679C46.2983 32.0469 45.875 32.1364 45.392 32.1364ZM50.4418 28.0625V32H49.4361V23.2727H50.4418V26.4773H50.527C50.6804 26.1392 50.9105 25.8707 51.2173 25.6719C51.527 25.4702 51.9389 25.3693 52.4531 25.3693C52.8991 25.3693 53.2898 25.4588 53.625 25.6378C53.9602 25.8139 54.2202 26.0852 54.4048 26.4517C54.5923 26.8153 54.6861 27.2784 54.6861 27.8409V32H53.6804V27.9091C53.6804 27.3892 53.5455 26.9872 53.2756 26.7031C53.0085 26.4162 52.6378 26.2727 52.1634 26.2727C51.8338 26.2727 51.5384 26.3423 51.277 26.4815C51.0185 26.6207 50.8139 26.8239 50.6634 27.0909C50.5156 27.358 50.4418 27.6818 50.4418 28.0625ZM59.2702 32.1364C58.6396 32.1364 58.0955 31.9972 57.6381 31.7188C57.1836 31.4375 56.8327 31.0455 56.5856 30.5426C56.3413 30.0369 56.2191 29.4489 56.2191 28.7784C56.2191 28.108 56.3413 27.517 56.5856 27.0057C56.8327 26.4915 57.1765 26.0909 57.6168 25.804C58.06 25.5142 58.5771 25.3693 59.168 25.3693C59.5089 25.3693 59.8455 25.4261 60.1779 25.5398C60.5103 25.6534 60.8129 25.8381 61.0856 26.0938C61.3583 26.3466 61.5756 26.6818 61.7376 27.0994C61.8995 27.517 61.9805 28.0312 61.9805 28.642V29.0682H56.935V28.1989H60.9577C60.9577 27.8295 60.8839 27.5 60.7362 27.2102C60.5913 26.9205 60.3839 26.6918 60.114 26.5241C59.8469 26.3565 59.5316 26.2727 59.168 26.2727C58.7674 26.2727 58.4208 26.3722 58.1282 26.571C57.8384 26.767 57.6154 27.0227 57.4592 27.3381C57.3029 27.6534 57.2248 27.9915 57.2248 28.3523V28.9318C57.2248 29.4261 57.31 29.8452 57.4805 30.1889C57.6538 30.5298 57.8938 30.7898 58.2006 30.9688C58.5075 31.1449 58.864 31.233 59.2702 31.233C59.5344 31.233 59.7731 31.196 59.9862 31.1222C60.2021 31.0455 60.3881 30.9318 60.5444 30.7812C60.7006 30.6278 60.8214 30.4375 60.9066 30.2102L61.8782 30.483C61.7759 30.8125 61.604 31.1023 61.3626 31.3523C61.1211 31.5994 60.8228 31.7926 60.4677 31.9318C60.1126 32.0682 59.7134 32.1364 59.2702 32.1364ZM63.3228 32V31.233L67.0387 26.4602V26.392H63.4421V25.4545H68.3342V26.2557L64.7205 30.9943V31.0625H68.4535V32H63.3228ZM73.3775 32V25.4545H74.3491V26.4773H74.4343C74.5707 26.1278 74.7908 25.8565 75.0948 25.6634C75.3988 25.4673 75.7638 25.3693 76.19 25.3693C76.6218 25.3693 76.9812 25.4673 77.2681 25.6634C77.5579 25.8565 77.7837 26.1278 77.9457 26.4773H78.0138C78.1815 26.1392 78.4329 25.8707 78.7681 25.6719C79.1033 25.4702 79.5053 25.3693 79.9741 25.3693C80.5593 25.3693 81.038 25.5526 81.4102 25.919C81.7823 26.2827 81.9684 26.8494 81.9684 27.6193V32H80.9627V27.6193C80.9627 27.1364 80.8306 26.7912 80.5664 26.5838C80.3022 26.3764 79.9911 26.2727 79.6332 26.2727C79.1729 26.2727 78.8164 26.4119 78.5636 26.6903C78.3107 26.9659 78.1843 27.3153 78.1843 27.7386V32H77.1616V27.517C77.1616 27.1449 77.0408 26.8452 76.7994 26.6179C76.5579 26.3878 76.2468 26.2727 75.8661 26.2727C75.6048 26.2727 75.3604 26.3423 75.1332 26.4815C74.9087 26.6207 74.7269 26.8139 74.5877 27.0611C74.4513 27.3054 74.3832 27.5881 74.3832 27.9091V32H73.3775ZM86.4663 32.1364C85.8754 32.1364 85.3569 31.9957 84.9109 31.7145C84.4677 31.4332 84.1211 31.0398 83.8711 30.5341C83.6239 30.0284 83.5004 29.4375 83.5004 28.7614C83.5004 28.0795 83.6239 27.4844 83.8711 26.9759C84.1211 26.4673 84.4677 26.0724 84.9109 25.7912C85.3569 25.5099 85.8754 25.3693 86.4663 25.3693C87.0572 25.3693 87.5742 25.5099 88.0174 25.7912C88.4634 26.0724 88.81 26.4673 89.0572 26.9759C89.3072 27.4844 89.4322 28.0795 89.4322 28.7614C89.4322 29.4375 89.3072 30.0284 89.0572 30.5341C88.81 31.0398 88.4634 31.4332 88.0174 31.7145C87.5742 31.9957 87.0572 32.1364 86.4663 32.1364ZM86.4663 31.233C86.9151 31.233 87.2844 31.1179 87.5742 30.8878C87.864 30.6577 88.0785 30.3551 88.2177 29.9801C88.3569 29.6051 88.4265 29.1989 88.4265 28.7614C88.4265 28.3239 88.3569 27.9162 88.2177 27.5384C88.0785 27.1605 87.864 26.8551 87.5742 26.6222C87.2844 26.3892 86.9151 26.2727 86.4663 26.2727C86.0174 26.2727 85.6481 26.3892 85.3583 26.6222C85.0685 26.8551 84.854 27.1605 84.7148 27.5384C84.5756 27.9162 84.506 28.3239 84.506 28.7614C84.506 29.1989 84.5756 29.6051 84.7148 29.9801C84.854 30.3551 85.0685 30.6577 85.3583 30.8878C85.6481 31.1179 86.0174 31.233 86.4663 31.233ZM90.9673 32V25.4545H91.973V32H90.9673ZM91.4787 24.3636C91.2827 24.3636 91.1136 24.2969 90.9716 24.1634C90.8324 24.0298 90.7628 23.8693 90.7628 23.6818C90.7628 23.4943 90.8324 23.3338 90.9716 23.2003C91.1136 23.0668 91.2827 23 91.4787 23C91.6747 23 91.8423 23.0668 91.9815 23.2003C92.1236 23.3338 92.1946 23.4943 92.1946 23.6818C92.1946 23.8693 92.1236 24.0298 91.9815 24.1634C91.8423 24.2969 91.6747 24.3636 91.4787 24.3636Z" fill="black"/>
<rect x="17.375" y="0.375" width="199.25" height="39.25" rx="7.625" stroke="black" stroke-width="0.75"/>
<circle cx="3.5" cy="20.5" r="3.5" fill="#164194"/>
</svg>
