<svg width="217" height="40" viewBox="0 0 217 40" fill="none" xmlns="http://www.w3.org/2000/svg">
<path d="M28.3977 8.27273H29.4545V14.5114C29.4545 15.0682 29.3523 15.5412 29.1477 15.9304C28.9432 16.3196 28.6548 16.6151 28.2827 16.8168C27.9105 17.0185 27.4716 17.1193 26.9659 17.1193C26.4886 17.1193 26.0639 17.0327 25.6918 16.8594C25.3196 16.6832 25.027 16.4332 24.8139 16.1094C24.6009 15.7855 24.4943 15.4006 24.4943 14.9545H25.5341C25.5341 15.2017 25.5952 15.4176 25.7173 15.6023C25.8423 15.7841 26.0128 15.9261 26.2287 16.0284C26.4446 16.1307 26.6903 16.1818 26.9659 16.1818C27.2699 16.1818 27.5284 16.1179 27.7415 15.9901C27.9545 15.8622 28.1165 15.6747 28.2273 15.4276C28.3409 15.1776 28.3977 14.8722 28.3977 14.5114V8.27273ZM34.1804 17.1364C33.5497 17.1364 33.0057 16.9972 32.5483 16.7188C32.0938 16.4375 31.7429 16.0455 31.4957 15.5426C31.2514 15.0369 31.1293 14.4489 31.1293 13.7784C31.1293 13.108 31.2514 12.517 31.4957 12.0057C31.7429 11.4915 32.0866 11.0909 32.527 10.804C32.9702 10.5142 33.4872 10.3693 34.0781 10.3693C34.419 10.3693 34.7557 10.4261 35.0881 10.5398C35.4205 10.6534 35.723 10.8381 35.9957 11.0938C36.2685 11.3466 36.4858 11.6818 36.6477 12.0994C36.8097 12.517 36.8906 13.0312 36.8906 13.642V14.0682H31.8452V13.1989H35.8679C35.8679 12.8295 35.794 12.5 35.6463 12.2102C35.5014 11.9205 35.294 11.6918 35.0241 11.5241C34.7571 11.3565 34.4418 11.2727 34.0781 11.2727C33.6776 11.2727 33.331 11.3722 33.0384 11.571C32.7486 11.767 32.5256 12.0227 32.3693 12.3381C32.2131 12.6534 32.1349 12.9915 32.1349 13.3523V13.9318C32.1349 14.4261 32.2202 14.8452 32.3906 15.1889C32.5639 15.5298 32.804 15.7898 33.1108 15.9688C33.4176 16.1449 33.7741 16.233 34.1804 16.233C34.4446 16.233 34.6832 16.196 34.8963 16.1222C35.1122 16.0455 35.2983 15.9318 35.4545 15.7812C35.6108 15.6278 35.7315 15.4375 35.8168 15.2102L36.7884 15.483C36.6861 15.8125 36.5142 16.1023 36.2727 16.3523C36.0313 16.5994 35.733 16.7926 35.3778 16.9318C35.0227 17.0682 34.6236 17.1364 34.1804 17.1364ZM41.7955 17V10.4545H42.767V11.4773H42.8523C42.9886 11.1278 43.2088 10.8565 43.5128 10.6634C43.8168 10.4673 44.1818 10.3693 44.608 10.3693C45.0398 10.3693 45.3991 10.4673 45.6861 10.6634C45.9759 10.8565 46.2017 11.1278 46.3636 11.4773H46.4318C46.5994 11.1392 46.8509 10.8707 47.1861 10.6719C47.5213 10.4702 47.9233 10.3693 48.392 10.3693C48.9773 10.3693 49.456 10.5526 49.8281 10.919C50.2003 11.2827 50.3864 11.8494 50.3864 12.6193V17H49.3807V12.6193C49.3807 12.1364 49.2486 11.7912 48.9844 11.5838C48.7202 11.3764 48.4091 11.2727 48.0511 11.2727C47.5909 11.2727 47.2344 11.4119 46.9815 11.6903C46.7287 11.9659 46.6023 12.3153 46.6023 12.7386V17H45.5795V12.517C45.5795 12.1449 45.4588 11.8452 45.2173 11.6179C44.9759 11.3878 44.6648 11.2727 44.2841 11.2727C44.0227 11.2727 43.7784 11.3423 43.5511 11.4815C43.3267 11.6207 43.1449 11.8139 43.0057 12.0611C42.8693 12.3054 42.8011 12.5881 42.8011 12.9091V17H41.7955ZM53.1115 8.27273V9.03977C53.1115 9.27273 53.0689 9.52131 52.9837 9.78551C52.9013 10.0469 52.7791 10.3011 52.6172 10.5483C52.4581 10.7926 52.2649 11.0057 52.0376 11.1875L51.4922 10.7443C51.6712 10.4886 51.826 10.223 51.9567 9.94744C52.0902 9.66903 52.157 9.37216 52.157 9.05682V8.27273H53.1115ZM54.44 17V10.4545H55.4457V17H54.44ZM54.9513 9.36364C54.7553 9.36364 54.5863 9.29688 54.4442 9.16335C54.305 9.02983 54.2354 8.86932 54.2354 8.68182C54.2354 8.49432 54.305 8.33381 54.4442 8.20028C54.5863 8.06676 54.7553 8 54.9513 8C55.1474 8 55.315 8.06676 55.4542 8.20028C55.5962 8.33381 55.6673 8.49432 55.6673 8.68182C55.6673 8.86932 55.5962 9.02983 55.4542 9.16335C55.315 9.29688 55.1474 9.36364 54.9513 9.36364ZM58.2933 13.0625V17H57.2876V10.4545H58.2592V11.4773H58.3445C58.4979 11.1449 58.7308 10.8778 59.0433 10.6761C59.3558 10.4716 59.7592 10.3693 60.2536 10.3693C60.6967 10.3693 61.0845 10.4602 61.4169 10.642C61.7493 10.821 62.0078 11.0938 62.1925 11.4602C62.3771 11.8239 62.4695 12.2841 62.4695 12.8409V17H61.4638V12.9091C61.4638 12.3949 61.3303 11.9943 61.0632 11.7074C60.7962 11.4176 60.4297 11.2727 59.9638 11.2727C59.6428 11.2727 59.3558 11.3423 59.103 11.4815C58.853 11.6207 58.6555 11.8239 58.5107 12.0909C58.3658 12.358 58.2933 12.6818 58.2933 13.0625ZM67.1538 10.4545V11.3068H63.7617V10.4545H67.1538ZM64.7504 8.88636H65.756V15.125C65.756 15.4091 65.7972 15.6222 65.8796 15.7642C65.9648 15.9034 66.0728 15.9972 66.2035 16.0455C66.337 16.0909 66.4776 16.1136 66.6254 16.1136C66.7362 16.1136 66.8271 16.108 66.8981 16.0966C66.9691 16.0824 67.0259 16.071 67.0685 16.0625L67.2731 16.9659C67.2049 16.9915 67.1097 17.017 66.9876 17.0426C66.8654 17.071 66.7106 17.0852 66.5231 17.0852C66.239 17.0852 65.9606 17.0241 65.6879 16.902C65.418 16.7798 65.1935 16.5938 65.0146 16.3438C64.8384 16.0938 64.7504 15.7784 64.7504 15.3977V8.88636ZM71.3406 17.1364C70.7099 17.1364 70.1658 16.9972 69.7085 16.7188C69.2539 16.4375 68.9031 16.0455 68.6559 15.5426C68.4116 15.0369 68.2894 14.4489 68.2894 13.7784C68.2894 13.108 68.4116 12.517 68.6559 12.0057C68.9031 11.4915 69.2468 11.0909 69.6871 10.804C70.1303 10.5142 70.6474 10.3693 71.2383 10.3693C71.5792 10.3693 71.9158 10.4261 72.2482 10.5398C72.5806 10.6534 72.8832 10.8381 73.1559 11.0938C73.4286 11.3466 73.646 11.6818 73.8079 12.0994C73.9698 12.517 74.0508 13.0312 74.0508 13.642V14.0682H69.0053V13.1989H73.0281C73.0281 12.8295 72.9542 12.5 72.8065 12.2102C72.6616 11.9205 72.4542 11.6918 72.1843 11.5241C71.9173 11.3565 71.6019 11.2727 71.2383 11.2727C70.8377 11.2727 70.4911 11.3722 70.1985 11.571C69.9087 11.767 69.6857 12.0227 69.5295 12.3381C69.3732 12.6534 69.2951 12.9915 69.2951 13.3523V13.9318C69.2951 14.4261 69.3803 14.8452 69.5508 15.1889C69.7241 15.5298 69.9641 15.7898 70.271 15.9688C70.5778 16.1449 70.9343 16.233 71.3406 16.233C71.6048 16.233 71.8434 16.196 72.0565 16.1222C72.2724 16.0455 72.4585 15.9318 72.6147 15.7812C72.771 15.6278 72.8917 15.4375 72.9769 15.2102L73.9485 15.483C73.8462 15.8125 73.6744 16.1023 73.4329 16.3523C73.1914 16.5994 72.8931 16.7926 72.538 16.9318C72.1829 17.0682 71.7837 17.1364 71.3406 17.1364ZM70.7269 9.56818L71.7667 7.59091H72.9428L71.6133 9.56818H70.7269ZM75.5806 17V10.4545H76.5522V11.4432H76.6204C76.7397 11.1193 76.9556 10.8565 77.2681 10.6548C77.5806 10.4531 77.9329 10.3523 78.3249 10.3523C78.3988 10.3523 78.4911 10.3537 78.6019 10.3565C78.7127 10.3594 78.7965 10.3636 78.8533 10.3693V11.392C78.8192 11.3835 78.7411 11.3707 78.619 11.3537C78.4996 11.3338 78.3732 11.3239 78.2397 11.3239C77.9215 11.3239 77.6374 11.3906 77.3874 11.5241C77.1403 11.6548 76.9442 11.8366 76.7994 12.0696C76.6573 12.2997 76.5863 12.5625 76.5863 12.858V17H75.5806ZM82.5906 17.1364C81.9599 17.1364 81.4158 16.9972 80.9585 16.7188C80.5039 16.4375 80.1531 16.0455 79.9059 15.5426C79.6616 15.0369 79.5394 14.4489 79.5394 13.7784C79.5394 13.108 79.6616 12.517 79.9059 12.0057C80.1531 11.4915 80.4968 11.0909 80.9371 10.804C81.3803 10.5142 81.8974 10.3693 82.4883 10.3693C82.8292 10.3693 83.1658 10.4261 83.4982 10.5398C83.8306 10.6534 84.1332 10.8381 84.4059 11.0938C84.6786 11.3466 84.896 11.6818 85.0579 12.0994C85.2198 12.517 85.3008 13.0312 85.3008 13.642V14.0682H80.2553V13.1989H84.2781C84.2781 12.8295 84.2042 12.5 84.0565 12.2102C83.9116 11.9205 83.7042 11.6918 83.4343 11.5241C83.1673 11.3565 82.8519 11.2727 82.4883 11.2727C82.0877 11.2727 81.7411 11.3722 81.4485 11.571C81.1587 11.767 80.9357 12.0227 80.7795 12.3381C80.6232 12.6534 80.5451 12.9915 80.5451 13.3523V13.9318C80.5451 14.4261 80.6303 14.8452 80.8008 15.1889C80.9741 15.5298 81.2141 15.7898 81.521 15.9688C81.8278 16.1449 82.1843 16.233 82.5906 16.233C82.8548 16.233 83.0934 16.196 83.3065 16.1222C83.5224 16.0455 83.7085 15.9318 83.8647 15.7812C84.021 15.6278 84.1417 15.4375 84.2269 15.2102L85.1985 15.483C85.0962 15.8125 84.9244 16.1023 84.6829 16.3523C84.4414 16.5994 84.1431 16.7926 83.788 16.9318C83.4329 17.0682 83.0337 17.1364 82.5906 17.1364ZM91.467 11.9205L90.5636 12.1761C90.5067 12.0256 90.4229 11.8793 90.3121 11.7372C90.2042 11.5923 90.0565 11.473 89.869 11.3793C89.6815 11.2855 89.4414 11.2386 89.1488 11.2386C88.7482 11.2386 88.4144 11.331 88.1474 11.5156C87.8832 11.6974 87.7511 11.929 87.7511 12.2102C87.7511 12.4602 87.842 12.6577 88.0238 12.8026C88.2056 12.9474 88.4897 13.0682 88.8761 13.1648L89.8477 13.4034C90.4329 13.5455 90.869 13.7628 91.1559 14.0554C91.4428 14.3452 91.5863 14.7187 91.5863 15.1761C91.5863 15.5511 91.4783 15.8864 91.2624 16.1818C91.0494 16.4773 90.7511 16.7102 90.3675 16.8807C89.984 17.0511 89.538 17.1364 89.0295 17.1364C88.3619 17.1364 87.8093 16.9915 87.3718 16.7017C86.9343 16.4119 86.6573 15.9886 86.5408 15.4318L87.4954 15.1932C87.5863 15.5455 87.7582 15.8097 88.011 15.9858C88.2667 16.1619 88.6005 16.25 89.0124 16.25C89.4812 16.25 89.8533 16.1506 90.1289 15.9517C90.4073 15.75 90.5465 15.5085 90.5465 15.2273C90.5465 15 90.467 14.8097 90.3079 14.6562C90.1488 14.5 89.9045 14.3835 89.5749 14.3068L88.484 14.0511C87.8846 13.9091 87.4442 13.6889 87.163 13.3906C86.8846 13.0895 86.7454 12.7131 86.7454 12.2614C86.7454 11.892 86.8491 11.5653 87.0565 11.2812C87.2667 10.9972 87.5522 10.7741 87.913 10.6122C88.2766 10.4503 88.6886 10.3693 89.1488 10.3693C89.7965 10.3693 90.305 10.5114 90.6744 10.7955C91.0465 11.0795 91.3107 11.4545 91.467 11.9205ZM97.7365 11.9205L96.8331 12.1761C96.7763 12.0256 96.6925 11.8793 96.5817 11.7372C96.4737 11.5923 96.326 11.473 96.1385 11.3793C95.951 11.2855 95.7109 11.2386 95.4183 11.2386C95.0178 11.2386 94.6839 11.331 94.4169 11.5156C94.1527 11.6974 94.0206 11.929 94.0206 12.2102C94.0206 12.4602 94.1115 12.6577 94.2933 12.8026C94.4751 12.9474 94.7592 13.0682 95.1456 13.1648L96.1172 13.4034C96.7024 13.5455 97.1385 13.7628 97.4254 14.0554C97.7124 14.3452 97.8558 14.7187 97.8558 15.1761C97.8558 15.5511 97.7479 15.8864 97.532 16.1818C97.3189 16.4773 97.0206 16.7102 96.6371 16.8807C96.2536 17.0511 95.8075 17.1364 95.299 17.1364C94.6314 17.1364 94.0788 16.9915 93.6413 16.7017C93.2038 16.4119 92.9268 15.9886 92.8104 15.4318L93.7649 15.1932C93.8558 15.5455 94.0277 15.8097 94.2805 15.9858C94.5362 16.1619 94.87 16.25 95.282 16.25C95.7507 16.25 96.1229 16.1506 96.3984 15.9517C96.6768 15.75 96.8161 15.5085 96.8161 15.2273C96.8161 15 96.7365 14.8097 96.5774 14.6562C96.4183 14.5 96.174 14.3835 95.8445 14.3068L94.7536 14.0511C94.1541 13.9091 93.7138 13.6889 93.4325 13.3906C93.1541 13.0895 93.0149 12.7131 93.0149 12.2614C93.0149 11.892 93.1186 11.5653 93.326 11.2812C93.5362 10.9972 93.8217 10.7741 94.1825 10.6122C94.5462 10.4503 94.9581 10.3693 95.4183 10.3693C96.0661 10.3693 96.5746 10.5114 96.9439 10.7955C97.3161 11.0795 97.5803 11.4545 97.7365 11.9205ZM102.114 17.1364C101.483 17.1364 100.939 16.9972 100.482 16.7188C100.027 16.4375 99.6765 16.0455 99.4293 15.5426C99.185 15.0369 99.0629 14.4489 99.0629 13.7784C99.0629 13.108 99.185 12.517 99.4293 12.0057C99.6765 11.4915 100.02 11.0909 100.461 10.804C100.904 10.5142 101.421 10.3693 102.012 10.3693C102.353 10.3693 102.689 10.4261 103.022 10.5398C103.354 10.6534 103.657 10.8381 103.929 11.0938C104.202 11.3466 104.419 11.6818 104.581 12.0994C104.743 12.517 104.824 13.0312 104.824 13.642V14.0682H99.7788V13.1989H103.801C103.801 12.8295 103.728 12.5 103.58 12.2102C103.435 11.9205 103.228 11.6918 102.958 11.5241C102.691 11.3565 102.375 11.2727 102.012 11.2727C101.611 11.2727 101.265 11.3722 100.972 11.571C100.682 11.767 100.459 12.0227 100.303 12.3381C100.147 12.6534 100.069 12.9915 100.069 13.3523V13.9318C100.069 14.4261 100.154 14.8452 100.324 15.1889C100.498 15.5298 100.738 15.7898 101.044 15.9688C101.351 16.1449 101.708 16.233 102.114 16.233C102.378 16.233 102.617 16.196 102.83 16.1222C103.046 16.0455 103.232 15.9318 103.388 15.7812C103.544 15.6278 103.665 15.4375 103.75 15.2102L104.722 15.483C104.62 15.8125 104.448 16.1023 104.206 16.3523C103.965 16.5994 103.667 16.7926 103.311 16.9318C102.956 17.0682 102.557 17.1364 102.114 17.1364ZM111.655 17.1534C111.24 17.1534 110.864 17.0753 110.526 16.919C110.188 16.7599 109.919 16.5312 109.721 16.233C109.522 15.9318 109.422 15.5682 109.422 15.142C109.422 14.767 109.496 14.4631 109.644 14.2301C109.792 13.9943 109.989 13.8097 110.236 13.6761C110.483 13.5426 110.756 13.4432 111.054 13.3778C111.355 13.3097 111.658 13.2557 111.962 13.2159C112.36 13.1648 112.682 13.1264 112.929 13.1009C113.179 13.0724 113.361 13.0256 113.475 12.9602C113.591 12.8949 113.65 12.7812 113.65 12.6193V12.5852C113.65 12.1648 113.534 11.8381 113.304 11.6051C113.077 11.3722 112.732 11.2557 112.269 11.2557C111.789 11.2557 111.412 11.3608 111.14 11.571C110.867 11.7812 110.675 12.0057 110.564 12.2443L109.61 11.9034C109.78 11.5057 110.007 11.196 110.292 10.9744C110.578 10.75 110.891 10.5937 111.229 10.5057C111.57 10.4148 111.905 10.3693 112.235 10.3693C112.445 10.3693 112.686 10.3949 112.959 10.446C113.235 10.4943 113.5 10.5952 113.756 10.7486C114.015 10.902 114.229 11.1335 114.4 11.4432C114.57 11.7528 114.655 12.1676 114.655 12.6875V17H113.65V16.1136H113.598C113.53 16.2557 113.417 16.4077 113.257 16.5696C113.098 16.7315 112.887 16.8693 112.623 16.983C112.358 17.0966 112.036 17.1534 111.655 17.1534ZM111.809 16.25C112.206 16.25 112.542 16.1719 112.814 16.0156C113.09 15.8594 113.297 15.6577 113.436 15.4105C113.578 15.1634 113.65 14.9034 113.65 14.6307V13.7102C113.607 13.7614 113.513 13.8082 113.368 13.8509C113.226 13.8906 113.061 13.9261 112.874 13.9574C112.689 13.9858 112.509 14.0114 112.333 14.0341C112.159 14.054 112.019 14.071 111.911 14.0852C111.65 14.1193 111.405 14.1747 111.178 14.2514C110.953 14.3253 110.772 14.4375 110.632 14.5881C110.496 14.7358 110.428 14.9375 110.428 15.1932C110.428 15.5426 110.557 15.8068 110.816 15.9858C111.077 16.1619 111.408 16.25 111.809 16.25ZM120.616 14.3239V10.4545H121.621V17H120.616V15.892H120.548C120.394 16.2244 120.156 16.5071 119.832 16.7401C119.508 16.9702 119.099 17.0852 118.604 17.0852C118.195 17.0852 117.832 16.9957 117.513 16.8168C117.195 16.6349 116.945 16.3622 116.763 15.9986C116.582 15.6321 116.491 15.1705 116.491 14.6136V10.4545H117.496V14.5455C117.496 15.0227 117.63 15.4034 117.897 15.6875C118.167 15.9716 118.511 16.1136 118.928 16.1136C119.178 16.1136 119.433 16.0497 119.691 15.9219C119.952 15.794 120.171 15.598 120.347 15.3338C120.526 15.0696 120.616 14.733 120.616 14.3239ZM124.213 10.4545L125.782 13.1307L127.35 10.4545H128.509L126.395 13.7273L128.509 17H127.35L125.782 14.4602L124.213 17H123.054L125.134 13.7273L123.054 10.4545H124.213ZM135.79 17.1364C135.245 17.1364 134.763 16.9986 134.346 16.723C133.928 16.4446 133.602 16.0526 133.366 15.5469C133.13 15.0384 133.012 14.4375 133.012 13.7443C133.012 13.0568 133.13 12.4602 133.366 11.9545C133.602 11.4489 133.93 11.0582 134.35 10.7827C134.771 10.5071 135.256 10.3693 135.808 10.3693C136.234 10.3693 136.57 10.4403 136.817 10.5824C137.067 10.7216 137.258 10.8807 137.388 11.0597C137.522 11.2358 137.626 11.3807 137.7 11.4943H137.785V8.27273H138.79V17H137.819V15.9943H137.7C137.626 16.1136 137.521 16.2642 137.384 16.446C137.248 16.625 137.053 16.7855 136.8 16.9276C136.548 17.0668 136.211 17.1364 135.79 17.1364ZM135.927 16.233C136.33 16.233 136.671 16.1278 136.95 15.9176C137.228 15.7045 137.44 15.4105 137.585 15.0355C137.729 14.6577 137.802 14.2216 137.802 13.7273C137.802 13.2386 137.731 12.8111 137.589 12.4446C137.447 12.0753 137.237 11.7884 136.958 11.5838C136.68 11.3764 136.336 11.2727 135.927 11.2727C135.501 11.2727 135.146 11.3821 134.862 11.6009C134.58 11.8168 134.369 12.1108 134.227 12.483C134.087 12.8523 134.018 13.267 134.018 13.7273C134.018 14.1932 134.089 14.6165 134.231 14.9972C134.376 15.375 134.589 15.6761 134.87 15.9006C135.154 16.1222 135.506 16.233 135.927 16.233ZM143.516 17.1364C142.886 17.1364 142.342 16.9972 141.884 16.7188C141.43 16.4375 141.079 16.0455 140.832 15.5426C140.587 15.0369 140.465 14.4489 140.465 13.7784C140.465 13.108 140.587 12.517 140.832 12.0057C141.079 11.4915 141.423 11.0909 141.863 10.804C142.306 10.5142 142.823 10.3693 143.414 10.3693C143.755 10.3693 144.092 10.4261 144.424 10.5398C144.756 10.6534 145.059 10.8381 145.332 11.0938C145.604 11.3466 145.822 11.6818 145.984 12.0994C146.146 12.517 146.227 13.0312 146.227 13.642V14.0682H141.181V13.1989H145.204C145.204 12.8295 145.13 12.5 144.982 12.2102C144.837 11.9205 144.63 11.6918 144.36 11.5241C144.093 11.3565 143.778 11.2727 143.414 11.2727C143.013 11.2727 142.667 11.3722 142.374 11.571C142.085 11.767 141.862 12.0227 141.705 12.3381C141.549 12.6534 141.471 12.9915 141.471 13.3523V13.9318C141.471 14.4261 141.556 14.8452 141.727 15.1889C141.9 15.5298 142.14 15.7898 142.447 15.9688C142.754 16.1449 143.11 16.233 143.516 16.233C143.781 16.233 144.019 16.196 144.232 16.1222C144.448 16.0455 144.634 15.9318 144.79 15.7812C144.947 15.6278 145.067 15.4375 145.153 15.2102L146.124 15.483C146.022 15.8125 145.85 16.1023 145.609 16.3523C145.367 16.5994 145.069 16.7926 144.714 16.9318C144.359 17.0682 143.96 17.1364 143.516 17.1364ZM142.903 9.56818L143.942 7.59091H145.119L143.789 9.56818H142.903ZM150.415 17.1364C149.802 17.1364 149.273 16.9915 148.83 16.7017C148.387 16.4119 148.046 16.0128 147.808 15.5043C147.569 14.9957 147.45 14.4148 147.45 13.7614C147.45 13.0966 147.572 12.5099 147.816 12.0014C148.063 11.4901 148.407 11.0909 148.847 10.804C149.29 10.5142 149.808 10.3693 150.398 10.3693C150.859 10.3693 151.273 10.4545 151.643 10.625C152.012 10.7955 152.315 11.0341 152.55 11.3409C152.786 11.6477 152.933 12.0057 152.989 12.4148H151.984C151.907 12.1165 151.737 11.8523 151.472 11.6222C151.211 11.3892 150.859 11.2727 150.415 11.2727C150.023 11.2727 149.68 11.375 149.384 11.5795C149.092 11.7812 148.863 12.0668 148.698 12.4361C148.536 12.8026 148.455 13.233 148.455 13.7273C148.455 14.233 148.535 14.6733 148.694 15.0483C148.856 15.4233 149.083 15.7145 149.376 15.9219C149.671 16.1293 150.018 16.233 150.415 16.233C150.677 16.233 150.914 16.1875 151.127 16.0966C151.34 16.0057 151.521 15.875 151.668 15.7045C151.816 15.5341 151.921 15.3295 151.984 15.0909H152.989C152.933 15.4773 152.792 15.8253 152.567 16.1349C152.346 16.4418 152.052 16.6861 151.685 16.8679C151.322 17.0469 150.898 17.1364 150.415 17.1364ZM154.46 17V10.4545H155.465V17H154.46ZM154.971 9.36364C154.775 9.36364 154.606 9.29688 154.464 9.16335C154.325 9.02983 154.255 8.86932 154.255 8.68182C154.255 8.49432 154.325 8.33381 154.464 8.20028C154.606 8.06676 154.775 8 154.971 8C155.167 8 155.335 8.06676 155.474 8.20028C155.616 8.33381 155.687 8.49432 155.687 8.68182C155.687 8.86932 155.616 9.02983 155.474 9.16335C155.335 9.29688 155.167 9.36364 154.971 9.36364ZM161.944 11.9205L161.04 12.1761C160.983 12.0256 160.9 11.8793 160.789 11.7372C160.681 11.5923 160.533 11.473 160.346 11.3793C160.158 11.2855 159.918 11.2386 159.625 11.2386C159.225 11.2386 158.891 11.331 158.624 11.5156C158.36 11.6974 158.228 11.929 158.228 12.2102C158.228 12.4602 158.319 12.6577 158.5 12.8026C158.682 12.9474 158.966 13.0682 159.353 13.1648L160.324 13.4034C160.909 13.5455 161.346 13.7628 161.632 14.0554C161.919 14.3452 162.063 14.7187 162.063 15.1761C162.063 15.5511 161.955 15.8864 161.739 16.1818C161.526 16.4773 161.228 16.7102 160.844 16.8807C160.461 17.0511 160.015 17.1364 159.506 17.1364C158.838 17.1364 158.286 16.9915 157.848 16.7017C157.411 16.4119 157.134 15.9886 157.017 15.4318L157.972 15.1932C158.063 15.5455 158.235 15.8097 158.488 15.9858C158.743 16.1619 159.077 16.25 159.489 16.25C159.958 16.25 160.33 16.1506 160.605 15.9517C160.884 15.75 161.023 15.5085 161.023 15.2273C161.023 15 160.944 14.8097 160.784 14.6562C160.625 14.5 160.381 14.3835 160.051 14.3068L158.961 14.0511C158.361 13.9091 157.921 13.6889 157.64 13.3906C157.361 13.0895 157.222 12.7131 157.222 12.2614C157.222 11.892 157.326 11.5653 157.533 11.2812C157.743 10.9972 158.029 10.7741 158.39 10.6122C158.753 10.4503 159.165 10.3693 159.625 10.3693C160.273 10.3693 160.782 10.5114 161.151 10.7955C161.523 11.0795 161.787 11.4545 161.944 11.9205ZM163.577 17V10.4545H164.582V17H163.577ZM164.088 9.36364C163.892 9.36364 163.723 9.29688 163.581 9.16335C163.442 9.02983 163.372 8.86932 163.372 8.68182C163.372 8.49432 163.442 8.33381 163.581 8.20028C163.723 8.06676 163.892 8 164.088 8C164.284 8 164.452 8.06676 164.591 8.20028C164.733 8.33381 164.804 8.49432 164.804 8.68182C164.804 8.86932 164.733 9.02983 164.591 9.16335C164.452 9.29688 164.284 9.36364 164.088 9.36364ZM169.083 17.1364C168.493 17.1364 167.974 16.9957 167.528 16.7145C167.085 16.4332 166.738 16.0398 166.488 15.5341C166.241 15.0284 166.118 14.4375 166.118 13.7614C166.118 13.0795 166.241 12.4844 166.488 11.9759C166.738 11.4673 167.085 11.0724 167.528 10.7912C167.974 10.5099 168.493 10.3693 169.083 10.3693C169.674 10.3693 170.191 10.5099 170.635 10.7912C171.081 11.0724 171.427 11.4673 171.674 11.9759C171.924 12.4844 172.049 13.0795 172.049 13.7614C172.049 14.4375 171.924 15.0284 171.674 15.5341C171.427 16.0398 171.081 16.4332 170.635 16.7145C170.191 16.9957 169.674 17.1364 169.083 17.1364ZM169.083 16.233C169.532 16.233 169.902 16.1179 170.191 15.8878C170.481 15.6577 170.696 15.3551 170.835 14.9801C170.974 14.6051 171.044 14.1989 171.044 13.7614C171.044 13.3239 170.974 12.9162 170.835 12.5384C170.696 12.1605 170.481 11.8551 170.191 11.6222C169.902 11.3892 169.532 11.2727 169.083 11.2727C168.635 11.2727 168.265 11.3892 167.975 11.6222C167.686 11.8551 167.471 12.1605 167.332 12.5384C167.193 12.9162 167.123 13.3239 167.123 13.7614C167.123 14.1989 167.193 14.6051 167.332 14.9801C167.471 15.3551 167.686 15.6577 167.975 15.8878C168.265 16.1179 168.635 16.233 169.083 16.233ZM174.59 13.0625V17H173.585V10.4545H174.556V11.4773H174.641C174.795 11.1449 175.028 10.8778 175.34 10.6761C175.653 10.4716 176.056 10.3693 176.55 10.3693C176.994 10.3693 177.381 10.4602 177.714 10.642C178.046 10.821 178.305 11.0938 178.489 11.4602C178.674 11.8239 178.766 12.2841 178.766 12.8409V17H177.761V12.9091C177.761 12.3949 177.627 11.9943 177.36 11.7074C177.093 11.4176 176.727 11.2727 176.261 11.2727C175.94 11.2727 175.653 11.3423 175.4 11.4815C175.15 11.6207 174.952 11.8239 174.808 12.0909C174.663 12.358 174.59 12.6818 174.59 13.0625ZM185.24 11.9205L184.337 12.1761C184.28 12.0256 184.196 11.8793 184.086 11.7372C183.978 11.5923 183.83 11.473 183.642 11.3793C183.455 11.2855 183.215 11.2386 182.922 11.2386C182.522 11.2386 182.188 11.331 181.921 11.5156C181.657 11.6974 181.525 11.929 181.525 12.2102C181.525 12.4602 181.615 12.6577 181.797 12.8026C181.979 12.9474 182.263 13.0682 182.65 13.1648L183.621 13.4034C184.206 13.5455 184.642 13.7628 184.929 14.0554C185.216 14.3452 185.36 14.7187 185.36 15.1761C185.36 15.5511 185.252 15.8864 185.036 16.1818C184.823 16.4773 184.525 16.7102 184.141 16.8807C183.757 17.0511 183.311 17.1364 182.803 17.1364C182.135 17.1364 181.583 16.9915 181.145 16.7017C180.708 16.4119 180.431 15.9886 180.314 15.4318L181.269 15.1932C181.36 15.5455 181.532 15.8097 181.784 15.9858C182.04 16.1619 182.374 16.25 182.786 16.25C183.255 16.25 183.627 16.1506 183.902 15.9517C184.181 15.75 184.32 15.5085 184.32 15.2273C184.32 15 184.24 14.8097 184.081 14.6562C183.922 14.5 183.678 14.3835 183.348 14.3068L182.257 14.0511C181.658 13.9091 181.218 13.6889 180.936 13.3906C180.658 13.0895 180.519 12.7131 180.519 12.2614C180.519 11.892 180.623 11.5653 180.83 11.2812C181.04 10.9972 181.326 10.7741 181.686 10.6122C182.05 10.4503 182.462 10.3693 182.922 10.3693C183.57 10.3693 184.078 10.5114 184.448 10.7955C184.82 11.0795 185.084 11.4545 185.24 11.9205ZM24.9205 34.4545V25.4545H25.892V26.4943H26.0114C26.0852 26.3807 26.1875 26.2358 26.3182 26.0597C26.4517 25.8807 26.642 25.7216 26.8892 25.5824C27.1392 25.4403 27.4773 25.3693 27.9034 25.3693C28.4545 25.3693 28.9403 25.5071 29.3608 25.7827C29.7813 26.0582 30.1094 26.4489 30.3452 26.9545C30.581 27.4602 30.6989 28.0568 30.6989 28.7443C30.6989 29.4375 30.581 30.0384 30.3452 30.5469C30.1094 31.0526 29.7827 31.4446 29.3651 31.723C28.9474 31.9986 28.4659 32.1364 27.9205 32.1364C27.5 32.1364 27.1634 32.0668 26.9105 31.9276C26.6577 31.7855 26.4631 31.625 26.3267 31.446C26.1903 31.2642 26.0852 31.1136 26.0114 30.9943H25.9261V34.4545H24.9205ZM25.9091 28.7273C25.9091 29.2216 25.9815 29.6577 26.1264 30.0355C26.2713 30.4105 26.483 30.7045 26.7614 30.9176C27.0398 31.1278 27.3807 31.233 27.7841 31.233C28.2045 31.233 28.5554 31.1222 28.8366 30.9006C29.1207 30.6761 29.3338 30.375 29.4759 29.9972C29.6207 29.6165 29.6932 29.1932 29.6932 28.7273C29.6932 28.267 29.6222 27.8523 29.4801 27.483C29.3409 27.1108 29.1293 26.8168 28.8452 26.6009C28.5639 26.3821 28.2102 26.2727 27.7841 26.2727C27.375 26.2727 27.0313 26.3764 26.7528 26.5838C26.4744 26.7884 26.2642 27.0753 26.1222 27.4446C25.9801 27.8111 25.9091 28.2386 25.9091 28.7273ZM32.233 32V25.4545H33.2045V26.4432H33.2727C33.392 26.1193 33.608 25.8565 33.9205 25.6548C34.233 25.4531 34.5852 25.3523 34.9773 25.3523C35.0511 25.3523 35.1435 25.3537 35.2543 25.3565C35.3651 25.3594 35.4489 25.3636 35.5057 25.3693V26.392C35.4716 26.3835 35.3935 26.3707 35.2713 26.3537C35.152 26.3338 35.0256 26.3239 34.892 26.3239C34.5739 26.3239 34.2898 26.3906 34.0398 26.5241C33.7926 26.6548 33.5966 26.8366 33.4517 27.0696C33.3097 27.2997 33.2386 27.5625 33.2386 27.858V32H32.233ZM36.6978 32V25.4545H37.7035V32H36.6978ZM37.2092 24.3636C37.0131 24.3636 36.8441 24.2969 36.7021 24.1634C36.5629 24.0298 36.4933 23.8693 36.4933 23.6818C36.4933 23.4943 36.5629 23.3338 36.7021 23.2003C36.8441 23.0668 37.0131 23 37.2092 23C37.4052 23 37.5728 23.0668 37.712 23.2003C37.854 23.3338 37.9251 23.4943 37.9251 23.6818C37.9251 23.8693 37.854 24.0298 37.712 24.1634C37.5728 24.2969 37.4052 24.3636 37.2092 24.3636ZM44.1818 26.9205L43.2784 27.1761C43.2216 27.0256 43.1378 26.8793 43.027 26.7372C42.919 26.5923 42.7713 26.473 42.5838 26.3793C42.3963 26.2855 42.1562 26.2386 41.8636 26.2386C41.4631 26.2386 41.1293 26.331 40.8622 26.5156C40.598 26.6974 40.4659 26.929 40.4659 27.2102C40.4659 27.4602 40.5568 27.6577 40.7386 27.8026C40.9205 27.9474 41.2045 28.0682 41.5909 28.1648L42.5625 28.4034C43.1477 28.5455 43.5838 28.7628 43.8707 29.0554C44.1577 29.3452 44.3011 29.7187 44.3011 30.1761C44.3011 30.5511 44.1932 30.8864 43.9773 31.1818C43.7642 31.4773 43.4659 31.7102 43.0824 31.8807C42.6989 32.0511 42.2528 32.1364 41.7443 32.1364C41.0767 32.1364 40.5241 31.9915 40.0866 31.7017C39.6491 31.4119 39.3722 30.9886 39.2557 30.4318L40.2102 30.1932C40.3011 30.5455 40.473 30.8097 40.7259 30.9858C40.9815 31.1619 41.3153 31.25 41.7273 31.25C42.196 31.25 42.5682 31.1506 42.8438 30.9517C43.1222 30.75 43.2614 30.5085 43.2614 30.2273C43.2614 30 43.1818 29.8097 43.0227 29.6562C42.8636 29.5 42.6193 29.3835 42.2898 29.3068L41.1989 29.0511C40.5994 28.9091 40.1591 28.6889 39.8778 28.3906C39.5994 28.0895 39.4602 27.7131 39.4602 27.2614C39.4602 26.892 39.5639 26.5653 39.7713 26.2812C39.9815 25.9972 40.267 25.7741 40.6278 25.6122C40.9915 25.4503 41.4034 25.3693 41.8636 25.3693C42.5114 25.3693 43.0199 25.5114 43.3892 25.7955C43.7614 26.0795 44.0256 26.4545 44.1818 26.9205ZM48.5593 32.1364C47.9286 32.1364 47.3846 31.9972 46.9272 31.7188C46.4727 31.4375 46.1218 31.0455 45.8746 30.5426C45.6303 30.0369 45.5082 29.4489 45.5082 28.7784C45.5082 28.108 45.6303 27.517 45.8746 27.0057C46.1218 26.4915 46.4656 26.0909 46.9059 25.804C47.3491 25.5142 47.8661 25.3693 48.457 25.3693C48.7979 25.3693 49.1346 25.4261 49.467 25.5398C49.7994 25.6534 50.1019 25.8381 50.3746 26.0938C50.6474 26.3466 50.8647 26.6818 51.0266 27.0994C51.1886 27.517 51.2695 28.0312 51.2695 28.642V29.0682H46.2241V28.1989H50.2468C50.2468 27.8295 50.1729 27.5 50.0252 27.2102C49.8803 26.9205 49.6729 26.6918 49.4031 26.5241C49.136 26.3565 48.8207 26.2727 48.457 26.2727C48.0565 26.2727 47.7099 26.3722 47.4173 26.571C47.1275 26.767 46.9045 27.0227 46.7482 27.3381C46.592 27.6534 46.5138 27.9915 46.5138 28.3523V28.9318C46.5138 29.4261 46.5991 29.8452 46.7695 30.1889C46.9428 30.5298 47.1829 30.7898 47.4897 30.9688C47.7965 31.1449 48.1531 31.233 48.5593 31.233C48.8235 31.233 49.0621 31.196 49.2752 31.1222C49.4911 31.0455 49.6772 30.9318 49.8335 30.7812C49.9897 30.6278 50.1104 30.4375 50.1957 30.2102L51.1673 30.483C51.065 30.8125 50.8931 31.1023 50.6516 31.3523C50.4102 31.5994 50.1119 31.7926 49.7567 31.9318C49.4016 32.0682 49.0025 32.1364 48.5593 32.1364ZM57.4357 26.9205L56.5323 27.1761C56.4755 27.0256 56.3917 26.8793 56.2809 26.7372C56.1729 26.5923 56.0252 26.473 55.8377 26.3793C55.6502 26.2855 55.4102 26.2386 55.1175 26.2386C54.717 26.2386 54.3832 26.331 54.1161 26.5156C53.8519 26.6974 53.7198 26.929 53.7198 27.2102C53.7198 27.4602 53.8107 27.6577 53.9925 27.8026C54.1744 27.9474 54.4585 28.0682 54.8448 28.1648L55.8164 28.4034C56.4016 28.5455 56.8377 28.7628 57.1246 29.0554C57.4116 29.3452 57.555 29.7187 57.555 30.1761C57.555 30.5511 57.4471 30.8864 57.2312 31.1818C57.0181 31.4773 56.7198 31.7102 56.3363 31.8807C55.9528 32.0511 55.5067 32.1364 54.9982 32.1364C54.3306 32.1364 53.7781 31.9915 53.3406 31.7017C52.9031 31.4119 52.6261 30.9886 52.5096 30.4318L53.4641 30.1932C53.555 30.5455 53.7269 30.8097 53.9798 30.9858C54.2354 31.1619 54.5692 31.25 54.9812 31.25C55.4499 31.25 55.8221 31.1506 56.0977 30.9517C56.3761 30.75 56.5153 30.5085 56.5153 30.2273C56.5153 30 56.4357 29.8097 56.2766 29.6562C56.1175 29.5 55.8732 29.3835 55.5437 29.3068L54.4528 29.0511C53.8533 28.9091 53.413 28.6889 53.1317 28.3906C52.8533 28.0895 52.7141 27.7131 52.7141 27.2614C52.7141 26.892 52.8178 26.5653 53.0252 26.2812C53.2354 25.9972 53.521 25.7741 53.8817 25.6122C54.2454 25.4503 54.6573 25.3693 55.1175 25.3693C55.7653 25.3693 56.2738 25.5114 56.6431 25.7955C57.0153 26.0795 57.2795 26.4545 57.4357 26.9205ZM62.4439 34.4545V25.4545H63.4155V26.4943H63.5348C63.6087 26.3807 63.7109 26.2358 63.8416 26.0597C63.9751 25.8807 64.1655 25.7216 64.4126 25.5824C64.6626 25.4403 65.0007 25.3693 65.4268 25.3693C65.978 25.3693 66.4638 25.5071 66.8842 25.7827C67.3047 26.0582 67.6328 26.4489 67.8686 26.9545C68.1044 27.4602 68.2223 28.0568 68.2223 28.7443C68.2223 29.4375 68.1044 30.0384 67.8686 30.5469C67.6328 31.0526 67.3061 31.4446 66.8885 31.723C66.4709 31.9986 65.9893 32.1364 65.4439 32.1364C65.0234 32.1364 64.6868 32.0668 64.4339 31.9276C64.1811 31.7855 63.9865 31.625 63.8501 31.446C63.7138 31.2642 63.6087 31.1136 63.5348 30.9943H63.4496V34.4545H62.4439ZM63.4325 28.7273C63.4325 29.2216 63.505 29.6577 63.6499 30.0355C63.7947 30.4105 64.0064 30.7045 64.2848 30.9176C64.5632 31.1278 64.9041 31.233 65.3075 31.233C65.728 31.233 66.0788 31.1222 66.3601 30.9006C66.6442 30.6761 66.8572 30.375 66.9993 29.9972C67.1442 29.6165 67.2166 29.1932 67.2166 28.7273C67.2166 28.267 67.1456 27.8523 67.0036 27.483C66.8643 27.1108 66.6527 26.8168 66.3686 26.6009C66.0874 26.3821 65.7337 26.2727 65.3075 26.2727C64.8984 26.2727 64.5547 26.3764 64.2763 26.5838C63.9979 26.7884 63.7876 27.0753 63.6456 27.4446C63.5036 27.8111 63.4325 28.2386 63.4325 28.7273ZM71.6825 32.1534C71.2678 32.1534 70.8913 32.0753 70.5533 31.919C70.2152 31.7599 69.9467 31.5312 69.7479 31.233C69.549 30.9318 69.4496 30.5682 69.4496 30.142C69.4496 29.767 69.5234 29.4631 69.6712 29.2301C69.8189 28.9943 70.0163 28.8097 70.2635 28.6761C70.5107 28.5426 70.7834 28.4432 71.0817 28.3778C71.3828 28.3097 71.6854 28.2557 71.9893 28.2159C72.3871 28.1648 72.7095 28.1264 72.9567 28.1009C73.2067 28.0724 73.3885 28.0256 73.5021 27.9602C73.6186 27.8949 73.6768 27.7812 73.6768 27.6193V27.5852C73.6768 27.1648 73.5618 26.8381 73.3317 26.6051C73.1044 26.3722 72.7592 26.2557 72.2962 26.2557C71.8161 26.2557 71.4396 26.3608 71.1669 26.571C70.8942 26.7812 70.7024 27.0057 70.5916 27.2443L69.6371 26.9034C69.8075 26.5057 70.0348 26.196 70.3189 25.9744C70.6058 25.75 70.9183 25.5937 71.2564 25.5057C71.5973 25.4148 71.9325 25.3693 72.2621 25.3693C72.4723 25.3693 72.7138 25.3949 72.9865 25.446C73.2621 25.4943 73.5277 25.5952 73.7834 25.7486C74.0419 25.902 74.2564 26.1335 74.4268 26.4432C74.5973 26.7528 74.6825 27.1676 74.6825 27.6875V32H73.6768V31.1136H73.6257C73.5575 31.2557 73.4439 31.4077 73.2848 31.5696C73.1257 31.7315 72.9141 31.8693 72.6499 31.983C72.3857 32.0966 72.0632 32.1534 71.6825 32.1534ZM71.8359 31.25C72.2337 31.25 72.5689 31.1719 72.8416 31.0156C73.1172 30.8594 73.3246 30.6577 73.4638 30.4105C73.6058 30.1634 73.6768 29.9034 73.6768 29.6307V28.7102C73.6342 28.7614 73.5405 28.8082 73.3956 28.8509C73.2536 28.8906 73.0888 28.9261 72.9013 28.9574C72.7166 28.9858 72.5362 29.0114 72.3601 29.0341C72.1868 29.054 72.0462 29.071 71.9382 29.0852C71.6768 29.1193 71.4325 29.1747 71.2053 29.2514C70.9808 29.3253 70.799 29.4375 70.6598 29.5881C70.5234 29.7358 70.4553 29.9375 70.4553 30.1932C70.4553 30.5426 70.5845 30.8068 70.843 30.9858C71.1044 31.1619 71.4354 31.25 71.8359 31.25ZM76.5181 32V25.4545H77.4897V26.4432H77.5579C77.6772 26.1193 77.8931 25.8565 78.2056 25.6548C78.5181 25.4531 78.8704 25.3523 79.2624 25.3523C79.3363 25.3523 79.4286 25.3537 79.5394 25.3565C79.6502 25.3594 79.734 25.3636 79.7908 25.3693V26.392C79.7567 26.3835 79.6786 26.3707 79.5565 26.3537C79.4371 26.3338 79.3107 26.3239 79.1772 26.3239C78.859 26.3239 78.5749 26.3906 78.3249 26.5241C78.0778 26.6548 77.8817 26.8366 77.7369 27.0696C77.5948 27.2997 77.5238 27.5625 77.5238 27.858V32H76.5181ZM84.358 32V25.4545H85.3295V26.4773H85.4148C85.5511 26.1278 85.7713 25.8565 86.0753 25.6634C86.3793 25.4673 86.7443 25.3693 87.1705 25.3693C87.6023 25.3693 87.9616 25.4673 88.2486 25.6634C88.5384 25.8565 88.7642 26.1278 88.9261 26.4773H88.9943C89.1619 26.1392 89.4134 25.8707 89.7486 25.6719C90.0838 25.4702 90.4858 25.3693 90.9545 25.3693C91.5398 25.3693 92.0185 25.5526 92.3906 25.919C92.7628 26.2827 92.9489 26.8494 92.9489 27.6193V32H91.9432V27.6193C91.9432 27.1364 91.8111 26.7912 91.5469 26.5838C91.2827 26.3764 90.9716 26.2727 90.6136 26.2727C90.1534 26.2727 89.7969 26.4119 89.544 26.6903C89.2912 26.9659 89.1648 27.3153 89.1648 27.7386V32H88.142V27.517C88.142 27.1449 88.0213 26.8452 87.7798 26.6179C87.5384 26.3878 87.2273 26.2727 86.8466 26.2727C86.5852 26.2727 86.3409 26.3423 86.1136 26.4815C85.8892 26.6207 85.7074 26.8139 85.5682 27.0611C85.4318 27.3054 85.3636 27.5881 85.3636 27.9091V32H84.358ZM96.7138 32.1534C96.299 32.1534 95.9226 32.0753 95.5845 31.919C95.2464 31.7599 94.978 31.5312 94.7791 31.233C94.5803 30.9318 94.4808 30.5682 94.4808 30.142C94.4808 29.767 94.5547 29.4631 94.7024 29.2301C94.8501 28.9943 95.0476 28.8097 95.2947 28.6761C95.5419 28.5426 95.8146 28.4432 96.1129 28.3778C96.4141 28.3097 96.7166 28.2557 97.0206 28.2159C97.4183 28.1648 97.7408 28.1264 97.9879 28.1009C98.2379 28.0724 98.4197 28.0256 98.5334 27.9602C98.6499 27.8949 98.7081 27.7812 98.7081 27.6193V27.5852C98.7081 27.1648 98.593 26.8381 98.3629 26.6051C98.1357 26.3722 97.7905 26.2557 97.3274 26.2557C96.8473 26.2557 96.4709 26.3608 96.1982 26.571C95.9254 26.7812 95.7337 27.0057 95.6229 27.2443L94.6683 26.9034C94.8388 26.5057 95.0661 26.196 95.3501 25.9744C95.6371 25.75 95.9496 25.5937 96.2876 25.5057C96.6286 25.4148 96.9638 25.3693 97.2933 25.3693C97.5036 25.3693 97.745 25.3949 98.0178 25.446C98.2933 25.4943 98.5589 25.5952 98.8146 25.7486C99.0732 25.902 99.2876 26.1335 99.4581 26.4432C99.6286 26.7528 99.7138 27.1676 99.7138 27.6875V32H98.7081V31.1136H98.657C98.5888 31.2557 98.4751 31.4077 98.3161 31.5696C98.157 31.7315 97.9453 31.8693 97.6811 31.983C97.4169 32.0966 97.0945 32.1534 96.7138 32.1534ZM96.8672 31.25C97.2649 31.25 97.6001 31.1719 97.8729 31.0156C98.1484 30.8594 98.3558 30.6577 98.495 30.4105C98.6371 30.1634 98.7081 29.9034 98.7081 29.6307V28.7102C98.6655 28.7614 98.5717 28.8082 98.4268 28.8509C98.2848 28.8906 98.12 28.9261 97.9325 28.9574C97.7479 28.9858 97.5675 29.0114 97.3913 29.0341C97.218 29.054 97.0774 29.071 96.9695 29.0852C96.7081 29.1193 96.4638 29.1747 96.2365 29.2514C96.0121 29.3253 95.8303 29.4375 95.6911 29.5881C95.5547 29.7358 95.4865 29.9375 95.4865 30.1932C95.4865 30.5426 95.6158 30.8068 95.8743 30.9858C96.1357 31.1619 96.4666 31.25 96.8672 31.25ZM104.924 32V25.4545H105.896V26.4773H105.981C106.118 26.1278 106.338 25.8565 106.642 25.6634C106.946 25.4673 107.311 25.3693 107.737 25.3693C108.169 25.3693 108.528 25.4673 108.815 25.6634C109.105 25.8565 109.331 26.1278 109.493 26.4773H109.561C109.728 26.1392 109.98 25.8707 110.315 25.6719C110.65 25.4702 111.052 25.3693 111.521 25.3693C112.106 25.3693 112.585 25.5526 112.957 25.919C113.329 26.2827 113.515 26.8494 113.515 27.6193V32H112.51V27.6193C112.51 27.1364 112.377 26.7912 112.113 26.5838C111.849 26.3764 111.538 26.2727 111.18 26.2727C110.72 26.2727 110.363 26.4119 110.11 26.6903C109.858 26.9659 109.731 27.3153 109.731 27.7386V32H108.708V27.517C108.708 27.1449 108.588 26.8452 108.346 26.6179C108.105 26.3878 107.794 26.2727 107.413 26.2727C107.152 26.2727 106.907 26.3423 106.68 26.4815C106.456 26.6207 106.274 26.8139 106.135 27.0611C105.998 27.3054 105.93 27.5881 105.93 27.9091V32H104.924ZM119.479 29.3239V25.4545H120.485V32H119.479V30.892H119.411C119.257 31.2244 119.019 31.5071 118.695 31.7401C118.371 31.9702 117.962 32.0852 117.468 32.0852C117.059 32.0852 116.695 31.9957 116.377 31.8168C116.059 31.6349 115.809 31.3622 115.627 30.9986C115.445 30.6321 115.354 30.1705 115.354 29.6136V25.4545H116.36V29.5455C116.36 30.0227 116.493 30.4034 116.76 30.6875C117.03 30.9716 117.374 31.1136 117.792 31.1136C118.042 31.1136 118.296 31.0497 118.554 30.9219C118.816 30.794 119.034 30.598 119.211 30.3338C119.39 30.0696 119.479 29.733 119.479 29.3239ZM123.332 28.0625V32H122.327V25.4545H123.298V26.4773H123.384C123.537 26.1449 123.77 25.8778 124.082 25.6761C124.395 25.4716 124.798 25.3693 125.293 25.3693C125.736 25.3693 126.124 25.4602 126.456 25.642C126.788 25.821 127.047 26.0938 127.232 26.4602C127.416 26.8239 127.509 27.2841 127.509 27.8409V32H126.503V27.9091C126.503 27.3949 126.369 26.9943 126.102 26.7074C125.835 26.4176 125.469 26.2727 125.003 26.2727C124.682 26.2727 124.395 26.3423 124.142 26.4815C123.892 26.6207 123.695 26.8239 123.55 27.0909C123.405 27.358 123.332 27.6818 123.332 28.0625ZM129.346 32V25.4545H130.352V32H129.346ZM129.858 24.3636C129.662 24.3636 129.493 24.2969 129.35 24.1634C129.211 24.0298 129.142 23.8693 129.142 23.6818C129.142 23.4943 129.211 23.3338 129.35 23.2003C129.493 23.0668 129.662 23 129.858 23C130.054 23 130.221 23.0668 130.36 23.2003C130.502 23.3338 130.574 23.4943 130.574 23.6818C130.574 23.8693 130.502 24.0298 130.36 24.1634C130.221 24.2969 130.054 24.3636 129.858 24.3636ZM134.853 32.1364C134.239 32.1364 133.711 31.9915 133.268 31.7017C132.825 31.4119 132.484 31.0128 132.245 30.5043C132.006 29.9957 131.887 29.4148 131.887 28.7614C131.887 28.0966 132.009 27.5099 132.254 27.0014C132.501 26.4901 132.844 26.0909 133.285 25.804C133.728 25.5142 134.245 25.3693 134.836 25.3693C135.296 25.3693 135.711 25.4545 136.08 25.625C136.45 25.7955 136.752 26.0341 136.988 26.3409C137.224 26.6477 137.37 27.0057 137.427 27.4148H136.421C136.344 27.1165 136.174 26.8523 135.91 26.6222C135.648 26.3892 135.296 26.2727 134.853 26.2727C134.461 26.2727 134.117 26.375 133.822 26.5795C133.529 26.7812 133.3 27.0668 133.136 27.4361C132.974 27.8026 132.893 28.233 132.893 28.7273C132.893 29.233 132.972 29.6733 133.131 30.0483C133.293 30.4233 133.521 30.7145 133.813 30.9219C134.109 31.1293 134.455 31.233 134.853 31.233C135.114 31.233 135.352 31.1875 135.565 31.0966C135.778 31.0057 135.958 30.875 136.106 30.7045C136.254 30.5341 136.359 30.3295 136.421 30.0909H137.427C137.37 30.4773 137.229 30.8253 137.005 31.1349C136.783 31.4418 136.489 31.6861 136.123 31.8679C135.759 32.0469 135.336 32.1364 134.853 32.1364ZM138.897 32V25.4545H139.903V32H138.897ZM139.408 24.3636C139.212 24.3636 139.043 24.2969 138.901 24.1634C138.762 24.0298 138.692 23.8693 138.692 23.6818C138.692 23.4943 138.762 23.3338 138.901 23.2003C139.043 23.0668 139.212 23 139.408 23C139.604 23 139.772 23.0668 139.911 23.2003C140.053 23.3338 140.124 23.4943 140.124 23.6818C140.124 23.8693 140.053 24.0298 139.911 24.1634C139.772 24.2969 139.604 24.3636 139.408 24.3636ZM141.745 34.4545V25.4545H142.716V26.4943H142.836C142.909 26.3807 143.012 26.2358 143.142 26.0597C143.276 25.8807 143.466 25.7216 143.713 25.5824C143.963 25.4403 144.301 25.3693 144.728 25.3693C145.279 25.3693 145.765 25.5071 146.185 25.7827C146.605 26.0582 146.934 26.4489 147.169 26.9545C147.405 27.4602 147.523 28.0568 147.523 28.7443C147.523 29.4375 147.405 30.0384 147.169 30.5469C146.934 31.0526 146.607 31.4446 146.189 31.723C145.772 31.9986 145.29 32.1364 144.745 32.1364C144.324 32.1364 143.988 32.0668 143.735 31.9276C143.482 31.7855 143.287 31.625 143.151 31.446C143.015 31.2642 142.909 31.1136 142.836 30.9943H142.75V34.4545H141.745ZM142.733 28.7273C142.733 29.2216 142.806 29.6577 142.951 30.0355C143.096 30.4105 143.307 30.7045 143.586 30.9176C143.864 31.1278 144.205 31.233 144.608 31.233C145.029 31.233 145.38 31.1222 145.661 30.9006C145.945 30.6761 146.158 30.375 146.3 29.9972C146.445 29.6165 146.517 29.1932 146.517 28.7273C146.517 28.267 146.446 27.8523 146.304 27.483C146.165 27.1108 145.953 26.8168 145.669 26.6009C145.388 26.3821 145.034 26.2727 144.608 26.2727C144.199 26.2727 143.855 26.3764 143.577 26.5838C143.299 26.7884 143.088 27.0753 142.946 27.4446C142.804 27.8111 142.733 28.2386 142.733 28.7273ZM150.983 32.1534C150.569 32.1534 150.192 32.0753 149.854 31.919C149.516 31.7599 149.248 31.5312 149.049 31.233C148.85 30.9318 148.75 30.5682 148.75 30.142C148.75 29.767 148.824 29.4631 148.972 29.2301C149.12 28.9943 149.317 28.8097 149.564 28.6761C149.811 28.5426 150.084 28.4432 150.382 28.3778C150.684 28.3097 150.986 28.2557 151.29 28.2159C151.688 28.1648 152.01 28.1264 152.257 28.1009C152.507 28.0724 152.689 28.0256 152.803 27.9602C152.919 27.8949 152.978 27.7812 152.978 27.6193V27.5852C152.978 27.1648 152.863 26.8381 152.632 26.6051C152.405 26.3722 152.06 26.2557 151.597 26.2557C151.117 26.2557 150.74 26.3608 150.468 26.571C150.195 26.7812 150.003 27.0057 149.892 27.2443L148.938 26.9034C149.108 26.5057 149.336 26.196 149.62 25.9744C149.907 25.75 150.219 25.5937 150.557 25.5057C150.898 25.4148 151.233 25.3693 151.563 25.3693C151.773 25.3693 152.015 25.3949 152.287 25.446C152.563 25.4943 152.828 25.5952 153.084 25.7486C153.343 25.902 153.557 26.1335 153.728 26.4432C153.898 26.7528 153.983 27.1676 153.983 27.6875V32H152.978V31.1136H152.926C152.858 31.2557 152.745 31.4077 152.586 31.5696C152.426 31.7315 152.215 31.8693 151.951 31.983C151.686 32.0966 151.364 32.1534 150.983 32.1534ZM151.137 31.25C151.534 31.25 151.87 31.1719 152.142 31.0156C152.418 30.8594 152.625 30.6577 152.765 30.4105C152.907 30.1634 152.978 29.9034 152.978 29.6307V28.7102C152.935 28.7614 152.841 28.8082 152.696 28.8509C152.554 28.8906 152.39 28.9261 152.202 28.9574C152.017 28.9858 151.837 29.0114 151.661 29.0341C151.488 29.054 151.347 29.071 151.239 29.0852C150.978 29.1193 150.733 29.1747 150.506 29.2514C150.282 29.3253 150.1 29.4375 149.961 29.5881C149.824 29.7358 149.756 29.9375 149.756 30.1932C149.756 30.5426 149.885 30.8068 150.144 30.9858C150.405 31.1619 150.736 31.25 151.137 31.25ZM156.825 23.2727V32H155.819V23.2727H156.825ZM158.667 32V25.4545H159.672V32H158.667ZM159.178 24.3636C158.982 24.3636 158.813 24.2969 158.671 24.1634C158.532 24.0298 158.462 23.8693 158.462 23.6818C158.462 23.4943 158.532 23.3338 158.671 23.2003C158.813 23.0668 158.982 23 159.178 23C159.374 23 159.542 23.0668 159.681 23.2003C159.823 23.3338 159.894 23.4943 159.894 23.6818C159.894 23.8693 159.823 24.0298 159.681 24.1634C159.542 24.2969 159.374 24.3636 159.178 24.3636ZM164.361 25.4545V26.3068H160.969V25.4545H164.361ZM161.957 23.8864H162.963V30.125C162.963 30.4091 163.004 30.6222 163.087 30.7642C163.172 30.9034 163.28 30.9972 163.411 31.0455C163.544 31.0909 163.685 31.1136 163.832 31.1136C163.943 31.1136 164.034 31.108 164.105 31.0966C164.176 31.0824 164.233 31.071 164.276 31.0625L164.48 31.9659C164.412 31.9915 164.317 32.017 164.195 32.0426C164.072 32.071 163.918 32.0852 163.73 32.0852C163.446 32.0852 163.168 32.0241 162.895 31.902C162.625 31.7798 162.401 31.5938 162.222 31.3438C162.045 31.0938 161.957 30.7784 161.957 30.3977V23.8864ZM168.548 32.1364C167.917 32.1364 167.373 31.9972 166.915 31.7188C166.461 31.4375 166.11 31.0455 165.863 30.5426C165.619 30.0369 165.496 29.4489 165.496 28.7784C165.496 28.108 165.619 27.517 165.863 27.0057C166.11 26.4915 166.454 26.0909 166.894 25.804C167.337 25.5142 167.854 25.3693 168.445 25.3693C168.786 25.3693 169.123 25.4261 169.455 25.5398C169.788 25.6534 170.09 25.8381 170.363 26.0938C170.636 26.3466 170.853 26.6818 171.015 27.0994C171.177 27.517 171.258 28.0312 171.258 28.642V29.0682H166.212V28.1989H170.235C170.235 27.8295 170.161 27.5 170.013 27.2102C169.869 26.9205 169.661 26.6918 169.391 26.5241C169.124 26.3565 168.809 26.2727 168.445 26.2727C168.045 26.2727 167.698 26.3722 167.406 26.571C167.116 26.767 166.893 27.0227 166.737 27.3381C166.58 27.6534 166.502 27.9915 166.502 28.3523V28.9318C166.502 29.4261 166.587 29.8452 166.758 30.1889C166.931 30.5298 167.171 30.7898 167.478 30.9688C167.785 31.1449 168.141 31.233 168.548 31.233C168.812 31.233 169.05 31.196 169.263 31.1222C169.479 31.0455 169.665 30.9318 169.822 30.7812C169.978 30.6278 170.099 30.4375 170.184 30.2102L171.156 30.483C171.053 30.8125 170.881 31.1023 170.64 31.3523C170.398 31.5994 170.1 31.7926 169.745 31.9318C169.39 32.0682 168.991 32.1364 168.548 32.1364ZM167.934 24.5682L168.974 22.5909H170.15L168.82 24.5682H167.934Z" fill="black"/>
<rect x="17.375" y="0.375" width="199.25" height="39.25" rx="7.625" stroke="black" stroke-width="0.75"/>
<circle cx="3.5" cy="20.5" r="3.5" fill="#164194"/>
</svg>
