<svg width="375" height="338" viewBox="0 0 375 338" fill="none" xmlns="http://www.w3.org/2000/svg">
<mask id="mask0_412_11" style="mask-type:alpha" maskUnits="userSpaceOnUse" x="0" y="0" width="375" height="338">
<rect width="375" height="338" fill="white"/>
</mask>
<g mask="url(#mask0_412_11)">
<rect width="375" height="338" fill="white"/>
<path d="M279.762 221.363C275.481 221.363 272 217.615 272 208.785V178.718C272.011 150.776 277.509 148 279.762 148C282.485 148 287.525 149.634 287.525 178.718V208.785C287.525 216.793 284.054 221.363 279.762 221.363Z" fill="#487466"/>
<path d="M281.022 177.821H279.762L278.492 239.855L280.926 239.396L281.022 177.821Z" fill="#2F4233"/>
<path d="M280.072 197.403L284.225 194.286L284.236 194.841L280.243 198.749" fill="#2F4233"/>
<path d="M276.281 202.752L276.014 203.489L279.783 210.291L279.912 208.636L276.281 202.752Z" fill="#2F4233"/>
<path d="M44.1708 223.772C40.2156 223.772 37.0001 220.31 37.0001 212.153V184.377C37.0099 158.565 42.0896 156 44.1708 156C46.686 156 51.3416 157.509 51.3416 184.377V212.153C51.3416 219.55 48.1359 223.772 44.1708 223.772Z" fill="#487466"/>
<path d="M45.3347 183.549H44.1708L42.9971 240.855L45.2459 240.431L45.3347 183.549Z" fill="#2F4233"/>
<path d="M44.457 201.638L48.2938 198.758L48.3037 199.271L44.6148 202.881" fill="#2F4233"/>
<path d="M40.9553 206.58L40.7087 207.26L44.1905 213.543L44.3088 212.015L40.9553 206.58Z" fill="#2F4233"/>
<path d="M124.389 228.772C118.659 228.772 114 226.171 114 220.07V199.263C114 179.929 121.374 178 124.389 178C128.033 178 134.778 179.129 134.778 199.263V220.07C134.778 225.614 130.133 228.772 124.389 228.772Z" fill="#487466"/>
<path d="M126.061 198.634H124.375L122.674 241.561L125.946 241.247L126.061 198.634Z" fill="#2F4233"/>
<path d="M124.803 212.182L130.348 210.024L130.362 210.41L125.018 213.125" fill="#2F4233"/>
<path d="M119.716 215.883L119.373 216.397L124.403 221.099L124.574 219.955L119.716 215.883Z" fill="#2F4233"/>
<path d="M30.3888 231.79C26.0109 231.79 22.4517 229.803 22.4517 225.141V209.245C22.4517 194.474 28.0852 193 30.3888 193C33.1728 193 38.3259 193.862 38.3259 209.245V225.141C38.3259 229.377 34.7777 231.79 30.3888 231.79Z" fill="#487466"/>
<path d="M31.6663 208.765H30.378L29.0788 241.561L31.5789 241.321L31.6663 208.765Z" fill="#2F4233"/>
<path d="M30.7054 219.115L34.9415 217.467L34.9524 217.761L30.8692 219.836" fill="#2F4233"/>
<path d="M26.8187 221.943L26.5566 222.336L30.3996 225.928L30.5306 225.054L26.8187 221.943Z" fill="#2F4233"/>
<path d="M387.98 172.572H320.786V237.937H387.98V172.572Z" fill="#BAB4C6"/>
<path d="M320.809 172.572H283.704V237.937H320.809V172.572Z" fill="#F3E8F3"/>
<path d="M299.678 210.049H293.035V227.607H299.678V210.049Z" fill="#ADAAAD"/>
<path d="M311.457 210.049H304.814V227.607H311.457V210.049Z" fill="#ADAAAD"/>
<path d="M378.475 210.049H368.424V227.607H378.475V210.049Z" fill="#786380"/>
<path d="M360.251 210.049H350.199V227.607H360.251V210.049Z" fill="#786380"/>
<path d="M342.027 210.049H331.975V227.607H342.027V210.049Z" fill="#786380"/>
<path d="M299.678 182.139H293.035V199.697H299.678V182.139Z" fill="#ADAAAD"/>
<path d="M311.457 182.139H304.814V199.697H311.457V182.139Z" fill="#ADAAAD"/>
<path d="M378.475 182.139H368.424V199.697H378.475V182.139Z" fill="#786380"/>
<path d="M360.251 182.139H350.199V199.697H360.251V182.139Z" fill="#786380"/>
<path d="M342.027 182.139H331.975V199.697H342.027V182.139Z" fill="#786380"/>
<path d="M389.991 171H282V174.145H389.991V171Z" fill="#D16162"/>
<path d="M117.287 147.344H86.396V239.857H117.287V147.344Z" fill="#BAB4C6"/>
<path d="M118.008 147.344H86.3958L73.4834 122H105.096L118.008 147.344Z" fill="#F3E8F3"/>
<path d="M72.9124 122L60 147.344H86.3961L104.525 122H72.9124Z" fill="#D16162"/>
<path d="M118.008 147.344H86.3958L73.4834 122H105.096L118.008 147.344Z" fill="#D16162"/>
<path d="M73.2885 123.383L60.8871 147.345V239.858H86.3963V147.345L73.2885 123.383Z" fill="#F3E8F3"/>
<path d="M71.875 156.299H67.3053V168.377H71.875V156.299Z" fill="#ADAAAD"/>
<path d="M79.9772 156.299H75.4075V168.377H79.9772V156.299Z" fill="#ADAAAD"/>
<path d="M71.875 172.569H67.3053V184.648H71.875V172.569Z" fill="#ADAAAD"/>
<path d="M79.9772 172.569H75.4075V184.648H79.9772V172.569Z" fill="#ADAAAD"/>
<path d="M71.875 188.854H67.3053V200.932H71.875V188.854Z" fill="#ADAAAD"/>
<path d="M79.9772 188.854H75.4075V200.932H79.9772V188.854Z" fill="#ADAAAD"/>
<path d="M71.875 205.139H67.3053V217.218H71.875V205.139Z" fill="#ADAAAD"/>
<path d="M79.9772 205.139H75.4075V217.218H79.9772V205.139Z" fill="#ADAAAD"/>
<path d="M99.1583 156.299H92.2437V168.377H99.1583V156.299Z" fill="#786380"/>
<path d="M111.439 156.299H104.525V168.377H111.439V156.299Z" fill="#786380"/>
<path d="M99.1583 172.569H92.2437V184.648H99.1583V172.569Z" fill="#786380"/>
<path d="M111.439 172.569H104.525V184.648H111.439V172.569Z" fill="#786380"/>
<path d="M99.1583 188.854H92.2437V200.932H99.1583V188.854Z" fill="#786380"/>
<path d="M111.439 188.854H104.525V200.932H111.439V188.854Z" fill="#786380"/>
<path d="M99.1583 205.139H92.2437V217.218H99.1583V205.139Z" fill="#786380"/>
<path d="M111.439 205.139H104.525V217.218H111.439V205.139Z" fill="#786380"/>
<rect y="238" width="375" height="176" fill="#79B77B"/>
<path d="M52.2923 272.951C48.4128 271.05 38.2029 269.901 41.7285 272.568C45.2542 275.234 53 276 53 276L52.2923 272.951Z" fill="#9CD179"/>
<path d="M320.292 252.951C316.413 251.05 306.203 249.901 309.729 252.568C313.254 255.234 321 256 321 256L320.292 252.951Z" fill="#9CD179"/>
<path d="M59.2333 279.951C55.0305 278.05 43.9698 276.901 47.7892 279.568C51.6087 282.234 60 283 60 283L59.2333 279.951Z" fill="#9CD179"/>
<path d="M327.233 259.951C323.03 258.05 311.97 256.901 315.789 259.568C319.609 262.234 328 263 328 263L327.233 259.951Z" fill="#9CD179"/>
<path d="M68.2922 275.951C64.4128 274.05 54.2029 272.901 57.7285 275.568C61.2541 278.234 69 279 69 279L68.2922 275.951Z" fill="#9CD179"/>
<path d="M336.292 255.951C332.413 254.05 322.203 252.901 325.729 255.568C329.254 258.234 337 259 337 259L336.292 255.951Z" fill="#9CD179"/>
<g clip-path="url(#clip0_412_11)">
<path d="M166.232 183.876C171.054 183.876 174.963 179.966 174.963 175.144C174.963 170.322 171.054 166.413 166.232 166.413C161.409 166.413 157.5 170.322 157.5 175.144C157.5 179.966 161.409 183.876 166.232 183.876Z" fill="#FD9E98"/>
<path d="M251.165 183.876C255.988 183.876 259.897 179.966 259.897 175.144C259.897 170.322 255.988 166.413 251.165 166.413C246.343 166.413 242.434 170.322 242.434 175.144C242.434 179.966 246.343 183.876 251.165 183.876Z" fill="#FD9E98"/>
<path d="M193.366 122.566L187.563 126.352C185.646 127.603 185.106 130.17 186.356 132.087L192.099 140.889C193.349 142.805 195.916 143.345 197.833 142.095L203.637 138.309C205.553 137.058 206.093 134.491 204.843 132.575L199.101 123.772C197.85 121.856 195.283 121.316 193.366 122.566Z" fill="#18293A"/>
<path d="M191.77 133.217L185.967 137.003C184.05 138.254 183.51 140.821 184.76 142.738L190.503 151.54C191.753 153.456 194.32 153.996 196.237 152.746L202.041 148.96C203.957 147.709 204.497 145.142 203.247 143.225L197.505 134.423C196.254 132.507 193.687 131.967 191.77 133.217Z" fill="#18293A"/>
<path d="M190.171 143.882L184.367 147.669C182.45 148.919 181.91 151.486 183.16 153.403L188.903 162.205C190.153 164.122 192.721 164.662 194.637 163.411L200.441 159.625C202.357 158.375 202.898 155.807 201.647 153.891L195.905 145.089C194.654 143.172 192.087 142.632 190.171 143.882Z" fill="#18293A"/>
<path d="M188.579 154.54L182.775 158.326C180.858 159.576 180.318 162.144 181.569 164.06L187.311 172.862C188.561 174.779 191.129 175.319 193.045 174.069L198.849 170.282C200.766 169.032 201.306 166.465 200.055 164.548L194.313 155.746C193.063 153.83 190.495 153.289 188.579 154.54Z" fill="#18293A"/>
<path d="M186.987 165.197L181.183 168.983C179.267 170.234 178.727 172.801 179.977 174.718L185.719 183.52C186.97 185.436 189.537 185.976 191.454 184.726L197.257 180.94C199.174 179.689 199.714 177.122 198.464 175.205L192.721 166.403C191.471 164.487 188.904 163.947 186.987 165.197Z" fill="#18293A"/>
<path d="M185.391 175.848L179.587 179.634C177.67 180.885 177.13 183.452 178.381 185.368L184.123 194.171C185.373 196.087 187.941 196.627 189.857 195.377L195.661 191.591C197.578 190.34 198.118 187.773 196.867 185.856L191.125 177.054C189.875 175.138 187.307 174.598 185.391 175.848Z" fill="#18293A"/>
<path d="M183.791 186.513L177.987 190.299C176.071 191.55 175.531 194.117 176.781 196.034L182.523 204.836C183.774 206.752 186.341 207.292 188.258 206.042L194.061 202.256C195.978 201.005 196.518 198.438 195.268 196.522L189.525 187.719C188.275 185.803 185.708 185.263 183.791 186.513Z" fill="#18293A"/>
<path d="M182.193 197.175L176.389 200.961C174.472 202.212 173.932 204.779 175.183 206.696L180.925 215.498C182.175 217.414 184.743 217.954 186.659 216.704L192.463 212.918C194.38 211.667 194.92 209.1 193.669 207.183L187.927 198.381C186.677 196.465 184.109 195.925 182.193 197.175Z" fill="#18293A"/>
<path d="M180.596 207.826L174.793 211.612C172.876 212.862 172.336 215.43 173.586 217.346L179.329 226.148C180.579 228.065 183.146 228.605 185.063 227.355L190.867 223.568C192.783 222.318 193.323 219.751 192.073 217.834L186.331 209.032C185.08 207.115 182.513 206.575 180.596 207.826Z" fill="#18293A"/>
<path d="M179.005 218.483L173.201 222.269C171.284 223.52 170.744 226.087 171.995 228.004L177.737 236.806C178.987 238.722 181.555 239.262 183.471 238.012L189.275 234.226C191.192 232.975 191.732 230.408 190.481 228.492L184.739 219.689C183.489 217.773 180.921 217.233 179.005 218.483Z" fill="#18293A"/>
<path d="M209.467 122.569L203.663 126.355C201.746 127.606 201.206 130.173 202.457 132.089L208.199 140.891C209.449 142.808 212.017 143.348 213.933 142.098L219.737 138.311C221.654 137.061 222.194 134.494 220.943 132.577L215.201 123.775C213.951 121.859 211.383 121.318 209.467 122.569Z" fill="#18293A"/>
<path d="M207.871 133.22L202.067 137.006C200.15 138.256 199.61 140.824 200.861 142.74L206.603 151.542C207.853 153.459 210.421 153.999 212.337 152.749L218.141 148.962C220.058 147.712 220.598 145.145 219.347 143.228L213.605 134.426C212.355 132.509 209.787 131.969 207.871 133.22Z" fill="#18293A"/>
<path d="M206.279 143.877L200.475 147.664C198.558 148.914 198.018 151.481 199.269 153.398L205.011 162.2C206.261 164.116 208.829 164.657 210.745 163.406L216.549 159.62C218.466 158.369 219.006 155.802 217.755 153.886L212.013 145.084C210.763 143.167 208.195 142.627 206.279 143.877Z" fill="#18293A"/>
<path d="M204.687 154.542L198.883 158.329C196.967 159.579 196.427 162.146 197.677 164.063L203.419 172.865C204.67 174.782 207.237 175.322 209.154 174.071L214.957 170.285C216.874 169.035 217.414 166.467 216.164 164.551L210.421 155.749C209.171 153.832 206.604 153.292 204.687 154.542Z" fill="#18293A"/>
<path d="M203.095 165.2L197.291 168.986C195.375 170.236 194.835 172.804 196.085 174.72L201.828 183.522C203.078 185.439 205.645 185.979 207.562 184.729L213.366 180.942C215.282 179.692 215.822 177.125 214.572 175.208L208.83 166.406C207.579 164.489 205.012 163.949 203.095 165.2Z" fill="#18293A"/>
<path d="M201.491 175.851L195.687 179.637C193.771 180.887 193.231 183.455 194.481 185.371L200.224 194.173C201.474 196.09 204.041 196.63 205.958 195.38L211.762 191.593C213.678 190.343 214.218 187.776 212.968 185.859L207.226 177.057C205.975 175.14 203.408 174.6 201.491 175.851Z" fill="#18293A"/>
<path d="M199.899 186.516L194.096 190.302C192.179 191.553 191.639 194.12 192.889 196.036L198.632 204.839C199.882 206.755 202.449 207.295 204.366 206.045L210.17 202.259C212.086 201.008 212.626 198.441 211.376 196.524L205.634 187.722C204.383 185.806 201.816 185.265 199.899 186.516Z" fill="#18293A"/>
<path d="M198.308 197.173L192.504 200.96C190.587 202.21 190.047 204.777 191.298 206.694L197.04 215.496C198.29 217.413 200.858 217.953 202.774 216.702L208.578 212.916C210.495 211.666 211.035 209.098 209.784 207.182L204.042 198.38C202.792 196.463 200.224 195.923 198.308 197.173Z" fill="#18293A"/>
<path d="M196.711 207.824L190.908 211.61C188.991 212.861 188.451 215.428 189.701 217.345L195.444 226.147C196.694 228.063 199.261 228.603 201.178 227.353L206.982 223.567C208.898 222.316 209.438 219.749 208.188 217.832L202.446 209.03C201.195 207.114 198.628 206.574 196.711 207.824Z" fill="#18293A"/>
<path d="M195.112 218.481L189.308 222.268C187.391 223.518 186.851 226.085 188.102 228.002L193.844 236.804C195.094 238.721 197.662 239.261 199.578 238.01L205.382 234.224C207.299 232.974 207.839 230.406 206.588 228.49L200.846 219.688C199.596 217.771 197.028 217.231 195.112 218.481Z" fill="#18293A"/>
<path d="M223.214 116.34L213.661 122.573C211.744 123.823 211.204 126.391 212.454 128.307L221.22 141.743C222.47 143.66 225.037 144.2 226.954 142.949L236.507 136.717C238.424 135.466 238.964 132.899 237.714 130.983L228.948 117.547C227.698 115.63 225.131 115.09 223.214 116.34Z" fill="#18293A"/>
<path d="M216.859 148.973L222.663 152.76C224.58 154.01 227.147 153.47 228.397 151.553L234.14 142.751C235.39 140.835 234.85 138.267 232.933 137.017L227.13 133.231C225.213 131.98 222.646 132.52 221.395 134.437L215.653 143.239C214.403 145.156 214.943 147.723 216.859 148.973Z" fill="#18293A"/>
<path d="M218.452 159.624L224.256 163.411C226.172 164.661 228.74 164.121 229.99 162.204L235.732 153.402C236.983 151.486 236.443 148.918 234.526 147.668L228.722 143.882C226.806 142.631 224.238 143.171 222.988 145.088L217.246 153.89C215.995 155.807 216.535 158.374 218.452 159.624Z" fill="#18293A"/>
<path d="M220.051 170.28L225.855 174.066C227.771 175.316 230.339 174.776 231.589 172.86L237.331 164.058C238.582 162.141 238.042 159.574 236.125 158.323L230.321 154.537C228.405 153.287 225.837 153.827 224.587 155.743L218.845 164.545C217.594 166.462 218.134 169.029 220.051 170.28Z" fill="#18293A"/>
<path d="M221.642 180.935L227.446 184.721C229.363 185.972 231.93 185.432 233.18 183.515L238.923 174.713C240.173 172.796 239.633 170.229 237.716 168.979L231.913 165.192C229.996 163.942 227.429 164.482 226.178 166.399L220.436 175.201C219.186 177.117 219.726 179.685 221.642 180.935Z" fill="#18293A"/>
<path d="M223.237 191.597L229.041 195.383C230.957 196.634 233.525 196.094 234.775 194.177L240.517 185.375C241.768 183.459 241.228 180.891 239.311 179.641L233.507 175.855C231.591 174.604 229.023 175.144 227.773 177.061L222.031 185.863C220.78 187.779 221.32 190.347 223.237 191.597Z" fill="#18293A"/>
<path d="M224.836 202.253L230.64 206.039C232.557 207.289 235.124 206.749 236.374 204.833L242.117 196.031C243.367 194.114 242.827 191.547 240.91 190.296L235.107 186.51C233.19 185.26 230.623 185.8 229.372 187.716L223.63 196.518C222.38 198.435 222.92 201.002 224.836 202.253Z" fill="#18293A"/>
<path d="M226.435 212.908L232.239 216.694C234.156 217.945 236.723 217.405 237.973 215.488L243.716 206.686C244.966 204.769 244.426 202.202 242.51 200.952L236.706 197.165C234.789 195.915 232.222 196.455 230.971 198.372L225.229 207.174C223.979 209.09 224.519 211.658 226.435 212.908Z" fill="#18293A"/>
<path d="M228.03 223.57L233.834 227.356C235.751 228.607 238.318 228.067 239.568 226.15L245.311 217.348C246.561 215.431 246.021 212.864 244.104 211.614L238.301 207.827C236.384 206.577 233.817 207.117 232.566 209.034L226.824 217.836C225.574 219.752 226.114 222.32 228.03 223.57Z" fill="#18293A"/>
<path d="M229.629 234.226L235.433 238.012C237.35 239.262 239.917 238.722 241.168 236.806L246.91 228.004C248.16 226.087 247.62 223.52 245.704 222.269L239.9 218.483C237.983 217.233 235.416 217.773 234.166 219.689L228.423 228.491C227.173 230.408 227.713 232.975 229.629 234.226Z" fill="#18293A"/>
<path d="M195.338 140.412L208.341 148.895C210.258 150.146 212.825 149.606 214.076 147.689L225.621 129.992C226.872 128.075 226.331 125.508 224.415 124.258L211.411 115.774C209.495 114.524 206.927 115.064 205.677 116.981L194.132 134.678C192.881 136.594 193.421 139.162 195.338 140.412Z" fill="#18293A"/>
<path d="M203.431 148.973L209.235 152.759C211.151 154.01 213.719 153.469 214.969 151.553L220.711 142.751C221.962 140.834 221.422 138.267 219.505 137.017L213.701 133.23C211.785 131.98 209.217 132.52 207.967 134.437L202.225 143.239C200.974 145.155 201.514 147.723 203.431 148.973Z" fill="#18293A"/>
<path d="M205.03 159.628L210.834 163.415C212.75 164.665 215.318 164.125 216.568 162.208L222.31 153.406C223.561 151.49 223.021 148.922 221.104 147.672L215.3 143.886C213.384 142.635 210.816 143.175 209.566 145.092L203.824 153.894C202.573 155.811 203.113 158.378 205.03 159.628Z" fill="#18293A"/>
<path d="M206.629 170.284L212.433 174.07C214.349 175.32 216.917 174.78 218.167 172.864L223.91 164.062C225.16 162.145 224.62 159.578 222.703 158.327L216.899 154.541C214.983 153.291 212.416 153.831 211.165 155.747L205.423 164.549C204.172 166.466 204.713 169.033 206.629 170.284Z" fill="#18293A"/>
<path d="M208.228 180.939L214.032 184.726C215.949 185.976 218.516 185.436 219.766 183.519L225.509 174.717C226.759 172.801 226.219 170.233 224.302 168.983L218.499 165.197C216.582 163.946 214.015 164.486 212.764 166.403L207.022 175.205C205.772 177.122 206.312 179.689 208.228 180.939Z" fill="#18293A"/>
<path d="M209.817 191.597L215.62 195.383C217.537 196.634 220.104 196.094 221.355 194.177L227.097 185.375C228.347 183.458 227.807 180.891 225.891 179.641L220.087 175.854C218.17 174.604 215.603 175.144 214.353 177.061L208.61 185.863C207.36 187.779 207.9 190.347 209.817 191.597Z" fill="#18293A"/>
<path d="M211.416 202.252L217.22 206.039C219.136 207.289 221.703 206.749 222.954 204.832L228.696 196.03C229.947 194.114 229.406 191.546 227.49 190.296L221.686 186.51C219.769 185.259 217.202 185.799 215.952 187.716L210.209 196.518C208.959 198.434 209.499 201.002 211.416 202.252Z" fill="#18293A"/>
<path d="M213.007 212.908L218.811 216.694C220.727 217.944 223.295 217.404 224.545 215.488L230.287 206.686C231.538 204.769 230.998 202.202 229.081 200.951L223.277 197.165C221.361 195.915 218.793 196.455 217.543 198.371L211.801 207.173C210.55 209.09 211.09 211.657 213.007 212.908Z" fill="#18293A"/>
<path d="M214.602 223.57L220.406 227.356C222.322 228.606 224.889 228.066 226.14 226.15L231.882 217.348C233.133 215.431 232.592 212.864 230.676 211.613L224.872 207.827C222.956 206.577 220.388 207.117 219.138 209.033L213.395 217.836C212.145 219.752 212.685 222.319 214.602 223.57Z" fill="#18293A"/>
<path d="M216.201 234.225L222.005 238.011C223.921 239.262 226.489 238.722 227.739 236.805L233.481 228.003C234.732 226.086 234.192 223.519 232.275 222.269L226.471 218.482C224.555 217.232 221.987 217.772 220.737 219.689L214.995 228.491C213.744 230.407 214.284 232.975 216.201 234.225Z" fill="#18293A"/>
<path d="M180.878 139.266L193.044 147.203C194.961 148.453 197.528 147.913 198.778 145.997L209.647 129.337C210.897 127.42 210.357 124.853 208.441 123.602L196.275 115.665C194.358 114.415 191.791 114.955 190.541 116.872L179.672 133.532C178.421 135.448 178.961 138.016 180.878 139.266Z" fill="#18293A"/>
<path d="M190.002 148.972L195.806 152.759C197.723 154.009 200.29 153.469 201.54 151.552L207.283 142.75C208.533 140.834 207.993 138.266 206.076 137.016L200.273 133.23C198.356 131.979 195.789 132.519 194.538 134.436L188.796 143.238C187.546 145.155 188.086 147.722 190.002 148.972Z" fill="#18293A"/>
<path d="M191.601 159.628L197.405 163.414C199.322 164.665 201.889 164.125 203.139 162.208L208.882 153.406C210.132 151.489 209.592 148.922 207.676 147.672L201.872 143.885C199.955 142.635 197.388 143.175 196.137 145.092L190.395 153.894C189.145 155.81 189.685 158.378 191.601 159.628Z" fill="#18293A"/>
<path d="M193.201 170.283L199.004 174.07C200.921 175.32 203.488 174.78 204.739 172.863L210.481 164.061C211.731 162.145 211.191 159.577 209.275 158.327L203.471 154.541C201.554 153.29 198.987 153.831 197.737 155.747L191.994 164.549C190.744 166.466 191.284 169.033 193.201 170.283Z" fill="#18293A"/>
<path d="M194.8 180.939L200.604 184.725C202.52 185.975 205.087 185.435 206.338 183.519L212.08 174.717C213.331 172.8 212.79 170.233 210.874 168.982L205.07 165.196C203.154 163.946 200.586 164.486 199.336 166.402L193.593 175.204C192.343 177.121 192.883 179.688 194.8 180.939Z" fill="#18293A"/>
<path d="M196.395 191.601L202.198 195.387C204.115 196.638 206.682 196.097 207.933 194.181L213.675 185.379C214.925 183.462 214.385 180.895 212.469 179.644L206.665 175.858C204.748 174.608 202.181 175.148 200.931 177.064L195.188 185.867C193.938 187.783 194.478 190.35 196.395 191.601Z" fill="#18293A"/>
<path d="M197.994 202.256L203.798 206.043C205.714 207.293 208.281 206.753 209.532 204.836L215.274 196.034C216.525 194.118 215.984 191.55 214.068 190.3L208.264 186.514C206.347 185.263 203.78 185.803 202.53 187.72L196.787 196.522C195.537 198.439 196.077 201.006 197.994 202.256Z" fill="#18293A"/>
<path d="M199.593 212.912L205.397 216.698C207.313 217.948 209.881 217.408 211.131 215.492L216.873 206.69C218.124 204.773 217.584 202.206 215.667 200.955L209.863 197.169C207.947 195.919 205.379 196.459 204.129 198.375L198.387 207.177C197.136 209.094 197.676 211.661 199.593 212.912Z" fill="#18293A"/>
<path d="M201.181 223.569L206.985 227.356C208.901 228.606 211.469 228.066 212.719 226.149L218.462 217.347C219.712 215.431 219.172 212.863 217.255 211.613L211.451 207.827C209.535 206.576 206.968 207.116 205.717 209.033L199.975 217.835C198.724 219.752 199.265 222.319 201.181 223.569Z" fill="#18293A"/>
<path d="M202.78 234.225L208.584 238.011C210.501 239.262 213.068 238.721 214.318 236.805L220.061 228.003C221.311 226.086 220.771 223.519 218.854 222.269L213.051 218.482C211.134 217.232 208.567 217.772 207.316 219.689L201.574 228.491C200.324 230.407 200.864 232.974 202.78 234.225Z" fill="#18293A"/>
<path d="M214.652 207.689H201.951V232.296H214.652V207.689Z" fill="#E36654"/>
<path d="M239.219 223.564H178.178C170.265 223.564 163.85 229.979 163.85 237.892V357.672C163.85 365.585 170.265 372 178.178 372H239.219C247.132 372 253.547 365.585 253.547 357.672V237.892C253.547 229.979 247.132 223.564 239.219 223.564Z" fill="#A0DAFF"/>
<path d="M227.67 140.02H188.545C183.284 140.02 179.019 144.284 179.019 149.545V204.776C179.019 210.036 183.284 214.301 188.545 214.301H227.67C232.93 214.301 237.195 210.036 237.195 204.776V149.545C237.195 144.284 232.93 140.02 227.67 140.02Z" fill="#FD9E98"/>
<path d="M179.938 120.777L174.134 124.564C172.217 125.814 171.677 128.381 172.928 130.298L178.67 139.1C179.92 141.017 182.488 141.557 184.404 140.306L190.208 136.52C192.125 135.27 192.665 132.702 191.414 130.786L185.672 121.984C184.422 120.067 181.854 119.527 179.938 120.777Z" fill="#18293A"/>
<path d="M179.239 132.335L173.436 136.122C171.519 137.372 170.979 139.939 172.229 141.856L177.972 150.658C179.222 152.574 181.789 153.115 183.706 151.864L189.51 148.078C191.426 146.827 191.966 144.26 190.716 142.344L184.974 133.542C183.723 131.625 181.156 131.085 179.239 132.335Z" fill="#18293A"/>
<path d="M175.852 143.88L170.048 147.666C168.131 148.916 167.591 151.484 168.842 153.4L174.584 162.202C175.834 164.119 178.402 164.659 180.318 163.409L186.122 159.622C188.039 158.372 188.579 155.805 187.328 153.888L181.586 145.086C180.336 143.169 177.768 142.629 175.852 143.88Z" fill="#18293A"/>
<path d="M174.26 154.537L168.456 158.323C166.54 159.574 165.999 162.141 167.25 164.058L172.992 172.86C174.243 174.776 176.81 175.316 178.726 174.066L184.53 170.28C186.447 169.029 186.987 166.462 185.737 164.545L179.994 155.743C178.744 153.827 176.176 153.287 174.26 154.537Z" fill="#18293A"/>
<path d="M172.668 165.202L166.864 168.989C164.948 170.239 164.408 172.806 165.658 174.723L171.4 183.525C172.651 185.442 175.218 185.982 177.135 184.731L182.938 180.945C184.855 179.695 185.395 177.127 184.145 175.211L178.402 166.409C177.152 164.492 174.585 163.952 172.668 165.202Z" fill="#18293A"/>
<path d="M171.072 175.853L165.268 179.64C163.352 180.89 162.811 183.457 164.062 185.374L169.804 194.176C171.055 196.093 173.622 196.633 175.538 195.382L181.342 191.596C183.259 190.346 183.799 187.778 182.549 185.862L176.806 177.06C175.556 175.143 172.989 174.603 171.072 175.853Z" fill="#18293A"/>
<path d="M169.472 186.51L163.668 190.297C161.752 191.547 161.212 194.114 162.462 196.031L168.204 204.833C169.455 206.75 172.022 207.29 173.939 206.039L179.743 202.253C181.659 201.003 182.199 198.435 180.949 196.519L175.206 187.717C173.956 185.8 171.389 185.26 169.472 186.51Z" fill="#18293A"/>
<path d="M167.874 197.172L162.07 200.959C160.153 202.209 159.613 204.776 160.864 206.693L166.606 215.495C167.856 217.412 170.424 217.952 172.34 216.701L178.144 212.915C180.061 211.665 180.601 209.097 179.35 207.181L173.608 198.379C172.358 196.462 169.79 195.922 167.874 197.172Z" fill="#18293A"/>
<path d="M166.278 207.831L160.474 211.617C158.557 212.868 158.017 215.435 159.268 217.352L165.01 226.154C166.26 228.07 168.828 228.61 170.744 227.36L176.548 223.574C178.465 222.323 179.005 219.756 177.754 217.839L172.012 209.037C170.762 207.121 168.194 206.581 166.278 207.831Z" fill="#18293A"/>
<path d="M164.686 218.489L158.882 222.275C156.965 223.525 156.425 226.093 157.676 228.009L163.418 236.811C164.668 238.728 167.236 239.268 169.152 238.017L174.956 234.231C176.873 232.981 177.413 230.413 176.162 228.497L170.42 219.695C169.17 217.778 166.602 217.238 164.686 218.489Z" fill="#18293A"/>
<path d="M226.003 138.309L231.807 142.095C233.723 143.346 236.291 142.806 237.541 140.889L243.283 132.087C244.534 130.17 243.994 127.603 242.077 126.353L236.273 122.566C234.357 121.316 231.789 121.856 230.539 123.773L224.797 132.575C223.546 134.491 224.086 137.059 226.003 138.309Z" fill="#18293A"/>
<path d="M227.598 148.971L233.402 152.758C235.318 154.008 237.885 153.468 239.136 151.551L244.878 142.749C246.129 140.833 245.588 138.265 243.672 137.015L237.868 133.229C235.952 131.978 233.384 132.518 232.134 134.435L226.391 143.237C225.141 145.153 225.681 147.721 227.598 148.971Z" fill="#18293A"/>
<path d="M230.981 159.623L236.784 163.409C238.701 164.659 241.268 164.119 242.519 162.203L248.261 153.401C249.511 151.484 248.971 148.917 247.055 147.666L241.251 143.88C239.334 142.63 236.767 143.17 235.517 145.086L229.774 153.889C228.524 155.805 229.064 158.372 230.981 159.623Z" fill="#18293A"/>
<path d="M232.58 170.278L238.384 174.064C240.3 175.315 242.868 174.775 244.118 172.858L249.86 164.056C251.111 162.139 250.571 159.572 248.654 158.322L242.85 154.535C240.934 153.285 238.366 153.825 237.116 155.742L231.374 164.544C230.123 166.46 230.663 169.028 232.58 170.278Z" fill="#18293A"/>
<path d="M234.179 180.934L239.983 184.72C241.899 185.97 244.467 185.43 245.717 183.514L251.459 174.712C252.71 172.795 252.17 170.228 250.253 168.977L244.449 165.191C242.533 163.941 239.965 164.481 238.715 166.397L232.973 175.199C231.722 177.116 232.262 179.683 234.179 180.934Z" fill="#18293A"/>
<path d="M235.774 191.596L241.578 195.382C243.494 196.632 246.061 196.092 247.312 194.176L253.054 185.374C254.305 183.457 253.764 180.89 251.848 179.639L246.044 175.853C244.128 174.603 241.56 175.143 240.31 177.059L234.567 185.861C233.317 187.778 233.857 190.345 235.774 191.596Z" fill="#18293A"/>
<path d="M237.373 202.259L243.177 206.045C245.093 207.296 247.661 206.756 248.911 204.839L254.653 196.037C255.904 194.12 255.364 191.553 253.447 190.303L247.643 186.516C245.727 185.266 243.159 185.806 241.909 187.723L236.167 196.525C234.916 198.441 235.456 201.009 237.373 202.259Z" fill="#18293A"/>
<path d="M238.972 212.914L244.776 216.701C246.693 217.951 249.26 217.411 250.51 215.494L256.253 206.692C257.503 204.776 256.963 202.208 255.046 200.958L249.242 197.172C247.326 195.921 244.759 196.461 243.508 198.378L237.766 207.18C236.515 209.097 237.056 211.664 238.972 212.914Z" fill="#18293A"/>
<path d="M240.567 223.576L246.371 227.363C248.287 228.613 250.855 228.073 252.105 226.156L257.847 217.354C259.098 215.438 258.558 212.87 256.641 211.62L250.837 207.834C248.921 206.583 246.353 207.123 245.103 209.04L239.361 217.842C238.11 219.759 238.65 222.326 240.567 223.576Z" fill="#18293A"/>
<path d="M242.158 234.232L247.962 238.018C249.879 239.269 252.446 238.729 253.696 236.812L259.439 228.01C260.689 226.093 260.149 223.526 258.232 222.276L252.429 218.489C250.512 217.239 247.945 217.779 246.694 219.696L240.952 228.498C239.702 230.414 240.242 232.982 242.158 234.232Z" fill="#18293A"/>
<path d="M189.727 144.171C189.727 144.171 195.649 140.448 207.913 140.448C220.176 140.448 227.098 144.171 227.098 144.171L230.916 139.123L220.653 132.137L193.331 132.86L186.012 139.25L189.727 144.171Z" fill="#18293A"/>
<path d="M196.022 178.049C200.963 178.049 204.968 174.044 204.968 169.104C204.968 164.163 200.963 160.158 196.022 160.158C191.081 160.158 187.076 164.163 187.076 169.104C187.076 174.044 191.081 178.049 196.022 178.049Z" fill="white"/>
<path d="M220.184 178.049C225.125 178.049 229.13 174.044 229.13 169.104C229.13 164.163 225.125 160.158 220.184 160.158C215.244 160.158 211.239 164.163 211.239 169.104C211.239 174.044 215.244 178.049 220.184 178.049Z" fill="white"/>
<path d="M192.799 174.374C195.022 174.374 196.824 172.573 196.824 170.35C196.824 168.127 195.022 166.325 192.799 166.325C190.577 166.325 188.775 168.127 188.775 170.35C188.775 172.573 190.577 174.374 192.799 174.374Z" fill="black"/>
<path d="M216.97 174.819C219.192 174.819 220.994 173.017 220.994 170.794C220.994 168.572 219.192 166.77 216.97 166.77C214.747 166.77 212.945 168.572 212.945 170.794C212.945 173.017 214.747 174.819 216.97 174.819Z" fill="black"/>
<path d="M204.404 165.976H187.632C188.902 162.587 192.18 160.158 196.014 160.158C199.848 160.158 203.126 162.587 204.396 165.976H204.404Z" fill="#E36654"/>
<path d="M228.567 165.976H211.794C213.064 162.587 216.343 160.158 220.176 160.158C224.01 160.158 227.289 162.587 228.559 165.976H228.567Z" fill="#E36654"/>
<path d="M212.128 180.875C212.128 183.519 210.429 185.662 208.333 185.662C206.238 185.662 204.539 183.519 204.539 180.875C204.539 178.232 206.238 171.31 208.333 171.31C210.429 171.31 212.128 178.24 212.128 180.875Z" fill="#E36654"/>
<path d="M208.881 193.591C204.912 193.591 201.054 192.036 198.768 190.051C198.435 189.765 198.403 189.265 198.689 188.932C198.975 188.599 199.483 188.567 199.808 188.853C203.325 191.893 210.937 193.822 216.096 189.527C216.43 189.249 216.93 189.289 217.216 189.63C217.493 189.964 217.454 190.464 217.112 190.75C214.668 192.782 211.747 193.591 208.881 193.591Z" fill="#E36654"/>
<path d="M201.586 155.236H192.236C191.359 155.236 190.648 155.947 190.648 156.824V157.229C190.648 158.105 191.359 158.816 192.236 158.816H201.586C202.463 158.816 203.174 158.105 203.174 157.229V156.824C203.174 155.947 202.463 155.236 201.586 155.236Z" fill="#10193A"/>
<path d="M223.963 155.236H214.612C213.735 155.236 213.025 155.947 213.025 156.824V157.229C213.025 158.105 213.735 158.816 214.612 158.816H223.963C224.84 158.816 225.55 158.105 225.55 157.229V156.824C225.55 155.947 224.84 155.236 223.963 155.236Z" fill="#10193A"/>
<path d="M224.209 183.82C216.096 183.82 209.492 177.216 209.492 169.104C209.492 160.991 216.096 154.387 224.209 154.387C232.321 154.387 238.925 160.991 238.925 169.104C238.925 177.216 232.321 183.82 224.209 183.82ZM224.209 155.181C216.533 155.181 210.286 161.428 210.286 169.104C210.286 176.779 216.533 183.026 224.209 183.026C231.885 183.026 238.132 176.779 238.132 169.104C238.132 161.428 231.885 155.181 224.209 155.181Z" fill="#F6BFCA"/>
<path d="M192.886 183.82C184.774 183.82 178.17 177.216 178.17 169.104C178.17 160.991 184.774 154.387 192.886 154.387C200.999 154.387 207.603 160.991 207.603 169.104C207.603 177.216 200.999 183.82 192.886 183.82ZM192.886 155.181C185.211 155.181 178.964 161.428 178.964 169.104C178.964 176.779 185.211 183.026 192.886 183.026C200.562 183.026 206.809 176.779 206.809 169.104C206.809 161.428 200.562 155.181 192.886 155.181Z" fill="#F6BFCA"/>
<path d="M209.889 168.707H207.206V169.501H209.889V168.707Z" fill="#F6BFCA"/>
<path d="M208.302 229.914C211.809 229.914 214.652 227.071 214.652 223.564C214.652 220.057 211.809 217.214 208.302 217.214C204.794 217.214 201.951 220.057 201.951 223.564C201.951 227.071 204.794 229.914 208.302 229.914Z" fill="#E36654"/>
</g>
</g>
<defs>
<clipPath id="clip0_412_11">
<rect width="103.103" height="257" fill="white" transform="translate(157 115)"/>
</clipPath>
</defs>
</svg>
