<svg width="375" height="338" viewBox="0 0 375 338" fill="none" xmlns="http://www.w3.org/2000/svg">
<mask id="mask0_412_9" style="mask-type:alpha" maskUnits="userSpaceOnUse" x="0" y="0" width="375" height="338">
<rect width="375" height="338" fill="white"/>
</mask>
<g mask="url(#mask0_412_9)">
<rect width="375" height="338" fill="white"/>
<g clip-path="url(#clip0_412_9)">
<path d="M378.403 176.393H372.636V238H378.403V176.393Z" fill="#2F4233"/>
<path d="M375.082 219.9C361.465 219.9 350.384 208.773 350.384 195.099C350.384 181.426 361.465 170.299 375.082 170.299V173.027C362.975 173.027 353.101 182.942 353.101 195.099C353.101 207.257 362.975 217.171 375.082 217.171V219.9Z" fill="#2F4233"/>
<path d="M352.316 211.259C364.089 211.259 373.633 201.676 373.633 189.854C373.633 178.033 364.089 168.449 352.316 168.449C340.544 168.449 331 178.033 331 189.854C331 201.676 340.544 211.259 352.316 211.259Z" fill="#6BA06B"/>
<path d="M374.237 197.858L373.935 195.16C385.046 193.887 393.409 184.488 393.409 173.24H396.127C396.127 185.883 386.707 196.464 374.237 197.889V197.858Z" fill="#2F4233"/>
<path d="M373.391 184.488C391.401 184.488 406 169.828 406 151.744C406 133.66 391.401 119 373.391 119C355.382 119 340.783 133.66 340.783 151.744C340.783 169.828 355.382 184.488 373.391 184.488Z" fill="#79B77B"/>
</g>
<path d="M362.772 191.49H220.28V238.666H362.772V191.49Z" fill="#BAB4C6"/>
<path d="M363.982 191.491H220.28L198.607 149H342.308L363.982 191.491Z" fill="#F3E8F3"/>
<path d="M197.648 149L176 191.491H220.28L341.35 149H197.648Z" fill="#D16162"/>
<path d="M363.982 191.491H220.28L198.607 149H342.308L363.982 191.491Z" fill="#D16162"/>
<path d="M198.279 151.318L177.487 191.492V238.668H220.28V191.492L198.279 151.318Z" fill="#F3E8F3"/>
<path d="M195.909 206.503H188.248V226.754H195.909V206.503Z" fill="#ADAAAD"/>
<path d="M209.518 206.503H201.857V226.754H209.518V206.503Z" fill="#ADAAAD"/>
<path d="M349.868 206.503H338.275V226.754H349.868V206.503Z" fill="#786380"/>
<path d="M328.824 206.503H317.231V226.754H328.824V206.503Z" fill="#786380"/>
<path d="M307.806 206.503H296.213V226.754H307.806V206.503Z" fill="#786380"/>
<path d="M286.788 206.503H275.195V226.754H286.788V206.503Z" fill="#786380"/>
<path d="M265.768 206.503H254.176V226.754H265.768V206.503Z" fill="#786380"/>
<path d="M244.75 206.503H233.157V226.754H244.75V206.503Z" fill="#786380"/>
<rect y="238" width="375" height="176" fill="#79B77B"/>
<path d="M49.4807 190.478H-23.1027V238.508H49.4807V190.478Z" fill="#BAB4C6"/>
<path d="M39.2131 208.359H28.355V227.326H39.2131V208.359Z" fill="#786380"/>
<path d="M19.5271 208.359H8.66919V227.326H19.5271V208.359Z" fill="#786380"/>
<path d="M51.6527 188H-65V191.397H51.6527V188Z" fill="#D16162"/>
<path d="M261.333 257.649H228.594C225.57 257.649 223.118 260.099 223.118 263.122C223.118 266.144 225.57 268.595 228.594 268.595H261.333C264.357 268.595 266.809 266.144 266.809 263.122C266.809 260.099 264.357 257.649 261.333 257.649Z" fill="#5E1B19"/>
<path d="M259.938 266.01L260.664 273.967L264.134 273.65L263.408 265.694L259.938 266.01Z" fill="#5E1B19"/>
<path d="M255.769 268.543L256.495 276.5L259.965 276.184L259.24 268.227L255.769 268.543Z" fill="#5E1B19"/>
<path d="M226.739 265.545L226.013 273.501L229.484 273.817L230.209 265.861L226.739 265.545Z" fill="#5E1B19"/>
<path d="M230.944 268.044L230.218 276.001L233.688 276.317L234.414 268.361L230.944 268.044Z" fill="#5E1B19"/>
<path d="M316.672 245H283.933C280.909 245 278.457 247.45 278.457 250.473C278.457 253.495 280.909 255.946 283.933 255.946H316.672C319.696 255.946 322.148 253.495 322.148 250.473C322.148 247.45 319.696 245 316.672 245Z" fill="#5E1B19"/>
<path d="M315.277 253.361L316.003 261.318L319.473 261.001L318.747 253.045L315.277 253.361Z" fill="#5E1B19"/>
<path d="M311.108 255.894L311.834 263.851L315.305 263.535L314.579 255.578L311.108 255.894Z" fill="#5E1B19"/>
<path d="M282.078 252.896L281.352 260.852L284.823 261.169L285.549 253.212L282.078 252.896Z" fill="#5E1B19"/>
<path d="M286.283 255.395L285.557 263.352L289.028 263.668L289.754 255.712L286.283 255.395Z" fill="#5E1B19"/>
<path d="M300.07 278.994H267.331C264.307 278.994 261.855 281.444 261.855 284.467C261.855 287.49 264.307 289.94 267.331 289.94H300.07C303.095 289.94 305.546 287.49 305.546 284.467C305.546 281.444 303.095 278.994 300.07 278.994Z" fill="#5E1B19"/>
<path d="M298.675 287.355L299.401 295.312L302.871 294.996L302.146 287.039L298.675 287.355Z" fill="#5E1B19"/>
<path d="M294.507 289.889L295.233 297.845L298.703 297.529L297.977 289.572L294.507 289.889Z" fill="#5E1B19"/>
<path d="M265.477 286.89L264.751 294.846L268.221 295.163L268.947 287.206L265.477 286.89Z" fill="#5E1B19"/>
<path d="M269.681 289.39L268.955 297.346L272.426 297.662L273.152 289.706L269.681 289.39Z" fill="#5E1B19"/>
<path d="M73.5609 179.077C73.5609 155.285 92.8455 136 116.638 136C140.43 136 159.715 155.285 159.715 179.077" fill="#615FC2"/>
<path d="M130.869 156.769H102.407C88.8123 156.769 77.7916 167.79 77.7916 181.385C77.7916 194.979 88.8123 206 102.407 206H130.869C144.463 206 155.484 194.979 155.484 181.385C155.484 167.79 144.463 156.769 130.869 156.769Z" fill="#FFC8A2"/>
<path d="M137.792 177.154C137.792 172.268 133.831 168.308 128.946 168.308C124.06 168.308 120.099 172.268 120.099 177.154V178.692C120.099 183.578 124.06 187.538 128.946 187.538C133.831 187.538 137.792 183.578 137.792 178.692V177.154Z" fill="white"/>
<path d="M113.176 177.154C113.176 172.268 109.216 168.308 104.33 168.308C99.4446 168.308 95.484 172.268 95.484 177.154V178.692C95.484 183.578 99.4446 187.538 104.33 187.538C109.216 187.538 113.176 183.578 113.176 178.692V177.154Z" fill="white"/>
<path d="M110.93 175.238C110.93 173.395 109.436 171.9 107.592 171.9C105.748 171.9 104.253 173.395 104.253 175.238V178.815C104.253 180.659 105.748 182.154 107.592 182.154C109.436 182.154 110.93 180.659 110.93 178.815V175.238Z" fill="black"/>
<path d="M135.792 175.238C135.792 173.395 134.297 171.9 132.453 171.9C130.609 171.9 129.115 173.395 129.115 175.238V178.815C129.115 180.659 130.609 182.154 132.453 182.154C134.297 182.154 135.792 180.659 135.792 178.815V175.238Z" fill="black"/>
<path d="M137.792 177.154H120.099C120.099 172.285 124.076 168.308 128.946 168.308C131.376 168.308 133.592 169.3 135.192 170.908C136.799 172.508 137.792 174.723 137.792 177.154Z" fill="#F89E62"/>
<path d="M113.176 177.154H95.484C95.484 172.285 99.4609 168.308 104.33 168.308C106.761 168.308 108.976 169.3 110.576 170.908C112.184 172.508 113.176 174.723 113.176 177.154Z" fill="#F89E62"/>
<path d="M75.484 189.846C80.1572 189.846 83.9455 186.058 83.9455 181.385C83.9455 176.711 80.1572 172.923 75.484 172.923C70.8108 172.923 67.0225 176.711 67.0225 181.385C67.0225 186.058 70.8108 189.846 75.484 189.846Z" fill="#FFC8A2"/>
<path d="M157.792 189.846C162.465 189.846 166.253 186.058 166.253 181.385C166.253 176.711 162.465 172.923 157.792 172.923C153.119 172.923 149.33 176.711 149.33 181.385C149.33 186.058 153.119 189.846 157.792 189.846Z" fill="#FFC8A2"/>
<path d="M138.898 219.529L131.402 224.915L173.071 282.904L180.567 277.518L138.898 219.529Z" fill="#FFC8A2"/>
<path d="M53.7173 277.511L61.2135 282.898L102.883 224.909L95.3867 219.522L53.7173 277.511Z" fill="#FFC8A2"/>
<path d="M87.8908 307.131L93.9333 300.153L59.7055 270.514L53.6629 277.492L87.8908 307.131Z" fill="#FFC8A2"/>
<path d="M139.836 300.148L145.878 307.126L180.106 277.488L174.064 270.51L139.836 300.148Z" fill="#FFC8A2"/>
<path d="M87.6302 221.169L75.4763 242.6L87.6302 252.985L104.322 227.346L96.2455 215.239C96.2455 215.239 90.5455 215.577 87.6302 221.177" fill="#FD9E98"/>
<path d="M147.561 221.169L159.715 242.6L147.561 252.985L130.869 227.346L138.945 215.239C138.945 215.239 144.645 215.577 147.561 221.177" fill="#FD9E98"/>
<path d="M87.0224 294.154L78.2916 312.015L87.0224 329.223V294.154Z" fill="#FFC8A2"/>
<path d="M147.522 329.846L156.253 311.992L147.522 294.777V329.846Z" fill="#FFC8A2"/>
<path d="M130.361 163.431H124.476C123.839 163.431 123.322 163.947 123.322 164.585V165.008C123.322 165.645 123.839 166.161 124.476 166.161H130.361C130.998 166.161 131.515 165.645 131.515 165.008V164.585C131.515 163.947 130.998 163.431 130.361 163.431Z" fill="#615FC2"/>
<path d="M108.938 163.431H103.053C102.416 163.431 101.899 163.947 101.899 164.585V165.008C101.899 165.645 102.416 166.161 103.053 166.161H108.938C109.575 166.161 110.092 165.645 110.092 165.008V164.585C110.092 163.947 109.575 163.431 108.938 163.431Z" fill="#615FC2"/>
<path d="M116.253 187.538C117.528 187.538 118.561 186.505 118.561 185.231C118.561 183.956 117.528 182.923 116.253 182.923C114.979 182.923 113.946 183.956 113.946 185.231C113.946 186.505 114.979 187.538 116.253 187.538Z" fill="#F89E62"/>
<path d="M123.845 206H111.922V215.231H123.845V206Z" fill="#F89E62"/>
<path d="M138.561 215.231H96.2532C91.1552 215.231 87.0225 219.363 87.0225 224.461V336.769C87.0225 341.867 91.1552 346 96.2532 346H138.561C143.659 346 147.792 341.867 147.792 336.769V224.461C147.792 219.363 143.659 215.231 138.561 215.231Z" fill="#FD9E98"/>
<path d="M113.976 198.285C109.399 198.285 108.022 195.615 107.961 195.492C107.769 195.108 107.93 194.646 108.307 194.462C108.684 194.277 109.146 194.431 109.33 194.8C109.392 194.915 110.692 197.223 115.376 196.654C115.799 196.608 116.184 196.9 116.23 197.323C116.284 197.746 115.976 198.131 115.561 198.177C114.992 198.246 114.461 198.277 113.961 198.277L113.976 198.285Z" fill="#F89E62"/>
<ellipse cx="116" cy="140" rx="16" ry="13" fill="#615FC2"/>
</g>
<defs>
<clipPath id="clip0_412_9">
<rect width="75" height="119" fill="white" transform="translate(331 119)"/>
</clipPath>
</defs>
</svg>
