<svg width="375" height="338" viewBox="0 0 375 338" fill="none" xmlns="http://www.w3.org/2000/svg">
<mask id="mask0_414_4" style="mask-type:alpha" maskUnits="userSpaceOnUse" x="0" y="0" width="375" height="338">
<rect width="375" height="338" fill="white"/>
</mask>
<g mask="url(#mask0_414_4)">
<rect width="375" height="338" fill="white"/>
<g clip-path="url(#clip0_414_4)">
<path d="M354.97 198.463H351.202V238.845H354.97V198.463Z" fill="#2F4233"/>
<path d="M352.8 226.981C343.904 226.981 336.664 219.687 336.664 210.725C336.664 201.762 343.904 194.469 352.8 194.469V196.258C344.89 196.258 338.44 202.756 338.44 210.725C338.44 218.694 344.89 225.192 352.8 225.192V226.981Z" fill="#2F4233"/>
<path d="M337.927 221.317C345.618 221.317 351.853 215.035 351.853 207.287C351.853 199.538 345.618 193.257 337.927 193.257C330.235 193.257 324 199.538 324 207.287C324 215.035 330.235 221.317 337.927 221.317Z" fill="#6BA06B"/>
<path d="M352.248 212.533L352.051 210.764C359.31 209.93 364.774 203.769 364.774 196.396H366.55C366.55 204.683 360.395 211.619 352.248 212.553V212.533Z" fill="#2F4233"/>
<path d="M351.696 203.769C363.462 203.769 373 194.16 373 182.307C373 170.454 363.462 160.844 351.696 160.844C339.93 160.844 330.391 170.454 330.391 182.307C330.391 194.16 339.93 203.769 351.696 203.769Z" fill="#79B77B"/>
</g>
<g clip-path="url(#clip1_414_4)">
<path d="M55.4984 194.839H51.4231V238.844H55.4984V194.839Z" fill="#2F4233"/>
<path d="M53.1513 225.916C43.5285 225.916 35.698 217.968 35.698 208.201C35.698 198.434 43.5285 190.487 53.1513 190.487V192.436C44.5953 192.436 37.6183 199.517 37.6183 208.201C37.6183 216.885 44.5953 223.967 53.1513 223.967V225.916Z" fill="#2F4233"/>
<path d="M37.0636 219.744C45.383 219.744 52.1272 212.899 52.1272 204.455C52.1272 196.011 45.383 189.166 37.0636 189.166C28.7442 189.166 22 196.011 22 204.455C22 212.899 28.7442 219.744 37.0636 219.744Z" fill="#6BA06B"/>
<path d="M52.5539 210.172L52.3406 208.244C60.1924 207.335 66.1027 200.622 66.1027 192.587H68.0229C68.0229 201.618 61.3659 209.176 52.5539 210.194V210.172Z" fill="#2F4233"/>
<path d="M51.9566 200.622C64.6831 200.622 75 190.15 75 177.233C75 164.316 64.6831 153.844 51.9566 153.844C39.23 153.844 28.9131 164.316 28.9131 177.233C28.9131 190.15 39.23 200.622 51.9566 200.622Z" fill="#79B77B"/>
</g>
<rect y="238.844" width="375" height="176" fill="#79B77B"/>
<path d="M338.911 159.467H263.711V238.844H338.911V159.467Z" fill="#BAB4C6"/>
<path d="M231.2 125L200 159.467H263.792L307.578 125H231.2Z" fill="#D16162"/>
<path d="M341 159.467H263.881L232.378 125H309.486L341 159.467Z" fill="#D16162"/>
<path d="M232.03 127.089L202.089 159.378V238.844H263.711V159.378L232.03 127.089Z" fill="#F3E8F3"/>
<path d="M242.993 171.302H236.815V187.609H242.993V171.302Z" fill="#ADAAAD"/>
<path d="M253.942 171.302H247.764V187.609H253.942V171.302Z" fill="#ADAAAD"/>
<path d="M242.993 215.253H236.815V231.56H242.993V215.253Z" fill="#ADAAAD"/>
<path d="M253.942 215.253H247.764V231.56H253.942V215.253Z" fill="#ADAAAD"/>
<path d="M214.467 171.302H208.289V187.609H214.467V171.302Z" fill="#ADAAAD"/>
<path d="M225.416 171.302H219.238V187.609H225.416V171.302Z" fill="#ADAAAD"/>
<path d="M214.467 215.253H208.289V231.56H214.467V215.253Z" fill="#ADAAAD"/>
<path d="M225.416 215.253H219.238V231.56H225.416V215.253Z" fill="#ADAAAD"/>
<path d="M315.046 171.302H305.706V187.609H315.046V171.302Z" fill="#786380"/>
<path d="M331.621 171.302H322.281V187.609H331.621V171.302Z" fill="#786380"/>
<path d="M315.046 193.277H305.706V209.584H315.046V193.277Z" fill="#786380"/>
<path d="M331.621 193.277H322.281V209.584H331.621V193.277Z" fill="#786380"/>
<path d="M315.046 215.253H305.706V231.56H315.046V215.253Z" fill="#786380"/>
<path d="M331.621 215.253H322.281V231.56H331.621V215.253Z" fill="#786380"/>
<path d="M280.375 171.302H271.035V187.609H280.375V171.302Z" fill="#786380"/>
<path d="M296.951 171.302H287.611V187.609H296.951V171.302Z" fill="#786380"/>
<path d="M280.375 193.277H271.035V209.584H280.375V193.277Z" fill="#786380"/>
<path d="M296.951 193.277H287.611V209.584H296.951V193.277Z" fill="#786380"/>
<path d="M288.778 214.822H279.378V238.844H288.778V214.822Z" fill="#786380"/>
<path d="M230.289 157.378C233.75 157.378 236.556 154.572 236.556 151.111C236.556 147.65 233.75 144.844 230.289 144.844C226.828 144.844 224.022 147.65 224.022 151.111C224.022 154.572 226.828 157.378 230.289 157.378Z" fill="#ADAAAD"/>
<g clip-path="url(#clip2_414_4)">
<path d="M181.05 115.522C185.983 115.522 190.009 119.556 190.009 124.481V205.844C190.009 210.778 185.975 214.803 181.05 214.803C176.117 214.803 172.091 210.769 172.091 205.844C172.091 210.778 168.057 214.803 163.132 214.803C158.199 214.803 154.173 210.769 154.173 205.844C154.173 210.778 150.139 214.803 145.214 214.803C140.281 214.803 136.256 210.769 136.256 205.844C136.256 210.778 132.222 214.803 127.297 214.803C122.364 214.803 118.338 210.769 118.338 205.844C118.338 210.778 114.304 214.803 109.379 214.803C104.446 214.803 100.42 210.769 100.42 205.844C100.42 210.778 96.3862 214.803 91.4613 214.803C86.5282 214.803 82.5024 210.769 82.5024 205.844V124.489C82.5024 119.556 86.5364 115.53 91.4613 115.53H181.05V115.522Z" fill="#18293A"/>
<path d="M145.47 153.469H127.321C122.31 153.469 118.247 157.532 118.247 162.543V205.44C118.247 210.452 122.31 214.515 127.321 214.515H145.47C150.482 214.515 154.544 210.452 154.544 205.44V162.543C154.544 157.532 150.482 153.469 145.47 153.469Z" fill="#A84C51"/>
<path d="M177.643 132.021H95.1488C90.1372 132.021 86.0745 136.083 86.0745 141.095V183.992C86.0745 189.003 90.1372 193.066 95.1488 193.066H177.643C182.655 193.066 186.717 189.003 186.717 183.992V141.095C186.717 136.083 182.655 132.021 177.643 132.021Z" fill="#A84C51"/>
<path d="M167.546 206.265H105.246C94.6579 206.265 86.0745 214.849 86.0745 225.437V328.158C86.0745 338.747 94.6579 347.33 105.246 347.33H167.546C178.134 347.33 186.717 338.747 186.717 328.158V225.437C186.717 214.849 178.134 206.265 167.546 206.265Z" fill="#A4A4FC"/>
<path d="M147.12 169.968C153.043 169.968 157.844 165.166 157.844 159.244C157.844 153.321 153.043 148.519 147.12 148.519C141.197 148.519 136.396 153.321 136.396 159.244C136.396 165.166 141.197 169.968 147.12 169.968Z" fill="white"/>
<path d="M125.259 169.968C131.182 169.968 135.983 165.166 135.983 159.244C135.983 153.321 131.182 148.519 125.259 148.519C119.336 148.519 114.535 153.321 114.535 159.244C114.535 165.166 119.336 169.968 125.259 169.968Z" fill="white"/>
<path d="M147.12 164.193C148.942 164.193 150.42 162.716 150.42 160.894C150.42 159.071 148.942 157.594 147.12 157.594C145.298 157.594 143.82 159.071 143.82 160.894C143.82 162.716 145.298 164.193 147.12 164.193Z" fill="black"/>
<path d="M125.259 164.193C127.081 164.193 128.559 162.716 128.559 160.894C128.559 159.071 127.081 157.594 125.259 157.594C123.437 157.594 121.959 159.071 121.959 160.894C121.959 162.716 123.437 164.193 125.259 164.193Z" fill="black"/>
<path d="M158.669 146.044H114.122V159.243H158.669V146.044Z" fill="#A84C51"/>
<path d="M143.028 172.443H128.113C125.854 172.443 124.022 174.275 124.022 176.534V193.924C124.022 196.184 125.854 198.016 128.113 198.016H143.028C145.288 198.016 147.12 196.184 147.12 193.924V176.534C147.12 174.275 145.288 172.443 143.028 172.443Z" fill="#18293A"/>
<path d="M142.17 169.968C142.17 173.614 139.217 176.567 135.571 176.567C131.924 176.567 128.971 173.614 128.971 169.968C128.971 166.321 131.924 146.869 135.571 146.869C139.217 146.869 142.17 166.321 142.17 169.968Z" fill="#752929"/>
<path d="M157.753 150.821H141.436C139.564 150.821 138.046 152.337 138.046 154.207C138.046 156.077 139.564 157.594 141.436 157.594H157.753C159.626 157.594 161.144 156.077 161.144 154.207C161.144 152.337 159.626 150.821 157.753 150.821Z" fill="#18293A"/>
<path d="M131.355 146.869H115.038C113.165 146.869 111.647 148.386 111.647 150.256C111.647 152.126 113.165 153.642 115.038 153.642H131.355C133.228 153.642 134.746 152.126 134.746 150.256C134.746 148.386 133.228 146.869 131.355 146.869Z" fill="#18293A"/>
<path d="M186.717 174.093C191.729 174.093 195.792 170.03 195.792 165.018C195.792 160.007 191.729 155.944 186.717 155.944C181.706 155.944 177.643 160.007 177.643 165.018C177.643 170.03 181.706 174.093 186.717 174.093Z" fill="#752929"/>
<path d="M86.0743 174.093C91.086 174.093 95.1487 170.03 95.1487 165.018C95.1487 160.007 91.086 155.944 86.0743 155.944C81.0627 155.944 77 160.007 77 165.018C77 170.03 81.0627 174.093 86.0743 174.093Z" fill="#752929"/>
<path d="M91.717 117.171H91.7088C86.7746 117.171 82.7747 121.171 82.7747 126.105V159.384C82.7747 164.318 86.7746 168.318 91.7088 168.318H91.717C96.6512 168.318 100.651 164.318 100.651 159.384V126.105C100.651 121.171 96.6512 117.171 91.717 117.171Z" fill="#18293A"/>
<path d="M109.593 117.171H109.585C104.651 117.171 100.651 121.171 100.651 126.105V141.235C100.651 146.169 104.651 150.169 109.585 150.169H109.593C114.528 150.169 118.528 146.169 118.528 141.235V126.105C118.528 121.171 114.528 117.171 109.593 117.171Z" fill="#18293A"/>
<path d="M127.462 117.171H127.453C122.519 117.171 118.519 121.171 118.519 126.105V133.81C118.519 138.745 122.519 142.745 127.453 142.745H127.462C132.396 142.745 136.396 138.745 136.396 133.81V126.105C136.396 121.171 132.396 117.171 127.462 117.171Z" fill="#18293A"/>
<path d="M145.338 117.171H145.33C140.396 117.171 136.396 121.171 136.396 126.105V133.81C136.396 138.745 140.396 142.745 145.33 142.745H145.338C150.272 142.745 154.272 138.745 154.272 133.81V126.105C154.272 121.171 150.272 117.171 145.338 117.171Z" fill="#18293A"/>
<path d="M136.668 115.934V115.942C136.668 120.877 140.668 124.876 145.602 124.876H162.934C167.868 124.876 171.868 120.877 171.868 115.942V115.934C171.868 111 167.868 107 162.934 107H145.602C140.668 107 136.668 111 136.668 115.934Z" fill="#18293A"/>
<path d="M101.196 115.934V115.942C101.196 120.877 105.195 124.876 110.13 124.876H127.462C132.396 124.876 136.396 120.877 136.396 115.942V115.934C136.396 111 132.396 107 127.462 107H110.13C105.195 107 101.196 111 101.196 115.934Z" fill="#18293A"/>
<path d="M163.215 117.171H163.206C158.272 117.171 154.272 121.171 154.272 126.105V141.235C154.272 146.169 158.272 150.169 163.206 150.169H163.215C168.149 150.169 172.149 146.169 172.149 141.235V126.105C172.149 121.171 168.149 117.171 163.215 117.171Z" fill="#18293A"/>
<path d="M181.083 117.171H181.074C176.14 117.171 172.14 121.171 172.14 126.105V159.384C172.14 164.318 176.14 168.318 181.074 168.318H181.083C186.017 168.318 190.017 164.318 190.017 159.384V126.105C190.017 121.171 186.017 117.171 181.083 117.171Z" fill="#18293A"/>
<path d="M139.695 181.517C139.695 183.794 137.848 185.642 135.571 185.642C133.294 185.642 131.446 183.794 131.446 181.517" fill="white"/>
<path d="M121.959 206.265L186.56 270.866L186.717 280.543L112.299 206.125L121.959 206.265Z" fill="#19224D"/>
<path d="M112.299 206.125L186.717 280.543V289.378L103.678 206.339L112.299 206.125Z" fill="#FF73BA"/>
</g>
</g>
<defs>
<clipPath id="clip0_414_4">
<rect width="49" height="78" fill="white" transform="translate(324 160.844)"/>
</clipPath>
<clipPath id="clip1_414_4">
<rect width="53" height="85" fill="white" transform="translate(22 153.844)"/>
</clipPath>
<clipPath id="clip2_414_4">
<rect width="118.791" height="240.33" fill="white" transform="translate(77 107)"/>
</clipPath>
</defs>
</svg>
