<svg width="375" height="346" viewBox="0 0 375 346" fill="none" xmlns="http://www.w3.org/2000/svg">
<mask id="mask0_412_19" style="mask-type:alpha" maskUnits="userSpaceOnUse" x="0" y="0" width="375" height="338">
<rect width="375" height="338" fill="white"/>
<rect width="375" height="338" fill="white"/>
<rect width="375" height="338" fill="white"/>
</mask>
<g mask="url(#mask0_412_19)">
<rect width="375" height="338" fill="white"/>
<rect width="375" height="338" fill="white"/>
<rect width="375" height="338" fill="white"/>
<g clip-path="url(#clip0_412_19)">
<path d="M60.4034 176.393H54.6365V238H60.4034V176.393Z" fill="#2F4233"/>
<path d="M57.0821 219.9C43.465 219.9 32.384 208.773 32.384 195.099C32.384 181.426 43.465 170.299 57.0821 170.299V173.027C44.9746 173.027 35.1014 182.942 35.1014 195.099C35.1014 207.257 44.9746 217.171 57.0821 217.171V219.9Z" fill="#2F4233"/>
<path d="M34.3164 211.259C46.0892 211.259 55.6329 201.676 55.6329 189.854C55.6329 178.033 46.0892 168.449 34.3164 168.449C22.5437 168.449 13 178.033 13 189.854C13 201.676 22.5437 211.259 34.3164 211.259Z" fill="#6BA06B"/>
<path d="M56.2367 197.858L55.9348 195.16C67.0459 193.887 75.4095 184.488 75.4095 173.24H78.1268C78.1268 185.883 68.7066 196.464 56.2367 197.889V197.858Z" fill="#2F4233"/>
<path d="M55.3914 184.488C73.4007 184.488 88.0001 169.828 88.0001 151.744C88.0001 133.66 73.4007 119 55.3914 119C37.3821 119 22.7827 133.66 22.7827 151.744C22.7827 169.828 37.3821 184.488 55.3914 184.488Z" fill="#79B77B"/>
</g>
<path d="M241.177 177.973C246.547 177.973 250.914 173.274 250.914 162.204V124.511C250.914 89.4803 244.003 86 241.177 86C237.761 86 231.44 88.048 231.44 124.511V162.204C231.44 172.244 235.793 177.973 241.177 177.973Z" fill="#487466"/>
<path d="M239.596 123.373H241.176L242.77 201.143L239.716 200.568L239.596 123.373Z" fill="#2F4233"/>
<path d="M240.788 147.936L235.578 144.014L235.565 144.71L240.574 149.622" fill="#2F4233"/>
<path d="M245.542 154.628L245.877 155.552L241.163 164.078L240.989 162.017L245.542 154.628Z" fill="#2F4233"/>
<path d="M216.182 183.618C221.552 183.618 225.919 181.182 225.919 175.466V155.976C225.919 137.866 219.008 136.059 216.182 136.059C212.766 136.059 206.445 137.116 206.445 155.976V175.466C206.445 180.66 210.797 183.618 216.182 183.618Z" fill="#487466"/>
<path d="M214.615 155.387H216.195L217.789 195.597L214.722 195.303L214.615 155.387Z" fill="#2F4233"/>
<path d="M215.793 168.09L210.596 166.069L210.583 166.417L215.592 168.96" fill="#2F4233"/>
<path d="M220.562 171.544L220.883 172.026L216.169 176.444L216.008 175.373L220.562 171.544Z" fill="#2F4233"/>
<path d="M184 239.653H284C284 239.653 266.417 183.76 231.85 183.653C206.523 183.573 184 239.653 184 239.653Z" fill="url(#paint0_linear_412_19)"/>
<rect y="238" width="375" height="176" fill="#79B77B"/>
<path d="M277.292 268.951C273.413 267.05 263.203 265.901 266.729 268.568C270.254 271.234 278 272 278 272L277.292 268.951Z" fill="#9CD179"/>
<path d="M284.233 275.951C280.03 274.05 268.97 272.901 272.789 275.568C276.609 278.234 285 279 285 279L284.233 275.951Z" fill="#9CD179"/>
<path d="M293.292 271.951C289.413 270.05 279.203 268.901 282.729 271.568C286.254 274.234 294 275 294 275L293.292 271.951Z" fill="#9CD179"/>
<path d="M342 167H309V238H342V167Z" fill="#BAB4C6"/>
<path d="M309 167H267V238H309V167Z" fill="#F3E8F3"/>
<path d="M296 197H277V238H296V197Z" fill="#ADAAAD"/>
<path d="M344 164H265V171H344V164Z" fill="#D16162"/>
</g>
<g clip-path="url(#clip1_412_19)" filter="url(#filter0_d_412_19)">
<path d="M120.439 104H157.554C165.928 104 172.724 110.829 172.724 119.244V180.082C172.724 189.156 165.393 196.523 156.363 196.523H121.63C112.6 196.523 105.269 189.156 105.269 180.082V119.244C105.269 110.829 112.065 104 120.439 104Z" fill="#FD9E98"/>
<path d="M122.937 164.253C128.26 164.253 132.576 159.917 132.576 154.567C132.576 149.218 128.26 144.881 122.937 144.881C117.613 144.881 113.297 149.218 113.297 154.567C113.297 159.917 117.613 164.253 122.937 164.253Z" fill="white"/>
<path d="M155.063 164.253C160.387 164.253 164.703 159.917 164.703 154.567C164.703 149.218 160.387 144.881 155.063 144.881C149.74 144.881 145.424 149.218 145.424 154.567C145.424 159.917 149.74 164.253 155.063 164.253Z" fill="white"/>
<path d="M122.963 159.437C124.982 159.437 126.619 157.793 126.619 155.764C126.619 153.736 124.982 152.091 122.963 152.091C120.945 152.091 119.308 153.736 119.308 155.764C119.308 157.793 120.945 159.437 122.963 159.437Z" fill="black"/>
<path d="M154.813 159.437C156.832 159.437 158.468 157.793 158.468 155.764C158.468 153.736 156.832 152.091 154.813 152.091C152.794 152.091 151.157 153.736 151.157 155.764C151.157 157.793 152.794 159.437 154.813 159.437Z" fill="black"/>
<mask id="mask1_412_19" style="mask-type:luminance" maskUnits="userSpaceOnUse" x="113" y="144" width="20" height="21">
<path d="M122.937 164.253C128.26 164.253 132.576 159.917 132.576 154.567C132.576 149.218 128.26 144.881 122.937 144.881C117.613 144.881 113.297 149.218 113.297 154.567C113.297 159.917 117.613 164.253 122.937 164.253Z" fill="white"/>
</mask>
<g mask="url(#mask1_412_19)">
<path d="M136.915 136.813H110.894V153.22H136.915V136.813Z" fill="#E36654"/>
</g>
<mask id="mask2_412_19" style="mask-type:luminance" maskUnits="userSpaceOnUse" x="145" y="144" width="20" height="21">
<path d="M155.063 164.253C160.387 164.253 164.703 159.917 164.703 154.567C164.703 149.218 160.387 144.881 155.063 144.881C149.74 144.881 145.424 149.218 145.424 154.567C145.424 159.917 149.74 164.253 155.063 164.253Z" fill="white"/>
</mask>
<g mask="url(#mask2_412_19)">
<path d="M166.354 138.963H143.549V153.22H166.354V138.963Z" fill="#E36654"/>
</g>
<path d="M165.265 112.088C165.082 112.088 164.899 112.013 164.764 111.87C161.988 108.843 156.282 108.768 156.221 108.768H149.81C149.438 108.768 149.134 108.462 149.134 108.088C149.134 107.714 149.438 107.408 149.81 107.408H156.228C156.492 107.408 162.584 107.49 165.759 110.945C166.009 111.224 165.996 111.652 165.718 111.904C165.59 112.027 165.427 112.081 165.258 112.081L165.265 112.088Z" fill="white"/>
<path d="M105.133 161.825C109.246 161.825 112.58 158.475 112.58 154.342C112.58 150.21 109.246 146.86 105.133 146.86C101.021 146.86 97.6873 150.21 97.6873 154.342C97.6873 158.475 101.021 161.825 105.133 161.825Z" fill="#FD9E98"/>
<path d="M172.826 161.825C176.938 161.825 180.272 158.475 180.272 154.342C180.272 150.21 176.938 146.86 172.826 146.86C168.713 146.86 165.38 150.21 165.38 154.342C165.38 158.475 168.713 161.825 172.826 161.825Z" fill="#FD9E98"/>
<path d="M142.655 166.79C142.655 168.817 141.017 170.464 139 170.464C136.983 170.464 135.344 168.817 135.344 166.79C135.344 164.763 136.983 159.437 139 159.437C141.017 159.437 142.655 164.757 142.655 166.79Z" fill="#E36654"/>
<path d="M137.45 171.783H130.917C130.357 171.783 129.902 172.24 129.902 172.804V173.994C129.902 174.557 130.357 175.014 130.917 175.014H137.45C138.011 175.014 138.465 174.557 138.465 173.994V172.804C138.465 172.24 138.011 171.783 137.45 171.783Z" fill="#18293A"/>
<path d="M147.082 171.783H140.55C139.989 171.783 139.535 172.24 139.535 172.804V173.994C139.535 174.557 139.989 175.014 140.55 175.014H147.082C147.643 175.014 148.098 174.557 148.098 173.994V172.804C148.098 172.24 147.643 171.783 147.082 171.783Z" fill="#18293A"/>
<path d="M134.431 138.398H111.077C110.516 138.398 110.062 138.855 110.062 139.419V140.609C110.062 141.173 110.516 141.629 111.077 141.629H134.431C134.992 141.629 135.446 141.173 135.446 140.609V139.419C135.446 138.855 134.992 138.398 134.431 138.398Z" fill="#18293A"/>
<path d="M166.923 138.398H143.569C143.009 138.398 142.554 138.855 142.554 139.419V140.609C142.554 141.173 143.009 141.629 143.569 141.629H166.923C167.484 141.629 167.939 141.173 167.939 140.609V139.419C167.939 138.855 167.484 138.398 166.923 138.398Z" fill="#18293A"/>
<path d="M112.668 121.754H101.092C100.532 121.754 100.077 122.21 100.077 122.774V123.964C100.077 124.528 100.532 124.985 101.092 124.985H112.668C113.228 124.985 113.683 124.528 113.683 123.964V122.774C113.683 122.21 113.228 121.754 112.668 121.754Z" fill="#18293A"/>
<path d="M112.668 126.053H101.092C100.532 126.053 100.077 126.51 100.077 127.073V128.263C100.077 128.827 100.532 129.284 101.092 129.284H112.668C113.228 129.284 113.683 128.827 113.683 128.263V127.073C113.683 126.51 113.228 126.053 112.668 126.053Z" fill="#18293A"/>
<path d="M112.668 130.358H101.092C100.532 130.358 100.077 130.815 100.077 131.379V132.569C100.077 133.133 100.532 133.589 101.092 133.589H112.668C113.228 133.589 113.683 133.133 113.683 132.569V131.379C113.683 130.815 113.228 130.358 112.668 130.358Z" fill="#18293A"/>
<path d="M176.908 121.754H165.332C164.771 121.754 164.317 122.21 164.317 122.774V123.964C164.317 124.528 164.771 124.985 165.332 124.985H176.908C177.468 124.985 177.923 124.528 177.923 123.964V122.774C177.923 122.21 177.468 121.754 176.908 121.754Z" fill="#18293A"/>
<path d="M176.908 126.053H165.332C164.771 126.053 164.317 126.51 164.317 127.073V128.263C164.317 128.827 164.771 129.284 165.332 129.284H176.908C177.468 129.284 177.923 128.827 177.923 128.263V127.073C177.923 126.51 177.468 126.053 176.908 126.053Z" fill="#18293A"/>
<path d="M176.908 130.358H165.332C164.771 130.358 164.317 130.815 164.317 131.379V132.569C164.317 133.133 164.771 133.589 165.332 133.589H176.908C177.468 133.589 177.923 133.133 177.923 132.569V131.379C177.923 130.815 177.468 130.358 176.908 130.358Z" fill="#18293A"/>
<path d="M140.042 182.32C137.341 182.32 134.6 180.231 133.327 177.184C133.185 176.837 133.348 176.436 133.693 176.293C134.038 176.15 134.437 176.313 134.58 176.66C135.663 179.265 137.978 181.061 140.178 180.959C141.701 180.905 142.845 179.973 143.407 178.32C143.529 177.966 143.914 177.769 144.266 177.898C144.618 178.021 144.808 178.408 144.686 178.762C143.941 180.952 142.317 182.252 140.225 182.32C140.164 182.32 140.103 182.32 140.049 182.32H140.042Z" fill="#E36654"/>
<path d="M176.041 205.358H101.959C74.0019 205.358 51.3384 228.132 51.3384 256.225V287.134C51.3384 315.226 74.0019 338 101.959 338H176.041C203.998 338 226.661 315.226 226.661 287.134V256.225C226.661 228.132 203.998 205.358 176.041 205.358Z" fill="#FD9E98"/>
<path d="M119.654 205.528V338H51V256.225C51 256.225 50.7022 205.358 101.62 205.358L119.654 205.528Z" fill="#FF73BA"/>
<path d="M158.631 205.528V338H227V256.225C227 256.225 227.298 205.358 176.59 205.358L158.631 205.528Z" fill="#FF73BA"/>
<path d="M145.756 190.394H132.251V214.881H145.756V190.394Z" fill="#FD9E98"/>
<path d="M126.619 205.358L139.589 222.445L152.62 205.528H158.631V338H119.654V205.528L126.619 205.358Z" fill="#FEA2E1"/>
</g>
<defs>
<filter id="filter0_d_412_19" x="47" y="104" width="184" height="242" filterUnits="userSpaceOnUse" color-interpolation-filters="sRGB">
<feFlood flood-opacity="0" result="BackgroundImageFix"/>
<feColorMatrix in="SourceAlpha" type="matrix" values="0 0 0 0 0 0 0 0 0 0 0 0 0 0 0 0 0 0 127 0" result="hardAlpha"/>
<feOffset dy="4"/>
<feGaussianBlur stdDeviation="2"/>
<feComposite in2="hardAlpha" operator="out"/>
<feColorMatrix type="matrix" values="0 0 0 0 0 0 0 0 0 0 0 0 0 0 0 0 0 0 0.25 0"/>
<feBlend mode="normal" in2="BackgroundImageFix" result="effect1_dropShadow_412_19"/>
<feBlend mode="normal" in="SourceGraphic" in2="effect1_dropShadow_412_19" result="shape"/>
</filter>
<linearGradient id="paint0_linear_412_19" x1="234" y1="239.653" x2="234" y2="183.653" gradientUnits="userSpaceOnUse">
<stop stop-color="#9ECC7C"/>
<stop offset="1" stop-color="#7EA97C"/>
</linearGradient>
<clipPath id="clip0_412_19">
<rect width="75" height="119" fill="white" transform="translate(13 119)"/>
</clipPath>
<clipPath id="clip1_412_19">
<rect width="176" height="234" fill="white" transform="translate(51 104)"/>
</clipPath>
</defs>
</svg>
