<svg width="375" height="338" viewBox="0 0 375 338" fill="none" xmlns="http://www.w3.org/2000/svg">
<mask id="mask0_412_6" style="mask-type:alpha" maskUnits="userSpaceOnUse" x="0" y="0" width="375" height="338">
<rect width="375" height="338" fill="#D9D9D9"/>
</mask>
<g mask="url(#mask0_412_6)">
<rect width="375" height="338" fill="white"/>
<path d="M-12 36H229.5C241.374 36 251 45.6259 251 57.5C251 69.3741 241.374 79 229.5 79H-12V36Z" fill="#79B77B"/>
<path d="M40.245 63V52.5H42.255L46.725 59.91H45.66L50.055 52.5H52.05L52.08 63H49.8L49.785 55.995H50.205L46.695 61.89H45.6L42.015 55.995H42.525V63H40.245ZM59.6712 63.18C58.8412 63.18 58.0712 63.045 57.3612 62.775C56.6612 62.505 56.0512 62.125 55.5312 61.635C55.0212 61.145 54.6212 60.57 54.3312 59.91C54.0512 59.25 53.9112 58.53 53.9112 57.75C53.9112 56.97 54.0512 56.25 54.3312 55.59C54.6212 54.93 55.0262 54.355 55.5462 53.865C56.0662 53.375 56.6762 52.995 57.3762 52.725C58.0762 52.455 58.8362 52.32 59.6562 52.32C60.4862 52.32 61.2462 52.455 61.9362 52.725C62.6362 52.995 63.2412 53.375 63.7512 53.865C64.2712 54.355 64.6762 54.93 64.9662 55.59C65.2562 56.24 65.4012 56.96 65.4012 57.75C65.4012 58.53 65.2562 59.255 64.9662 59.925C64.6762 60.585 64.2712 61.16 63.7512 61.65C63.2412 62.13 62.6362 62.505 61.9362 62.775C61.2462 63.045 60.4912 63.18 59.6712 63.18ZM59.6562 61.11C60.1262 61.11 60.5562 61.03 60.9462 60.87C61.3462 60.71 61.6962 60.48 61.9962 60.18C62.2962 59.88 62.5262 59.525 62.6862 59.115C62.8562 58.705 62.9412 58.25 62.9412 57.75C62.9412 57.25 62.8562 56.795 62.6862 56.385C62.5262 55.975 62.2962 55.62 61.9962 55.32C61.7062 55.02 61.3612 54.79 60.9612 54.63C60.5612 54.47 60.1262 54.39 59.6562 54.39C59.1862 54.39 58.7512 54.47 58.3512 54.63C57.9612 54.79 57.6162 55.02 57.3162 55.32C57.0162 55.62 56.7812 55.975 56.6112 56.385C56.4512 56.795 56.3712 57.25 56.3712 57.75C56.3712 58.24 56.4512 58.695 56.6112 59.115C56.7812 59.525 57.0112 59.88 57.3012 60.18C57.6012 60.48 57.9512 60.71 58.3512 60.87C58.7512 61.03 59.1862 61.11 59.6562 61.11ZM71.8924 63.18C70.4024 63.18 69.2374 62.765 68.3974 61.935C67.5574 61.105 67.1374 59.92 67.1374 58.38V52.5H69.5674V58.29C69.5674 59.29 69.7724 60.01 70.1824 60.45C70.5924 60.89 71.1674 61.11 71.9074 61.11C72.6474 61.11 73.2224 60.89 73.6324 60.45C74.0424 60.01 74.2474 59.29 74.2474 58.29V52.5H76.6474V58.38C76.6474 59.92 76.2274 61.105 75.3874 61.935C74.5474 62.765 73.3824 63.18 71.8924 63.18ZM79.0487 63V52.5H81.4787V61.02H86.7437V63H79.0487ZM88.1014 63V52.5H90.5314V63H88.1014ZM93.0233 63V52.5H95.0333L101.228 60.06H100.253V52.5H102.653V63H100.658L94.4483 55.44H95.4233V63H93.0233ZM109.386 63V52.5H114.156C115.296 52.5 116.301 52.72 117.171 53.16C118.041 53.59 118.721 54.195 119.211 54.975C119.701 55.755 119.946 56.68 119.946 57.75C119.946 58.81 119.701 59.735 119.211 60.525C118.721 61.305 118.041 61.915 117.171 62.355C116.301 62.785 115.296 63 114.156 63H109.386ZM111.816 61.005H114.036C114.736 61.005 115.341 60.875 115.851 60.615C116.371 60.345 116.771 59.965 117.051 59.475C117.341 58.985 117.486 58.41 117.486 57.75C117.486 57.08 117.341 56.505 117.051 56.025C116.771 55.535 116.371 55.16 115.851 54.9C115.341 54.63 114.736 54.495 114.036 54.495H111.816V61.005ZM124.013 56.73H129.068V58.62H124.013V56.73ZM124.193 61.05H129.908V63H121.778V52.5H129.713V54.45H124.193V61.05ZM138.34 57.225H143.38V59.175H138.34V57.225ZM138.52 63H136.09V52.5H144.025V54.45H138.52V63ZM143.865 63L148.545 52.5H150.945L155.64 63H153.09L149.25 53.73H150.21L146.355 63H143.865ZM146.205 60.75L146.85 58.905H152.25L152.91 60.75H146.205ZM156.729 63V52.5H161.859C163.179 52.5 164.169 52.75 164.829 53.25C165.499 53.75 165.834 54.41 165.834 55.23C165.834 55.78 165.699 56.26 165.429 56.67C165.159 57.07 164.789 57.38 164.319 57.6C163.849 57.82 163.309 57.93 162.699 57.93L162.984 57.315C163.644 57.315 164.229 57.425 164.739 57.645C165.249 57.855 165.644 58.17 165.924 58.59C166.214 59.01 166.359 59.525 166.359 60.135C166.359 61.035 166.004 61.74 165.294 62.25C164.584 62.75 163.539 63 162.159 63H156.729ZM159.144 61.17H161.979C162.609 61.17 163.084 61.07 163.404 60.87C163.734 60.66 163.899 60.33 163.899 59.88C163.899 59.44 163.734 59.115 163.404 58.905C163.084 58.685 162.609 58.575 161.979 58.575H158.964V56.805H161.559C162.149 56.805 162.599 56.705 162.909 56.505C163.229 56.295 163.389 55.98 163.389 55.56C163.389 55.15 163.229 54.845 162.909 54.645C162.599 54.435 162.149 54.33 161.559 54.33H159.144V61.17ZM168.199 63V52.5H170.629V63H168.199ZM175.356 56.73H180.411V58.62H175.356V56.73ZM175.536 61.05H181.251V63H173.121V52.5H181.056V54.45H175.536V61.05ZM183.184 63V52.5H185.194L191.389 60.06H190.414V52.5H192.814V63H190.819L184.609 55.44H185.584V63H183.184Z" fill="white"/>
<path d="M47.21 191.71C43.2 191.71 39.94 188.2 39.94 179.93V151.77C39.95 125.6 45.1 123 47.21 123C49.76 123 54.48 124.53 54.48 151.77V179.93C54.48 187.43 51.23 191.71 47.21 191.71Z" fill="#487466"/>
<path d="M48.39 150.93H47.21L46.02 209.03L48.3 208.6L48.39 150.93Z" fill="#2F4233"/>
<path d="M47.5 169.27L51.39 166.35L51.4 166.87L47.66 170.53" fill="#2F4233"/>
<path d="M43.95 174.28L43.7 174.97L47.23 181.34L47.35 179.79L43.95 174.28Z" fill="#2F4233"/>
<path d="M26.3 207.89C22.29 207.89 19.03 206.07 19.03 201.8V187.24C19.03 173.71 24.19 172.36 26.3 172.36C28.85 172.36 33.57 173.15 33.57 187.24V201.8C33.57 205.68 30.32 207.89 26.3 207.89Z" fill="#487466"/>
<path d="M27.47 186.8H26.29L25.1 216.84L27.39 216.62L27.47 186.8Z" fill="#2F4233"/>
<path d="M26.59 196.28L30.47 194.77L30.48 195.04L26.74 196.94" fill="#2F4233"/>
<path d="M23.03 198.87L22.79 199.23L26.31 202.52L26.43 201.72L23.03 198.87Z" fill="#2F4233"/>
<path d="M89.9 238.08H15C15 238.08 28.17 196.1 54.06 196.02C73.03 195.95 89.9 238.08 89.9 238.08Z" fill="url(#paint0_linear_412_6)"/>
<rect y="238" width="375" height="176" fill="#79B77B"/>
<path d="M334 164.381H272.875V237.81H334V164.381Z" fill="#BAB4C6"/>
<path d="M334.974 164.381H272.875L255.8 130.847H317.879L334.974 164.381Z" fill="#F3E8F3"/>
<path d="M255.045 130.847L237.95 164.381H272.875L317.123 130.847" fill="#B53930"/>
<path d="M334.974 164.381H272.875L255.8 130.847H317.879L334.974 164.381Z" fill="#B53930"/>
<path d="M331.793 173.704L331.535 207.238H349.624L368.17 173.704" fill="#D16162"/>
<path d="M386 207.238H323.902L306.827 173.704H368.925L386 207.238Z" fill="#B53930"/>
<path d="M255.522 132.676L239.122 164.381V237.81H272.875V164.381L255.522 132.676Z" fill="#F3E8F3"/>
<path d="M385.901 207.357H288.758V237.81H385.901V207.357Z" fill="#BAB4C6"/>
<path d="M253.653 176.229H247.61V192.21H253.653V176.229Z" fill="#ADAAAD"/>
<path d="M264.387 176.229H258.344V192.21H264.387V176.229Z" fill="#ADAAAD"/>
<path d="M253.653 208.669H247.61V224.651H253.653V208.669Z" fill="#ADAAAD"/>
<path d="M264.387 208.669H258.344V224.651H264.387V208.669Z" fill="#ADAAAD"/>
<path d="M363.677 212.386H354.533V228.368H363.677V212.386Z" fill="#786380"/>
<path d="M379.48 212.386H370.336V228.368H379.48V212.386Z" fill="#786380"/>
<path d="M254.747 148.538C256.975 148.538 258.782 146.732 258.782 144.503C258.782 142.274 256.975 140.468 254.747 140.468C252.518 140.468 250.711 142.274 250.711 144.503C250.711 146.732 252.518 148.538 254.747 148.538Z" fill="#534741"/>
<path d="M255.204 145.278L253.792 143.867L297.166 100.494L297.702 101.03L255.204 145.278Z" fill="#534741"/>
<path d="M267.091 142.476L256.694 132.08L291.739 97.0549L302.135 107.451L267.091 142.476ZM258.106 132.08L267.091 141.064L300.724 107.451L291.739 98.4663L258.106 132.08Z" fill="#534741"/>
<path d="M301.428 107.434L296.382 102.388L262.058 136.713L267.104 141.759L301.428 107.434Z" fill="#534741"/>
<path d="M273.19 140.453L258.755 126.018L258.249 126.524L272.684 140.959L273.19 140.453Z" fill="#534741"/>
<path d="M276.247 137.392L261.812 122.956L261.306 123.462L275.741 137.898L276.247 137.392Z" fill="#534741"/>
<path d="M279.304 134.311L264.869 119.875L264.363 120.381L278.798 134.817L279.304 134.311Z" fill="#534741"/>
<path d="M282.361 131.25L267.926 116.814L267.42 117.32L281.855 131.756L282.361 131.25Z" fill="#534741"/>
<path d="M285.418 128.188L270.983 113.753L270.477 114.259L284.912 128.694L285.418 128.188Z" fill="#534741"/>
<path d="M288.475 125.127L274.04 110.692L273.534 111.198L287.969 125.633L288.475 125.127Z" fill="#534741"/>
<path d="M291.58 122.066L277.145 107.631L276.639 108.137L291.074 122.572L291.58 122.066Z" fill="#534741"/>
<path d="M294.637 119.005L280.202 104.569L279.696 105.075L294.131 119.511L294.637 119.005Z" fill="#534741"/>
<path d="M297.694 115.923L283.259 101.488L282.753 101.994L297.188 116.429L297.694 115.923Z" fill="#534741"/>
<path d="M300.751 112.863L286.316 98.4272L285.81 98.9333L300.245 113.369L300.751 112.863Z" fill="#534741"/>
<path d="M253.932 143.967L255.323 145.378L211.95 188.732L211.413 188.195L253.932 143.967Z" fill="#534741"/>
<path d="M217.396 192.17L207 181.794L242.025 146.75L252.421 157.146L217.396 192.17ZM208.411 181.794L217.396 190.779L251.01 157.146L242.025 148.161L208.411 181.794Z" fill="#534741"/>
<path d="M207.712 181.796L212.758 186.842L247.082 152.517L242.036 147.471L207.712 181.796Z" fill="#534741"/>
<path d="M235.952 148.793L250.387 163.228L250.893 162.722L236.458 148.287L235.952 148.793Z" fill="#534741"/>
<path d="M232.886 151.854L247.322 166.289L247.828 165.783L233.392 151.348L232.886 151.854Z" fill="#534741"/>
<path d="M229.821 154.915L244.256 169.35L244.762 168.844L230.327 154.409L229.821 154.915Z" fill="#534741"/>
<path d="M226.756 157.976L241.191 172.411L241.697 171.905L227.262 157.47L226.756 157.976Z" fill="#534741"/>
<path d="M223.69 161.037L238.125 175.472L238.631 174.966L224.196 160.531L223.69 161.037Z" fill="#534741"/>
<path d="M220.633 164.118L235.068 178.554L235.574 178.048L221.139 163.612L220.633 164.118Z" fill="#534741"/>
<path d="M217.568 167.179L232.003 181.615L232.509 181.109L218.074 166.673L217.568 167.179Z" fill="#534741"/>
<path d="M214.502 170.241L228.938 184.676L229.444 184.17L215.008 169.735L214.502 170.241Z" fill="#534741"/>
<path d="M211.437 173.302L225.872 187.737L226.378 187.231L211.943 172.796L211.437 173.302Z" fill="#534741"/>
<path d="M208.372 176.363L222.807 190.798L223.313 190.292L208.878 175.857L208.372 176.363Z" fill="#534741"/>
<path d="M253.912 145.259L255.323 143.847L298.677 187.221L298.14 187.758L253.912 145.259Z" fill="#534741"/>
<path d="M291.739 192.17L256.694 157.146L267.091 146.75L302.115 181.774L291.719 192.17H291.739ZM258.106 157.146L291.739 190.779L300.724 181.794L267.091 148.161L258.106 157.146Z" fill="#534741"/>
<path d="M291.722 191.478L296.768 186.432L262.443 152.108L257.397 157.154L291.722 191.478Z" fill="#534741"/>
<path d="M258.724 163.232L273.159 148.797L272.653 148.291L258.218 162.726L258.724 163.232Z" fill="#534741"/>
<path d="M261.789 166.293L276.225 151.858L275.719 151.352L261.283 165.787L261.789 166.293Z" fill="#534741"/>
<path d="M264.855 169.354L279.29 154.919L278.784 154.413L264.349 168.848L264.855 169.354Z" fill="#534741"/>
<path d="M267.94 172.415L282.375 157.98L281.869 157.474L267.434 171.909L267.94 172.415Z" fill="#534741"/>
<path d="M271.005 175.497L285.441 161.062L284.935 160.556L270.499 174.991L271.005 175.497Z" fill="#534741"/>
<path d="M274.057 178.544L288.492 164.109L287.986 163.603L273.551 178.038L274.057 178.544Z" fill="#534741"/>
<path d="M277.108 181.619L291.543 167.184L291.037 166.678L276.602 181.113L277.108 181.619Z" fill="#534741"/>
<path d="M280.174 184.68L294.609 170.245L294.103 169.739L279.667 184.174L280.174 184.68Z" fill="#534741"/>
<path d="M283.239 187.741L297.674 173.306L297.168 172.8L282.733 187.235L283.239 187.741Z" fill="#534741"/>
<path d="M286.304 190.803L300.74 176.367L300.234 175.861L285.798 190.297L286.304 190.803Z" fill="#534741"/>
<path d="M255.224 143.986L253.812 145.378L210.439 102.004L210.976 101.468L255.224 143.986Z" fill="#534741"/>
<path d="M242.025 142.476L207 107.451L217.396 97.0549L252.421 132.08L242.025 142.476ZM208.411 107.451L242.025 141.064L251.01 132.08L217.396 98.4663L208.411 107.451Z" fill="#534741"/>
<path d="M217.409 97.7621L212.363 102.808L246.687 137.132L251.733 132.086L217.409 97.7621Z" fill="#534741"/>
<path d="M250.385 125.993L235.949 140.428L236.455 140.934L250.891 126.499L250.385 125.993Z" fill="#534741"/>
<path d="M247.328 122.932L232.892 137.368L233.398 137.874L247.834 123.438L247.328 122.932Z" fill="#534741"/>
<path d="M244.271 119.871L229.835 134.306L230.341 134.812L244.777 120.377L244.271 119.871Z" fill="#534741"/>
<path d="M241.214 116.81L226.778 131.245L227.284 131.751L241.72 117.316L241.214 116.81Z" fill="#534741"/>
<path d="M238.137 113.749L223.702 128.184L224.208 128.69L238.643 114.255L238.137 113.749Z" fill="#534741"/>
<path d="M235.066 110.701L220.63 125.137L221.137 125.643L235.572 111.207L235.066 110.701Z" fill="#534741"/>
<path d="M231.995 107.626L217.559 122.062L218.065 122.568L232.501 108.132L231.995 107.626Z" fill="#534741"/>
<path d="M228.938 104.545L214.502 118.981L215.008 119.487L229.444 105.051L228.938 104.545Z" fill="#534741"/>
<path d="M225.881 101.484L211.445 115.919L211.951 116.425L226.387 101.99L225.881 101.484Z" fill="#534741"/>
<path d="M222.824 98.4229L208.388 112.858L208.894 113.364L223.33 98.9289L222.824 98.4229Z" fill="#534741"/>
<path d="M306.827 173.704L306.846 237.81H323.643V207.258L306.827 173.704Z" fill="#F3E8F3"/>
<path d="M253.292 278.951C249.413 277.05 239.203 275.901 242.729 278.568C246.254 281.234 254 282 254 282L253.292 278.951Z" fill="#9CD179"/>
<path d="M260.233 285.951C256.03 284.05 244.97 282.901 248.789 285.568C252.609 288.234 261 289 261 289L260.233 285.951Z" fill="#9CD179"/>
<path d="M269.292 281.951C265.413 280.05 255.203 278.901 258.729 281.568C262.254 284.234 270 285 270 285L269.292 281.951Z" fill="#9CD179"/>
<g clip-path="url(#clip0_412_6)">
<path d="M144.706 190.09C169.231 190.09 189.113 170.208 189.113 145.682C189.113 121.156 169.231 101.274 144.706 101.274C120.18 101.274 100.298 121.156 100.298 145.682C100.298 170.208 120.18 190.09 144.706 190.09Z" fill="#FF73BA"/>
<path d="M131.663 113.541H157.757C169.184 113.541 178.462 122.819 178.462 134.247V162.717C178.462 176.349 167.396 187.415 153.764 187.415H135.655C122.023 187.415 110.957 176.349 110.957 162.717V134.247C110.957 122.819 120.235 113.541 131.663 113.541Z" fill="#FFC8A2"/>
<path d="M165.294 173.149H122.941V210.364H165.294V173.149Z" fill="#FFC8A2"/>
<path d="M101.184 142.121C103.636 142.121 105.623 140.134 105.623 137.682C105.623 135.23 103.636 133.243 101.184 133.243C98.7325 133.243 96.745 135.23 96.745 137.682C96.745 140.134 98.7325 142.121 101.184 142.121Z" fill="#FF73BA"/>
<path d="M103.184 134.835C105.636 134.835 107.623 132.848 107.623 130.396C107.623 127.944 105.636 125.957 103.184 125.957C100.732 125.957 98.745 127.944 98.745 130.396C98.745 132.848 100.732 134.835 103.184 134.835Z" fill="#FF73BA"/>
<path d="M106.384 127.996C108.836 127.996 110.823 126.008 110.823 123.557C110.823 121.105 108.836 119.117 106.384 119.117C103.933 119.117 101.945 121.105 101.945 123.557C101.945 126.008 103.933 127.996 106.384 127.996Z" fill="#FF73BA"/>
<path d="M110.714 121.792C113.165 121.792 115.153 119.804 115.153 117.353C115.153 114.901 113.165 112.914 110.714 112.914C108.262 112.914 106.274 114.901 106.274 117.353C106.274 119.804 108.262 121.792 110.714 121.792Z" fill="#FF73BA"/>
<path d="M116.023 116.419C118.475 116.419 120.463 114.432 120.463 111.98C120.463 109.529 118.475 107.541 116.023 107.541C113.572 107.541 111.584 109.529 111.584 111.98C111.584 114.432 113.572 116.419 116.023 116.419Z" fill="#FF73BA"/>
<path d="M122.18 112.035C124.632 112.035 126.619 110.048 126.619 107.596C126.619 105.144 124.632 103.157 122.18 103.157C119.729 103.157 117.741 105.144 117.741 107.596C117.741 110.048 119.729 112.035 122.18 112.035Z" fill="#FF73BA"/>
<path d="M128.988 108.757C131.44 108.757 133.427 106.769 133.427 104.318C133.427 101.866 131.44 99.8784 128.988 99.8784C126.536 99.8784 124.549 101.866 124.549 104.318C124.549 106.769 126.536 108.757 128.988 108.757Z" fill="#FF73BA"/>
<path d="M136.259 106.686C138.71 106.686 140.698 104.699 140.698 102.247C140.698 99.7954 138.71 97.8079 136.259 97.8079C133.807 97.8079 131.819 99.7954 131.819 102.247C131.819 104.699 133.807 106.686 136.259 106.686Z" fill="#FF73BA"/>
<path d="M143.772 105.878C146.224 105.878 148.211 103.891 148.211 101.439C148.211 98.9875 146.224 97 143.772 97C141.321 97 139.333 98.9875 139.333 101.439C139.333 103.891 141.321 105.878 143.772 105.878Z" fill="#FF73BA"/>
<path d="M151.309 106.365C153.761 106.365 155.749 104.377 155.749 101.926C155.749 99.4738 153.761 97.4863 151.309 97.4863C148.858 97.4863 146.87 99.4738 146.87 101.926C146.87 104.377 148.858 106.365 151.309 106.365Z" fill="#FF73BA"/>
<path d="M158.658 108.129C161.11 108.129 163.098 106.142 163.098 103.69C163.098 101.238 161.11 99.251 158.658 99.251C156.207 99.251 154.219 101.238 154.219 103.69C154.219 106.142 156.207 108.129 158.658 108.129Z" fill="#FF73BA"/>
<path d="M165.6 111.118C168.051 111.118 170.039 109.13 170.039 106.678C170.039 104.227 168.051 102.239 165.6 102.239C163.148 102.239 161.16 104.227 161.16 106.678C161.16 109.13 163.148 111.118 165.6 111.118Z" fill="#FF73BA"/>
<path d="M171.937 115.243C174.389 115.243 176.376 113.256 176.376 110.804C176.376 108.352 174.389 106.365 171.937 106.365C169.485 106.365 167.498 108.352 167.498 110.804C167.498 113.256 169.485 115.243 171.937 115.243Z" fill="#FF73BA"/>
<path d="M177.474 120.38C179.926 120.38 181.913 118.393 181.913 115.941C181.913 113.489 179.926 111.502 177.474 111.502C175.022 111.502 173.035 113.489 173.035 115.941C173.035 118.393 175.022 120.38 177.474 120.38Z" fill="#FF73BA"/>
<path d="M182.054 126.396C184.506 126.396 186.494 124.408 186.494 121.957C186.494 119.505 184.506 117.518 182.054 117.518C179.603 117.518 177.615 119.505 177.615 121.957C177.615 124.408 179.603 126.396 182.054 126.396Z" fill="#FF73BA"/>
<path d="M185.545 133.094C187.996 133.094 189.984 131.106 189.984 128.655C189.984 126.203 187.996 124.216 185.545 124.216C183.093 124.216 181.105 126.203 181.105 128.655C181.105 131.106 183.093 133.094 185.545 133.094Z" fill="#FF73BA"/>
<path d="M187.85 140.294C190.302 140.294 192.29 138.306 192.29 135.855C192.29 133.403 190.302 131.416 187.85 131.416C185.399 131.416 183.411 133.403 183.411 135.855C183.411 138.306 185.399 140.294 187.85 140.294Z" fill="#FF73BA"/>
<path d="M188.894 147.776C191.345 147.776 193.333 145.789 193.333 143.337C193.333 140.885 191.345 138.898 188.894 138.898C186.442 138.898 184.454 140.885 184.454 143.337C184.454 145.789 186.442 147.776 188.894 147.776Z" fill="#FF73BA"/>
<path d="M188.643 155.329C191.094 155.329 193.082 153.342 193.082 150.89C193.082 148.438 191.094 146.451 188.643 146.451C186.191 146.451 184.203 148.438 184.203 150.89C184.203 153.342 186.191 155.329 188.643 155.329Z" fill="#FF73BA"/>
<path d="M187.113 162.733C189.565 162.733 191.552 160.746 191.552 158.294C191.552 155.842 189.565 153.855 187.113 153.855C184.662 153.855 182.674 155.842 182.674 158.294C182.674 160.746 184.662 162.733 187.113 162.733Z" fill="#FF73BA"/>
<path d="M184.352 169.768C186.804 169.768 188.792 167.781 188.792 165.329C188.792 162.877 186.804 160.89 184.352 160.89C181.901 160.89 179.913 162.877 179.913 165.329C179.913 167.781 181.901 169.768 184.352 169.768Z" fill="#FF73BA"/>
<path d="M180.431 176.223C182.883 176.223 184.87 174.236 184.87 171.784C184.87 169.332 182.883 167.345 180.431 167.345C177.979 167.345 175.992 169.332 175.992 171.784C175.992 174.236 177.979 176.223 180.431 176.223Z" fill="#FF73BA"/>
<path d="M175.466 181.925C177.918 181.925 179.905 179.938 179.905 177.486C179.905 175.034 177.918 173.047 175.466 173.047C173.015 173.047 171.027 175.034 171.027 177.486C171.027 179.938 173.015 181.925 175.466 181.925Z" fill="#FF73BA"/>
<path d="M169.607 186.694C172.059 186.694 174.047 184.706 174.047 182.255C174.047 179.803 172.059 177.815 169.607 177.815C167.156 177.815 165.168 179.803 165.168 182.255C165.168 184.706 167.156 186.694 169.607 186.694Z" fill="#FF73BA"/>
<path d="M163.019 190.396C165.471 190.396 167.458 188.408 167.458 185.957C167.458 183.505 165.471 181.517 163.019 181.517C160.568 181.517 158.58 183.505 158.58 185.957C158.58 188.408 160.568 190.396 163.019 190.396Z" fill="#FF73BA"/>
<path d="M155.898 192.929C158.349 192.929 160.337 190.941 160.337 188.49C160.337 186.038 158.349 184.051 155.898 184.051C153.446 184.051 151.458 186.038 151.458 188.49C151.458 190.941 153.446 192.929 155.898 192.929Z" fill="#FF73BA"/>
<path d="M148.408 194.254C150.885 194.254 152.894 192.246 152.894 189.768C152.894 187.291 150.885 185.282 148.408 185.282C145.93 185.282 143.921 187.291 143.921 189.768C143.921 192.246 145.93 194.254 148.408 194.254Z" fill="#FF73BA"/>
<path d="M140.894 194.199C143.346 194.199 145.333 192.212 145.333 189.76C145.333 187.309 143.346 185.321 140.894 185.321C138.442 185.321 136.455 187.309 136.455 189.76C136.455 192.212 138.442 194.199 140.894 194.199Z" fill="#FF73BA"/>
<path d="M140.47 160.247C142.91 160.012 145.082 161.8 145.317 164.247C145.553 166.694 143.764 168.859 141.317 169.094C138.878 169.329 131.215 167.541 130.98 165.094C130.745 162.655 138.023 160.482 140.47 160.247Z" fill="#FF73BA"/>
<path d="M148.384 160.247C145.945 160.012 143.772 161.8 143.537 164.247C143.302 166.694 145.09 168.859 147.537 169.094C149.976 169.329 157.639 167.541 157.874 165.094C158.109 162.655 150.831 160.482 148.384 160.247Z" fill="#FF73BA"/>
<path d="M133.443 192.905C135.895 192.905 137.882 190.918 137.882 188.466C137.882 186.015 135.895 184.027 133.443 184.027C130.991 184.027 129.004 186.015 129.004 188.466C129.004 190.918 130.991 192.905 133.443 192.905Z" fill="#FF73BA"/>
<path d="M126.329 190.372C128.781 190.372 130.768 188.385 130.768 185.933C130.768 183.481 128.781 181.494 126.329 181.494C123.878 181.494 121.89 183.481 121.89 185.933C121.89 188.385 123.878 190.372 126.329 190.372Z" fill="#FF73BA"/>
<path d="M119.749 186.655C122.201 186.655 124.188 184.667 124.188 182.215C124.188 179.764 122.201 177.776 119.749 177.776C117.297 177.776 115.31 179.764 115.31 182.215C115.31 184.667 117.297 186.655 119.749 186.655Z" fill="#FF73BA"/>
<path d="M113.89 181.878C116.342 181.878 118.329 179.891 118.329 177.439C118.329 174.987 116.342 173 113.89 173C111.438 173 109.451 174.987 109.451 177.439C109.451 179.891 111.438 181.878 113.89 181.878Z" fill="#FF73BA"/>
<path d="M108.941 176.168C111.393 176.168 113.38 174.181 113.38 171.729C113.38 169.277 111.393 167.29 108.941 167.29C106.489 167.29 104.502 169.277 104.502 171.729C104.502 174.181 106.489 176.168 108.941 176.168Z" fill="#FF73BA"/>
<path d="M105.027 169.698C107.479 169.698 109.467 167.71 109.467 165.259C109.467 162.807 107.479 160.819 105.027 160.819C102.576 160.819 100.588 162.807 100.588 165.259C100.588 167.71 102.576 169.698 105.027 169.698Z" fill="#FF73BA"/>
<path d="M102.274 162.662C104.726 162.662 106.714 160.675 106.714 158.223C106.714 155.771 104.726 153.784 102.274 153.784C99.8227 153.784 97.8352 155.771 97.8352 158.223C97.8352 160.675 99.8227 162.662 102.274 162.662Z" fill="#FF73BA"/>
<path d="M100.761 155.259C103.212 155.259 105.2 153.271 105.2 150.819C105.2 148.368 103.212 146.38 100.761 146.38C98.309 146.38 96.3215 148.368 96.3215 150.819C96.3215 153.271 98.309 155.259 100.761 155.259Z" fill="#FF73BA"/>
<path d="M100.525 147.706C102.977 147.706 104.965 145.718 104.965 143.266C104.965 140.815 102.977 138.827 100.525 138.827C98.0737 138.827 96.0862 140.815 96.0862 143.266C96.0862 145.718 98.0737 147.706 100.525 147.706Z" fill="#FF73BA"/>
<path d="M148.117 160.176C148.117 162.333 146.368 164.082 144.211 164.082C142.055 164.082 140.306 162.333 140.306 160.176C140.306 158.019 142.055 152.372 144.211 152.372C146.368 152.372 148.117 158.019 148.117 160.176Z" fill="#F89E62"/>
<path d="M145.262 176.733C142.353 176.733 139.404 174.506 138.039 171.243C137.874 170.843 138.062 170.38 138.462 170.215C138.862 170.051 139.325 170.239 139.49 170.639C140.635 173.384 143.074 175.274 145.404 175.164C147.004 175.109 148.204 174.129 148.792 172.404C148.933 171.996 149.38 171.776 149.788 171.917C150.196 172.058 150.415 172.506 150.274 172.913C149.474 175.266 147.717 176.655 145.459 176.733C145.396 176.733 145.333 176.733 145.262 176.733Z" fill="#F89E62"/>
<path d="M128.455 156.859C134.086 156.859 138.651 152.294 138.651 146.663C138.651 141.031 134.086 136.467 128.455 136.467C122.824 136.467 118.259 141.031 118.259 146.663C118.259 152.294 122.824 156.859 128.455 156.859Z" fill="white"/>
<path d="M161.176 156.859C166.807 156.859 171.372 152.294 171.372 146.663C171.372 141.031 166.807 136.467 161.176 136.467C155.545 136.467 150.98 141.031 150.98 146.663C150.98 152.294 155.545 156.859 161.176 156.859Z" fill="white"/>
<path d="M164.686 152.545C167.22 152.545 169.274 150.491 169.274 147.957C169.274 145.423 167.22 143.368 164.686 143.368C162.152 143.368 160.098 145.423 160.098 147.957C160.098 150.491 162.152 152.545 164.686 152.545Z" fill="black"/>
<path d="M131.745 152.545C134.279 152.545 136.333 150.491 136.333 147.957C136.333 145.423 134.279 143.368 131.745 143.368C129.211 143.368 127.157 145.423 127.157 147.957C127.157 150.491 129.211 152.545 131.745 152.545Z" fill="black"/>
<path d="M174.901 131.361H150.172C149.522 131.361 148.996 131.887 148.996 132.537V133.612C148.996 134.261 149.522 134.788 150.172 134.788H174.901C175.551 134.788 176.078 134.261 176.078 133.612V132.537C176.078 131.887 175.551 131.361 174.901 131.361Z" fill="#FF73BA"/>
<path d="M182.258 201.737H105.976C91.63 201.737 80 213.367 80 227.713V325.564C80 339.91 91.63 351.54 105.976 351.54H182.258C196.605 351.54 208.235 339.91 208.235 325.564V227.713C208.235 213.367 196.605 201.737 182.258 201.737Z" fill="#9088FF"/>
<path d="M141.953 130.655H117.223C116.574 130.655 116.047 131.182 116.047 131.831V132.906C116.047 133.555 116.574 134.082 117.223 134.082H141.953C142.602 134.082 143.129 133.555 143.129 132.906V131.831C143.129 131.182 142.602 130.655 141.953 130.655Z" fill="#FF73BA"/>
<path d="M165.294 201.737L152.282 210.207C149.639 211.933 147.874 214.717 147.443 217.846L145.333 233.297L143.733 218.529C143.349 215.015 141.286 211.909 138.196 210.192L122.941 201.737V195.87H165.294V201.737L165.16 196.921L165.294 201.737Z" fill="#FFC8A2"/>
<path d="M109.506 158.694C113.456 158.694 116.659 155.491 116.659 151.541C116.659 147.59 113.456 144.388 109.506 144.388C105.555 144.388 102.353 147.59 102.353 151.541C102.353 155.491 105.555 158.694 109.506 158.694Z" fill="#FFC8A2"/>
<path d="M179.121 158.694C183.072 158.694 186.274 155.491 186.274 151.541C186.274 147.59 183.072 144.388 179.121 144.388C175.171 144.388 171.968 147.59 171.968 151.541C171.968 155.491 175.171 158.694 179.121 158.694Z" fill="#FFC8A2"/>
<path d="M145.49 247.227C146.789 247.227 147.843 246.173 147.843 244.874C147.843 243.574 146.789 242.521 145.49 242.521C144.19 242.521 143.137 243.574 143.137 244.874C143.137 246.173 144.19 247.227 145.49 247.227Z" fill="#615FC2"/>
<path d="M145.49 259.776C146.789 259.776 147.843 258.722 147.843 257.423C147.843 256.123 146.789 255.07 145.49 255.07C144.19 255.07 143.137 256.123 143.137 257.423C143.137 258.722 144.19 259.776 145.49 259.776Z" fill="#615FC2"/>
<path d="M145.49 272.325C146.789 272.325 147.843 271.271 147.843 269.972C147.843 268.672 146.789 267.619 145.49 267.619C144.19 267.619 143.137 268.672 143.137 269.972C143.137 271.271 144.19 272.325 145.49 272.325Z" fill="#615FC2"/>
</g>
</g>
<defs>
<linearGradient id="paint0_linear_412_6" x1="52.45" y1="238.08" x2="52.45" y2="196.02" gradientUnits="userSpaceOnUse">
<stop stop-color="#9ECC7C"/>
<stop offset="1" stop-color="#7EA97C"/>
</linearGradient>
<clipPath id="clip0_412_6">
<rect width="128.235" height="254.54" fill="white" transform="translate(80 97)"/>
</clipPath>
</defs>
</svg>
