<svg width="375" height="338" viewBox="0 0 375 338" fill="none" xmlns="http://www.w3.org/2000/svg">
<mask id="mask0_411_255" style="mask-type:alpha" maskUnits="userSpaceOnUse" x="0" y="0" width="375" height="338">
<rect width="375" height="338" fill="white"/>
</mask>
<g mask="url(#mask0_411_255)">
<rect width="375" height="338" fill="white"/>
<g clip-path="url(#clip0_411_255)">
<path d="M342.403 176.393H336.636V238H342.403V176.393Z" fill="#2F4233"/>
<path d="M339.082 219.9C325.465 219.9 314.384 208.773 314.384 195.099C314.384 181.426 325.465 170.299 339.082 170.299V173.027C326.975 173.027 317.101 182.942 317.101 195.099C317.101 207.257 326.975 217.171 339.082 217.171V219.9Z" fill="#2F4233"/>
<path d="M316.316 211.259C328.089 211.259 337.633 201.676 337.633 189.854C337.633 178.033 328.089 168.449 316.316 168.449C304.544 168.449 295 178.033 295 189.854C295 201.676 304.544 211.259 316.316 211.259Z" fill="#6BA06B"/>
<path d="M338.237 197.858L337.935 195.16C349.046 193.887 357.409 184.488 357.409 173.24H360.127C360.127 185.883 350.707 196.464 338.237 197.889V197.858Z" fill="#2F4233"/>
<path d="M337.391 184.488C355.401 184.488 370 169.828 370 151.744C370 133.66 355.401 119 337.391 119C319.382 119 304.783 133.66 304.783 151.744C304.783 169.828 319.382 184.488 337.391 184.488Z" fill="#79B77B"/>
</g>
<g clip-path="url(#clip1_411_255)">
<path d="M219.027 190.371H214.644V238H219.027V190.371Z" fill="#2F4233"/>
<path d="M216.502 224.007C206.153 224.007 197.732 215.404 197.732 204.833C197.732 194.262 206.153 185.66 216.502 185.66V187.769C207.301 187.769 199.797 195.434 199.797 204.833C199.797 214.232 207.301 221.897 216.502 221.897V224.007Z" fill="#2F4233"/>
<path d="M199.2 217.326C208.148 217.326 215.401 209.917 215.401 200.778C215.401 191.639 208.148 184.23 199.2 184.23C190.253 184.23 183 191.639 183 200.778C183 209.917 190.253 217.326 199.2 217.326Z" fill="#6BA06B"/>
<path d="M215.86 206.966L215.63 204.88C224.075 203.896 230.431 196.629 230.431 187.933H232.496C232.496 197.708 225.337 205.888 215.86 206.99V206.966Z" fill="#2F4233"/>
<path d="M215.217 196.629C228.904 196.629 240 185.296 240 171.315C240 157.334 228.904 146 215.217 146C201.53 146 190.435 157.334 190.435 171.315C190.435 185.296 201.53 196.629 215.217 196.629Z" fill="#79B77B"/>
</g>
<path d="M382.263 200.951H268.387V238.646H382.263V200.951Z" fill="#BAB4C6"/>
<path d="M383.229 200.951H268.387L251.066 167H365.908L383.229 200.951Z" fill="#F3E8F3"/>
<path d="M250.301 167L233 200.951H268.387L365.143 167H250.301Z" fill="#D16162"/>
<path d="M383.229 200.951H268.387L251.066 167H365.908L383.229 200.951Z" fill="#D16162"/>
<path d="M250.804 168.852L234.188 200.951V238.646H268.387V200.951L250.804 168.852Z" fill="#F3E8F3"/>
<path d="M248.911 212.946H242.789V229.126H248.911V212.946Z" fill="#ADAAAD"/>
<path d="M259.787 212.946H253.664V229.126H259.787V212.946Z" fill="#ADAAAD"/>
<path d="M371.95 212.946H362.685V229.126H371.95V212.946Z" fill="#786380"/>
<path d="M355.133 212.946H345.868V229.126H355.133V212.946Z" fill="#786380"/>
<path d="M338.335 212.946H329.071V229.126H338.335V212.946Z" fill="#786380"/>
<path d="M321.538 212.946H312.274V229.126H321.538V212.946Z" fill="#786380"/>
<path d="M304.741 212.946H295.476V229.126H304.741V212.946Z" fill="#786380"/>
<path d="M287.943 212.946H278.679V229.126H287.943V212.946Z" fill="#786380"/>
<path d="M48 160H44V242H48V160Z" fill="#ABAAAD"/>
<path d="M46.2183 156.696L36.3868 153.992C34.7968 153.554 33.153 154.488 32.7153 156.077C32.2777 157.666 33.2119 159.308 34.8019 159.745L44.6334 162.45C46.2234 162.887 47.8672 161.953 48.3049 160.365C48.7426 158.776 47.8084 157.133 46.2183 156.696Z" fill="#ABAAAD"/>
<path d="M63.1003 174.661L65.3048 177.157C66.3913 178.388 77.9177 193.091 76.9414 193.959C75.9651 194.828 62.8326 181.531 61.7461 180.299L59.5416 177.804C58.4551 176.572 46.0785 160.907 47.0548 160.038C48.0311 159.17 62.0138 173.43 63.0845 174.661H63.1003Z" fill="#ABAAAD"/>
<path d="M29.1461 173.949L26.354 175.783C24.9817 176.676 8.7341 186.024 8.02425 184.908C7.31441 183.791 22.4104 172.641 23.7828 171.747L26.5749 169.913C27.9473 169.02 45.2675 158.97 45.9773 160.086C46.6872 161.203 30.5185 173.055 29.1461 173.949Z" fill="#ABAAAD"/>
<path d="M49.9262 137.115L49.724 140.493C49.6307 142.166 47.4376 161.08 46.1466 161C44.8557 160.919 44.949 141.86 45.0578 140.187L45.2601 136.81C45.3534 135.137 47.6242 114.92 48.9152 115C50.2062 115.081 50.0351 135.443 49.9262 137.099V137.115Z" fill="#ABAAAD"/>
<rect y="238" width="375" height="176" fill="#79B77B"/>
<path d="M324.292 253.951C320.413 252.05 310.203 250.901 313.729 253.568C317.254 256.234 325 257 325 257L324.292 253.951Z" fill="#9CD179"/>
<path d="M331.233 260.951C327.03 259.05 315.97 257.901 319.789 260.568C323.609 263.234 332 264 332 264L331.233 260.951Z" fill="#9CD179"/>
<path d="M340.292 256.951C336.413 255.05 326.203 253.901 329.729 256.568C333.254 259.234 341 260 341 260L340.292 256.951Z" fill="#9CD179"/>
<g clip-path="url(#clip2_411_255)">
<path d="M190.5 152C190.5 152 181.44 202.25 187.99 215.27C188.62 216.52 187.73 218 186.33 218H83.27C81.7 218 80.84 216.2 81.81 214.96C83.46 212.84 85 209.56 84.5 205C83.5 196 78.5 152 78.5 152" fill="#615FC2"/>
<path d="M134.5 208C165.428 208 190.5 182.928 190.5 152C190.5 121.072 165.428 96 134.5 96C103.572 96 78.5 121.072 78.5 152C78.5 182.928 103.572 208 134.5 208Z" fill="#615FC2"/>
<path d="M153 125H116C98.3269 125 84 139.327 84 157C84 174.673 98.3269 189 116 189H153C170.673 189 185 174.673 185 157C185 139.327 170.673 125 153 125Z" fill="#FD9E98"/>
<path d="M159 148.5C159 142.149 153.851 137 147.5 137C141.149 137 136 142.149 136 148.5V150.5C136 156.851 141.149 162 147.5 162C153.851 162 159 156.851 159 150.5V148.5Z" fill="white"/>
<path d="M133 148.5C133 142.149 127.851 137 121.5 137C115.149 137 110 142.149 110 148.5V150.5C110 156.851 115.149 162 121.5 162C127.851 162 133 156.851 133 150.5V148.5Z" fill="white"/>
<path d="M119.68 146.01C119.68 143.613 117.737 141.67 115.34 141.67C112.943 141.67 111 143.613 111 146.01V150.66C111 153.057 112.943 155 115.34 155C117.737 155 119.68 153.057 119.68 150.66V146.01Z" fill="black"/>
<path d="M146 146.01C146 143.613 144.057 141.67 141.66 141.67C139.263 141.67 137.32 143.613 137.32 146.01V150.66C137.32 153.057 139.263 155 141.66 155C144.057 155 146 153.057 146 150.66V146.01Z" fill="black"/>
<path d="M159 148.5H136C136 142.17 141.17 137 147.5 137C150.66 137 153.54 138.29 155.62 140.38C157.71 142.46 159 145.34 159 148.5Z" fill="#E36654"/>
<path d="M133 148.5H110C110 142.17 115.17 137 121.5 137C124.66 137 127.54 138.29 129.62 140.38C131.71 142.46 133 145.34 133 148.5Z" fill="#E36654"/>
<path d="M81 168C87.0751 168 92 163.075 92 157C92 150.925 87.0751 146 81 146C74.9249 146 70 150.925 70 157C70 163.075 74.9249 168 81 168Z" fill="#FD9E98"/>
<path d="M188 168C194.075 168 199 163.075 199 157C199 150.925 194.075 146 188 146C181.925 146 177 150.925 177 157C177 163.075 181.925 168 188 168Z" fill="#FD9E98"/>
<path d="M101 119H160V138.5C160 139.88 158.88 141 157.5 141H103.5C102.12 141 101 139.88 101 138.5V119Z" fill="#615FC2"/>
<path d="M161 119H166V138.5C166 139.88 164.88 141 163.5 141C162.12 141 161 139.88 161 138.5V119Z" fill="#615FC2"/>
<path d="M96 201H108V329C108 335.62 102.62 341 96 341C89.38 341 84 335.62 84 329V213C84 206.38 89.38 201 96 201Z" fill="#18293A"/>
<path d="M176 341C169.38 341 164 335.62 164 329L164 201H176C182.62 201 188 206.38 188 213L188 329C188 335.62 182.62 341 176 341Z" fill="#18293A"/>
<path d="M105 334.75H89V347.25H105V334.75Z" fill="#18293A"/>
<path d="M184 334.75H168V347.25H184V334.75Z" fill="#18293A"/>
<path d="M137.8 174.78C136.5 174.78 135.17 174.67 133.85 174.44C133.31 174.35 132.94 173.83 133.04 173.28C133.13 172.74 133.66 172.38 134.2 172.47C138.46 173.21 142.67 172.64 146.06 170.87C149.36 169.15 151.47 166.48 152.01 163.38C152.1 162.84 152.61 162.47 153.17 162.57C153.71 162.66 154.08 163.18 153.98 163.73C153.33 167.47 150.85 170.64 146.98 172.65C144.27 174.07 141.11 174.79 137.81 174.79L137.8 174.78Z" fill="#E36654"/>
<path d="M134 162C135.657 162 137 160.657 137 159C137 157.343 135.657 156 134 156C132.343 156 131 157.343 131 159C131 160.657 132.343 162 134 162Z" fill="#E36654"/>
<path d="M143.87 189H128.37V201H143.87V189Z" fill="#FD9E98"/>
<path d="M163 201H108C101.373 201 96 206.373 96 213V359C96 365.627 101.373 371 108 371H163C169.627 371 175 365.627 175 359V213C175 206.373 169.627 201 163 201Z" fill="#18293A"/>
<path d="M148.12 195H137.12V201H148.12V195Z" fill="#18293A"/>
<path d="M135.12 195H124.12V201H135.12V195Z" fill="#18293A"/>
<path d="M136.5 201H135.5V233H136.5V201Z" fill="#615FC2"/>
<path d="M137 202H135V203H137V202Z" fill="#615FC2"/>
<path d="M137 204H135V205H137V204Z" fill="#615FC2"/>
<path d="M137 206H135V207H137V206Z" fill="#615FC2"/>
<path d="M137 208H135V209H137V208Z" fill="#615FC2"/>
<path d="M137 210H135V211H137V210Z" fill="#615FC2"/>
<path d="M137 212H135V213H137V212Z" fill="#615FC2"/>
<path d="M137 214H135V215H137V214Z" fill="#615FC2"/>
<path d="M137 216H135V217H137V216Z" fill="#615FC2"/>
<path d="M137 218H135V219H137V218Z" fill="#615FC2"/>
<path d="M137 220H135V221H137V220Z" fill="#615FC2"/>
<path d="M137 222H135V223H137V222Z" fill="#615FC2"/>
<path d="M137 224H135V225H137V224Z" fill="#615FC2"/>
<path d="M137 226H135V227H137V226Z" fill="#615FC2"/>
<path d="M137 228H135V229H137V228Z" fill="#615FC2"/>
<path d="M137 230H135V231H137V230Z" fill="#615FC2"/>
<path d="M137 232H135V233H137V232Z" fill="#615FC2"/>
<path d="M175.5 173C175.39 173 175.28 172.96 175.19 172.89C165.47 165.11 152.31 166.73 152.17 166.75C151.9 166.79 151.65 166.59 151.61 166.32C151.57 166.05 151.77 165.8 152.04 165.76C152.18 165.74 165.76 164.07 175.81 172.11C176.03 172.28 176.06 172.6 175.89 172.81C175.79 172.93 175.65 173 175.5 173Z" fill="#AD5317"/>
<path d="M177.844 173.877C178.135 173.407 177.61 172.555 176.672 171.972C175.733 171.39 174.736 171.298 174.445 171.767C174.154 172.236 174.678 173.089 175.617 173.672C176.555 174.254 177.552 174.346 177.844 173.877Z" fill="#AD5317"/>
<path d="M175.023 174.164C175.484 173.86 175.365 172.866 174.756 171.944C174.148 171.022 173.281 170.522 172.82 170.826C172.359 171.13 172.478 172.124 173.087 173.046C173.695 173.968 174.562 174.468 175.023 174.164Z" fill="#AD5317"/>
<path d="M171.618 173.215C172.167 173.156 172.518 172.218 172.401 171.12C172.284 170.022 171.744 169.179 171.195 169.237C170.646 169.295 170.295 170.233 170.412 171.332C170.529 172.43 171.069 173.273 171.618 173.215Z" fill="#AD5317"/>
<path d="M175.95 171.141C176.093 170.608 175.346 169.942 174.279 169.655C173.213 169.367 172.232 169.566 172.088 170.099C171.944 170.632 172.692 171.298 173.758 171.585C174.825 171.873 175.806 171.674 175.95 171.141Z" fill="#AD5317"/>
<path d="M172.218 169.599C173.297 169.365 174.077 168.738 173.96 168.198C173.843 167.658 172.873 167.411 171.794 167.645C170.714 167.879 169.934 168.507 170.051 169.047C170.168 169.586 171.138 169.834 172.218 169.599Z" fill="#AD5317"/>
</g>
</g>
<defs>
<clipPath id="clip0_411_255">
<rect width="75" height="119" fill="white" transform="translate(295 119)"/>
</clipPath>
<clipPath id="clip1_411_255">
<rect width="57" height="92" fill="white" transform="translate(183 146)"/>
</clipPath>
<clipPath id="clip2_411_255">
<rect width="129" height="283" fill="white" transform="translate(70 96)"/>
</clipPath>
</defs>
</svg>
