<svg width="375" height="345" viewBox="0 0 375 345" fill="none" xmlns="http://www.w3.org/2000/svg">
<mask id="mask0_412_16" style="mask-type:alpha" maskUnits="userSpaceOnUse" x="0" y="0" width="375" height="338">
<rect width="375" height="338" fill="white"/>
</mask>
<g mask="url(#mask0_412_16)">
<rect width="375" height="338" fill="white"/>
<g clip-path="url(#clip0_412_16)">
<path d="M70.0265 194.371H65.6437V242H70.0265V194.371Z" fill="#2F4233"/>
<path d="M67.5025 228.007C57.1534 228.007 48.7319 219.404 48.7319 208.833C48.7319 198.262 57.1534 189.66 67.5025 189.66V191.769C58.3008 191.769 50.7972 199.434 50.7972 208.833C50.7972 218.232 58.3008 225.897 67.5025 225.897V228.007Z" fill="#2F4233"/>
<path d="M50.2005 221.326C59.1478 221.326 66.401 213.917 66.401 204.778C66.401 195.639 59.1478 188.23 50.2005 188.23C41.2532 188.23 34 195.639 34 204.778C34 213.917 41.2532 221.326 50.2005 221.326Z" fill="#6BA06B"/>
<path d="M66.86 210.966L66.6305 208.88C75.0749 207.896 81.4312 200.629 81.4312 191.933H83.4964C83.4964 201.708 76.337 209.888 66.86 210.99V210.966Z" fill="#2F4233"/>
<path d="M66.2174 200.629C79.9045 200.629 91 189.296 91 175.315C91 161.334 79.9045 150 66.2174 150C52.5304 150 41.4348 161.334 41.4348 175.315C41.4348 189.296 52.5304 200.629 66.2174 200.629Z" fill="#79B77B"/>
</g>
<g clip-path="url(#clip1_412_16)">
<path d="M1.82206 205.76H5.12842V242H1.82206V205.76Z" fill="#2F4233"/>
<path d="M3.72625 231.353C11.5334 231.353 17.8865 224.808 17.8865 216.764C17.8865 208.721 11.5334 202.176 3.72625 202.176V203.781C10.6679 203.781 16.3285 209.613 16.3285 216.764C16.3285 223.916 10.6679 229.748 3.72625 229.748V231.353Z" fill="#2F4233"/>
<path d="M16.7786 226.27C10.0289 226.27 4.55717 220.633 4.55717 213.679C4.55717 206.725 10.0289 201.088 16.7786 201.088C23.5283 201.088 29 206.725 29 213.679C29 220.633 23.5283 226.27 16.7786 226.27Z" fill="#6BA06B"/>
<path d="M4.21093 218.387L4.38403 216.8C-1.98634 216.051 -6.78143 210.522 -6.78143 203.906H-8.3394C-8.3394 211.343 -2.93843 217.567 4.21093 218.405V218.387Z" fill="#2F4233"/>
<path d="M4.69571 210.522C-5.62962 210.522 -13.9999 201.899 -13.9999 191.261C-13.9999 180.624 -5.62962 172 4.69571 172C15.021 172 23.3914 180.624 23.3914 191.261C23.3914 201.899 15.021 210.522 4.69571 210.522Z" fill="#79B77B"/>
</g>
<rect y="238" width="375" height="176" fill="#79B77B"/>
<path d="M352.763 191.481H210.278V238.646H352.763V191.481Z" fill="#BAB4C6"/>
<path d="M353.972 191.481H210.277L188.604 149H332.299L353.972 191.481Z" fill="#F3E8F3"/>
<path d="M187.647 149L166 191.481H210.278L331.342 149H187.647Z" fill="#D16162"/>
<path d="M353.972 191.481H210.277L188.604 149H332.299L353.972 191.481Z" fill="#D16162"/>
<path d="M188.277 151.317L167.487 191.481V238.646H210.278V191.481L188.277 151.317Z" fill="#F3E8F3"/>
<path d="M185.909 206.489H178.248V226.735H185.909V206.489Z" fill="#ADAAAD"/>
<path d="M199.517 206.489H191.856V226.735H199.517V206.489Z" fill="#ADAAAD"/>
<path d="M339.859 206.489H328.267V226.735H339.859V206.489Z" fill="#786380"/>
<path d="M318.817 206.489H307.225V226.735H318.817V206.489Z" fill="#786380"/>
<path d="M297.799 206.489H286.207V226.735H297.799V206.489Z" fill="#786380"/>
<path d="M276.782 206.489H265.19V226.735H276.782V206.489Z" fill="#786380"/>
<path d="M255.765 206.489H244.173V226.735H255.765V206.489Z" fill="#786380"/>
<path d="M234.747 206.489H223.155V226.735H234.747V206.489Z" fill="#786380"/>
<g clip-path="url(#clip2_412_16)">
<path d="M221.789 328.714L197.517 304.442C191.321 298.247 189.533 288.899 193.007 280.855L199.493 265.827C222.389 212.785 297.606 212.785 320.502 265.827L326.989 280.855C330.462 288.899 328.674 298.247 322.479 304.442L298.206 328.714C277.105 349.816 242.891 349.816 221.789 328.714Z" fill="#A84C51"/>
<path d="M271.661 219.01H248.347C221.64 219.01 199.99 240.66 199.99 267.367V304.018C199.99 330.724 221.64 352.374 248.347 352.374H271.661C298.368 352.374 320.018 330.724 320.018 304.018V267.367C320.018 240.66 298.368 219.01 271.661 219.01Z" fill="#615FC2"/>
<path d="M260.004 249.381C281.096 249.381 298.194 232.283 298.194 211.191C298.194 190.098 281.096 173 260.004 173C238.912 173 221.813 190.098 221.813 211.191C221.813 232.283 238.912 249.381 260.004 249.381Z" fill="#A84C51"/>
<path d="M245.619 216.931C250.386 216.931 254.251 213.066 254.251 208.299C254.251 203.532 250.386 199.667 245.619 199.667C240.851 199.667 236.987 203.532 236.987 208.299C236.987 213.066 240.851 216.931 245.619 216.931Z" fill="white"/>
<path d="M274.383 216.931C279.15 216.931 283.015 213.066 283.015 208.299C283.015 203.532 279.15 199.667 274.383 199.667C269.616 199.667 265.751 203.532 265.751 208.299C265.751 213.066 269.616 216.931 274.383 216.931Z" fill="white"/>
<path d="M245.637 212.633C247.445 212.633 248.91 211.168 248.91 209.36C248.91 207.552 247.445 206.086 245.637 206.086C243.829 206.086 242.364 207.552 242.364 209.36C242.364 211.168 243.829 212.633 245.637 212.633Z" fill="black"/>
<path d="M274.165 212.633C275.973 212.633 277.438 211.168 277.438 209.36C277.438 207.552 275.973 206.086 274.165 206.086C272.357 206.086 270.891 207.552 270.891 209.36C270.891 211.168 272.357 212.633 274.165 212.633Z" fill="black"/>
<mask id="mask1_412_16" style="mask-type:luminance" maskUnits="userSpaceOnUse" x="236" y="199" width="19" height="18">
<path d="M245.619 216.931C250.386 216.931 254.251 213.066 254.251 208.299C254.251 203.532 250.386 199.667 245.619 199.667C240.851 199.667 236.987 203.532 236.987 208.299C236.987 213.066 240.851 216.931 245.619 216.931Z" fill="white"/>
</mask>
<g mask="url(#mask1_412_16)">
<path d="M258.137 192.477H234.834V207.099H258.137V192.477Z" fill="#752929"/>
</g>
<mask id="mask2_412_16" style="mask-type:luminance" maskUnits="userSpaceOnUse" x="265" y="199" width="19" height="18">
<path d="M274.383 216.931C279.15 216.931 283.015 213.066 283.015 208.299C283.015 203.532 279.15 199.667 274.383 199.667C269.616 199.667 265.751 203.532 265.751 208.299C265.751 213.066 269.616 216.931 274.383 216.931Z" fill="white"/>
</mask>
<g mask="url(#mask2_412_16)">
<path d="M284.5 193.787H264.077V206.493H284.5V193.787Z" fill="#752929"/>
</g>
<path d="M221.741 220.156C226.391 220.156 230.161 216.386 230.161 211.736C230.161 207.086 226.391 203.316 221.741 203.316C217.09 203.316 213.321 207.086 213.321 211.736C213.321 216.386 217.09 220.156 221.741 220.156Z" fill="#A84C51"/>
<path d="M298.261 220.156C302.911 220.156 306.681 216.386 306.681 211.736C306.681 207.086 302.911 203.316 298.261 203.316C293.611 203.316 289.841 207.086 289.841 211.736C289.841 216.386 293.611 220.156 298.261 220.156Z" fill="#A84C51"/>
<path d="M237.659 200.57C237.484 200.57 237.308 200.521 237.15 200.412C236.738 200.133 236.629 199.576 236.902 199.158C236.999 199.018 239.278 195.708 245.528 195.066C246.019 195.017 246.474 195.375 246.528 195.878C246.577 196.375 246.219 196.824 245.716 196.878C240.375 197.424 238.49 200.067 238.411 200.182C238.235 200.437 237.95 200.576 237.659 200.576V200.57Z" fill="#752929"/>
<path d="M283.203 200.576C282.912 200.576 282.627 200.437 282.451 200.176C282.36 200.049 280.469 197.424 275.147 196.878C274.65 196.83 274.286 196.381 274.334 195.878C274.383 195.381 274.838 195.017 275.335 195.066C281.578 195.708 283.864 199.018 283.961 199.157C284.24 199.576 284.131 200.139 283.712 200.418C283.555 200.521 283.379 200.57 283.209 200.57L283.203 200.576Z" fill="#752929"/>
<path d="M280.002 219.92H267.272C264.762 219.92 262.726 217.883 262.726 215.373C262.726 212.864 264.762 210.827 267.272 210.827H280.002C282.512 210.827 284.549 212.864 284.549 215.373C284.549 217.883 282.512 219.92 280.002 219.92ZM267.272 212.646C265.769 212.646 264.544 213.87 264.544 215.373C264.544 216.877 265.769 218.101 267.272 218.101H280.002C281.506 218.101 282.73 216.877 282.73 215.373C282.73 213.87 281.506 212.646 280.002 212.646H267.272Z" fill="#FEA2E1"/>
<path d="M252.42 220.223H239.69C237.18 220.223 235.144 218.186 235.144 215.676C235.144 213.167 237.18 211.13 239.69 211.13H252.42C254.93 211.13 256.967 213.167 256.967 215.676C256.967 218.186 254.93 220.223 252.42 220.223ZM239.69 212.948C238.187 212.948 236.962 214.173 236.962 215.676C236.962 217.18 238.187 218.404 239.69 218.404H252.42C253.924 218.404 255.148 217.18 255.148 215.676C255.148 214.173 253.924 212.948 252.42 212.948H239.69Z" fill="#FEA2E1"/>
<path d="M220.898 216.889H220.595C220.093 216.889 219.686 217.296 219.686 217.798V223.254C219.686 223.756 220.093 224.163 220.595 224.163H220.898C221.4 224.163 221.807 223.756 221.807 223.254V217.798C221.807 217.296 221.4 216.889 220.898 216.889Z" fill="#FEA2E1"/>
<path d="M264.853 229.922C264.853 232.602 262.683 234.772 260.004 234.772C257.324 234.772 255.154 232.602 255.154 229.922H264.853Z" fill="#FCFEF3"/>
<path d="M262.768 221.738C262.768 226.176 261.21 226.891 260.004 226.739C258.488 226.552 257.24 226.176 257.24 221.738C257.24 217.301 258.476 202.643 260.004 202.643C261.531 202.643 262.768 217.301 262.768 221.738Z" fill="#752929"/>
<path d="M256.057 216.586C255.845 216.586 255.639 216.513 255.463 216.367C255.081 216.04 255.039 215.464 255.366 215.082C255.445 214.991 257.276 212.888 259.889 212.791C261.471 212.736 262.932 213.385 264.277 214.731C264.635 215.088 264.635 215.664 264.277 216.016C263.92 216.367 263.344 216.373 262.992 216.016C262.016 215.04 260.998 214.567 259.961 214.609C258.161 214.676 256.761 216.252 256.748 216.27C256.567 216.483 256.312 216.586 256.057 216.586Z" fill="#FEA2E1"/>
<path d="M190 274.859L206.046 244.016V287.978L190 274.859Z" fill="#615FC2"/>
<path d="M330.317 274.859L314.277 244.016V287.978L330.317 274.859Z" fill="#615FC2"/>
</g>
</g>
<g clip-path="url(#clip3_412_16)">
<path d="M142.371 168.279H129.453C124.697 168.279 120.841 172.154 120.841 176.935V189.918C120.841 194.699 124.697 198.574 129.453 198.574H142.371C147.127 198.574 150.982 194.699 150.982 189.918V176.935C150.982 172.154 147.127 168.279 142.371 168.279Z" fill="#A4A4FC"/>
<path d="M93.5705 150.246H80.6529C75.8968 150.246 72.0411 154.121 72.0411 158.902V189.918C72.0411 194.698 75.8968 198.574 80.6529 198.574H93.5705C98.3267 198.574 102.182 194.698 102.182 189.918V158.902C102.182 154.121 98.3267 150.246 93.5705 150.246Z" fill="#A4A4FC"/>
<path d="M107.923 197.131C127.741 197.131 143.806 180.984 143.806 161.066C143.806 141.147 127.741 125 107.923 125C88.1062 125 72.0411 141.147 72.0411 161.066C72.0411 180.984 88.1062 197.131 107.923 197.131Z" fill="#A4A4FC"/>
<path d="M112.947 205.787H101.465V231.754H112.947V205.787Z" fill="#F89E62"/>
<path d="M126.668 149.525H89.1786C82.0919 149.525 76.347 155.299 76.347 162.422V202.988C76.347 210.111 82.0919 215.885 89.1786 215.885H126.668C133.755 215.885 139.5 210.111 139.5 202.988V162.422C139.5 155.299 133.755 149.525 126.668 149.525Z" fill="#FFC8A2"/>
<path d="M89.1786 149.525C89.1786 149.525 84.2412 161.614 76.347 162.422C76.347 162.422 71.1513 145.918 89.1786 149.525Z" fill="#A4A4FC"/>
<path d="M110.22 191.815C110.22 193.424 108.921 194.729 107.321 194.729C105.72 194.729 104.421 193.424 104.421 191.815C104.421 190.207 105.72 185.98 107.321 185.98C108.921 185.98 110.22 190.199 110.22 191.815Z" fill="#F89E62"/>
<path d="M108.706 204.489C104.436 204.489 103.151 201.986 103.094 201.87C102.914 201.51 103.065 201.084 103.417 200.904C103.768 200.731 104.199 200.875 104.371 201.221C104.429 201.329 105.641 203.486 110.012 202.959C110.407 202.916 110.765 203.197 110.808 203.587C110.859 203.984 110.572 204.344 110.184 204.388C109.653 204.453 109.158 204.481 108.691 204.481L108.706 204.489Z" fill="#F89E62"/>
<path d="M138.782 192.803C142.349 192.803 145.241 189.897 145.241 186.311C145.241 182.726 142.349 179.82 138.782 179.82C135.215 179.82 132.323 182.726 132.323 186.311C132.323 189.897 135.215 192.803 138.782 192.803Z" fill="#FFC8A2"/>
<path d="M76.347 192.803C79.9141 192.803 82.8058 189.897 82.8058 186.311C82.8058 182.726 79.9141 179.82 76.347 179.82C72.7799 179.82 69.8882 182.726 69.8882 186.311C69.8882 189.897 72.7799 192.803 76.347 192.803Z" fill="#FFC8A2"/>
<path d="M170 283.688C170 249.827 142.689 222.377 109 222.377C75.3106 222.377 48 249.827 48 283.688C48 317.55 75.3106 345 109 345C142.689 345 170 317.55 170 283.688Z" fill="#19224D"/>
<path d="M96.4411 232.475C98.0265 232.475 99.3117 231.184 99.3117 229.59C99.3117 227.997 98.0265 226.705 96.4411 226.705C94.8558 226.705 93.5706 227.997 93.5706 229.59C93.5706 231.184 94.8558 232.475 96.4411 232.475Z" fill="#FF73BA"/>
<path d="M117.253 232.475C118.838 232.475 120.124 231.184 120.124 229.59C120.124 227.997 118.838 226.705 117.253 226.705C115.668 226.705 114.382 227.997 114.382 229.59C114.382 231.184 115.668 232.475 117.253 232.475Z" fill="#FF73BA"/>
<path d="M119.406 228.147C120.991 228.147 122.277 226.856 122.277 225.262C122.277 223.669 120.991 222.377 119.406 222.377C117.821 222.377 116.535 223.669 116.535 225.262C116.535 226.856 117.821 228.147 119.406 228.147Z" fill="#FF73BA"/>
<path d="M95.0058 228.147C96.5912 228.147 97.8764 226.856 97.8764 225.262C97.8764 223.669 96.5912 222.377 95.0058 222.377C93.4205 222.377 92.1353 223.669 92.1353 225.262C92.1353 226.856 93.4205 228.147 95.0058 228.147Z" fill="#FF73BA"/>
<path d="M141.653 195.688C143.238 195.688 144.524 194.397 144.524 192.803C144.524 191.21 143.238 189.918 141.653 189.918C140.068 189.918 138.782 191.21 138.782 192.803C138.782 194.397 140.068 195.688 141.653 195.688Z" fill="#FF73BA"/>
<path d="M74.9117 195.688C76.4971 195.688 77.7823 194.397 77.7823 192.803C77.7823 191.21 76.4971 189.918 74.9117 189.918C73.3263 189.918 72.0411 191.21 72.0411 192.803C72.0411 194.397 73.3263 195.688 74.9117 195.688Z" fill="#FF73BA"/>
<path d="M100.03 236.082C101.615 236.082 102.9 234.79 102.9 233.197C102.9 231.603 101.615 230.312 100.03 230.312C98.4441 230.312 97.1589 231.603 97.1589 233.197C97.1589 234.79 98.4441 236.082 100.03 236.082Z" fill="#FF73BA"/>
<path d="M104.335 238.967C105.921 238.967 107.206 237.676 107.206 236.082C107.206 234.489 105.921 233.197 104.335 233.197C102.75 233.197 101.465 234.489 101.465 236.082C101.465 237.676 102.75 238.967 104.335 238.967Z" fill="#FF73BA"/>
<path d="M109.359 238.967C110.944 238.967 112.229 237.676 112.229 236.082C112.229 234.489 110.944 233.197 109.359 233.197C107.773 233.197 106.488 234.489 106.488 236.082C106.488 237.676 107.773 238.967 109.359 238.967Z" fill="#FF73BA"/>
<path d="M108.641 258.443C109.434 258.443 110.076 257.797 110.076 257C110.076 256.203 109.434 255.557 108.641 255.557C107.848 255.557 107.206 256.203 107.206 257C107.206 257.797 107.848 258.443 108.641 258.443Z" fill="white"/>
<path d="M108.641 249.787C109.434 249.787 110.076 249.141 110.076 248.344C110.076 247.547 109.434 246.902 108.641 246.902C107.848 246.902 107.206 247.547 107.206 248.344C107.206 249.141 107.848 249.787 108.641 249.787Z" fill="white"/>
<path d="M108.641 267.82C109.434 267.82 110.076 267.174 110.076 266.377C110.076 265.58 109.434 264.934 108.641 264.934C107.848 264.934 107.206 265.58 107.206 266.377C107.206 267.174 107.848 267.82 108.641 267.82Z" fill="white"/>
<path d="M108.641 277.197C109.434 277.197 110.076 276.551 110.076 275.754C110.076 274.957 109.434 274.312 108.641 274.312C107.848 274.312 107.206 274.957 107.206 275.754C107.206 276.551 107.848 277.197 108.641 277.197Z" fill="white"/>
<path d="M108.641 286.574C109.434 286.574 110.076 285.928 110.076 285.131C110.076 284.334 109.434 283.688 108.641 283.688C107.848 283.688 107.206 284.334 107.206 285.131C107.206 285.928 107.848 286.574 108.641 286.574Z" fill="white"/>
<path d="M108.641 295.951C109.434 295.951 110.076 295.305 110.076 294.508C110.076 293.712 109.434 293.066 108.641 293.066C107.848 293.066 107.206 293.712 107.206 294.508C107.206 295.305 107.848 295.951 108.641 295.951Z" fill="white"/>
<path d="M108.641 305.328C109.434 305.328 110.076 304.682 110.076 303.885C110.076 303.089 109.434 302.443 108.641 302.443C107.848 302.443 107.206 303.089 107.206 303.885C107.206 304.682 107.848 305.328 108.641 305.328Z" fill="white"/>
<path d="M108.641 314.705C109.434 314.705 110.076 314.059 110.076 313.262C110.076 312.465 109.434 311.82 108.641 311.82C107.848 311.82 107.206 312.465 107.206 313.262C107.206 314.059 107.848 314.705 108.641 314.705Z" fill="white"/>
<path d="M108.641 324.082C109.434 324.082 110.076 323.436 110.076 322.639C110.076 321.843 109.434 321.197 108.641 321.197C107.848 321.197 107.206 321.843 107.206 322.639C107.206 323.436 107.848 324.082 108.641 324.082Z" fill="white"/>
<path d="M113.665 236.082C115.25 236.082 116.535 234.79 116.535 233.197C116.535 231.603 115.25 230.312 113.665 230.312C112.079 230.312 110.794 231.603 110.794 233.197C110.794 234.79 112.079 236.082 113.665 236.082Z" fill="#FF73BA"/>
<path d="M141.294 258.443H117.612C117.016 258.443 116.535 257.959 116.535 257.361V252.311C116.535 251.713 117.016 251.229 117.612 251.229H141.294C141.89 251.229 142.371 251.713 142.371 252.311V257.361C142.371 257.959 141.89 258.443 141.294 258.443ZM118.688 256.279H140.218V253.393H118.688V256.279Z" fill="white"/>
<path d="M107.206 228.147C110.377 228.147 112.947 225.564 112.947 222.377C112.947 219.19 110.377 216.606 107.206 216.606C104.035 216.606 101.465 219.19 101.465 222.377C101.465 225.564 104.035 228.147 107.206 228.147Z" fill="#F89E62"/>
<path d="M94.4676 189.024C99.2 189.024 103.036 185.168 103.036 180.411C103.036 175.655 99.2 171.799 94.4676 171.799C89.7353 171.799 85.8989 175.655 85.8989 180.411C85.8989 185.168 89.7353 189.024 94.4676 189.024Z" fill="white"/>
<mask id="mask3_412_16" style="mask-type:luminance" maskUnits="userSpaceOnUse" x="85" y="171" width="19" height="19">
<path d="M94.4676 189.024C99.2 189.024 103.036 185.168 103.036 180.411C103.036 175.655 99.2 171.799 94.4676 171.799C89.7353 171.799 85.8989 175.655 85.8989 180.411C85.8989 185.168 89.7353 189.024 94.4676 189.024Z" fill="white"/>
</mask>
<g mask="url(#mask3_412_16)">
<path d="M82.0452 178.5H105.182V163.907H82.0452V178.5Z" fill="#F89E62"/>
</g>
<path d="M118.731 189.024C123.464 189.024 127.3 185.168 127.3 180.411C127.3 175.655 123.464 171.799 118.731 171.799C113.999 171.799 110.163 175.655 110.163 180.411C110.163 185.168 113.999 189.024 118.731 189.024Z" fill="white"/>
<mask id="mask4_412_16" style="mask-type:luminance" maskUnits="userSpaceOnUse" x="110" y="171" width="18" height="19">
<path d="M118.731 189.024C123.464 189.024 127.3 185.168 127.3 180.411C127.3 175.655 123.464 171.799 118.731 171.799C113.999 171.799 110.163 175.655 110.163 180.411C110.163 185.168 113.999 189.024 118.731 189.024Z" fill="white"/>
</mask>
<g mask="url(#mask4_412_16)">
<path d="M106.309 178.5H129.446V161.022H106.309V178.5Z" fill="#F89E62"/>
</g>
<path d="M91.633 185.698C93.4285 185.698 94.884 184.235 94.884 182.431C94.884 180.626 93.4285 179.163 91.633 179.163C89.8376 179.163 88.3821 180.626 88.3821 182.431C88.3821 184.235 89.8376 185.698 91.633 185.698Z" fill="black"/>
<path d="M116.607 185.698C118.403 185.698 119.858 184.235 119.858 182.431C119.858 180.626 118.403 179.163 116.607 179.163C114.812 179.163 113.356 180.626 113.356 182.431C113.356 184.235 114.812 185.698 116.607 185.698Z" fill="black"/>
<path d="M89.1787 148.803C89.1787 148.803 93.6927 179.82 140.935 179.82V156.666C140.935 152.323 136.02 148.803 129.955 148.803H89.1787Z" fill="#A4A4FC"/>
<path d="M144.165 160.344H136.271C134.091 160.344 132.323 162.12 132.323 164.311C132.323 166.502 134.091 168.279 136.271 168.279H144.165C146.345 168.279 148.112 166.502 148.112 164.311C148.112 162.12 146.345 160.344 144.165 160.344Z" fill="#FF73BA"/>
<path d="M100.029 163.951H87.1118C86.3191 163.951 85.6765 164.597 85.6765 165.394C85.6765 166.19 86.3191 166.836 87.1118 166.836H100.029C100.822 166.836 101.465 166.19 101.465 165.394C101.465 164.597 100.822 163.951 100.029 163.951Z" fill="#9088FF"/>
</g>
<defs>
<clipPath id="clip0_412_16">
<rect width="57" height="92" fill="white" transform="translate(34 150)"/>
</clipPath>
<clipPath id="clip1_412_16">
<rect width="43" height="70" fill="white" transform="matrix(-1 0 0 1 29 172)"/>
</clipPath>
<clipPath id="clip2_412_16">
<rect width="140.317" height="179.374" fill="white" transform="translate(190 173)"/>
</clipPath>
<clipPath id="clip3_412_16">
<rect width="122" height="220" fill="white" transform="translate(48 125)"/>
</clipPath>
</defs>
</svg>
