<svg width="375" height="338" viewBox="0 0 375 338" fill="none" xmlns="http://www.w3.org/2000/svg">
<mask id="mask0_413_47" style="mask-type:alpha" maskUnits="userSpaceOnUse" x="0" y="0" width="375" height="338">
<rect width="375" height="338" fill="white"/>
</mask>
<g mask="url(#mask0_413_47)">
<rect width="375" height="338" fill="white"/>
<g clip-path="url(#clip0_413_47)">
<path d="M363.403 176.393H357.636V238H363.403V176.393Z" fill="#2F4233"/>
<path d="M360.082 219.9C346.465 219.9 335.384 208.773 335.384 195.099C335.384 181.426 346.465 170.299 360.082 170.299V173.027C347.975 173.027 338.101 182.942 338.101 195.099C338.101 207.257 347.975 217.171 360.082 217.171V219.9Z" fill="#2F4233"/>
<path d="M337.316 211.259C349.089 211.259 358.633 201.676 358.633 189.854C358.633 178.033 349.089 168.449 337.316 168.449C325.544 168.449 316 178.033 316 189.854C316 201.676 325.544 211.259 337.316 211.259Z" fill="#6BA06B"/>
<path d="M359.237 197.858L358.935 195.16C370.046 193.887 378.409 184.488 378.409 173.24H381.127C381.127 185.883 371.707 196.464 359.237 197.889V197.858Z" fill="#2F4233"/>
<path d="M358.391 184.488C376.401 184.488 391 169.828 391 151.744C391 133.66 376.401 119 358.391 119C340.382 119 325.783 133.66 325.783 151.744C325.783 169.828 340.382 184.488 358.391 184.488Z" fill="#79B77B"/>
</g>
<g clip-path="url(#clip1_413_47)">
<path d="M68.1393 176.393H62.5262V238H68.1393V176.393Z" fill="#2F4233"/>
<path d="M64.9066 219.9C51.6526 219.9 40.8672 208.773 40.8672 195.099C40.8672 181.426 51.6526 170.299 64.9066 170.299V173.027C53.122 173.027 43.5121 182.942 43.5121 195.099C43.5121 207.257 53.122 217.171 64.9066 217.171V219.9Z" fill="#2F4233"/>
<path d="M42.748 211.259C54.2068 211.259 63.496 201.676 63.496 189.854C63.496 178.033 54.2068 168.449 42.748 168.449C31.2892 168.449 22 178.033 22 189.854C22 201.676 31.2892 211.259 42.748 211.259Z" fill="#6BA06B"/>
<path d="M64.0837 197.858L63.7899 195.16C74.6047 193.887 82.7452 184.488 82.7452 173.24H85.3901C85.3901 185.883 76.221 196.464 64.0837 197.889V197.858Z" fill="#2F4233"/>
<path d="M63.2609 184.488C80.7899 184.488 95 169.828 95 151.744C95 133.66 80.7899 119 63.2609 119C45.7318 119 31.5217 133.66 31.5217 151.744C31.5217 169.828 45.7318 184.488 63.2609 184.488Z" fill="#79B77B"/>
</g>
<path d="M97.7278 168H140.126L115.467 180.725H72.7421L97.7278 168Z" fill="#B53930"/>
<path d="M131.722 168H174.094L149.436 180.725H106.736L131.722 168Z" fill="#B53930"/>
<path d="M165.464 168H207.836L183.178 180.725H140.478L165.464 168Z" fill="#B53930"/>
<path d="M81.7249 180.725V238.614H115.618V180.725H115.568L106.384 168L81.7249 180.725Z" fill="#BAB4C6"/>
<path d="M39.3264 180.725V238.614H73.2195V180.725H73.1692L63.9852 168L39.3264 180.725Z" fill="#BAB4C6"/>
<path d="M115.543 180.725V238.614H149.436V180.725H149.385L140.201 168L115.543 180.725Z" fill="#BAB4C6"/>
<path d="M149.36 180.725V238.614H183.253V180.725H183.203L174.019 168L149.36 180.725Z" fill="#BAB4C6"/>
<path d="M183.153 180.725V238.614H217.046V180.725H217.021L207.836 168L183.153 180.725Z" fill="#BAB4C6"/>
<path d="M81.7249 180.724H39V238.613H81.7249V180.724Z" fill="#F3E8F3"/>
<path d="M57.3934 206.5H49.744V226.718H57.3934V206.5Z" fill="#ADAAAD"/>
<path d="M70.9807 206.5H63.3316V226.718H70.9807V206.5Z" fill="#ADAAAD"/>
<path d="M211.107 206.5H199.533V226.718H211.107V206.5Z" fill="#786380"/>
<path d="M190.097 206.5H178.523V226.718H190.097V206.5Z" fill="#786380"/>
<path d="M169.112 206.5H157.538V226.718H169.112V206.5Z" fill="#786380"/>
<path d="M148.127 206.5H136.553V226.718H148.127V206.5Z" fill="#786380"/>
<path d="M127.142 206.5H115.568V226.718H127.142V206.5Z" fill="#786380"/>
<path d="M106.157 206.5H94.5826V226.718H106.157V206.5Z" fill="#786380"/>
<path d="M63.9858 168H106.384L81.7249 180.725H39L63.9858 168Z" fill="#B53930"/>
<rect y="238" width="375" height="176" fill="#79B77B"/>
<path d="M133.292 275.951C129.413 274.05 119.203 272.901 122.729 275.568C126.254 278.234 134 279 134 279L133.292 275.951Z" fill="#9CD179"/>
<path d="M140.233 282.951C136.03 281.05 124.97 279.901 128.789 282.568C132.609 285.234 141 286 141 286L140.233 282.951Z" fill="#9CD179"/>
<path d="M149.292 278.951C145.413 277.05 135.203 275.901 138.729 278.568C142.254 281.234 150 282 150 282L149.292 278.951Z" fill="#9CD179"/>
<g clip-path="url(#clip2_413_47)">
<path d="M315.772 157.948C315.772 183.912 282.99 192.654 253.386 192.654C223.782 192.654 191 183.912 191 157.948C191 131.983 223.782 96 253.386 96C282.99 96 315.772 131.983 315.772 157.948Z" fill="#FEA2E1"/>
<path d="M263.784 178.491H244.556V211.912H263.784V178.491Z" fill="#752929"/>
<path d="M254.166 188.265C275.52 188.265 292.831 170.954 292.831 149.6C292.831 128.246 275.52 110.936 254.166 110.936C232.812 110.936 215.501 128.246 215.501 149.6C215.501 170.954 232.812 188.265 254.166 188.265Z" fill="#A84C51"/>
<path d="M214.625 133.714C214.625 133.714 250.423 136.217 265.967 113.03C265.967 113.03 273.238 134.197 292.756 140.606L292.058 123.829L270.973 107.415L252.094 102.179L227.035 107.415L211.803 121.363L214.632 133.706L214.625 133.714Z" fill="#FEA2E1"/>
<path d="M241.087 152.237C245.456 152.237 248.997 148.695 248.997 144.327C248.997 139.959 245.456 136.417 241.087 136.417C236.719 136.417 233.177 139.959 233.177 144.327C233.177 148.695 236.719 152.237 241.087 152.237Z" fill="white"/>
<path d="M267.445 152.237C271.814 152.237 275.355 148.695 275.355 144.327C275.355 139.959 271.814 136.417 267.445 136.417C263.077 136.417 259.536 139.959 259.536 144.327C259.536 148.695 263.077 152.237 267.445 152.237Z" fill="white"/>
<path d="M243.389 149.051C245.047 149.051 246.39 147.707 246.39 146.05C246.39 144.393 245.047 143.05 243.389 143.05C241.732 143.05 240.389 144.393 240.389 146.05C240.389 147.707 241.732 149.051 243.389 149.051Z" fill="black"/>
<path d="M270.126 149.051C271.784 149.051 273.127 147.707 273.127 146.05C273.127 144.393 271.784 143.05 270.126 143.05C268.469 143.05 267.126 144.393 267.126 146.05C267.126 147.707 268.469 149.051 270.126 149.051Z" fill="black"/>
<mask id="mask1_413_47" style="mask-type:luminance" maskUnits="userSpaceOnUse" x="233" y="136" width="16" height="17">
<path d="M241.087 152.237C245.456 152.237 248.997 148.695 248.997 144.327C248.997 139.959 245.456 136.417 241.087 136.417C236.719 136.417 233.177 139.959 233.177 144.327C233.177 148.695 236.719 152.237 241.087 152.237Z" fill="white"/>
</mask>
<g mask="url(#mask1_413_47)">
<path d="M250.133 130.49H228.781V139.499H250.133V130.49Z" fill="#752929"/>
</g>
<mask id="mask2_413_47" style="mask-type:luminance" maskUnits="userSpaceOnUse" x="259" y="136" width="17" height="17">
<path d="M267.445 152.237C271.814 152.237 275.355 148.695 275.355 144.327C275.355 139.959 271.814 136.417 267.445 136.417C263.077 136.417 259.536 139.959 259.536 144.327C259.536 148.695 263.077 152.237 267.445 152.237Z" fill="white"/>
</mask>
<g mask="url(#mask2_413_47)">
<path d="M276.499 130.49H257.783V139.499H276.499V130.49Z" fill="#752929"/>
</g>
<path d="M214.432 157.695C218.944 157.695 222.602 154.038 222.602 149.526C222.602 145.014 218.944 141.356 214.432 141.356C209.92 141.356 206.262 145.014 206.262 149.526C206.262 154.038 209.92 157.695 214.432 157.695Z" fill="#A84C51"/>
<path d="M293.9 157.695C298.412 157.695 302.07 154.038 302.07 149.526C302.07 145.014 298.412 141.356 293.9 141.356C289.388 141.356 285.73 145.014 285.73 149.526C285.73 154.038 289.388 157.695 293.9 157.695Z" fill="#A84C51"/>
<path d="M256.483 154.309C256.483 155.965 255.139 157.309 253.483 157.309C251.826 157.309 250.482 155.965 250.482 154.309C250.482 152.652 251.826 148.3 253.483 148.3C255.139 148.3 256.483 152.645 256.483 154.309Z" fill="#752929"/>
<path d="M280.457 148.516C280.353 148.516 280.242 148.494 280.138 148.442L277.056 146.978C276.811 146.86 276.655 146.622 276.632 146.355C276.618 146.087 276.744 145.827 276.974 145.679L280.056 143.703C280.398 143.48 280.858 143.584 281.081 143.926C281.304 144.268 281.2 144.728 280.858 144.951L278.905 146.206L280.777 147.097C281.148 147.276 281.304 147.714 281.126 148.085C280.999 148.352 280.732 148.508 280.457 148.508V148.516Z" fill="#752929"/>
<path d="M226.412 148.516C226.137 148.516 225.869 148.36 225.743 148.093C225.565 147.721 225.728 147.276 226.092 147.105L227.964 146.214L226.011 144.958C225.669 144.736 225.565 144.275 225.788 143.933C226.011 143.584 226.471 143.488 226.813 143.711L229.895 145.686C230.125 145.835 230.251 146.087 230.236 146.362C230.222 146.629 230.058 146.867 229.813 146.986L226.731 148.449C226.627 148.501 226.516 148.523 226.412 148.523V148.516Z" fill="#752929"/>
<path d="M270.728 130.706H265.046C264.431 130.706 263.932 131.205 263.932 131.82V132.229C263.932 132.844 264.431 133.343 265.046 133.343H270.728C271.343 133.343 271.842 132.844 271.842 132.229V131.82C271.842 131.205 271.343 130.706 270.728 130.706Z" fill="#AD5317"/>
<path d="M242.61 130.706H236.928C236.313 130.706 235.814 131.205 235.814 131.82V132.229C235.814 132.844 236.313 133.343 236.928 133.343H242.61C243.225 133.343 243.724 132.844 243.724 132.229V131.82C243.724 131.205 243.225 130.706 242.61 130.706Z" fill="#AD5317"/>
<path d="M251.641 168.064C249.316 168.064 247.051 166.348 245.967 163.756C245.811 163.377 245.989 162.939 246.368 162.783C246.746 162.627 247.185 162.805 247.341 163.184C248.343 165.583 250.334 166.63 251.752 166.578C252.918 166.541 253.802 165.821 254.233 164.551C254.366 164.164 254.79 163.956 255.176 164.09C255.562 164.224 255.77 164.647 255.636 165.033C254.998 166.897 253.602 168.004 251.804 168.071C251.752 168.071 251.7 168.071 251.648 168.071L251.641 168.064Z" fill="#752929"/>
<path d="M241.503 155.096C235.562 155.096 230.734 150.268 230.734 144.327C230.734 138.385 235.562 133.558 241.503 133.558C247.445 133.558 252.272 138.385 252.272 144.327C252.272 150.268 247.445 155.096 241.503 155.096ZM241.503 134.301C235.977 134.301 231.477 138.801 231.477 144.327C231.477 149.853 235.977 154.353 241.503 154.353C247.029 154.353 251.529 149.853 251.529 144.327C251.529 138.801 247.029 134.301 241.503 134.301Z" fill="#10193A"/>
<path d="M267.869 155.467C261.927 155.467 257.1 150.64 257.1 144.698C257.1 138.757 261.927 133.929 267.869 133.929C273.81 133.929 278.638 138.757 278.638 144.698C278.638 150.64 273.81 155.467 267.869 155.467ZM267.869 134.672C262.343 134.672 257.842 139.173 257.842 144.698C257.842 150.224 262.343 154.725 267.869 154.725C273.394 154.725 277.895 150.224 277.895 144.698C277.895 139.173 273.394 134.672 267.869 134.672Z" fill="#10193A"/>
<path d="M258.028 141.215H251.537V141.958H258.028V141.215Z" fill="#10193A"/>
<path d="M254.129 204.485C259.461 204.485 263.784 201.326 263.784 197.429C263.784 193.533 259.461 190.374 254.129 190.374C248.797 190.374 244.474 193.533 244.474 197.429C244.474 201.326 248.797 204.485 254.129 204.485Z" fill="#752929"/>
<path d="M302.731 197.058H205.898C199.926 197.058 195.085 201.9 195.085 207.872V319.186C195.085 325.159 199.926 330 205.898 330H302.731C308.703 330 313.544 325.159 313.544 319.186V207.872C313.544 201.9 308.703 197.058 302.731 197.058Z" fill="#FF73BA"/>
</g>
</g>
<defs>
<clipPath id="clip0_413_47">
<rect width="75" height="119" fill="white" transform="translate(316 119)"/>
</clipPath>
<clipPath id="clip1_413_47">
<rect width="73" height="119" fill="white" transform="translate(22 119)"/>
</clipPath>
<clipPath id="clip2_413_47">
<rect width="124.772" height="234" fill="white" transform="translate(191 96)"/>
</clipPath>
</defs>
</svg>
