<svg width="35" height="35" viewBox="0 0 35 35" fill="none" xmlns="http://www.w3.org/2000/svg">
<circle cx="17.5" cy="17.5" r="17.5" fill="#C8AF37"/>
<path d="M10.6724 18.6071L7.52579 22.0057L4.37914 18.6071H6.2233C6.2233 11.7822 11.7759 6.23212 18.5983 6.23212V8.75145C13.1641 8.75145 8.74263 13.1729 8.74263 18.6071H10.6724Z" stroke="white" stroke-width="1.5" stroke-linecap="round" stroke-linejoin="round"/>
<path d="M24.3275 16.3929L27.4742 12.9944L30.6208 16.3929H28.7767C28.7767 23.2153 23.2266 28.7679 16.4017 28.7679V26.2486C21.8359 26.2486 26.2574 21.8271 26.2574 16.3929H24.3275Z" stroke="white" stroke-width="1.5" stroke-linecap="round" stroke-linejoin="round"/>
<path d="M18.0733 20.4182C17.6712 19.9861 16.5699 15.674 21.3891 15.464C21.9473 15.8931 21.9893 19.8481 18.0733 20.4182Z" stroke="white" stroke-width="1.5" stroke-linecap="round" stroke-linejoin="round"/>
<path d="M13.7372 14.5818C13.3351 15.0139 12.2338 19.326 17.053 19.536C17.6112 19.1069 17.6532 15.1519 13.7372 14.5818Z" stroke="white" stroke-width="1.5" stroke-linecap="round" stroke-linejoin="round"/>
</svg>
