<svg width="35" height="35" viewBox="0 0 35 35" fill="none" xmlns="http://www.w3.org/2000/svg">
<circle cx="17.5" cy="17.5" r="17.5" fill="#9BAF64"/>
<path d="M17.6407 28.9587C17.2427 28.531 16.1529 24.2637 20.9221 24.0558C21.4744 24.4805 21.516 28.3944 17.6407 28.9587Z" stroke="white" stroke-width="1.5" stroke-linecap="round" stroke-linejoin="round"/>
<path d="M13.3496 23.1828C12.9517 23.6105 11.8619 27.8778 16.631 28.0856C17.1834 27.661 17.225 23.7471 13.3496 23.1828Z" stroke="white" stroke-width="1.5" stroke-linecap="round" stroke-linejoin="round"/>
<path d="M20.7617 21.4932V19.3343C21.6021 19.3343 22.2911 18.6869 22.2911 17.894V15.3402C22.2911 14.5622 21.617 13.9267 20.7914 13.9267H13.3526C12.527 13.9267 11.8529 14.5622 11.8529 15.3402V17.894C11.8529 18.6869 12.5419 19.3343 13.3823 19.3343V21.4932H20.7617Z" stroke="white" stroke-width="1.5" stroke-linecap="round" stroke-linejoin="round"/>
<path d="M17.0735 21.4931V29.7307" stroke="white" stroke-width="1.5" stroke-linecap="round" stroke-linejoin="round"/>
<path d="M13.409 13.9296V6.52339C13.409 5.42761 14.0831 4.53079 14.9086 4.53079H15.5738C16.3994 4.53079 17.0735 5.42761 17.0735 6.52339V13.9296" stroke="white" stroke-width="1.5" stroke-linecap="round" stroke-linejoin="round"/>
<path d="M17.0735 13.9296V6.52339C17.0735 5.42761 17.7476 4.53079 18.5731 4.53079H19.2383C20.0639 4.53079 20.738 5.42761 20.738 6.52339V13.9296" stroke="white" stroke-width="1.5" stroke-linecap="round" stroke-linejoin="round"/>
</svg>
