<svg width="35" height="35" viewBox="0 0 35 35" fill="none" xmlns="http://www.w3.org/2000/svg">
<circle cx="17.5" cy="17.5" r="17.5" fill="#6EAF91"/>
<path d="M11.8524 12.3487C11.502 11.9722 10.5423 8.21463 14.7418 8.03159C15.2282 8.40551 15.2648 11.8519 11.8524 12.3487Z" stroke="white" stroke-width="1.5" stroke-linecap="round" stroke-linejoin="round"/>
<path d="M11.1567 11.2296C11.5071 10.853 12.4668 7.09546 8.26731 6.91241C7.78094 7.28634 7.74433 10.7327 11.1567 11.2296Z" stroke="white" stroke-width="1.5" stroke-linecap="round" stroke-linejoin="round"/>
<path d="M14.6424 28.0876V15.8291C14.6424 14.9662 13.9364 14.2602 13.0735 14.2602H9.93562C9.07271 14.2602 8.3667 14.9662 8.3667 15.8291V28.085" stroke="white" stroke-width="1.5" stroke-linecap="round" stroke-linejoin="round"/>
<path d="M8.3667 17.2647H14.6424" stroke="white" stroke-width="1.5" stroke-linecap="round" stroke-linejoin="round"/>
<path d="M14.6424 23.9168L21.1377 14.4955V28.0875" stroke="white" stroke-width="1.5" stroke-linecap="round" stroke-linejoin="round"/>
<path d="M21.1377 23.9168L27.6304 14.4955V28.0875" stroke="white" stroke-width="1.5" stroke-linecap="round" stroke-linejoin="round"/>
</svg>
