<svg width="35" height="35" viewBox="0 0 35 35" fill="none" xmlns="http://www.w3.org/2000/svg">
<circle cx="17.5" cy="17.5" r="17.5" fill="#41AFBE"/>
<path d="M16.8174 9.19599C17.0093 8.59541 20.4481 5.31308 23.166 9.69056C23.0586 10.4349 19.3979 12.544 16.8174 9.19599Z" stroke="white" stroke-width="1.5" stroke-linecap="round" stroke-linejoin="round"/>
<path d="M10.4147 26.7678C13.24 26.7678 15.5303 24.4775 15.5303 21.6522C15.5303 18.8269 13.24 16.5365 10.4147 16.5365C7.58938 16.5365 5.29902 18.8269 5.29902 21.6522C5.29902 24.4775 7.58938 26.7678 10.4147 26.7678Z" stroke="white" stroke-width="1.5" stroke-linecap="round" stroke-linejoin="round"/>
<path d="M24.5853 26.7678C27.4106 26.7678 29.701 24.4775 29.701 21.6522C29.701 18.8269 27.4106 16.5365 24.5853 16.5365C21.76 16.5365 19.4697 18.8269 19.4697 21.6522C19.4697 24.4775 21.76 26.7678 24.5853 26.7678Z" stroke="white" stroke-width="1.5" stroke-linecap="round" stroke-linejoin="round"/>
<path d="M24.5853 21.6521L23.0949 12.9594H11.9084L10.4147 21.6521L23.0949 12.9594" stroke="white" stroke-width="1.5" stroke-linecap="round" stroke-linejoin="round"/>
<path d="M9.5749 10.6484H14.2418" stroke="white" stroke-width="1.5" stroke-linecap="round" stroke-linejoin="round"/>
<path d="M11.9084 12.9594V11.2574" stroke="white" stroke-width="1.5" stroke-linecap="round" stroke-linejoin="round"/>
<path d="M23.0948 12.9594V9.7381" stroke="white" stroke-width="1.5" stroke-linecap="round" stroke-linejoin="round"/>
</svg>
