<svg width="35" height="35" viewBox="0 0 35 35" fill="none" xmlns="http://www.w3.org/2000/svg">
<circle cx="17.5" cy="17.5" r="17.5" fill="#14AFF0"/>
<path d="M17.952 18.9572C17.5893 18.5675 16.5961 14.6785 20.9425 14.489C21.4459 14.876 21.4838 18.443 17.952 18.9572Z" stroke="white" stroke-width="1.5" stroke-linecap="round" stroke-linejoin="round"/>
<path d="M14.0414 13.6935C13.6787 14.0832 12.6855 17.9722 17.0319 18.1617C17.5353 17.7747 17.5732 14.2077 14.0414 13.6935Z" stroke="white" stroke-width="1.5" stroke-linecap="round" stroke-linejoin="round"/>
<path d="M25.8762 9.0683H9.12382C8.22701 9.0683 7.5 9.79531 7.5 10.6921V22.0859C7.5 22.9827 8.22701 23.7097 9.12382 23.7097H25.8762C26.773 23.7097 27.5 22.9827 27.5 22.0859V10.6921C27.5 9.79531 26.773 9.0683 25.8762 9.0683Z" stroke="white" stroke-width="1.5" stroke-linecap="round" stroke-linejoin="round"/>
<path d="M15.1427 23.7098C15.1427 23.7098 15.4242 27.9318 13.0832 27.9318H21.1643C18.8233 27.9318 19.1048 23.7098 19.1048 23.7098" stroke="white" stroke-width="1.5" stroke-linecap="round" stroke-linejoin="round"/>
</svg>
