<svg width="75" height="119" viewBox="0 0 75 119" fill="none" xmlns="http://www.w3.org/2000/svg">
<path d="M47.4034 57.3928H41.6365V119H47.4034V57.3928Z" fill="#2F4233"/>
<path d="M44.0821 100.9C30.465 100.9 19.384 89.773 19.384 76.0993C19.384 62.4257 30.465 51.2988 44.0821 51.2988V54.0275C31.9746 54.0275 22.1014 63.9416 22.1014 76.0993C22.1014 88.257 31.9746 98.1712 44.0821 98.1712V100.9Z" fill="#2F4233"/>
<path d="M21.3164 92.2591C33.0892 92.2591 42.6329 82.6759 42.6329 70.8543C42.6329 59.0327 33.0892 49.4495 21.3164 49.4495C9.54369 49.4495 0 59.0327 0 70.8543C0 82.6759 9.54369 92.2591 21.3164 92.2591Z" fill="#6BA06B"/>
<path d="M43.2367 78.8583L42.9348 76.16C54.0459 74.8866 62.4095 65.4879 62.4095 54.2397H65.1268C65.1268 66.8825 55.7066 77.4637 43.2367 78.8887V78.8583Z" fill="#2F4233"/>
<path d="M42.3913 65.4879C60.4006 65.4879 75 50.8279 75 32.7439C75 14.66 60.4006 0 42.3913 0C24.382 0 9.78259 14.66 9.78259 32.7439C9.78259 50.8279 24.382 65.4879 42.3913 65.4879Z" fill="#6BA06B"/>
</svg>
