<svg width="105" height="124" viewBox="0 0 105 124" fill="none" xmlns="http://www.w3.org/2000/svg">
<path d="M32.21 68.71C28.2 68.71 24.94 65.2 24.94 56.93V28.77C24.95 2.6 30.1 0 32.21 0C34.76 0 39.48 1.53 39.48 28.77V56.93C39.48 64.43 36.23 68.71 32.21 68.71Z" fill="#487466"/>
<path d="M33.39 27.9301H32.21L31.02 86.0301L33.3 85.6001L33.39 27.9301Z" fill="#2F4233"/>
<path d="M32.5 46.27L36.39 43.35L36.4 43.87L32.66 47.53" fill="#2F4233"/>
<path d="M28.95 51.28L28.7 51.97L32.23 58.34L32.35 56.79L28.95 51.28Z" fill="#2F4233"/>
<path d="M11.2998 84.8901C7.28983 84.8901 4.02982 83.0701 4.02982 78.8001V64.2401C4.02982 50.7101 9.18983 49.3601 11.2998 49.3601C13.8498 49.3601 18.5698 50.1501 18.5698 64.2401V78.8001C18.5698 82.6801 15.3198 84.8901 11.2998 84.8901Z" fill="#487466"/>
<path d="M12.4698 63.8H11.2898L10.0998 93.84L12.3899 93.6201L12.4698 63.8Z" fill="#2F4233"/>
<path d="M11.5899 73.2801L15.4699 71.7701L15.4799 72.0401L11.7399 73.9401" fill="#2F4233"/>
<path d="M8.02981 75.8701L7.78981 76.2301L11.3098 79.5201L11.4298 78.7201L8.02981 75.8701Z" fill="#2F4233"/>
<path d="M74.8999 115.08H-9.91821e-05C-9.91821e-05 115.08 13.1699 73.1001 39.0599 73.0201C58.0299 72.9501 74.8999 115.08 74.8999 115.08Z" fill="url(#paint0_linear_159_1362)"/>
<path d="M78.2998 93.53C74.2898 93.53 71.0298 91.71 71.0298 87.44V72.88C71.0298 59.35 76.1898 58 78.2998 58C80.8498 58 85.5698 58.79 85.5698 72.88V87.44C85.5698 91.32 82.3198 93.53 78.2998 93.53Z" fill="#487466"/>
<path d="M79.4698 72.4399H78.2898L77.0998 102.48L79.3899 102.26L79.4698 72.4399Z" fill="#2F4233"/>
<path d="M78.5899 81.92L82.4699 80.41L82.4799 80.68L78.7399 82.58" fill="#2F4233"/>
<path d="M75.0298 84.51L74.7898 84.87L78.3098 88.16L78.4298 87.36L75.0298 84.51Z" fill="#2F4233"/>
<path d="M105 123.64H46C46 123.64 56.3742 97.6894 76.7682 97.6399C91.7112 97.5967 105 123.64 105 123.64Z" fill="url(#paint1_linear_159_1362)"/>
<defs>
<linearGradient id="paint0_linear_159_1362" x1="37.4499" y1="115.08" x2="37.4499" y2="73.0201" gradientUnits="userSpaceOnUse">
<stop stop-color="#79B77B"/>
<stop offset="1" stop-color="#57996E"/>
</linearGradient>
<linearGradient id="paint1_linear_159_1362" x1="75.5" y1="123.64" x2="75.5" y2="97.6399" gradientUnits="userSpaceOnUse">
<stop stop-color="#79B77B"/>
<stop offset="1" stop-color="#57996E"/>
</linearGradient>
</defs>
</svg>
