<svg width="116" height="93" viewBox="0 0 116 93" fill="none" xmlns="http://www.w3.org/2000/svg">
<path d="M68.14 55.25H70.05V34.93H68.14V55.25Z" fill="#2F4233"/>
<path d="M69.24 49.28C73.75 49.28 77.42 45.61 77.42 41.1C77.42 36.59 73.75 32.92 69.24 32.92V33.82C73.25 33.82 76.52 37.09 76.52 41.1C76.52 45.11 73.25 48.38 69.24 48.38V49.28Z" fill="#2F4233"/>
<path d="M76.79 46.4301C80.6891 46.4301 83.85 43.2692 83.85 39.3701C83.85 35.4709 80.6891 32.3101 76.79 32.3101C72.8909 32.3101 69.73 35.4709 69.73 39.3701C69.73 43.2692 72.8909 46.4301 76.79 46.4301Z" fill="#4D804D"/>
<path d="M69.52 42.01L69.62 41.12C65.94 40.7 63.17 37.6 63.17 33.89H62.27C62.27 38.06 65.39 41.55 69.52 42.02V42.01Z" fill="#2F4233"/>
<path d="M69.8 37.6C75.7647 37.6 80.6 32.7647 80.6 26.8C80.6 20.8353 75.7647 16 69.8 16C63.8353 16 59 20.8353 59 26.8C59 32.7647 63.8353 37.6 69.8 37.6Z" fill="#5D8F5D"/>
<path d="M28.99 26.96H26.33V52.22H28.99V26.96Z" fill="#2F4233"/>
<path d="M27.5701 37.19C22.1201 37.19 17.6801 32.75 17.6801 27.3C17.6801 21.85 22.1201 17.41 27.5701 17.41C33.0201 17.41 37.4601 21.85 37.4601 27.3C37.4601 32.75 33.0201 37.19 27.5701 37.19ZM27.5701 19.42C23.2201 19.42 19.6801 22.96 19.6801 27.31C19.6801 31.66 23.2201 35.2 27.5701 35.2C31.9201 35.2 35.4601 31.66 35.4601 27.31C35.4601 22.96 31.9201 19.42 27.5701 19.42Z" fill="#2F4233"/>
<path d="M27.57 31.14C36.1691 31.14 43.14 24.1691 43.14 15.57C43.14 6.97093 36.1691 0 27.57 0C18.9709 0 12 6.97093 12 15.57C12 24.1691 18.9709 31.14 27.57 31.14Z" fill="#5D8F5D"/>
<path d="M0 79.99L86 79.1679C86 79.1679 70.8819 37.0803 41.1546 37.0001C19.3744 36.9399 0.00514156 80 0.00514156 80L0 79.99Z" fill="url(#paint0_linear_161_3044)"/>
<path d="M69.01 92.982L116 92.3155C116 92.3155 107.737 58.0721 91.4909 58.0001C79.591 57.946 69 93 69 93L69.01 92.982Z" fill="url(#paint1_linear_161_3044)"/>
<defs>
<linearGradient id="paint0_linear_161_3044" x1="43" y1="79.99" x2="43" y2="36.99" gradientUnits="userSpaceOnUse">
<stop stop-color="#79B77B"/>
<stop offset="1" stop-color="#5C9D70"/>
</linearGradient>
<linearGradient id="paint1_linear_161_3044" x1="92.5" y1="92.982" x2="92.5" y2="57.982" gradientUnits="userSpaceOnUse">
<stop stop-color="#79B77B"/>
<stop offset="1" stop-color="#599B6F"/>
</linearGradient>
</defs>
</svg>
