<svg width="168" height="90" viewBox="0 0 168 90" fill="none" xmlns="http://www.w3.org/2000/svg">
<path d="M86.81 39.25H88.72V18.93H86.81V39.25Z" fill="#2F4233"/>
<path d="M87.9099 33.28C92.4199 33.28 96.0899 29.61 96.0899 25.1C96.0899 20.59 92.4199 16.92 87.9099 16.92V17.82C91.9199 17.82 95.1899 21.09 95.1899 25.1C95.1899 29.11 91.9199 32.38 87.9099 32.38V33.28Z" fill="#2F4233"/>
<path d="M95.4599 30.4301C99.359 30.4301 102.52 27.2692 102.52 23.3701C102.52 19.4709 99.359 16.3101 95.4599 16.3101C91.5608 16.3101 88.3999 19.4709 88.3999 23.3701C88.3999 27.2692 91.5608 30.4301 95.4599 30.4301Z" fill="#6BA06B"/>
<path d="M88.1899 26.01L88.2899 25.12C84.6099 24.7 81.8399 21.6 81.8399 17.89H80.9399C80.9399 22.06 84.0599 25.55 88.1899 26.02V26.01Z" fill="#2F4233"/>
<path d="M88.4699 21.6C94.4346 21.6 99.2699 16.7647 99.2699 10.8C99.2699 4.83532 94.4346 0 88.4699 0C82.5052 0 77.6699 4.83532 77.6699 10.8C77.6699 16.7647 82.5052 21.6 88.4699 21.6Z" fill="#296C2B"/>
<path d="M37.9399 29.1H35.2799V54.36H37.9399V29.1Z" fill="#2F4233"/>
<path d="M36.52 39.3301C31.07 39.3301 26.63 34.89 26.63 29.4401C26.63 23.9901 31.07 19.55 36.52 19.55C41.97 19.55 46.41 23.9901 46.41 29.4401C46.41 34.89 41.97 39.3301 36.52 39.3301ZM36.52 21.56C32.17 21.56 28.63 25.1001 28.63 29.4501C28.63 33.8001 32.17 37.34 36.52 37.34C40.87 37.34 44.41 33.8001 44.41 29.4501C44.41 25.1001 40.87 21.56 36.52 21.56Z" fill="#2F4233"/>
<path d="M36.52 33.28C45.119 33.28 52.09 26.3091 52.09 17.71C52.09 9.11094 45.119 2.14001 36.52 2.14001C27.9209 2.14001 20.95 9.11094 20.95 17.71C20.95 26.3091 27.9209 33.28 36.52 33.28Z" fill="#296C2B"/>
<path d="M0 80.33L167.3 79.51C167.3 79.51 137.89 37.53 80.06 37.45C37.69 37.39 0.0100021 80.34 0.0100021 80.34L0 80.33Z" fill="url(#paint0_linear_161_3044)"/>
<path d="M92.52 89.04L139.55 88.67C139.55 88.67 131.28 69.66 115.02 69.62C103.11 69.59 92.51 89.05 92.51 89.05L92.52 89.04Z" fill="url(#paint1_linear_161_3044)"/>
<defs>
<linearGradient id="paint0_linear_161_3044" x1="83.65" y1="80.33" x2="83.65" y2="37.44" gradientUnits="userSpaceOnUse">
<stop stop-color="#BBE8A3"/>
<stop offset="1" stop-color="#7EA97C"/>
</linearGradient>
<linearGradient id="paint1_linear_161_3044" x1="116.03" y1="89.04" x2="116.03" y2="69.61" gradientUnits="userSpaceOnUse">
<stop stop-color="#BBE8A3"/>
<stop offset="1" stop-color="#7EA97C"/>
</linearGradient>
</defs>
</svg>
