<svg width="137" height="44" viewBox="0 0 137 44" fill="none" xmlns="http://www.w3.org/2000/svg">
<path d="M1 1H74.0337C79.4533 1 83.8555 5.44945 83.8555 10.9273C83.8555 16.4051 79.4533 20.8545 74.0337 20.8545H1V1Z" fill="white"/>
<path d="M48.8497 23.1455H136.238V43H48.8497C43.4301 43 39.0279 38.5506 39.0279 33.0727C39.0279 27.5949 43.4301 23.1455 48.8497 23.1455Z" fill="white"/>
<path d="M11.4085 16.3949L6.83008 5.70401H9.48951L13.4787 15.1731H11.9223L15.9719 5.70401H18.4047L13.8262 16.3949H11.4085Z" fill="black"/>
<path d="M24.2978 16.5782C23.4617 16.5782 22.691 16.4407 21.9859 16.1658C21.2807 15.8909 20.6662 15.504 20.1424 15.0051C19.6186 14.5062 19.2131 13.9207 18.926 13.2487C18.6389 12.5767 18.4954 11.8436 18.4954 11.0495C18.4954 10.2553 18.6389 9.50946 18.926 8.84255C19.2131 8.17564 19.6186 7.59273 20.1424 7.09382C20.6662 6.59491 21.2782 6.208 21.9783 5.93309C22.6784 5.65818 23.4465 5.52073 24.2827 5.52073C25.1188 5.52073 25.8869 5.65564 26.587 5.92546C27.2871 6.19527 27.8991 6.57964 28.4229 7.07855C28.9467 7.57746 29.3522 8.16291 29.6393 8.83491C29.9264 9.50691 30.0699 10.2451 30.0699 11.0495C30.0699 11.8538 29.9264 12.5793 29.6393 13.2564C29.3522 13.9335 28.9467 14.5215 28.4229 15.0204C27.8991 15.5193 27.2871 15.9036 26.587 16.1735C25.8869 16.4433 25.1238 16.5782 24.2978 16.5782ZM24.2827 14.4858C24.7561 14.4858 25.1918 14.4018 25.5897 14.2338C25.9876 14.0658 26.3377 13.8265 26.6399 13.516C26.9421 13.2055 27.1763 12.844 27.3425 12.4316C27.5087 12.0193 27.5918 11.5585 27.5918 11.0495C27.5918 10.5404 27.5087 10.0796 27.3425 9.66727C27.1763 9.25491 26.9421 8.89346 26.6399 8.58291C26.3377 8.27237 25.9876 8.03309 25.5897 7.86509C25.1918 7.69709 24.7561 7.61309 24.2827 7.61309C23.8092 7.61309 23.371 7.69709 22.968 7.86509C22.5651 8.03309 22.215 8.27237 21.9179 8.58291C21.6207 8.89346 21.389 9.25491 21.2228 9.66727C21.0566 10.0796 20.9735 10.5404 20.9735 11.0495C20.9735 11.5585 21.0566 12.0193 21.2228 12.4316C21.389 12.844 21.6207 13.2055 21.9179 13.516C22.215 13.8265 22.5651 14.0658 22.968 14.2338C23.371 14.4018 23.8092 14.4858 24.2827 14.4858Z" fill="black"/>
<path d="M34.0893 16.3949V12.0269L34.6484 13.5236L29.9792 5.70401H32.5934L36.1594 11.6909H34.6635L38.2446 5.70401H40.6321L35.9932 13.5236L36.5523 12.0269V16.3949H34.0893Z" fill="black"/>
<path d="M39.6348 16.3949L44.3342 5.70401H46.7518L51.4965 16.3949H48.9277L45.0444 6.95637H46.0265L42.1432 16.3949H39.6348ZM42.0072 14.104L42.6267 12.2255H48.0967L48.7313 14.104H42.0072Z" fill="black"/>
<path d="M57.5532 16.5782C56.7171 16.5782 55.9465 16.4433 55.2414 16.1735C54.5362 15.9036 53.9267 15.5193 53.413 15.0204C52.8992 14.5215 52.4988 13.936 52.2117 13.264C51.9246 12.592 51.7811 11.8538 51.7811 11.0495C51.7811 10.2451 51.9246 9.50691 52.2117 8.83491C52.4988 8.16291 52.9043 7.57746 53.4281 7.07855C53.9519 6.57964 54.5664 6.19527 55.2716 5.92546C55.9767 5.65564 56.7524 5.52073 57.5986 5.52073C58.5354 5.52073 59.3791 5.67855 60.1296 5.99418C60.8801 6.30982 61.5122 6.768 62.0259 7.36873L60.4696 8.83491C60.0767 8.41746 59.6536 8.10946 59.2003 7.91091C58.747 7.71236 58.2483 7.61309 57.7044 7.61309C57.2007 7.61309 56.7373 7.69709 56.3142 7.86509C55.8911 8.03309 55.5259 8.26982 55.2187 8.57527C54.9114 8.88073 54.6747 9.24218 54.5085 9.65964C54.3423 10.0771 54.2592 10.5404 54.2592 11.0495C54.2592 11.5585 54.3423 11.9938 54.5085 12.4164C54.6747 12.8389 54.9114 13.2029 55.2187 13.5084C55.5259 13.8138 55.8886 14.0531 56.3066 14.2262C56.7247 14.3993 57.1856 14.4858 57.6892 14.4858C58.1929 14.4858 58.6437 14.4044 59.1021 14.2415C59.5604 14.0785 60.0062 13.8087 60.4393 13.432L61.8295 15.2189C61.2452 15.6669 60.5753 16.0055 59.8198 16.2345C59.0643 16.4636 58.3088 16.5782 57.5532 16.5782ZM59.5932 14.8982V10.8815H61.8295V15.2189L59.5932 14.8982Z" fill="black"/>
<path d="M66.5313 14.4095H72.2884V16.3949H64.0986V5.70401H72.092V7.68946H66.5313V14.4095ZM66.35 9.99565H71.4422V11.9353H66.35V9.99565Z" fill="black"/>
<path d="M11.1844 34.3353H16.0953V32.3956H11.1844V30.0895H16.7451V28.104H8.75165V38.7949H16.9415V36.8095H11.1844V34.3353Z" fill="white"/>
<path d="M26.174 28.104V34.5898L20.9155 28.104H18.8907V38.7949H21.3084V32.3065L26.5668 38.7949H28.5916V28.104H26.174Z" fill="white"/>
<path d="M52.1639 36.8094H57.9209V38.7949H49.7311V28.104H57.7245V30.0895H52.1639V36.8094ZM51.9825 32.3956H57.0747V34.3353H51.9825V32.3956ZM52.3603 27.2335L54.4002 25.0342H56.9236L54.2038 27.2335H52.3603Z" fill="black"/>
<path d="M64.9322 38.9782C64.1162 38.9782 63.3582 38.8433 62.6581 38.5735C61.9579 38.3036 61.351 37.9193 60.8373 37.4204C60.3235 36.9215 59.9231 36.336 59.636 35.664C59.3489 34.992 59.2053 34.2538 59.2053 33.4495C59.2053 32.6451 59.3489 31.9069 59.636 31.2349C59.9231 30.5629 60.326 29.9775 60.8448 29.4785C61.3636 28.9796 61.973 28.5953 62.6732 28.3255C63.3733 28.0556 64.1313 27.9207 64.9473 27.9207C65.864 27.9207 66.6951 28.0811 67.4405 28.4018C68.186 28.7225 68.8105 29.1935 69.3142 29.8145L67.7276 31.2807C67.375 30.8633 66.9746 30.5476 66.5263 30.3338C66.078 30.12 65.592 30.0131 65.0682 30.0131C64.5746 30.0131 64.1212 30.0971 63.7082 30.2651C63.2952 30.4331 62.9376 30.6698 62.6354 30.9753C62.3332 31.2807 62.099 31.6422 61.9328 32.0596C61.7665 32.4771 61.6834 32.9404 61.6834 33.4495C61.6834 33.9585 61.7665 34.4218 61.9328 34.8393C62.099 35.2567 62.3332 35.6182 62.6354 35.9236C62.9376 36.2291 63.2952 36.4658 63.7082 36.6338C64.1212 36.8018 64.5746 36.8858 65.0682 36.8858C65.592 36.8858 66.078 36.7764 66.5263 36.5575C66.9746 36.3385 67.375 36.0204 67.7276 35.6029L69.3142 37.0691C68.8105 37.6902 68.186 38.1636 67.4405 38.4895C66.6951 38.8153 65.8589 38.9782 64.9322 38.9782Z" fill="black"/>
<path d="M75.857 38.9782C75.0209 38.9782 74.2503 38.8407 73.5451 38.5658C72.84 38.2909 72.2255 37.904 71.7017 37.4051C71.1778 36.9062 70.7724 36.3207 70.4853 35.6487C70.1982 34.9767 70.0546 34.2436 70.0546 33.4495C70.0546 32.6553 70.1982 31.9095 70.4853 31.2425C70.7724 30.5756 71.1778 29.9927 71.7017 29.4938C72.2255 28.9949 72.8375 28.608 73.5376 28.3331C74.2377 28.0582 75.0058 27.9207 75.8419 27.9207C76.678 27.9207 77.4461 28.0556 78.1462 28.3255C78.8464 28.5953 79.4583 28.9796 79.9822 29.4785C80.506 29.9775 80.9115 30.5629 81.1986 31.2349C81.4857 31.9069 81.6292 32.6451 81.6292 33.4495C81.6292 34.2538 81.4857 34.9793 81.1986 35.6564C80.9115 36.3335 80.506 36.9215 79.9822 37.4204C79.4583 37.9193 78.8464 38.3036 78.1462 38.5735C77.4461 38.8433 76.6831 38.9782 75.857 38.9782ZM75.8419 36.8858C76.3154 36.8858 76.7511 36.8018 77.149 36.6338C77.5469 36.4658 77.8969 36.2265 78.1991 35.916C78.5014 35.6055 78.7356 35.244 78.9018 34.8316C79.068 34.4193 79.1511 33.9585 79.1511 33.4495C79.1511 32.9404 79.068 32.4796 78.9018 32.0673C78.7356 31.6549 78.5014 31.2935 78.1991 30.9829C77.8969 30.6724 77.5469 30.4331 77.149 30.2651C76.7511 30.0971 76.3154 30.0131 75.8419 30.0131C75.3685 30.0131 74.9302 30.0971 74.5273 30.2651C74.1244 30.4331 73.7743 30.6724 73.4771 30.9829C73.18 31.2935 72.9483 31.6549 72.7821 32.0673C72.6158 32.4796 72.5327 32.9404 72.5327 33.4495C72.5327 33.9585 72.6158 34.4193 72.7821 34.8316C72.9483 35.244 73.18 35.6055 73.4771 35.916C73.7743 36.2265 74.1244 36.4658 74.5273 36.6338C74.9302 36.8018 75.3685 36.8858 75.8419 36.8858Z" fill="black"/>
<path d="M85.5126 38.7949V30.12H82.1279V28.104H91.3452V30.12H87.9605V38.7949H85.5126Z" fill="black"/>
<path d="M97.6462 38.9782C96.8101 38.9782 96.0395 38.8407 95.3343 38.5658C94.6292 38.2909 94.0147 37.904 93.4908 37.4051C92.967 36.9062 92.5616 36.3207 92.2745 35.6487C91.9874 34.9767 91.8438 34.2436 91.8438 33.4495C91.8438 32.6553 91.9874 31.9095 92.2745 31.2425C92.5616 30.5756 92.967 29.9927 93.4908 29.4938C94.0147 28.9949 94.6266 28.608 95.3268 28.3331C96.0269 28.0582 96.795 27.9207 97.6311 27.9207C98.4672 27.9207 99.2353 28.0556 99.9354 28.3255C100.636 28.5953 101.248 28.9796 101.771 29.4785C102.295 29.9775 102.701 30.5629 102.988 31.2349C103.275 31.9069 103.418 32.6451 103.418 33.4495C103.418 34.2538 103.275 34.9793 102.988 35.6564C102.701 36.3335 102.295 36.9215 101.771 37.4204C101.248 37.9193 100.636 38.3036 99.9354 38.5735C99.2353 38.8433 98.4723 38.9782 97.6462 38.9782ZM97.6311 36.8858C98.1046 36.8858 98.5402 36.8018 98.9382 36.6338C99.3361 36.4658 99.6861 36.2265 99.9883 35.916C100.291 35.6055 100.525 35.244 100.691 34.8316C100.857 34.4193 100.94 33.9585 100.94 33.4495C100.94 32.9404 100.857 32.4796 100.691 32.0673C100.525 31.6549 100.291 31.2935 99.9883 30.9829C99.6861 30.6724 99.3361 30.4331 98.9382 30.2651C98.5402 30.0971 98.1046 30.0131 97.6311 30.0131C97.1576 30.0131 96.7194 30.0971 96.3165 30.2651C95.9136 30.4331 95.5635 30.6724 95.2663 30.9829C94.9691 31.2935 94.7375 31.6549 94.5712 32.0673C94.405 32.4796 94.3219 32.9404 94.3219 33.4495C94.3219 33.9585 94.405 34.4193 94.5712 34.8316C94.7375 35.244 94.9691 35.6055 95.2663 35.916C95.5635 36.2265 95.9136 36.4658 96.3165 36.6338C96.7194 36.8018 97.1576 36.8858 97.6311 36.8858Z" fill="black"/>
<path d="M105.262 38.7949V28.104H109.84C110.787 28.104 111.603 28.2593 112.288 28.5698C112.973 28.8804 113.502 29.3258 113.875 29.9062C114.248 30.4865 114.434 31.1738 114.434 31.968C114.434 32.7622 114.248 33.4622 113.875 34.0375C113.502 34.6127 112.973 35.0582 112.288 35.3738C111.603 35.6895 110.787 35.8473 109.84 35.8473H106.607L107.725 34.7324V38.7949H105.262ZM107.725 35.0073L106.607 33.8313H109.704C110.45 33.8313 111.014 33.6684 111.397 33.3425C111.78 33.0167 111.971 32.5585 111.971 31.968C111.971 31.3775 111.78 30.9218 111.397 30.6011C111.014 30.2804 110.45 30.12 109.704 30.12H106.607L107.725 28.944V35.0073Z" fill="black"/>
<path d="M116.172 38.7949V28.104H118.635V38.7949H116.172Z" fill="black"/>
<path d="M123.561 36.8095H129.318V38.7949H121.128V28.104H129.121V30.0895H123.561V36.8095ZM123.379 32.3956H128.471V34.3353H123.379V32.3956Z" fill="black"/>
<path d="M95.5862 10.8993H127.751" stroke="white" stroke-miterlimit="10"/>
<path d="M124.082 7.23636L127.734 10.9273L124.082 14.6182" stroke="white" stroke-miterlimit="10"/>
<path d="M126.542 1H95.8154C90.4605 1 86.1195 5.38761 86.1195 10.8C86.1195 16.2124 90.4605 20.6 95.8154 20.6H126.542C131.897 20.6 136.238 16.2124 136.238 10.8C136.238 5.38761 131.897 1 126.542 1Z" stroke="white" stroke-miterlimit="10"/>
<path d="M27.1914 23.1455H10.8218C5.39736 23.1455 1 27.5901 1 33.0727C1 38.5554 5.39736 43 10.8218 43H27.1914C32.6158 43 37.0132 38.5554 37.0132 33.0727C37.0132 27.5901 32.6158 23.1455 27.1914 23.1455Z" stroke="white" stroke-miterlimit="10"/>
</svg>
