<svg width="111" height="111" viewBox="0 0 111 111" fill="none" xmlns="http://www.w3.org/2000/svg">
<path d="M77.4772 0H33.5228C15.0087 0 0 15.0087 0 33.5228V77.4772C0 95.9913 15.0087 111 33.5228 111H77.4772C95.9913 111 111 95.9913 111 77.4772V33.5228C111 15.0087 95.9913 0 77.4772 0Z" fill="#79B77B"/>
<path d="M102.597 55.3046C102.597 55.3046 85.7906 32.2447 55.3047 32.2447C24.8188 32.2447 8.01245 55.3046 8.01245 55.3046C8.01245 55.3046 24.8188 78.3644 55.3047 78.3644C85.7906 78.3644 102.597 55.3046 102.597 55.3046Z" fill="white"/>
<path d="M55.3045 79.3416C39.2955 79.3416 27.0816 72.9708 19.6555 67.6279C11.608 61.8395 7.39864 56.1215 7.22276 55.8791C6.97262 55.5352 6.97262 55.0701 7.22276 54.7261C7.39864 54.4838 11.608 48.7697 19.6555 42.9773C27.0816 37.6345 39.2955 31.2637 55.3045 31.2637C71.3135 31.2637 83.5274 37.6345 90.9535 42.9773C99.001 48.7657 103.21 54.4838 103.386 54.7261C103.636 55.0701 103.636 55.5352 103.386 55.8791C103.21 56.1215 99.001 61.8356 90.9535 67.6279C83.5274 72.9708 71.3135 79.3416 55.3045 79.3416ZM9.25125 55.3046C10.5254 56.8914 14.4925 61.5151 20.8554 66.0841C28.0392 71.2393 39.8466 77.3873 55.3045 77.3873C70.7624 77.3873 82.5699 71.2393 89.7536 66.0841C96.1205 61.5151 100.084 56.8914 101.358 55.3046C100.084 53.7178 96.1166 49.0941 89.7536 44.5251C82.5699 39.3698 70.7624 33.2218 55.3045 33.2218C39.8466 33.2218 28.0392 39.3698 20.8554 44.5251C14.4886 49.0941 10.5254 53.7178 9.25125 55.3046Z" fill="black"/>
<path d="M55.1091 71.5246C63.9593 71.5246 71.1338 64.3502 71.1338 55.5C71.1338 46.6498 63.9593 39.4753 55.1091 39.4753C46.259 39.4753 39.0845 46.6498 39.0845 55.5C39.0845 64.3502 46.259 71.5246 55.1091 71.5246Z" fill="#79B77B"/>
<path d="M88.0576 56.4341H8.40338C7.86402 56.4341 7.42627 55.9964 7.42627 55.457C7.42627 54.9176 7.86402 54.4799 8.40338 54.4799H88.0576C88.597 54.4799 89.0347 54.9176 89.0347 55.457C89.0347 55.9964 88.597 56.4341 88.0576 56.4341Z" fill="black"/>
<path d="M82.3629 62.1444C82.1127 62.1444 81.8626 62.0506 81.6711 61.8591C81.288 61.476 81.288 60.8585 81.6711 60.4755L86.6465 55.5L81.6711 50.5245C81.288 50.1415 81.288 49.524 81.6711 49.141C82.0541 48.7579 82.6716 48.7579 83.0546 49.141L88.7219 54.8082C89.1049 55.1912 89.1049 55.8088 88.7219 56.1918L83.0546 61.8591C82.8631 62.0506 82.613 62.1444 82.3629 62.1444Z" fill="black"/>
</svg>
