<svg width="292" height="61" viewBox="0 0 292 61" fill="none" xmlns="http://www.w3.org/2000/svg">
<path opacity="0.76" d="M0.00689539 41H41C41 41 34.4907 27 26.1611 27C21.2171 27 15.6181 33.9258 15.6181 33.9258C14.4458 32.4501 13.7977 30.5371 10.412 30.5371C7.28843 30.5371 0 41 0 41H0.00689539Z" fill="white"/>
<path opacity="0.76" d="M48.0069 56H89C89 56 82.4907 42 74.1611 42C69.2171 42 63.6181 48.9258 63.6181 48.9258C62.4458 47.4501 61.7977 45.5371 58.412 45.5371C55.2884 45.5371 48 56 48 56H48.0069Z" fill="white"/>
<path opacity="0.76" d="M191.007 61H232C232 61 225.491 49 217.161 49C212.217 49 206.618 54.9364 206.618 54.9364C205.446 53.6715 204.798 52.0318 201.412 52.0318C198.288 52.0318 191 61 191 61H191.007Z" fill="white"/>
<path opacity="0.76" d="M281.966 18.2609C280.317 18.2609 278.602 18.6941 277.006 19.4008C273.826 14.7729 267.892 11.1632 261.276 11.1632C260.276 11.1632 259.263 11.2544 258.249 11.414C254.898 4.8255 249.573 0 243.705 0C236.996 0 229.651 6.64931 225.657 14.9097C223.717 14.1345 221.584 13.6786 219.359 13.6786C210.782 13.6786 201 20.7382 201 27H292C292 22.8888 287.397 18.2533 281.966 18.2533V18.2609Z" fill="white"/>
</svg>
