<svg width="317" height="63" viewBox="0 0 317 63" fill="none" xmlns="http://www.w3.org/2000/svg">
<path opacity="0.76" d="M238.703 55.5556C240.298 55.5556 241.957 55.9246 243.5 56.5266C246.574 52.5843 252.313 49.5094 258.711 49.5094C259.678 49.5094 260.658 49.5871 261.638 49.7231C264.879 44.1106 270.028 40 275.703 40C282.191 40 289.293 45.6642 293.155 52.7008C295.032 52.0405 297.094 51.6521 299.246 51.6521C307.54 51.6521 317 57.6659 317 63H229C229 59.4979 233.451 55.5491 238.703 55.5491V55.5556Z" fill="white"/>
<path opacity="0.76" d="M122.25 24.03C119.76 24.03 117.17 24.6 114.76 25.53C109.96 19.44 101 14.69 91.01 14.69C89.5 14.69 87.97 14.81 86.44 15.02C81.38 6.35 73.34 0 64.48 0C54.35 0 43.26 8.75 37.23 19.62C34.3 18.6 31.08 18 27.72 18C14.77 18 0 27.29 0 35.53H137.4C137.4 30.12 130.45 24.02 122.25 24.02V24.03Z" fill="white"/>
</svg>
