<svg width="282" height="65" viewBox="0 0 282 65" fill="none" xmlns="http://www.w3.org/2000/svg">
<path opacity="0.76" d="M186 46H282C282 46 266.772 16 247.266 16C235.687 16 222.575 30.841 222.575 30.841C219.83 27.6788 218.312 23.5795 210.384 23.5795C203.068 23.5795 186 46 186 46Z" fill="white"/>
<path opacity="0.76" d="M221.818 8.11596C220.966 8.11596 220.08 8.30847 219.256 8.62257C217.614 6.56572 214.549 4.96144 211.132 4.96144C210.615 4.96144 210.092 5.00197 209.568 5.0729C207.837 2.14467 205.087 0 202.056 0C198.591 0 194.798 2.95525 192.735 6.62651C191.733 6.28202 190.631 6.07937 189.482 6.07937C185.052 6.07937 180 9.217 180 12H227C227 10.1728 224.623 8.11258 221.818 8.11258V8.11596Z" fill="white"/>
<path opacity="0.76" d="M86.3046 21.9082C84.5467 21.9082 82.7183 22.3093 81.0169 22.9637C77.6282 18.6786 71.3028 15.3363 64.2502 15.3363C63.1841 15.3363 62.104 15.4208 61.0239 15.5685C57.4517 9.46806 51.7757 5 45.5208 5C38.3694 5 30.5402 11.1568 26.2832 18.8052C24.2147 18.0875 21.9415 17.6654 19.5694 17.6654C10.4271 17.6654 0 24.2021 0 30H97C97 26.1934 92.0935 21.9012 86.3046 21.9012V21.9082Z" fill="white"/>
<path opacity="0.76" d="M15.73 64.93H75.18C75.18 64.93 65.75 47 53.67 47C46.5 47 38.38 55.87 38.38 55.87C36.68 53.98 35.74 51.53 30.83 51.53C26.3 51.53 15.73 64.93 15.73 64.93Z" fill="white"/>
</svg>
