<svg width="145" height="41" viewBox="0 0 145 41" fill="none" xmlns="http://www.w3.org/2000/svg">
<g clip-path="url(#clip0_228_53)">
<path d="M0.124786 0.123497H72.5C77.8707 0.123497 82.2332 4.44085 82.2332 9.75603C82.2332 15.0712 77.8707 19.3886 72.5 19.3886H0.124786V0.123497Z" fill="white"/>
<path d="M47.543 21.6114H145V40.8765H47.543C42.1723 40.8765 37.8098 36.5592 37.8098 31.244C37.8098 25.9288 42.1723 21.6114 47.543 21.6114Z" fill="white"/>
<path d="M12.1865 15.0613L7.64931 4.68783H10.2848L14.2379 13.8758H12.6956L16.7087 4.68783H19.1195L14.5824 15.0613H12.1865Z" fill="black"/>
<path d="M24.9595 15.2392C24.1309 15.2392 23.3672 15.1058 22.6684 14.839C21.9696 14.5723 21.3607 14.1969 20.8416 13.7128C20.3225 13.2287 19.9207 12.6606 19.6361 12.0086C19.3516 11.3565 19.2094 10.6452 19.2094 9.87458C19.2094 9.10398 19.3516 8.3803 19.6361 7.73319C19.9207 7.08609 20.3225 6.52048 20.8416 6.03639C21.3607 5.55229 21.9671 5.17687 22.6609 4.91012C23.3547 4.64338 24.1159 4.51 24.9445 4.51C25.7731 4.51 26.5343 4.64091 27.2281 4.90271C27.9219 5.16452 28.5283 5.53747 29.0474 6.02157C29.5665 6.50566 29.9683 7.07374 30.2528 7.72579C30.5373 8.37783 30.6796 9.0941 30.6796 9.87458C30.6796 10.6551 30.5373 11.359 30.2528 12.016C29.9683 12.673 29.5665 13.2435 29.0474 13.7276C28.5283 14.2117 27.9219 14.5846 27.2281 14.8464C26.5343 15.1083 25.7781 15.2392 24.9595 15.2392ZM24.9445 13.2089C25.4137 13.2089 25.8454 13.1274 26.2398 12.9644C26.6341 12.8014 26.981 12.5692 27.2805 12.2679C27.5799 11.9666 27.812 11.6158 27.9768 11.2157C28.1415 10.8156 28.2238 10.3686 28.2238 9.87458C28.2238 9.3806 28.1415 8.93356 27.9768 8.53344C27.812 8.13332 27.5799 7.78259 27.2805 7.48127C26.981 7.17994 26.6341 6.94777 26.2398 6.78476C25.8454 6.62175 25.4137 6.54024 24.9445 6.54024C24.4753 6.54024 24.0411 6.62175 23.6417 6.78476C23.2424 6.94777 22.8955 7.17994 22.601 7.48127C22.3065 7.78259 22.0769 8.13332 21.9122 8.53344C21.7475 8.93356 21.6651 9.3806 21.6651 9.87458C21.6651 10.3686 21.7475 10.8156 21.9122 11.2157C22.0769 11.6158 22.3065 11.9666 22.601 12.2679C22.8955 12.5692 23.2424 12.8014 23.6417 12.9644C24.0411 13.1274 24.4753 13.2089 24.9445 13.2089Z" fill="black"/>
<path d="M34.6627 15.0613V10.823L35.2168 12.2753L30.5898 4.68783H33.1803L36.7142 10.497H35.2317L38.7806 4.68783H41.1466L36.5495 12.2753L37.1035 10.823V15.0613H34.6627Z" fill="black"/>
<path d="M40.1583 15.0613L44.8152 4.68783H47.2111L51.913 15.0613H49.3674L45.519 5.90301H46.4923L42.644 15.0613H40.1583ZM42.5092 12.8384L43.1231 11.0157H48.5438L49.1727 12.8384H42.5092Z" fill="black"/>
<path d="M57.9151 15.2392C57.0866 15.2392 56.3229 15.1083 55.6241 14.8464C54.9253 14.5846 54.3213 14.2117 53.8122 13.7276C53.3031 13.2435 52.9063 12.6754 52.6218 12.0234C52.3373 11.3713 52.195 10.6551 52.195 9.87458C52.195 9.0941 52.3373 8.37783 52.6218 7.72579C52.9063 7.07374 53.3081 6.50566 53.8272 6.02157C54.3463 5.53747 54.9552 5.16452 55.654 4.90271C56.3528 4.64091 57.1215 4.51 57.9601 4.51C58.8885 4.51 59.7245 4.66313 60.4682 4.9694C61.212 5.27566 61.8384 5.72024 62.3475 6.30313L60.8052 7.72579C60.4158 7.32073 59.9966 7.02187 59.5473 6.82922C59.0981 6.63657 58.604 6.54024 58.0649 6.54024C57.5657 6.54024 57.1065 6.62175 56.6873 6.78476C56.268 6.94777 55.9061 7.17747 55.6016 7.47386C55.2972 7.77024 55.0626 8.12097 54.8978 8.52603C54.7331 8.93109 54.6508 9.3806 54.6508 9.87458C54.6508 10.3686 54.7331 10.7909 54.8978 11.2009C55.0626 11.6109 55.2972 11.9641 55.6016 12.2605C55.9061 12.5569 56.2655 12.789 56.6798 12.957C57.0941 13.1249 57.5508 13.2089 58.0499 13.2089C58.5491 13.2089 58.9958 13.1299 59.45 12.9718C59.9042 12.8137 60.346 12.5519 60.7752 12.1864L62.1528 13.9202C61.5738 14.3549 60.91 14.6834 60.1613 14.9057C59.4126 15.128 58.6639 15.2392 57.9151 15.2392ZM59.9367 13.609V9.71157H62.1528V13.9202L59.9367 13.609Z" fill="black"/>
<path d="M66.8123 13.1348H72.5175V15.0613H64.4015V4.68783H72.3228V6.61433H66.8123V13.1348ZM66.6326 8.85205H71.6789V10.7341H66.6326V8.85205Z" fill="black"/>
<path d="M10.2174 32.469H15.084V30.587H10.2174V28.3493H15.7279V26.4228H7.80653V36.7963H15.9225V34.8698H10.2174V32.469Z" fill="white"/>
<path d="M25.0718 26.4228V32.716L19.8608 26.4228H17.8542V36.7963H20.2501V30.5005L25.4611 36.7963H27.4676V26.4228H25.0718Z" fill="white"/>
<path d="M50.8274 34.8698H56.5325V36.7963H48.4165V26.4228H56.3379V28.3493H50.8274V34.8698ZM50.6477 30.587H55.694V32.469H50.6477V30.587ZM51.022 25.5781L53.0436 23.4441H55.5442L52.8489 25.5781H51.022Z" fill="black"/>
<path d="M63.4805 36.9741C62.6719 36.9741 61.9207 36.8432 61.2269 36.5814C60.5331 36.3196 59.9317 35.9466 59.4225 35.4625C58.9134 34.9784 58.5166 34.4104 58.2321 33.7583C57.9476 33.1063 57.8053 32.39 57.8053 31.6095C57.8053 30.829 57.9476 30.1128 58.2321 29.4607C58.5166 28.8087 58.9159 28.2406 59.43 27.7565C59.9441 27.2724 60.5481 26.8995 61.2419 26.6377C61.9357 26.3758 62.6869 26.2449 63.4955 26.2449C64.404 26.2449 65.2275 26.4005 65.9663 26.7117C66.705 27.023 67.3239 27.4799 67.8231 28.0825L66.2508 29.5052C65.9014 29.1001 65.5046 28.7939 65.0603 28.5864C64.6161 28.3789 64.1344 28.2752 63.6153 28.2752C63.1262 28.2752 62.6769 28.3567 62.2676 28.5197C61.8583 28.6827 61.504 28.9124 61.2045 29.2088C60.905 29.5052 60.6729 29.8559 60.5082 30.261C60.3435 30.666 60.2611 31.1155 60.2611 31.6095C60.2611 32.1035 60.3435 32.553 60.5082 32.9581C60.6729 33.3631 60.905 33.7139 61.2045 34.0102C61.504 34.3066 61.8583 34.5363 62.2676 34.6993C62.6769 34.8624 63.1262 34.9439 63.6153 34.9439C64.1344 34.9439 64.6161 34.8377 65.0603 34.6252C65.5046 34.4128 65.9014 34.1041 66.2508 33.699L67.8231 35.1217C67.3239 35.7243 66.705 36.1837 65.9663 36.4999C65.2275 36.816 64.399 36.9741 63.4805 36.9741Z" fill="black"/>
<path d="M74.3069 36.9741C73.4783 36.9741 72.7147 36.8407 72.0159 36.574C71.3171 36.3072 70.7081 35.9318 70.189 35.4477C69.6699 34.9636 69.2681 34.3955 68.9836 33.7435C68.6991 33.0914 68.5568 32.3801 68.5568 31.6095C68.5568 30.8389 68.6991 30.1152 68.9836 29.4681C69.2681 28.821 69.6699 28.2554 70.189 27.7713C70.7081 27.2872 71.3146 26.9118 72.0084 26.6451C72.7022 26.3783 73.4634 26.2449 74.2919 26.2449C75.1205 26.2449 75.8817 26.3758 76.5755 26.6377C77.2693 26.8995 77.8758 27.2724 78.3949 27.7565C78.914 28.2406 79.3158 28.8087 79.6003 29.4607C79.8848 30.1128 80.027 30.829 80.027 31.6095C80.027 32.39 79.8848 33.0939 79.6003 33.7509C79.3158 34.4079 78.914 34.9784 78.3949 35.4625C77.8758 35.9466 77.2693 36.3196 76.5755 36.5814C75.8817 36.8432 75.1255 36.9741 74.3069 36.9741ZM74.2919 34.9439C74.7611 34.9439 75.1929 34.8624 75.5872 34.6993C75.9815 34.5363 76.3284 34.3042 76.6279 34.0028C76.9274 33.7015 77.1595 33.3508 77.3242 32.9507C77.4889 32.5505 77.5713 32.1035 77.5713 31.6095C77.5713 31.1155 77.4889 30.6685 77.3242 30.2684C77.1595 29.8683 76.9274 29.5175 76.6279 29.2162C76.3284 28.9149 75.9815 28.6827 75.5872 28.5197C75.1929 28.3567 74.7611 28.2752 74.2919 28.2752C73.8227 28.2752 73.3885 28.3567 72.9892 28.5197C72.5899 28.6827 72.243 28.9149 71.9485 29.2162C71.654 29.5175 71.4244 29.8683 71.2597 30.2684C71.0949 30.6685 71.0126 31.1155 71.0126 31.6095C71.0126 32.1035 71.0949 32.5505 71.2597 32.9507C71.4244 33.3508 71.654 33.7015 71.9485 34.0028C72.243 34.3042 72.5899 34.5363 72.9892 34.6993C73.3885 34.8624 73.8227 34.9439 74.2919 34.9439Z" fill="black"/>
<path d="M83.8754 36.7963V28.3789H80.5212V26.4228H89.6554V28.3789H86.3012V36.7963H83.8754Z" fill="black"/>
<path d="M95.8997 36.9741C95.0711 36.9741 94.3074 36.8407 93.6086 36.574C92.9098 36.3072 92.3009 35.9318 91.7818 35.4477C91.2626 34.9636 90.8608 34.3955 90.5763 33.7435C90.2918 33.0914 90.1496 32.3801 90.1496 31.6095C90.1496 30.8389 90.2918 30.1152 90.5763 29.4681C90.8608 28.821 91.2626 28.2554 91.7818 27.7713C92.3009 27.2872 92.9073 26.9118 93.6011 26.6451C94.2949 26.3783 95.0561 26.2449 95.8847 26.2449C96.7133 26.2449 97.4744 26.3758 98.1682 26.6377C98.862 26.8995 99.4685 27.2724 99.9876 27.7565C100.507 28.2406 100.909 28.8087 101.193 29.4607C101.478 30.1128 101.62 30.829 101.62 31.6095C101.62 32.39 101.478 33.0939 101.193 33.7509C100.909 34.4079 100.507 34.9784 99.9876 35.4625C99.4685 35.9466 98.862 36.3196 98.1682 36.5814C97.4744 36.8432 96.7182 36.9741 95.8997 36.9741ZM95.8847 34.9439C96.3539 34.9439 96.7856 34.8624 97.1799 34.6993C97.5743 34.5363 97.9212 34.3042 98.2206 34.0028C98.5201 33.7015 98.7522 33.3508 98.917 32.9507C99.0817 32.5505 99.164 32.1035 99.164 31.6095C99.164 31.1155 99.0817 30.6685 98.917 30.2684C98.7522 29.8683 98.5201 29.5175 98.2206 29.2162C97.9212 28.9149 97.5743 28.6827 97.1799 28.5197C96.7856 28.3567 96.3539 28.2752 95.8847 28.2752C95.4155 28.2752 94.9812 28.3567 94.5819 28.5197C94.1826 28.6827 93.8357 28.9149 93.5412 29.2162C93.2467 29.5175 93.0171 29.8683 92.8524 30.2684C92.6877 30.6685 92.6053 31.1155 92.6053 31.6095C92.6053 32.1035 92.6877 32.5505 92.8524 32.9507C93.0171 33.3508 93.2467 33.7015 93.5412 34.0028C93.8357 34.3042 94.1826 34.5363 94.5819 34.6993C94.9812 34.8624 95.4155 34.9439 95.8847 34.9439Z" fill="black"/>
<path d="M103.447 36.7963V26.4228H107.984C108.922 26.4228 109.731 26.5734 110.41 26.8748C111.088 27.1761 111.613 27.6083 111.982 28.1714C112.351 28.7346 112.536 29.4015 112.536 30.1721C112.536 30.9427 112.351 31.6219 111.982 32.1801C111.613 32.7383 111.088 33.1705 110.41 33.4767C109.731 33.783 108.922 33.9361 107.984 33.9361H104.779L105.887 32.8543V36.7963H103.447ZM105.887 33.1211L104.779 31.98H107.849C108.588 31.98 109.147 31.8219 109.526 31.5058C109.906 31.1896 110.095 30.7451 110.095 30.1721C110.095 29.599 109.906 29.1569 109.526 28.8457C109.147 28.5345 108.588 28.3789 107.849 28.3789H104.779L105.887 27.2378V33.1211Z" fill="black"/>
<path d="M114.258 36.7963V26.4228H116.699V36.7963H114.258Z" fill="black"/>
<path d="M121.58 34.8698H127.286V36.7963H119.17V26.4228H127.091V28.3493H121.58V34.8698ZM121.401 30.587H126.447V32.469H121.401V30.587Z" fill="black"/>
<path d="M26.08 21.6114H9.858C4.4825 21.6114 0.124786 25.9241 0.124786 31.244C0.124786 36.5639 4.4825 40.8765 9.858 40.8765H26.08C31.4555 40.8765 35.8133 36.5639 35.8133 31.244C35.8133 25.9241 31.4555 21.6114 26.08 21.6114Z" stroke="white" stroke-miterlimit="10"/>
<path d="M92.6103 9.72885H121.491" stroke="white" stroke-miterlimit="10"/>
<path d="M117.854 6.1747L121.473 9.75602L117.854 13.3373" stroke="white" stroke-miterlimit="10"/>
<path d="M145 9.75602C145 4.50433 140.698 0.246986 135.392 0.246986C130.085 0.246986 125.783 4.50433 125.783 9.75602C125.783 15.0077 130.085 19.2651 135.392 19.2651C140.698 19.2651 145 15.0077 145 9.75602Z" fill="white"/>
<path d="M134.85 15.1848V5.70048L135.898 6.73783H132.754V4.81133H137.276V15.1848H134.85Z" fill="black"/>
<path d="M135.267 0.123497H93.8357C88.5291 0.123497 84.2273 4.38084 84.2273 9.63253C84.2273 14.8842 88.5291 19.1416 93.8357 19.1416H135.267C140.573 19.1416 144.875 14.8842 144.875 9.63253C144.875 4.38084 140.573 0.123497 135.267 0.123497Z" stroke="white" stroke-miterlimit="10"/>
<path d="M132.973 37.0013C132.135 37.0013 131.329 36.8901 130.555 36.6678C129.781 36.4455 129.16 36.1566 128.691 35.8009L129.514 33.993C129.953 34.3091 130.483 34.5684 131.101 34.771C131.72 34.9735 132.344 35.0748 132.973 35.0748C133.452 35.0748 133.839 35.0254 134.134 34.9266C134.428 34.8278 134.645 34.6969 134.785 34.5339C134.925 34.3708 134.995 34.1807 134.995 33.9633C134.995 33.6867 134.885 33.4669 134.665 33.3039C134.446 33.1408 134.154 33.0075 133.789 32.9037C133.425 32.8 133.028 32.7012 132.599 32.6074C132.17 32.5135 131.738 32.3999 131.304 32.2665C130.869 32.1331 130.47 31.9553 130.106 31.733C129.741 31.5107 129.452 31.2193 129.237 30.8587C129.023 30.4981 128.915 30.0461 128.915 29.5027C128.915 28.9099 129.075 28.369 129.394 27.88C129.714 27.391 130.201 27.0007 130.854 26.7093C131.508 26.4178 132.329 26.2721 133.318 26.2721C133.976 26.2721 134.628 26.3511 135.272 26.5092C135.916 26.6673 136.477 26.8945 136.956 27.1909L136.193 28.9989C135.723 28.7321 135.239 28.532 134.74 28.3987C134.241 28.2653 133.762 28.1986 133.303 28.1986C132.843 28.1986 132.439 28.2505 132.15 28.3542C131.86 28.458 131.648 28.5987 131.513 28.7766C131.378 28.9544 131.311 29.152 131.311 29.3693C131.311 29.646 131.421 29.8683 131.641 30.0362C131.86 30.2042 132.15 30.3351 132.509 30.4289C132.868 30.5228 133.268 30.6166 133.707 30.7105C134.146 30.8043 134.58 30.9204 135.01 31.0587C135.439 31.197 135.833 31.3724 136.193 31.5848C136.552 31.7972 136.844 32.0837 137.069 32.4443C137.293 32.8049 137.406 33.252 137.406 33.7855C137.406 34.3684 137.243 34.9019 136.919 35.386C136.594 35.8701 136.103 36.2603 135.444 36.5567C134.785 36.8531 133.962 37.0013 132.973 37.0013Z" fill="black"/>
</g>
<defs>
<clipPath id="clip0_228_53">
<rect width="145" height="41" fill="white"/>
</clipPath>
</defs>
</svg>
