<svg width="296" height="93" viewBox="0 0 296 93" fill="none" xmlns="http://www.w3.org/2000/svg">
<path d="M1 1H160.015C171.815 1 181.4 10.6877 181.4 22.6145C181.4 34.5412 171.815 44.2289 160.015 44.2289H1V1Z" fill="white"/>
<path d="M105.182 49.2169H295.452V92.4458H105.182C93.3821 92.4458 83.7974 82.7581 83.7974 70.8313C83.7974 58.9046 93.3821 49.2169 105.182 49.2169Z" fill="white"/>
<path d="M23.6623 34.5191L13.6937 11.2419H19.4841L28.1696 31.8588H24.7809L33.598 11.2419H38.8948L28.9263 34.5191H23.6623Z" fill="black"/>
<path d="M51.7257 34.9181C49.9053 34.9181 48.2274 34.6188 46.6921 34.0202C45.1568 33.4217 43.8189 32.5793 42.6783 31.493C41.5378 30.4068 40.655 29.1321 40.0299 27.6689C39.4048 26.2058 39.0923 24.6096 39.0923 22.8805C39.0923 21.1513 39.4048 19.5275 40.0299 18.0754C40.655 16.6234 41.5378 15.3542 42.6783 14.268C43.8189 13.1817 45.1513 12.3393 46.6757 11.7407C48.2 11.1422 49.8724 10.8429 51.6928 10.8429C53.5133 10.8429 55.1857 11.1366 56.71 11.7241C58.2344 12.3116 59.5668 13.1484 60.7073 14.2347C61.8479 15.321 62.7307 16.5957 63.3558 18.0588C63.9809 19.5219 64.2934 21.1292 64.2934 22.8805C64.2934 24.6318 63.9809 26.2113 63.3558 27.6855C62.7307 29.1598 61.8479 30.44 60.7073 31.5263C59.5668 32.6125 58.2344 33.4494 56.71 34.0369C55.1857 34.6243 53.5243 34.9181 51.7257 34.9181ZM51.6928 30.3624C52.7237 30.3624 53.6723 30.1795 54.5387 29.8137C55.405 29.448 56.1672 28.927 56.8252 28.2508C57.4832 27.5747 57.9931 26.7877 58.355 25.8899C58.7169 24.9921 58.8979 23.9889 58.8979 22.8805C58.8979 21.7721 58.7169 20.7689 58.355 19.8711C57.9931 18.9733 57.4832 18.1863 56.8252 17.5101C56.1672 16.834 55.405 16.313 54.5387 15.9472C53.6723 15.5814 52.7237 15.3986 51.6928 15.3986C50.662 15.3986 49.7079 15.5814 48.8306 15.9472C47.9533 16.313 47.1911 16.834 46.544 17.5101C45.897 18.1863 45.3926 18.9733 45.0307 19.8711C44.6688 20.7689 44.4878 21.7721 44.4878 22.8805C44.4878 23.9889 44.6688 24.9921 45.0307 25.8899C45.3926 26.7877 45.897 27.5747 46.544 28.2508C47.1911 28.927 47.9533 29.448 48.8306 29.8137C49.7079 30.1795 50.662 30.3624 51.6928 30.3624Z" fill="black"/>
<path d="M73.0446 34.5191V25.0087L74.2619 28.2675L64.0959 11.2419H69.7876L77.5519 24.2771H74.2948L82.092 11.2419H87.2902L77.19 28.2675L78.4073 25.0087V34.5191H73.0446Z" fill="black"/>
<path d="M85.1189 34.5191L95.3507 11.2419H100.615L110.945 34.5191H105.352L96.897 13.9687H99.0354L90.5802 34.5191H85.1189ZM90.2841 29.5311L91.633 25.441H103.543L104.924 29.5311H90.2841Z" fill="black"/>
<path d="M124.132 34.9181C122.312 34.9181 120.634 34.6243 119.099 34.0369C117.563 33.4494 116.236 32.6125 115.118 31.5263C113.999 30.44 113.127 29.1653 112.502 27.7022C111.877 26.239 111.565 24.6318 111.565 22.8805C111.565 21.1292 111.877 19.5219 112.502 18.0588C113.127 16.5957 114.01 15.321 115.151 14.2347C116.291 13.1484 117.629 12.3116 119.165 11.7241C120.7 11.1366 122.389 10.8429 124.231 10.8429C126.271 10.8429 128.108 11.1865 129.742 11.8737C131.376 12.561 132.752 13.5586 133.871 14.8665L130.482 18.0588C129.627 17.1499 128.705 16.4793 127.718 16.047C126.731 15.6147 125.646 15.3986 124.461 15.3986C123.365 15.3986 122.356 15.5814 121.435 15.9472C120.513 16.313 119.718 16.8284 119.049 17.4935C118.38 18.1586 117.865 18.9455 117.503 19.8545C117.141 20.7634 116.96 21.7721 116.96 22.8805C116.96 23.9889 117.141 24.9366 117.503 25.8566C117.865 26.7766 118.38 27.5692 119.049 28.2342C119.718 28.8993 120.508 29.4202 121.418 29.7971C122.328 30.174 123.332 30.3624 124.428 30.3624C125.525 30.3624 126.507 30.1851 127.505 29.8304C128.503 29.4757 129.473 28.8882 130.416 28.068L133.443 31.9586C132.171 32.934 130.712 33.6711 129.067 34.1699C127.422 34.6687 125.777 34.9181 124.132 34.9181ZM128.574 31.2602V22.5147H133.443V31.9586L128.574 31.2602Z" fill="black"/>
<path d="M143.68 30.1962H156.215V34.5191H138.383V11.2419H155.787V15.5648H143.68V30.1962ZM143.285 20.586H154.373V24.8092H143.285V20.586Z" fill="black"/>
<path d="M23.1743 73.5803H33.8667V69.3571H23.1743V64.3359H35.2813V60.013H17.8774V83.2901H35.709V78.9672H23.1743V73.5803Z" fill="white"/>
<path d="M55.8107 60.013V74.1345L44.3617 60.013H39.9531V83.2901H45.2171V69.1631L56.6661 83.2901H61.0747V60.013H55.8107Z" fill="white"/>
<path d="M112.398 78.9672H124.933V83.2901H107.101V60.013H124.505V64.3359H112.398V78.9672ZM112.003 69.3571H123.091V73.5803H112.003V69.3571ZM112.826 58.1176L117.267 53.3292H122.762L116.84 58.1176H112.826Z" fill="black"/>
<path d="M140.198 83.6892C138.422 83.6892 136.771 83.3954 135.247 82.808C133.723 82.2205 132.401 81.3836 131.283 80.2974C130.164 79.2111 129.292 77.9364 128.667 76.4733C128.042 75.0101 127.729 73.4029 127.729 71.6516C127.729 69.9002 128.042 68.293 128.667 66.8299C129.292 65.3668 130.169 64.0921 131.299 63.0058C132.429 61.9195 133.755 61.0827 135.28 60.4952C136.804 59.9077 138.455 59.614 140.231 59.614C142.227 59.614 144.037 59.9631 145.66 60.6615C147.283 61.3598 148.643 62.3851 149.739 63.7374L146.285 66.9296C145.517 66.0207 144.645 65.3335 143.669 64.868C142.693 64.4024 141.635 64.1696 140.494 64.1696C139.42 64.1696 138.433 64.3525 137.533 64.7183C136.634 65.0841 135.856 65.5995 135.198 66.2646C134.54 66.9296 134.03 67.7166 133.668 68.6255C133.306 69.5345 133.125 70.5431 133.125 71.6516C133.125 72.76 133.306 73.7687 133.668 74.6776C134.03 75.5865 134.54 76.3735 135.198 77.0386C135.856 77.7036 136.634 78.219 137.533 78.5848C138.433 78.9506 139.42 79.1335 140.494 79.1335C141.635 79.1335 142.693 78.8952 143.669 78.4186C144.645 77.9419 145.517 77.2492 146.285 76.3402L149.739 79.5325C148.643 80.8848 147.283 81.9157 145.66 82.6251C144.037 83.3345 142.216 83.6892 140.198 83.6892Z" fill="black"/>
<path d="M163.985 83.6892C162.164 83.6892 160.486 83.3899 158.951 82.7913C157.416 82.1928 156.078 81.3504 154.937 80.2641C153.797 79.1778 152.914 77.9031 152.289 76.44C151.664 74.9769 151.351 73.3807 151.351 71.6516C151.351 69.9224 151.664 68.2986 152.289 66.8465C152.914 65.3945 153.797 64.1253 154.937 63.039C156.078 61.9528 157.41 61.1104 158.935 60.5118C160.459 59.9133 162.131 59.614 163.952 59.614C165.772 59.614 167.445 59.9077 168.969 60.4952C170.493 61.0827 171.826 61.9195 172.966 63.0058C174.107 64.0921 174.99 65.3668 175.615 66.8299C176.24 68.293 176.552 69.9002 176.552 71.6516C176.552 73.4029 176.24 74.9824 175.615 76.4566C174.99 77.9308 174.107 79.2111 172.966 80.2974C171.826 81.3836 170.493 82.2205 168.969 82.808C167.445 83.3954 165.783 83.6892 163.985 83.6892ZM163.952 79.1335C164.983 79.1335 165.931 78.9506 166.798 78.5848C167.664 78.219 168.426 77.6981 169.084 77.0219C169.742 76.3458 170.252 75.5588 170.614 74.661C170.976 73.7631 171.157 72.76 171.157 71.6516C171.157 70.5431 170.976 69.54 170.614 68.6422C170.252 67.7443 169.742 66.9574 169.084 66.2812C168.426 65.6051 167.664 65.0841 166.798 64.7183C165.931 64.3525 164.983 64.1696 163.952 64.1696C162.921 64.1696 161.967 64.3525 161.09 64.7183C160.212 65.0841 159.45 65.6051 158.803 66.2812C158.156 66.9574 157.652 67.7443 157.29 68.6422C156.928 69.54 156.747 70.5431 156.747 71.6516C156.747 72.76 156.928 73.7631 157.29 74.661C157.652 75.5588 158.156 76.3458 158.803 77.0219C159.45 77.6981 160.212 78.219 161.09 78.5848C161.967 78.9506 162.921 79.1335 163.952 79.1335Z" fill="black"/>
<path d="M185.008 83.2901V64.4024H177.638V60.013H197.707V64.4024H190.337V83.2901H185.008Z" fill="black"/>
<path d="M211.426 83.6892C209.606 83.6892 207.928 83.3899 206.392 82.7913C204.857 82.1928 203.519 81.3504 202.379 80.2641C201.238 79.1778 200.355 77.9031 199.73 76.44C199.105 74.9769 198.793 73.3807 198.793 71.6516C198.793 69.9224 199.105 68.2986 199.73 66.8465C200.355 65.3945 201.238 64.1253 202.379 63.039C203.519 61.9528 204.852 61.1104 206.376 60.5118C207.9 59.9133 209.573 59.614 211.393 59.614C213.214 59.614 214.886 59.9077 216.41 60.4952C217.935 61.0827 219.267 61.9195 220.408 63.0058C221.548 64.0921 222.431 65.3668 223.056 66.8299C223.681 68.293 223.994 69.9002 223.994 71.6516C223.994 73.4029 223.681 74.9824 223.056 76.4566C222.431 77.9308 221.548 79.2111 220.408 80.2974C219.267 81.3836 217.935 82.2205 216.41 82.808C214.886 83.3954 213.225 83.6892 211.426 83.6892ZM211.393 79.1335C212.424 79.1335 213.373 78.9506 214.239 78.5848C215.105 78.219 215.867 77.6981 216.525 77.0219C217.183 76.3458 217.693 75.5588 218.055 74.661C218.417 73.7631 218.598 72.76 218.598 71.6516C218.598 70.5431 218.417 69.54 218.055 68.6422C217.693 67.7443 217.183 66.9574 216.525 66.2812C215.867 65.6051 215.105 65.0841 214.239 64.7183C213.373 64.3525 212.424 64.1696 211.393 64.1696C210.362 64.1696 209.408 64.3525 208.531 64.7183C207.654 65.0841 206.891 65.6051 206.244 66.2812C205.597 66.9574 205.093 67.7443 204.731 68.6422C204.369 69.54 204.188 70.5431 204.188 71.6516C204.188 72.76 204.369 73.7631 204.731 74.661C205.093 75.5588 205.597 76.3458 206.244 77.0219C206.891 77.6981 207.654 78.219 208.531 78.5848C209.408 78.9506 210.362 79.1335 211.393 79.1335Z" fill="black"/>
<path d="M228.007 83.2901V60.013H237.976C240.038 60.013 241.814 60.3511 243.306 61.0272C244.797 61.7034 245.949 62.6733 246.76 63.9369C247.572 65.2005 247.978 66.6969 247.978 68.426C247.978 70.1552 247.572 71.6793 246.76 72.9318C245.949 74.1844 244.797 75.1542 243.306 75.8415C241.814 76.5287 240.038 76.8723 237.976 76.8723H230.936L233.37 74.4448V83.2901H228.007ZM233.37 75.0434L230.936 72.4829H237.68C239.303 72.4829 240.531 72.1282 241.365 71.4188C242.198 70.7094 242.615 69.7118 242.615 68.426C242.615 67.1403 242.198 66.1482 241.365 65.4499C240.531 64.7516 239.303 64.4024 237.68 64.4024H230.936L233.37 61.8419V75.0434Z" fill="black"/>
<path d="M251.761 83.2901V60.013H257.124V83.2901H251.761Z" fill="black"/>
<path d="M267.849 78.9672H280.384V83.2901H262.552V60.013H279.956V64.3359H267.849V78.9672ZM267.454 69.3571H278.541V73.5803H267.454V69.3571Z" fill="black"/>
<path d="M206.941 22.5535H276.973" stroke="white" stroke-miterlimit="10"/>
<path d="M268.984 14.5783L276.935 22.6145L268.984 30.6506" stroke="white" stroke-miterlimit="10"/>
<path d="M274.341 1H207.44C195.781 1 186.329 10.5531 186.329 22.3374C186.329 34.1216 195.781 43.6747 207.44 43.6747H274.341C286 43.6747 295.452 34.1216 295.452 22.3374C295.452 10.5531 286 1 274.341 1Z" stroke="white" stroke-miterlimit="10"/>
<path d="M58.026 49.2169H22.3848C10.5743 49.2169 1 58.894 1 70.8313C1 82.7687 10.5743 92.4458 22.3848 92.4458H58.026C69.8365 92.4458 79.4108 82.7687 79.4108 70.8313C79.4108 58.894 69.8365 49.2169 58.026 49.2169Z" stroke="white" stroke-miterlimit="10"/>
</svg>
