<svg width="297" height="94" viewBox="0 0 297 94" fill="none" xmlns="http://www.w3.org/2000/svg">
<path d="M1.27417 1.2771H160.289C172.089 1.2771 181.674 10.9648 181.674 22.8916C181.674 34.8183 172.089 44.506 160.289 44.506H1.27417V1.2771Z" fill="#79B77B"/>
<path d="M105.456 49.494H295.726V92.7229H105.456C93.6563 92.7229 84.0715 83.0352 84.0715 71.1084C84.0715 59.1817 93.6563 49.494 105.456 49.494Z" fill="#79B77B"/>
<path d="M23.9366 34.7962L13.968 11.519H19.7584L28.4439 32.1359H25.0552L33.8723 11.519H39.1691L29.2005 34.7962H23.9366Z" fill="black"/>
<path d="M51.9999 35.1952C50.1795 35.1952 48.5016 34.8959 46.9663 34.2973C45.431 33.6988 44.093 32.8564 42.9525 31.7701C41.812 30.6839 40.9292 29.4092 40.3041 27.946C39.679 26.4829 39.3665 24.8867 39.3665 23.1576C39.3665 21.4284 39.679 19.8046 40.3041 18.3525C40.9292 16.9005 41.812 15.6313 42.9525 14.5451C44.093 13.4588 45.4255 12.6164 46.9498 12.0178C48.4742 11.4193 50.1466 11.12 51.967 11.12C53.7875 11.12 55.4599 11.4137 56.9842 12.0012C58.5086 12.5887 59.841 13.4255 60.9815 14.5118C62.122 15.5981 63.0048 16.8728 63.6299 18.3359C64.255 19.799 64.5676 21.4063 64.5676 23.1576C64.5676 24.9089 64.255 26.4884 63.6299 27.9626C63.0048 29.4369 62.122 30.7171 60.9815 31.8034C59.841 32.8896 58.5086 33.7265 56.9842 34.314C55.4599 34.9014 53.7984 35.1952 51.9999 35.1952ZM51.967 30.6395C52.9979 30.6395 53.9465 30.4566 54.8128 30.0908C55.6792 29.7251 56.4414 29.2041 57.0994 28.5279C57.7573 27.8518 58.2673 27.0648 58.6292 26.167C58.9911 25.2692 59.172 24.266 59.172 23.1576C59.172 22.0492 58.9911 21.046 58.6292 20.1482C58.2673 19.2504 57.7573 18.4634 57.0994 17.7872C56.4414 17.1111 55.6792 16.5901 54.8128 16.2243C53.9465 15.8585 52.9979 15.6757 51.967 15.6757C50.9362 15.6757 49.9821 15.8585 49.1047 16.2243C48.2274 16.5901 47.4652 17.1111 46.8182 17.7872C46.1712 18.4634 45.6667 19.2504 45.3048 20.1482C44.9429 21.046 44.762 22.0492 44.762 23.1576C44.762 24.266 44.9429 25.2692 45.3048 26.167C45.6667 27.0648 46.1712 27.8518 46.8182 28.5279C47.4652 29.2041 48.2274 29.7251 49.1047 30.0908C49.9821 30.4566 50.9362 30.6395 51.967 30.6395Z" fill="black"/>
<path d="M73.3188 34.7962V25.2858L74.5361 28.5446L64.3701 11.519H70.0618L77.8261 24.5542H74.569L82.3662 11.519H87.5644L77.4642 28.5446L78.6815 25.2858V34.7962H73.3188Z" fill="black"/>
<path d="M85.3931 34.7962L95.6249 11.519H100.889L111.219 34.7962H105.626L97.1711 14.2458H99.3096L90.8544 34.7962H85.3931ZM90.5583 29.8082L91.9072 25.7181H103.817L105.199 29.8082H90.5583Z" fill="black"/>
<path d="M124.407 35.1952C122.586 35.1952 120.908 34.9014 119.373 34.314C117.838 33.7265 116.511 32.8896 115.392 31.8034C114.273 30.7171 113.402 29.4424 112.777 27.9793C112.151 26.5161 111.839 24.9089 111.839 23.1576C111.839 21.4063 112.151 19.799 112.777 18.3359C113.402 16.8728 114.284 15.5981 115.425 14.5118C116.565 13.4255 117.903 12.5887 119.439 12.0012C120.974 11.4137 122.663 11.12 124.505 11.12C126.545 11.12 128.382 11.4636 130.016 12.1508C131.65 12.8381 133.026 13.8357 134.145 15.1436L130.756 18.3359C129.901 17.427 128.98 16.7564 127.993 16.3241C127.006 15.8918 125.92 15.6757 124.736 15.6757C123.639 15.6757 122.63 15.8585 121.709 16.2243C120.788 16.5901 119.992 17.1055 119.324 17.7706C118.655 18.4357 118.139 19.2226 117.777 20.1316C117.415 21.0405 117.234 22.0492 117.234 23.1576C117.234 24.266 117.415 25.2137 117.777 26.1337C118.139 27.0537 118.655 27.8463 119.324 28.5113C119.992 29.1764 120.782 29.6973 121.692 30.0742C122.603 30.4511 123.606 30.6395 124.703 30.6395C125.799 30.6395 126.781 30.4622 127.779 30.1075C128.777 29.7528 129.747 29.1653 130.69 28.3451L133.717 32.2357C132.445 33.2111 130.986 33.9482 129.341 34.447C127.696 34.9458 126.052 35.1952 124.407 35.1952ZM128.848 31.5373V22.7918H133.717V32.2357L128.848 31.5373Z" fill="black"/>
<path d="M143.954 30.4733H156.489V34.7962H138.657V11.519H156.061V15.8419H143.954V30.4733ZM143.56 20.8631H154.647V25.0863H143.56V20.8631Z" fill="black"/>
<path d="M23.4485 73.8574H34.1408V69.6342H23.4485V64.613H35.5555V60.2901H18.1516V83.5672H35.9832V79.2443H23.4485V73.8574Z" fill="#79B77B"/>
<path d="M56.0849 60.2901V74.4116L44.6358 60.2901H40.2273V83.5672H45.4912V69.4402L56.9403 83.5672H61.3489V60.2901H56.0849Z" fill="#79B77B"/>
<path d="M112.672 79.2443H125.207V83.5672H107.375V60.2901H124.779V64.613H112.672V79.2443ZM112.278 69.6342H123.365V73.8574H112.278V69.6342ZM113.1 58.3947L117.541 53.6063H123.036L117.114 58.3947H113.1Z" fill="black"/>
<path d="M140.472 83.9663C138.696 83.9663 137.045 83.6725 135.521 83.0851C133.997 82.4976 132.675 81.6607 131.557 80.5745C130.438 79.4882 129.566 78.2135 128.941 76.7504C128.316 75.2872 128.003 73.68 128.003 71.9287C128.003 70.1773 128.316 68.5701 128.941 67.107C129.566 65.6439 130.443 64.3692 131.573 63.2829C132.703 62.1966 134.03 61.3598 135.554 60.7723C137.078 60.1848 138.729 59.8911 140.505 59.8911C142.501 59.8911 144.311 60.2402 145.934 60.9386C147.557 61.6369 148.917 62.6622 150.013 64.0145L146.559 67.2067C145.791 66.2978 144.919 65.6106 143.943 65.1451C142.967 64.6795 141.909 64.4467 140.768 64.4467C139.694 64.4467 138.707 64.6296 137.808 64.9954C136.908 65.3612 136.13 65.8766 135.472 66.5417C134.814 67.2067 134.304 67.9937 133.942 68.9026C133.58 69.8116 133.399 70.8202 133.399 71.9287C133.399 73.0371 133.58 74.0458 133.942 74.9547C134.304 75.8636 134.814 76.6506 135.472 77.3157C136.13 77.9807 136.908 78.4961 137.808 78.8619C138.707 79.2277 139.694 79.4106 140.768 79.4106C141.909 79.4106 142.967 79.1723 143.943 78.6957C144.919 78.219 145.791 77.5263 146.559 76.6173L150.013 79.8096C148.917 81.1619 147.557 82.1928 145.934 82.9022C144.311 83.6116 142.49 83.9663 140.472 83.9663Z" fill="black"/>
<path d="M164.259 83.9663C162.438 83.9663 160.761 83.667 159.225 83.0684C157.69 82.4699 156.352 81.6275 155.212 80.5412C154.071 79.4549 153.188 78.1802 152.563 76.7171C151.938 75.254 151.625 73.6578 151.625 71.9287C151.625 70.1995 151.938 68.5757 152.563 67.1236C153.188 65.6716 154.071 64.4024 155.212 63.3161C156.352 62.2299 157.684 61.3875 159.209 60.7889C160.733 60.1904 162.406 59.8911 164.226 59.8911C166.046 59.8911 167.719 60.1848 169.243 60.7723C170.768 61.3598 172.1 62.1966 173.241 63.2829C174.381 64.3692 175.264 65.6439 175.889 67.107C176.514 68.5701 176.827 70.1773 176.827 71.9287C176.827 73.68 176.514 75.2595 175.889 76.7337C175.264 78.2079 174.381 79.4882 173.241 80.5745C172.1 81.6607 170.768 82.4976 169.243 83.0851C167.719 83.6725 166.057 83.9663 164.259 83.9663ZM164.226 79.4106C165.257 79.4106 166.205 79.2277 167.072 78.8619C167.938 78.4961 168.7 77.9752 169.358 77.299C170.016 76.6229 170.526 75.8359 170.888 74.9381C171.25 74.0402 171.431 73.0371 171.431 71.9287C171.431 70.8202 171.25 69.8171 170.888 68.9193C170.526 68.0214 170.016 67.2345 169.358 66.5583C168.7 65.8822 167.938 65.3612 167.072 64.9954C166.205 64.6296 165.257 64.4467 164.226 64.4467C163.195 64.4467 162.241 64.6296 161.364 64.9954C160.486 65.3612 159.724 65.8822 159.077 66.5583C158.43 67.2345 157.926 68.0214 157.564 68.9193C157.202 69.8171 157.021 70.8202 157.021 71.9287C157.021 73.0371 157.202 74.0402 157.564 74.9381C157.926 75.8359 158.43 76.6229 159.077 77.299C159.724 77.9752 160.486 78.4961 161.364 78.8619C162.241 79.2277 163.195 79.4106 164.226 79.4106Z" fill="black"/>
<path d="M185.282 83.5672V64.6795H177.912V60.2901H197.981V64.6795H190.612V83.5672H185.282Z" fill="black"/>
<path d="M211.7 83.9663C209.88 83.9663 208.202 83.667 206.666 83.0684C205.131 82.4699 203.793 81.6275 202.653 80.5412C201.512 79.4549 200.629 78.1802 200.004 76.7171C199.379 75.254 199.067 73.6578 199.067 71.9287C199.067 70.1995 199.379 68.5757 200.004 67.1236C200.629 65.6716 201.512 64.4024 202.653 63.3161C203.793 62.2299 205.126 61.3875 206.65 60.7889C208.174 60.1904 209.847 59.8911 211.667 59.8911C213.488 59.8911 215.16 60.1848 216.684 60.7723C218.209 61.3598 219.541 62.1966 220.682 63.2829C221.822 64.3692 222.705 65.6439 223.33 67.107C223.955 68.5701 224.268 70.1773 224.268 71.9287C224.268 73.68 223.955 75.2595 223.33 76.7337C222.705 78.2079 221.822 79.4882 220.682 80.5745C219.541 81.6607 218.209 82.4976 216.684 83.0851C215.16 83.6725 213.499 83.9663 211.7 83.9663ZM211.667 79.4106C212.698 79.4106 213.647 79.2277 214.513 78.8619C215.379 78.4961 216.142 77.9752 216.8 77.299C217.458 76.6229 217.967 75.8359 218.329 74.9381C218.691 74.0402 218.872 73.0371 218.872 71.9287C218.872 70.8202 218.691 69.8171 218.329 68.9193C217.967 68.0214 217.458 67.2345 216.8 66.5583C216.142 65.8822 215.379 65.3612 214.513 64.9954C213.647 64.6296 212.698 64.4467 211.667 64.4467C210.636 64.4467 209.682 64.6296 208.805 64.9954C207.928 65.3612 207.165 65.8822 206.518 66.5583C205.871 67.2345 205.367 68.0214 205.005 68.9193C204.643 69.8171 204.462 70.8202 204.462 71.9287C204.462 73.0371 204.643 74.0402 205.005 74.9381C205.367 75.8359 205.871 76.6229 206.518 77.299C207.165 77.9752 207.928 78.4961 208.805 78.8619C209.682 79.2277 210.636 79.4106 211.667 79.4106Z" fill="black"/>
<path d="M228.282 83.5672V60.2901H238.25C240.312 60.2901 242.089 60.6282 243.58 61.3043C245.072 61.9805 246.223 62.9504 247.035 64.214C247.846 65.4776 248.252 66.974 248.252 68.7031C248.252 70.4323 247.846 71.9564 247.035 73.2089C246.223 74.4615 245.072 75.4313 243.58 76.1186C242.089 76.8058 240.312 77.1494 238.25 77.1494H231.21L233.644 74.7219V83.5672H228.282ZM233.644 75.3205L231.21 72.76H237.954C239.577 72.76 240.806 72.4053 241.639 71.6959C242.472 70.9865 242.889 69.9889 242.889 68.7031C242.889 67.4174 242.472 66.4253 241.639 65.727C240.806 65.0287 239.577 64.6795 237.954 64.6795H231.21L233.644 62.119V75.3205Z" fill="black"/>
<path d="M252.035 83.5672V60.2901H257.398V83.5672H252.035Z" fill="black"/>
<path d="M268.123 79.2443H280.658V83.5672H262.826V60.2901H280.23V64.613H268.123V79.2443ZM267.728 69.6342H278.815V73.8574H267.728V69.6342Z" fill="black"/>
<path d="M207.215 22.8306H277.247" stroke="black" stroke-miterlimit="10"/>
<path d="M269.258 14.8554L277.209 22.8916L269.258 30.9277" stroke="black" stroke-miterlimit="10"/>
<path d="M274.615 1.2771H207.714C196.055 1.2771 186.603 10.8302 186.603 22.6145C186.603 34.3987 196.055 43.9518 207.714 43.9518H274.615C286.274 43.9518 295.726 34.3987 295.726 22.6145C295.726 10.8302 286.274 1.2771 274.615 1.2771Z" stroke="black" stroke-miterlimit="10"/>
<path d="M58.3002 49.494H22.6589C10.8485 49.494 1.27417 59.1711 1.27417 71.1084C1.27417 83.0458 10.8485 92.7229 22.6589 92.7229H58.3002C70.1107 92.7229 79.685 83.0458 79.685 71.1084C79.685 59.1711 70.1107 49.494 58.3002 49.494Z" stroke="black" stroke-miterlimit="10"/>
</svg>
