<svg width="115" height="205" viewBox="0 0 115 205" fill="none" xmlns="http://www.w3.org/2000/svg">
<path d="M112.519 177.707C98.3268 179.492 86.8688 190.202 83.9591 204.023C75.1603 197.146 67.8344 188.467 62.5356 178.545C57.8829 169.83 48.7276 164.465 38.8485 164.465H29.5763C13.6605 164.465 0.760193 151.561 0.760193 135.642V0.875H82.5112C81.57 8.59326 74.9821 14.5874 67.0186 14.5874C60.9123 14.5874 55.1736 16.9661 50.8633 21.2806C46.5474 25.5952 44.1695 31.3358 44.1695 37.4413V108.432C44.1695 131.64 63.0452 150.522 86.2451 150.522H114.24L112.213 171.738C112.018 173.782 112.132 175.788 112.519 177.707Z" fill="#9ECC7C"/>
<path d="M96.6561 167.83H80.9129V173.047H96.6561V167.83Z" fill="#BAB4C6"/>
<path d="M96.7897 167.83H80.9129L78.5211 163.131H94.3979L96.7897 167.83Z" fill="#F3E8F3"/>
<path d="M78.4153 163.131L76.0234 167.83H80.9129L94.2921 163.131" fill="#D16162"/>
<path d="M96.7897 167.83H80.9129L78.5211 163.131H94.3979L96.7897 167.83Z" fill="#D16162"/>
<path d="M78.4849 163.39L76.1877 167.83V173.05H80.9129V167.83L78.4849 163.39Z" fill="#F3E8F3"/>
<path d="M78.2231 169.49H77.3766V171.73H78.2231V169.49Z" fill="#ADAAAD"/>
<path d="M79.7239 169.49H78.8774V171.73H79.7239V169.49Z" fill="#ADAAAD"/>
<path d="M95.2304 169.49H93.9496V171.73H95.2304V169.49Z" fill="#786380"/>
<path d="M92.9082 169.49H91.6274V171.73H92.9082V169.49Z" fill="#786380"/>
<path d="M90.586 169.49H89.3052V171.73H90.586V169.49Z" fill="#786380"/>
<path d="M88.2638 169.49H86.9829V171.73H88.2638V169.49Z" fill="#786380"/>
<path d="M85.9415 169.49H84.6607V171.73H85.9415V169.49Z" fill="#786380"/>
<path d="M83.6193 169.49H82.3385V171.73H83.6193V169.49Z" fill="#786380"/>
<path d="M27.9725 164.432H44.5259C44.5259 164.432 41.8974 159.438 38.5338 159.438C36.5374 159.438 34.2764 161.908 34.2764 161.908C33.8031 161.382 33.5413 160.7 32.1742 160.7C30.9128 160.7 27.9697 164.432 27.9697 164.432H27.9725Z" fill="url(#paint0_linear_59_1596)"/>
<path d="M18.5834 86.1825C19.6999 86.1825 20.6076 85.2049 20.6076 82.9014V75.0578C20.6076 67.7685 19.1709 67.0443 18.5834 67.0443C17.8733 67.0443 16.5591 67.4704 16.5591 75.0578V82.9014C16.5591 84.9904 17.464 86.1825 18.5834 86.1825Z" fill="#487466"/>
<path d="M18.2548 74.821H18.5834L18.9147 91.004L18.2799 90.8842L18.2548 74.821Z" fill="#2F4233"/>
<path d="M18.5026 79.9322L17.4195 79.1161L17.4167 79.2609L18.4581 80.2831" fill="#2F4233"/>
<path d="M19.4911 81.3249L19.5607 81.5171L18.5806 83.2913L18.5444 82.8624L19.4911 81.3249Z" fill="#2F4233"/>
<path d="M24.4056 90.6865C25.5222 90.6865 26.4299 90.1795 26.4299 88.9902V84.9347C26.4299 81.1661 24.9931 80.79 24.4056 80.79C23.6956 80.79 22.3813 81.0101 22.3813 84.9347V88.9902C22.3813 90.0709 23.2863 90.6865 24.4056 90.6865Z" fill="#487466"/>
<path d="M24.0798 84.8121H24.4084L24.7397 93.1794L24.1021 93.1181L24.0798 84.8121Z" fill="#2F4233"/>
<path d="M24.3249 87.4554L23.2445 87.0349L23.2418 87.1073L24.2831 87.6365" fill="#2F4233"/>
<path d="M25.3162 88.1741L25.383 88.2743L24.4029 89.1935L24.3694 88.9707L25.3162 88.1741Z" fill="#2F4233"/>
<path d="M6.69659 99.0955H27.552C27.552 99.0955 23.8849 87.4025 16.676 87.3802C11.3939 87.3635 6.69659 99.0955 6.69659 99.0955Z" fill="url(#paint1_linear_59_1596)"/>
<path d="M13.8749 130.996H12.6943V143.581H13.8749V130.996Z" fill="#2F4233"/>
<path d="M13.1983 139.884C10.4083 139.884 8.13617 137.612 8.13617 134.821C8.13617 132.03 10.4083 129.757 13.1983 129.757V130.314C10.7146 130.314 8.69306 132.336 8.69306 134.821C8.69306 137.305 10.7146 139.327 13.1983 139.327V139.884Z" fill="#2F4233"/>
<path d="M8.52875 138.119C10.9416 138.119 12.8975 136.162 12.8975 133.748C12.8975 131.335 10.9416 129.378 8.52875 129.378C6.11594 129.378 4.15997 131.335 4.15997 133.748C4.15997 136.162 6.11594 138.119 8.52875 138.119Z" fill="#6BA06B"/>
<path d="M13.0256 135.38L12.9644 134.826C15.242 134.57 16.9572 132.642 16.9572 130.347H17.5141C17.5141 132.927 15.5845 135.091 13.0256 135.378V135.38Z" fill="#2F4233"/>
<path d="M12.853 132.645C16.5437 132.645 19.5356 129.652 19.5356 125.96C19.5356 122.268 16.5437 119.276 12.853 119.276C9.16227 119.276 6.17035 122.268 6.17035 125.96C6.17035 129.652 9.16227 132.645 12.853 132.645Z" fill="#79B77B"/>
<path d="M68.2827 172.256H68.8758V165.933H68.2827V172.256Z" fill="#2F4233"/>
<path d="M68.6224 170.398C70.0258 170.398 71.1646 169.256 71.1646 167.855C71.1646 166.454 70.023 165.312 68.6224 165.312V165.591C69.8699 165.591 70.8862 166.607 70.8862 167.855C70.8862 169.103 69.8699 170.12 68.6224 170.12V170.398Z" fill="#2F4233"/>
<path d="M70.9697 169.512C72.1815 169.512 73.1638 168.53 73.1638 167.318C73.1638 166.105 72.1815 165.123 70.9697 165.123C69.7579 165.123 68.7756 166.105 68.7756 167.318C68.7756 168.53 69.7579 169.512 70.9697 169.512Z" fill="#6BA06B"/>
<path d="M68.7088 168.136L68.7394 167.858C67.595 167.73 66.7318 166.761 66.7318 165.607H66.4534C66.4534 166.903 67.4224 167.989 68.7088 168.134V168.136Z" fill="#2F4233"/>
<path d="M68.7978 166.763C70.6524 166.763 72.1559 165.259 72.1559 163.404C72.1559 161.549 70.6524 160.045 68.7978 160.045C66.9433 160.045 65.4398 161.549 65.4398 163.404C65.4398 165.259 66.9433 166.763 68.7978 166.763Z" fill="#79B77B"/>
<path d="M44.2419 140.38H43.5013V147.416H44.2419V140.38Z" fill="#2F4233"/>
<path d="M43.8465 143.23C42.329 143.23 41.0927 141.993 41.0927 140.475C41.0927 138.957 42.329 137.72 43.8465 137.72C45.364 137.72 46.6003 138.957 46.6003 140.475C46.6003 141.993 45.364 143.23 43.8465 143.23ZM43.8465 138.28C42.6353 138.28 41.6496 139.266 41.6496 140.478C41.6496 141.689 42.6353 142.675 43.8465 142.675C45.0577 142.675 46.0434 141.689 46.0434 140.478C46.0434 139.266 45.0577 138.28 43.8465 138.28Z" fill="#2F4233"/>
<path d="M43.8465 141.545C46.2409 141.545 48.1819 139.603 48.1819 137.208C48.1819 134.813 46.2409 132.871 43.8465 132.871C41.4522 132.871 39.5112 134.813 39.5112 137.208C39.5112 139.603 41.4522 141.545 43.8465 141.545Z" fill="#79B77B"/>
<path d="M104.558 164.738H103.818V171.774H104.558V164.738Z" fill="#2F4233"/>
<path d="M104.163 167.588C102.645 167.588 101.409 166.351 101.409 164.833C101.409 163.315 102.645 162.078 104.163 162.078C105.68 162.078 106.917 163.315 106.917 164.833C106.917 166.351 105.68 167.588 104.163 167.588ZM104.163 162.638C102.952 162.638 101.966 163.624 101.966 164.836C101.966 166.047 102.952 167.033 104.163 167.033C105.374 167.033 106.36 166.047 106.36 164.836C106.36 163.624 105.374 162.638 104.163 162.638Z" fill="#2F4233"/>
<path d="M104.163 165.9C106.557 165.9 108.498 163.958 108.498 161.563C108.498 159.168 106.557 157.226 104.163 157.226C101.769 157.226 99.8276 159.168 99.8276 161.563C99.8276 163.958 101.769 165.9 104.163 165.9Z" fill="#6BA06B"/>
<path d="M37.9658 46.6916C37.8099 45.6777 36.9383 44.9006 35.883 44.9006H16.9322C15.8769 44.9006 15.0026 45.6777 14.8494 46.6916H37.9658Z" fill="#EDE18C"/>
<path d="M37.9909 47.5272H14.8216V49.2931H37.9909V47.5272Z" fill="#EDE18C"/>
<path d="M14.8773 50.1287C15.0944 51.0646 15.9298 51.7609 16.9322 51.7609H35.8802C36.8799 51.7609 37.718 51.0618 37.9352 50.1287H14.8773Z" fill="#EDE18C"/>
<path d="M14.8773 60.0084C15.0944 60.9443 15.9298 61.6406 16.9322 61.6406H35.8802C36.8799 61.6406 37.718 60.9415 37.9352 60.0084H14.8773Z" fill="#EDE18C"/>
<path d="M37.9909 57.4069H14.8216V59.1728H37.9909V57.4069Z" fill="#EDE18C"/>
<path d="M37.9658 56.5713C37.8099 55.5574 36.9383 54.7803 35.883 54.7803H16.9322C15.8769 54.7803 15.0026 55.5574 14.8494 56.5713H37.9658Z" fill="#EDE18C"/>
<path d="M8.87403 44.2989V38.0374V19.2501H7.1087V37.9316V44.1903V62.4623H8.87403V44.2989Z" fill="#EDE18C"/>
<path d="M6.2734 44.1903V19.3058C5.33783 19.5231 4.64172 20.3587 4.64172 21.3614V40.3159C4.64172 40.5025 4.66957 40.6835 4.71412 40.8562C4.66957 41.0289 4.64172 41.21 4.64172 41.3966V60.351C4.64172 61.351 5.34062 62.1894 6.2734 62.4066V44.1931V44.1903Z" fill="#EDE18C"/>
<path d="M11.4998 21.3614C11.4998 20.3058 10.7229 19.4311 9.70941 19.278V62.4345C10.7229 62.2785 11.4998 61.4067 11.4998 60.351V41.3966C11.4998 41.2099 11.472 41.0289 11.4274 40.8562C11.472 40.6835 11.4998 40.5025 11.4998 40.3158V21.3614Z" fill="#EDE18C"/>
<path d="M41.9587 5.3316H46.6477L43.9189 7.16994H39.191L41.9587 5.3316Z" fill="#B53930"/>
<path d="M45.7176 5.3316H50.4094L47.6807 7.16994H42.9527L45.7176 5.3316Z" fill="#B53930"/>
<path d="M49.4516 5.3316H54.1434L51.4146 7.16994H46.6866L49.4516 5.3316Z" fill="#B53930"/>
<path d="M40.185 7.16994V15.5205H43.9356V7.16994H43.9301L42.9137 5.3316L40.185 7.16994Z" fill="#BAB4C6"/>
<path d="M35.4932 7.16994V15.5205H39.2439V7.16994H39.2411L38.222 5.3316L35.4932 7.16994Z" fill="#BAB4C6"/>
<path d="M43.9273 7.16994V15.5205H47.6779V7.16994H47.6724L46.6561 5.3316L43.9273 7.16994Z" fill="#BAB4C6"/>
<path d="M47.6696 7.16994V15.5205H51.4202V7.16994H51.4146L50.3983 5.3316L47.6696 7.16994Z" fill="#BAB4C6"/>
<path d="M51.4119 7.16994V15.5205H55.1625V7.16994H55.1569L54.1406 5.3316L51.4119 7.16994Z" fill="#BAB4C6"/>
<path d="M40.185 7.16995H35.457V15.5233H40.185V7.16995Z" fill="#F3E8F3"/>
<path d="M37.4925 11.9636H36.646V14.203H37.4925V11.9636Z" fill="#ADAAAD"/>
<path d="M38.9961 11.9636H38.1496V14.203H38.9961V11.9636Z" fill="#ADAAAD"/>
<path d="M37.4925 8.87457H36.646V11.114H37.4925V8.87457Z" fill="#ADAAAD"/>
<path d="M38.9961 8.87457H38.1496V11.114H38.9961V8.87457Z" fill="#ADAAAD"/>
<path d="M54.5026 11.9636H53.2217V14.203H54.5026V11.9636Z" fill="#786380"/>
<path d="M52.1803 11.9636H50.8995V14.203H52.1803V11.9636Z" fill="#786380"/>
<path d="M49.8581 11.9636H48.5773V14.203H49.8581V11.9636Z" fill="#786380"/>
<path d="M47.5331 11.9636H46.2523V14.203H47.5331V11.9636Z" fill="#786380"/>
<path d="M45.2109 11.9636H43.9301V14.203H45.2109V11.9636Z" fill="#786380"/>
<path d="M42.8887 11.9636H41.6078V14.203H42.8887V11.9636Z" fill="#786380"/>
<path d="M54.5026 8.69354H53.2217V10.933H54.5026V8.69354Z" fill="#786380"/>
<path d="M52.1803 8.69354H50.8995V10.933H52.1803V8.69354Z" fill="#786380"/>
<path d="M49.8581 8.69354H48.5773V10.933H49.8581V8.69354Z" fill="#786380"/>
<path d="M47.5331 8.69354H46.2523V10.933H47.5331V8.69354Z" fill="#786380"/>
<path d="M45.2109 8.69354H43.9301V10.933H45.2109V8.69354Z" fill="#786380"/>
<path d="M42.8887 8.69354H41.6078V10.933H42.8887V8.69354Z" fill="#786380"/>
<path d="M38.222 5.3316H42.9137L40.185 7.16994H35.457L38.222 5.3316Z" fill="#B53930"/>
<path d="M16.9879 5.3316H21.6797L18.9509 7.16994H14.223L16.9879 5.3316Z" fill="#B53930"/>
<path d="M20.7496 5.3316H25.4386L22.7099 7.16994H17.9847L20.7496 5.3316Z" fill="#B53930"/>
<path d="M24.4836 5.3316H29.1726L26.4438 7.16994H21.7186L24.4836 5.3316Z" fill="#B53930"/>
<path d="M15.217 7.16994V15.5205H18.9676V7.16994H18.962L17.9457 5.3316L15.217 7.16994Z" fill="#BAB4C6"/>
<path d="M10.5252 7.16994V15.5205H14.2758V7.16994H14.2703L13.254 5.3316L10.5252 7.16994Z" fill="#BAB4C6"/>
<path d="M18.9593 7.16994V15.5205H22.7099V7.16994H22.7044L21.688 5.3316L18.9593 7.16994Z" fill="#BAB4C6"/>
<path d="M22.6987 7.16994V15.5205H26.4494V7.16994H26.4466L25.4303 5.3316L22.6987 7.16994Z" fill="#BAB4C6"/>
<path d="M26.441 7.16994V15.5205H30.1917V7.16994H30.1889L29.1698 5.3316L26.441 7.16994Z" fill="#BAB4C6"/>
<path d="M15.217 7.16995H10.489V15.5233H15.217V7.16995Z" fill="#F3E8F3"/>
<path d="M12.5244 11.9636H11.678V14.203H12.5244V11.9636Z" fill="#ADAAAD"/>
<path d="M14.0252 11.9636H13.1788V14.203H14.0252V11.9636Z" fill="#ADAAAD"/>
<path d="M12.5244 8.87457H11.678V11.114H12.5244V8.87457Z" fill="#ADAAAD"/>
<path d="M14.0252 8.87457H13.1788V11.114H14.0252V8.87457Z" fill="#ADAAAD"/>
<path d="M29.5346 11.9636H28.2537V14.203H29.5346V11.9636Z" fill="#786380"/>
<path d="M27.2096 11.9636H25.9287V14.203H27.2096V11.9636Z" fill="#786380"/>
<path d="M24.8873 11.9636H23.6065V14.203H24.8873V11.9636Z" fill="#786380"/>
<path d="M22.5651 11.9636H21.2842V14.203H22.5651V11.9636Z" fill="#786380"/>
<path d="M20.2429 11.9636H18.962V14.203H20.2429V11.9636Z" fill="#786380"/>
<path d="M17.9207 11.9636H16.6398V14.203H17.9207V11.9636Z" fill="#786380"/>
<path d="M29.5346 8.69354H28.2537V10.933H29.5346V8.69354Z" fill="#786380"/>
<path d="M27.2096 8.69354H25.9287V10.933H27.2096V8.69354Z" fill="#786380"/>
<path d="M24.8873 8.69354H23.6065V10.933H24.8873V8.69354Z" fill="#786380"/>
<path d="M22.5651 8.69354H21.2842V10.933H22.5651V8.69354Z" fill="#786380"/>
<path d="M20.2429 8.69354H18.962V10.933H20.2429V8.69354Z" fill="#786380"/>
<path d="M17.9207 8.69354H16.6398V10.933H17.9207V8.69354Z" fill="#786380"/>
<path d="M13.254 5.3316H17.9457L15.217 7.16994H10.489L13.254 5.3316Z" fill="#B53930"/>
<path d="M22.9104 20.0885H27.5994L24.8706 21.9268H20.1426L22.9104 20.0885Z" fill="#B53930"/>
<path d="M26.6693 20.0885H31.3611L28.6323 21.9268H23.9044L26.6693 20.0885Z" fill="#B53930"/>
<path d="M30.4032 20.0885H35.095L32.3663 21.9268H27.6383L30.4032 20.0885Z" fill="#B53930"/>
<path d="M21.1367 21.9268V30.2774H24.8873V21.9268H24.8817L23.8654 20.0885L21.1367 21.9268Z" fill="#BAB4C6"/>
<path d="M16.4449 21.9268V30.2774H20.1955V21.9268H20.1927L19.1764 20.0885L16.4449 21.9268Z" fill="#BAB4C6"/>
<path d="M24.879 21.9268V30.2774H28.6296V21.9268H28.624L27.6077 20.0885L24.879 21.9268Z" fill="#BAB4C6"/>
<path d="M28.6212 21.9268V30.2774H32.3718V21.9268H32.3663L31.35 20.0885L28.6212 21.9268Z" fill="#BAB4C6"/>
<path d="M32.3635 21.9268V30.2774H36.1142V21.9268H36.1086L35.0923 20.0885L32.3635 21.9268Z" fill="#BAB4C6"/>
<path d="M21.1367 21.9268H16.4087V30.2801H21.1367V21.9268Z" fill="#F3E8F3"/>
<path d="M18.4441 26.7204H17.5977V28.9599H18.4441V26.7204Z" fill="#ADAAAD"/>
<path d="M19.9477 26.7204H19.1013V28.9599H19.9477V26.7204Z" fill="#ADAAAD"/>
<path d="M18.4441 23.6315H17.5977V25.8709H18.4441V23.6315Z" fill="#ADAAAD"/>
<path d="M19.9477 23.6315H19.1013V25.8709H19.9477V23.6315Z" fill="#ADAAAD"/>
<path d="M35.4542 26.7204H34.1734V28.9599H35.4542V26.7204Z" fill="#786380"/>
<path d="M33.132 26.7204H31.8511V28.9599H33.132V26.7204Z" fill="#786380"/>
<path d="M30.8098 26.7204H29.5289V28.9599H30.8098V26.7204Z" fill="#786380"/>
<path d="M28.4848 26.7204H27.2039V28.9599H28.4848V26.7204Z" fill="#786380"/>
<path d="M26.1626 26.7204H24.8817V28.9599H26.1626V26.7204Z" fill="#786380"/>
<path d="M23.8403 26.7204H22.5595V28.9599H23.8403V26.7204Z" fill="#786380"/>
<path d="M35.4542 23.4504H34.1734V25.6899H35.4542V23.4504Z" fill="#786380"/>
<path d="M33.132 23.4504H31.8511V25.6899H33.132V23.4504Z" fill="#786380"/>
<path d="M30.8098 23.4504H29.5289V25.6899H30.8098V23.4504Z" fill="#786380"/>
<path d="M28.4848 23.4504H27.2039V25.6899H28.4848V23.4504Z" fill="#786380"/>
<path d="M26.1626 23.4504H24.8817V25.6899H26.1626V23.4504Z" fill="#786380"/>
<path d="M23.8403 23.4504H22.5595V25.6899H23.8403V23.4504Z" fill="#786380"/>
<path d="M19.1764 20.0885H23.8654L21.1367 21.9268H16.4087L19.1764 20.0885Z" fill="#B53930"/>
<path d="M25.9371 108.084H30.626L27.8973 109.493H23.1721L25.9371 108.084Z" fill="#B53930"/>
<path d="M29.696 108.084H34.3878L31.6591 109.493H26.9311L29.696 108.084Z" fill="#B53930"/>
<path d="M33.43 108.084H38.1218L35.393 109.493H30.665L33.43 108.084Z" fill="#B53930"/>
<path d="M24.1633 109.493V115.905H27.914V109.493H27.9084L26.8921 108.084L24.1633 109.493Z" fill="#BAB4C6"/>
<path d="M19.4744 109.493V115.905H23.225V109.493H23.2194L22.2031 108.084L19.4744 109.493Z" fill="#BAB4C6"/>
<path d="M27.9056 109.493V115.905H31.6563V109.493H31.6507L30.6344 108.084L27.9056 109.493Z" fill="#BAB4C6"/>
<path d="M31.6479 109.493V115.905H35.3985V109.493H35.393L34.3766 108.084L31.6479 109.493Z" fill="#BAB4C6"/>
<path d="M35.3902 109.493V115.905H39.1408V109.493H39.1353L38.1189 108.084L35.3902 109.493Z" fill="#BAB4C6"/>
<path d="M24.1661 109.493H19.4382V115.905H24.1661V109.493Z" fill="#F3E8F3"/>
<path d="M21.4708 112.348H20.6243V114.588H21.4708V112.348Z" fill="#ADAAAD"/>
<path d="M22.9744 112.348H22.1279V114.588H22.9744V112.348Z" fill="#ADAAAD"/>
<path d="M38.4809 112.348H37.2001V114.588H38.4809V112.348Z" fill="#786380"/>
<path d="M36.1586 112.348H34.8778V114.588H36.1586V112.348Z" fill="#786380"/>
<path d="M33.8364 112.348H32.5556V114.588H33.8364V112.348Z" fill="#786380"/>
<path d="M31.5142 112.348H30.2334V114.588H31.5142V112.348Z" fill="#786380"/>
<path d="M29.1892 112.348H27.9084V114.588H29.1892V112.348Z" fill="#786380"/>
<path d="M26.867 112.348H25.5862V114.588H26.867V112.348Z" fill="#786380"/>
<path d="M22.2031 108.084H26.8921L24.1634 109.493H19.4382L22.2031 108.084Z" fill="#B53930"/>
<path d="M8.76544 147.892L22.9744 147.736C22.9744 147.736 20.4768 139.729 15.565 139.715C11.9675 139.703 8.76544 147.895 8.76544 147.895V147.892Z" fill="url(#paint2_linear_59_1596)"/>
<path d="M17.8538 149.346L27.6411 149.268C27.6411 149.268 25.9203 145.221 22.5372 145.213C20.0591 145.207 17.8538 149.349 17.8538 149.349V149.346Z" fill="url(#paint3_linear_59_1596)"/>
<path d="M28.0142 154.683L48.8696 154.455C48.8696 154.455 45.2025 142.762 37.9936 142.739C32.7116 142.723 28.0142 154.686 28.0142 154.686V154.683Z" fill="url(#paint4_linear_59_1596)"/>
<path d="M32.2688 86.6727C31.4446 86.2995 29.2756 86.0739 30.0246 86.5975C30.7736 87.1212 32.4192 87.2716 32.4192 87.2716L32.2688 86.6727Z" fill="#9CD179"/>
<path d="M34.1623 88.2938C33.3381 87.9206 31.169 87.695 31.918 88.2186C32.667 88.7423 34.3126 88.8927 34.3126 88.8927L34.1623 88.2938Z" fill="#9CD179"/>
<path d="M34.1623 85.9541C33.3381 85.5809 31.169 85.3553 31.918 85.8789C32.667 86.4026 34.3126 86.553 34.3126 86.553L34.1623 85.9541Z" fill="#9CD179"/>
<path d="M35.3818 87.4165C34.5576 87.0432 32.3886 86.8176 33.1376 87.3412C33.8866 87.8649 35.5322 88.0153 35.5322 88.0153L35.3818 87.4165Z" fill="#9CD179"/>
<path d="M37.3309 86.6867C36.5067 86.3135 34.3376 86.0878 35.0867 86.6115C35.8357 87.1351 37.4813 87.2855 37.4813 87.2855L37.3309 86.6867Z" fill="#9CD179"/>
<path d="M38.5478 88.149C37.7236 87.7758 35.5545 87.5501 36.3035 88.0738C37.0525 88.5974 38.6981 88.7478 38.6981 88.7478L38.5478 88.149Z" fill="#9CD179"/>
<defs>
<linearGradient id="paint0_linear_59_1596" x1="36.2506" y1="164.432" x2="36.2506" y2="159.438" gradientUnits="userSpaceOnUse">
<stop stop-color="#9ECC7C"/>
<stop offset="1" stop-color="#7EA97C"/>
</linearGradient>
<linearGradient id="paint1_linear_59_1596" x1="17.1243" y1="99.0955" x2="17.1243" y2="87.3802" gradientUnits="userSpaceOnUse">
<stop stop-color="#9ECC7C"/>
<stop offset="1" stop-color="#7EA97C"/>
</linearGradient>
<linearGradient id="paint2_linear_59_1596" x1="15.8713" y1="147.892" x2="15.8713" y2="139.715" gradientUnits="userSpaceOnUse">
<stop stop-color="#9ECC7C"/>
<stop offset="1" stop-color="#7EA97C"/>
</linearGradient>
<linearGradient id="paint3_linear_59_1596" x1="22.7489" y1="149.346" x2="22.7489" y2="145.213" gradientUnits="userSpaceOnUse">
<stop stop-color="#9ECC7C"/>
<stop offset="1" stop-color="#7EA97C"/>
</linearGradient>
<linearGradient id="paint4_linear_59_1596" x1="38.4419" y1="154.683" x2="38.4419" y2="142.739" gradientUnits="userSpaceOnUse">
<stop stop-color="#9ECC7C"/>
<stop offset="1" stop-color="#7EA97C"/>
</linearGradient>
</defs>
</svg>
