<svg width="150" height="59" viewBox="0 0 150 59" fill="none" xmlns="http://www.w3.org/2000/svg">
<path d="M149.231 0.00430298V50.5421L93.8379 45.2443L89.5861 44.8376L84.6382 44.3641C83.8251 44.2861 83.0148 44.261 82.2185 44.2889C82.2129 44.2861 82.2074 44.2861 82.2018 44.2889C81.9874 44.2945 81.773 44.3056 81.5614 44.3195C81.489 44.3223 81.4194 44.3279 81.347 44.3363C81.2328 44.3418 81.1187 44.353 81.0073 44.3641C80.9293 44.3697 80.8569 44.378 80.7817 44.3892C80.7734 44.3864 80.765 44.3892 80.7567 44.392C80.6676 44.3975 80.5785 44.4087 80.4894 44.4226C80.3975 44.431 80.3056 44.4421 80.2165 44.456C80.1497 44.4644 80.0856 44.4727 80.0216 44.4839C79.9074 44.5006 79.7961 44.5173 79.6847 44.5368C79.5399 44.5591 79.3923 44.5869 79.2475 44.6148C79.1027 44.6399 78.9579 44.6705 78.8131 44.7011C78.6851 44.729 78.5542 44.7569 78.4261 44.7903C78.3537 44.807 78.2813 44.8237 78.2089 44.8432C78.0836 44.8711 77.9583 44.9045 77.833 44.9407C77.6799 44.9797 77.524 45.0243 77.3708 45.0716C77.1731 45.1273 76.9782 45.1886 76.7861 45.2554C76.7165 45.2777 76.6469 45.3 76.5772 45.3251C76.5076 45.3473 76.4408 45.3724 76.374 45.3975C76.3072 45.4198 76.2403 45.4448 76.1735 45.4699C75.9869 45.5368 75.8004 45.6092 75.6166 45.6872C75.5498 45.7122 75.4802 45.7401 75.4133 45.7707C75.1962 45.8598 74.9818 45.9546 74.7674 46.0548C74.656 46.105 74.5474 46.1579 74.436 46.2108C74.3274 46.2637 74.2188 46.3167 74.113 46.3724C73.9627 46.4476 73.8123 46.5283 73.6647 46.6091C73.5895 46.6481 73.5171 46.6871 73.4447 46.7289C73.3724 46.7707 73.2972 46.8125 73.2248 46.8542C73.0856 46.935 72.9463 47.0158 72.8071 47.1021C72.6707 47.1857 72.5314 47.272 72.395 47.3584C71.9244 47.662 71.4678 47.9851 71.0251 48.3305C70.8664 48.4502 70.7104 48.5756 70.5573 48.7037C70.4014 48.829 70.251 48.96 70.1006 49.0937C69.8807 49.2831 69.6663 49.4808 69.4547 49.6842C69.3823 49.751 69.3127 49.8179 69.243 49.8903C69.1818 49.9488 69.1205 50.0101 69.0593 50.0741C68.998 50.1354 68.9368 50.1967 68.8783 50.2607C68.7335 50.4112 68.5915 50.5616 68.4523 50.7176C68.313 50.8708 68.1766 51.0267 68.0457 51.1855C67.9817 51.2579 67.9204 51.3331 67.862 51.4055C67.7784 51.5086 67.6949 51.6116 67.6142 51.7147C67.4805 51.8818 67.3524 52.0517 67.2299 52.2244C67.1993 52.2634 67.1714 52.3024 67.1436 52.3414C67.0907 52.4138 67.0378 52.4863 66.9876 52.5615C66.893 52.6924 66.8039 52.8261 66.7148 52.9598C66.5616 53.1909 66.4113 53.4249 66.2693 53.6617C66.2108 53.7564 66.1551 53.8539 66.0994 53.9486C65.9045 54.2856 65.7179 54.6282 65.5453 54.9764C65.4924 55.0766 65.4451 55.1769 65.3977 55.2772C65.3448 55.383 65.2947 55.4917 65.2474 55.6003C65.2168 55.6588 65.1917 55.7173 65.1666 55.7785C65.1388 55.837 65.1109 55.8983 65.0887 55.9596C65.0803 55.9735 65.072 55.9875 65.0692 56.0014C65.033 56.0794 64.9996 56.1574 64.9689 56.2381C64.9244 56.3412 64.8826 56.447 64.8409 56.5501C64.8102 56.6253 64.7824 56.7033 64.7545 56.7785C64.6794 56.9735 64.6097 57.1713 64.5429 57.369C64.4844 57.5361 64.4288 57.7032 64.3786 57.8732C64.3341 58.0069 64.2951 58.1433 64.2561 58.2798H35.2451C16.0353 58.2798 0.409058 42.6483 0.409058 23.4321V13.4827H68.455C75.8421 13.4827 81.8537 7.47189 81.8537 0.0823015V0.00430298H149.231Z" fill="#C7E0AA"/>
<path d="M142.978 6.62793H134.416V11.8449H142.978V6.62793Z" fill="#BAB4C6"/>
<path d="M143.111 6.62793H134.415L132.021 1.92902H140.719L143.111 6.62793Z" fill="#F3E8F3"/>
<path d="M131.915 1.92902L129.523 6.62793H134.416L140.614 1.92902" fill="#D16162"/>
<path d="M143.111 6.62793H134.415L132.021 1.92902H140.719L143.111 6.62793Z" fill="#D16162"/>
<path d="M131.985 2.18527L129.688 6.62794V11.8449H134.416V6.62794L131.985 2.18527Z" fill="#F3E8F3"/>
<path d="M131.723 8.28799H130.877V10.5274H131.723V8.28799Z" fill="#ADAAAD"/>
<path d="M133.224 8.28799H132.377V10.5274H133.224V8.28799Z" fill="#ADAAAD"/>
<path d="M141.764 8.28799H140.483V10.5274H141.764V8.28799Z" fill="#786380"/>
<path d="M139.441 8.28799H138.161V10.5274H139.441V8.28799Z" fill="#786380"/>
<path d="M137.119 8.28799H135.838V10.5274H137.119V8.28799Z" fill="#786380"/>
<path d="M20.5906 22.7413H12.0285V27.9583H20.5906V22.7413Z" fill="#BAB4C6"/>
<path d="M20.7271 22.7413H12.0285L9.63666 18.0424H18.3352L20.7271 22.7413Z" fill="#F3E8F3"/>
<path d="M9.53087 18.0424L7.13904 22.7413H12.0285L18.2294 18.0424" fill="#D16162"/>
<path d="M20.7271 22.7413H12.0285L9.63666 18.0424H18.3352L20.7271 22.7413Z" fill="#D16162"/>
<path d="M9.6005 18.2986L7.30334 22.7413V27.9583H12.0285V22.7413L9.6005 18.2986Z" fill="#F3E8F3"/>
<path d="M9.33871 24.4014H8.49225V26.6408H9.33871V24.4014Z" fill="#ADAAAD"/>
<path d="M10.8395 24.4014H9.99304V26.6408H10.8395V24.4014Z" fill="#ADAAAD"/>
<path d="M19.3794 24.4014H18.0986V26.6408H19.3794V24.4014Z" fill="#786380"/>
<path d="M17.0572 24.4014H15.7764V26.6408H17.0572V24.4014Z" fill="#786380"/>
<path d="M14.7322 24.4014H13.4514V26.6408H14.7322V24.4014Z" fill="#786380"/>
<path d="M145.305 29.2033H136.743V34.4203H145.305V29.2033Z" fill="#BAB4C6"/>
<path d="M145.442 29.2033H136.743L134.351 24.5044H143.05L145.442 29.2033Z" fill="#F3E8F3"/>
<path d="M134.246 24.5044L131.854 29.2033H136.743L142.944 24.5044" fill="#D16162"/>
<path d="M145.442 29.2033H136.743L134.351 24.5044H143.05L145.442 29.2033Z" fill="#D16162"/>
<path d="M134.315 24.7607L132.018 29.2034V34.4203H136.743V29.2034L134.315 24.7607Z" fill="#F3E8F3"/>
<path d="M134.053 30.8634H133.207V33.1029H134.053V30.8634Z" fill="#ADAAAD"/>
<path d="M135.554 30.8634H134.708V33.1029H135.554V30.8634Z" fill="#ADAAAD"/>
<path d="M144.094 30.8634H142.813V33.1029H144.094V30.8634Z" fill="#786380"/>
<path d="M141.772 30.8634H140.491V33.1029H141.772V30.8634Z" fill="#786380"/>
<path d="M139.45 30.8634H138.169V33.1029H139.45V30.8634Z" fill="#786380"/>
<path d="M112.329 8.57489H87.4532C87.6704 9.51077 88.5057 10.2071 89.5081 10.2071H124.586C125.586 10.2071 126.424 9.50799 126.641 8.57489H112.332H112.329Z" fill="#7EA97C"/>
<path d="M112.435 5.97333H102.28H87.3975V7.73926H102.172H112.329H126.694V5.97333H112.435Z" fill="#7EA97C"/>
<path d="M102.28 5.13773H126.669C126.513 4.12386 125.642 3.34674 124.586 3.34674H89.5081C88.4528 3.34674 87.5785 4.12386 87.4254 5.13773H102.28Z" fill="#7EA97C"/>
<path d="M99.9776 16.8725H76.8083V18.6385H99.9776V16.8725Z" fill="#7EA97C"/>
<path d="M99.9498 16.0369C99.7938 15.023 98.9223 14.2459 97.867 14.2459H78.9189C77.8636 14.2459 76.9893 15.023 76.8362 16.0369H99.9526H99.9498Z" fill="#7EA97C"/>
<path d="M76.864 19.4741C77.0812 20.4099 77.9165 21.1063 78.9189 21.1063H97.867C98.8666 21.1063 99.7047 20.4099 99.9219 19.4741H76.864Z" fill="#7EA97C"/>
<path d="M120.652 15.9227H145.041C144.885 14.9088 144.013 14.1317 142.958 14.1317H105.385C104.33 14.1317 103.455 14.9088 103.302 15.9227H120.655H120.652Z" fill="#7EA97C"/>
<path d="M128.312 16.7583H120.652H103.272V18.5242H120.543H128.203H145.066V16.7583H128.312Z" fill="#7EA97C"/>
<path d="M128.203 19.3598H103.327C103.544 20.2957 104.38 20.9921 105.382 20.9921H142.955C143.955 20.9921 144.793 20.2929 145.01 19.3598H128.203Z" fill="#7EA97C"/>
<path d="M102.317 26.8748H126.705C126.549 25.8609 125.678 25.0838 124.623 25.0838H89.0905C88.0352 25.0838 87.1609 25.8609 87.0078 26.8748H102.319H102.317Z" fill="#7EA97C"/>
<path d="M112.018 27.7104H102.317H86.9771V29.4763H102.208H111.909H126.73V27.7104H112.018Z" fill="#7EA97C"/>
<path d="M111.909 30.3119H87.0328C87.25 31.2478 88.0853 31.9442 89.0877 31.9442H124.62C125.619 31.9442 126.458 31.245 126.675 30.3119H111.912H111.909Z" fill="#7EA97C"/>
<path d="M121.657 43.6511L103.611 41.8879L95.7452 41.1192C95.8705 42.0718 96.6335 42.8461 97.6303 42.9436L116.489 44.7875L125.759 45.6927L143.805 47.4559C144.801 47.5534 145.701 46.9406 146.007 46.0298L121.657 43.6511Z" fill="#7EA97C"/>
<path d="M122.016 41.0718L103.97 39.3087L95.9402 38.526L95.7703 40.2836L120.582 42.7068L129.852 43.6149L146.144 45.2053L146.316 43.4477L122.016 41.0718Z" fill="#7EA97C"/>
<path d="M120.944 40.1276L130.214 41.0328L146.372 42.6121C146.316 41.5899 145.523 40.7292 144.473 40.629L126.427 38.8658L107.568 37.0219L98.2986 36.1167C97.246 36.0136 96.3049 36.7016 96.0515 37.696L120.947 40.1276H120.944Z" fill="#7EA97C"/>
<path d="M56.2954 20.4322C53.2131 18.4629 49.4235 16.9338 46.5666 16.9338H27.8859C25.8337 16.9338 24.1436 18.4574 23.8679 20.4322H56.2982H56.2954Z" fill="#7EA97C"/>
<path d="M65.4896 29.2702L62.1093 25.6882H23.8234V29.0056C23.8234 29.0947 23.815 29.1838 23.8094 29.2702H65.4896Z" fill="#7EA97C"/>
<path d="M61.3213 24.8526L59.258 22.6661C58.7374 22.1954 58.1526 21.7246 57.5233 21.2678H23.8206V24.8498H61.3185L61.3213 24.8526Z" fill="#7EA97C"/>
<path d="M69.658 33.6906L66.2776 30.1086H23.6675C23.1857 31.816 21.6209 33.0694 19.7609 33.0694H12.0035C11.4382 33.0694 10.8786 33.3118 10.433 33.6906H69.658Z" fill="#7EA97C"/>
<path d="M17.9649 47.7817C19.7581 49.1299 21.7796 50.3331 24.0043 51.3637H60.6336C60.667 51.1381 60.6893 50.9069 60.6893 50.6702V47.779H17.9649V47.7817Z" fill="#7EA97C"/>
<path d="M10.6502 38.9438C11.2071 40.1916 11.9032 41.3893 12.7302 42.5257H62.1511C63.0282 41.6651 64.2283 41.1331 65.5564 41.1331H73.403C74.5641 41.1331 75.1878 39.8434 74.5836 38.941H10.6502V38.9438Z" fill="#7EA97C"/>
<path d="M25.9535 52.2021C30.6759 54.0906 36.1668 55.2661 42.1478 55.5418H55.8221C57.9745 55.5418 59.7983 54.1408 60.4415 52.2021H25.9535Z" fill="#7EA97C"/>
<path d="M60.6893 46.9461V46.0047C60.6893 45.0298 60.9788 44.1246 61.4717 43.3642H13.3678C14.3869 44.6399 15.5703 45.8404 16.9068 46.9461H60.692H60.6893Z" fill="#7EA97C"/>
<path d="M73.8262 38.1082L70.4459 34.5234H9.77033C9.50859 35.0387 9.43342 35.6264 9.66731 36.1835C9.84273 36.838 10.0543 37.4787 10.2994 38.1082H73.829H73.8262Z" fill="#7EA97C"/>
</svg>
