<svg width="79" height="86" viewBox="0 0 79 86" fill="none" xmlns="http://www.w3.org/2000/svg">
<path d="M78.5124 75.0043V75.0823C78.5124 80.628 74.0016 85.1403 68.455 85.1403H54.1264C54.0373 85.1347 53.9509 85.1292 53.8646 85.1292C53.7672 85.1292 53.6697 85.1319 53.5695 85.1403H0.409058V27.4413C0.409058 23.2716 2.03238 19.3499 4.98388 16.4029C7.92981 13.4532 11.8475 11.8293 16.0186 11.8293C24.2132 11.8293 31.4165 7.48974 35.4484 0.985901V31.8255C35.4484 39.2151 41.46 45.2287 48.8443 45.2287H50.8463V47.6325C50.8463 62.7264 63.1201 75.0043 78.2089 75.0043H78.5124Z" fill="#ADEA86"/>
<path d="M45.3387 75.7146H29.5955V80.9316H45.3387V75.7146Z" fill="#BAB4C6"/>
<path d="M45.4723 75.7146H29.5955L27.2037 71.0157H43.0805L45.4723 75.7146Z" fill="#F3E8F3"/>
<path d="M27.0979 71.0157L24.7032 75.7146H29.5955L42.9719 71.0157H27.0979Z" fill="#D16162"/>
<path d="M45.4723 75.7146H29.5955L27.2037 71.0157H43.0805L45.4723 75.7146Z" fill="#D16162"/>
<path d="M27.1647 71.2719L24.8676 75.7146V80.9316H29.5955V75.7146L27.1647 71.2719Z" fill="#F3E8F3"/>
<path d="M26.9029 77.3747H26.0565V79.6141H26.9029V77.3747Z" fill="#ADAAAD"/>
<path d="M28.4065 77.3747H27.5601V79.6141H28.4065V77.3747Z" fill="#ADAAAD"/>
<path d="M43.9131 77.3747H42.6323V79.6141H43.9131V77.3747Z" fill="#786380"/>
<path d="M41.5908 77.3747H40.31V79.6141H41.5908V77.3747Z" fill="#786380"/>
<path d="M39.2686 77.3747H37.9878V79.6141H39.2686V77.3747Z" fill="#786380"/>
<path d="M36.9436 77.3747H35.6628V79.6141H36.9436V77.3747Z" fill="#786380"/>
<path d="M34.6214 77.3747H33.3406V79.6141H34.6214V77.3747Z" fill="#786380"/>
<path d="M32.2992 77.3747H31.0184V79.6141H32.2992V77.3747Z" fill="#786380"/>
<path d="M7.57343 27.5137H28.4288C28.4288 27.5137 24.7617 15.8208 17.5528 15.7985C12.2708 15.7818 7.57343 27.5137 7.57343 27.5137Z" fill="url(#paint0_linear_59_1782)"/>
<path d="M48.5937 64.6093H47.853V71.6452H48.5937V64.6093Z" fill="#2F4233"/>
<path d="M48.1955 67.4588C46.678 67.4588 45.4417 66.2221 45.4417 64.704C45.4417 63.186 46.678 61.9493 48.1955 61.9493C49.713 61.9493 50.9493 63.186 50.9493 64.704C50.9493 66.2221 49.713 67.4588 48.1955 67.4588ZM48.1955 62.5092C46.9843 62.5092 45.9986 63.4952 45.9986 64.7068C45.9986 65.9185 46.9843 66.9045 48.1955 66.9045C49.4067 66.9045 50.3924 65.9185 50.3924 64.7068C50.3924 63.4952 49.4067 62.5092 48.1955 62.5092Z" fill="#2F4233"/>
<path d="M48.1955 65.7736C50.5899 65.7736 52.5309 63.832 52.5309 61.4368C52.5309 59.0416 50.5899 57.1 48.1955 57.1C45.8012 57.1 43.8602 59.0416 43.8602 61.4368C43.8602 63.832 45.8012 65.7736 48.1955 65.7736Z" fill="#79B77B"/>
<path d="M30.3027 41.4295C30.1468 40.4156 29.2753 39.6385 28.22 39.6385H9.27191C8.21661 39.6385 7.34229 40.4156 7.18915 41.4295H30.3055H30.3027Z" fill="#7EA97C"/>
<path d="M30.3278 42.2651H7.15851V44.031H30.3278V42.2651Z" fill="#7EA97C"/>
<path d="M7.21417 44.8694C7.43136 45.8053 8.26669 46.5017 9.26908 46.5017H28.2172C29.2168 46.5017 30.0549 45.8025 30.2721 44.8694H7.21417Z" fill="#7EA97C"/>
<path d="M34.5072 52.298H11.338V54.0639H34.5072V52.298Z" fill="#7EA97C"/>
<path d="M34.4822 51.4624C34.3263 50.4485 33.4547 49.6714 32.3994 49.6714H13.4513C12.396 49.6714 11.5217 50.4485 11.3686 51.4624H34.485H34.4822Z" fill="#7EA97C"/>
<path d="M11.3936 54.9023C11.6108 55.8382 12.4461 56.5345 13.4485 56.5345H32.3966C33.3962 56.5345 34.2343 55.8354 34.4515 54.9023H11.3936Z" fill="#7EA97C"/>
<path d="M9.74246 61.8434C10.7405 61.8434 11.5496 61.0341 11.5496 60.0357C11.5496 59.0374 10.7405 58.228 9.74246 58.228C8.74443 58.228 7.93536 59.0374 7.93536 60.0357C7.93536 61.0341 8.74443 61.8434 9.74246 61.8434Z" fill="#F3E8F3"/>
<path d="M9.7425 61.3254C10.4545 61.3254 11.0317 60.748 11.0317 60.0358C11.0317 59.3235 10.4545 58.7461 9.7425 58.7461C9.0305 58.7461 8.45331 59.3235 8.45331 60.0358C8.45331 60.748 9.0305 61.3254 9.7425 61.3254Z" fill="#82BCBC"/>
<path d="M56.8663 78.1462C56.0421 77.773 53.873 77.5474 54.622 78.071C55.371 78.5947 57.0166 78.7451 57.0166 78.7451L56.8663 78.1462Z" fill="#9CD179"/>
<path d="M58.8154 77.4137C57.9912 77.0404 55.8221 76.8148 56.5711 77.3385C57.3201 77.8621 58.9657 78.0125 58.9657 78.0125L58.8154 77.4137Z" fill="#9CD179"/>
<path d="M60.0321 78.876C59.208 78.5028 57.0389 78.2771 57.7879 78.8008C58.5369 79.3244 60.1825 79.4749 60.1825 79.4749L60.0321 78.876Z" fill="#9CD179"/>
<path d="M56.8663 75.8065C56.0421 75.4333 53.873 75.2077 54.622 75.7313C55.371 76.255 57.0166 76.4054 57.0166 76.4054L56.8663 75.8065Z" fill="#9CD179"/>
<path d="M58.8154 75.0739C57.9912 74.7007 55.8221 74.4751 56.5711 74.9988C57.3201 75.5224 58.9657 75.6728 58.9657 75.6728L58.8154 75.0739Z" fill="#9CD179"/>
<path d="M60.0321 76.5363C59.208 76.163 57.0389 75.9374 57.7879 76.4611C58.5369 76.9847 60.1825 77.1351 60.1825 77.1351L60.0321 76.5363Z" fill="#9CD179"/>
<path d="M18.455 72.4808H9.89282V80.8174H18.455V72.4808Z" fill="#BAB4C6"/>
<path d="M9.89557 72.4808H5.1676V80.8174H9.89557V72.4808Z" fill="#F3E8F3"/>
<path d="M7.20303 77.2605H6.35657V79.4999H7.20303V77.2605Z" fill="#ADAAAD"/>
<path d="M8.70383 77.2605H7.85736V79.4999H8.70383V77.2605Z" fill="#ADAAAD"/>
<path d="M17.2437 77.2605H15.9628V79.4999H17.2437V77.2605Z" fill="#786380"/>
<path d="M14.9215 77.2605H13.6406V79.4999H14.9215V77.2605Z" fill="#786380"/>
<path d="M12.5993 77.2605H11.3184V79.4999H12.5993V77.2605Z" fill="#786380"/>
<path d="M7.20303 73.7008H6.35657V75.9402H7.20303V73.7008Z" fill="#ADAAAD"/>
<path d="M8.70383 73.7008H7.85736V75.9402H8.70383V73.7008Z" fill="#ADAAAD"/>
<path d="M17.2437 73.7008H15.9628V75.9402H17.2437V73.7008Z" fill="#786380"/>
<path d="M14.9215 73.7008H13.6406V75.9402H14.9215V73.7008Z" fill="#786380"/>
<path d="M12.5993 73.7008H11.3184V75.9402H12.5993V73.7008Z" fill="#786380"/>
<path d="M18.7111 72.2802H4.95044V72.6813H18.7111V72.2802Z" fill="#D16162"/>
<path d="M28.6766 61.0273H20.1145V66.6983H28.6766V61.0273Z" fill="#BAB4C6"/>
<path d="M20.1172 61.0273H15.3893V66.6983H20.1172V61.0273Z" fill="#F3E8F3"/>
<path d="M17.4219 63.1386H16.5754V65.3781H17.4219V63.1386Z" fill="#ADAAAD"/>
<path d="M18.9255 63.1386H18.079V65.3781H18.9255V63.1386Z" fill="#ADAAAD"/>
<path d="M27.4654 63.1386H26.1846V65.3781H27.4654V63.1386Z" fill="#786380"/>
<path d="M25.1432 63.1386H23.8624V65.3781H25.1432V63.1386Z" fill="#786380"/>
<path d="M22.8182 63.1386H21.5374V65.3781H22.8182V63.1386Z" fill="#786380"/>
<path d="M28.9328 60.7349H15.1721V61.136H28.9328V60.7349Z" fill="#D16162"/>
<defs>
<linearGradient id="paint0_linear_59_1782" x1="18.0011" y1="27.5137" x2="18.0011" y2="15.7985" gradientUnits="userSpaceOnUse">
<stop stop-color="#ADEA86"/>
<stop offset="1" stop-color="#7EA97C"/>
</linearGradient>
</defs>
</svg>
