<svg width="89" height="83" viewBox="0 0 89 83" fill="none" xmlns="http://www.w3.org/2000/svg">
<path d="M88.2315 15.5611V56.0214H30.9083C23.5212 56.0214 17.5124 62.0322 17.5124 69.4218V82.8863H0.427124V21.8532H39.6876C57.6667 21.8532 73.7441 13.55 84.2859 0.575775C86.7975 5.00173 88.2315 10.1157 88.2315 15.5611Z" fill="#ADEA86"/>
<path d="M15.154 44.9802H9.43201V62.1325H15.154V44.9802Z" fill="#BAB4C6"/>
<path d="M15.2877 44.9802H9.43199L7.04016 40.284H12.8958L15.2877 44.9802Z" fill="#F3E8F3"/>
<path d="M6.93437 40.284L4.54254 44.9802H9.43201L12.79 40.284H6.93437Z" fill="#D16162"/>
<path d="M15.2877 44.9802H9.43199L7.04016 40.284H12.8958L15.2877 44.9802Z" fill="#D16162"/>
<path d="M7.00401 40.5403L4.70685 44.9802V62.1353H9.43203V44.9802L7.00401 40.5403Z" fill="#F3E8F3"/>
<path d="M6.74222 46.643H5.89575V48.8825H6.74222V46.643Z" fill="#ADAAAD"/>
<path d="M8.24302 46.643H7.39655V48.8825H8.24302V46.643Z" fill="#ADAAAD"/>
<path d="M6.74222 49.6596H5.89575V51.899H6.74222V49.6596Z" fill="#ADAAAD"/>
<path d="M8.24302 49.6596H7.39655V51.899H8.24302V49.6596Z" fill="#ADAAAD"/>
<path d="M6.74222 52.6789H5.89575V54.9184H6.74222V52.6789Z" fill="#ADAAAD"/>
<path d="M8.24302 52.6789H7.39655V54.9184H8.24302V52.6789Z" fill="#ADAAAD"/>
<path d="M6.74222 55.6955H5.89575V57.9349H6.74222V55.6955Z" fill="#ADAAAD"/>
<path d="M8.24302 55.6955H7.39655V57.9349H8.24302V55.6955Z" fill="#ADAAAD"/>
<path d="M11.796 46.643H10.5151V48.8825H11.796V46.643Z" fill="#786380"/>
<path d="M14.0709 46.643H12.79V48.8825H14.0709V46.643Z" fill="#786380"/>
<path d="M11.796 49.6596H10.5151V51.899H11.796V49.6596Z" fill="#786380"/>
<path d="M14.0709 49.6596H12.79V51.899H14.0709V49.6596Z" fill="#786380"/>
<path d="M11.796 52.6789H10.5151V54.9184H11.796V52.6789Z" fill="#786380"/>
<path d="M14.0709 52.6789H12.79V54.9184H14.0709V52.6789Z" fill="#786380"/>
<path d="M11.796 55.6955H10.5151V57.9349H11.796V55.6955Z" fill="#786380"/>
<path d="M14.0709 55.6955H12.79V57.9349H14.0709V55.6955Z" fill="#786380"/>
<path d="M63.9874 27.9755H55.4252V33.1925H63.9874V27.9755Z" fill="#BAB4C6"/>
<path d="M64.1238 27.9755H55.4252L53.0334 23.2766H61.732L64.1238 27.9755Z" fill="#F3E8F3"/>
<path d="M52.9276 23.2766L50.5358 27.9755H55.4252L61.6234 23.2766" fill="#D16162"/>
<path d="M64.1238 27.9755H55.4252L53.0334 23.2766H61.732L64.1238 27.9755Z" fill="#D16162"/>
<path d="M52.9944 23.5328L50.6973 27.9755V33.1925H55.4252V27.9755L52.9944 23.5328Z" fill="#F3E8F3"/>
<path d="M52.7327 29.6356H51.8862V31.875H52.7327V29.6356Z" fill="#ADAAAD"/>
<path d="M54.2363 29.6356H53.3898V31.875H54.2363V29.6356Z" fill="#ADAAAD"/>
<path d="M62.7761 29.6356H61.4953V31.875H62.7761V29.6356Z" fill="#786380"/>
<path d="M60.4511 29.6356H59.1703V31.875H60.4511V29.6356Z" fill="#786380"/>
<path d="M58.1289 29.6356H56.8481V31.875H58.1289V29.6356Z" fill="#786380"/>
<path d="M79.0094 48.5315H63.2662V53.7485H79.0094V48.5315Z" fill="#BAB4C6"/>
<path d="M79.1431 48.5315H63.2662L60.8744 43.8326H76.7512L79.1431 48.5315Z" fill="#F3E8F3"/>
<path d="M60.7686 43.8326L58.374 48.5315H63.2662L76.6426 43.8326H60.7686Z" fill="#D16162"/>
<path d="M79.1431 48.5315H63.2662L60.8744 43.8326H76.7512L79.1431 48.5315Z" fill="#D16162"/>
<path d="M60.8354 44.0888L58.5382 48.5315V53.7485H63.2662V48.5315L60.8354 44.0888Z" fill="#F3E8F3"/>
<path d="M60.5736 50.1916H59.7272V52.431H60.5736V50.1916Z" fill="#ADAAAD"/>
<path d="M62.0772 50.1916H61.2308V52.431H62.0772V50.1916Z" fill="#ADAAAD"/>
<path d="M77.5838 50.1916H76.303V52.431H77.5838V50.1916Z" fill="#786380"/>
<path d="M75.2615 50.1916H73.9807V52.431H75.2615V50.1916Z" fill="#786380"/>
<path d="M72.9366 50.1916H71.6557V52.431H72.9366V50.1916Z" fill="#786380"/>
<path d="M70.6143 50.1916H69.3335V52.431H70.6143V50.1916Z" fill="#786380"/>
<path d="M68.2921 50.1916H67.0113V52.431H68.2921V50.1916Z" fill="#786380"/>
<path d="M65.9699 50.1916H64.6891V52.431H65.9699V50.1916Z" fill="#786380"/>
<path d="M2.48761 70.561H16.0255C16.0255 70.561 13.8759 65.6476 11.1249 65.6476C9.49046 65.6476 7.64438 68.0764 7.64438 68.0764C7.25734 67.5583 7.04294 66.8871 5.92639 66.8871C4.89615 66.8871 2.48761 70.5582 2.48761 70.5582V70.561Z" fill="url(#paint0_linear_59_1349)"/>
<path d="M80.332 20.3742H79.5914V27.41H80.332V20.3742Z" fill="#2F4233"/>
<path d="M79.9366 23.2236C78.4191 23.2236 77.1828 21.9869 77.1828 20.4689C77.1828 18.9508 78.4191 17.7141 79.9366 17.7141C81.4541 17.7141 82.6904 18.9508 82.6904 20.4689C82.6904 21.9869 81.4541 23.2236 79.9366 23.2236ZM79.9366 18.274C78.7254 18.274 77.7397 19.26 77.7397 20.4717C77.7397 21.6833 78.7254 22.6693 79.9366 22.6693C81.1478 22.6693 82.1335 21.6833 82.1335 20.4717C82.1335 19.26 81.1478 18.274 79.9366 18.274Z" fill="#2F4233"/>
<path d="M79.9366 21.5357C82.331 21.5357 84.272 19.594 84.272 17.1989C84.272 14.8037 82.331 12.862 79.9366 12.862C77.5423 12.862 75.6013 14.8037 75.6013 17.1989C75.6013 19.594 77.5423 21.5357 79.9366 21.5357Z" fill="#79B77B"/>
<path d="M28.5416 27.9782H18.384H3.50116V29.7442H18.2781H28.433H42.8007V27.9782H28.5416Z" fill="#7EA97C"/>
<path d="M18.3839 27.1426H42.7728C42.6169 26.1288 41.7453 25.3517 40.69 25.3517H5.61175C4.55645 25.3517 3.68214 26.1288 3.52899 27.1426H18.3839Z" fill="#7EA97C"/>
<path d="M28.433 30.5798H3.55682C3.77401 31.5157 4.60934 32.212 5.61174 32.212H40.69C41.6896 32.212 42.5278 31.5157 42.7449 30.5798H28.4357H28.433Z" fill="#7EA97C"/>
<path d="M47.1694 37.3817H24.0001V39.1476H47.1694V37.3817Z" fill="#7EA97C"/>
<path d="M24.0558 39.9832C24.273 40.9191 25.1083 41.6154 26.1107 41.6154H45.0588C46.0584 41.6154 46.8965 40.9191 47.1137 39.9832H24.0558Z" fill="#7EA97C"/>
<path d="M47.1415 36.5461C46.9856 35.5322 46.1141 34.7551 45.0588 34.7551H26.1107C25.0554 34.7551 24.1811 35.5322 24.028 36.5461H47.1443H47.1415Z" fill="#7EA97C"/>
<path d="M54.8962 47.4926H31.7269V49.2585H54.8962V47.4926Z" fill="#7EA97C"/>
<path d="M31.7826 50.0941C31.9998 51.03 32.8351 51.7263 33.8375 51.7263H52.7856C53.7852 51.7263 54.6233 51.0272 54.8405 50.0941H31.7826Z" fill="#7EA97C"/>
<path d="M54.8712 46.657C54.7152 45.6431 53.8437 44.866 52.7884 44.866H33.8403C32.785 44.866 31.9107 45.6431 31.7576 46.657H54.8739H54.8712Z" fill="#7EA97C"/>
<path d="M54.3282 39.635H51.2152C50.9276 39.635 50.6945 39.8682 50.6945 40.1559C50.6945 40.4435 50.9276 40.6767 51.2152 40.6767H54.3282C54.6158 40.6767 54.8489 40.4435 54.8489 40.1559C54.8489 39.8682 54.6158 39.635 54.3282 39.635Z" fill="#5E1B19"/>
<path d="M54.1941 40.4322L54.2631 41.1894L54.5931 41.1593L54.5241 40.4021L54.1941 40.4322Z" fill="#5E1B19"/>
<path d="M53.8004 40.6731L53.8694 41.4304L54.1994 41.4003L54.1304 40.643L53.8004 40.6731Z" fill="#5E1B19"/>
<path d="M51.0402 40.3863L50.9711 41.1435L51.3011 41.1736L51.3701 40.4164L51.0402 40.3863Z" fill="#5E1B19"/>
<path d="M51.4398 40.6271L51.3708 41.3844L51.7008 41.4145L51.7698 40.6572L51.4398 40.6271Z" fill="#5E1B19"/>
<path d="M83.264 7.96256C82.4398 7.58932 80.2708 7.36371 81.0198 7.88736C81.7688 8.41101 83.4144 8.56142 83.4144 8.56142L83.264 7.96256Z" fill="#9CD179"/>
<path d="M84.4808 9.4249C83.6566 9.05167 81.4876 8.82605 82.2366 9.3497C82.9856 9.87335 84.6312 10.0238 84.6312 10.0238L84.4808 9.4249Z" fill="#9CD179"/>
<path d="M11.3059 75.0844C10.4817 74.7112 8.31262 74.4856 9.06164 75.0092C9.81065 75.5329 11.4562 75.6833 11.4562 75.6833L11.3059 75.0844Z" fill="#9CD179"/>
<path d="M12.5255 76.5467C11.7013 76.1735 9.53223 75.9479 10.2812 76.4715C11.0303 76.9952 12.6759 77.1456 12.6759 77.1456L12.5255 76.5467Z" fill="#9CD179"/>
<path d="M14.4746 75.8142C13.6504 75.441 11.4813 75.2153 12.2303 75.739C12.9794 76.2626 14.625 76.4131 14.625 76.4131L14.4746 75.8142Z" fill="#9CD179"/>
<path d="M28.2436 35.6742H22.5216V52.8265H28.2436V35.6742Z" fill="#BAB4C6"/>
<path d="M28.3772 35.6742H22.5216L20.1298 30.9753H25.9854L28.3772 35.6742Z" fill="#F3E8F3"/>
<path d="M20.024 30.9753L17.6321 35.6742H22.5216L25.8796 30.9753H20.024Z" fill="#D16162"/>
<path d="M28.3772 35.6742H22.5216L20.1298 30.9753H25.9854L28.3772 35.6742Z" fill="#D16162"/>
<path d="M20.0936 31.2316L17.7964 35.6742V52.8265H22.5216V35.6742L20.0936 31.2316Z" fill="#F3E8F3"/>
<path d="M19.8318 37.3343H18.9854V39.5737H19.8318V37.3343Z" fill="#ADAAAD"/>
<path d="M21.3326 37.3343H20.4861V39.5737H21.3326V37.3343Z" fill="#ADAAAD"/>
<path d="M19.8318 40.3509H18.9854V42.5903H19.8318V40.3509Z" fill="#ADAAAD"/>
<path d="M21.3326 40.3509H20.4861V42.5903H21.3326V40.3509Z" fill="#ADAAAD"/>
<path d="M19.8318 43.3702H18.9854V45.6096H19.8318V43.3702Z" fill="#ADAAAD"/>
<path d="M21.3326 43.3702H20.4861V45.6096H21.3326V43.3702Z" fill="#ADAAAD"/>
<path d="M19.8318 46.3895H18.9854V48.629H19.8318V46.3895Z" fill="#ADAAAD"/>
<path d="M21.3326 46.3895H20.4861V48.629H21.3326V46.3895Z" fill="#ADAAAD"/>
<path d="M24.8856 37.3343H23.6047V39.5737H24.8856V37.3343Z" fill="#786380"/>
<path d="M27.1605 37.3343H25.8796V39.5737H27.1605V37.3343Z" fill="#786380"/>
<path d="M24.8856 40.3509H23.6047V42.5903H24.8856V40.3509Z" fill="#786380"/>
<path d="M27.1605 40.3509H25.8796V42.5903H27.1605V40.3509Z" fill="#786380"/>
<path d="M24.8856 43.3702H23.6047V45.6096H24.8856V43.3702Z" fill="#786380"/>
<path d="M27.1605 43.3702H25.8796V45.6096H27.1605V43.3702Z" fill="#786380"/>
<path d="M24.8856 46.3895H23.6047V48.629H24.8856V46.3895Z" fill="#786380"/>
<path d="M27.1605 46.3895H25.8796V48.629H27.1605V46.3895Z" fill="#786380"/>
<defs>
<linearGradient id="paint0_linear_59_1349" x1="9.25657" y1="70.561" x2="9.25657" y2="65.6504" gradientUnits="userSpaceOnUse">
<stop stop-color="#ADEA86"/>
<stop offset="1" stop-color="#7EA97C"/>
</linearGradient>
</defs>
</svg>
