<svg width="69" height="47" viewBox="0 0 69 47" fill="none" xmlns="http://www.w3.org/2000/svg">
<path d="M68.2315 0.3638V46.4199H0.85376V10.4218C0.85376 4.8761 5.36455 0.3638 10.9084 0.3638H68.2315Z" fill="#ADEA86"/>
<path d="M32.7383 8.97894H16.9951V14.1959H32.7383V8.97894Z" fill="#BAB4C6"/>
<path d="M32.8719 8.97895H16.9951L14.6005 4.28003H30.4773L32.8719 8.97895Z" fill="#F3E8F3"/>
<path d="M14.4947 4.28003L12.1028 8.97895H16.9951L30.3715 4.28003H14.4947Z" fill="#D16162"/>
<path d="M32.8719 8.97895H16.9951L14.6005 4.28003H30.4773L32.8719 8.97895Z" fill="#D16162"/>
<path d="M14.5643 4.53629L12.2672 8.97895V14.1959H16.9951V8.97895L14.5643 4.53629Z" fill="#F3E8F3"/>
<path d="M14.3026 10.639H13.4561V12.8785H14.3026V10.639Z" fill="#ADAAAD"/>
<path d="M15.8062 10.639H14.9597V12.8785H15.8062V10.639Z" fill="#ADAAAD"/>
<path d="M31.3127 10.639H30.0319V12.8785H31.3127V10.639Z" fill="#786380"/>
<path d="M28.9877 10.639H27.7068V12.8785H28.9877V10.639Z" fill="#786380"/>
<path d="M26.6655 10.639H25.3846V12.8785H26.6655V10.639Z" fill="#786380"/>
<path d="M24.3433 10.639H23.0624V12.8785H24.3433V10.639Z" fill="#786380"/>
<path d="M22.021 10.639H20.7402V12.8785H22.021V10.639Z" fill="#786380"/>
<path d="M19.6988 10.639H18.418V12.8785H19.6988V10.639Z" fill="#786380"/>
<path d="M45.9811 13.5331H44.8005V26.1174H45.9811V13.5331Z" fill="#2F4233"/>
<path d="M45.3017 22.4212C42.5117 22.4212 40.2396 20.1483 40.2396 17.3574C40.2396 14.5664 42.5117 12.2936 45.3017 12.2936V12.8507C42.818 12.8507 40.7964 14.8728 40.7964 17.3574C40.7964 19.8419 42.818 21.8641 45.3017 21.8641V22.4212Z" fill="#2F4233"/>
<path d="M40.6322 20.658C43.045 20.658 45.001 18.7014 45.001 16.2878C45.001 13.8742 43.045 11.9175 40.6322 11.9175C38.2194 11.9175 36.2634 13.8742 36.2634 16.2878C36.2634 18.7014 38.2194 20.658 40.6322 20.658Z" fill="#6BA06B"/>
<path d="M45.1319 17.92L45.0706 17.3657C47.3483 17.1094 49.0635 15.182 49.0635 12.8868H49.6204C49.6204 15.4661 47.6908 17.6303 45.1319 17.9172V17.92Z" fill="#2F4233"/>
<path d="M44.9564 15.1848C48.6472 15.1848 51.6391 12.1919 51.6391 8.49989C51.6391 4.80793 48.6472 1.815 44.9564 1.815C41.2657 1.815 38.2738 4.80793 38.2738 8.49989C38.2738 12.1919 41.2657 15.1848 44.9564 15.1848Z" fill="#79B77B"/>
<path d="M58.7644 12.6417H58.0237V19.6776H58.7644V12.6417Z" fill="#2F4233"/>
<path d="M58.3662 15.4912C56.8487 15.4912 55.6124 14.2545 55.6124 12.7364C55.6124 11.2184 56.8487 9.98169 58.3662 9.98169C59.8838 9.98169 61.12 11.2184 61.12 12.7364C61.12 14.2545 59.8838 15.4912 58.3662 15.4912ZM58.3662 10.5416C57.155 10.5416 56.1693 11.5276 56.1693 12.7392C56.1693 13.9508 57.155 14.9369 58.3662 14.9369C59.5775 14.9369 60.5632 13.9508 60.5632 12.7392C60.5632 11.5276 59.5775 10.5416 58.3662 10.5416Z" fill="#2F4233"/>
<path d="M58.3662 13.806C60.7606 13.806 62.7016 11.8643 62.7016 9.46918C62.7016 7.07402 60.7606 5.13235 58.3662 5.13235C55.9719 5.13235 54.0309 7.07402 54.0309 9.46918C54.0309 11.8643 55.9719 13.806 58.3662 13.806Z" fill="#79B77B"/>
<path d="M40.4567 23.0869H37.3437C37.0562 23.0869 36.8231 23.3201 36.8231 23.6077C36.8231 23.8954 37.0562 24.1286 37.3437 24.1286H40.4567C40.7443 24.1286 40.9774 23.8954 40.9774 23.6077C40.9774 23.3201 40.7443 23.0869 40.4567 23.0869Z" fill="#5E1B19"/>
<path d="M40.3259 23.8843L40.3949 24.6416L40.7249 24.6115L40.6558 23.8542L40.3259 23.8843Z" fill="#5E1B19"/>
<path d="M39.9264 24.1227L39.9954 24.88L40.3254 24.8499L40.2564 24.0926L39.9264 24.1227Z" fill="#5E1B19"/>
<path d="M37.1712 23.8355L37.1022 24.5928L37.4322 24.6229L37.5012 23.8656L37.1712 23.8355Z" fill="#5E1B19"/>
<path d="M37.5653 24.0762L37.4963 24.8334L37.8263 24.8635L37.8953 24.1063L37.5653 24.0762Z" fill="#5E1B19"/>
<path d="M24.7219 20.2597H21.6089C21.3214 20.2597 21.0883 20.4929 21.0883 20.7806C21.0883 21.0682 21.3214 21.3014 21.6089 21.3014H24.7219C25.0095 21.3014 25.2426 21.0682 25.2426 20.7806C25.2426 20.4929 25.0095 20.2597 24.7219 20.2597Z" fill="#5E1B19"/>
<path d="M24.5917 21.0539L24.6608 21.8112L24.9907 21.7811L24.9217 21.0238L24.5917 21.0539Z" fill="#5E1B19"/>
<path d="M24.1926 21.2951L24.2616 22.0524L24.5916 22.0223L24.5225 21.265L24.1926 21.2951Z" fill="#5E1B19"/>
<path d="M21.4365 21.0069L21.3675 21.7642L21.6975 21.7943L21.7665 21.037L21.4365 21.0069Z" fill="#5E1B19"/>
<path d="M21.8337 21.2476L21.7646 22.0049L22.0946 22.035L22.1637 21.2777L21.8337 21.2476Z" fill="#5E1B19"/>
<path d="M42.055 27.2287H38.942C38.6544 27.2287 38.4213 27.4619 38.4213 27.7496C38.4213 28.0372 38.6544 28.2704 38.942 28.2704H42.055C42.3426 28.2704 42.5757 28.0372 42.5757 27.7496C42.5757 27.4619 42.3426 27.2287 42.055 27.2287Z" fill="#5E1B19"/>
<path d="M41.9234 28.0271L41.9924 28.7844L42.3224 28.7543L42.2534 27.997L41.9234 28.0271Z" fill="#5E1B19"/>
<path d="M41.5239 28.2656L41.593 29.0228L41.9229 28.9927L41.8539 28.2355L41.5239 28.2656Z" fill="#5E1B19"/>
<path d="M38.7667 27.9757L38.6976 28.733L39.0276 28.7631L39.0966 28.0058L38.7667 27.9757Z" fill="#5E1B19"/>
<path d="M39.1635 28.2191L39.0945 28.9764L39.4245 29.0065L39.4935 28.2492L39.1635 28.2191Z" fill="#5E1B19"/>
<path d="M31.903 18.5857H28.79C28.5024 18.5857 28.2693 18.8189 28.2693 19.1066C28.2693 19.3942 28.5024 19.6274 28.79 19.6274H31.903C32.1906 19.6274 32.4237 19.3942 32.4237 19.1066C32.4237 18.8189 32.1906 18.5857 31.903 18.5857Z" fill="#5E1B19"/>
<path d="M31.7683 19.3805L31.8373 20.1378L32.1673 20.1077L32.0983 19.3504L31.7683 19.3805Z" fill="#5E1B19"/>
<path d="M31.3719 19.6217L31.4409 20.379L31.7709 20.3489L31.7019 19.5916L31.3719 19.6217Z" fill="#5E1B19"/>
<path d="M28.6164 19.3359L28.5474 20.0932L28.8773 20.1233L28.9464 19.366L28.6164 19.3359Z" fill="#5E1B19"/>
<path d="M29.0107 19.5738L28.9417 20.3311L29.2717 20.3612L29.3407 19.6039L29.0107 19.5738Z" fill="#5E1B19"/>
<path d="M33.5013 22.7275H30.3883C30.1007 22.7275 29.8676 22.9607 29.8676 23.2484C29.8676 23.5361 30.1007 23.7693 30.3883 23.7693H33.5013C33.7888 23.7693 34.0219 23.5361 34.0219 23.2484C34.0219 22.9607 33.7888 22.7275 33.5013 22.7275Z" fill="#5E1B19"/>
<path d="M33.3687 23.5233L33.4377 24.2806L33.7677 24.2505L33.6986 23.4932L33.3687 23.5233Z" fill="#5E1B19"/>
<path d="M32.9722 23.7643L33.0412 24.5215L33.3712 24.4914L33.3022 23.7342L32.9722 23.7643Z" fill="#5E1B19"/>
<path d="M30.2118 23.4789L30.1428 24.2361L30.4728 24.2662L30.5418 23.509L30.2118 23.4789Z" fill="#5E1B19"/>
<path d="M30.6118 23.717L30.5427 24.4743L30.8727 24.5044L30.9417 23.7471L30.6118 23.717Z" fill="#5E1B19"/>
<path d="M31.1595 32.2702C32.1575 32.2702 32.9666 31.4609 32.9666 30.4625C32.9666 29.4642 32.1575 28.6548 31.1595 28.6548C30.1615 28.6548 29.3524 29.4642 29.3524 30.4625C29.3524 31.4609 30.1615 32.2702 31.1595 32.2702Z" fill="#F3E8F3"/>
<path d="M31.1596 31.7521C31.8716 31.7521 32.4487 31.1748 32.4487 30.4625C32.4487 29.7503 31.8716 29.1729 31.1596 29.1729C30.4476 29.1729 29.8704 29.7503 29.8704 30.4625C29.8704 31.1748 30.4476 31.7521 31.1596 31.7521Z" fill="#82BCBC"/>
<path d="M57.4808 27.6688C56.6566 27.2956 54.4876 27.07 55.2366 27.5936C55.9856 28.1173 57.6312 28.2677 57.6312 28.2677L57.4808 27.6688Z" fill="#9CD179"/>
<path d="M58.7004 29.1311C57.8762 28.7579 55.7071 28.5323 56.4561 29.0559C57.2051 29.5796 58.8507 29.73 58.8507 29.73L58.7004 29.1311Z" fill="#9CD179"/>
<path d="M60.6495 28.3986C59.8253 28.0253 57.6563 27.7997 58.4053 28.3234C59.1543 28.847 60.7999 28.9974 60.7999 28.9974L60.6495 28.3986Z" fill="#9CD179"/>
<path d="M19.696 34.5431H11.1339V40.2141H19.696V34.5431Z" fill="#BAB4C6"/>
<path d="M11.1367 34.5431H6.40869V40.2141H11.1367V34.5431Z" fill="#F3E8F3"/>
<path d="M8.44414 36.6544H7.59766V38.8938H8.44414V36.6544Z" fill="#ADAAAD"/>
<path d="M9.94491 36.6544H9.09845V38.8938H9.94491V36.6544Z" fill="#ADAAAD"/>
<path d="M18.4848 36.6544H17.2039V38.8938H18.4848V36.6544Z" fill="#786380"/>
<path d="M16.1625 36.6544H14.8817V38.8938H16.1625V36.6544Z" fill="#786380"/>
<path d="M13.8403 36.6544H12.5595V38.8938H13.8403V36.6544Z" fill="#786380"/>
<path d="M19.9522 34.2506H6.19153V34.6517H19.9522V34.2506Z" fill="#D16162"/>
</svg>
