<svg width="87" height="39" viewBox="0 0 87 39" fill="none" xmlns="http://www.w3.org/2000/svg">
<path d="M86.3611 19.2475C77.8129 30.7817 64.1079 38.2688 48.6877 38.2688H9.18771C8.31896 28.7484 5.13358 19.8909 0.196777 12.2618C0.940221 12.1504 1.70037 12.0947 2.47165 12.0947H66.7754C74.2293 12.0947 81.0623 14.7854 86.3611 19.2475Z" fill="#FFE783"/>
<path d="M75.4795 4.81375H69.7575V21.9661H75.4795V4.81375Z" fill="#BAB4C6"/>
<path d="M75.6132 4.81376H69.7575L67.3657 0.114838H73.2185L75.6132 4.81376Z" fill="#F3E8F3"/>
<path d="M67.2571 0.114838L64.8652 4.81376H69.7575L73.1127 0.114838H67.2571Z" fill="#D16162"/>
<path d="M75.6132 4.81376H69.7575L67.3657 0.114838H73.2185L75.6132 4.81376Z" fill="#D16162"/>
<path d="M67.3266 0.371094L65.0295 4.81376V21.9689H69.7575V4.81376L67.3266 0.371094Z" fill="#F3E8F3"/>
<path d="M67.0649 6.47383H66.2184V8.71327H67.0649V6.47383Z" fill="#ADAAAD"/>
<path d="M68.5685 6.47383H67.722V8.71327H68.5685V6.47383Z" fill="#ADAAAD"/>
<path d="M67.0649 9.49316H66.2184V11.7326H67.0649V9.49316Z" fill="#ADAAAD"/>
<path d="M68.5685 9.49316H67.722V11.7326H68.5685V9.49316Z" fill="#ADAAAD"/>
<path d="M67.0649 12.5125H66.2184V14.752H67.0649V12.5125Z" fill="#ADAAAD"/>
<path d="M68.5685 12.5125H67.722V14.752H68.5685V12.5125Z" fill="#ADAAAD"/>
<path d="M67.0649 15.5291H66.2184V17.7685H67.0649V15.5291Z" fill="#ADAAAD"/>
<path d="M68.5685 15.5291H67.722V17.7685H68.5685V15.5291Z" fill="#ADAAAD"/>
<path d="M72.1187 6.47383H70.8378V8.71327H72.1187V6.47383Z" fill="#786380"/>
<path d="M74.3936 6.47383H73.1127V8.71327H74.3936V6.47383Z" fill="#786380"/>
<path d="M72.1187 9.49316H70.8378V11.7326H72.1187V9.49316Z" fill="#786380"/>
<path d="M74.3936 9.49316H73.1127V11.7326H74.3936V9.49316Z" fill="#786380"/>
<path d="M72.1187 12.5125H70.8378V14.752H72.1187V12.5125Z" fill="#786380"/>
<path d="M74.3936 12.5125H73.1127V14.752H74.3936V12.5125Z" fill="#786380"/>
<path d="M72.1187 15.5291H70.8378V17.7685H72.1187V15.5291Z" fill="#786380"/>
<path d="M74.3936 15.5291H73.1127V17.7685H74.3936V15.5291Z" fill="#786380"/>
<path d="M49.5536 23.7487C50.6702 23.7487 51.5779 23.2417 51.5779 22.0524V17.9969C51.5779 14.2283 50.1412 13.8523 49.5536 13.8523C48.8436 13.8523 47.5294 14.0723 47.5294 17.9969V22.0524C47.5294 23.1331 48.4343 23.7487 49.5536 23.7487Z" fill="#487466"/>
<path d="M49.2251 17.8743H49.5537L49.885 26.2416L49.2501 26.1803L49.2251 17.8743Z" fill="#2F4233"/>
<path d="M49.4729 20.5177L48.3898 20.0943L48.387 20.1695L49.4283 20.6987L49.4729 20.5177Z" fill="#2F4233"/>
<path d="M50.4614 21.2363L50.531 21.3366L49.5508 22.253L49.5146 22.0329L50.4614 21.2363Z" fill="#2F4233"/>
<path d="M44.5779 9.66307H26.0725V29.3779H44.5779V9.66307Z" fill="#BAB4C6"/>
<path d="M45.015 9.66307H26.0725L18.3345 1.18997H37.2742L45.015 9.66307Z" fill="#F3E8F3"/>
<path d="M17.9893 1.18997L10.2513 9.66307H26.0725L36.9318 1.18997H17.9893Z" fill="#D16162"/>
<path d="M45.015 9.66307H26.0725L18.3345 1.18997H37.2742L45.015 9.66307Z" fill="#D16162"/>
<path d="M18.212 1.65234L10.7831 9.66307V29.3779H26.0725V9.66307L18.212 1.65234Z" fill="#F3E8F3"/>
<path d="M20.8879 12.6573H19.3593V16.6961H20.8879V12.6573Z" fill="#ADAAAD"/>
<path d="M23.5971 12.6573H22.0685V16.6961H23.5971V12.6573Z" fill="#ADAAAD"/>
<path d="M20.8879 23.5426H19.3593V27.5814H20.8879V23.5426Z" fill="#ADAAAD"/>
<path d="M23.5971 23.5426H22.0685V27.5814H23.5971V23.5426Z" fill="#ADAAAD"/>
<path d="M13.8294 12.6573H12.3007V16.6961H13.8294V12.6573Z" fill="#ADAAAD"/>
<path d="M16.5386 12.6573H15.0099V16.6961H16.5386V12.6573Z" fill="#ADAAAD"/>
<path d="M13.8294 23.5426H12.3007V27.5814H13.8294V23.5426Z" fill="#ADAAAD"/>
<path d="M16.5386 23.5426H15.0099V27.5814H16.5386V23.5426Z" fill="#ADAAAD"/>
<path d="M38.7166 12.6573H36.4055V16.6961H38.7166V12.6573Z" fill="#786380"/>
<path d="M42.8181 12.6573H40.507V16.6961H42.8181V12.6573Z" fill="#786380"/>
<path d="M38.7166 18.0999H36.4055V22.1387H38.7166V18.0999Z" fill="#786380"/>
<path d="M42.8181 18.0999H40.507V22.1387H42.8181V18.0999Z" fill="#786380"/>
<path d="M38.7166 23.5426H36.4055V27.5814H38.7166V23.5426Z" fill="#786380"/>
<path d="M42.8181 23.5426H40.507V27.5814H42.8181V23.5426Z" fill="#786380"/>
<path d="M30.1377 12.6573H27.8267V16.6961H30.1377V12.6573Z" fill="#786380"/>
<path d="M34.2392 12.6573H31.9282V16.6961H34.2392V12.6573Z" fill="#786380"/>
<path d="M30.1377 18.0999H27.8267V22.1387H30.1377V18.0999Z" fill="#786380"/>
<path d="M34.2392 18.0999H31.9282V22.1387H34.2392V18.0999Z" fill="#786380"/>
<path d="M32.1871 23.5426H29.876V29.3723H32.1871V23.5426Z" fill="#786380"/>
<path d="M17.6885 9.25083C18.5266 9.25083 19.2061 8.57119 19.2061 7.7328C19.2061 6.89442 18.5266 6.21478 17.6885 6.21478C16.8504 6.21478 16.171 6.89442 16.171 7.7328C16.171 8.57119 16.8504 9.25083 17.6885 9.25083Z" fill="#ADAAAD"/>
<path d="M60.1958 10.9778V22.2251C60.1958 29.6147 54.187 35.6255 46.7999 35.6255H14.9627C14.041 35.6255 13.292 34.8762 13.292 33.9543C13.292 33.0323 14.041 32.2831 14.9627 32.2831H46.7999C52.3437 32.2831 56.8545 27.7708 56.8545 22.2251V10.9778H60.1958Z" fill="#FFFBB4"/>
</svg>
