<svg width="262" height="143" viewBox="0 0 262 143" fill="none" xmlns="http://www.w3.org/2000/svg">
<path d="M261.774 86.4133C261.693 116.103 238.624 140.486 209.471 142.65V137.561C209.471 129.626 207.007 122.253 202.805 116.172C200.692 113.114 198.138 110.381 195.237 108.07C188.794 102.928 180.635 99.8527 171.775 99.8527H133.659C132.679 85.224 126.127 73.5978 114.146 65.2473C99.2019 54.8356 75.6205 49.5573 44.0506 49.5573H0.735945C0.48813 48.2844 0.360046 46.9725 0.360046 45.6271V33.0874C0.360046 14.8154 15.1677 0 33.4335 0H135.244C144.377 0 152.646 3.70454 158.63 9.6903C164.614 15.6788 168.317 23.9514 168.317 33.0874C168.317 37.9395 172.251 41.8753 177.102 41.8753H203.93C213.316 41.8753 221.706 46.1452 227.264 52.8496C229.814 55.9247 231.766 59.5122 232.947 63.434C233.782 66.2055 234.23 69.1412 234.23 72.1857V73.9265C234.23 78.7814 238.165 82.7171 243.018 82.7171H245.797C251.806 82.7171 257.174 84.0597 261.774 86.4133Z" fill="#7EA97C"/>
<path d="M133.721 52.8357H117.977V58.0527H133.721V52.8357Z" fill="#BAB4C6"/>
<path d="M133.854 52.8357H117.977L115.583 48.1368H131.46L133.854 52.8357Z" fill="#F3E8F3"/>
<path d="M115.477 48.1368L113.085 52.8357H117.977L131.354 48.1368H115.477Z" fill="#D16162"/>
<path d="M133.854 52.8357H117.977L115.583 48.1368H131.46L133.854 52.8357Z" fill="#D16162"/>
<path d="M115.547 48.393L113.249 52.8357V58.0527H117.977V52.8357L115.547 48.393Z" fill="#F3E8F3"/>
<path d="M115.285 54.4958H114.438V56.7352H115.285V54.4958Z" fill="#ADAAAD"/>
<path d="M116.788 54.4958H115.942V56.7352H116.788V54.4958Z" fill="#ADAAAD"/>
<path d="M132.295 54.4958H131.014V56.7352H132.295V54.4958Z" fill="#786380"/>
<path d="M129.97 54.4958H128.689V56.7352H129.97V54.4958Z" fill="#786380"/>
<path d="M127.648 54.4958H126.367V56.7352H127.648V54.4958Z" fill="#786380"/>
<path d="M125.326 54.4958H124.045V56.7352H125.326V54.4958Z" fill="#786380"/>
<path d="M123.003 54.4958H121.722V56.7352H123.003V54.4958Z" fill="#786380"/>
<path d="M120.681 54.4958H119.4V56.7352H120.681V54.4958Z" fill="#786380"/>
<path d="M148.406 65.6902H132.662V70.9072H148.406V65.6902Z" fill="#BAB4C6"/>
<path d="M148.539 65.6902H132.662L130.271 60.9913H146.147L148.539 65.6902Z" fill="#F3E8F3"/>
<path d="M130.165 60.9913L127.77 65.6902H132.662L146.039 60.9913H130.165Z" fill="#D16162"/>
<path d="M148.539 65.6902H132.662L130.271 60.9913H146.147L148.539 65.6902Z" fill="#D16162"/>
<path d="M130.232 61.2475L127.934 65.6902V70.9072H132.662V65.6902L130.232 61.2475Z" fill="#F3E8F3"/>
<path d="M129.97 67.3503H129.123V69.5897H129.97V67.3503Z" fill="#ADAAAD"/>
<path d="M131.473 67.3503H130.627V69.5897H131.473V67.3503Z" fill="#ADAAAD"/>
<path d="M146.98 67.3503H145.699V69.5897H146.98V67.3503Z" fill="#786380"/>
<path d="M144.658 67.3503H143.377V69.5897H144.658V67.3503Z" fill="#786380"/>
<path d="M142.336 67.3503H141.055V69.5897H142.336V67.3503Z" fill="#786380"/>
<path d="M140.011 67.3503H138.73V69.5897H140.011V67.3503Z" fill="#786380"/>
<path d="M137.688 67.3503H136.407V69.5897H137.688V67.3503Z" fill="#786380"/>
<path d="M135.366 67.3503H134.085V69.5897H135.366V67.3503Z" fill="#786380"/>
<path opacity="0.76" d="M106.433 15.1691H122.987C122.987 15.1691 120.358 10.175 116.994 10.175C114.998 10.175 112.737 12.6456 112.737 12.6456C112.264 12.1191 112.002 11.4367 110.635 11.4367C109.373 11.4367 106.43 15.1691 106.43 15.1691H106.433Z" fill="white"/>
<path d="M155.175 73.0603H171.728C171.728 73.0603 169.099 68.0661 165.736 68.0661C163.739 68.0661 161.479 70.5367 161.479 70.5367C161.005 70.0103 160.743 69.3279 159.376 69.3279C158.115 69.3279 155.172 73.0603 155.172 73.0603H155.175Z" fill="url(#paint0_linear_59_1457)"/>
<path d="M221.065 87.8422C222.182 87.8422 223.09 86.8646 223.09 84.5611V76.7175C223.09 69.4281 221.653 68.7039 221.065 68.7039C220.355 68.7039 219.041 69.1301 219.041 76.7175V84.5611C219.041 86.6501 219.946 87.8422 221.065 87.8422Z" fill="#487466"/>
<path d="M220.737 76.4835H221.065L221.397 92.6665L220.762 92.5467L220.737 76.4835Z" fill="#2F4233"/>
<path d="M220.985 81.5919L219.902 80.7785L219.899 80.9234L220.94 81.9428L220.985 81.5919Z" fill="#2F4233"/>
<path d="M221.973 82.9873L222.043 83.1795L221.063 84.9538L221.026 84.5221L221.973 82.9873Z" fill="#2F4233"/>
<path d="M229.53 93.8391C230.647 93.8391 231.554 92.8614 231.554 90.5579V82.7143C231.554 75.425 230.118 74.7008 229.53 74.7008C228.82 74.7008 227.506 75.127 227.506 82.7143V90.5579C227.506 92.647 228.411 93.8391 229.53 93.8391Z" fill="#487466"/>
<path d="M229.202 82.4776H229.53L229.861 98.6606L229.227 98.5408L229.202 82.4776Z" fill="#2F4233"/>
<path d="M229.449 87.5887L228.366 86.7726L228.363 86.9175L229.405 87.9397L229.449 87.5887Z" fill="#2F4233"/>
<path d="M230.438 88.9814L230.507 89.1764L229.525 90.9479L229.491 90.519L230.438 88.9814Z" fill="#2F4233"/>
<path d="M151.132 31.6362C152.248 31.6362 153.156 30.6586 153.156 28.3551V20.5115C153.156 13.2222 151.719 12.498 151.132 12.498C150.422 12.498 149.107 12.9241 149.107 20.5115V28.3551C149.107 30.4441 150.012 31.6362 151.132 31.6362Z" fill="#487466"/>
<path d="M150.803 20.2747H151.132L151.463 36.4577L150.828 36.3379L150.803 20.2747Z" fill="#2F4233"/>
<path d="M151.051 25.3859L149.968 24.5697L149.965 24.7146L151.006 25.7368L151.051 25.3859Z" fill="#2F4233"/>
<path d="M152.039 26.7785L152.109 26.9735L151.126 28.745L151.093 28.3161L152.039 26.7785Z" fill="#2F4233"/>
<path d="M179.82 71.6564C178.703 71.6564 177.795 70.8737 177.795 69.027V62.7432C177.795 56.9023 179.232 56.323 179.82 56.323C180.53 56.323 181.844 56.6628 181.844 62.7432V69.027C181.844 70.701 180.939 71.6564 179.82 71.6564Z" fill="#487466"/>
<path d="M180.148 62.5566H179.82L179.491 75.7899L180.123 75.425L180.148 62.5566Z" fill="#2F4233"/>
<path d="M179.9 66.6511L180.983 65.9966L180.986 66.1135L179.945 66.9324L179.9 66.6511Z" fill="#2F4233"/>
<path d="M178.912 67.7681L178.842 67.9212L179.825 69.3418L179.859 68.9992L178.912 67.7681Z" fill="#2F4233"/>
<path d="M186.007 69.5535C187.123 69.5535 188.031 68.5758 188.031 66.2723V58.4287C188.031 51.1394 186.594 50.4152 186.007 50.4152C185.297 50.4152 183.982 50.8414 183.982 58.4287V66.2723C183.982 68.3613 184.887 69.5535 186.007 69.5535Z" fill="#487466"/>
<path d="M185.681 58.1947H186.009L186.338 74.3777L185.703 74.258L185.681 58.1947Z" fill="#2F4233"/>
<path d="M185.926 63.3031L184.845 62.4898L184.843 62.6346L185.884 63.6541L185.926 63.3031Z" fill="#2F4233"/>
<path d="M186.917 64.6986L186.984 64.8908L186.004 66.665L185.97 66.2333L186.917 64.6986Z" fill="#2F4233"/>
<path d="M191.832 74.0602C192.948 74.0602 193.856 73.5533 193.856 72.3639V68.3084C193.856 64.5398 192.419 64.1638 191.832 64.1638C191.122 64.1638 189.807 64.3838 189.807 68.3084V72.3639C189.807 73.4446 190.712 74.0602 191.832 74.0602Z" fill="#487466"/>
<path d="M191.503 68.1859H191.832L192.163 76.5531L191.528 76.4918L191.503 68.1859Z" fill="#2F4233"/>
<path d="M191.751 70.8292L190.668 70.4058L190.665 70.481L191.706 71.0102L191.751 70.8292Z" fill="#2F4233"/>
<path d="M192.739 71.5478L192.809 71.6481L191.829 72.5645L191.793 72.3416L192.739 71.5478Z" fill="#2F4233"/>
<path d="M144.694 36.9981C145.811 36.9981 146.718 36.4911 146.718 35.3018V31.2463C146.718 27.4777 145.281 27.1017 144.694 27.1017C143.984 27.1017 142.67 27.3217 142.67 31.2463V35.3018C142.67 36.3825 143.575 36.9981 144.694 36.9981Z" fill="#487466"/>
<path d="M144.365 31.1237H144.694L145.025 39.491L144.39 39.4297L144.365 31.1237Z" fill="#2F4233"/>
<path d="M144.613 33.7671L143.53 33.3437L143.527 33.4189L144.569 33.9481L144.613 33.7671Z" fill="#2F4233"/>
<path d="M145.602 34.4857L145.671 34.5859L144.691 35.5051L144.655 35.2823L145.602 34.4857Z" fill="#2F4233"/>
<path d="M174.123 82.4692H194.978C194.978 82.4692 191.311 70.7763 184.102 70.754C178.82 70.7373 174.123 82.4692 174.123 82.4692Z" fill="url(#paint1_linear_59_1457)"/>
<path d="M9.70178 36.8616H8.96112V43.8974H9.70178V36.8616Z" fill="#2F4233"/>
<path d="M9.30361 39.711C7.78609 39.711 6.5498 38.4743 6.5498 36.9563C6.5498 35.4383 7.78609 34.2016 9.30361 34.2016C10.8211 34.2016 12.0574 35.4383 12.0574 36.9563C12.0574 38.4743 10.8211 39.711 9.30361 39.711ZM9.30361 34.7614C8.09238 34.7614 7.10669 35.7474 7.10669 36.9591C7.10669 38.1707 8.09238 39.1567 9.30361 39.1567C10.5148 39.1567 11.5005 38.1707 11.5005 36.9591C11.5005 35.7474 10.5148 34.7614 9.30361 34.7614Z" fill="#2F4233"/>
<path d="M9.30362 38.0259C11.698 38.0259 13.639 36.0842 13.639 33.6891C13.639 31.2939 11.698 29.3522 9.30362 29.3522C6.90927 29.3522 4.96826 31.2939 4.96826 33.6891C4.96826 36.0842 6.90927 38.0259 9.30362 38.0259Z" fill="#5F997C"/>
<path d="M187.945 32.8534H187.304V47.226H187.945V32.8534Z" fill="#EEE4EF"/>
<path d="M187.686 32.2546H185.898C185.609 32.2546 185.375 32.489 185.375 32.7782C185.375 33.0674 185.609 33.3019 185.898 33.3019H187.686C187.975 33.3019 188.209 33.0674 188.209 32.7782C188.209 32.489 187.975 32.2546 187.686 32.2546Z" fill="#EEE4EF"/>
<path d="M190.81 35.4104L191.2 35.8505C191.392 36.0678 193.43 38.6609 193.257 38.8141C193.085 38.9673 190.762 36.6221 190.57 36.4048L190.18 35.9647C189.988 35.7474 187.8 32.9844 187.972 32.8312C188.145 32.678 190.618 35.1932 190.807 35.4104H190.81Z" fill="#EEE4EF"/>
<path d="M185.06 35.3241L184.567 35.6444C184.325 35.8004 181.457 37.4326 181.332 37.2376C181.206 37.0426 183.871 35.0957 184.113 34.9397L184.606 34.6194C184.848 34.4634 187.906 32.7086 188.031 32.9036C188.156 33.0985 185.302 35.1681 185.06 35.3241Z" fill="#EEE4EF"/>
<path d="M188.671 28.8899L188.635 29.4748C188.618 29.7645 188.226 33.0401 187.995 33.0261C187.764 33.0122 187.78 29.7115 187.8 29.4219L187.836 28.8369C187.853 28.5473 188.259 25.0461 188.49 25.06C188.721 25.0739 188.691 28.6002 188.671 28.8871V28.8899Z" fill="#EEE4EF"/>
<path d="M174.234 31.5415H173.594V45.914H174.234V31.5415Z" fill="#EEE4EF"/>
<path d="M173.966 31.0067L172.242 30.5321C171.964 30.4554 171.676 30.6192 171.599 30.898C171.522 31.1769 171.686 31.4651 171.965 31.5419L173.688 32.0165C173.967 32.0932 174.255 31.9294 174.332 31.6506C174.409 31.3717 174.245 31.0835 173.966 31.0067Z" fill="#EEE4EF"/>
<path d="M177.099 34.0985L177.489 34.5386C177.681 34.7559 179.719 37.349 179.547 37.5022C179.374 37.6554 177.052 35.3101 176.86 35.0929L176.47 34.6528C176.278 34.4355 174.089 31.6725 174.262 31.5193C174.434 31.3661 176.907 33.8813 177.096 34.0985H177.099Z" fill="#EEE4EF"/>
<path d="M171.349 34.0122L170.856 34.3325C170.614 34.4885 167.746 36.1207 167.621 35.9257C167.496 35.7307 170.16 33.7838 170.403 33.6278L170.895 33.3075C171.138 33.1515 174.195 31.3967 174.32 31.5917C174.446 31.7866 171.592 33.8562 171.349 34.0122Z" fill="#EEE4EF"/>
<path d="M174.961 27.578L174.925 28.1629C174.908 28.4526 174.515 31.7282 174.284 31.7142C174.053 31.7003 174.07 28.3996 174.089 28.11L174.125 27.525C174.142 27.2354 174.549 23.7341 174.78 23.7481C175.011 23.762 174.98 27.2883 174.961 27.5752V27.578Z" fill="#EEE4EF"/>
<path d="M160.064 33.7865H159.424V48.1591H160.064V33.7865Z" fill="#EEE4EF"/>
<path d="M159.792 33.2497L158.069 32.7751C157.79 32.6984 157.502 32.8622 157.425 33.141C157.348 33.4199 157.512 33.7081 157.791 33.7849L159.514 34.2594C159.793 34.3362 160.081 34.1724 160.158 33.8935C160.235 33.6147 160.071 33.3264 159.792 33.2497Z" fill="#EEE4EF"/>
<path d="M162.926 36.3435L163.316 36.7836C163.508 37.0009 165.547 39.594 165.374 39.7472C165.201 39.9004 162.879 37.5551 162.687 37.3379L162.297 36.8978C162.105 36.6805 159.916 33.9175 160.089 33.7643C160.262 33.6111 162.734 36.1262 162.924 36.3435H162.926Z" fill="#EEE4EF"/>
<path d="M157.177 36.2572L156.684 36.5775C156.441 36.7335 153.573 38.3657 153.448 38.1707C153.323 37.9757 155.988 36.0288 156.23 35.8728L156.723 35.5525C156.965 35.3965 160.022 33.6417 160.148 33.8367C160.273 34.0317 157.419 36.1012 157.177 36.2572Z" fill="#EEE4EF"/>
<path d="M160.788 29.823L160.752 30.4079C160.735 30.6976 160.342 33.9732 160.111 33.9592C159.88 33.9453 159.897 30.6447 159.916 30.355L159.953 29.77C159.969 29.4804 160.376 25.9792 160.607 25.9931C160.838 26.007 160.807 29.5333 160.788 29.8202V29.823Z" fill="#EEE4EF"/>
<path d="M134.024 25.4973L146.303 6.84644C147.356 5.41476 146.237 4.30061 144.833 4.30061H23.262C21.8754 4.30061 21.0039 5.51225 19.9653 6.8743L8.34582 22.1186C7.28216 23.5141 8.12585 25.6115 9.87447 25.7535C9.94408 25.7591 10.0137 25.7619 10.0861 25.7619H15.3682C16.7743 25.7619 17.9131 26.9011 17.9131 28.3077V41.3126C17.9131 42.7192 19.052 43.8584 20.4581 43.8584H135.942C137.349 43.8584 138.487 42.7192 138.487 41.3126V29.4079C138.487 28.0013 137.349 26.8621 135.942 26.8621C134.564 26.8621 134.016 26.8621 133.974 25.4945C133.974 25.4471 133.991 25.5307 134.024 25.4945V25.4973Z" fill="#EDE18C"/>
<path d="M148.486 26.241H12.723" stroke="#7EA97C" stroke-width="3" stroke-miterlimit="10"/>
<path d="M148.486 7.48428H12.723" stroke="#7EA97C" stroke-width="3" stroke-miterlimit="10"/>
<path d="M149.642 12.1136H13.7448" stroke="#7EA97C" stroke-width="3" stroke-miterlimit="10"/>
<path d="M142.004 16.9796H6.10431" stroke="#7EA97C" stroke-width="3" stroke-miterlimit="10"/>
<path d="M142.004 21.3777H6.10431" stroke="#7EA97C" stroke-width="3" stroke-miterlimit="10"/>
<path d="M21.5579 26.305V47.0059" stroke="#7EA97C" stroke-width="3" stroke-miterlimit="10"/>
<path d="M25.587 26.305V47.0059" stroke="#7EA97C" stroke-width="3" stroke-miterlimit="10"/>
<path d="M29.6161 26.305V47.0059" stroke="#7EA97C" stroke-width="3" stroke-miterlimit="10"/>
<path d="M33.6451 26.305V47.0059" stroke="#7EA97C" stroke-width="3" stroke-miterlimit="10"/>
<path d="M37.6714 26.305V47.0059" stroke="#7EA97C" stroke-width="3" stroke-miterlimit="10"/>
<path d="M41.7006 26.305V47.0059" stroke="#7EA97C" stroke-width="3" stroke-miterlimit="10"/>
<path d="M45.7296 26.305V47.0059" stroke="#7EA97C" stroke-width="3" stroke-miterlimit="10"/>
<path d="M49.7587 26.305V47.0059" stroke="#7EA97C" stroke-width="3" stroke-miterlimit="10"/>
<path d="M53.7878 26.305V47.0059" stroke="#7EA97C" stroke-width="3" stroke-miterlimit="10"/>
<path d="M57.8168 26.305V47.0059" stroke="#7EA97C" stroke-width="3" stroke-miterlimit="10"/>
<path d="M61.8459 26.305V47.0059" stroke="#7EA97C" stroke-width="3" stroke-miterlimit="10"/>
<path d="M65.875 26.305V47.0059" stroke="#7EA97C" stroke-width="3" stroke-miterlimit="10"/>
<path d="M69.9013 26.305V47.0059" stroke="#7EA97C" stroke-width="3" stroke-miterlimit="10"/>
<path d="M73.9304 26.305V47.0059" stroke="#7EA97C" stroke-width="3" stroke-miterlimit="10"/>
<path d="M77.9594 26.305V47.0059" stroke="#7EA97C" stroke-width="3" stroke-miterlimit="10"/>
<path d="M81.9885 26.305V47.0059" stroke="#7EA97C" stroke-width="3" stroke-miterlimit="10"/>
<path d="M86.0176 26.305V47.0059" stroke="#7EA97C" stroke-width="3" stroke-miterlimit="10"/>
<path d="M90.0466 26.305V47.0059" stroke="#7EA97C" stroke-width="3" stroke-miterlimit="10"/>
<path d="M94.0757 26.305V47.0059" stroke="#7EA97C" stroke-width="3" stroke-miterlimit="10"/>
<path d="M98.1048 26.305V47.0059" stroke="#7EA97C" stroke-width="3" stroke-miterlimit="10"/>
<path d="M102.131 26.305V47.0059" stroke="#7EA97C" stroke-width="3" stroke-miterlimit="10"/>
<path d="M106.16 26.305V47.0059" stroke="#7EA97C" stroke-width="3" stroke-miterlimit="10"/>
<path d="M110.189 26.305V47.0059" stroke="#7EA97C" stroke-width="3" stroke-miterlimit="10"/>
<path d="M114.218 26.305V47.0059" stroke="#7EA97C" stroke-width="3" stroke-miterlimit="10"/>
<path d="M118.247 26.305V47.0059" stroke="#7EA97C" stroke-width="3" stroke-miterlimit="10"/>
<path d="M122.276 26.305V47.0059" stroke="#7EA97C" stroke-width="3" stroke-miterlimit="10"/>
<path d="M126.306 26.305V47.0059" stroke="#7EA97C" stroke-width="3" stroke-miterlimit="10"/>
<path d="M130.335 26.305V47.0059" stroke="#7EA97C" stroke-width="3" stroke-miterlimit="10"/>
<path d="M134.364 26.305V47.0059" stroke="#7EA97C" stroke-width="3" stroke-miterlimit="10"/>
<path opacity="0.76" d="M151.416 20.0575C150.722 20.0575 150.001 20.2162 149.33 20.4753C147.993 18.779 145.499 17.4559 142.717 17.4559C142.297 17.4559 141.871 17.4893 141.444 17.5478C140.036 15.1329 137.797 13.3642 135.33 13.3642C132.509 13.3642 129.421 15.8014 127.742 18.8291C126.926 18.545 126.03 18.3779 125.094 18.3779C121.488 18.3779 117.376 20.9655 117.376 23.2606H155.634C155.634 21.7537 153.699 20.0547 151.416 20.0547V20.0575Z" fill="white"/>
<path d="M5.4611 46.1731C4.63691 45.7998 2.46784 45.5742 3.21685 46.0979C3.96586 46.6215 5.61146 46.7719 5.61146 46.7719L5.4611 46.1731Z" fill="#6D916B"/>
<path d="M7.41026 45.4405C6.58607 45.0673 4.41699 44.8417 5.16601 45.3653C5.91502 45.889 7.56062 46.0394 7.56062 46.0394L7.41026 45.4405Z" fill="#6D916B"/>
<path d="M8.62706 46.9028C7.80287 46.5296 5.63379 46.304 6.3828 46.8276C7.13182 47.3513 8.77742 47.5017 8.77742 47.5017L8.62706 46.9028Z" fill="#6D916B"/>
<path d="M122.009 65.1832C123.007 65.1832 123.816 64.3739 123.816 63.3755C123.816 62.3772 123.007 61.5678 122.009 61.5678C121.011 61.5678 120.202 62.3772 120.202 63.3755C120.202 64.3739 121.011 65.1832 122.009 65.1832Z" fill="#F3E8F3"/>
<path d="M122.009 64.6652C122.721 64.6652 123.298 64.0878 123.298 63.3755C123.298 62.6633 122.721 62.0859 122.009 62.0859C121.297 62.0859 120.72 62.6633 120.72 63.3755C120.72 64.0878 121.297 64.6652 122.009 64.6652Z" fill="#82BCBC"/>
<path d="M168.211 76.6979C167.387 76.3247 165.218 76.0991 165.967 76.6227C166.716 77.1464 168.362 77.2968 168.362 77.2968L168.211 76.6979Z" fill="#6D916B"/>
<path d="M170.16 75.9682C169.336 75.5949 167.167 75.3693 167.916 75.893C168.665 76.4166 170.311 76.567 170.311 76.567L170.16 75.9682Z" fill="#6D916B"/>
<path d="M171.38 77.4305C170.556 77.0573 168.387 76.8317 169.136 77.3553C169.885 77.879 171.53 78.0294 171.53 78.0294L171.38 77.4305Z" fill="#6D916B"/>
<defs>
<linearGradient id="paint0_linear_59_1457" x1="163.453" y1="73.0603" x2="163.453" y2="68.0661" gradientUnits="userSpaceOnUse">
<stop stop-color="#7EA97C"/>
<stop offset="1" stop-color="#5F997C"/>
</linearGradient>
<linearGradient id="paint1_linear_59_1457" x1="184.55" y1="82.4692" x2="184.55" y2="70.754" gradientUnits="userSpaceOnUse">
<stop stop-color="#7EA97C"/>
<stop offset="1" stop-color="#5F997C"/>
</linearGradient>
</defs>
</svg>
