<svg width="71" height="140" viewBox="0 0 71 140" fill="none" xmlns="http://www.w3.org/2000/svg">
<path d="M70.7585 29.1471V139.42H0.471008V58.0008C14.8721 57.0064 28.2736 50.9176 38.5815 40.6061C49.3907 29.7961 55.5582 15.574 56.0761 0.365875C65.3873 6.63853 70.7585 17.4458 70.7585 29.1471Z" fill="#9ECC7C"/>
<path d="M28.8277 104.374H27.6471V116.959H28.8277V104.374Z" fill="#2F4233"/>
<path d="M28.151 113.262C25.361 113.262 23.0889 110.99 23.0889 108.199C23.0889 105.408 25.361 103.135 28.151 103.135V103.692C25.6673 103.692 23.6458 105.714 23.6458 108.199C23.6458 110.683 25.6673 112.705 28.151 112.705V113.262Z" fill="#2F4233"/>
<path d="M23.4816 111.497C25.8944 111.497 27.8503 109.54 27.8503 107.126C27.8503 104.713 25.8944 102.756 23.4816 102.756C21.0688 102.756 19.1128 104.713 19.1128 107.126C19.1128 109.54 21.0688 111.497 23.4816 111.497Z" fill="#6BA06B"/>
<path d="M27.9784 108.759L27.9172 108.204C30.1948 107.948 31.91 106.021 31.91 103.725H32.4669C32.4669 106.305 30.5373 108.469 27.9784 108.756V108.759Z" fill="#2F4233"/>
<path d="M27.8058 106.023C31.4965 106.023 34.4885 103.03 34.4885 99.3384C34.4885 95.6465 31.4965 92.6535 27.8058 92.6535C24.1151 92.6535 21.1232 95.6465 21.1232 99.3384C21.1232 103.03 24.1151 106.023 27.8058 106.023Z" fill="#79B77B"/>
<path d="M38.2196 111.733H37.4789V118.769H38.2196V111.733Z" fill="#2F4233"/>
<path d="M37.8242 114.583C36.3067 114.583 35.0704 113.346 35.0704 111.828C35.0704 110.31 36.3067 109.073 37.8242 109.073C39.3417 109.073 40.578 110.31 40.578 111.828C40.578 113.346 39.3417 114.583 37.8242 114.583ZM37.8242 109.633C36.613 109.633 35.6273 110.619 35.6273 111.831C35.6273 113.042 36.613 114.028 37.8242 114.028C39.0354 114.028 40.0211 113.042 40.0211 111.831C40.0211 110.619 39.0354 109.633 37.8242 109.633Z" fill="#2F4233"/>
<path d="M37.8242 112.895C40.2186 112.895 42.1595 110.953 42.1595 108.558C42.1595 106.163 40.2186 104.221 37.8242 104.221C35.4298 104.221 33.4888 106.163 33.4888 108.558C33.4888 110.953 35.4298 112.895 37.8242 112.895Z" fill="#79B77B"/>
<path d="M8.24237 127.978L54.826 127.749C54.826 127.749 46.6369 116.056 30.5345 116.034C18.7369 116.017 8.24516 127.98 8.24516 127.98L8.24237 127.978Z" fill="url(#paint0_linear_59_1206)"/>
<path d="M34.0039 130.404L47.0991 130.301C47.0991 130.301 44.7964 125.006 40.2689 124.994C36.9527 124.986 34.0012 130.406 34.0012 130.406L34.0039 130.404Z" fill="url(#paint1_linear_59_1206)"/>
<path d="M49.7165 59.5244H54.4083L51.6796 60.9337H46.9516L49.7165 59.5244Z" fill="#B53930"/>
<path d="M53.4783 59.5244H58.1673L55.4385 60.9337H50.7133L53.4783 59.5244Z" fill="#B53930"/>
<path d="M57.2122 59.5244H61.9012L59.1725 60.9337H54.4473L57.2122 59.5244Z" fill="#B53930"/>
<path d="M47.9456 60.9337V67.3457H51.6962V60.9337H51.6907L50.6744 59.5244L47.9456 60.9337Z" fill="#BAB4C6"/>
<path d="M43.2538 60.9337V67.3457H47.0045V60.9337H46.9989L45.9826 59.5244L43.2538 60.9337Z" fill="#BAB4C6"/>
<path d="M51.6879 60.9337V67.3457H55.4385V60.9337H55.4329L54.4166 59.5244L51.6879 60.9337Z" fill="#BAB4C6"/>
<path d="M55.4302 60.9337V67.3457H59.1808V60.9337H59.1752L58.1589 59.5244L55.4302 60.9337Z" fill="#BAB4C6"/>
<path d="M59.1724 60.9337V67.3457H62.923V60.9337H62.9175L61.9012 59.5244L59.1724 60.9337Z" fill="#BAB4C6"/>
<path d="M47.9456 60.9337H43.2177V67.3457H47.9456V60.9337Z" fill="#F3E8F3"/>
<path d="M45.2531 63.7888H44.4066V66.0282H45.2531V63.7888Z" fill="#ADAAAD"/>
<path d="M46.7567 63.7888H45.9102V66.0282H46.7567V63.7888Z" fill="#ADAAAD"/>
<path d="M62.2632 63.7888H60.9824V66.0282H62.2632V63.7888Z" fill="#786380"/>
<path d="M59.9409 63.7888H58.6601V66.0282H59.9409V63.7888Z" fill="#786380"/>
<path d="M57.616 63.7888H56.3351V66.0282H57.616V63.7888Z" fill="#786380"/>
<path d="M55.2937 63.7888H54.0129V66.0282H55.2937V63.7888Z" fill="#786380"/>
<path d="M52.9715 63.7888H51.6907V66.0282H52.9715V63.7888Z" fill="#786380"/>
<path d="M50.6493 63.7888H49.3685V66.0282H50.6493V63.7888Z" fill="#786380"/>
<path d="M45.9826 59.5244H50.6744L47.9456 60.9337H43.2177L45.9826 59.5244Z" fill="#B53930"/>
<path d="M38.4786 59.5244H43.1703L40.4416 60.9337H35.7136L38.4786 59.5244Z" fill="#B53930"/>
<path d="M42.2403 59.5244H46.9293L44.2006 60.9337H39.4754L42.2403 59.5244Z" fill="#B53930"/>
<path d="M45.9742 59.5244H50.6632L47.9345 60.9337H43.2093L45.9742 59.5244Z" fill="#B53930"/>
<path d="M36.7076 60.9337V67.3457H40.4583V60.9337H40.4527L39.4364 59.5244L36.7076 60.9337Z" fill="#BAB4C6"/>
<path d="M32.0159 60.9337V67.3457H35.7665V60.9337H35.7609L34.7446 59.5244L32.0159 60.9337Z" fill="#BAB4C6"/>
<path d="M40.45 60.9337V67.3457H44.2006V60.9337H44.195L43.1787 59.5244L40.45 60.9337Z" fill="#BAB4C6"/>
<path d="M44.1895 60.9337V67.3457H47.9401V60.9337H47.9373L46.921 59.5244L44.1895 60.9337Z" fill="#BAB4C6"/>
<path d="M47.9317 60.9337V67.3457H51.6823V60.9337H51.6795L50.6604 59.5244L47.9317 60.9337Z" fill="#BAB4C6"/>
<path d="M36.7077 60.9337H31.9797V67.3457H36.7077V60.9337Z" fill="#F3E8F3"/>
<path d="M34.0151 63.7888H33.1686V66.0282H34.0151V63.7888Z" fill="#ADAAAD"/>
<path d="M35.5159 63.7888H34.6694V66.0282H35.5159V63.7888Z" fill="#ADAAAD"/>
<path d="M51.0252 63.7888H49.7444V66.0282H51.0252V63.7888Z" fill="#786380"/>
<path d="M48.7002 63.7888H47.4194V66.0282H48.7002V63.7888Z" fill="#786380"/>
<path d="M46.378 63.7888H45.0972V66.0282H46.378V63.7888Z" fill="#786380"/>
<path d="M44.0558 63.7888H42.7749V66.0282H44.0558V63.7888Z" fill="#786380"/>
<path d="M41.7335 63.7888H40.4527V66.0282H41.7335V63.7888Z" fill="#786380"/>
<path d="M39.4113 63.7888H38.1305V66.0282H39.4113V63.7888Z" fill="#786380"/>
<path d="M34.7446 59.5244H39.4364L36.7077 60.9337H31.9797L34.7446 59.5244Z" fill="#B53930"/>
<path d="M25.1996 76.841H29.8913L27.1626 78.2504H22.4346L25.1996 76.841Z" fill="#B53930"/>
<path d="M28.9614 76.841H33.6503L30.9216 78.2504H26.1964L28.9614 76.841Z" fill="#B53930"/>
<path d="M32.6952 76.841H37.3842L34.6555 78.2504H29.9303L32.6952 76.841Z" fill="#B53930"/>
<path d="M23.4286 78.2504V84.6623H27.1793V78.2504H27.1737L26.1574 76.841L23.4286 78.2504Z" fill="#BAB4C6"/>
<path d="M18.7369 78.2504V84.6623H22.4875V78.2504H22.4819L21.4656 76.841L18.7369 78.2504Z" fill="#BAB4C6"/>
<path d="M27.171 78.2504V84.6623H30.9216V78.2504H30.916L29.8997 76.841L27.171 78.2504Z" fill="#BAB4C6"/>
<path d="M30.9105 78.2504V84.6623H34.6611V78.2504H34.6583L33.642 76.841L30.9105 78.2504Z" fill="#BAB4C6"/>
<path d="M34.6527 78.2504V84.6623H38.4033V78.2504H38.4005L37.3815 76.841L34.6527 78.2504Z" fill="#BAB4C6"/>
<path d="M23.4287 78.2504H18.7007V84.6623H23.4287V78.2504Z" fill="#F3E8F3"/>
<path d="M20.7361 81.1054H19.8896V83.3448H20.7361V81.1054Z" fill="#ADAAAD"/>
<path d="M22.2369 81.1054H21.3904V83.3448H22.2369V81.1054Z" fill="#ADAAAD"/>
<path d="M37.7462 81.1054H36.4654V83.3448H37.7462V81.1054Z" fill="#786380"/>
<path d="M35.4212 81.1054H34.1404V83.3448H35.4212V81.1054Z" fill="#786380"/>
<path d="M33.099 81.1054H31.8182V83.3448H33.099V81.1054Z" fill="#786380"/>
<path d="M30.7768 81.1054H29.4959V83.3448H30.7768V81.1054Z" fill="#786380"/>
<path d="M28.4545 81.1054H27.1737V83.3448H28.4545V81.1054Z" fill="#786380"/>
<path d="M26.1323 81.1054H24.8515V83.3448H26.1323V81.1054Z" fill="#786380"/>
<path d="M21.4656 76.841H26.1574L23.4287 78.2504H18.7007L21.4656 76.841Z" fill="#B53930"/>
<path d="M13.9616 76.841H18.6534L15.9218 78.2504H11.1967L13.9616 76.841Z" fill="#B53930"/>
<path d="M17.7234 76.841H22.4123L19.6836 78.2504H14.9556L17.7234 76.841Z" fill="#B53930"/>
<path d="M21.4573 76.841H26.1463L23.4175 78.2504H18.6896L21.4573 76.841Z" fill="#B53930"/>
<path d="M12.1879 78.2504V84.6623H15.9386V78.2504H15.9358L14.9195 76.841L12.1879 78.2504Z" fill="#BAB4C6"/>
<path d="M7.4989 78.2504V84.6623H11.2495V78.2504H11.244L10.2276 76.841L7.4989 78.2504Z" fill="#BAB4C6"/>
<path d="M15.9302 78.2504V84.6623H19.6808V78.2504H19.678L18.6589 76.841L15.9302 78.2504Z" fill="#BAB4C6"/>
<path d="M19.6725 78.2504V84.6623H23.4231V78.2504H23.4175L22.4012 76.841L19.6725 78.2504Z" fill="#BAB4C6"/>
<path d="M23.4147 78.2504V84.6623H27.1654V78.2504H27.1598L26.1435 76.841L23.4147 78.2504Z" fill="#BAB4C6"/>
<path d="M12.1907 78.2504H7.46271V84.6623H12.1907V78.2504Z" fill="#F3E8F3"/>
<path d="M9.49813 81.1054H8.65167V83.3448H9.49813V81.1054Z" fill="#ADAAAD"/>
<path d="M10.9989 81.1054H10.1525V83.3448H10.9989V81.1054Z" fill="#ADAAAD"/>
<path d="M26.5054 81.1054H25.2246V83.3448H26.5054V81.1054Z" fill="#786380"/>
<path d="M24.1832 81.1054H22.9024V83.3448H24.1832V81.1054Z" fill="#786380"/>
<path d="M21.861 81.1054H20.5801V83.3448H21.861V81.1054Z" fill="#786380"/>
<path d="M19.5388 81.1054H18.2579V83.3448H19.5388V81.1054Z" fill="#786380"/>
<path d="M17.2166 81.1054H15.9357V83.3448H17.2166V81.1054Z" fill="#786380"/>
<path d="M14.8944 81.1054H13.6135V83.3448H14.8944V81.1054Z" fill="#786380"/>
<path d="M10.2276 76.841H14.9194L12.1879 78.2504H7.46271L10.2276 76.841Z" fill="#B53930"/>
<path d="M53.7317 76.841H58.4235L55.6947 78.2504H50.9667L53.7317 76.841Z" fill="#B53930"/>
<path d="M57.4934 76.841H62.1852L59.4536 78.2504H54.7285L57.4934 76.841Z" fill="#B53930"/>
<path d="M61.2273 76.841H65.9191L63.1876 78.2504H58.4624L61.2273 76.841Z" fill="#B53930"/>
<path d="M51.9608 78.2504V84.6623H55.7114V78.2504H55.7058L54.6895 76.841L51.9608 78.2504Z" fill="#BAB4C6"/>
<path d="M47.269 78.2504V84.6623H51.0196V78.2504H51.014L49.9977 76.841L47.269 78.2504Z" fill="#BAB4C6"/>
<path d="M55.703 78.2504V84.6623H59.4536V78.2504H59.4481L58.4317 76.841L55.703 78.2504Z" fill="#BAB4C6"/>
<path d="M59.4453 78.2504V84.6623H63.196V78.2504H63.1904L62.1741 76.841L59.4453 78.2504Z" fill="#BAB4C6"/>
<path d="M63.1876 78.2504V84.6623H66.9383V78.2504H66.9327L65.9164 76.841L63.1876 78.2504Z" fill="#BAB4C6"/>
<path d="M51.9608 78.2504H47.2328V84.6623H51.9608V78.2504Z" fill="#F3E8F3"/>
<path d="M49.2682 81.1054H48.4218V83.3448H49.2682V81.1054Z" fill="#ADAAAD"/>
<path d="M50.7718 81.1054H49.9254V83.3448H50.7718V81.1054Z" fill="#ADAAAD"/>
<path d="M66.2783 81.1054H64.9975V83.3448H66.2783V81.1054Z" fill="#786380"/>
<path d="M63.9561 81.1054H62.6752V83.3448H63.9561V81.1054Z" fill="#786380"/>
<path d="M61.6311 81.1054H60.3502V83.3448H61.6311V81.1054Z" fill="#786380"/>
<path d="M59.3088 81.1054H58.028V83.3448H59.3088V81.1054Z" fill="#786380"/>
<path d="M56.9866 81.1054H55.7058V83.3448H56.9866V81.1054Z" fill="#786380"/>
<path d="M54.6644 81.1054H53.3836V83.3448H54.6644V81.1054Z" fill="#786380"/>
<path d="M49.9977 76.841H54.6895L51.9608 78.2504H47.2328L49.9977 76.841Z" fill="#B53930"/>
<path d="M12.1294 59.5244H16.8212L14.0925 60.9337H9.3645L12.1294 59.5244Z" fill="#B53930"/>
<path d="M15.8912 59.5244H20.5801L17.8514 60.9337H13.1262L15.8912 59.5244Z" fill="#B53930"/>
<path d="M19.6251 59.5244H24.3141L21.5854 60.9337H16.8602L19.6251 59.5244Z" fill="#B53930"/>
<path d="M10.3585 60.9337V67.3457H14.1091V60.9337H14.1036L13.0873 59.5244L10.3585 60.9337Z" fill="#BAB4C6"/>
<path d="M5.66675 60.9337V67.3457H9.41739V60.9337H9.41181L8.39551 59.5244L5.66675 60.9337Z" fill="#BAB4C6"/>
<path d="M14.1008 60.9337V67.3457H17.8514V60.9337H17.8458L16.8295 59.5244L14.1008 60.9337Z" fill="#BAB4C6"/>
<path d="M17.8431 60.9337V67.3457H21.5937V60.9337H21.5881L20.5718 59.5244L17.8431 60.9337Z" fill="#BAB4C6"/>
<path d="M21.5826 60.9337V67.3457H25.3332V60.9337H25.3304L24.3141 59.5244L21.5826 60.9337Z" fill="#BAB4C6"/>
<path d="M10.3585 60.9337H5.63055V67.3457H10.3585V60.9337Z" fill="#F3E8F3"/>
<path d="M7.666 63.7888H6.81952V66.0282H7.666V63.7888Z" fill="#ADAAAD"/>
<path d="M9.16958 63.7888H8.32312V66.0282H9.16958V63.7888Z" fill="#ADAAAD"/>
<path d="M24.6761 63.7888H23.3953V66.0282H24.6761V63.7888Z" fill="#786380"/>
<path d="M22.3511 63.7888H21.0703V66.0282H22.3511V63.7888Z" fill="#786380"/>
<path d="M20.0289 63.7888H18.748V66.0282H20.0289V63.7888Z" fill="#786380"/>
<path d="M17.7066 63.7888H16.4258V66.0282H17.7066V63.7888Z" fill="#786380"/>
<path d="M15.3844 63.7888H14.1036V66.0282H15.3844V63.7888Z" fill="#786380"/>
<path d="M13.0622 63.7888H11.7814V66.0282H13.0622V63.7888Z" fill="#786380"/>
<path d="M8.39549 59.5244H13.0873L10.3585 60.9337H5.63055L8.39549 59.5244Z" fill="#B53930"/>
<defs>
<linearGradient id="paint0_linear_59_1206" x1="31.5342" y1="127.978" x2="31.5342" y2="116.031" gradientUnits="userSpaceOnUse">
<stop stop-color="#99CE78"/>
<stop offset="1" stop-color="#7EA97C"/>
</linearGradient>
<linearGradient id="paint1_linear_59_1206" x1="40.5502" y1="130.404" x2="40.5502" y2="124.992" gradientUnits="userSpaceOnUse">
<stop stop-color="#99CE78"/>
<stop offset="1" stop-color="#7EA97C"/>
</linearGradient>
</defs>
</svg>
