<svg width="277" height="323" viewBox="0 0 277 323" fill="none" xmlns="http://www.w3.org/2000/svg">
<path d="M238.694 259.051C238.694 259.427 238.675 259.822 238.639 260.218C238.332 263.424 236.795 266.318 234.315 268.368C231.831 270.418 228.698 271.379 225.496 271.072L199.476 268.983C183.487 267.702 167.53 272.15 154.538 281.512C151.547 283.662 148.493 285.359 145.455 286.551C142.002 287.91 138.502 288.648 135.047 288.743C127.938 287.955 122.737 281.576 123.419 274.429L125.811 249.411L125.825 249.288C126.482 243.138 131.739 238.52 137.809 238.52C138.188 238.52 138.569 238.536 138.95 238.573L227.788 247.068C234.005 247.664 238.694 252.814 238.694 259.051Z" fill="#82BCBC"/>
<path d="M229.258 110.131H210.547C203.647 110.131 204.493 106.788 210.547 106.788H229.258C230.18 106.788 230.929 107.538 230.929 108.46C230.929 109.382 230.18 110.131 229.258 110.131Z" fill="#FFFBB4"/>
<path d="M31.3627 4.72691H22.8006V9.94391H31.3627V4.72691Z" fill="#BAB4C6"/>
<path d="M31.4964 4.72691H22.8006L20.4088 0.0279846H29.1045L31.4964 4.72691Z" fill="#F3E8F3"/>
<path d="M20.3002 0.0279846L17.9083 4.72691H22.8006L28.9987 0.0279846" fill="#D16162"/>
<path d="M31.4964 4.72691H22.8006L20.4088 0.0279846H29.1045L31.4964 4.72691Z" fill="#D16162"/>
<path d="M20.3698 0.284241L18.0726 4.72691V9.94391H22.8006V4.72691L20.3698 0.284241Z" fill="#F3E8F3"/>
<path d="M20.108 6.38698H19.2615V8.62642H20.108V6.38698Z" fill="#ADAAAD"/>
<path d="M21.6116 6.38698H20.7651V8.62642H21.6116V6.38698Z" fill="#ADAAAD"/>
<path d="M30.1487 6.38698H28.8679V8.62642H30.1487V6.38698Z" fill="#786380"/>
<path d="M27.8265 6.38698H26.5457V8.62642H27.8265V6.38698Z" fill="#786380"/>
<path d="M25.5043 6.38698H24.2234V8.62642H25.5043V6.38698Z" fill="#786380"/>
<path d="M188.667 286.216H180.104V291.433H188.667V286.216Z" fill="#BAB4C6"/>
<path d="M188.803 286.216H180.104L177.713 281.518H186.411L188.803 286.216Z" fill="#F3E8F3"/>
<path d="M177.607 281.518L175.215 286.216H180.104L186.303 281.518" fill="#D16162"/>
<path d="M188.803 286.216H180.104L177.713 281.518H186.411L188.803 286.216Z" fill="#D16162"/>
<path d="M177.674 281.774L175.376 286.216V291.433H180.104V286.216L177.674 281.774Z" fill="#F3E8F3"/>
<path d="M177.412 287.876H176.565V290.116H177.412V287.876Z" fill="#ADAAAD"/>
<path d="M178.915 287.876H178.069V290.116H178.915V287.876Z" fill="#ADAAAD"/>
<path d="M187.455 287.876H186.174V290.116H187.455V287.876Z" fill="#786380"/>
<path d="M185.13 287.876H183.849V290.116H185.13V287.876Z" fill="#786380"/>
<path d="M182.808 287.876H181.527V290.116H182.808V287.876Z" fill="#786380"/>
<path opacity="0.76" d="M219.075 200.405H235.629C235.629 200.405 233 195.411 229.637 195.411C227.64 195.411 225.379 197.881 225.379 197.881C224.906 197.355 224.644 196.672 223.277 196.672C222.016 196.672 219.073 200.405 219.073 200.405H219.075Z" fill="white"/>
<path opacity="0.76" d="M259.97 200.544H276.524C276.524 200.544 273.895 195.55 270.532 195.55C268.535 195.55 266.274 198.02 266.274 198.02C265.801 197.494 265.539 196.812 264.172 196.812C262.911 196.812 259.968 200.544 259.968 200.544H259.97Z" fill="white"/>
<path d="M204.376 300.873H241.969C241.969 300.873 235.359 288.952 222.367 288.927C212.847 288.91 204.379 300.873 204.379 300.873H204.376Z" fill="url(#paint0_linear_59_2019)"/>
<path d="M97.5932 35.0707H114.147C114.147 35.0707 111.518 30.0766 108.155 30.0766C106.158 30.0766 103.897 32.5472 103.897 32.5472C103.424 32.0207 103.162 31.3383 101.795 31.3383C100.534 31.3383 97.5905 35.0707 97.5905 35.0707H97.5932Z" fill="url(#paint1_linear_59_2019)"/>
<path d="M153.694 308.313C154.811 308.313 155.718 307.335 155.718 305.032V297.188C155.718 289.899 154.282 289.174 153.694 289.174C152.984 289.174 151.67 289.601 151.67 297.188V305.032C151.67 307.121 152.575 308.313 153.694 308.313Z" fill="#487466"/>
<path d="M153.368 296.951H153.697L154.025 313.134L153.391 313.014L153.368 296.951Z" fill="#2F4233"/>
<path d="M153.613 302.062L152.53 301.249L152.527 301.394L153.569 302.413" fill="#2F4233"/>
<path d="M154.602 303.455L154.671 303.65L153.691 305.422L153.655 304.993L154.602 303.455Z" fill="#2F4233"/>
<path d="M147.869 312.249C148.986 312.249 149.893 311.547 149.893 309.895V304.266C149.893 299.035 148.457 298.514 147.869 298.514C147.159 298.514 145.845 298.817 145.845 304.266V309.895C145.845 311.393 146.75 312.249 147.869 312.249Z" fill="#487466"/>
<path d="M147.54 304.096H147.869L148.2 315.711L147.566 315.624L147.54 304.096Z" fill="#2F4233"/>
<path d="M147.788 307.764L146.705 307.179L146.702 307.282L147.744 308.015" fill="#2F4233"/>
<path d="M148.777 308.764L148.846 308.903L147.863 310.176L147.83 309.867L148.777 308.764Z" fill="#2F4233"/>
<path d="M136.005 312.017C137.121 312.017 138.029 311.533 138.029 310.396V306.519C138.029 302.915 136.592 302.558 136.005 302.558C135.294 302.558 133.98 302.767 133.98 306.519V310.396C133.98 311.43 134.885 312.017 136.005 312.017Z" fill="#487466"/>
<path d="M135.679 306.402H136.007L136.336 314.399L135.701 314.34L135.679 306.402Z" fill="#2F4233"/>
<path d="M135.924 308.928L134.843 308.524L134.841 308.597L135.882 309.101" fill="#2F4233"/>
<path d="M136.915 309.616L136.982 309.711L136.002 310.588L135.968 310.377L136.915 309.616Z" fill="#2F4233"/>
<path d="M260.803 258.276C259.686 258.276 258.779 257.494 258.779 255.647V249.363C258.779 243.522 260.215 242.943 260.803 242.943C261.513 242.943 262.827 243.283 262.827 249.363V255.647C262.827 257.321 261.922 258.276 260.803 258.276Z" fill="#487466"/>
<path d="M261.129 249.174H260.8L260.471 262.407L261.106 262.042L261.129 249.174Z" fill="#2F4233"/>
<path d="M260.884 253.268L261.967 252.617V252.733L260.925 253.55" fill="#2F4233"/>
<path d="M259.895 254.385L259.826 254.541L260.806 255.962L260.842 255.616L259.895 254.385Z" fill="#2F4233"/>
<path d="M266.99 256.173C268.106 256.173 269.014 255.196 269.014 252.892V245.049C269.014 237.759 267.577 237.035 266.99 237.035C266.28 237.035 264.966 237.461 264.966 245.049V252.892C264.966 254.981 265.871 256.173 266.99 256.173Z" fill="#487466"/>
<path d="M266.664 244.812H266.99L267.321 260.995L266.686 260.875L266.664 244.812Z" fill="#2F4233"/>
<path d="M266.909 249.923L265.826 249.107L265.823 249.252L266.865 250.274" fill="#2F4233"/>
<path d="M267.898 251.316L267.967 251.511L266.987 253.282L266.951 252.853L267.898 251.316Z" fill="#2F4233"/>
<path d="M241.354 207.97C242.47 207.97 243.378 206.992 243.378 204.689V196.845C243.378 189.556 241.941 188.832 241.354 188.832C240.644 188.832 239.329 189.258 239.329 196.845V204.689C239.329 206.778 240.234 207.97 241.354 207.97Z" fill="#487466"/>
<path d="M241.025 196.608H241.354L241.685 212.791L241.05 212.672L241.025 196.608Z" fill="#2F4233"/>
<path d="M241.273 201.719L240.19 200.903L240.187 201.048L241.228 202.07" fill="#2F4233"/>
<path d="M242.261 203.112L242.331 203.307L241.351 205.079L241.315 204.65L242.261 203.112Z" fill="#2F4233"/>
<path d="M272.812 260.677C273.929 260.677 274.836 260.17 274.836 258.981V254.926C274.836 251.157 273.4 250.781 272.812 250.781C272.102 250.781 270.788 251.001 270.788 254.926V258.981C270.788 260.062 271.693 260.677 272.812 260.677Z" fill="#487466"/>
<path d="M272.486 254.803H272.815L273.146 263.173L272.511 263.109L272.486 254.803Z" fill="#2F4233"/>
<path d="M272.734 257.446L271.651 257.026L271.648 257.101L272.69 257.627" fill="#2F4233"/>
<path d="M273.723 258.168L273.792 258.268L272.809 259.184L272.776 258.962L273.723 258.168Z" fill="#2F4233"/>
<path d="M255.103 269.089H275.959C275.959 269.089 272.291 257.396 265.083 257.374C259.8 257.357 255.103 269.089 255.103 269.089Z" fill="url(#paint2_linear_59_2019)"/>
<path d="M79.4081 19.0771C78.2916 19.0771 77.3839 18.2944 77.3839 16.4477V10.1639C77.3839 4.32303 78.8206 3.74367 79.4081 3.74367C80.1182 3.74367 81.4324 4.08348 81.4324 10.1639V16.4477C81.4324 18.1217 80.5275 19.0771 79.4081 19.0771Z" fill="#487466"/>
<path d="M79.7339 9.97455H79.4082L79.0796 23.2078L79.7117 22.843L79.7339 9.97455Z" fill="#2F4233"/>
<path d="M79.4889 14.069L80.572 13.4173L80.5748 13.5343L79.5334 14.3504" fill="#2F4233"/>
<path d="M78.5004 15.186L78.4308 15.342L79.4109 16.7625L79.4471 16.4171L78.5004 15.186Z" fill="#2F4233"/>
<path d="M91.4202 21.4781C92.5367 21.4781 93.4444 20.9712 93.4444 19.7818V15.7263C93.4444 11.9577 92.0077 11.5817 91.4202 11.5817C90.7101 11.5817 89.3959 11.8017 89.3959 15.7263V19.7818C89.3959 20.8625 90.3008 21.4781 91.4202 21.4781Z" fill="#487466"/>
<path d="M91.0916 15.6038H91.4202L91.7515 23.9738L91.1167 23.9098L91.0916 15.6038Z" fill="#2F4233"/>
<path d="M91.3394 18.2471L90.2563 17.8265L90.2535 17.9017L91.2949 18.4281" fill="#2F4233"/>
<path d="M92.3279 18.9685L92.3975 19.0688L91.4146 19.9852L91.3812 19.7623L92.3279 18.9685Z" fill="#2F4233"/>
<path d="M73.7084 29.8899H94.5638C94.5638 29.8899 90.8967 18.197 83.6878 18.1747C78.4057 18.158 73.7084 29.8899 73.7084 29.8899Z" fill="url(#paint3_linear_59_2019)"/>
<path d="M246.257 209.131C247.374 209.131 248.281 208.624 248.281 207.435V203.379C248.281 199.611 246.844 199.235 246.257 199.235C245.547 199.235 244.233 199.455 244.233 203.379V207.435C244.233 208.516 245.138 209.131 246.257 209.131Z" fill="#487466"/>
<path d="M245.928 203.257H246.257L246.588 211.624L245.953 211.563L245.928 203.257Z" fill="#2F4233"/>
<path d="M246.176 205.9L245.093 205.48L245.09 205.555L246.132 206.081L246.176 205.9Z" fill="#2F4233"/>
<path d="M247.165 206.622L247.234 206.719L246.254 207.638L246.218 207.415L247.165 206.622Z" fill="#2F4233"/>
<path d="M100.982 122.802H100.45V128.461H100.982V122.802Z" fill="#2F4233"/>
<path d="M100.676 126.799C99.4198 126.799 98.3979 125.776 98.3979 124.52C98.3979 123.264 99.4198 122.242 100.676 122.242V122.492C99.5591 122.492 98.6485 123.403 98.6485 124.52C98.6485 125.637 99.5591 126.548 100.676 126.548V126.799Z" fill="#2F4233"/>
<path d="M98.5762 126.005C99.6618 126.005 100.542 125.124 100.542 124.038C100.542 122.952 99.6618 122.072 98.5762 122.072C97.4905 122.072 96.6104 122.952 96.6104 124.038C96.6104 125.124 97.4905 126.005 98.5762 126.005Z" fill="#6BA06B"/>
<path d="M100.6 124.774L100.573 124.526C101.597 124.409 102.369 123.545 102.369 122.512H102.619C102.619 123.673 101.75 124.645 100.6 124.776V124.774Z" fill="#2F4233"/>
<path d="M100.523 123.545C102.183 123.545 103.53 122.198 103.53 120.537C103.53 118.876 102.183 117.529 100.523 117.529C98.8617 117.529 97.5153 118.876 97.5153 120.537C97.5153 122.198 98.8617 123.545 100.523 123.545Z" fill="#79B77B"/>
<path opacity="0.76" d="M34.3922 88.5025C33.6989 88.5025 32.9777 88.6612 32.3066 88.9203C30.9701 87.224 28.4753 85.9009 25.6936 85.9009C25.2732 85.9009 24.8471 85.9344 24.4211 85.9929C23.0122 83.5779 20.7735 81.8092 18.3065 81.8092C15.4859 81.8092 12.3979 84.2464 10.7189 87.2741C9.90309 86.99 9.0065 86.8229 8.07093 86.8229C4.46509 86.8229 0.352478 89.4105 0.352478 91.7057H38.6106C38.6106 90.1988 36.6754 88.4997 34.3922 88.4997V88.5025Z" fill="white"/>
<path opacity="0.76" d="M239.048 195.845H255.602C255.602 195.845 252.973 190.851 249.609 190.851C247.613 190.851 245.352 193.322 245.352 193.322C244.879 192.795 244.617 192.113 243.25 192.113C241.988 192.113 239.045 195.845 239.045 195.845H239.048Z" fill="white"/>
<path d="M90.7074 316.644C92.7896 316.644 94.4775 314.955 94.4775 312.872C94.4775 310.79 92.7896 309.101 90.7074 309.101C88.6252 309.101 86.9373 310.79 86.9373 312.872C86.9373 314.955 88.6252 316.644 90.7074 316.644Z" fill="#FFFBB4"/>
<path d="M249.949 228.008H249.309V242.38H249.949V228.008Z" fill="#EEE4EF"/>
<path d="M249.546 227.551L247.82 228.017C247.541 228.092 247.375 228.38 247.451 228.659C247.526 228.938 247.813 229.103 248.092 229.028L249.818 228.562C250.098 228.487 250.263 228.2 250.188 227.921C250.112 227.641 249.825 227.476 249.546 227.551Z" fill="#EEE4EF"/>
<path d="M246.594 226.389L246.082 226.103C245.831 225.96 243.052 224.181 243.166 223.98C243.28 223.78 246.243 225.231 246.494 225.373L247.006 225.66C247.257 225.802 250.233 227.693 250.119 227.894C250.005 228.094 246.847 226.531 246.594 226.389Z" fill="#EEE4EF"/>
<path d="M252.032 224.635L252.394 224.172C252.572 223.944 254.744 221.462 254.928 221.604C255.111 221.746 253.232 224.462 253.057 224.688L252.695 225.15C252.516 225.378 250.205 228.038 250.022 227.896C249.838 227.754 251.854 224.863 252.032 224.635Z" fill="#EEE4EF"/>
<path d="M250.751 231.927L250.592 231.361C250.514 231.083 249.807 227.86 250.03 227.796C250.253 227.735 251.319 230.857 251.397 231.136L251.556 231.701C251.634 231.98 252.399 235.42 252.177 235.484C251.954 235.545 250.826 232.205 250.748 231.927H250.751Z" fill="#EEE4EF"/>
<path d="M261.349 221.312H260.708V235.684H261.349V221.312Z" fill="#EEE4EF"/>
<path d="M260.945 220.855L259.219 221.321C258.94 221.396 258.775 221.684 258.85 221.963C258.925 222.242 259.213 222.407 259.492 222.332L261.218 221.867C261.497 221.791 261.662 221.504 261.587 221.225C261.512 220.946 261.224 220.78 260.945 220.855Z" fill="#EEE4EF"/>
<path d="M257.993 219.696L257.481 219.409C257.23 219.267 254.452 217.487 254.566 217.287C254.68 217.086 257.642 218.538 257.893 218.68L258.405 218.966C258.656 219.108 261.633 221 261.518 221.2C261.404 221.401 258.247 219.838 257.993 219.696Z" fill="#EEE4EF"/>
<path d="M263.431 217.939L263.793 217.476C263.971 217.248 266.143 214.766 266.327 214.908C266.511 215.05 264.631 217.766 264.456 217.992L264.094 218.454C263.916 218.682 261.605 221.342 261.421 221.2C261.237 221.058 263.253 218.167 263.431 217.939Z" fill="#EEE4EF"/>
<path d="M262.15 225.231L261.992 224.665C261.914 224.387 261.207 221.164 261.429 221.1C261.652 221.039 262.719 224.161 262.796 224.44L262.955 225.005C263.033 225.284 263.799 228.724 263.576 228.788C263.353 228.849 262.226 225.509 262.148 225.231H262.15Z" fill="#EEE4EF"/>
<path d="M233.32 219.543H232.68V233.916H233.32V219.543Z" fill="#EEE4EF"/>
<path d="M232.916 219.082L231.19 219.548C230.911 219.623 230.746 219.911 230.821 220.19C230.897 220.469 231.184 220.634 231.463 220.559L233.189 220.094C233.468 220.018 233.633 219.731 233.558 219.452C233.483 219.172 233.196 219.007 232.916 219.082Z" fill="#EEE4EF"/>
<path d="M229.962 217.927L229.45 217.641C229.2 217.499 226.421 215.719 226.535 215.518C226.649 215.318 229.612 216.769 229.862 216.911L230.375 217.198C230.625 217.34 233.602 219.231 233.488 219.432C233.373 219.632 230.216 218.07 229.962 217.927Z" fill="#EEE4EF"/>
<path d="M235.4 216.17L235.762 215.708C235.941 215.479 238.112 212.997 238.296 213.139C238.48 213.281 236.601 215.997 236.425 216.223L236.063 216.685C235.885 216.914 233.574 219.574 233.39 219.432C233.206 219.29 235.222 216.398 235.4 216.17Z" fill="#EEE4EF"/>
<path d="M234.12 223.462L233.961 222.897C233.883 222.618 233.176 219.395 233.398 219.331C233.621 219.27 234.688 222.392 234.766 222.671L234.924 223.236C235.002 223.515 235.768 226.955 235.545 227.019C235.322 227.08 234.195 223.741 234.117 223.462H234.12Z" fill="#EEE4EF"/>
<path d="M57.2747 67.7292H57.8065V62.0693H57.2747V67.7292Z" fill="#2F4233"/>
<path d="M57.581 66.0663C58.8368 66.0663 59.8587 65.0441 59.8587 63.7879C59.8587 62.5317 58.8368 61.5095 57.581 61.5095V61.7601C58.6976 61.7601 59.6081 62.671 59.6081 63.7879C59.6081 64.9048 58.6976 65.8156 57.581 65.8156V66.0663Z" fill="#2F4233"/>
<path d="M59.6804 65.2725C60.7661 65.2725 61.6462 64.3921 61.6462 63.306C61.6462 62.22 60.7661 61.3396 59.6804 61.3396C58.5947 61.3396 57.7146 62.22 57.7146 63.306C57.7146 64.3921 58.5947 65.2725 59.6804 65.2725Z" fill="#6BA06B"/>
<path d="M57.6562 64.0414L57.684 63.7935C56.6593 63.6765 55.8881 62.813 55.8881 61.7796H55.6375C55.6375 62.9411 56.5062 63.9132 57.6562 64.0441V64.0414Z" fill="#2F4233"/>
<path d="M57.7341 62.8102C59.3949 62.8102 60.7413 61.4634 60.7413 59.802C60.7413 58.1407 59.3949 56.7938 57.7341 56.7938C56.0733 56.7938 54.7269 58.1407 54.7269 59.802C54.7269 61.4634 56.0733 62.8102 57.7341 62.8102Z" fill="#79B77B"/>
<path d="M43.6644 64.8993H42.9237V71.9351H43.6644V64.8993Z" fill="#2F4233"/>
<path d="M43.2689 67.7515C41.7514 67.7515 40.5151 66.5148 40.5151 64.9967C40.5151 63.4787 41.7514 62.242 43.2689 62.242C44.7865 62.242 46.0227 63.4787 46.0227 64.9967C46.0227 66.5148 44.7865 67.7515 43.2689 67.7515ZM43.2689 62.8019C42.0577 62.8019 41.072 63.7879 41.072 64.9995C41.072 66.2112 42.0577 67.1972 43.2689 67.1972C44.4802 67.1972 45.4659 66.2112 45.4659 64.9995C45.4659 63.7879 44.4802 62.8019 43.2689 62.8019Z" fill="#2F4233"/>
<path d="M43.269 66.0635C45.6633 66.0635 47.6043 64.1219 47.6043 61.7267C47.6043 59.3316 45.6633 57.3899 43.269 57.3899C40.8746 57.3899 38.9336 59.3316 38.9336 61.7267C38.9336 64.1219 40.8746 66.0635 43.269 66.0635Z" fill="#79B77B"/>
<path d="M33.103 79.1715L79.6865 78.9431C79.6865 78.9431 71.4975 67.2501 55.3951 67.2278C43.5975 67.2111 33.1057 79.1743 33.1057 79.1743L33.103 79.1715Z" fill="url(#paint4_linear_59_2019)"/>
<path d="M58.8618 81.5975L71.957 81.4945C71.957 81.4945 69.6543 76.1995 65.1268 76.1884C61.8105 76.18 58.859 81.6003 58.859 81.6003L58.8618 81.5975Z" fill="url(#paint5_linear_59_2019)"/>
<path d="M95.6024 131.665L105.39 131.587C105.39 131.587 103.669 127.539 100.286 127.531C97.8077 127.526 95.6024 131.667 95.6024 131.667V131.665Z" fill="url(#paint6_linear_59_2019)"/>
<path d="M145.733 319.39L159.942 319.234C159.942 319.234 157.445 311.226 152.533 311.212C148.935 311.201 145.733 319.393 145.733 319.393V319.39Z" fill="url(#paint7_linear_59_2019)"/>
<path d="M163.281 318.685C160.856 319.518 158.38 320.237 155.855 320.836L154.822 320.844C154.822 320.844 155.209 320.12 155.838 319.276C156.598 318.262 157.709 317.076 158.932 316.778C159.121 316.733 159.313 316.708 159.505 316.708C161.165 316.711 162.429 317.688 163.281 318.685Z" fill="url(#paint8_linear_59_2019)"/>
<path d="M149.153 322.125C145.279 322.702 141.314 323 137.28 323C134.793 323 132.332 322.886 129.901 322.663C131.455 319.318 135.105 312.519 139.087 312.533C142.3 312.544 144.809 314.872 146.605 317.449C147.045 318.084 147.446 318.736 147.799 319.368C148.359 320.365 148.81 321.326 149.153 322.125Z" fill="url(#paint9_linear_59_2019)"/>
<path d="M141.919 282.038C141.094 281.665 138.925 281.44 139.674 281.963C140.423 282.487 142.069 282.637 142.069 282.637L141.919 282.038Z" fill="#A4EAE8"/>
<path d="M229.717 260.608C228.893 260.235 226.724 260.009 227.473 260.533C228.222 261.056 229.868 261.207 229.868 261.207L229.717 260.608Z" fill="#A4EAE8"/>
<path d="M230.934 262.07C230.11 261.697 227.941 261.471 228.69 261.995C229.439 262.518 231.085 262.669 231.085 262.669L230.934 262.07Z" fill="#A4EAE8"/>
<path d="M137.127 244.973C136.302 244.6 134.133 244.375 134.882 244.898C135.631 245.422 137.277 245.572 137.277 245.572L137.127 244.973Z" fill="#A4EAE8"/>
<path d="M138.343 246.436C137.519 246.063 135.35 245.837 136.099 246.361C136.848 246.884 138.494 247.035 138.494 247.035L138.343 246.436Z" fill="#A4EAE8"/>
<path d="M140.295 245.706C139.471 245.333 137.302 245.107 138.051 245.631C138.8 246.154 140.446 246.305 140.446 246.305L140.295 245.706Z" fill="#A4EAE8"/>
<path d="M141.512 247.168C140.688 246.795 138.519 246.569 139.268 247.093C140.017 247.617 141.662 247.767 141.662 247.767L141.512 247.168Z" fill="#A4EAE8"/>
<path d="M141.512 244.829C140.688 244.455 138.519 244.23 139.268 244.753C140.017 245.277 141.662 245.427 141.662 245.427L141.512 244.829Z" fill="#A4EAE8"/>
<path d="M239.753 237.687C238.928 237.314 236.759 237.088 237.508 237.612C238.257 238.135 239.903 238.286 239.903 238.286L239.753 237.687Z" fill="#9CD179"/>
<path d="M239.753 235.347C238.928 234.974 236.759 234.748 237.508 235.272C238.257 235.796 239.903 235.946 239.903 235.946L239.753 235.347Z" fill="#9CD179"/>
<path d="M240.972 236.81C240.148 236.436 237.979 236.211 238.728 236.734C239.477 237.258 241.122 237.408 241.122 237.408L240.972 236.81Z" fill="#9CD179"/>
<path d="M242.921 236.077C242.097 235.704 239.928 235.478 240.677 236.002C241.426 236.525 243.072 236.676 243.072 236.676L242.921 236.077Z" fill="#9CD179"/>
<path d="M244.138 237.539C243.314 237.166 241.145 236.94 241.894 237.464C242.643 237.988 244.288 238.138 244.288 238.138L244.138 237.539Z" fill="#9CD179"/>
<path d="M115.015 292.665C114.191 292.291 112.022 292.066 112.771 292.589C113.52 293.113 115.166 293.263 115.166 293.263L115.015 292.665Z" fill="#9CD179"/>
<path d="M116.912 294.286C116.087 293.912 113.918 293.687 114.667 294.21C115.416 294.734 117.062 294.885 117.062 294.885L116.912 294.286Z" fill="#9CD179"/>
<path d="M116.912 291.943C116.087 291.57 113.918 291.344 114.667 291.868C115.416 292.392 117.062 292.542 117.062 292.542L116.912 291.943Z" fill="#9CD179"/>
<path d="M118.128 293.408C117.304 293.035 115.135 292.809 115.884 293.333C116.633 293.857 118.279 294.007 118.279 294.007L118.128 293.408Z" fill="#9CD179"/>
<path d="M120.078 292.676C119.253 292.302 117.084 292.077 117.833 292.6C118.582 293.124 120.228 293.275 120.228 293.275L120.078 292.676Z" fill="#9CD179"/>
<path d="M121.297 294.138C120.473 293.765 118.304 293.539 119.053 294.063C119.802 294.586 121.447 294.737 121.447 294.737L121.297 294.138Z" fill="#9CD179"/>
<path d="M98.5205 77.7732C97.6963 77.4 95.5272 77.1744 96.2762 77.698C97.0252 78.2217 98.6709 78.3721 98.6709 78.3721L98.5205 77.7732Z" fill="#9CD179"/>
<path d="M99.74 79.2355C98.9158 78.8623 96.7468 78.6367 97.4958 79.1603C98.2448 79.684 99.8904 79.8344 99.8904 79.8344L99.74 79.2355Z" fill="#9CD179"/>
<path d="M101.689 78.5058C100.865 78.1325 98.6959 77.9069 99.4449 78.4306C100.194 78.9542 101.84 79.1046 101.84 79.1046L101.689 78.5058Z" fill="#9CD179"/>
<path d="M126.482 164.128H124.808V167.73H126.482V164.128Z" fill="#BAB4C6"/>
<path d="M124.808 164.128H122.656V167.73H124.808V164.128Z" fill="#F3E8F3"/>
<path d="M124.151 165.654H123.196V167.718H124.151V165.654Z" fill="#ADAAAD"/>
<path d="M126.588 163.95H122.556V164.334H126.588V163.95Z" fill="#D16162"/>
<defs>
<linearGradient id="paint0_linear_59_2019" x1="223.174" y1="300.873" x2="223.174" y2="288.927" gradientUnits="userSpaceOnUse">
<stop stop-color="#BBE8A3"/>
<stop offset="1" stop-color="#7EA97C"/>
</linearGradient>
<linearGradient id="paint1_linear_59_2019" x1="105.869" y1="35.0707" x2="105.869" y2="30.0766" gradientUnits="userSpaceOnUse">
<stop stop-color="#BBE8A3"/>
<stop offset="1" stop-color="#7EA97C"/>
</linearGradient>
<linearGradient id="paint2_linear_59_2019" x1="265.531" y1="269.089" x2="265.531" y2="257.371" gradientUnits="userSpaceOnUse">
<stop stop-color="#BBE8A3"/>
<stop offset="1" stop-color="#7EA97C"/>
</linearGradient>
<linearGradient id="paint3_linear_59_2019" x1="84.1361" y1="29.8899" x2="84.1361" y2="18.1719" gradientUnits="userSpaceOnUse">
<stop stop-color="#BBE8A3"/>
<stop offset="1" stop-color="#7EA97C"/>
</linearGradient>
<linearGradient id="paint4_linear_59_2019" x1="56.3948" y1="79.1715" x2="56.3948" y2="67.225" gradientUnits="userSpaceOnUse">
<stop stop-color="#BBE8A3"/>
<stop offset="1" stop-color="#7EA97C"/>
</linearGradient>
<linearGradient id="paint5_linear_59_2019" x1="65.4108" y1="81.5976" x2="65.4108" y2="76.1856" gradientUnits="userSpaceOnUse">
<stop stop-color="#BBE8A3"/>
<stop offset="1" stop-color="#7EA97C"/>
</linearGradient>
<linearGradient id="paint6_linear_59_2019" x1="100.495" y1="131.665" x2="100.495" y2="127.528" gradientUnits="userSpaceOnUse">
<stop stop-color="#BBE8A3"/>
<stop offset="1" stop-color="#7EA97C"/>
</linearGradient>
<linearGradient id="paint7_linear_59_2019" x1="152.839" y1="319.39" x2="152.839" y2="311.21" gradientUnits="userSpaceOnUse">
<stop stop-color="#BBE8A3"/>
<stop offset="1" stop-color="#7EA97C"/>
</linearGradient>
<linearGradient id="paint8_linear_59_2019" x1="159.051" y1="320.844" x2="159.051" y2="316.708" gradientUnits="userSpaceOnUse">
<stop stop-color="#BBE8A3"/>
<stop offset="1" stop-color="#7EA97C"/>
</linearGradient>
<linearGradient id="paint9_linear_59_2019" x1="139.527" y1="323" x2="139.527" y2="312.533" gradientUnits="userSpaceOnUse">
<stop stop-color="#BBE8A3"/>
<stop offset="1" stop-color="#7EA97C"/>
</linearGradient>
</defs>
</svg>
