<svg width="294" height="315" viewBox="0 0 294 315" fill="none" xmlns="http://www.w3.org/2000/svg">
<path d="M288.71 189.004H136.209C121.12 189.004 108.846 176.726 108.846 161.632V89.561C108.846 63.5373 87.6818 42.3657 61.6669 42.3657H31.2998C28.379 42.3657 26.0094 39.9954 26.0094 37.0735C26.0094 34.1517 28.379 31.7813 31.2998 31.7813H61.6641C93.5124 31.7813 119.424 57.702 119.424 89.561V161.632C119.424 170.888 126.953 178.42 136.206 178.42H288.707C291.628 178.42 293.997 180.79 293.997 183.712C293.997 186.634 291.628 189.004 288.707 189.004H288.71Z" fill="#82BCBC"/>
<path d="M158.688 94.8532H114.137C111.216 94.8532 108.846 92.4829 108.846 89.561C108.846 86.6392 111.216 84.2688 114.137 84.2688H158.688C184.533 84.2688 205.561 63.2337 205.561 37.3799V26.4891C205.561 14.0079 215.713 3.8524 228.19 3.8524H241.268C244.189 3.8524 246.559 6.22275 246.559 9.1446C246.559 12.0665 244.189 14.4368 241.268 14.4368H228.19C221.546 14.4368 216.142 19.8432 216.142 26.4891V37.3799C216.142 69.0718 190.369 94.8532 158.688 94.8532Z" fill="#82BCBC"/>
<path d="M76.7334 38.3548C75.9092 37.9815 73.7402 37.7559 74.4892 38.2796C75.2382 38.8032 76.8838 38.9536 76.8838 38.9536L76.7334 38.3548Z" fill="#A4EAE8"/>
<path d="M77.9502 39.8171C77.126 39.4439 74.957 39.2183 75.706 39.7419C76.455 40.2655 78.1006 40.416 78.1006 40.416L77.9502 39.8171Z" fill="#A4EAE8"/>
<path d="M79.8993 39.0845C79.0751 38.7113 76.9061 38.4857 77.6551 39.0093C78.4041 39.533 80.0497 39.6834 80.0497 39.6834L79.8993 39.0845Z" fill="#A4EAE8"/>
<path d="M77.9502 37.4774C77.126 37.1042 74.957 36.8785 75.706 37.4022C76.455 37.9258 78.1006 38.0762 78.1006 38.0762L77.9502 37.4774Z" fill="#A4EAE8"/>
<path d="M195.158 73.6566C194.334 73.2833 192.165 73.0577 192.914 73.5814C193.663 74.105 195.309 74.2554 195.309 74.2554L195.158 73.6566Z" fill="#A4EAE8"/>
<path d="M196.378 75.1189C195.554 74.7456 193.385 74.52 194.134 75.0437C194.883 75.5673 196.528 75.7177 196.528 75.7177L196.378 75.1189Z" fill="#A4EAE8"/>
<path d="M198.327 74.3891C197.503 74.0159 195.334 73.7903 196.083 74.3139C196.832 74.8376 198.477 74.988 198.477 74.988L198.327 74.3891Z" fill="#A4EAE8"/>
<path d="M196.378 72.7792C195.554 72.4059 193.385 72.1803 194.134 72.704C194.883 73.2276 196.528 73.378 196.528 73.378L196.378 72.7792Z" fill="#A4EAE8"/>
<path d="M128.936 180.3C128.112 179.927 125.943 179.701 126.692 180.225C127.441 180.748 129.086 180.899 129.086 180.899L128.936 180.3Z" fill="#A4EAE8"/>
<path d="M130.156 181.762C129.331 181.389 127.162 181.163 127.911 181.687C128.66 182.211 130.306 182.361 130.306 182.361L130.156 181.762Z" fill="#A4EAE8"/>
<path d="M132.105 181.03C131.28 180.657 129.111 180.431 129.86 180.955C130.609 181.478 132.255 181.629 132.255 181.629L132.105 181.03Z" fill="#A4EAE8"/>
<path d="M130.156 179.42C129.331 179.047 127.162 178.821 127.911 179.345C128.66 179.868 130.306 180.019 130.306 180.019L130.156 179.42Z" fill="#A4EAE8"/>
<path d="M128.477 254.522H93.2451C70.0452 254.522 51.1696 235.64 51.1696 212.432V141.441C51.1696 135.336 53.5475 129.595 57.8633 125.281C62.1736 120.963 67.9123 118.587 74.0186 118.587C82.6253 118.587 89.6254 111.585 89.6254 102.975V73.7067C89.6254 61.1057 99.8749 50.8527 112.472 50.8527H176.775C197.561 50.8527 214.471 67.7683 214.471 88.5611V247.508L141.95 240.573C135.41 239.952 129.524 244.756 128.822 251.285L128.477 254.522ZM112.472 58.0947C103.865 58.0947 96.8649 65.0971 96.8649 73.7067V102.975C96.8649 115.576 86.6154 125.829 74.0186 125.829C69.8475 125.829 65.9298 127.453 62.9839 130.403C60.0352 133.353 58.4091 137.272 58.4091 141.441V212.432C58.4091 231.648 74.0353 247.28 93.2451 247.28H122.256C124.762 238.52 133.285 232.473 142.641 233.364L207.234 239.542V88.5611C207.234 71.7625 193.571 58.0947 176.778 58.0947H112.474H112.472Z" fill="#FFFBB4"/>
<path d="M137.771 297.993L137.562 297.974C126.377 296.904 118.146 286.93 119.213 275.738L121.602 250.736C121.61 250.653 121.618 250.564 121.63 250.472C122.771 240.038 132.185 232.37 142.638 233.364L211.194 239.921L231.476 241.86C236.284 242.319 240.711 244.545 243.947 248.127C247.16 251.684 248.931 256.274 248.931 261.051C248.931 261.652 248.901 262.273 248.842 262.9C248.349 268.039 245.893 272.671 241.92 275.952C237.952 279.228 232.951 280.766 227.833 280.284L201.894 278.203C187.618 277.058 173.364 281.03 161.764 289.389C158.284 291.893 154.698 293.879 151.1 295.291C146.779 296.993 142.363 297.901 137.974 297.99L137.765 297.996L137.771 297.993Z" fill="#FFFBB4"/>
<path d="M137.119 56.4485C136.198 56.4485 135.449 55.6993 135.449 54.7773C135.449 39.4522 129.323 27.4111 117.239 18.9909C102.868 8.97749 79.9272 3.89976 49.0534 3.89976H1.67066C0.749013 3.89976 0 3.15049 0 2.22853C0 1.30658 0.749013 0.557312 1.67066 0.557312H49.0506C80.6205 0.557312 104.202 5.83559 119.146 16.2473C132.18 25.3276 138.787 38.2907 138.787 54.7773C138.787 55.6993 138.038 56.4485 137.117 56.4485H137.119Z" fill="#FFFBB4"/>
<path d="M93.2451 104.875H2.1858C1.26415 104.875 0.515137 104.126 0.515137 103.204C0.515137 102.282 1.26415 101.533 2.1858 101.533H93.2451C94.1668 101.533 94.9158 102.282 94.9158 103.204C94.9158 104.126 94.1668 104.875 93.2451 104.875Z" fill="#FFFBB4"/>
<path d="M292.173 220.276H210.25C209.328 220.276 208.579 219.526 208.579 218.604C208.579 217.682 209.328 216.933 210.25 216.933H292.173C293.095 216.933 293.844 217.682 293.844 218.604C293.844 219.526 293.095 220.276 292.173 220.276Z" fill="#FFFBB4"/>
<path d="M90.2379 314.945C90.2379 296.472 105.263 281.442 123.729 281.442V288.684C109.256 288.684 97.4774 300.464 97.4774 314.945H90.2379Z" fill="#FFFBB4"/>
<path d="M210.25 97.1484C209.328 97.1484 208.579 96.3991 208.579 95.4772C208.579 94.5552 209.328 93.8059 210.25 93.8059C241.419 93.8059 266.777 68.4396 266.777 37.2629V33.1406C266.777 32.2186 267.526 31.4693 268.447 31.4693C269.369 31.4693 270.118 32.2186 270.118 33.1406V37.2629C270.118 53.2593 263.892 68.2975 252.584 79.6089C241.277 90.9203 226.244 97.1484 210.253 97.1484H210.25Z" fill="#FFFBB4"/>
<path d="M126.458 202.483H53.5196C52.598 202.483 51.8489 201.733 51.8489 200.811C51.8489 199.89 52.598 199.14 53.5196 199.14H126.458C132.002 199.14 136.512 194.628 136.512 189.082V142.422C136.512 135.032 142.521 129.021 149.908 129.021H211.01C211.932 129.021 212.681 129.771 212.681 130.693C212.681 131.615 211.932 132.364 211.01 132.364H149.908C144.365 132.364 139.854 136.876 139.854 142.422V189.082C139.854 196.472 133.845 202.483 126.458 202.483Z" fill="#FFFBB4"/>
<path d="M170.196 56.9778V68.2251C170.196 75.6147 164.187 81.6255 156.8 81.6255H124.963C124.041 81.6255 123.292 80.8763 123.292 79.9543C123.292 79.0323 124.041 78.2831 124.963 78.2831H156.8C162.344 78.2831 166.854 73.7708 166.854 68.2251V56.9778H170.196Z" fill="#FFFBB4"/>
<path d="M153.021 241.361C152.423 241.355 151.849 241.027 151.554 240.456C147.16 231.946 139.247 222.306 129.846 214.006C125.873 210.496 121.936 207.499 118.464 205.332C113.844 202.452 111.89 202.21 111.402 202.204C110.481 202.193 109.74 201.438 109.751 200.513C109.762 199.589 110.946 199.118 111.867 199.129C116.581 199.182 125.494 205.703 132.06 211.499C141.761 220.064 149.95 230.058 154.525 238.921C154.948 239.74 154.628 240.748 153.807 241.172C153.556 241.302 153.286 241.361 153.021 241.358V241.361Z" fill="#FFFBB4"/>
<path d="M270.107 112.131H213.547C206.647 112.131 207.493 108.788 213.547 108.788H270.107C271.028 108.788 271.777 109.538 271.777 110.46C271.777 111.382 271.028 112.131 270.107 112.131Z" fill="#FFFBB4"/>
<path d="M277.04 129.448H213.547C206.647 129.448 207.493 126.105 213.547 126.105H277.04C277.962 126.105 278.711 126.854 278.711 127.776C278.711 128.698 277.962 129.448 277.04 129.448Z" fill="#FFFBB4"/>
<path d="M138.609 155.886V159.229H106.844C99.46 159.229 93.4484 153.215 93.4484 145.826V99.3237C93.4484 98.4018 94.1974 97.6525 95.119 97.6525C96.0407 97.6525 96.7897 98.4018 96.7897 99.3237V145.826C96.7897 151.374 101.3 155.886 106.844 155.886H138.609Z" fill="#FFFBB4"/>
</svg>
