<svg width="280" height="325" viewBox="0 0 280 325" fill="none" xmlns="http://www.w3.org/2000/svg">
<path d="M209.471 178.42V97.0007C223.872 96.0064 237.274 89.9175 247.582 79.6061C258.391 68.7961 264.558 54.574 265.076 39.3659C264.026 38.6528 262.924 38.001 261.774 37.4133C261.693 67.1026 238.624 91.4857 209.471 93.65V88.5611C209.471 80.6256 207.007 73.2527 202.805 67.1722C200.692 64.1139 198.138 61.3814 195.237 59.0696C188.794 53.9278 180.635 50.8527 171.775 50.8527H133.659C132.679 36.224 126.127 24.5978 114.146 16.2473C99.2019 5.83559 75.6205 0.557312 44.0506 0.557312H0.735962C0.958717 1.70767 1.27893 2.82739 1.68545 3.89976C4.62025 11.657 12.1132 17.172 20.898 17.172H21.3658C26.2191 17.172 30.1507 21.1078 30.1507 25.9627V50.7747C30.1507 55.6296 26.2191 59.5654 21.3658 59.5654H21.1654C11.0022 59.5654 2.76025 67.8073 2.76025 77.9767V104.875H84.5112C83.5701 112.593 76.9821 118.587 69.0186 118.587C62.9124 118.587 57.1736 120.966 52.8633 125.281C48.5475 129.595 46.1696 135.336 46.1696 141.441V212.432C46.1696 235.64 65.0452 254.522 88.2451 254.522H116.24L114.213 275.738C114.018 277.782 114.132 279.788 114.519 281.707C100.327 283.492 88.8689 294.202 85.9591 308.023C88.0809 309.686 90.2889 311.24 92.5777 312.683C102.98 319.248 114.998 323.485 127.901 324.663C130.332 324.886 132.793 325 135.28 325C139.314 325 143.279 324.702 147.153 324.125C149.419 323.791 151.655 323.359 153.855 322.836C156.38 322.237 158.856 321.518 161.281 320.685C169.545 317.853 177.197 313.705 183.993 308.497C188.73 304.865 194.499 302.837 200.466 302.837H243.603C262.968 302.837 278.778 287.606 279.714 268.465H279.758V178.42H209.471ZM202.232 178.42H134.854V142.422C134.854 136.876 139.365 132.364 144.908 132.364H202.232V178.42ZM202.232 88.5611V129.021H144.908C137.521 129.021 131.512 135.032 131.512 142.422V155.886H114.427V94.8532H153.688C171.667 94.8532 187.744 86.55 198.286 73.5758C200.798 78.0017 202.232 83.1157 202.232 88.5611ZM171.775 58.0947C179.229 58.0947 186.062 60.7854 191.361 65.2475C182.813 76.7818 169.108 84.2688 153.688 84.2688H114.188C113.319 74.7484 110.134 65.891 105.197 58.2618C105.94 58.1504 106.7 58.0947 107.472 58.0947H171.775ZM53.4091 141.441C53.4091 137.272 55.0324 133.35 57.9839 130.403C60.9298 127.453 64.8475 125.829 69.0186 125.829C77.2132 125.829 84.4165 121.49 88.4484 114.986V145.826C88.4484 153.215 94.46 159.229 101.844 159.229H103.846V161.632C103.846 176.726 116.12 189.004 131.209 189.004H131.512V189.082C131.512 194.628 127.002 199.14 121.455 199.14H107.126C107.037 199.135 106.951 199.129 106.865 199.129C106.767 199.129 106.67 199.132 106.57 199.14H53.4091V141.441ZM88.2451 247.28C69.0353 247.28 53.4091 231.648 53.4091 212.432V202.483H121.455C128.842 202.483 134.854 196.472 134.854 189.082V189.004H202.232V239.542L146.838 234.244L142.586 233.838L137.638 233.364C136.825 233.286 136.015 233.261 135.219 233.289C135.213 233.286 135.207 233.286 135.202 233.289C134.987 233.294 134.773 233.306 134.561 233.32C134.489 233.322 134.419 233.328 134.347 233.336C134.233 233.342 134.119 233.353 134.007 233.364C133.932 233.37 133.857 233.378 133.782 233.389C133.773 233.386 133.765 233.389 133.757 233.392C133.668 233.4 133.579 233.411 133.489 233.423C133.398 233.431 133.306 233.442 133.217 233.456C133.15 233.464 133.086 233.473 133.022 233.484C132.907 233.501 132.796 233.517 132.685 233.537C132.54 233.559 132.392 233.587 132.248 233.615C132.103 233.64 131.958 233.671 131.813 233.701C131.685 233.729 131.554 233.757 131.426 233.79C131.354 233.807 131.281 233.824 131.209 233.843C131.084 233.871 130.958 233.904 130.833 233.941C130.68 233.982 130.524 234.024 130.371 234.072C130.173 234.127 129.978 234.189 129.786 234.255C129.716 234.278 129.647 234.3 129.577 234.325C129.508 234.347 129.441 234.372 129.374 234.397C129.307 234.42 129.24 234.445 129.174 234.47C128.987 234.537 128.8 234.609 128.617 234.687C128.55 234.715 128.48 234.743 128.413 234.771C128.196 234.86 127.982 234.955 127.767 235.055C127.656 235.105 127.545 235.158 127.436 235.211C127.327 235.264 127.219 235.317 127.113 235.372C126.963 235.45 126.812 235.528 126.665 235.609C126.59 235.648 126.517 235.69 126.445 235.729C126.372 235.771 126.297 235.812 126.225 235.854C126.083 235.935 125.944 236.019 125.807 236.102C125.668 236.186 125.531 236.272 125.395 236.358C124.924 236.662 124.468 236.985 124.025 237.33C123.866 237.45 123.71 237.576 123.557 237.704C123.404 237.829 123.251 237.96 123.101 238.094C122.881 238.283 122.666 238.481 122.455 238.684C122.382 238.754 122.313 238.821 122.243 238.89C122.182 238.949 122.121 239.01 122.059 239.074C121.998 239.135 121.94 239.199 121.878 239.261C121.734 239.411 121.592 239.564 121.452 239.718C121.313 239.871 121.177 240.027 121.046 240.185C120.982 240.258 120.92 240.33 120.862 240.406C120.778 240.509 120.695 240.612 120.614 240.715C120.483 240.882 120.355 241.052 120.23 241.224C120.199 241.263 120.171 241.302 120.144 241.341C120.091 241.414 120.038 241.489 119.988 241.561C119.896 241.692 119.804 241.826 119.715 241.96C119.562 242.191 119.411 242.425 119.269 242.662C119.211 242.756 119.155 242.851 119.099 242.949C118.905 243.286 118.718 243.628 118.545 243.976C118.495 244.077 118.445 244.177 118.398 244.277C118.345 244.383 118.295 244.492 118.247 244.6C118.217 244.659 118.192 244.717 118.167 244.779C118.142 244.837 118.114 244.898 118.089 244.96C118.08 244.974 118.072 244.987 118.069 245.001C118.033 245.079 118 245.157 117.969 245.238C117.924 245.341 117.883 245.447 117.841 245.55C117.813 245.625 117.782 245.703 117.755 245.779C117.679 245.973 117.61 246.171 117.543 246.369C117.487 246.536 117.432 246.703 117.379 246.873C117.334 247.007 117.295 247.143 117.256 247.28H88.2451Z" fill="#BBE8A3"/>
</svg>
