<svg width="26" height="26" viewBox="0 0 26 26" fill="none" xmlns="http://www.w3.org/2000/svg">
<path d="M13 0C9.55219 0 6.24559 1.36966 3.80762 3.80763C1.36964 6.2456 0 9.55219 0 13C0 16.4478 1.36964 19.7545 3.80762 22.1924C6.24559 24.6304 9.55219 26 13 26C16.4478 26 19.7544 24.6304 22.1924 22.1924C24.6304 19.7545 26 16.4478 26 13C26 9.55219 24.6304 6.2456 22.1924 3.80763C19.7544 1.36966 16.4478 0 13 0ZM14.0679 18.3765C13.9406 18.5936 13.7579 18.7731 13.5386 18.8965C13.3263 19.0263 13.0817 19.0939 12.8329 19.0915C12.6419 19.0942 12.4522 19.0586 12.2752 18.9869C12.0982 18.9151 11.9373 18.8086 11.8021 18.6736C11.6675 18.5402 11.561 18.3809 11.4892 18.2054C11.4175 18.0299 11.3818 17.8417 11.3843 17.6522C11.3819 17.464 11.4178 17.2773 11.4896 17.1033C11.5614 16.9293 11.6677 16.7718 11.8021 16.64C11.9373 16.5051 12.0982 16.3986 12.2752 16.3268C12.4522 16.255 12.6419 16.2194 12.8329 16.2222C13.0194 16.2216 13.2042 16.2583 13.3764 16.33C13.5486 16.4018 13.7048 16.5072 13.8357 16.64C13.9744 16.7695 14.0847 16.9262 14.1598 17.1004C14.235 17.2746 14.2732 17.4625 14.2721 17.6522C14.2748 17.9082 14.2039 18.1596 14.0679 18.3765ZM16.9371 11.0222C16.7794 11.369 16.559 11.6838 16.2871 11.9508C15.9927 12.2427 15.6619 12.4955 15.3029 12.7029C15.0209 12.8704 14.7592 13.0698 14.5229 13.2971C14.3269 13.4989 14.1751 13.7392 14.0771 14.0029C13.97 14.3231 13.9166 14.6588 13.9193 14.9965V15.2008H11.635V14.9965C11.6273 14.4332 11.6929 13.8714 11.83 13.325C11.925 12.949 12.1098 12.6017 12.3686 12.3129C12.6199 12.0398 12.9073 11.8024 13.2229 11.6071C13.4574 11.4596 13.6809 11.2952 13.8914 11.115C14.0774 10.9481 14.2371 10.754 14.365 10.5393C14.4789 10.3185 14.5363 10.0728 14.5321 9.8243C14.5371 9.56928 14.4694 9.31813 14.3371 9.10005C14.2083 8.89364 14.0252 8.72659 13.8079 8.61717C13.5767 8.50408 13.3223 8.44683 13.065 8.45003C12.808 8.44916 12.554 8.50629 12.3221 8.61717C12.0924 8.73557 11.8972 8.91153 11.7557 9.12787C11.5988 9.37504 11.5151 9.66157 11.5143 9.95432H9.05357C9.04306 9.24801 9.24705 8.55511 9.63858 7.96716C9.99724 7.44226 10.5004 7.03266 11.0871 6.78791C11.7163 6.52578 12.3928 6.39615 13.0743 6.40717C13.8021 6.39338 14.5252 6.52599 15.2007 6.79715C15.7812 7.03011 16.2813 7.427 16.64 7.93933C17.0035 8.46825 17.1889 9.09928 17.1693 9.74076C17.1786 10.1792 17.0997 10.6149 16.9371 11.0222Z" fill="#121212"/>
</svg>
