<svg width="42" height="24" viewBox="0 0 42 24" fill="none" xmlns="http://www.w3.org/2000/svg">
<path fill-rule="evenodd" clip-rule="evenodd" d="M42 12.1173C42 12.43 41.7263 12.7036 41.4134 12.7036C41.1006 12.7036 40.8268 12.43 40.8268 12.1173C40.8268 11.8046 41.1006 11.5309 41.4134 11.5309C41.7263 11.5309 42 11.7655 42 12.1173Z" fill="white"/>
<path fill-rule="evenodd" clip-rule="evenodd" d="M19.8268 14.3062C19.553 14.3062 19.3184 14.0717 19.3184 13.798V10.241C19.3184 9.96743 19.553 9.7329 19.8268 9.7329C20.1005 9.7329 20.3352 9.96743 20.3352 10.241V13.798C20.3352 14.0717 20.1005 14.3062 19.8268 14.3062ZM21.1173 13.798V10.1629C21.1173 9.4202 20.5307 8.91205 19.7877 8.91205C19.0447 8.91205 18.4581 9.45928 18.4581 10.1629V13.798C18.4581 14.5407 18.9665 15.0489 19.7877 15.0489C20.648 15.0879 21.1173 14.5407 21.1173 13.798ZM24.5586 9.14658V14.8534C24.5586 14.9316 24.6368 15.0098 24.715 15.0098H26.3184C26.3966 15.0098 26.4748 14.9316 26.4748 14.8534V14.3453C26.4748 14.2671 26.3966 14.1889 26.3184 14.1889H25.3799V12.43H26.0447C26.1229 12.43 26.2011 12.3518 26.2011 12.2736V11.7655C26.2011 11.6873 26.1229 11.6091 26.0447 11.6091H25.3799V9.85016H26.3184C26.3966 9.85016 26.4748 9.77199 26.4748 9.69381V9.18567C26.4748 9.10749 26.3966 9.02932 26.3184 9.02932H24.715C24.5977 8.99023 24.5586 9.0684 24.5586 9.14658ZM16.3463 9.14658V14.8534C16.3463 14.9316 16.4246 15.0098 16.5028 15.0098H17.9888C18.067 15.0098 18.1452 14.9316 18.1452 14.8143V14.3453C18.1452 14.2671 18.067 14.1498 17.9888 14.1498H17.1285V9.14658C17.1285 9.0684 17.0503 8.95114 16.972 8.95114H16.5419C16.4246 8.99023 16.3463 9.0684 16.3463 9.14658ZM15.5642 8.99023H14.6648C14.0782 8.99023 13.5698 9.45928 13.5698 10.0847V13.9153C13.5698 14.5016 14.0391 15.0098 14.6648 15.0098H15.5642C15.6424 15.0098 15.7206 14.9316 15.7206 14.8534V14.3453C15.7206 14.2671 15.6424 14.1889 15.5642 14.1889H14.8212C14.6257 14.1889 14.4301 13.9935 14.4301 13.798V10.241C14.4301 10.0065 14.6257 9.85016 14.8212 9.85016H15.5642C15.6424 9.85016 15.7206 9.77199 15.7206 9.69381V9.18567C15.7598 9.0684 15.6815 8.99023 15.5642 8.99023ZM23.5419 8.99023H22.9553C22.2123 8.99023 21.6257 9.53746 21.6257 10.3583C21.6257 11.3355 22.0949 11.8436 22.5642 12.43C23.0335 13.0163 23.1117 13.1726 23.1117 13.5635C23.1117 14.0326 22.9162 14.1498 22.5251 14.1498H22.0558C21.9776 14.1498 21.8994 14.228 21.8994 14.3062L21.8603 14.8143C21.8603 14.8925 21.9385 14.9707 22.0167 14.9707H22.7597C23.6983 14.9707 23.9329 14.3844 23.9329 13.5244C23.9329 12.7036 23.7765 12.5863 23.229 11.8046C22.6815 11.0619 22.486 10.9837 22.486 10.3583C22.486 9.69381 23.0335 9.77199 23.0335 9.77199H23.6201C23.6983 9.77199 23.7765 9.69381 23.7765 9.61564V9.10749C23.6983 9.02932 23.581 8.99023 23.5419 8.99023ZM12.7095 8.99023H12.1229C11.3799 8.99023 10.7933 9.53746 10.7933 10.3583C10.7933 11.3355 11.2626 11.8436 11.7318 12.43C12.2011 13.0163 12.2793 13.1726 12.2793 13.5635C12.2793 14.0326 12.0838 14.1498 11.6927 14.1498H11.1843C11.1061 14.1498 11.0279 14.228 11.0279 14.3062L10.9888 14.8143C10.9888 14.8925 11.067 14.9707 11.1452 14.9707H11.8883C12.8268 14.9707 13.0614 14.3844 13.0614 13.5244C13.0614 12.7036 12.905 12.5863 12.3575 11.8046C11.81 11.0619 11.6145 10.9837 11.6145 10.3583C11.6145 9.69381 12.162 9.77199 12.162 9.77199H12.7486C12.8268 9.77199 12.905 9.69381 12.905 9.61564V9.10749C12.8659 9.02932 12.8268 8.99023 12.7095 8.99023ZM10.2458 13.6808V9.14658C10.2458 9.0684 10.1676 8.95114 10.0503 8.95114H9.6201C9.54189 8.95114 9.42457 9.02932 9.42457 9.14658V13.6808C9.42457 13.759 9.50278 13.8762 9.6201 13.8762H10.0503C10.2067 13.8371 10.2458 13.759 10.2458 13.6808ZM7.31284 9.81108C7.62569 9.81108 7.86032 10.0456 7.86032 10.3583V13.7199C7.86032 14.0326 7.62569 14.2671 7.31284 14.2671H6.92178V9.81108H7.31284ZM6.37429 8.99023C6.29608 8.99023 6.17876 9.0684 6.17876 9.18567V14.8534C6.17876 14.9316 6.25698 15.0489 6.37429 15.0489H7.46926C8.13407 15.0489 8.68155 14.5016 8.68155 13.8371V10.202C8.68155 9.53746 8.13407 8.99023 7.46926 8.99023H6.37429ZM9.85473 14.4235C9.50278 14.4235 9.22904 14.6971 9.22904 15.0489C9.22904 15.4007 9.50278 15.6743 9.85473 15.6743C10.2067 15.6743 10.4804 15.4007 10.4804 15.0489C10.4804 14.6971 10.2067 14.4235 9.85473 14.4235ZM0 11.9609L9.85473 0L39.1843 11.6482C39.458 11.7655 39.458 12.1954 39.1843 12.3127L9.85473 24L0 11.9609Z" fill="white"/>
</svg>
