<svg width="28" height="23" viewBox="0 0 28 23" fill="none" xmlns="http://www.w3.org/2000/svg">
<path d="M27.8933 2.66667C26.8667 3.13333 25.76 3.44 24.6133 3.58667C25.7867 2.88 26.6933 1.76 27.12 0.413333C26.0133 1.08 24.7867 1.54667 23.4933 1.81333C22.44 0.666667 20.96 0 19.28 0C16.1467 0 13.5867 2.56 13.5867 5.72C13.5867 6.17333 13.64 6.61333 13.7333 7.02667C8.98667 6.78667 4.76 4.50667 1.94667 1.05333C1.45333 1.89333 1.17333 2.88 1.17333 3.92C1.17333 5.90667 2.17333 7.66667 3.72 8.66667C2.77333 8.66667 1.89333 8.4 1.12 8V8.04C1.12 10.8133 3.09333 13.1333 5.70667 13.6533C4.86764 13.8829 3.98679 13.9149 3.13333 13.7467C3.49548 14.8833 4.20472 15.8779 5.16136 16.5906C6.11799 17.3033 7.27393 17.6983 8.46667 17.72C6.44484 19.3206 3.93866 20.1858 1.36 20.1733C0.906667 20.1733 0.453333 20.1467 0 20.0933C2.53333 21.72 5.54667 22.6667 8.77333 22.6667C19.28 22.6667 25.0533 13.9467 25.0533 6.38667C25.0533 6.13333 25.0533 5.89333 25.04 5.64C26.16 4.84 27.12 3.82667 27.8933 2.66667Z" fill="#121212"/>
</svg>
