<svg width="220" height="130" viewBox="0 0 220 130" fill="none" xmlns="http://www.w3.org/2000/svg">
<path d="M1.99977 128.031C10.1423 117.175 16.7306 105.96 25.4194 95.4371C32.4748 86.8923 36.7169 75.3934 44.131 67.4301C52.0699 58.9032 66.5335 86.4838 71.5948 92.1777C81.1108 102.883 84.0419 91.5688 92.6604 84.8138C100.745 78.4772 110.302 72.8455 117.589 65.559C129.208 53.9399 144.413 89.5576 156.038 90.0048C161.889 90.2298 163.493 86.6186 167.386 82.6408C170.992 78.9562 173.603 75.4546 176.319 71.0517C183.077 60.0991 191.233 50.0266 197.687 38.8799C204.677 26.8048 209.809 13.2 218.209 2" stroke="white" stroke-width="3" stroke-linecap="round"/>
</svg>
