<svg width="184" height="184" viewBox="0 0 184 184" fill="none" xmlns="http://www.w3.org/2000/svg">
<rect width="184" height="184" fill="white"/>
<path d="M17.9773 87.2727V95.9999H16.9545L12.1989 89.1477H12.1136V95.9999H11.0568V87.2727H12.0795L16.8523 94.142H16.9375V87.2727H17.9773Z" fill="black"/>
<path d="M172.829 90.4546C172.778 90.0228 172.571 89.6876 172.207 89.4489C171.844 89.2103 171.397 89.091 170.869 89.091C170.483 89.091 170.145 89.1535 169.855 89.2785C169.568 89.4035 169.344 89.5753 169.182 89.7941C169.022 90.0128 168.943 90.2614 168.943 90.5398C168.943 90.7728 168.998 90.9731 169.109 91.1407C169.223 91.3055 169.368 91.4432 169.544 91.554C169.72 91.662 169.905 91.7515 170.098 91.8225C170.291 91.8907 170.469 91.9461 170.63 91.9887L171.517 92.2273C171.744 92.287 171.997 92.3694 172.275 92.4745C172.557 92.5796 172.825 92.7231 173.081 92.9049C173.339 93.0839 173.552 93.314 173.72 93.5952C173.888 93.8765 173.971 94.2217 173.971 94.6307C173.971 95.1023 173.848 95.5285 173.601 95.9092C173.356 96.2898 172.998 96.5924 172.527 96.8168C172.058 97.0413 171.488 97.1535 170.818 97.1535C170.193 97.1535 169.652 97.0526 169.194 96.8509C168.74 96.6492 168.382 96.368 168.12 96.0072C167.862 95.6464 167.716 95.2273 167.682 94.7501H168.772C168.801 95.0796 168.912 95.3523 169.105 95.5682C169.301 95.7813 169.548 95.9404 169.846 96.0455C170.147 96.1478 170.471 96.1989 170.818 96.1989C171.221 96.1989 171.584 96.1336 171.905 96.0029C172.226 95.8694 172.48 95.6847 172.667 95.4489C172.855 95.2103 172.949 94.9319 172.949 94.6137C172.949 94.3239 172.868 94.0881 172.706 93.9063C172.544 93.7245 172.331 93.5768 172.067 93.4631C171.802 93.3495 171.517 93.2501 171.21 93.1648L170.136 92.858C169.454 92.662 168.915 92.3822 168.517 92.0185C168.119 91.6549 167.92 91.179 167.92 90.591C167.92 90.1023 168.052 89.6762 168.317 89.3126C168.584 88.9461 168.942 88.662 169.39 88.4603C169.842 88.2557 170.346 88.1535 170.903 88.1535C171.466 88.1535 171.966 88.2543 172.403 88.456C172.841 88.6549 173.187 88.9276 173.443 89.2742C173.701 89.6208 173.838 90.0143 173.852 90.4546H172.829Z" fill="black"/>
<path d="M90.076 20V9.09091H97.1712V10.7475H92.0522V13.7092H96.8036V15.3658H92.0522V18.3434H97.2138V20H90.076Z" fill="#F9DA1B"/>
<path d="M38.9773 29.2727V38H37.9545L33.1989 31.1477H33.1136V38H32.0568V29.2727H33.0795L37.8523 36.142H37.9375V29.2727H38.9773ZM44.7056 33.1676V34.1051H40.8874V33.1676H44.7056ZM46.6115 38V29.2727H51.8785V30.2102H47.6683V33.1591H51.6058V34.0966H47.6683V37.0625H51.9467V38H46.6115Z" fill="black"/>
<path d="M139.33 35.9545C139.278 35.5227 139.071 35.1875 138.707 34.9489C138.344 34.7102 137.898 34.5909 137.369 34.5909C136.983 34.5909 136.645 34.6534 136.355 34.7784C136.068 34.9034 135.844 35.0753 135.682 35.294C135.523 35.5128 135.443 35.7614 135.443 36.0398C135.443 36.2727 135.499 36.473 135.609 36.6406C135.723 36.8054 135.868 36.9432 136.044 37.054C136.22 37.1619 136.405 37.2514 136.598 37.3224C136.791 37.3906 136.969 37.446 137.131 37.4886L138.017 37.7273C138.244 37.7869 138.497 37.8693 138.776 37.9744C139.057 38.0795 139.325 38.223 139.581 38.4048C139.839 38.5838 140.053 38.8139 140.22 39.0952C140.388 39.3764 140.472 39.7216 140.472 40.1307C140.472 40.6023 140.348 41.0284 140.101 41.4091C139.857 41.7898 139.499 42.0923 139.027 42.3168C138.558 42.5412 137.989 42.6534 137.318 42.6534C136.693 42.6534 136.152 42.5526 135.695 42.3509C135.24 42.1491 134.882 41.8679 134.621 41.5071C134.362 41.1463 134.216 40.7273 134.182 40.25H135.273C135.301 40.5795 135.412 40.8523 135.605 41.0682C135.801 41.2812 136.048 41.4403 136.347 41.5455C136.648 41.6477 136.972 41.6989 137.318 41.6989C137.722 41.6989 138.084 41.6335 138.405 41.5028C138.726 41.3693 138.98 41.1847 139.168 40.9489C139.355 40.7102 139.449 40.4318 139.449 40.1136C139.449 39.8239 139.368 39.5881 139.206 39.4062C139.044 39.2244 138.831 39.0767 138.567 38.9631C138.303 38.8494 138.017 38.75 137.71 38.6648L136.636 38.358C135.955 38.1619 135.415 37.8821 135.017 37.5185C134.619 37.1548 134.42 36.679 134.42 36.0909C134.42 35.6023 134.553 35.1761 134.817 34.8125C135.084 34.446 135.442 34.1619 135.891 33.9602C136.342 33.7557 136.847 33.6534 137.403 33.6534C137.966 33.6534 138.466 33.7543 138.903 33.956C139.341 34.1548 139.687 34.4276 139.943 34.7741C140.202 35.1207 140.338 35.5142 140.352 35.9545H139.33ZM145.823 37.6676V38.6051H142.005V37.6676H145.823ZM147.729 42.5V33.7727H152.996V34.7102H148.786V37.6591H152.723V38.5966H148.786V41.5625H153.064V42.5H147.729Z" fill="black"/>
<path d="M37.977 144.273V153H36.9543L32.1986 146.148H32.1134V153H31.0566V144.273H32.0793L36.852 151.142H36.9373V144.273H37.977ZM43.7054 148.168V149.105H39.8872V148.168H43.7054ZM52.9749 148.636C52.9749 149.557 52.8087 150.352 52.4763 151.023C52.1439 151.693 51.688 152.21 51.1084 152.574C50.5289 152.937 49.8669 153.119 49.1226 153.119C48.3783 153.119 47.7164 152.937 47.1368 152.574C46.5573 152.21 46.1013 151.693 45.7689 151.023C45.4365 150.352 45.2704 149.557 45.2704 148.636C45.2704 147.716 45.4365 146.92 45.7689 146.25C46.1013 145.58 46.5573 145.062 47.1368 144.699C47.7164 144.335 48.3783 144.153 49.1226 144.153C49.8669 144.153 50.5289 144.335 51.1084 144.699C51.688 145.062 52.1439 145.58 52.4763 146.25C52.8087 146.92 52.9749 147.716 52.9749 148.636ZM51.9522 148.636C51.9522 147.881 51.8257 147.243 51.5729 146.723C51.3229 146.203 50.9834 145.81 50.5544 145.543C50.1283 145.276 49.651 145.142 49.1226 145.142C48.5942 145.142 48.1155 145.276 47.6865 145.543C47.2604 145.81 46.9209 146.203 46.6681 146.723C46.4181 147.243 46.2931 147.881 46.2931 148.636C46.2931 149.392 46.4181 150.03 46.6681 150.55C46.9209 151.07 47.2604 151.463 47.6865 151.73C48.1155 151.997 48.5942 152.131 49.1226 152.131C49.651 152.131 50.1283 151.997 50.5544 151.73C50.9834 151.463 51.3229 151.07 51.5729 150.55C51.8257 150.03 51.9522 149.392 51.9522 148.636Z" fill="black"/>
<path d="M137.329 148.955C137.278 148.523 137.071 148.188 136.707 147.949C136.344 147.71 135.897 147.591 135.369 147.591C134.983 147.591 134.645 147.654 134.355 147.779C134.068 147.904 133.844 148.075 133.682 148.294C133.522 148.513 133.443 148.761 133.443 149.04C133.443 149.273 133.498 149.473 133.609 149.641C133.723 149.806 133.868 149.943 134.044 150.054C134.22 150.162 134.405 150.252 134.598 150.323C134.791 150.391 134.969 150.446 135.13 150.489L136.017 150.727C136.244 150.787 136.497 150.869 136.775 150.975C137.057 151.08 137.325 151.223 137.581 151.405C137.839 151.584 138.052 151.814 138.22 152.095C138.388 152.377 138.471 152.722 138.471 153.131C138.471 153.602 138.348 154.029 138.101 154.409C137.856 154.79 137.498 155.092 137.027 155.317C136.558 155.541 135.988 155.654 135.318 155.654C134.693 155.654 134.152 155.553 133.694 155.351C133.24 155.149 132.882 154.868 132.62 154.507C132.362 154.146 132.216 153.727 132.182 153.25H133.272C133.301 153.58 133.412 153.852 133.605 154.068C133.801 154.281 134.048 154.44 134.346 154.546C134.647 154.648 134.971 154.699 135.318 154.699C135.721 154.699 136.084 154.634 136.405 154.503C136.726 154.369 136.98 154.185 137.167 153.949C137.355 153.71 137.449 153.432 137.449 153.114C137.449 152.824 137.368 152.588 137.206 152.406C137.044 152.225 136.831 152.077 136.567 151.963C136.302 151.85 136.017 151.75 135.71 151.665L134.636 151.358C133.954 151.162 133.415 150.882 133.017 150.519C132.619 150.155 132.42 149.679 132.42 149.091C132.42 148.602 132.552 148.176 132.817 147.813C133.084 147.446 133.442 147.162 133.89 146.96C134.342 146.756 134.846 146.654 135.403 146.654C135.966 146.654 136.466 146.754 136.903 146.956C137.341 147.155 137.687 147.428 137.943 147.774C138.201 148.121 138.338 148.514 138.352 148.955H137.329ZM143.823 150.668V151.605H140.004V150.668H143.823ZM153.092 151.136C153.092 152.057 152.926 152.852 152.594 153.523C152.261 154.193 151.805 154.71 151.226 155.074C150.646 155.438 149.984 155.619 149.24 155.619C148.495 155.619 147.834 155.438 147.254 155.074C146.674 154.71 146.219 154.193 145.886 153.523C145.554 152.852 145.388 152.057 145.388 151.136C145.388 150.216 145.554 149.421 145.886 148.75C146.219 148.08 146.674 147.563 147.254 147.199C147.834 146.835 148.495 146.654 149.24 146.654C149.984 146.654 150.646 146.835 151.226 147.199C151.805 147.563 152.261 148.08 152.594 148.75C152.926 149.421 153.092 150.216 153.092 151.136ZM152.069 151.136C152.069 150.381 151.943 149.743 151.69 149.223C151.44 148.703 151.101 148.31 150.672 148.043C150.245 147.776 149.768 147.642 149.24 147.642C148.711 147.642 148.233 147.776 147.804 148.043C147.378 148.31 147.038 148.703 146.785 149.223C146.535 149.743 146.41 150.381 146.41 151.136C146.41 151.892 146.535 152.53 146.785 153.05C147.038 153.57 147.378 153.963 147.804 154.23C148.233 154.497 148.711 154.631 149.24 154.631C149.768 154.631 150.245 154.497 150.672 154.23C151.101 153.963 151.44 153.57 151.69 153.05C151.943 152.53 152.069 151.892 152.069 151.136Z" fill="black"/>
<path d="M95.4202 168.636C95.4202 169.557 95.254 170.352 94.9216 171.023C94.5892 171.693 94.1333 172.21 93.5537 172.574C92.9742 172.937 92.3123 173.119 91.5679 173.119C90.8236 173.119 90.1617 172.937 89.5821 172.574C89.0026 172.21 88.5466 171.693 88.2142 171.023C87.8819 170.352 87.7157 169.557 87.7157 168.636C87.7157 167.716 87.8819 166.92 88.2142 166.25C88.5466 165.58 89.0026 165.062 89.5821 164.699C90.1617 164.335 90.8236 164.153 91.5679 164.153C92.3123 164.153 92.9742 164.335 93.5537 164.699C94.1333 165.062 94.5892 165.58 94.9216 166.25C95.254 166.92 95.4202 167.716 95.4202 168.636ZM94.3975 168.636C94.3975 167.881 94.2711 167.243 94.0182 166.723C93.7682 166.203 93.4287 165.81 92.9998 165.543C92.5736 165.276 92.0963 165.142 91.5679 165.142C91.0395 165.142 90.5608 165.276 90.1319 165.543C89.7057 165.81 89.3662 166.203 89.1134 166.723C88.8634 167.243 88.7384 167.881 88.7384 168.636C88.7384 169.392 88.8634 170.03 89.1134 170.55C89.3662 171.07 89.7057 171.463 90.1319 171.73C90.5608 171.997 91.0395 172.131 91.5679 172.131C92.0963 172.131 92.5736 171.997 92.9998 171.73C93.4287 171.463 93.7682 171.07 94.0182 170.55C94.2711 170.03 94.3975 169.392 94.3975 168.636Z" fill="black"/>
<circle cx="1" cy="1" r="1" transform="matrix(0 1 1 0 24.4998 91.5001)" fill="black"/>
<circle cx="1" cy="1" r="1" transform="matrix(-0.014349 0.999897 0.999897 0.014349 55.3847 119.549)" fill="black"/>
<circle cx="1" cy="1" r="1" transform="matrix(-0.014349 0.999897 0.999897 0.014349 50.5 111.478)" fill="black"/>
<circle cx="1" cy="1" r="1" transform="matrix(-0.014349 0.999897 0.999897 0.014349 46.6439 101.422)" fill="black"/>
<circle cx="1" cy="1" r="1" transform="matrix(-0.769488 0.638661 0.638661 0.769488 47.5394 82.3423)" fill="black"/>
<circle cx="1" cy="1" r="1" transform="matrix(-0.769488 0.638661 0.638661 0.769488 50.502 73.3856)" fill="black"/>
<circle cx="1" cy="1" r="1" transform="matrix(-0.769488 0.638661 0.638661 0.769488 55.6422 63.9211)" fill="black"/>
<circle cx="1" cy="1" r="1" transform="matrix(-0.994355 -0.106107 -0.106107 0.994355 67.7007 53.6014)" fill="black"/>
<circle cx="1" cy="1" r="1" transform="matrix(-0.994355 -0.106107 -0.106107 0.994355 76.1861 49.4785)" fill="black"/>
<circle cx="1" cy="1" r="1" transform="matrix(-0.994355 -0.106107 -0.106107 0.994355 86.5541 46.5621)" fill="black"/>
<circle cx="1" cy="1" r="1" transform="matrix(0.0143491 -0.999897 -0.999897 -0.0143491 129.783 65.8717)" fill="black"/>
<circle cx="1" cy="1" r="1" transform="matrix(0.0143491 -0.999897 -0.999897 -0.0143491 134.667 73.9426)" fill="black"/>
<circle cx="1" cy="1" r="1" transform="matrix(0.0143491 -0.999897 -0.999897 -0.0143491 138.524 83.999)" fill="black"/>
<circle cx="1" cy="1" r="1" transform="matrix(0.0143491 -0.999897 -0.999897 -0.0143491 161.5 93.4999)" fill="black"/>
<circle cx="1" cy="1" r="1" transform="matrix(-0.612359 -0.79058 -0.79058 0.612359 103.705 48.2775)" fill="black"/>
<circle cx="1" cy="1" r="1" transform="matrix(-0.612359 -0.79058 -0.79058 0.612359 112.557 51.5404)" fill="black"/>
<circle cx="1" cy="1" r="1" transform="matrix(-0.612359 -0.79058 -0.79058 0.612359 121.843 56.9967)" fill="black"/>
<circle cx="1" cy="1" r="1" transform="matrix(0.769488 -0.638661 -0.638661 -0.769488 137.628 103.079)" fill="black"/>
<circle cx="1" cy="1" r="1" transform="matrix(0.769488 -0.638661 -0.638661 -0.769488 134.665 112.036)" fill="black"/>
<circle cx="1" cy="1" r="1" transform="matrix(0.769488 -0.638661 -0.638661 -0.769488 129.525 121.5)" fill="black"/>
<circle cx="1" cy="1" r="1" transform="matrix(0.999206 0.0398401 0.0398401 -0.999206 119.22 130.052)" fill="black"/>
<circle cx="1" cy="1" r="1" transform="matrix(0.999206 0.0398401 0.0398401 -0.999206 111.027 134.73)" fill="black"/>
<circle cx="1" cy="1" r="1" transform="matrix(0.999206 0.0398401 0.0398401 -0.999206 100.875 138.328)" fill="black"/>
<circle cx="1" cy="1" r="1" transform="matrix(0.618833 0.785523 0.785523 -0.618833 81.8245 136.946)" fill="black"/>
<circle cx="1" cy="1" r="1" transform="matrix(0.618833 0.785523 0.785523 -0.618833 72.9462 133.756)" fill="black"/>
<circle cx="1" cy="1" r="1" transform="matrix(0.618833 0.785523 0.785523 -0.618833 63.6158 128.377)" fill="black"/>
<path d="M30.4998 92.5H51.9998" stroke="black" stroke-width="0.75"/>
<circle cx="1" cy="1" r="1" transform="matrix(-1 -8.42937e-08 -8.42937e-08 1 93.4998 23.5)" fill="#F9DA1B"/>
<circle cx="1" cy="1" r="1" transform="matrix(-1 -8.42937e-08 -8.42937e-08 1 93.4998 157.5)" fill="black"/>
<circle cx="1" cy="1" r="1" transform="matrix(-1 -8.42937e-08 -8.42937e-08 1 51.4998 135.5)" fill="black"/>
<path d="M133.5 92.5H155" stroke="black" stroke-width="0.75"/>
<path d="M92.7498 29.9089L92.7498 51.4089" stroke="#F9DA1B" stroke-width="0.75"/>
<path d="M92.4998 132L92.4998 153.5" stroke="black" stroke-width="0.75"/>
<path d="M53.9351 53.3442L63.9351 63.3442" stroke="black" stroke-width="0.75"/>
<path d="M121.564 120.974L131.5 132.5" stroke="black" stroke-width="0.75"/>
<path d="M131.5 53.5001L121.564 63.3443" stroke="black" stroke-width="0.75"/>
<path d="M63.9351 120.973L53.4998 132.5" stroke="black" stroke-width="0.75"/>
<path d="M89.8185 95.1813L82.2593 93.0091C81.2466 92.7176 81.2466 91.2825 82.2593 90.991L89.8175 88.8179L91.9907 81.2596C92.2822 80.2469 93.7173 80.2469 94.0088 81.2596L96.182 88.8179L103.74 90.991C104.753 91.2825 104.753 92.7176 103.74 93.0091L96.182 95.1823L94.0088 102.74C93.7173 103.753 92.2822 103.753 91.9907 102.74L89.8175 95.1823L89.8185 95.1813Z" fill="#164194"/>
<circle cx="1" cy="1" r="1" transform="matrix(-1 -8.42937e-08 -8.42937e-08 1 50.4998 47.5)" fill="black"/>
<circle cx="1" cy="1" r="1" transform="matrix(-1 -8.42937e-08 -8.42937e-08 1 136.5 49.5)" fill="black"/>
<circle cx="1" cy="1" r="1" transform="matrix(-1 -8.42937e-08 -8.42937e-08 1 135.5 136.5)" fill="black"/>
</svg>
