<svg width="184" height="184" viewBox="0 0 184 184" fill="none" xmlns="http://www.w3.org/2000/svg">
<rect width="184" height="184" fill="white"/>
<path d="M149.896 33.486V42.2133H148.873L144.117 35.361H144.032V42.2133H142.975V33.486H143.998L148.771 40.3554H148.856V33.486H149.896Z" fill="black"/>
<path d="M37.7324 145.269C37.6812 144.837 37.4739 144.502 37.1102 144.263C36.7466 144.025 36.3006 143.905 35.7721 143.905C35.3858 143.905 35.0477 143.968 34.7579 144.093C34.471 144.218 34.2466 144.39 34.0847 144.609C33.9256 144.827 33.846 145.076 33.846 145.354C33.846 145.587 33.9014 145.788 34.0122 145.955C34.1258 146.12 34.2707 146.258 34.4469 146.368C34.623 146.476 34.8077 146.566 35.0008 146.637C35.194 146.705 35.3716 146.761 35.5335 146.803L36.4199 147.042C36.6471 147.101 36.9 147.184 37.1784 147.289C37.4596 147.394 37.7281 147.538 37.9838 147.719C38.2423 147.898 38.4554 148.128 38.623 148.41C38.7906 148.691 38.8744 149.036 38.8744 149.445C38.8744 149.917 38.7508 150.343 38.5037 150.724C38.2594 151.104 37.9014 151.407 37.4298 151.631C36.9611 151.856 36.3915 151.968 35.721 151.968C35.096 151.968 34.5548 151.867 34.0974 151.665C33.6429 151.464 33.2849 151.182 33.0236 150.822C32.765 150.461 32.6187 150.042 32.5847 149.565H33.6756C33.704 149.894 33.8148 150.167 34.0079 150.383C34.204 150.596 34.4511 150.755 34.7494 150.86C35.0506 150.962 35.3744 151.013 35.721 151.013C36.1244 151.013 36.4866 150.948 36.8077 150.817C37.1287 150.684 37.3829 150.499 37.5704 150.263C37.7579 150.025 37.8517 149.746 37.8517 149.428C37.8517 149.138 37.7707 148.903 37.6088 148.721C37.4469 148.539 37.2338 148.391 36.9696 148.278C36.7054 148.164 36.4199 148.065 36.1131 147.979L35.0392 147.672C34.3574 147.476 33.8176 147.197 33.4199 146.833C33.0222 146.469 32.8233 145.993 32.8233 145.405C32.8233 144.917 32.9554 144.491 33.2196 144.127C33.4866 143.761 33.8446 143.476 34.2935 143.275C34.7452 143.07 35.2494 142.968 35.8062 142.968C36.3687 142.968 36.8687 143.069 37.3062 143.27C37.7437 143.469 38.0903 143.742 38.346 144.089C38.6045 144.435 38.7409 144.829 38.7551 145.269H37.7324Z" fill="black"/>
<path d="M142.561 151.108V142.38H147.828V143.318H143.618V146.267H147.555V147.204H143.618V150.17H147.896V151.108H142.561Z" fill="black"/>
<path d="M165.816 87.5901V96.3174H164.793L160.038 89.4651H159.953V96.3174H158.896V87.5901H159.918L164.691 94.4594H164.776V87.5901H165.816ZM171.544 91.485V92.4225H167.726V91.485H171.544ZM173.45 96.3174V87.5901H178.717V88.5276H174.507V91.4765H178.445V92.414H174.507V95.3799H178.786V96.3174H173.45Z" fill="black"/>
<path d="M86.8615 164.715C86.8104 164.283 86.603 163.948 86.2394 163.709C85.8757 163.47 85.4297 163.351 84.9013 163.351C84.5149 163.351 84.1769 163.414 83.8871 163.539C83.6002 163.664 83.3757 163.835 83.2138 164.054C83.0547 164.273 82.9752 164.522 82.9752 164.8C82.9752 165.033 83.0306 165.233 83.1414 165.401C83.255 165.566 83.3999 165.703 83.576 165.814C83.7522 165.922 83.9368 166.012 84.13 166.083C84.3232 166.151 84.5007 166.206 84.6627 166.249L85.549 166.487C85.7763 166.547 86.0291 166.63 86.3076 166.735C86.5888 166.84 86.8573 166.983 87.1129 167.165C87.3715 167.344 87.5845 167.574 87.7522 167.855C87.9198 168.137 88.0036 168.482 88.0036 168.891C88.0036 169.362 87.88 169.789 87.6328 170.169C87.3885 170.55 87.0306 170.853 86.559 171.077C86.0902 171.301 85.5206 171.414 84.8502 171.414C84.2252 171.414 83.684 171.313 83.2266 171.111C82.772 170.909 82.4141 170.628 82.1527 170.267C81.8942 169.906 81.7479 169.487 81.7138 169.01H82.8047C82.8331 169.34 82.9439 169.612 83.1371 169.828C83.3331 170.041 83.5803 170.201 83.8786 170.306C84.1797 170.408 84.5036 170.459 84.8502 170.459C85.2536 170.459 85.6158 170.394 85.9368 170.263C86.2578 170.13 86.5121 169.945 86.6996 169.709C86.8871 169.47 86.9808 169.192 86.9808 168.874C86.9808 168.584 86.8999 168.348 86.7379 168.166C86.576 167.985 86.3629 167.837 86.0987 167.723C85.8345 167.61 85.549 167.51 85.2422 167.425L84.1683 167.118C83.4865 166.922 82.9468 166.642 82.549 166.279C82.1513 165.915 81.9524 165.439 81.9524 164.851C81.9524 164.362 82.0845 163.936 82.3487 163.573C82.6158 163.206 82.9737 162.922 83.4226 162.72C83.8743 162.516 84.3786 162.414 84.9354 162.414C85.4979 162.414 85.9979 162.514 86.4354 162.716C86.8729 162.915 87.2195 163.188 87.4752 163.534C87.7337 163.881 87.8701 164.274 87.8843 164.715H86.8615ZM93.3548 166.428V167.365H89.5366V166.428H93.3548ZM95.2607 171.26V162.533H100.528V163.47H96.3175V166.419H100.255V167.357H96.3175V170.323H100.596V171.26H95.2607Z" fill="black"/>
<path d="M86.0408 12.0909V23H84.283L79.1428 15.5692H79.0522V23H77.076V12.0909H78.8445L83.9794 19.527H84.0753V12.0909H86.0408ZM93.0681 16.7518V18.3391H88.1569V16.7518H93.0681ZM104.929 17.5455C104.929 18.7209 104.709 19.7276 104.269 20.5657C103.832 21.4002 103.235 22.0394 102.479 22.4833C101.726 22.9272 100.872 23.1491 99.9169 23.1491C98.9616 23.1491 98.1058 22.9272 97.3494 22.4833C96.5966 22.0359 96 21.3949 95.5597 20.5604C95.1229 19.7223 94.9045 18.7173 94.9045 17.5455C94.9045 16.37 95.1229 15.3651 95.5597 14.5305C96 13.6925 96.5966 13.0515 97.3494 12.6076C98.1058 12.1637 98.9616 11.9418 99.9169 11.9418C100.872 11.9418 101.726 12.1637 102.479 12.6076C103.235 13.0515 103.832 13.6925 104.269 14.5305C104.709 15.3651 104.929 16.37 104.929 17.5455ZM102.942 17.5455C102.942 16.718 102.813 16.0202 102.554 15.4521C102.298 14.8803 101.943 14.4489 101.488 14.1577C101.034 13.8629 100.51 13.7156 99.9169 13.7156C99.3239 13.7156 98.8001 13.8629 98.3455 14.1577C97.891 14.4489 97.5341 14.8803 97.2749 15.4521C97.0192 16.0202 96.8913 16.718 96.8913 17.5455C96.8913 18.3729 97.0192 19.0724 97.2749 19.6442C97.5341 20.2124 97.891 20.6438 98.3455 20.9386C98.8001 21.2298 99.3239 21.3754 99.9169 21.3754C100.51 21.3754 101.034 21.2298 101.488 20.9386C101.943 20.6438 102.298 20.2124 102.554 19.6442C102.813 19.0724 102.942 18.3729 102.942 17.5455Z" fill="#F9DA1B"/>
<path d="M9.82954 89.6153C9.77841 89.1834 9.57102 88.8482 9.20739 88.6096C8.84375 88.3709 8.39773 88.2516 7.86932 88.2516C7.48295 88.2516 7.14489 88.3141 6.85511 88.4391C6.56818 88.5641 6.34375 88.736 6.18182 88.9547C6.02273 89.1735 5.94318 89.4221 5.94318 89.7005C5.94318 89.9334 5.99858 90.1337 6.10937 90.3013C6.22301 90.4661 6.3679 90.6039 6.54403 90.7147C6.72017 90.8226 6.90483 90.9121 7.09801 90.9831C7.29119 91.0513 7.46875 91.1067 7.63068 91.1493L8.51705 91.388C8.74432 91.4476 8.99716 91.53 9.27557 91.6351C9.55682 91.7402 9.82528 91.8837 10.081 92.0655C10.3395 92.2445 10.5526 92.4746 10.7202 92.7559C10.8878 93.0371 10.9716 93.3823 10.9716 93.7914C10.9716 94.263 10.848 94.6891 10.6009 95.0698C10.3565 95.4505 9.99858 95.753 9.52699 95.9775C9.05824 96.2019 8.48864 96.3141 7.81818 96.3141C7.19318 96.3141 6.65199 96.2133 6.1946 96.0116C5.74006 95.8099 5.3821 95.5286 5.12074 95.1678C4.86222 94.807 4.71591 94.388 4.68182 93.9107H5.77273C5.80114 94.2402 5.91193 94.513 6.10511 94.7289C6.30114 94.942 6.5483 95.101 6.84659 95.2062C7.14773 95.3084 7.47159 95.3596 7.81818 95.3596C8.22159 95.3596 8.58381 95.2942 8.90483 95.1635C9.22585 95.03 9.48011 94.8454 9.66761 94.6096C9.85511 94.3709 9.94886 94.0925 9.94886 93.7743C9.94886 93.4846 9.8679 93.2488 9.70597 93.067C9.54403 92.8851 9.33097 92.7374 9.06676 92.6238C8.80256 92.5101 8.51705 92.4107 8.21023 92.3255L7.13636 92.0187C6.45455 91.8226 5.91477 91.5428 5.51705 91.1792C5.11932 90.8155 4.92045 90.3397 4.92045 89.7516C4.92045 89.263 5.05256 88.8368 5.31676 88.4732C5.58381 88.1067 5.94176 87.8226 6.39062 87.6209C6.84233 87.4164 7.34659 87.3141 7.90341 87.3141C8.46591 87.3141 8.96591 87.415 9.40341 87.6167C9.84091 87.8155 10.1875 88.0883 10.4432 88.4349C10.7017 88.7814 10.8381 89.1749 10.8523 89.6153H9.82954ZM16.3228 91.3283V92.2658H12.5046V91.3283H16.3228ZM25.5923 91.7971C25.5923 92.7175 25.4261 93.513 25.0937 94.1834C24.7614 94.8539 24.3054 95.3709 23.7259 95.7346C23.1463 96.0982 22.4844 96.28 21.7401 96.28C20.9957 96.28 20.3338 96.0982 19.7543 95.7346C19.1747 95.3709 18.7187 94.8539 18.3864 94.1834C18.054 93.513 17.8878 92.7175 17.8878 91.7971C17.8878 90.8766 18.054 90.0812 18.3864 89.4107C18.7187 88.7403 19.1747 88.2232 19.7543 87.8596C20.3338 87.4959 20.9957 87.3141 21.7401 87.3141C22.4844 87.3141 23.1463 87.4959 23.7259 87.8596C24.3054 88.2232 24.7614 88.7403 25.0937 89.4107C25.4261 90.0812 25.5923 90.8766 25.5923 91.7971ZM24.5696 91.7971C24.5696 91.0414 24.4432 90.4036 24.1903 89.8837C23.9403 89.3638 23.6009 88.9704 23.1719 88.7033C22.7457 88.4363 22.2685 88.3028 21.7401 88.3028C21.2116 88.3028 20.733 88.4363 20.304 88.7033C19.8778 88.9704 19.5384 89.3638 19.2855 89.8837C19.0355 90.4036 18.9105 91.0414 18.9105 91.7971C18.9105 92.5527 19.0355 93.1905 19.2855 93.7104C19.5384 94.2303 19.8778 94.6238 20.304 94.8908C20.733 95.1579 21.2116 95.2914 21.7401 95.2914C22.2685 95.2914 22.7457 95.1579 23.1719 94.8908C23.6009 94.6238 23.9403 94.2303 24.1903 93.7104C24.4432 93.1905 24.5696 92.5527 24.5696 91.7971Z" fill="black"/>
<path d="M41.4446 37.8494C41.4446 38.7699 41.2784 39.5653 40.946 40.2358C40.6137 40.9063 40.1577 41.4233 39.5781 41.7869C38.9986 42.1506 38.3367 42.3324 37.5924 42.3324C36.848 42.3324 36.1861 42.1506 35.6066 41.7869C35.027 41.4233 34.571 40.9063 34.2387 40.2358C33.9063 39.5653 33.7401 38.7699 33.7401 37.8494C33.7401 36.929 33.9063 36.1335 34.2387 35.4631C34.571 34.7926 35.027 34.2756 35.6066 33.9119C36.1861 33.5483 36.848 33.3665 37.5924 33.3665C38.3367 33.3665 38.9986 33.5483 39.5781 33.9119C40.1577 34.2756 40.6137 34.7926 40.946 35.4631C41.2784 36.1335 41.4446 36.929 41.4446 37.8494ZM40.4219 37.8494C40.4219 37.0938 40.2955 36.456 40.0426 35.9361C39.7926 35.4162 39.4531 35.0227 39.0242 34.7557C38.598 34.4886 38.1208 34.3551 37.5924 34.3551C37.0639 34.3551 36.5852 34.4886 36.1563 34.7557C35.7301 35.0227 35.3906 35.4162 35.1378 35.9361C34.8878 36.456 34.7628 37.0938 34.7628 37.8494C34.7628 38.6051 34.8878 39.2429 35.1378 39.7628C35.3906 40.2827 35.7301 40.6761 36.1563 40.9432C36.5852 41.2102 37.0639 41.3438 37.5924 41.3438C38.1208 41.3438 38.598 41.2102 39.0242 40.9432C39.4531 40.6761 39.7926 40.2827 40.0426 39.7628C40.2955 39.2429 40.4219 38.6051 40.4219 37.8494Z" fill="black"/>
<circle cx="1" cy="1" r="1" transform="matrix(-0.707107 -0.707107 -0.707107 0.707107 140.201 44.4307)" fill="black"/>
<circle cx="1" cy="1" r="1" transform="matrix(-0.696888 -0.71718 -0.71718 0.696888 98.5283 46.4358)" fill="black"/>
<circle cx="1" cy="1" r="1" transform="matrix(-0.696888 -0.71718 -0.71718 0.696888 107.689 48.6888)" fill="black"/>
<circle cx="1" cy="1" r="1" transform="matrix(-0.696888 -0.71718 -0.71718 0.696888 117.527 53.073)" fill="black"/>
<circle cx="1" cy="1" r="1" transform="matrix(0.0925086 -0.995712 -0.995712 -0.0925086 130.385 67.1976)" fill="black"/>
<circle cx="1" cy="1" r="1" transform="matrix(0.0925086 -0.995712 -0.995712 -0.0925086 134.624 75.6259)" fill="black"/>
<circle cx="1" cy="1" r="1" transform="matrix(0.0925086 -0.995712 -0.995712 -0.0925086 137.681 85.953)" fill="black"/>
<circle cx="1" cy="1" r="1" transform="matrix(0.778144 -0.628086 -0.628086 -0.778144 136.452 101.777)" fill="black"/>
<circle cx="1" cy="1" r="1" transform="matrix(0.778144 -0.628086 -0.628086 -0.778144 133.367 110.692)" fill="black"/>
<circle cx="1" cy="1" r="1" transform="matrix(0.778144 -0.628086 -0.628086 -0.778144 128.098 120.086)" fill="black"/>
<circle cx="1" cy="1" r="1" transform="matrix(0.696888 0.71718 0.71718 -0.696888 83.8765 136.999)" fill="black"/>
<circle cx="1" cy="1" r="1" transform="matrix(0.696888 0.71718 0.71718 -0.696888 74.7155 134.746)" fill="black"/>
<circle cx="1" cy="1" r="1" transform="matrix(0.696888 0.71718 0.71718 -0.696888 64.8779 130.362)" fill="black"/>
<circle cx="1" cy="1" r="1" transform="matrix(0.696888 0.71718 0.71718 -0.696888 41.9133 139.89)" fill="black"/>
<circle cx="1" cy="1" r="1" transform="matrix(0.992027 0.126022 0.126022 -0.992027 114.757 131)" fill="black"/>
<circle cx="1" cy="1" r="1" transform="matrix(0.992027 0.126022 0.126022 -0.992027 106.191 134.952)" fill="black"/>
<circle cx="1" cy="1" r="1" transform="matrix(0.992027 0.126022 0.126022 -0.992027 95.7666 137.66)" fill="black"/>
<circle cx="1" cy="1" r="1" transform="matrix(-0.0925087 0.995712 0.995712 0.0925087 52.0197 116.237)" fill="black"/>
<circle cx="1" cy="1" r="1" transform="matrix(-0.0925087 0.995712 0.995712 0.0925087 47.7812 107.809)" fill="black"/>
<circle cx="1" cy="1" r="1" transform="matrix(-0.0925087 0.995712 0.995712 0.0925087 44.7235 97.4816)" fill="black"/>
<circle cx="1" cy="1" r="1" transform="matrix(-0.734717 0.678374 0.678374 0.734717 45.9632 84.1471)" fill="black"/>
<circle cx="1" cy="1" r="1" transform="matrix(-0.734717 0.678374 0.678374 0.734717 48.4491 75.0465)" fill="black"/>
<circle cx="1" cy="1" r="1" transform="matrix(-0.734717 0.678374 0.678374 0.734717 53.0828 65.3239)" fill="black"/>
<circle cx="1" cy="1" r="1" transform="matrix(-0.993029 -0.117868 -0.117868 0.993029 67.531 52.8299)" fill="black"/>
<circle cx="1" cy="1" r="1" transform="matrix(-0.993029 -0.117868 -0.117868 0.993029 76.0645 48.8077)" fill="black"/>
<circle cx="1" cy="1" r="1" transform="matrix(-0.993029 -0.117868 -0.117868 0.993029 86.4663 46.0143)" fill="black"/>
<path d="M135.251 47.9663L120.048 63.1691" stroke="black" stroke-width="0.75"/>
<circle cx="1" cy="1" r="1" transform="matrix(0.707107 -0.707107 -0.707107 -0.707107 139.494 141.304)" fill="black"/>
<circle cx="1" cy="1" r="1" transform="matrix(0.707107 -0.707107 -0.707107 -0.707107 44.7415 46.552)" fill="black"/>
<circle cx="1" cy="1" r="1" transform="matrix(0.753735 -0.657178 -0.657178 -0.753735 90.5507 32.4267)" fill="#F9DA1B"/>
<path d="M62.4192 120.798L47.2164 136.001" stroke="black" stroke-width="0.75"/>
<path d="M135.493 136.242L120.29 121.039" stroke="black" stroke-width="0.75"/>
<path d="M63.48 63.8763L48.2772 48.6735" stroke="black" stroke-width="0.75"/>
<path d="M146.367 92.2248H132.225" stroke="black" stroke-width="0.75"/>
<path d="M50.7456 91.5851L35.5288 91.7405" stroke="black" stroke-width="0.75"/>
<path d="M91.4104 146.961L91.4749 132.975" stroke="black" stroke-width="0.75"/>
<path d="M90.953 51.549L90.7862 36.0014" stroke="#F9DA1B" stroke-width="0.75"/>
<path d="M91.4109 88.0149L98.292 84.2058C99.2142 83.6958 100.229 84.7106 99.719 85.6328L95.9112 92.5139L99.719 99.3951C100.229 100.317 99.2142 101.332 98.292 100.822L91.4109 97.0143L84.5298 100.822C83.6075 101.332 82.5927 100.317 83.1028 99.3951L86.9106 92.5139L83.1028 85.6328C82.5927 84.7106 83.6075 83.6958 84.5298 84.2058L91.4109 88.0136V88.0149Z" fill="#164194"/>
<circle cx="1" cy="1" r="1" transform="matrix(0.707107 -0.707107 -0.707107 -0.707107 152.929 93.9283)" fill="black"/>
<circle cx="1" cy="1" r="1" transform="matrix(0.707107 -0.707107 -0.707107 -0.707107 90.8496 153.325)" fill="black"/>
<circle cx="1" cy="1" r="1" transform="matrix(0.707107 -0.707107 -0.707107 -0.707107 29.4143 93.1606)" fill="black"/>
</svg>
