<svg width="184" height="184" viewBox="0 0 184 184" fill="none" xmlns="http://www.w3.org/2000/svg">
<rect width="184" height="184" fill="white"/>
<path d="M96.0408 10.0909V21H94.283L89.1428 13.5692H89.0522V21H87.076V10.0909H88.8445L93.9794 17.527H94.0753V10.0909H96.0408Z" fill="#F9DA1B"/>
<path d="M93.8295 168.455C93.7784 168.023 93.571 167.688 93.2074 167.449C92.8438 167.21 92.3977 167.091 91.8693 167.091C91.483 167.091 91.1449 167.153 90.8551 167.278C90.5682 167.403 90.3438 167.575 90.1818 167.794C90.0227 168.013 89.9432 168.261 89.9432 168.54C89.9432 168.773 89.9986 168.973 90.1094 169.141C90.223 169.305 90.3679 169.443 90.544 169.554C90.7202 169.662 90.9048 169.751 91.098 169.822C91.2912 169.891 91.4688 169.946 91.6307 169.989L92.517 170.227C92.7443 170.287 92.9972 170.369 93.2756 170.474C93.5568 170.58 93.8253 170.723 94.081 170.905C94.3395 171.084 94.5526 171.314 94.7202 171.595C94.8878 171.876 94.9716 172.222 94.9716 172.631C94.9716 173.102 94.848 173.528 94.6009 173.909C94.3565 174.29 93.9986 174.592 93.527 174.817C93.0582 175.041 92.4886 175.153 91.8182 175.153C91.1932 175.153 90.652 175.053 90.1946 174.851C89.7401 174.649 89.3821 174.368 89.1207 174.007C88.8622 173.646 88.7159 173.227 88.6818 172.75H89.7727C89.8011 173.08 89.9119 173.352 90.1051 173.568C90.3011 173.781 90.5483 173.94 90.8466 174.045C91.1477 174.148 91.4716 174.199 91.8182 174.199C92.2216 174.199 92.5838 174.134 92.9048 174.003C93.2259 173.869 93.4801 173.685 93.6676 173.449C93.8551 173.21 93.9489 172.932 93.9489 172.614C93.9489 172.324 93.8679 172.088 93.706 171.906C93.544 171.724 93.331 171.577 93.0668 171.463C92.8026 171.349 92.517 171.25 92.2102 171.165L91.1364 170.858C90.4545 170.662 89.9148 170.382 89.517 170.018C89.1193 169.655 88.9205 169.179 88.9205 168.591C88.9205 168.102 89.0526 167.676 89.3168 167.312C89.5838 166.946 89.9418 166.662 90.3906 166.46C90.8423 166.256 91.3466 166.153 91.9034 166.153C92.4659 166.153 92.9659 166.254 93.4034 166.456C93.8409 166.655 94.1875 166.928 94.4432 167.274C94.7017 167.621 94.8381 168.014 94.8523 168.455H93.8295Z" fill="black"/>
<path d="M166.057 97V88.2727H171.324V89.2102H167.114V92.1591H171.051V93.0966H167.114V96.0625H171.392V97H166.057Z" fill="black"/>
<path d="M147.977 37.2727V46H146.955L142.199 39.1477H142.114V46H141.057V37.2727H142.08L146.852 44.142H146.938V37.2727H147.977ZM153.706 41.1676V42.1051H149.887V41.1676H153.706ZM155.612 46V37.2727H160.879V38.2102H156.668V41.1591H160.606V42.0966H156.668V45.0625H160.947V46H155.612Z" fill="black"/>
<path d="M141.83 141.455C141.778 141.023 141.571 140.688 141.207 140.449C140.844 140.21 140.398 140.091 139.869 140.091C139.483 140.091 139.145 140.153 138.855 140.278C138.568 140.403 138.344 140.575 138.182 140.794C138.023 141.013 137.943 141.261 137.943 141.54C137.943 141.773 137.999 141.973 138.109 142.141C138.223 142.305 138.368 142.443 138.544 142.554C138.72 142.662 138.905 142.751 139.098 142.822C139.291 142.891 139.469 142.946 139.631 142.989L140.517 143.227C140.744 143.287 140.997 143.369 141.276 143.474C141.557 143.58 141.825 143.723 142.081 143.905C142.339 144.084 142.553 144.314 142.72 144.595C142.888 144.876 142.972 145.222 142.972 145.631C142.972 146.102 142.848 146.528 142.601 146.909C142.357 147.29 141.999 147.592 141.527 147.817C141.058 148.041 140.489 148.153 139.818 148.153C139.193 148.153 138.652 148.053 138.195 147.851C137.74 147.649 137.382 147.368 137.121 147.007C136.862 146.646 136.716 146.227 136.682 145.75H137.773C137.801 146.08 137.912 146.352 138.105 146.568C138.301 146.781 138.548 146.94 138.847 147.045C139.148 147.148 139.472 147.199 139.818 147.199C140.222 147.199 140.584 147.134 140.905 147.003C141.226 146.869 141.48 146.685 141.668 146.449C141.855 146.21 141.949 145.932 141.949 145.614C141.949 145.324 141.868 145.088 141.706 144.906C141.544 144.724 141.331 144.577 141.067 144.463C140.803 144.349 140.517 144.25 140.21 144.165L139.136 143.858C138.455 143.662 137.915 143.382 137.517 143.018C137.119 142.655 136.92 142.179 136.92 141.591C136.92 141.102 137.053 140.676 137.317 140.312C137.584 139.946 137.942 139.662 138.391 139.46C138.842 139.256 139.347 139.153 139.903 139.153C140.466 139.153 140.966 139.254 141.403 139.456C141.841 139.655 142.188 139.928 142.443 140.274C142.702 140.621 142.838 141.014 142.852 141.455H141.83ZM148.323 143.168V144.105H144.505V143.168H148.323ZM150.229 148V139.273H155.496V140.21H151.286V143.159H155.223V144.097H151.286V147.062H155.564V148H150.229Z" fill="black"/>
<path d="M31.9773 37.2727V46H30.9545L26.1989 39.1477H26.1136V46H25.0568V37.2727H26.0795L30.8523 44.142H30.9375V37.2727H31.9773ZM37.7056 41.1676V42.1051H33.8874V41.1676H37.7056ZM46.9751 41.6364C46.9751 42.5568 46.8089 43.3523 46.4766 44.0227C46.1442 44.6932 45.6882 45.2102 45.1087 45.5739C44.5291 45.9375 43.8672 46.1193 43.1229 46.1193C42.3786 46.1193 41.7166 45.9375 41.1371 45.5739C40.5575 45.2102 40.1016 44.6932 39.7692 44.0227C39.4368 43.3523 39.2706 42.5568 39.2706 41.6364C39.2706 40.7159 39.4368 39.9205 39.7692 39.25C40.1016 38.5795 40.5575 38.0625 41.1371 37.6989C41.7166 37.3352 42.3786 37.1534 43.1229 37.1534C43.8672 37.1534 44.5291 37.3352 45.1087 37.6989C45.6882 38.0625 46.1442 38.5795 46.4766 39.25C46.8089 39.9205 46.9751 40.7159 46.9751 41.6364ZM45.9524 41.6364C45.9524 40.8807 45.826 40.2429 45.5732 39.723C45.3232 39.2031 44.9837 38.8097 44.5547 38.5426C44.1286 38.2756 43.6513 38.142 43.1229 38.142C42.5945 38.142 42.1158 38.2756 41.6868 38.5426C41.2607 38.8097 40.9212 39.2031 40.6683 39.723C40.4183 40.2429 40.2933 40.8807 40.2933 41.6364C40.2933 42.392 40.4183 43.0298 40.6683 43.5497C40.9212 44.0696 41.2607 44.4631 41.6868 44.7301C42.1158 44.9972 42.5945 45.1307 43.1229 45.1307C43.6513 45.1307 44.1286 44.9972 44.5547 44.7301C44.9837 44.4631 45.3232 44.0696 45.5732 43.5497C45.826 43.0298 45.9524 42.392 45.9524 41.6364Z" fill="black"/>
<path d="M27.8295 140.455C27.7784 140.023 27.571 139.688 27.2074 139.449C26.8438 139.21 26.3977 139.091 25.8693 139.091C25.483 139.091 25.1449 139.153 24.8551 139.278C24.5682 139.403 24.3438 139.575 24.1818 139.794C24.0227 140.013 23.9432 140.261 23.9432 140.54C23.9432 140.773 23.9986 140.973 24.1094 141.141C24.223 141.305 24.3679 141.443 24.544 141.554C24.7202 141.662 24.9048 141.751 25.098 141.822C25.2912 141.891 25.4688 141.946 25.6307 141.989L26.517 142.227C26.7443 142.287 26.9972 142.369 27.2756 142.474C27.5568 142.58 27.8253 142.723 28.081 142.905C28.3395 143.084 28.5526 143.314 28.7202 143.595C28.8878 143.876 28.9716 144.222 28.9716 144.631C28.9716 145.102 28.848 145.528 28.6009 145.909C28.3565 146.29 27.9986 146.592 27.527 146.817C27.0582 147.041 26.4886 147.153 25.8182 147.153C25.1932 147.153 24.652 147.053 24.1946 146.851C23.7401 146.649 23.3821 146.368 23.1207 146.007C22.8622 145.646 22.7159 145.227 22.6818 144.75H23.7727C23.8011 145.08 23.9119 145.352 24.1051 145.568C24.3011 145.781 24.5483 145.94 24.8466 146.045C25.1477 146.148 25.4716 146.199 25.8182 146.199C26.2216 146.199 26.5838 146.134 26.9048 146.003C27.2259 145.869 27.4801 145.685 27.6676 145.449C27.8551 145.21 27.9489 144.932 27.9489 144.614C27.9489 144.324 27.8679 144.088 27.706 143.906C27.544 143.724 27.331 143.577 27.0668 143.463C26.8026 143.349 26.517 143.25 26.2102 143.165L25.1364 142.858C24.4545 142.662 23.9148 142.382 23.517 142.018C23.1193 141.655 22.9205 141.179 22.9205 140.591C22.9205 140.102 23.0526 139.676 23.3168 139.312C23.5838 138.946 23.9418 138.662 24.3906 138.46C24.8423 138.256 25.3466 138.153 25.9034 138.153C26.4659 138.153 26.9659 138.254 27.4034 138.456C27.8409 138.655 28.1875 138.928 28.4432 139.274C28.7017 139.621 28.8381 140.014 28.8523 140.455H27.8295ZM34.3228 142.168V143.105H30.5046V142.168H34.3228ZM43.5923 142.636C43.5923 143.557 43.4261 144.352 43.0938 145.023C42.7614 145.693 42.3054 146.21 41.7259 146.574C41.1463 146.938 40.4844 147.119 39.7401 147.119C38.9957 147.119 38.3338 146.938 37.7543 146.574C37.1747 146.21 36.7188 145.693 36.3864 145.023C36.054 144.352 35.8878 143.557 35.8878 142.636C35.8878 141.716 36.054 140.92 36.3864 140.25C36.7188 139.58 37.1747 139.062 37.7543 138.699C38.3338 138.335 38.9957 138.153 39.7401 138.153C40.4844 138.153 41.1463 138.335 41.7259 138.699C42.3054 139.062 42.7614 139.58 43.0938 140.25C43.4261 140.92 43.5923 141.716 43.5923 142.636ZM42.5696 142.636C42.5696 141.881 42.4432 141.243 42.1903 140.723C41.9403 140.203 41.6009 139.81 41.1719 139.543C40.7457 139.276 40.2685 139.142 39.7401 139.142C39.2116 139.142 38.733 139.276 38.304 139.543C37.8778 139.81 37.5384 140.203 37.2855 140.723C37.0355 141.243 36.9105 141.881 36.9105 142.636C36.9105 143.392 37.0355 144.03 37.2855 144.55C37.5384 145.07 37.8778 145.463 38.304 145.73C38.733 145.997 39.2116 146.131 39.7401 146.131C40.2685 146.131 40.7457 145.997 41.1719 145.73C41.6009 145.463 41.9403 145.07 42.1903 144.55C42.4432 144.03 42.5696 143.392 42.5696 142.636Z" fill="black"/>
<path d="M19.4205 91.6364C19.4205 92.5568 19.2543 93.3523 18.9219 94.0227C18.5895 94.6932 18.1335 95.2102 17.554 95.5739C16.9744 95.9375 16.3125 96.1193 15.5682 96.1193C14.8239 96.1193 14.1619 95.9375 13.5824 95.5739C13.0028 95.2102 12.5469 94.6932 12.2145 94.0227C11.8821 93.3523 11.7159 92.5568 11.7159 91.6364C11.7159 90.7159 11.8821 89.9205 12.2145 89.25C12.5469 88.5795 13.0028 88.0625 13.5824 87.6989C14.1619 87.3352 14.8239 87.1534 15.5682 87.1534C16.3125 87.1534 16.9744 87.3352 17.554 87.6989C18.1335 88.0625 18.5895 88.5795 18.9219 89.25C19.2543 89.9205 19.4205 90.7159 19.4205 91.6364ZM18.3977 91.6364C18.3977 90.8807 18.2713 90.2429 18.0185 89.723C17.7685 89.2031 17.429 88.8097 17 88.5426C16.5739 88.2756 16.0966 88.142 15.5682 88.142C15.0398 88.142 14.5611 88.2756 14.1321 88.5426C13.706 88.8097 13.3665 89.2031 13.1136 89.723C12.8636 90.2429 12.7386 90.8807 12.7386 91.6364C12.7386 92.392 12.8636 93.0298 13.1136 93.5497C13.3665 94.0696 13.706 94.4631 14.1321 94.7301C14.5611 94.9972 15.0398 95.1307 15.5682 95.1307C16.0966 95.1307 16.5739 94.9972 17 94.7301C17.429 94.4631 17.7685 94.0696 18.0185 93.5497C18.2713 93.0298 18.3977 92.392 18.3977 91.6364Z" fill="black"/>
<circle cx="1" cy="1" r="1" transform="matrix(-1 0 0 1 93 24)" fill="#F9DA1B"/>
<circle cx="1" cy="1" r="1" transform="matrix(-0.999897 -0.014349 -0.014349 0.999897 64.9506 54.8848)" fill="black"/>
<circle cx="1" cy="1" r="1" transform="matrix(-0.999897 -0.014349 -0.014349 0.999897 73.0215 50.0001)" fill="black"/>
<circle cx="1" cy="1" r="1" transform="matrix(-0.999897 -0.014349 -0.014349 0.999897 83.0779 46.144)" fill="black"/>
<circle cx="1" cy="1" r="1" transform="matrix(-0.638661 -0.769488 -0.769488 0.638661 102.158 47.0396)" fill="black"/>
<circle cx="1" cy="1" r="1" transform="matrix(-0.638661 -0.769488 -0.769488 0.638661 111.114 50.0022)" fill="black"/>
<circle cx="1" cy="1" r="1" transform="matrix(-0.638661 -0.769488 -0.769488 0.638661 120.579 55.1424)" fill="black"/>
<circle cx="1" cy="1" r="1" transform="matrix(0.106107 -0.994355 -0.994355 -0.106107 130.899 67.201)" fill="black"/>
<circle cx="1" cy="1" r="1" transform="matrix(0.106107 -0.994355 -0.994355 -0.106107 135.022 75.6864)" fill="black"/>
<circle cx="1" cy="1" r="1" transform="matrix(0.106107 -0.994355 -0.994355 -0.106107 137.938 86.0543)" fill="black"/>
<circle cx="1" cy="1" r="1" transform="matrix(0.999897 0.0143491 0.0143491 -0.999897 118.628 129.283)" fill="black"/>
<circle cx="1" cy="1" r="1" transform="matrix(0.999897 0.0143491 0.0143491 -0.999897 110.557 134.168)" fill="black"/>
<circle cx="1" cy="1" r="1" transform="matrix(0.999897 0.0143491 0.0143491 -0.999897 100.501 138.024)" fill="black"/>
<circle cx="1" cy="1" r="1" transform="matrix(0.999897 0.0143491 0.0143491 -0.999897 91 161)" fill="black"/>
<circle cx="1" cy="1" r="1" transform="matrix(0.79058 -0.612359 -0.612359 -0.79058 136.223 103.205)" fill="black"/>
<circle cx="1" cy="1" r="1" transform="matrix(0.79058 -0.612359 -0.612359 -0.79058 132.96 112.057)" fill="black"/>
<circle cx="1" cy="1" r="1" transform="matrix(0.79058 -0.612359 -0.612359 -0.79058 127.503 121.343)" fill="black"/>
<circle cx="1" cy="1" r="1" transform="matrix(0.638661 0.769488 0.769488 -0.638661 81.4213 137.128)" fill="black"/>
<circle cx="1" cy="1" r="1" transform="matrix(0.638661 0.769488 0.769488 -0.638661 72.4645 134.166)" fill="black"/>
<circle cx="1" cy="1" r="1" transform="matrix(0.638661 0.769488 0.769488 -0.638661 63 129.025)" fill="black"/>
<circle cx="1" cy="1" r="1" transform="matrix(-0.0398401 0.999206 0.999206 0.0398401 54.4475 118.72)" fill="black"/>
<circle cx="1" cy="1" r="1" transform="matrix(-0.0398401 0.999206 0.999206 0.0398401 49.7702 110.527)" fill="black"/>
<circle cx="1" cy="1" r="1" transform="matrix(-0.0398401 0.999206 0.999206 0.0398401 46.1718 100.375)" fill="black"/>
<circle cx="1" cy="1" r="1" transform="matrix(-0.785523 0.618833 0.618833 0.785523 47.5536 81.3247)" fill="black"/>
<circle cx="1" cy="1" r="1" transform="matrix(-0.785523 0.618833 0.618833 0.785523 50.7436 72.4464)" fill="black"/>
<circle cx="1" cy="1" r="1" transform="matrix(-0.785523 0.618833 0.618833 0.785523 56.1235 63.116)" fill="black"/>
<path d="M92 30V51.5" stroke="#F9DA1B" stroke-width="0.75"/>
<circle cx="1" cy="1" r="1" transform="matrix(4.37114e-08 -1 -1 -4.37114e-08 161 93)" fill="black"/>
<circle cx="1" cy="1" r="1" transform="matrix(4.37114e-08 -1 -1 -4.37114e-08 27 93)" fill="black"/>
<circle cx="1" cy="1" r="1" transform="matrix(4.37114e-08 -1 -1 -4.37114e-08 49 51)" fill="black"/>
<path d="M92 133V154.5" stroke="black" stroke-width="0.75"/>
<path d="M154.591 92.25L133.091 92.25" stroke="black" stroke-width="0.75"/>
<path d="M52.5 92L31 92" stroke="black" stroke-width="0.75"/>
<path d="M131.156 53.4353L121.156 63.4353" stroke="black" stroke-width="0.75"/>
<path d="M63.5266 121.065L52 131" stroke="black" stroke-width="0.75"/>
<path d="M131 131L121.156 121.065" stroke="black" stroke-width="0.75"/>
<path d="M63.5265 63.4353L52 53" stroke="black" stroke-width="0.75"/>
<path d="M89.3187 89.3187L91.4909 81.7596C91.7824 80.7468 93.2176 80.7468 93.5091 81.7596L95.6822 89.3178L103.24 91.4909C104.253 91.7824 104.253 93.2176 103.24 93.5091L95.6822 95.6822L93.5091 103.24C93.2176 104.253 91.7824 104.253 91.4909 103.24L89.3178 95.6822L81.7596 93.5091C80.7468 93.2176 80.7468 91.7824 81.7596 91.4909L89.3178 89.3178L89.3187 89.3187Z" fill="#164194"/>
<circle cx="1" cy="1" r="1" transform="matrix(4.37114e-08 -1 -1 -4.37114e-08 137 50)" fill="black"/>
<circle cx="1" cy="1" r="1" transform="matrix(4.37114e-08 -1 -1 -4.37114e-08 135 136)" fill="black"/>
<circle cx="1" cy="1" r="1" transform="matrix(4.37114e-08 -1 -1 -4.37114e-08 48 135)" fill="black"/>
<path d="M96.0408 10.0909V21H94.283L89.1428 13.5692H89.0522V21H87.076V10.0909H88.8445L93.9794 17.527H94.0753V10.0909H96.0408Z" fill="#F9DA1B"/>
<path d="M93.8295 168.455C93.7784 168.023 93.571 167.688 93.2074 167.449C92.8438 167.21 92.3977 167.091 91.8693 167.091C91.483 167.091 91.1449 167.153 90.8551 167.278C90.5682 167.403 90.3438 167.575 90.1818 167.794C90.0227 168.013 89.9432 168.261 89.9432 168.54C89.9432 168.773 89.9986 168.973 90.1094 169.141C90.223 169.305 90.3679 169.443 90.544 169.554C90.7202 169.662 90.9048 169.751 91.098 169.822C91.2912 169.891 91.4688 169.946 91.6307 169.989L92.517 170.227C92.7443 170.287 92.9972 170.369 93.2756 170.474C93.5568 170.58 93.8253 170.723 94.081 170.905C94.3395 171.084 94.5526 171.314 94.7202 171.595C94.8878 171.876 94.9716 172.222 94.9716 172.631C94.9716 173.102 94.848 173.528 94.6009 173.909C94.3565 174.29 93.9986 174.592 93.527 174.817C93.0582 175.041 92.4886 175.153 91.8182 175.153C91.1932 175.153 90.652 175.053 90.1946 174.851C89.7401 174.649 89.3821 174.368 89.1207 174.007C88.8622 173.646 88.7159 173.227 88.6818 172.75H89.7727C89.8011 173.08 89.9119 173.352 90.1051 173.568C90.3011 173.781 90.5483 173.94 90.8466 174.045C91.1477 174.148 91.4716 174.199 91.8182 174.199C92.2216 174.199 92.5838 174.134 92.9048 174.003C93.2259 173.869 93.4801 173.685 93.6676 173.449C93.8551 173.21 93.9489 172.932 93.9489 172.614C93.9489 172.324 93.8679 172.088 93.706 171.906C93.544 171.724 93.331 171.577 93.0668 171.463C92.8026 171.349 92.517 171.25 92.2102 171.165L91.1364 170.858C90.4545 170.662 89.9148 170.382 89.517 170.018C89.1193 169.655 88.9205 169.179 88.9205 168.591C88.9205 168.102 89.0526 167.676 89.3168 167.312C89.5838 166.946 89.9418 166.662 90.3906 166.46C90.8423 166.256 91.3466 166.153 91.9034 166.153C92.4659 166.153 92.9659 166.254 93.4034 166.456C93.8409 166.655 94.1875 166.928 94.4432 167.274C94.7017 167.621 94.8381 168.014 94.8523 168.455H93.8295Z" fill="black"/>
<path d="M166.057 97V88.2727H171.324V89.2102H167.114V92.1591H171.051V93.0966H167.114V96.0625H171.392V97H166.057Z" fill="black"/>
<path d="M147.977 37.2727V46H146.955L142.199 39.1477H142.114V46H141.057V37.2727H142.08L146.852 44.142H146.938V37.2727H147.977ZM153.706 41.1676V42.1051H149.887V41.1676H153.706ZM155.612 46V37.2727H160.879V38.2102H156.668V41.1591H160.606V42.0966H156.668V45.0625H160.947V46H155.612Z" fill="black"/>
<path d="M141.83 141.455C141.778 141.023 141.571 140.688 141.207 140.449C140.844 140.21 140.398 140.091 139.869 140.091C139.483 140.091 139.145 140.153 138.855 140.278C138.568 140.403 138.344 140.575 138.182 140.794C138.023 141.013 137.943 141.261 137.943 141.54C137.943 141.773 137.999 141.973 138.109 142.141C138.223 142.305 138.368 142.443 138.544 142.554C138.72 142.662 138.905 142.751 139.098 142.822C139.291 142.891 139.469 142.946 139.631 142.989L140.517 143.227C140.744 143.287 140.997 143.369 141.276 143.474C141.557 143.58 141.825 143.723 142.081 143.905C142.339 144.084 142.553 144.314 142.72 144.595C142.888 144.876 142.972 145.222 142.972 145.631C142.972 146.102 142.848 146.528 142.601 146.909C142.357 147.29 141.999 147.592 141.527 147.817C141.058 148.041 140.489 148.153 139.818 148.153C139.193 148.153 138.652 148.053 138.195 147.851C137.74 147.649 137.382 147.368 137.121 147.007C136.862 146.646 136.716 146.227 136.682 145.75H137.773C137.801 146.08 137.912 146.352 138.105 146.568C138.301 146.781 138.548 146.94 138.847 147.045C139.148 147.148 139.472 147.199 139.818 147.199C140.222 147.199 140.584 147.134 140.905 147.003C141.226 146.869 141.48 146.685 141.668 146.449C141.855 146.21 141.949 145.932 141.949 145.614C141.949 145.324 141.868 145.088 141.706 144.906C141.544 144.724 141.331 144.577 141.067 144.463C140.803 144.349 140.517 144.25 140.21 144.165L139.136 143.858C138.455 143.662 137.915 143.382 137.517 143.018C137.119 142.655 136.92 142.179 136.92 141.591C136.92 141.102 137.053 140.676 137.317 140.312C137.584 139.946 137.942 139.662 138.391 139.46C138.842 139.256 139.347 139.153 139.903 139.153C140.466 139.153 140.966 139.254 141.403 139.456C141.841 139.655 142.188 139.928 142.443 140.274C142.702 140.621 142.838 141.014 142.852 141.455H141.83ZM148.323 143.168V144.105H144.505V143.168H148.323ZM150.229 148V139.273H155.496V140.21H151.286V143.159H155.223V144.097H151.286V147.062H155.564V148H150.229Z" fill="black"/>
<path d="M31.9773 37.2727V46H30.9545L26.1989 39.1477H26.1136V46H25.0568V37.2727H26.0795L30.8523 44.142H30.9375V37.2727H31.9773ZM37.7056 41.1676V42.1051H33.8874V41.1676H37.7056ZM46.9751 41.6364C46.9751 42.5568 46.8089 43.3523 46.4766 44.0227C46.1442 44.6932 45.6882 45.2102 45.1087 45.5739C44.5291 45.9375 43.8672 46.1193 43.1229 46.1193C42.3786 46.1193 41.7166 45.9375 41.1371 45.5739C40.5575 45.2102 40.1016 44.6932 39.7692 44.0227C39.4368 43.3523 39.2706 42.5568 39.2706 41.6364C39.2706 40.7159 39.4368 39.9205 39.7692 39.25C40.1016 38.5795 40.5575 38.0625 41.1371 37.6989C41.7166 37.3352 42.3786 37.1534 43.1229 37.1534C43.8672 37.1534 44.5291 37.3352 45.1087 37.6989C45.6882 38.0625 46.1442 38.5795 46.4766 39.25C46.8089 39.9205 46.9751 40.7159 46.9751 41.6364ZM45.9524 41.6364C45.9524 40.8807 45.826 40.2429 45.5732 39.723C45.3232 39.2031 44.9837 38.8097 44.5547 38.5426C44.1286 38.2756 43.6513 38.142 43.1229 38.142C42.5945 38.142 42.1158 38.2756 41.6868 38.5426C41.2607 38.8097 40.9212 39.2031 40.6683 39.723C40.4183 40.2429 40.2933 40.8807 40.2933 41.6364C40.2933 42.392 40.4183 43.0298 40.6683 43.5497C40.9212 44.0696 41.2607 44.4631 41.6868 44.7301C42.1158 44.9972 42.5945 45.1307 43.1229 45.1307C43.6513 45.1307 44.1286 44.9972 44.5547 44.7301C44.9837 44.4631 45.3232 44.0696 45.5732 43.5497C45.826 43.0298 45.9524 42.392 45.9524 41.6364Z" fill="black"/>
<path d="M27.8295 140.455C27.7784 140.023 27.571 139.688 27.2074 139.449C26.8438 139.21 26.3977 139.091 25.8693 139.091C25.483 139.091 25.1449 139.153 24.8551 139.278C24.5682 139.403 24.3438 139.575 24.1818 139.794C24.0227 140.013 23.9432 140.261 23.9432 140.54C23.9432 140.773 23.9986 140.973 24.1094 141.141C24.223 141.305 24.3679 141.443 24.544 141.554C24.7202 141.662 24.9048 141.751 25.098 141.822C25.2912 141.891 25.4688 141.946 25.6307 141.989L26.517 142.227C26.7443 142.287 26.9972 142.369 27.2756 142.474C27.5568 142.58 27.8253 142.723 28.081 142.905C28.3395 143.084 28.5526 143.314 28.7202 143.595C28.8878 143.876 28.9716 144.222 28.9716 144.631C28.9716 145.102 28.848 145.528 28.6009 145.909C28.3565 146.29 27.9986 146.592 27.527 146.817C27.0582 147.041 26.4886 147.153 25.8182 147.153C25.1932 147.153 24.652 147.053 24.1946 146.851C23.7401 146.649 23.3821 146.368 23.1207 146.007C22.8622 145.646 22.7159 145.227 22.6818 144.75H23.7727C23.8011 145.08 23.9119 145.352 24.1051 145.568C24.3011 145.781 24.5483 145.94 24.8466 146.045C25.1477 146.148 25.4716 146.199 25.8182 146.199C26.2216 146.199 26.5838 146.134 26.9048 146.003C27.2259 145.869 27.4801 145.685 27.6676 145.449C27.8551 145.21 27.9489 144.932 27.9489 144.614C27.9489 144.324 27.8679 144.088 27.706 143.906C27.544 143.724 27.331 143.577 27.0668 143.463C26.8026 143.349 26.517 143.25 26.2102 143.165L25.1364 142.858C24.4545 142.662 23.9148 142.382 23.517 142.018C23.1193 141.655 22.9205 141.179 22.9205 140.591C22.9205 140.102 23.0526 139.676 23.3168 139.312C23.5838 138.946 23.9418 138.662 24.3906 138.46C24.8423 138.256 25.3466 138.153 25.9034 138.153C26.4659 138.153 26.9659 138.254 27.4034 138.456C27.8409 138.655 28.1875 138.928 28.4432 139.274C28.7017 139.621 28.8381 140.014 28.8523 140.455H27.8295ZM34.3228 142.168V143.105H30.5046V142.168H34.3228ZM43.5923 142.636C43.5923 143.557 43.4261 144.352 43.0938 145.023C42.7614 145.693 42.3054 146.21 41.7259 146.574C41.1463 146.938 40.4844 147.119 39.7401 147.119C38.9957 147.119 38.3338 146.938 37.7543 146.574C37.1747 146.21 36.7188 145.693 36.3864 145.023C36.054 144.352 35.8878 143.557 35.8878 142.636C35.8878 141.716 36.054 140.92 36.3864 140.25C36.7188 139.58 37.1747 139.062 37.7543 138.699C38.3338 138.335 38.9957 138.153 39.7401 138.153C40.4844 138.153 41.1463 138.335 41.7259 138.699C42.3054 139.062 42.7614 139.58 43.0938 140.25C43.4261 140.92 43.5923 141.716 43.5923 142.636ZM42.5696 142.636C42.5696 141.881 42.4432 141.243 42.1903 140.723C41.9403 140.203 41.6009 139.81 41.1719 139.543C40.7457 139.276 40.2685 139.142 39.7401 139.142C39.2116 139.142 38.733 139.276 38.304 139.543C37.8778 139.81 37.5384 140.203 37.2855 140.723C37.0355 141.243 36.9105 141.881 36.9105 142.636C36.9105 143.392 37.0355 144.03 37.2855 144.55C37.5384 145.07 37.8778 145.463 38.304 145.73C38.733 145.997 39.2116 146.131 39.7401 146.131C40.2685 146.131 40.7457 145.997 41.1719 145.73C41.6009 145.463 41.9403 145.07 42.1903 144.55C42.4432 144.03 42.5696 143.392 42.5696 142.636Z" fill="black"/>
<path d="M19.4205 91.6364C19.4205 92.5568 19.2543 93.3523 18.9219 94.0227C18.5895 94.6932 18.1335 95.2102 17.554 95.5739C16.9744 95.9375 16.3125 96.1193 15.5682 96.1193C14.8239 96.1193 14.1619 95.9375 13.5824 95.5739C13.0028 95.2102 12.5469 94.6932 12.2145 94.0227C11.8821 93.3523 11.7159 92.5568 11.7159 91.6364C11.7159 90.7159 11.8821 89.9205 12.2145 89.25C12.5469 88.5795 13.0028 88.0625 13.5824 87.6989C14.1619 87.3352 14.8239 87.1534 15.5682 87.1534C16.3125 87.1534 16.9744 87.3352 17.554 87.6989C18.1335 88.0625 18.5895 88.5795 18.9219 89.25C19.2543 89.9205 19.4205 90.7159 19.4205 91.6364ZM18.3977 91.6364C18.3977 90.8807 18.2713 90.2429 18.0185 89.723C17.7685 89.2031 17.429 88.8097 17 88.5426C16.5739 88.2756 16.0966 88.142 15.5682 88.142C15.0398 88.142 14.5611 88.2756 14.1321 88.5426C13.706 88.8097 13.3665 89.2031 13.1136 89.723C12.8636 90.2429 12.7386 90.8807 12.7386 91.6364C12.7386 92.392 12.8636 93.0298 13.1136 93.5497C13.3665 94.0696 13.706 94.4631 14.1321 94.7301C14.5611 94.9972 15.0398 95.1307 15.5682 95.1307C16.0966 95.1307 16.5739 94.9972 17 94.7301C17.429 94.4631 17.7685 94.0696 18.0185 93.5497C18.2713 93.0298 18.3977 92.392 18.3977 91.6364Z" fill="black"/>
<circle cx="1" cy="1" r="1" transform="matrix(-1 0 0 1 93 24)" fill="#F9DA1B"/>
<circle cx="1" cy="1" r="1" transform="matrix(-0.999897 -0.014349 -0.014349 0.999897 64.9506 54.8848)" fill="black"/>
<circle cx="1" cy="1" r="1" transform="matrix(-0.999897 -0.014349 -0.014349 0.999897 73.0215 50.0001)" fill="black"/>
<circle cx="1" cy="1" r="1" transform="matrix(-0.999897 -0.014349 -0.014349 0.999897 83.0779 46.144)" fill="black"/>
<circle cx="1" cy="1" r="1" transform="matrix(-0.638661 -0.769488 -0.769488 0.638661 102.158 47.0396)" fill="black"/>
<circle cx="1" cy="1" r="1" transform="matrix(-0.638661 -0.769488 -0.769488 0.638661 111.114 50.0022)" fill="black"/>
<circle cx="1" cy="1" r="1" transform="matrix(-0.638661 -0.769488 -0.769488 0.638661 120.579 55.1424)" fill="black"/>
<circle cx="1" cy="1" r="1" transform="matrix(0.106107 -0.994355 -0.994355 -0.106107 130.899 67.201)" fill="black"/>
<circle cx="1" cy="1" r="1" transform="matrix(0.106107 -0.994355 -0.994355 -0.106107 135.022 75.6864)" fill="black"/>
<circle cx="1" cy="1" r="1" transform="matrix(0.106107 -0.994355 -0.994355 -0.106107 137.938 86.0543)" fill="black"/>
<circle cx="1" cy="1" r="1" transform="matrix(0.999897 0.0143491 0.0143491 -0.999897 118.628 129.283)" fill="black"/>
<circle cx="1" cy="1" r="1" transform="matrix(0.999897 0.0143491 0.0143491 -0.999897 110.557 134.168)" fill="black"/>
<circle cx="1" cy="1" r="1" transform="matrix(0.999897 0.0143491 0.0143491 -0.999897 100.501 138.024)" fill="black"/>
<circle cx="1" cy="1" r="1" transform="matrix(0.999897 0.0143491 0.0143491 -0.999897 91 161)" fill="black"/>
<circle cx="1" cy="1" r="1" transform="matrix(0.79058 -0.612359 -0.612359 -0.79058 136.223 103.205)" fill="black"/>
<circle cx="1" cy="1" r="1" transform="matrix(0.79058 -0.612359 -0.612359 -0.79058 132.96 112.057)" fill="black"/>
<circle cx="1" cy="1" r="1" transform="matrix(0.79058 -0.612359 -0.612359 -0.79058 127.503 121.343)" fill="black"/>
<circle cx="1" cy="1" r="1" transform="matrix(0.638661 0.769488 0.769488 -0.638661 81.4213 137.128)" fill="black"/>
<circle cx="1" cy="1" r="1" transform="matrix(0.638661 0.769488 0.769488 -0.638661 72.4645 134.166)" fill="black"/>
<circle cx="1" cy="1" r="1" transform="matrix(0.638661 0.769488 0.769488 -0.638661 63 129.025)" fill="black"/>
<circle cx="1" cy="1" r="1" transform="matrix(-0.0398401 0.999206 0.999206 0.0398401 54.4475 118.72)" fill="black"/>
<circle cx="1" cy="1" r="1" transform="matrix(-0.0398401 0.999206 0.999206 0.0398401 49.7702 110.527)" fill="black"/>
<circle cx="1" cy="1" r="1" transform="matrix(-0.0398401 0.999206 0.999206 0.0398401 46.1718 100.375)" fill="black"/>
<circle cx="1" cy="1" r="1" transform="matrix(-0.785523 0.618833 0.618833 0.785523 47.5536 81.3247)" fill="black"/>
<circle cx="1" cy="1" r="1" transform="matrix(-0.785523 0.618833 0.618833 0.785523 50.7436 72.4464)" fill="black"/>
<circle cx="1" cy="1" r="1" transform="matrix(-0.785523 0.618833 0.618833 0.785523 56.1235 63.116)" fill="black"/>
<path d="M92 30V51.5" stroke="#F9DA1B" stroke-width="0.75"/>
<circle cx="1" cy="1" r="1" transform="matrix(4.37114e-08 -1 -1 -4.37114e-08 161 93)" fill="black"/>
<circle cx="1" cy="1" r="1" transform="matrix(4.37114e-08 -1 -1 -4.37114e-08 27 93)" fill="black"/>
<circle cx="1" cy="1" r="1" transform="matrix(4.37114e-08 -1 -1 -4.37114e-08 49 51)" fill="black"/>
<path d="M92 133V154.5" stroke="black" stroke-width="0.75"/>
<path d="M154.591 92.25L133.091 92.25" stroke="black" stroke-width="0.75"/>
<path d="M52.5 92L31 92" stroke="black" stroke-width="0.75"/>
<path d="M131.156 53.4353L121.156 63.4353" stroke="black" stroke-width="0.75"/>
<path d="M63.5266 121.065L52 131" stroke="black" stroke-width="0.75"/>
<path d="M131 131L121.156 121.065" stroke="black" stroke-width="0.75"/>
<path d="M63.5265 63.4353L52 53" stroke="black" stroke-width="0.75"/>
<path d="M89.3187 89.3187L91.4909 81.7596C91.7824 80.7468 93.2176 80.7468 93.5091 81.7596L95.6822 89.3178L103.24 91.4909C104.253 91.7824 104.253 93.2176 103.24 93.5091L95.6822 95.6822L93.5091 103.24C93.2176 104.253 91.7824 104.253 91.4909 103.24L89.3178 95.6822L81.7596 93.5091C80.7468 93.2176 80.7468 91.7824 81.7596 91.4909L89.3178 89.3178L89.3187 89.3187Z" fill="#164194"/>
<circle cx="1" cy="1" r="1" transform="matrix(4.37114e-08 -1 -1 -4.37114e-08 137 50)" fill="black"/>
<circle cx="1" cy="1" r="1" transform="matrix(4.37114e-08 -1 -1 -4.37114e-08 135 136)" fill="black"/>
<circle cx="1" cy="1" r="1" transform="matrix(4.37114e-08 -1 -1 -4.37114e-08 48 135)" fill="black"/>
</svg>
