<svg width="184" height="184" viewBox="0 0 184 184" fill="none" xmlns="http://www.w3.org/2000/svg">
<rect width="184" height="184" fill="white"/>
<path d="M42.1907 32.1931V40.9203H41.1679L36.4122 34.0681H36.327V40.9203H35.2702V32.1931H36.2929L41.0657 39.0624H41.1509V32.1931H42.1907Z" fill="black"/>
<path d="M150.644 145.391C150.593 144.959 150.386 144.624 150.022 144.385C149.658 144.146 149.212 144.027 148.684 144.027C148.298 144.027 147.96 144.09 147.67 144.215C147.383 144.34 147.158 144.511 146.997 144.73C146.837 144.949 146.758 145.197 146.758 145.476C146.758 145.709 146.813 145.909 146.924 146.077C147.038 146.241 147.183 146.379 147.359 146.49C147.535 146.598 147.72 146.688 147.913 146.759C148.106 146.827 148.283 146.882 148.445 146.925L149.332 147.163C149.559 147.223 149.812 147.305 150.09 147.411C150.372 147.516 150.64 147.659 150.896 147.841C151.154 148.02 151.367 148.25 151.535 148.531C151.702 148.813 151.786 149.158 151.786 149.567C151.786 150.038 151.663 150.465 151.416 150.845C151.171 151.226 150.813 151.528 150.342 151.753C149.873 151.977 149.303 152.09 148.633 152.09C148.008 152.09 147.467 151.989 147.009 151.787C146.555 151.585 146.197 151.304 145.935 150.943C145.677 150.582 145.531 150.163 145.497 149.686H146.587C146.616 150.016 146.727 150.288 146.92 150.504C147.116 150.717 147.363 150.876 147.661 150.982C147.962 151.084 148.286 151.135 148.633 151.135C149.036 151.135 149.399 151.07 149.72 150.939C150.041 150.805 150.295 150.621 150.482 150.385C150.67 150.146 150.764 149.868 150.764 149.55C150.764 149.26 150.683 149.024 150.521 148.842C150.359 148.661 150.146 148.513 149.881 148.399C149.617 148.286 149.332 148.186 149.025 148.101L147.951 147.794C147.269 147.598 146.729 147.318 146.332 146.955C145.934 146.591 145.735 146.115 145.735 145.527C145.735 145.038 145.867 144.612 146.131 144.249C146.399 143.882 146.756 143.598 147.205 143.396C147.657 143.192 148.161 143.09 148.718 143.09C149.281 143.09 149.781 143.19 150.218 143.392C150.656 143.591 151.002 143.864 151.258 144.21C151.516 144.557 151.653 144.95 151.667 145.391H150.644Z" fill="black"/>
<path d="M145.164 42.3345V33.6073H150.432V34.5448H146.221V37.4936H150.159V38.4311H146.221V41.397H150.5V42.3345H145.164Z" fill="black"/>
<path d="M90.0408 10.0909V21H88.283L83.1428 13.5692H83.0522V21H81.076V10.0909H82.8445L87.9794 17.527H88.0753V10.0909H90.0408ZM97.0681 14.7518V16.3391H92.1569V14.7518H97.0681ZM99.1815 21V10.0909H106.277V11.7475H101.158V14.7092H105.909V16.3658H101.158V19.3434H106.319V21H99.1815Z" fill="#F9DA1B"/>
<path d="M163.59 89.7614C163.539 89.3296 163.331 88.9944 162.968 88.7557C162.604 88.5171 162.158 88.3978 161.63 88.3978C161.243 88.3978 160.905 88.4603 160.615 88.5853C160.328 88.7103 160.104 88.8822 159.942 89.1009C159.783 89.3197 159.703 89.5682 159.703 89.8467C159.703 90.0796 159.759 90.2799 159.87 90.4475C159.983 90.6123 160.128 90.7501 160.304 90.8609C160.48 90.9688 160.665 91.0583 160.858 91.1293C161.051 91.1975 161.229 91.2529 161.391 91.2955L162.277 91.5342C162.505 91.5938 162.757 91.6762 163.036 91.7813C163.317 91.8864 163.586 92.0299 163.841 92.2117C164.1 92.3907 164.313 92.6208 164.48 92.9021C164.648 93.1833 164.732 93.5285 164.732 93.9376C164.732 94.4092 164.608 94.8353 164.361 95.216C164.117 95.5967 163.759 95.8992 163.287 96.1236C162.818 96.3481 162.249 96.4603 161.578 96.4603C160.953 96.4603 160.412 96.3594 159.955 96.1577C159.5 95.956 159.142 95.6748 158.881 95.314C158.622 94.9532 158.476 94.5342 158.442 94.0569H159.533C159.561 94.3864 159.672 94.6592 159.865 94.8751C160.061 95.0881 160.309 95.2472 160.607 95.3523C160.908 95.4546 161.232 95.5057 161.578 95.5057C161.982 95.5057 162.344 95.4404 162.665 95.3097C162.986 95.1762 163.24 94.9915 163.428 94.7557C163.615 94.5171 163.709 94.2387 163.709 93.9205C163.709 93.6307 163.628 93.395 163.466 93.2131C163.304 93.0313 163.091 92.8836 162.827 92.77C162.563 92.6563 162.277 92.5569 161.97 92.4717L160.897 92.1648C160.215 91.9688 159.675 91.689 159.277 91.3254C158.88 90.9617 158.681 90.4859 158.681 89.8978C158.681 89.4092 158.813 88.983 159.077 88.6194C159.344 88.2529 159.702 87.9688 160.151 87.7671C160.603 87.5626 161.107 87.4603 161.664 87.4603C162.226 87.4603 162.726 87.5611 163.164 87.7629C163.601 87.9617 163.948 88.2344 164.203 88.581C164.462 88.9276 164.598 89.3211 164.613 89.7614H163.59ZM170.083 91.4745V92.412H166.265V91.4745H170.083ZM171.989 96.3069V87.5796H177.256V88.5171H173.046V91.466H176.983V92.4035H173.046V95.3694H177.324V96.3069H171.989Z" fill="black"/>
<path d="M13.9773 87.59V96.3173H12.9545L8.19886 89.465H8.11364V96.3173H7.05682V87.59H8.07955L12.8523 94.4593H12.9375V87.59H13.9773ZM19.7056 91.4849V92.4224H15.8874V91.4849H19.7056ZM28.9751 91.9536C28.9751 92.8741 28.8089 93.6695 28.4766 94.34C28.1442 95.0104 27.6882 95.5275 27.1087 95.8911C26.5291 96.2548 25.8672 96.4366 25.1229 96.4366C24.3786 96.4366 23.7166 96.2548 23.1371 95.8911C22.5575 95.5275 22.1016 95.0104 21.7692 94.34C21.4368 93.6695 21.2706 92.8741 21.2706 91.9536C21.2706 91.0332 21.4368 90.2377 21.7692 89.5673C22.1016 88.8968 22.5575 88.3798 23.1371 88.0161C23.7166 87.6525 24.3786 87.4707 25.1229 87.4707C25.8672 87.4707 26.5291 87.6525 27.1087 88.0161C27.6882 88.3798 28.1442 88.8968 28.4766 89.5673C28.8089 90.2377 28.9751 91.0332 28.9751 91.9536ZM27.9524 91.9536C27.9524 91.1979 27.826 90.5602 27.5732 90.0403C27.3232 89.5204 26.9837 89.1269 26.5547 88.8599C26.1286 88.5928 25.6513 88.4593 25.1229 88.4593C24.5945 88.4593 24.1158 88.5928 23.6868 88.8599C23.2607 89.1269 22.9212 89.5204 22.6683 90.0403C22.4183 90.5602 22.2933 91.1979 22.2933 91.9536C22.2933 92.7093 22.4183 93.3471 22.6683 93.867C22.9212 94.3869 23.2607 94.7803 23.6868 95.0474C24.1158 95.3144 24.5945 95.4479 25.1229 95.4479C25.6513 95.4479 26.1286 95.3144 26.5547 95.0474C26.9837 94.7803 27.3232 94.3869 27.5732 93.867C27.826 93.3471 27.9524 92.7093 27.9524 91.9536Z" fill="black"/>
<path d="M87.9794 166.957C87.9283 166.526 87.7209 166.19 87.3573 165.952C86.9937 165.713 86.5476 165.594 86.0192 165.594C85.6329 165.594 85.2948 165.656 85.005 165.781C84.7181 165.906 84.4937 166.078 84.3317 166.297C84.1726 166.516 84.0931 166.764 84.0931 167.043C84.0931 167.276 84.1485 167.476 84.2593 167.643C84.3729 167.808 84.5178 167.946 84.6939 168.057C84.8701 168.165 85.0547 168.254 85.2479 168.325C85.4411 168.393 85.6187 168.449 85.7806 168.492L86.6669 168.73C86.8942 168.79 87.1471 168.872 87.4255 168.977C87.7067 169.082 87.9752 169.226 88.2309 169.408C88.4894 169.587 88.7025 169.817 88.8701 170.098C89.0377 170.379 89.1215 170.724 89.1215 171.134C89.1215 171.605 88.9979 172.031 88.7508 172.412C88.5064 172.793 88.1485 173.095 87.6769 173.32C87.2081 173.544 86.6385 173.656 85.9681 173.656C85.3431 173.656 84.8019 173.555 84.3445 173.354C83.89 173.152 83.532 172.871 83.2706 172.51C83.0121 172.149 82.8658 171.73 82.8317 171.253H83.9226C83.951 171.582 84.0618 171.855 84.255 172.071C84.451 172.284 84.6982 172.443 84.9965 172.548C85.2976 172.651 85.6215 172.702 85.9681 172.702C86.3715 172.702 86.7337 172.636 87.0547 172.506C87.3758 172.372 87.63 172.188 87.8175 171.952C88.005 171.713 88.0988 171.435 88.0988 171.117C88.0988 170.827 88.0178 170.591 87.8559 170.409C87.6939 170.227 87.4809 170.08 87.2167 169.966C86.9525 169.852 86.6669 169.753 86.3601 169.668L85.2863 169.361C84.6044 169.165 84.0647 168.885 83.6669 168.521C83.2692 168.158 83.0704 167.682 83.0704 167.094C83.0704 166.605 83.2025 166.179 83.4667 165.815C83.7337 165.449 84.0917 165.165 84.5405 164.963C84.9922 164.759 85.4965 164.656 86.0533 164.656C86.6158 164.656 87.1158 164.757 87.5533 164.959C87.9908 165.158 88.3374 165.43 88.5931 165.777C88.8516 166.124 88.988 166.517 89.0022 166.957H87.9794ZM94.4727 168.67V169.608H90.6545V168.67H94.4727ZM103.742 169.139C103.742 170.06 103.576 170.855 103.244 171.526C102.911 172.196 102.455 172.713 101.876 173.077C101.296 173.44 100.634 173.622 99.89 173.622C99.1456 173.622 98.4837 173.44 97.9042 173.077C97.3246 172.713 96.8687 172.196 96.5363 171.526C96.2039 170.855 96.0377 170.06 96.0377 169.139C96.0377 168.219 96.2039 167.423 96.5363 166.753C96.8687 166.082 97.3246 165.565 97.9042 165.202C98.4837 164.838 99.1456 164.656 99.89 164.656C100.634 164.656 101.296 164.838 101.876 165.202C102.455 165.565 102.911 166.082 103.244 166.753C103.576 167.423 103.742 168.219 103.742 169.139ZM102.72 169.139C102.72 168.384 102.593 167.746 102.34 167.226C102.09 166.706 101.751 166.313 101.322 166.045C100.896 165.778 100.418 165.645 99.89 165.645C99.3615 165.645 98.8829 165.778 98.4539 166.045C98.0277 166.313 97.6883 166.706 97.4354 167.226C97.1854 167.746 97.0604 168.384 97.0604 169.139C97.0604 169.895 97.1854 170.533 97.4354 171.053C97.6883 171.572 98.0277 171.966 98.4539 172.233C98.8829 172.5 99.3615 172.634 99.89 172.634C100.418 172.634 100.896 172.5 101.322 172.233C101.751 171.966 102.09 171.572 102.34 171.053C102.593 170.533 102.72 169.895 102.72 169.139Z" fill="black"/>
<path d="M42.6336 145.451C42.6336 146.372 42.4674 147.167 42.135 147.837C41.8026 148.508 41.3467 149.025 40.7671 149.389C40.1876 149.752 39.5256 149.934 38.7813 149.934C38.037 149.934 37.3751 149.752 36.7955 149.389C36.216 149.025 35.76 148.508 35.4276 147.837C35.0952 147.167 34.929 146.372 34.929 145.451C34.929 144.531 35.0952 143.735 35.4276 143.065C35.76 142.394 36.216 141.877 36.7955 141.514C37.3751 141.15 38.037 140.968 38.7813 140.968C39.5256 140.968 40.1876 141.15 40.7671 141.514C41.3467 141.877 41.8026 142.394 42.135 143.065C42.4674 143.735 42.6336 144.531 42.6336 145.451ZM41.6109 145.451C41.6109 144.695 41.4844 144.058 41.2316 143.538C40.9816 143.018 40.6421 142.624 40.2131 142.357C39.787 142.09 39.3097 141.957 38.7813 141.957C38.2529 141.957 37.7742 142.09 37.3452 142.357C36.9191 142.624 36.5796 143.018 36.3268 143.538C36.0768 144.058 35.9518 144.695 35.9518 145.451C35.9518 146.207 36.0768 146.845 36.3268 147.364C36.5796 147.884 36.9191 148.278 37.3452 148.545C37.7742 148.812 38.2529 148.945 38.7813 148.945C39.3097 148.945 39.787 148.812 40.2131 148.545C40.6421 148.278 40.9816 147.884 41.2316 147.364C41.4844 146.845 41.6109 146.207 41.6109 145.451Z" fill="black"/>
<circle cx="1" cy="1" r="1" transform="matrix(-0.707107 0.707107 0.707107 0.707107 45.9307 43.1378)" fill="black"/>
<circle cx="1" cy="1" r="1" transform="matrix(-0.71718 0.696888 0.696888 0.71718 47.9359 84.8106)" fill="black"/>
<circle cx="1" cy="1" r="1" transform="matrix(-0.71718 0.696888 0.696888 0.71718 50.1888 75.6496)" fill="black"/>
<circle cx="1" cy="1" r="1" transform="matrix(-0.71718 0.696888 0.696888 0.71718 54.5731 65.812)" fill="black"/>
<circle cx="1" cy="1" r="1" transform="matrix(-0.995712 -0.0925086 -0.0925086 0.995712 68.6977 52.9539)" fill="black"/>
<circle cx="1" cy="1" r="1" transform="matrix(-0.995712 -0.0925086 -0.0925086 0.995712 77.1259 48.7154)" fill="black"/>
<circle cx="1" cy="1" r="1" transform="matrix(-0.995712 -0.0925086 -0.0925086 0.995712 87.4531 45.6576)" fill="black"/>
<circle cx="1" cy="1" r="1" transform="matrix(-0.628086 -0.778144 -0.778144 0.628086 103.277 46.8872)" fill="black"/>
<circle cx="1" cy="1" r="1" transform="matrix(-0.628086 -0.778144 -0.778144 0.628086 112.192 49.9719)" fill="black"/>
<circle cx="1" cy="1" r="1" transform="matrix(-0.628086 -0.778144 -0.778144 0.628086 121.586 55.241)" fill="black"/>
<circle cx="1" cy="1" r="1" transform="matrix(0.71718 -0.696888 -0.696888 -0.71718 138.499 99.4621)" fill="black"/>
<circle cx="1" cy="1" r="1" transform="matrix(0.71718 -0.696888 -0.696888 -0.71718 136.246 108.623)" fill="black"/>
<circle cx="1" cy="1" r="1" transform="matrix(0.71718 -0.696888 -0.696888 -0.71718 131.862 118.461)" fill="black"/>
<circle cx="1" cy="1" r="1" transform="matrix(0.71718 -0.696888 -0.696888 -0.71718 141.39 141.426)" fill="black"/>
<circle cx="1" cy="1" r="1" transform="matrix(0.126022 -0.992027 -0.992027 -0.126022 132.5 68.5816)" fill="black"/>
<circle cx="1" cy="1" r="1" transform="matrix(0.126022 -0.992027 -0.992027 -0.126022 136.452 77.1479)" fill="black"/>
<circle cx="1" cy="1" r="1" transform="matrix(0.126022 -0.992027 -0.992027 -0.126022 139.16 87.5723)" fill="black"/>
<circle cx="1" cy="1" r="1" transform="matrix(0.995712 0.0925087 0.0925087 -0.995712 117.737 131.319)" fill="black"/>
<circle cx="1" cy="1" r="1" transform="matrix(0.995712 0.0925087 0.0925087 -0.995712 109.309 135.557)" fill="black"/>
<circle cx="1" cy="1" r="1" transform="matrix(0.995712 0.0925087 0.0925087 -0.995712 98.9815 138.615)" fill="black"/>
<circle cx="1" cy="1" r="1" transform="matrix(0.678374 0.734717 0.734717 -0.678374 85.6471 137.376)" fill="black"/>
<circle cx="1" cy="1" r="1" transform="matrix(0.678374 0.734717 0.734717 -0.678374 76.5465 134.89)" fill="black"/>
<circle cx="1" cy="1" r="1" transform="matrix(0.678374 0.734717 0.734717 -0.678374 66.8239 130.256)" fill="black"/>
<circle cx="1" cy="1" r="1" transform="matrix(-0.117868 0.993029 0.993029 0.117868 54.33 115.808)" fill="black"/>
<circle cx="1" cy="1" r="1" transform="matrix(-0.117868 0.993029 0.993029 0.117868 50.3078 107.274)" fill="black"/>
<circle cx="1" cy="1" r="1" transform="matrix(-0.117868 0.993029 0.993029 0.117868 47.5143 96.8727)" fill="black"/>
<path d="M49.4663 48.0876L64.6691 63.2904" stroke="black" stroke-width="0.75"/>
<circle cx="1" cy="1" r="1" transform="matrix(-0.707107 -0.707107 -0.707107 0.707107 142.804 43.845)" fill="black"/>
<circle cx="1" cy="1" r="1" transform="matrix(-0.707107 -0.707107 -0.707107 0.707107 48.052 138.597)" fill="black"/>
<circle cx="1" cy="1" r="1" transform="matrix(-0.707107 -0.707107 -0.707107 0.707107 33.9099 92.3424)" fill="black"/>
<path d="M122.298 120.92L137.501 136.122" stroke="black" stroke-width="0.75"/>
<path d="M137.742 47.8464L122.539 63.0492" stroke="black" stroke-width="0.75"/>
<path d="M65.3762 119.859L50.1734 135.062" stroke="black" stroke-width="0.75"/>
<path d="M93.7249 36.9716V51.1137" stroke="#F9DA1B" stroke-width="0.75"/>
<path d="M92.774 132.439L92.6047 147.656" stroke="black" stroke-width="0.75"/>
<path d="M148.461 91.9282L134.475 91.8637" stroke="black" stroke-width="0.75"/>
<path d="M52.9844 92.2495L37.4359 92.2495" stroke="black" stroke-width="0.75"/>
<path d="M89.5149 91.9282L85.7058 85.0471C85.1958 84.1249 86.2106 83.1101 87.1328 83.6201L94.0139 87.4279L100.895 83.6201C101.817 83.1101 102.832 84.1249 102.322 85.0471L98.5143 91.9282L102.322 98.8093C102.832 99.7316 101.817 100.746 100.895 100.236L94.0139 96.4285L87.1328 100.236C86.2106 100.746 85.1958 99.7316 85.7058 98.8093L89.5136 91.9282H89.5149Z" fill="#164194"/>
<circle cx="1" cy="1" r="1" transform="matrix(-0.707107 -0.707107 -0.707107 0.707107 95.4282 30.4099)" fill="#F9DA1B"/>
<circle cx="1" cy="1" r="1" transform="matrix(-0.707107 -0.707107 -0.707107 0.707107 154.825 92.6353)" fill="black"/>
<circle cx="1" cy="1" r="1" transform="matrix(-0.793263 -0.60888 -0.60888 0.793263 93.8585 153.253)" fill="black"/>
</svg>
