<svg width="184" height="184" viewBox="0 0 184 184" fill="none" xmlns="http://www.w3.org/2000/svg">
<rect width="184" height="184" fill="white"/>
<path d="M172.977 86.2728V95.0001H171.954L167.199 88.1478H167.113V95.0001H166.057V86.2728H167.079L171.852 93.1421H171.937V86.2728H172.977Z" fill="black"/>
<path d="M15.8295 89.4544C15.7784 89.0225 15.571 88.6873 15.2074 88.4487C14.8437 88.21 14.3977 88.0907 13.8693 88.0907C13.483 88.0907 13.1449 88.1532 12.8551 88.2782C12.5682 88.4032 12.3437 88.5751 12.1818 88.7939C12.0227 89.0126 11.9432 89.2612 11.9432 89.5396C11.9432 89.7725 11.9986 89.9728 12.1094 90.1404C12.223 90.3052 12.3679 90.443 12.544 90.5538C12.7202 90.6617 12.9048 90.7512 13.098 90.8223C13.2912 90.8904 13.4687 90.9458 13.6307 90.9885L14.517 91.2271C14.7443 91.2867 14.9972 91.3691 15.2756 91.4742C15.5568 91.5794 15.8253 91.7228 16.081 91.9046C16.3395 92.0836 16.5526 92.3137 16.7202 92.595C16.8878 92.8762 16.9716 93.2214 16.9716 93.6305C16.9716 94.1021 16.848 94.5282 16.6009 94.9089C16.3565 95.2896 15.9986 95.5921 15.527 95.8166C15.0582 96.041 14.4886 96.1532 13.8182 96.1532C13.1932 96.1532 12.652 96.0524 12.1946 95.8507C11.7401 95.649 11.3821 95.3677 11.1207 95.0069C10.8622 94.6461 10.7159 94.2271 10.6818 93.7498H11.7727C11.8011 94.0794 11.9119 94.3521 12.1051 94.568C12.3011 94.7811 12.5483 94.9402 12.8466 95.0453C13.1477 95.1475 13.4716 95.1987 13.8182 95.1987C14.2216 95.1987 14.5838 95.1333 14.9048 95.0027C15.2259 94.8691 15.4801 94.6845 15.6676 94.4487C15.8551 94.21 15.9489 93.9316 15.9489 93.6135C15.9489 93.3237 15.8679 93.0879 15.706 92.9061C15.544 92.7242 15.331 92.5765 15.0668 92.4629C14.8026 92.3492 14.517 92.2498 14.2102 92.1646L13.1364 91.8578C12.4545 91.6617 11.9148 91.3819 11.517 91.0183C11.1193 90.6546 10.9205 90.1788 10.9205 89.5907C10.9205 89.1021 11.0526 88.676 11.3168 88.3123C11.5838 87.9458 11.9418 87.6617 12.3906 87.46C12.8423 87.2555 13.3466 87.1532 13.9034 87.1532C14.4659 87.1532 14.9659 87.2541 15.4034 87.4558C15.8409 87.6546 16.1875 87.9274 16.4432 88.274C16.7017 88.6206 16.8381 89.014 16.8523 89.4544H15.8295Z" fill="black"/>
<path d="M89.0566 173V164.273H94.3236V165.21H90.1134V168.159H94.0509V169.096H90.1134V172.062H94.3918V173H89.0566Z" fill="black"/>
<path d="M139.977 146.273V155H138.954L134.199 148.148H134.113V155H133.057V146.273H134.079L138.852 153.142H138.937V146.273H139.977ZM145.705 150.168V151.105H141.887V150.168H145.705ZM147.611 155V146.273H152.878V147.21H148.668V150.159H152.606V151.097H148.668V154.062H152.946V155H147.611Z" fill="black"/>
<path d="M36.3293 143.954C36.2782 143.523 36.0708 143.187 35.7071 142.949C35.3435 142.71 34.8975 142.591 34.3691 142.591C33.9827 142.591 33.6446 142.653 33.3549 142.778C33.0679 142.903 32.8435 143.075 32.6816 143.294C32.5225 143.513 32.4429 143.761 32.4429 144.04C32.4429 144.273 32.4983 144.473 32.6091 144.641C32.7228 144.805 32.8677 144.943 33.0438 145.054C33.2199 145.162 33.4046 145.251 33.5978 145.322C33.7909 145.391 33.9685 145.446 34.1304 145.489L35.0168 145.727C35.2441 145.787 35.4969 145.869 35.7753 145.974C36.0566 146.079 36.325 146.223 36.5807 146.405C36.8392 146.584 37.0523 146.814 37.2199 147.095C37.3875 147.376 37.4713 147.721 37.4713 148.131C37.4713 148.602 37.3478 149.028 37.1006 149.409C36.8563 149.79 36.4983 150.092 36.0267 150.317C35.558 150.541 34.9884 150.653 34.3179 150.653C33.6929 150.653 33.1517 150.552 32.6944 150.351C32.2398 150.149 31.8819 149.868 31.6205 149.507C31.362 149.146 31.2157 148.727 31.1816 148.25H32.2725C32.3009 148.579 32.4117 148.852 32.6049 149.068C32.8009 149.281 33.0481 149.44 33.3463 149.545C33.6475 149.648 33.9713 149.699 34.3179 149.699C34.7213 149.699 35.0836 149.633 35.4046 149.503C35.7256 149.369 35.9799 149.185 36.1674 148.949C36.3549 148.71 36.4486 148.432 36.4486 148.114C36.4486 147.824 36.3677 147.588 36.2057 147.406C36.0438 147.224 35.8307 147.077 35.5665 146.963C35.3023 146.849 35.0168 146.75 34.71 146.665L33.6361 146.358C32.9543 146.162 32.4145 145.882 32.0168 145.518C31.6191 145.155 31.4202 144.679 31.4202 144.091C31.4202 143.602 31.5523 143.176 31.8165 142.812C32.0836 142.446 32.4415 142.162 32.8904 141.96C33.3421 141.756 33.8463 141.653 34.4032 141.653C34.9657 141.653 35.4657 141.754 35.9032 141.956C36.3407 142.155 36.6873 142.427 36.9429 142.774C37.2015 143.121 37.3378 143.514 37.352 143.954H36.3293ZM42.8226 145.667V146.605H39.0044V145.667H42.8226ZM44.7284 150.5V141.773H49.9955V142.71H45.7853V145.659H49.7228V146.596H45.7853V149.562H50.0637V150.5H44.7284Z" fill="black"/>
<path d="M138.977 31.2727V39.9999H137.954L133.199 33.1477H133.113V39.9999H132.057V31.2727H133.079L137.852 38.142H137.937V31.2727H138.977ZM144.705 35.1676V36.1051H140.887V35.1676H144.705ZM153.975 35.6363C153.975 36.5568 153.809 37.3522 153.476 38.0227C153.144 38.6931 152.688 39.2102 152.108 39.5738C151.529 39.9374 150.867 40.1193 150.123 40.1193C149.378 40.1193 148.716 39.9374 148.137 39.5738C147.557 39.2102 147.101 38.6931 146.769 38.0227C146.437 37.3522 146.27 36.5568 146.27 35.6363C146.27 34.7158 146.437 33.9204 146.769 33.2499C147.101 32.5795 147.557 32.0624 148.137 31.6988C148.716 31.3352 149.378 31.1533 150.123 31.1533C150.867 31.1533 151.529 31.3352 152.108 31.6988C152.688 32.0624 153.144 32.5795 153.476 33.2499C153.809 33.9204 153.975 34.7158 153.975 35.6363ZM152.952 35.6363C152.952 34.8806 152.826 34.2428 152.573 33.7229C152.323 33.2031 151.983 32.8096 151.554 32.5426C151.128 32.2755 150.651 32.142 150.123 32.142C149.594 32.142 149.116 32.2755 148.687 32.5426C148.26 32.8096 147.921 33.2031 147.668 33.7229C147.418 34.2428 147.293 34.8806 147.293 35.6363C147.293 36.392 147.418 37.0298 147.668 37.5497C147.921 38.0695 148.26 38.463 148.687 38.7301C149.116 38.9971 149.594 39.1306 150.123 39.1306C150.651 39.1306 151.128 38.9971 151.554 38.7301C151.983 38.463 152.323 38.0695 152.573 37.5497C152.826 37.0298 152.952 36.392 152.952 35.6363Z" fill="black"/>
<path d="M33.2558 35.6742C33.2047 35.2424 32.9973 34.9072 32.6337 34.6685C32.27 34.4299 31.824 34.3106 31.2956 34.3106C30.9092 34.3106 30.5712 34.3731 30.2814 34.4981C29.9945 34.6231 29.77 34.7949 29.6081 35.0137C29.449 35.2324 29.3695 35.481 29.3695 35.7594C29.3695 35.9924 29.4248 36.1927 29.5356 36.3603C29.6493 36.5251 29.7942 36.6628 29.9703 36.7736C30.1464 36.8816 30.3311 36.9711 30.5243 37.0421C30.7175 37.1103 30.895 37.1657 31.057 37.2083L31.9433 37.4469C32.1706 37.5066 32.4234 37.589 32.7018 37.6941C32.9831 37.7992 33.2516 37.9427 33.5072 38.1245C33.7658 38.3035 33.9788 38.5336 34.1464 38.8148C34.3141 39.0961 34.3979 39.4413 34.3979 39.8503C34.3979 40.3219 34.2743 40.7481 34.0271 41.1288C33.7828 41.5094 33.4248 41.812 32.9533 42.0364C32.4845 42.2609 31.9149 42.3731 31.2445 42.3731C30.6195 42.3731 30.0783 42.2722 29.6209 42.0705C29.1663 41.8688 28.8084 41.5876 28.547 41.2268C28.2885 40.866 28.1422 40.4469 28.1081 39.9697H29.199C29.2274 40.2992 29.3382 40.5719 29.5314 40.7878C29.7274 41.0009 29.9746 41.16 30.2729 41.2651C30.574 41.3674 30.8979 41.4185 31.2445 41.4185C31.6479 41.4185 32.0101 41.3532 32.3311 41.2225C32.6521 41.089 32.9064 40.9043 33.0939 40.6685C33.2814 40.4299 33.3751 40.1515 33.3751 39.8333C33.3751 39.5435 33.2942 39.3077 33.1322 39.1259C32.9703 38.9441 32.7572 38.7964 32.493 38.6827C32.2288 38.5691 31.9433 38.4697 31.6365 38.3844L30.5626 38.0776C29.8808 37.8816 29.341 37.6018 28.9433 37.2381C28.5456 36.8745 28.3467 36.3986 28.3467 35.8106C28.3467 35.3219 28.4788 34.8958 28.743 34.5322C29.0101 34.1657 29.368 33.8816 29.8169 33.6799C30.2686 33.4753 30.7729 33.3731 31.3297 33.3731C31.8922 33.3731 32.3922 33.4739 32.8297 33.6756C33.2672 33.8745 33.6138 34.1472 33.8695 34.4938C34.128 34.8404 34.2643 35.2339 34.2785 35.6742H33.2558ZM39.7491 37.3873V38.3248H35.9309V37.3873H39.7491ZM49.0186 37.856C49.0186 38.7765 48.8524 39.5719 48.52 40.2424C48.1876 40.9128 47.7317 41.4299 47.1521 41.7935C46.5726 42.1572 45.9106 42.339 45.1663 42.339C44.422 42.339 43.7601 42.1572 43.1805 41.7935C42.601 41.4299 42.145 40.9128 41.8126 40.2424C41.4802 39.5719 41.3141 38.7765 41.3141 37.856C41.3141 36.9356 41.4802 36.1401 41.8126 35.4697C42.145 34.7992 42.601 34.2822 43.1805 33.9185C43.7601 33.5549 44.422 33.3731 45.1663 33.3731C45.9106 33.3731 46.5726 33.5549 47.1521 33.9185C47.7317 34.2822 48.1876 34.7992 48.52 35.4697C48.8524 36.1401 49.0186 36.9356 49.0186 37.856ZM47.9959 37.856C47.9959 37.1003 47.8694 36.4626 47.6166 35.9427C47.3666 35.4228 47.0271 35.0293 46.5981 34.7623C46.172 34.4952 45.6947 34.3617 45.1663 34.3617C44.6379 34.3617 44.1592 34.4952 43.7302 34.7623C43.3041 35.0293 42.9646 35.4228 42.7118 35.9427C42.4618 36.4626 42.3368 37.1003 42.3368 37.856C42.3368 38.6117 42.4618 39.2495 42.7118 39.7694C42.9646 40.2893 43.3041 40.6827 43.7302 40.9498C44.1592 41.2168 44.6379 41.3503 45.1663 41.3503C45.6947 41.3503 46.172 41.2168 46.5981 40.9498C47.0271 40.6827 47.3666 40.2893 47.6166 39.7694C47.8694 39.2495 47.9959 38.6117 47.9959 37.856Z" fill="black"/>
<path d="M96.8239 14.5455C96.8239 15.7209 96.6037 16.7276 96.1634 17.5657C95.7266 18.4002 95.13 19.0394 94.3736 19.4833C93.6207 19.9272 92.7667 20.1491 91.8114 20.1491C90.8562 20.1491 90.0004 19.9272 89.244 19.4833C88.4911 19.0359 87.8945 18.3949 87.4542 17.5604C87.0174 16.7223 86.799 15.7173 86.799 14.5455C86.799 13.37 87.0174 12.3651 87.4542 11.5305C87.8945 10.6925 88.4911 10.0515 89.244 9.6076C90.0004 9.16371 90.8562 8.94176 91.8114 8.94176C92.7667 8.94176 93.6207 9.16371 94.3736 9.6076C95.13 10.0515 95.7266 10.6925 96.1634 11.5305C96.6037 12.3651 96.8239 13.37 96.8239 14.5455ZM94.837 14.5455C94.837 13.718 94.7074 13.0202 94.4482 12.4521C94.1925 11.8803 93.8374 11.4489 93.3828 11.1577C92.9283 10.8629 92.4045 10.7156 91.8114 10.7156C91.2184 10.7156 90.6946 10.8629 90.2401 11.1577C89.7855 11.4489 89.4286 11.8803 89.1694 12.4521C88.9137 13.0202 88.7859 13.718 88.7859 14.5455C88.7859 15.3729 88.9137 16.0724 89.1694 16.6442C89.4286 17.2124 89.7855 17.6438 90.2401 17.9386C90.6946 18.2298 91.2184 18.3754 91.8114 18.3754C92.4045 18.3754 92.9283 18.2298 93.3828 17.9386C93.8374 17.6438 94.1925 17.2124 94.4482 16.6442C94.7074 16.0724 94.837 15.3729 94.837 14.5455Z" fill="#F9DA1B"/>
<circle cx="1" cy="1" r="1" transform="matrix(0 -1 -1 0 160.5 92.4999)" fill="black"/>
<circle cx="1" cy="1" r="1" transform="matrix(0.014349 -0.999897 -0.999897 -0.014349 129.615 64.4508)" fill="black"/>
<circle cx="1" cy="1" r="1" transform="matrix(0.014349 -0.999897 -0.999897 -0.014349 134.5 72.5217)" fill="black"/>
<circle cx="1" cy="1" r="1" transform="matrix(0.014349 -0.999897 -0.999897 -0.014349 138.356 82.5781)" fill="black"/>
<circle cx="1" cy="1" r="1" transform="matrix(0.769488 -0.638661 -0.638661 -0.769488 137.46 101.658)" fill="black"/>
<circle cx="1" cy="1" r="1" transform="matrix(0.769488 -0.638661 -0.638661 -0.769488 134.498 110.615)" fill="black"/>
<circle cx="1" cy="1" r="1" transform="matrix(0.769488 -0.638661 -0.638661 -0.769488 129.358 120.079)" fill="black"/>
<circle cx="1" cy="1" r="1" transform="matrix(0.994355 0.106107 0.106107 -0.994355 117.299 130.399)" fill="black"/>
<circle cx="1" cy="1" r="1" transform="matrix(0.994355 0.106107 0.106107 -0.994355 108.813 134.522)" fill="black"/>
<circle cx="1" cy="1" r="1" transform="matrix(0.994355 0.106107 0.106107 -0.994355 98.4454 137.438)" fill="black"/>
<circle cx="1" cy="1" r="1" transform="matrix(-0.0143491 0.999897 0.999897 0.0143491 55.2167 118.128)" fill="black"/>
<circle cx="1" cy="1" r="1" transform="matrix(-0.0143491 0.999897 0.999897 0.0143491 50.332 110.057)" fill="black"/>
<circle cx="1" cy="1" r="1" transform="matrix(-0.0143491 0.999897 0.999897 0.0143491 46.476 100.001)" fill="black"/>
<circle cx="1" cy="1" r="1" transform="matrix(-0.0143491 0.999897 0.999897 0.0143491 23.5 90.5001)" fill="black"/>
<circle cx="1" cy="1" r="1" transform="matrix(0.612358 0.79058 0.79058 -0.612358 81.2946 135.723)" fill="black"/>
<circle cx="1" cy="1" r="1" transform="matrix(0.612358 0.79058 0.79058 -0.612358 72.4428 132.46)" fill="black"/>
<circle cx="1" cy="1" r="1" transform="matrix(0.612358 0.79058 0.79058 -0.612358 63.1569 127.003)" fill="black"/>
<circle cx="1" cy="1" r="1" transform="matrix(-0.769488 0.638661 0.638661 0.769488 47.3716 80.9212)" fill="black"/>
<circle cx="1" cy="1" r="1" transform="matrix(-0.769488 0.638661 0.638661 0.769488 50.3342 71.9645)" fill="black"/>
<circle cx="1" cy="1" r="1" transform="matrix(-0.769488 0.638661 0.638661 0.769488 55.4745 62.4999)" fill="black"/>
<circle cx="1" cy="1" r="1" transform="matrix(-0.999206 -0.0398401 -0.0398401 0.999206 65.78 53.9476)" fill="black"/>
<circle cx="1" cy="1" r="1" transform="matrix(-0.999206 -0.0398401 -0.0398401 0.999206 73.9728 49.2703)" fill="black"/>
<circle cx="1" cy="1" r="1" transform="matrix(-0.999206 -0.0398401 -0.0398401 0.999206 84.1243 45.6719)" fill="black"/>
<circle cx="1" cy="1" r="1" transform="matrix(-0.618833 -0.785523 -0.785523 0.618833 103.175 47.0537)" fill="black"/>
<circle cx="1" cy="1" r="1" transform="matrix(-0.618833 -0.785523 -0.785523 0.618833 112.054 50.2437)" fill="black"/>
<circle cx="1" cy="1" r="1" transform="matrix(-0.618833 -0.785523 -0.785523 0.618833 121.384 55.6236)" fill="black"/>
<path d="M154.5 91.5H133" stroke="black" stroke-width="0.75"/>
<circle cx="1" cy="1" r="1" transform="matrix(1 8.42937e-08 8.42937e-08 -1 91.4998 160.5)" fill="black"/>
<circle cx="1" cy="1" r="1" transform="matrix(1 8.42937e-08 8.42937e-08 -1 91.4998 26.4999)" fill="#F9DA1B"/>
<circle cx="1" cy="1" r="1" transform="matrix(1 8.42937e-08 8.42937e-08 -1 133.5 48.5)" fill="black"/>
<path d="M51.5 91.4999H30" stroke="black" stroke-width="0.75"/>
<path d="M92.25 154.091L92.25 132.591" stroke="black" stroke-width="0.75"/>
<path d="M92.4998 52.0001L92.4998 30.5001" stroke="#F9DA1B" stroke-width="0.75"/>
<path d="M131.065 130.656L121.065 120.656" stroke="black" stroke-width="0.75"/>
<path d="M63.9021 62.5886L53.0323 51.9386" stroke="black" stroke-width="0.75"/>
<path d="M53.4998 130.5L63.4352 120.656" stroke="black" stroke-width="0.75"/>
<path d="M121.064 63.0265L131.5 51.5" stroke="black" stroke-width="0.75"/>
<path d="M95.1813 88.8188L102.74 90.991C103.753 91.2825 103.753 92.7176 102.74 93.0091L95.1822 95.1823L93.0091 102.74C92.7176 103.753 91.2824 103.753 90.9909 102.74L88.8178 95.1823L81.2596 93.0091C80.2468 92.7176 80.2468 91.2825 81.2596 90.991L88.8178 88.8179L90.9909 81.2596C91.2824 80.2469 92.7176 80.2469 93.0091 81.2596L95.1822 88.8179L95.1813 88.8188Z" fill="#164194"/>
<circle cx="1" cy="1" r="1" transform="matrix(1 8.42937e-08 8.42937e-08 -1 134.5 136.5)" fill="black"/>
<circle cx="1" cy="1" r="1" transform="matrix(1 8.42937e-08 8.42937e-08 -1 48.603 134.603)" fill="black"/>
<circle cx="1" cy="1" r="1" transform="matrix(1 8.42937e-08 8.42937e-08 -1 47.7046 48.6191)" fill="black"/>
</svg>
