<svg width="184" height="184" viewBox="0 0 184 184" fill="none" xmlns="http://www.w3.org/2000/svg">
<rect width="184" height="184" fill="white"/>
<path d="M148.524 142.691V151.418H147.501L142.746 144.566H142.661V151.418H141.604V142.691H142.626L147.399 149.56H147.484V142.691H148.524Z" fill="black"/>
<path d="M37.7751 33.8571C37.724 33.4253 37.5166 33.0901 37.1529 32.8515C36.7893 32.6128 36.3433 32.4935 35.8149 32.4935C35.4285 32.4935 35.0904 32.556 34.8007 32.681C34.5137 32.806 34.2893 32.9779 34.1274 33.1966C33.9683 33.4154 33.8887 33.664 33.8887 33.9424C33.8887 34.1753 33.9441 34.3756 34.0549 34.5432C34.1686 34.708 34.3135 34.8458 34.4896 34.9566C34.6657 35.0645 34.8504 35.154 35.0436 35.225C35.2367 35.2932 35.4143 35.3486 35.5762 35.3912L36.4626 35.6299C36.6899 35.6895 36.9427 35.7719 37.2211 35.877C37.5024 35.9821 37.7708 36.1256 38.0265 36.3074C38.285 36.4864 38.4981 36.7165 38.6657 36.9978C38.8333 37.279 38.9171 37.6242 38.9171 38.0333C38.9171 38.5049 38.7936 38.931 38.5464 39.3117C38.3021 39.6924 37.9441 39.9949 37.4725 40.2193C37.0038 40.4438 36.4342 40.556 35.7637 40.556C35.1387 40.556 34.5975 40.4551 34.1402 40.2534C33.6856 40.0517 33.3277 39.7705 33.0663 39.4097C32.8078 39.0489 32.6615 38.6299 32.6274 38.1526H33.7183C33.7467 38.4821 33.8575 38.7549 34.0507 38.9708C34.2467 39.1838 34.4939 39.3429 34.7921 39.448C35.0933 39.5503 35.4171 39.6015 35.7637 39.6015C36.1671 39.6015 36.5294 39.5361 36.8504 39.4054C37.1714 39.2719 37.4257 39.0872 37.6132 38.8515C37.8007 38.6128 37.8944 38.3344 37.8944 38.0162C37.8944 37.7265 37.8135 37.4907 37.6515 37.3088C37.4896 37.127 37.2765 36.9793 37.0123 36.8657C36.7481 36.752 36.4626 36.6526 36.1558 36.5674L35.0819 36.2605C34.4001 36.0645 33.8603 35.7847 33.4626 35.4211C33.0649 35.0574 32.866 34.5816 32.866 33.9935C32.866 33.5049 32.9981 33.0787 33.2623 32.7151C33.5294 32.3486 33.8873 32.0645 34.3362 31.8628C34.7879 31.6583 35.2921 31.556 35.849 31.556C36.4115 31.556 36.9115 31.6568 37.349 31.8586C37.7865 32.0574 38.1331 32.3301 38.3887 32.6767C38.6473 33.0233 38.7836 33.4168 38.7978 33.8571H37.7751Z" fill="black"/>
<path d="M33.7094 150.004V141.277H38.9765V142.214H34.7662V145.163H38.7037V146.101H34.7662V149.067H39.0446V150.004H33.7094Z" fill="black"/>
<path d="M86.4201 164.611V173.339H85.3974L80.6417 166.486H80.5565V173.339H79.4997V164.611H80.5224L85.2951 171.481H85.3804V164.611H86.4201ZM92.1485 168.506V169.444H88.3303V168.506H92.1485ZM94.0544 173.339V164.611H99.3214V165.549H95.1112V168.498H99.0487V169.435H95.1112V172.401H99.3896V173.339H94.0544Z" fill="black"/>
<path d="M11.8295 88.4863C11.7784 88.0545 11.571 87.7192 11.2074 87.4806C10.8437 87.242 10.3977 87.1226 9.86932 87.1226C9.48295 87.1226 9.14489 87.1851 8.85511 87.3101C8.56818 87.4351 8.34375 87.607 8.18182 87.8258C8.02273 88.0445 7.94318 88.2931 7.94318 88.5715C7.94318 88.8045 7.99858 89.0047 8.10937 89.1724C8.22301 89.3371 8.3679 89.4749 8.54403 89.5857C8.72017 89.6937 8.90483 89.7832 9.09801 89.8542C9.29119 89.9224 9.46875 89.9778 9.63068 90.0204L10.517 90.259C10.7443 90.3187 10.9972 90.4011 11.2756 90.5062C11.5568 90.6113 11.8253 90.7547 12.081 90.9366C12.3395 91.1155 12.5526 91.3457 12.7202 91.6269C12.8878 91.9082 12.9716 92.2533 12.9716 92.6624C12.9716 93.134 12.848 93.5601 12.6009 93.9408C12.3565 94.3215 11.9986 94.6241 11.527 94.8485C11.0582 95.0729 10.4886 95.1851 9.81818 95.1851C9.19318 95.1851 8.65199 95.0843 8.1946 94.8826C7.74006 94.6809 7.3821 94.3996 7.12074 94.0388C6.86222 93.678 6.71591 93.259 6.68182 92.7817H7.77273C7.80114 93.1113 7.91193 93.384 8.10511 93.5999C8.30114 93.813 8.5483 93.9721 8.84659 94.0772C9.14773 94.1795 9.47159 94.2306 9.81818 94.2306C10.2216 94.2306 10.5838 94.1653 10.9048 94.0346C11.2259 93.9011 11.4801 93.7164 11.6676 93.4806C11.8551 93.242 11.9489 92.9636 11.9489 92.6454C11.9489 92.3556 11.8679 92.1198 11.706 91.938C11.544 91.7562 11.331 91.6084 11.0668 91.4948C10.8026 91.3812 10.517 91.2817 10.2102 91.1965L9.13636 90.8897C8.45455 90.6937 7.91477 90.4138 7.51705 90.0502C7.11932 89.6866 6.92045 89.2107 6.92045 88.6226C6.92045 88.134 7.05256 87.7079 7.31676 87.3442C7.58381 86.9778 7.94176 86.6937 8.39062 86.492C8.84233 86.2874 9.34659 86.1851 9.90341 86.1851C10.4659 86.1851 10.9659 86.286 11.4034 86.4877C11.8409 86.6866 12.1875 86.9593 12.4432 87.3059C12.7017 87.6525 12.8381 88.0459 12.8523 88.4863H11.8295ZM18.3228 90.1994V91.1369H14.5046V90.1994H18.3228ZM20.2287 95.0317V86.3045H25.4957V87.242H21.2855V90.1908H25.223V91.1283H21.2855V94.0942H25.5639V95.0317H20.2287Z" fill="black"/>
<path d="M162.738 86.2942V95.0215H161.715L156.959 88.1692H156.874V95.0215H155.817V86.2942H156.84L161.613 93.1635H161.698V86.2942H162.738ZM168.466 90.1891V91.1266H164.648V90.1891H168.466ZM177.735 90.6578C177.735 91.5783 177.569 92.3738 177.237 93.0442C176.904 93.7147 176.448 94.2317 175.869 94.5953C175.289 94.959 174.627 95.1408 173.883 95.1408C173.139 95.1408 172.477 94.959 171.897 94.5953C171.318 94.2317 170.862 93.7147 170.529 93.0442C170.197 92.3738 170.031 91.5783 170.031 90.6578C170.031 89.7374 170.197 88.9419 170.529 88.2715C170.862 87.601 171.318 87.084 171.897 86.7203C172.477 86.3567 173.139 86.1749 173.883 86.1749C174.627 86.1749 175.289 86.3567 175.869 86.7203C176.448 87.084 176.904 87.601 177.237 88.2715C177.569 88.9419 177.735 89.7374 177.735 90.6578ZM176.713 90.6578C176.713 89.9022 176.586 89.2644 176.333 88.7445C176.083 88.2246 175.744 87.8311 175.315 87.5641C174.889 87.2971 174.412 87.1635 173.883 87.1635C173.355 87.1635 172.876 87.2971 172.447 87.5641C172.021 87.8311 171.681 88.2246 171.429 88.7445C171.179 89.2644 171.054 89.9022 171.054 90.6578C171.054 91.4135 171.179 92.0513 171.429 92.5712C171.681 93.0911 172.021 93.4846 172.447 93.7516C172.876 94.0186 173.355 94.1522 173.883 94.1522C174.412 94.1522 174.889 94.0186 175.315 93.7516C175.744 93.4846 176.083 93.0911 176.333 92.5712C176.586 92.0513 176.713 91.4135 176.713 90.6578Z" fill="black"/>
<path d="M85.0046 14.0898C84.9549 13.6246 84.7454 13.2624 84.3761 13.0032C84.0103 12.744 83.5344 12.6143 82.9485 12.6143C82.5366 12.6143 82.1832 12.6765 81.8885 12.8008C81.5937 12.9251 81.3683 13.0937 81.212 13.3068C81.0558 13.5199 80.9759 13.7631 80.9723 14.0366C80.9723 14.2638 81.0238 14.4609 81.1268 14.6278C81.2333 14.7947 81.3771 14.9368 81.5582 15.054C81.7393 15.1676 81.94 15.2635 82.1602 15.3416C82.3803 15.4197 82.6023 15.4854 82.826 15.5387L83.8487 15.7944C84.2607 15.8903 84.6566 16.0199 85.0366 16.1832C85.4201 16.3466 85.7628 16.5526 86.0646 16.8011C86.37 17.0497 86.6115 17.3498 86.7891 17.7013C86.9666 18.0529 87.0554 18.4648 87.0554 18.9371C87.0554 19.5763 86.892 20.1392 86.5653 20.6257C86.2386 21.1087 85.7663 21.4869 85.1484 21.7603C84.5341 22.0302 83.7901 22.1651 82.9165 22.1651C82.0678 22.1651 81.331 22.0337 80.706 21.771C80.0845 21.5082 79.598 21.1246 79.2464 20.6204C78.8984 20.1161 78.7102 19.5018 78.6818 18.7773H80.6261C80.6545 19.1573 80.7717 19.4734 80.9776 19.7255C81.1836 19.9776 81.4517 20.1658 81.782 20.2901C82.1158 20.4144 82.4886 20.4766 82.9006 20.4766C83.3303 20.4766 83.7067 20.4126 84.0298 20.2848C84.3565 20.1534 84.6122 19.9723 84.7969 19.7415C84.9815 19.5071 85.0756 19.2337 85.0792 18.9212C85.0756 18.6371 84.9922 18.4027 84.8288 18.218C84.6655 18.0298 84.4364 17.8736 84.1417 17.7493C83.8505 17.6214 83.5096 17.5078 83.119 17.4084L81.8778 17.0888C80.9794 16.858 80.2692 16.5082 79.7472 16.0394C79.2287 15.5671 78.9695 14.9403 78.9695 14.1591C78.9695 13.5163 79.1435 12.9535 79.4915 12.4705C79.843 11.9876 80.3207 11.6129 80.9244 11.3466C81.5281 11.0767 82.2116 10.9418 82.9751 10.9418C83.7493 10.9418 84.4276 11.0767 85.0099 11.3466C85.5959 11.6129 86.0558 11.984 86.3896 12.4599C86.7234 12.9322 86.8956 13.4755 86.9062 14.0898H85.0046ZM93.6911 15.7518V17.3391H88.7799V15.7518H93.6911ZM105.552 16.5455C105.552 17.7209 105.332 18.7276 104.892 19.5657C104.455 20.4002 103.858 21.0394 103.102 21.4833C102.349 21.9272 101.495 22.1491 100.54 22.1491C99.5847 22.1491 98.7289 21.9272 97.9725 21.4833C97.2196 21.0359 96.623 20.3949 96.1827 19.5604C95.7459 18.7223 95.5275 17.7173 95.5275 16.5455C95.5275 15.37 95.7459 14.3651 96.1827 13.5305C96.623 12.6925 97.2196 12.0515 97.9725 11.6076C98.7289 11.1637 99.5847 10.9418 100.54 10.9418C101.495 10.9418 102.349 11.1637 103.102 11.6076C103.858 12.0515 104.455 12.6925 104.892 13.5305C105.332 14.3651 105.552 15.37 105.552 16.5455ZM103.566 16.5455C103.566 15.718 103.436 15.0202 103.177 14.4521C102.921 13.8803 102.566 13.4489 102.111 13.1577C101.657 12.8629 101.133 12.7156 100.54 12.7156C99.9469 12.7156 99.4231 12.8629 98.9686 13.1577C98.514 13.4489 98.1571 13.8803 97.8979 14.4521C97.6422 15.0202 97.5144 15.718 97.5144 16.5455C97.5144 17.3729 97.6422 18.0724 97.8979 18.6442C98.1571 19.2124 98.514 19.6438 98.9686 19.9386C99.4231 20.2298 99.9469 20.3754 100.54 20.3754C101.133 20.3754 101.657 20.2298 102.111 19.9386C102.566 19.6438 102.921 19.2124 103.177 18.6442C103.436 18.0724 103.566 17.3729 103.566 16.5455Z" fill="#F9DA1B"/>
<path d="M148.968 38.1605C148.968 39.0809 148.801 39.8764 148.469 40.5468C148.137 41.2173 147.681 41.7343 147.101 42.098C146.522 42.4616 145.86 42.6434 145.115 42.6434C144.371 42.6434 143.709 42.4616 143.13 42.098C142.55 41.7343 142.094 41.2173 141.762 40.5468C141.429 39.8764 141.263 39.0809 141.263 38.1605C141.263 37.24 141.429 36.4446 141.762 35.7741C142.094 35.1037 142.55 34.5866 143.13 34.223C143.709 33.8593 144.371 33.6775 145.115 33.6775C145.86 33.6775 146.522 33.8593 147.101 34.223C147.681 34.5866 148.137 35.1037 148.469 35.7741C148.801 36.4446 148.968 37.24 148.968 38.1605ZM147.945 38.1605C147.945 37.4048 147.818 36.767 147.566 36.2471C147.316 35.7272 146.976 35.3338 146.547 35.0667C146.121 34.7997 145.644 34.6662 145.115 34.6662C144.587 34.6662 144.108 34.7997 143.679 35.0667C143.253 35.3338 142.914 35.7272 142.661 36.2471C142.411 36.767 142.286 37.4048 142.286 38.1605C142.286 38.9162 142.411 39.5539 142.661 40.0738C142.914 40.5937 143.253 40.9872 143.679 41.2542C144.108 41.5213 144.587 41.6548 145.115 41.6548C145.644 41.6548 146.121 41.5213 146.547 41.2542C146.976 40.9872 147.316 40.5937 147.566 40.0738C147.818 39.5539 147.945 38.9162 147.945 38.1605Z" fill="black"/>
<circle cx="1" cy="1" r="1" transform="matrix(0.707107 -0.707107 -0.707107 -0.707107 138.83 140.201)" fill="black"/>
<circle cx="1" cy="1" r="1" transform="matrix(0.71718 -0.696888 -0.696888 -0.71718 136.824 98.5283)" fill="black"/>
<circle cx="1" cy="1" r="1" transform="matrix(0.71718 -0.696888 -0.696888 -0.71718 134.571 107.689)" fill="black"/>
<circle cx="1" cy="1" r="1" transform="matrix(0.71718 -0.696888 -0.696888 -0.71718 130.187 117.527)" fill="black"/>
<circle cx="1" cy="1" r="1" transform="matrix(0.995712 0.0925086 0.0925086 -0.995712 116.063 130.385)" fill="black"/>
<circle cx="1" cy="1" r="1" transform="matrix(0.995712 0.0925086 0.0925086 -0.995712 107.634 134.624)" fill="black"/>
<circle cx="1" cy="1" r="1" transform="matrix(0.995712 0.0925086 0.0925086 -0.995712 97.3072 137.681)" fill="black"/>
<circle cx="1" cy="1" r="1" transform="matrix(0.628086 0.778144 0.778144 -0.628086 81.4835 136.452)" fill="black"/>
<circle cx="1" cy="1" r="1" transform="matrix(0.628086 0.778144 0.778144 -0.628086 72.5681 133.367)" fill="black"/>
<circle cx="1" cy="1" r="1" transform="matrix(0.628086 0.778144 0.778144 -0.628086 63.1746 128.098)" fill="black"/>
<circle cx="1" cy="1" r="1" transform="matrix(-0.71718 0.696888 0.696888 0.71718 46.2613 83.8765)" fill="black"/>
<circle cx="1" cy="1" r="1" transform="matrix(-0.71718 0.696888 0.696888 0.71718 48.5143 74.7155)" fill="black"/>
<circle cx="1" cy="1" r="1" transform="matrix(-0.71718 0.696888 0.696888 0.71718 52.8985 64.8779)" fill="black"/>
<circle cx="1" cy="1" r="1" transform="matrix(-0.71718 0.696888 0.696888 0.71718 43.3701 41.9133)" fill="black"/>
<circle cx="1" cy="1" r="1" transform="matrix(-0.126022 0.992027 0.992027 0.126022 52.2599 114.757)" fill="black"/>
<circle cx="1" cy="1" r="1" transform="matrix(-0.126022 0.992027 0.992027 0.126022 48.3079 106.191)" fill="black"/>
<circle cx="1" cy="1" r="1" transform="matrix(-0.126022 0.992027 0.992027 0.126022 45.6 95.7666)" fill="black"/>
<circle cx="1" cy="1" r="1" transform="matrix(-0.995712 -0.0925087 -0.0925087 0.995712 67.0233 52.0199)" fill="black"/>
<circle cx="1" cy="1" r="1" transform="matrix(-0.995712 -0.0925087 -0.0925087 0.995712 75.4516 47.7814)" fill="black"/>
<circle cx="1" cy="1" r="1" transform="matrix(-0.995712 -0.0925087 -0.0925087 0.995712 85.7787 44.7237)" fill="black"/>
<circle cx="1" cy="1" r="1" transform="matrix(-0.678374 -0.734717 -0.734717 0.678374 99.1132 45.9633)" fill="black"/>
<circle cx="1" cy="1" r="1" transform="matrix(-0.678374 -0.734717 -0.734717 0.678374 108.214 48.4492)" fill="black"/>
<circle cx="1" cy="1" r="1" transform="matrix(-0.678374 -0.734717 -0.734717 0.678374 117.936 53.0828)" fill="black"/>
<circle cx="1" cy="1" r="1" transform="matrix(0.117868 -0.993029 -0.993029 -0.117868 130.43 67.531)" fill="black"/>
<circle cx="1" cy="1" r="1" transform="matrix(0.117868 -0.993029 -0.993029 -0.117868 134.452 76.0645)" fill="black"/>
<circle cx="1" cy="1" r="1" transform="matrix(0.117868 -0.993029 -0.993029 -0.117868 137.246 86.4663)" fill="black"/>
<path d="M135.294 135.251L120.091 120.048" stroke="black" stroke-width="0.75"/>
<circle cx="1" cy="1" r="1" transform="matrix(0.707107 0.707107 0.707107 -0.707107 41.9558 139.494)" fill="black"/>
<circle cx="1" cy="1" r="1" transform="matrix(0.707107 0.707107 0.707107 -0.707107 136.708 44.7414)" fill="black"/>
<circle cx="1" cy="1" r="1" transform="matrix(0.707107 0.707107 0.707107 -0.707107 150.85 90.9964)" fill="black"/>
<path d="M62.4622 62.4192L47.2594 47.2164" stroke="black" stroke-width="0.75"/>
<path d="M47.0181 135.492L62.2209 120.29" stroke="black" stroke-width="0.75"/>
<path d="M119.384 63.48L134.587 48.2772" stroke="black" stroke-width="0.75"/>
<path d="M91.0354 146.367V132.225" stroke="black" stroke-width="0.75"/>
<path d="M91.6753 50.7455L91.5199 35.5288" stroke="#F9DA1B" stroke-width="0.75"/>
<path d="M36.2991 91.4106L50.2855 91.4751" stroke="black" stroke-width="0.75"/>
<path d="M131.776 91.0484L147.324 91.1301" stroke="black" stroke-width="0.75"/>
<path d="M95.2453 91.4107L99.0544 98.2918C99.5645 99.2141 98.5497 100.229 97.6274 99.7188L90.7463 95.911L83.8652 99.7188C82.943 100.229 81.9281 99.2141 82.4382 98.2918L86.246 91.4107L82.4382 84.5296C81.9281 83.6073 82.943 82.5925 83.8652 83.1026L90.7463 86.9104L97.6274 83.1026C98.5497 82.5925 99.5645 83.6073 99.0544 84.5296L95.2466 91.4107H95.2453Z" fill="#164194"/>
<circle cx="1" cy="1" r="1" transform="matrix(0.707107 0.707107 0.707107 -0.707107 89.332 152.929)" fill="black"/>
<circle cx="1" cy="1" r="1" transform="matrix(0.707107 0.707107 0.707107 -0.707107 29.9351 90.8496)" fill="black"/>
<circle cx="1" cy="1" r="1" transform="matrix(0.707107 0.707107 0.707107 -0.707107 90.0996 29.4142)" fill="#F9DA1B"/>
</svg>
