<svg width="184" height="184" viewBox="0 0 184 184" fill="none" xmlns="http://www.w3.org/2000/svg">
<rect width="184" height="184" fill="white"/>
<path d="M40.3227 141.32V150.047H39.3L34.5443 143.195H34.4591V150.047H33.4023V141.32H34.425L39.1977 148.189H39.283V141.32H40.3227Z" fill="black"/>
<path d="M150.191 33.9002C150.14 33.4684 149.932 33.1332 149.569 32.8945C149.205 32.6559 148.759 32.5366 148.231 32.5366C147.844 32.5366 147.506 32.5991 147.216 32.7241C146.93 32.8491 146.705 33.021 146.543 33.2397C146.384 33.4585 146.305 33.707 146.305 33.9855C146.305 34.2184 146.36 34.4187 146.471 34.5863C146.584 34.7511 146.729 34.8889 146.905 34.9997C147.081 35.1076 147.266 35.1971 147.459 35.2681C147.653 35.3363 147.83 35.3917 147.992 35.4343L148.878 35.673C149.106 35.7326 149.358 35.815 149.637 35.9201C149.918 36.0252 150.187 36.1687 150.442 36.3505C150.701 36.5295 150.914 36.7596 151.081 37.0408C151.249 37.3221 151.333 37.6673 151.333 38.0764C151.333 38.548 151.209 38.9741 150.962 39.3548C150.718 39.7355 150.36 40.038 149.888 40.2624C149.42 40.4869 148.85 40.5991 148.18 40.5991C147.555 40.5991 147.013 40.4982 146.556 40.2965C146.101 40.0948 145.743 39.8136 145.482 39.4528C145.224 39.092 145.077 38.673 145.043 38.1957H146.134C146.162 38.5252 146.273 38.798 146.466 39.0139C146.662 39.2269 146.91 39.386 147.208 39.4911C147.509 39.5934 147.833 39.6445 148.18 39.6445C148.583 39.6445 148.945 39.5792 149.266 39.4485C149.587 39.315 149.841 39.1303 150.029 38.8945C150.216 38.6559 150.31 38.3775 150.31 38.0593C150.31 37.7695 150.229 37.5337 150.067 37.3519C149.905 37.1701 149.692 37.0224 149.428 36.9087C149.164 36.7951 148.878 36.6957 148.572 36.6105L147.498 36.3036C146.816 36.1076 146.276 35.8278 145.878 35.4641C145.481 35.1005 145.282 34.6247 145.282 34.0366C145.282 33.548 145.414 33.1218 145.678 32.7582C145.945 32.3917 146.303 32.1076 146.752 31.9059C147.204 31.7014 147.708 31.5991 148.265 31.5991C148.827 31.5991 149.327 31.6999 149.765 31.9016C150.202 32.1005 150.549 32.3732 150.805 32.7198C151.063 33.0664 151.199 33.4599 151.214 33.9002H150.191Z" fill="black"/>
<path d="M35.8166 41.1525V32.4253H41.0836V33.3628H36.8734V36.3116H40.8109V37.2491H36.8734V40.215H41.1518V41.1525H35.8166Z" fill="black"/>
<path d="M11.9773 86.2V94.9272H10.9545L6.19886 88.075H6.11364L6.11364 94.9272H5.05682L5.05682 86.2H6.07955L10.8523 93.0693H10.9375V86.2H11.9773ZM17.7056 90.0949V91.0324H13.8874V90.0949H17.7056ZM19.6115 94.9272V86.2H24.8785V87.1375H20.6683V90.0863H24.6058V91.0238H20.6683V93.9897H24.9467V94.9272H19.6115Z" fill="black"/>
<path d="M87.0046 15.0898C86.9549 14.6246 86.7454 14.2624 86.3761 14.0032C86.0103 13.744 85.5344 13.6143 84.9485 13.6143C84.5366 13.6143 84.1832 13.6765 83.8885 13.8008C83.5937 13.9251 83.3683 14.0937 83.212 14.3068C83.0558 14.5199 82.9759 14.7631 82.9723 15.0366C82.9723 15.2638 83.0238 15.4609 83.1268 15.6278C83.2333 15.7947 83.3771 15.9368 83.5582 16.054C83.7393 16.1676 83.94 16.2635 84.1602 16.3416C84.3803 16.4197 84.6023 16.4854 84.826 16.5387L85.8487 16.7944C86.2607 16.8903 86.6566 17.0199 87.0366 17.1832C87.4201 17.3466 87.7628 17.5526 88.0646 17.8011C88.37 18.0497 88.6115 18.3498 88.7891 18.7013C88.9666 19.0529 89.0554 19.4648 89.0554 19.9371C89.0554 20.5763 88.892 21.1392 88.5653 21.6257C88.2386 22.1087 87.7663 22.4869 87.1484 22.7603C86.5341 23.0302 85.7901 23.1651 84.9165 23.1651C84.0678 23.1651 83.331 23.0337 82.706 22.771C82.0845 22.5082 81.598 22.1246 81.2464 21.6204C80.8984 21.1161 80.7102 20.5018 80.6818 19.7773H82.6261C82.6545 20.1573 82.7717 20.4734 82.9776 20.7255C83.1836 20.9776 83.4517 21.1658 83.782 21.2901C84.1158 21.4144 84.4886 21.4766 84.9006 21.4766C85.3303 21.4766 85.7067 21.4126 86.0298 21.2848C86.3565 21.1534 86.6122 20.9723 86.7969 20.7415C86.9815 20.5071 87.0756 20.2337 87.0792 19.9212C87.0756 19.6371 86.9922 19.4027 86.8288 19.218C86.6655 19.0298 86.4364 18.8736 86.1417 18.7493C85.8505 18.6214 85.5096 18.5078 85.119 18.4084L83.8778 18.0888C82.9794 17.858 82.2692 17.5082 81.7472 17.0394C81.2287 16.5671 80.9695 15.9403 80.9695 15.1591C80.9695 14.5163 81.1435 13.9535 81.4915 13.4705C81.843 12.9876 82.3207 12.6129 82.9244 12.3466C83.5281 12.0767 84.2116 11.9418 84.9751 11.9418C85.7493 11.9418 86.4276 12.0767 87.0099 12.3466C87.5959 12.6129 88.0558 12.984 88.3896 13.4599C88.7234 13.9322 88.8956 14.4755 88.9062 15.0898H87.0046ZM95.6911 16.7518V18.3391H90.7799V16.7518H95.6911ZM97.8045 23V12.0909L104.9 12.0909V13.7475L99.7807 13.7475V16.7092L104.532 16.7092V18.3658H99.7807V21.3434H104.942V23H97.8045Z" fill="#F9DA1B"/>
<path d="M89.7197 162.533V171.26H88.697L83.9413 164.408H83.8561V171.26H82.7992V162.533H83.822L88.5947 169.402H88.6799V162.533H89.7197ZM95.448 166.428V167.365H91.6299V166.428H95.448ZM104.718 166.897C104.718 167.817 104.551 168.613 104.219 169.283C103.887 169.954 103.431 170.471 102.851 170.834C102.272 171.198 101.61 171.38 100.865 171.38C100.121 171.38 99.459 171.198 98.8795 170.834C98.3 170.471 97.844 169.954 97.5116 169.283C97.1792 168.613 97.013 167.817 97.013 166.897C97.013 165.976 97.1792 165.181 97.5116 164.51C97.844 163.84 98.3 163.323 98.8795 162.959C99.459 162.596 100.121 162.414 100.865 162.414C101.61 162.414 102.272 162.596 102.851 162.959C103.431 163.323 103.887 163.84 104.219 164.51C104.551 165.181 104.718 165.976 104.718 166.897ZM103.695 166.897C103.695 166.141 103.568 165.503 103.316 164.983C103.066 164.464 102.726 164.07 102.297 163.803C101.871 163.536 101.394 163.402 100.865 163.402C100.337 163.402 99.8582 163.536 99.4292 163.803C99.0031 164.07 98.6636 164.464 98.4108 164.983C98.1608 165.503 98.0358 166.141 98.0358 166.897C98.0358 167.652 98.1608 168.29 98.4108 168.81C98.6636 169.33 99.0031 169.723 99.4292 169.99C99.8582 170.258 100.337 170.391 100.865 170.391C101.394 170.391 101.871 170.258 102.297 169.99C102.726 169.723 103.066 169.33 103.316 168.81C103.568 168.29 103.695 167.652 103.695 166.897Z" fill="black"/>
<path d="M163.83 89.3818C163.778 88.95 163.571 88.6147 163.207 88.3761C162.844 88.1375 162.398 88.0182 161.869 88.0182C161.483 88.0182 161.145 88.0807 160.855 88.2057C160.568 88.3307 160.344 88.5025 160.182 88.7213C160.023 88.94 159.943 89.1886 159.943 89.467C159.943 89.7 159.999 89.9003 160.109 90.0679C160.223 90.2326 160.368 90.3704 160.544 90.4812C160.72 90.5892 160.905 90.6787 161.098 90.7497C161.291 90.8179 161.469 90.8733 161.631 90.9159L162.517 91.1545C162.744 91.2142 162.997 91.2966 163.276 91.4017C163.557 91.5068 163.825 91.6503 164.081 91.8321C164.339 92.0111 164.553 92.2412 164.72 92.5224C164.888 92.8037 164.972 93.1488 164.972 93.5579C164.972 94.0295 164.848 94.4557 164.601 94.8363C164.357 95.217 163.999 95.5196 163.527 95.744C163.058 95.9684 162.489 96.0807 161.818 96.0807C161.193 96.0807 160.652 95.9798 160.195 95.7781C159.74 95.5764 159.382 95.2951 159.121 94.9343C158.862 94.5736 158.716 94.1545 158.682 93.6772H159.773C159.801 94.0068 159.912 94.2795 160.105 94.4954C160.301 94.7085 160.548 94.8676 160.847 94.9727C161.148 95.075 161.472 95.1261 161.818 95.1261C162.222 95.1261 162.584 95.0608 162.905 94.9301C163.226 94.7966 163.48 94.6119 163.668 94.3761C163.855 94.1375 163.949 93.8591 163.949 93.5409C163.949 93.2511 163.868 93.0153 163.706 92.8335C163.544 92.6517 163.331 92.5039 163.067 92.3903C162.803 92.2767 162.517 92.1772 162.21 92.092L161.136 91.7852C160.455 91.5892 159.915 91.3093 159.517 90.9457C159.119 90.5821 158.92 90.1062 158.92 89.5182C158.92 89.0295 159.053 88.6034 159.317 88.2397C159.584 87.8733 159.942 87.5892 160.391 87.3875C160.842 87.1829 161.347 87.0807 161.903 87.0807C162.466 87.0807 162.966 87.1815 163.403 87.3832C163.841 87.5821 164.187 87.8548 164.443 88.2014C164.702 88.548 164.838 88.9414 164.852 89.3818H163.83ZM170.323 91.0949V92.0324H166.505V91.0949H170.323ZM179.592 91.5636C179.592 92.4841 179.426 93.2795 179.094 93.95C178.761 94.6204 178.305 95.1375 177.726 95.5011C177.146 95.8647 176.484 96.0466 175.74 96.0466C174.996 96.0466 174.334 95.8647 173.754 95.5011C173.175 95.1375 172.719 94.6204 172.386 93.95C172.054 93.2795 171.888 92.4841 171.888 91.5636C171.888 90.6432 172.054 89.8477 172.386 89.1772C172.719 88.5068 173.175 87.9897 173.754 87.6261C174.334 87.2625 174.996 87.0807 175.74 87.0807C176.484 87.0807 177.146 87.2625 177.726 87.6261C178.305 87.9897 178.761 88.5068 179.094 89.1772C179.426 89.8477 179.592 90.6432 179.592 91.5636ZM178.57 91.5636C178.57 90.8079 178.443 90.1701 178.19 89.6503C177.94 89.1304 177.601 88.7369 177.172 88.4699C176.746 88.2028 176.268 88.0693 175.74 88.0693C175.212 88.0693 174.733 88.2028 174.304 88.4699C173.878 88.7369 173.538 89.1304 173.286 89.6503C173.036 90.1701 172.911 90.8079 172.911 91.5636C172.911 92.3193 173.036 92.9571 173.286 93.477C173.538 93.9968 173.878 94.3903 174.304 94.6574C174.733 94.9244 175.212 95.0579 175.74 95.0579C176.268 95.0579 176.746 94.9244 177.172 94.6574C177.601 94.3903 177.94 93.9968 178.19 93.477C178.443 92.9571 178.57 92.3193 178.57 91.5636Z" fill="black"/>
<path d="M149.66 145.684C149.66 146.604 149.494 147.399 149.162 148.07C148.829 148.74 148.373 149.257 147.794 149.621C147.214 149.985 146.552 150.166 145.808 150.166C145.064 150.166 144.402 149.985 143.822 149.621C143.243 149.257 142.787 148.74 142.454 148.07C142.122 147.399 141.956 146.604 141.956 145.684C141.956 144.763 142.122 143.968 142.454 143.297C142.787 142.627 143.243 142.11 143.822 141.746C144.402 141.382 145.064 141.201 145.808 141.201C146.552 141.201 147.214 141.382 147.794 141.746C148.373 142.11 148.829 142.627 149.162 143.297C149.494 143.968 149.66 144.763 149.66 145.684ZM148.637 145.684C148.637 144.928 148.511 144.29 148.258 143.77C148.008 143.25 147.669 142.857 147.24 142.59C146.814 142.323 146.336 142.189 145.808 142.189C145.28 142.189 144.801 142.323 144.372 142.59C143.946 142.857 143.606 143.25 143.353 143.77C143.103 144.29 142.978 144.928 142.978 145.684C142.978 146.439 143.103 147.077 143.353 147.597C143.606 148.117 143.946 148.51 144.372 148.777C144.801 149.044 145.28 149.178 145.808 149.178C146.336 149.178 146.814 149.044 147.24 148.777C147.669 148.51 148.008 148.117 148.258 147.597C148.511 147.077 148.637 146.439 148.637 145.684Z" fill="black"/>
<circle cx="1" cy="1" r="1" transform="matrix(0.707107 0.707107 0.707107 -0.707107 44.063 138.83)" fill="black"/>
<circle cx="1" cy="1" r="1" transform="matrix(0.696888 0.71718 0.71718 -0.696888 85.7356 136.825)" fill="black"/>
<circle cx="1" cy="1" r="1" transform="matrix(0.696888 0.71718 0.71718 -0.696888 76.5746 134.572)" fill="black"/>
<circle cx="1" cy="1" r="1" transform="matrix(0.696888 0.71718 0.71718 -0.696888 66.7371 130.187)" fill="black"/>
<circle cx="1" cy="1" r="1" transform="matrix(-0.0925086 0.995712 0.995712 0.0925086 53.8788 116.063)" fill="black"/>
<circle cx="1" cy="1" r="1" transform="matrix(-0.0925086 0.995712 0.995712 0.0925086 49.6404 107.635)" fill="black"/>
<circle cx="1" cy="1" r="1" transform="matrix(-0.0925086 0.995712 0.995712 0.0925086 46.5826 97.3074)" fill="black"/>
<circle cx="1" cy="1" r="1" transform="matrix(-0.778144 0.628086 0.628086 0.778144 47.8123 81.4836)" fill="black"/>
<circle cx="1" cy="1" r="1" transform="matrix(-0.778144 0.628086 0.628086 0.778144 50.8971 72.5682)" fill="black"/>
<circle cx="1" cy="1" r="1" transform="matrix(-0.778144 0.628086 0.628086 0.778144 56.1661 63.1748)" fill="black"/>
<circle cx="1" cy="1" r="1" transform="matrix(-0.696888 -0.71718 -0.71718 0.696888 100.387 46.2614)" fill="black"/>
<circle cx="1" cy="1" r="1" transform="matrix(-0.696888 -0.71718 -0.71718 0.696888 109.548 48.5144)" fill="black"/>
<circle cx="1" cy="1" r="1" transform="matrix(-0.696888 -0.71718 -0.71718 0.696888 119.386 52.8987)" fill="black"/>
<circle cx="1" cy="1" r="1" transform="matrix(-0.696888 -0.71718 -0.71718 0.696888 142.351 43.3702)" fill="black"/>
<circle cx="1" cy="1" r="1" transform="matrix(-0.992027 -0.126022 -0.126022 0.992027 69.5066 52.2601)" fill="black"/>
<circle cx="1" cy="1" r="1" transform="matrix(-0.992027 -0.126022 -0.126022 0.992027 78.0729 48.3081)" fill="black"/>
<circle cx="1" cy="1" r="1" transform="matrix(-0.992027 -0.126022 -0.126022 0.992027 88.4973 45.6002)" fill="black"/>
<circle cx="1" cy="1" r="1" transform="matrix(0.0925087 -0.995712 -0.995712 -0.0925087 132.244 67.0235)" fill="black"/>
<circle cx="1" cy="1" r="1" transform="matrix(0.0925087 -0.995712 -0.995712 -0.0925087 136.482 75.4517)" fill="black"/>
<circle cx="1" cy="1" r="1" transform="matrix(0.0925087 -0.995712 -0.995712 -0.0925087 139.54 85.7789)" fill="black"/>
<circle cx="1" cy="1" r="1" transform="matrix(0.734717 -0.678374 -0.678374 -0.734717 138.301 99.1134)" fill="black"/>
<circle cx="1" cy="1" r="1" transform="matrix(0.734717 -0.678374 -0.678374 -0.734717 135.815 108.214)" fill="black"/>
<circle cx="1" cy="1" r="1" transform="matrix(0.734717 -0.678374 -0.678374 -0.734717 131.181 117.937)" fill="black"/>
<circle cx="1" cy="1" r="1" transform="matrix(0.993029 0.117868 0.117868 -0.993029 116.733 130.43)" fill="black"/>
<circle cx="1" cy="1" r="1" transform="matrix(0.993029 0.117868 0.117868 -0.993029 108.199 134.453)" fill="black"/>
<circle cx="1" cy="1" r="1" transform="matrix(0.993029 0.117868 0.117868 -0.993029 97.7976 137.246)" fill="black"/>
<path d="M49.0127 135.294L64.2155 120.091" stroke="black" stroke-width="0.75"/>
<circle cx="1" cy="1" r="1" transform="matrix(-0.707107 0.707107 0.707107 0.707107 44.77 41.9561)" fill="black"/>
<circle cx="1" cy="1" r="1" transform="matrix(-0.707107 0.707107 0.707107 0.707107 139.522 136.708)" fill="black"/>
<circle cx="1" cy="1" r="1" transform="matrix(-0.707107 0.707107 0.707107 0.707107 93.2676 150.85)" fill="black"/>
<path d="M121.845 62.4622L137.048 47.2594" stroke="black" stroke-width="0.75"/>
<path d="M48.7715 47.0182L63.9743 62.221" stroke="black" stroke-width="0.75"/>
<path d="M120.784 119.384L135.987 134.587" stroke="black" stroke-width="0.75"/>
<path d="M37.8965 91.0356H52.0386" stroke="black" stroke-width="0.75"/>
<path d="M133.429 91.897L148.646 91.8531" stroke="black" stroke-width="0.75"/>
<path d="M93 36.2993L92.9355 50.2856" stroke="#F9DA1B" stroke-width="0.75"/>
<path d="M93.196 131.776L93.1532 147.324" stroke="black" stroke-width="0.75"/>
<path d="M92.8533 95.2454L85.9722 99.0546C85.0499 99.5646 84.0351 98.5498 84.5451 97.6275L88.3529 90.7464L84.5451 83.8653C84.0351 82.9431 85.0499 81.9283 85.9722 82.4383L92.8533 86.2461L99.7344 82.4383C100.657 81.9283 101.671 82.9431 101.161 83.8653L97.3536 90.7464L101.161 97.6275C101.671 98.5498 100.657 99.5646 99.7344 99.0546L92.8533 95.2468V95.2454Z" fill="#164194"/>
<circle cx="1" cy="1" r="1" transform="matrix(-0.707107 0.707107 0.707107 0.707107 31.335 89.3322)" fill="black"/>
<circle cx="1" cy="1" r="1" transform="matrix(-0.707107 0.707107 0.707107 0.707107 93 30)" fill="#F9DA1B"/>
<circle cx="1" cy="1" r="1" transform="matrix(-0.650708 0.759328 0.759328 0.650708 154.302 90.9272)" fill="black"/>
</svg>
