<svg width="184" height="184" viewBox="0 0 184 184" fill="none" xmlns="http://www.w3.org/2000/svg">
<rect width="184" height="184" fill="white"/>
<path d="M95.9773 166.273V175H94.9545L90.1989 168.148H90.1136V175H89.0568V166.273H90.0795L94.8523 173.142H94.9375V166.273H95.9773Z" fill="black"/>
<path d="M94.0046 12.0898C93.9549 11.6246 93.7454 11.2624 93.3761 11.0032C93.0103 10.744 92.5344 10.6143 91.9485 10.6143C91.5366 10.6143 91.1832 10.6765 90.8885 10.8008C90.5937 10.9251 90.3683 11.0937 90.212 11.3068C90.0558 11.5199 89.9759 11.7631 89.9723 12.0366C89.9723 12.2638 90.0238 12.4609 90.1268 12.6278C90.2333 12.7947 90.3771 12.9368 90.5582 13.054C90.7393 13.1676 90.94 13.2635 91.1602 13.3416C91.3803 13.4197 91.6023 13.4854 91.826 13.5387L92.8487 13.7944C93.2607 13.8903 93.6566 14.0199 94.0366 14.1832C94.4201 14.3466 94.7628 14.5526 95.0646 14.8011C95.37 15.0497 95.6115 15.3498 95.7891 15.7013C95.9666 16.0529 96.0554 16.4648 96.0554 16.9371C96.0554 17.5763 95.892 18.1392 95.5653 18.6257C95.2386 19.1087 94.7663 19.4869 94.1484 19.7603C93.5341 20.0302 92.7901 20.1651 91.9165 20.1651C91.0678 20.1651 90.331 20.0337 89.706 19.771C89.0845 19.5082 88.598 19.1246 88.2464 18.6204C87.8984 18.1161 87.7102 17.5018 87.6818 16.7773H89.6261C89.6545 17.1573 89.7717 17.4734 89.9776 17.7255C90.1836 17.9776 90.4517 18.1658 90.782 18.2901C91.1158 18.4144 91.4886 18.4766 91.9006 18.4766C92.3303 18.4766 92.7067 18.4126 93.0298 18.2848C93.3565 18.1534 93.6122 17.9723 93.7969 17.7415C93.9815 17.5071 94.0756 17.2337 94.0792 16.9212C94.0756 16.6371 93.9922 16.4027 93.8288 16.218C93.6655 16.0298 93.4364 15.8736 93.1417 15.7493C92.8505 15.6214 92.5096 15.5078 92.119 15.4084L90.8778 15.0888C89.9794 14.858 89.2692 14.5082 88.7472 14.0394C88.2287 13.5671 87.9695 12.9403 87.9695 12.1591C87.9695 11.5163 88.1435 10.9535 88.4915 10.4705C88.843 9.98757 89.3207 9.61293 89.9244 9.34659C90.5281 9.0767 91.2116 8.94176 91.9751 8.94176C92.7493 8.94176 93.4276 9.0767 94.0099 9.34659C94.5959 9.61293 95.0558 9.98402 95.3896 10.4599C95.7234 10.9322 95.8956 11.4755 95.9062 12.0898H94.0046Z" fill="#F9DA1B"/>
<path d="M12.0568 96.9998V88.2725H17.3239V89.21H13.1136V92.1589H17.0511V93.0964H13.1136V96.0623H17.392V96.9998H12.0568Z" fill="black"/>
<path d="M29.9773 139.273V148H28.9545L24.1989 141.148H24.1136V148H23.0568V139.273H24.0795L28.8523 146.142H28.9375V139.273H29.9773ZM35.7056 143.167V144.105H31.8874V143.167H35.7056ZM37.6115 148V139.273H42.8785V140.21H38.6683V143.159H42.6058V144.096H38.6683V147.062H42.9467V148H37.6115Z" fill="black"/>
<path d="M32.8295 39.4543C32.7784 39.0225 32.571 38.6873 32.2074 38.4486C31.8437 38.21 31.3977 38.0907 30.8693 38.0907C30.483 38.0907 30.1449 38.1532 29.8551 38.2782C29.5682 38.4032 29.3437 38.575 29.1818 38.7938C29.0227 39.0125 28.9432 39.2611 28.9432 39.5395C28.9432 39.7725 28.9986 39.9728 29.1094 40.1404C29.223 40.3052 29.3679 40.4429 29.544 40.5537C29.7202 40.6617 29.9048 40.7512 30.098 40.8222C30.2912 40.8904 30.4687 40.9458 30.6307 40.9884L31.517 41.227C31.7443 41.2867 31.9972 41.3691 32.2756 41.4742C32.5568 41.5793 32.8253 41.7228 33.081 41.9046C33.3395 42.0836 33.5526 42.3137 33.7202 42.5949C33.8878 42.8762 33.9716 43.2213 33.9716 43.6304C33.9716 44.102 33.848 44.5282 33.6009 44.9088C33.3565 45.2895 32.9986 45.5921 32.527 45.8165C32.0582 46.0409 31.4886 46.1532 30.8182 46.1532C30.1932 46.1532 29.652 46.0523 29.1946 45.8506C28.7401 45.6489 28.3821 45.3677 28.1207 45.0069C27.8622 44.6461 27.7159 44.227 27.6818 43.7498H28.7727C28.8011 44.0793 28.9119 44.352 29.1051 44.5679C29.3011 44.781 29.5483 44.9401 29.8466 45.0452C30.1477 45.1475 30.4716 45.1986 30.8182 45.1986C31.2216 45.1986 31.5838 45.1333 31.9048 45.0026C32.2259 44.8691 32.4801 44.6844 32.6676 44.4486C32.8551 44.21 32.9489 43.9316 32.9489 43.6134C32.9489 43.3236 32.8679 43.0878 32.706 42.906C32.544 42.7242 32.331 42.5765 32.0668 42.4628C31.8026 42.3492 31.517 42.2498 31.2102 42.1645L30.1364 41.8577C29.4545 41.6617 28.9148 41.3819 28.517 41.0182C28.1193 40.6546 27.9205 40.1787 27.9205 39.5907C27.9205 39.102 28.0526 38.6759 28.3168 38.3123C28.5838 37.9458 28.9418 37.6617 29.3906 37.46C29.8423 37.2554 30.3466 37.1532 30.9034 37.1532C31.4659 37.1532 31.9659 37.254 32.4034 37.4557C32.8409 37.6546 33.1875 37.9273 33.4432 38.2739C33.7017 38.6205 33.8381 39.014 33.8523 39.4543H32.8295ZM39.3228 41.1674V42.1049H35.5046V41.1674H39.3228ZM41.2287 45.9998V37.2725H46.4957V38.21H42.2855V41.1588H46.223V42.0963H42.2855V45.0623H46.5639V45.9998H41.2287Z" fill="black"/>
<path d="M143.977 139.273V148H142.955L138.199 141.148H138.114V148H137.057V139.273H138.08L142.852 146.142H142.937V139.273H143.977ZM149.706 143.168V144.105H145.887V143.168H149.706ZM158.975 143.636C158.975 144.557 158.809 145.352 158.477 146.023C158.144 146.693 157.688 147.21 157.109 147.574C156.529 147.937 155.867 148.119 155.123 148.119C154.379 148.119 153.717 147.937 153.137 147.574C152.558 147.21 152.102 146.693 151.769 146.023C151.437 145.352 151.271 144.557 151.271 143.636C151.271 142.716 151.437 141.92 151.769 141.25C152.102 140.58 152.558 140.062 153.137 139.699C153.717 139.335 154.379 139.153 155.123 139.153C155.867 139.153 156.529 139.335 157.109 139.699C157.688 140.062 158.144 140.58 158.477 141.25C158.809 141.92 158.975 142.716 158.975 143.636ZM157.952 143.636C157.952 142.881 157.826 142.243 157.573 141.723C157.323 141.203 156.984 140.81 156.555 140.543C156.129 140.276 155.651 140.142 155.123 140.142C154.594 140.142 154.116 140.276 153.687 140.543C153.261 140.81 152.921 141.203 152.668 141.723C152.418 142.243 152.293 142.881 152.293 143.636C152.293 144.392 152.418 145.03 152.668 145.55C152.921 146.07 153.261 146.463 153.687 146.73C154.116 146.997 154.594 147.131 155.123 147.131C155.651 147.131 156.129 146.997 156.555 146.73C156.984 146.463 157.323 146.07 157.573 145.55C157.826 145.03 157.952 144.392 157.952 143.636Z" fill="black"/>
<path d="M144.83 40.4547C144.779 40.0228 144.571 39.6876 144.208 39.449C143.844 39.2103 143.398 39.091 142.87 39.091C142.483 39.091 142.145 39.1535 141.855 39.2785C141.568 39.4035 141.344 39.5754 141.182 39.7942C141.023 40.0129 140.943 40.2615 140.943 40.5399C140.943 40.7728 140.999 40.9731 141.11 41.1407C141.223 41.3055 141.368 41.4433 141.544 41.5541C141.72 41.6621 141.905 41.7515 142.098 41.8226C142.291 41.8907 142.469 41.9461 142.631 41.9888L143.517 42.2274C143.745 42.2871 143.997 42.3694 144.276 42.4746C144.557 42.5797 144.826 42.7231 145.081 42.905C145.34 43.0839 145.553 43.314 145.72 43.5953C145.888 43.8765 145.972 44.2217 145.972 44.6308C145.972 45.1024 145.848 45.5285 145.601 45.9092C145.357 46.2899 144.999 46.5925 144.527 46.8169C144.058 47.0413 143.489 47.1535 142.818 47.1535C142.193 47.1535 141.652 47.0527 141.195 46.851C140.74 46.6493 140.382 46.368 140.121 46.0072C139.862 45.6464 139.716 45.2274 139.682 44.7501H140.773C140.801 45.0797 140.912 45.3524 141.105 45.5683C141.301 45.7814 141.549 45.9405 141.847 46.0456C142.148 46.1478 142.472 46.199 142.818 46.199C143.222 46.199 143.584 46.1336 143.905 46.003C144.226 45.8694 144.48 45.6848 144.668 45.449C144.855 45.2103 144.949 44.9319 144.949 44.6138C144.949 44.324 144.868 44.0882 144.706 43.9064C144.544 43.7246 144.331 43.5768 144.067 43.4632C143.803 43.3496 143.517 43.2501 143.21 43.1649L142.137 42.8581C141.455 42.6621 140.915 42.3822 140.517 42.0186C140.12 41.655 139.921 41.1791 139.921 40.591C139.921 40.1024 140.053 39.6763 140.317 39.3126C140.584 38.9461 140.942 38.6621 141.391 38.4603C141.843 38.2558 142.347 38.1535 142.904 38.1535C143.466 38.1535 143.966 38.2544 144.404 38.4561C144.841 38.655 145.188 38.9277 145.443 39.2743C145.702 39.6209 145.838 40.0143 145.853 40.4547H144.83ZM151.323 42.1677V43.1052H147.505V42.1677H151.323ZM160.593 42.6365C160.593 43.5569 160.426 44.3524 160.094 45.0228C159.762 45.6933 159.306 46.2103 158.726 46.574C158.147 46.9376 157.485 47.1194 156.74 47.1194C155.996 47.1194 155.334 46.9376 154.755 46.574C154.175 46.2103 153.719 45.6933 153.387 45.0228C153.054 44.3524 152.888 43.5569 152.888 42.6365C152.888 41.716 153.054 40.9206 153.387 40.2501C153.719 39.5797 154.175 39.0626 154.755 38.699C155.334 38.3353 155.996 38.1535 156.74 38.1535C157.485 38.1535 158.147 38.3353 158.726 38.699C159.306 39.0626 159.762 39.5797 160.094 40.2501C160.426 40.9206 160.593 41.716 160.593 42.6365ZM159.57 42.6365C159.57 41.8808 159.443 41.243 159.191 40.7231C158.941 40.2032 158.601 39.8098 158.172 39.5427C157.746 39.2757 157.269 39.1422 156.74 39.1422C156.212 39.1422 155.733 39.2757 155.304 39.5427C154.878 39.8098 154.539 40.2032 154.286 40.7231C154.036 41.243 153.911 41.8808 153.911 42.6365C153.911 43.3922 154.036 44.03 154.286 44.5498C154.539 45.0697 154.878 45.4632 155.304 45.7302C155.733 45.9973 156.212 46.1308 156.74 46.1308C157.269 46.1308 157.746 45.9973 158.172 45.7302C158.601 45.4632 158.941 45.0697 159.191 44.5498C159.443 44.03 159.57 43.3922 159.57 42.6365Z" fill="black"/>
<path d="M171.42 92.6365C171.42 93.5569 171.254 94.3524 170.922 95.0228C170.589 95.6933 170.134 96.2103 169.554 96.574C168.974 96.9376 168.312 97.1194 167.568 97.1194C166.824 97.1194 166.162 96.9376 165.582 96.574C165.003 96.2103 164.547 95.6933 164.214 95.0228C163.882 94.3524 163.716 93.5569 163.716 92.6365C163.716 91.716 163.882 90.9206 164.214 90.2501C164.547 89.5797 165.003 89.0626 165.582 88.699C166.162 88.3353 166.824 88.1535 167.568 88.1535C168.312 88.1535 168.974 88.3353 169.554 88.699C170.134 89.0626 170.589 89.5797 170.922 90.2501C171.254 90.9206 171.42 91.716 171.42 92.6365ZM170.398 92.6365C170.398 91.8808 170.271 91.243 170.018 90.7231C169.768 90.2032 169.429 89.8098 169 89.5427C168.574 89.2757 168.097 89.1422 167.568 89.1422C167.04 89.1422 166.561 89.2757 166.132 89.5427C165.706 89.8098 165.366 90.2032 165.114 90.7231C164.864 91.243 164.739 91.8808 164.739 92.6365C164.739 93.3922 164.864 94.03 165.114 94.5498C165.366 95.0697 165.706 95.4632 166.132 95.7302C166.561 95.9973 167.04 96.1308 167.568 96.1308C168.097 96.1308 168.574 95.9973 169 95.7302C169.429 95.4632 169.768 95.0697 170.018 94.5498C170.271 94.03 170.398 93.3922 170.398 92.6365Z" fill="black"/>
<circle cx="1" cy="1" r="1" transform="matrix(1 0 0 -1 91.0001 161)" fill="black"/>
<circle cx="1" cy="1" r="1" transform="matrix(0.999897 0.014349 0.014349 -0.999897 119.049 130.115)" fill="black"/>
<circle cx="1" cy="1" r="1" transform="matrix(0.999897 0.014349 0.014349 -0.999897 110.978 135)" fill="black"/>
<circle cx="1" cy="1" r="1" transform="matrix(0.999897 0.014349 0.014349 -0.999897 100.922 138.856)" fill="black"/>
<circle cx="1" cy="1" r="1" transform="matrix(0.638661 0.769488 0.769488 -0.638661 81.8423 137.961)" fill="black"/>
<circle cx="1" cy="1" r="1" transform="matrix(0.638661 0.769488 0.769488 -0.638661 72.8856 134.998)" fill="black"/>
<circle cx="1" cy="1" r="1" transform="matrix(0.638661 0.769488 0.769488 -0.638661 63.421 129.858)" fill="black"/>
<circle cx="1" cy="1" r="1" transform="matrix(-0.106107 0.994355 0.994355 0.106107 53.1014 117.799)" fill="black"/>
<circle cx="1" cy="1" r="1" transform="matrix(-0.106107 0.994355 0.994355 0.106107 48.9786 109.314)" fill="black"/>
<circle cx="1" cy="1" r="1" transform="matrix(-0.106107 0.994355 0.994355 0.106107 46.0622 98.9457)" fill="black"/>
<circle cx="1" cy="1" r="1" transform="matrix(-0.999897 -0.0143491 -0.0143491 0.999897 65.3719 55.717)" fill="black"/>
<circle cx="1" cy="1" r="1" transform="matrix(-0.999897 -0.0143491 -0.0143491 0.999897 73.4428 50.8323)" fill="black"/>
<circle cx="1" cy="1" r="1" transform="matrix(-0.999897 -0.0143491 -0.0143491 0.999897 83.4991 46.9762)" fill="black"/>
<circle cx="1" cy="1" r="1" transform="matrix(-0.999897 -0.0143491 -0.0143491 0.999897 92.9999 24.0001)" fill="#F9DA1B"/>
<circle cx="1" cy="1" r="1" transform="matrix(-0.79058 0.612359 0.612359 0.79058 47.7775 81.7947)" fill="black"/>
<circle cx="1" cy="1" r="1" transform="matrix(-0.79058 0.612359 0.612359 0.79058 51.0403 72.943)" fill="black"/>
<circle cx="1" cy="1" r="1" transform="matrix(-0.79058 0.612359 0.612359 0.79058 56.4966 63.6571)" fill="black"/>
<circle cx="1" cy="1" r="1" transform="matrix(-0.638661 -0.769488 -0.769488 0.638661 102.579 47.872)" fill="black"/>
<circle cx="1" cy="1" r="1" transform="matrix(-0.638661 -0.769488 -0.769488 0.638661 111.536 50.8346)" fill="black"/>
<circle cx="1" cy="1" r="1" transform="matrix(-0.638661 -0.769488 -0.769488 0.638661 121 55.9749)" fill="black"/>
<circle cx="1" cy="1" r="1" transform="matrix(0.0398401 -0.999206 -0.999206 -0.0398401 129.552 66.2802)" fill="black"/>
<circle cx="1" cy="1" r="1" transform="matrix(0.0398401 -0.999206 -0.999206 -0.0398401 134.23 74.4731)" fill="black"/>
<circle cx="1" cy="1" r="1" transform="matrix(0.0398401 -0.999206 -0.999206 -0.0398401 137.828 84.6245)" fill="black"/>
<circle cx="1" cy="1" r="1" transform="matrix(0.785523 -0.618833 -0.618833 -0.785523 136.446 103.675)" fill="black"/>
<circle cx="1" cy="1" r="1" transform="matrix(0.785523 -0.618833 -0.618833 -0.785523 133.256 112.554)" fill="black"/>
<circle cx="1" cy="1" r="1" transform="matrix(0.785523 -0.618833 -0.618833 -0.785523 127.876 121.884)" fill="black"/>
<path d="M92.0001 155V133.5" stroke="black" stroke-width="0.75"/>
<circle cx="1" cy="1" r="1" transform="matrix(-8.42937e-08 1 1 8.42937e-08 23 92.0001)" fill="black"/>
<circle cx="1" cy="1" r="1" transform="matrix(-8.42937e-08 1 1 8.42937e-08 157 92)" fill="black"/>
<circle cx="1" cy="1" r="1" transform="matrix(-8.42937e-08 1 1 8.42937e-08 135 134)" fill="black"/>
<path d="M92.0001 52.0001V30.5001" stroke="#F9DA1B" stroke-width="0.75"/>
<path d="M29.4089 92.7501L50.9089 92.7501" stroke="black" stroke-width="0.75"/>
<path d="M131.5 93.0001L153 93.0001" stroke="black" stroke-width="0.75"/>
<path d="M52.8442 131.565L62.8442 121.565" stroke="black" stroke-width="0.75"/>
<path d="M120.473 63.9354L132 54" stroke="black" stroke-width="0.75"/>
<path d="M53.0001 54.0001L62.8444 63.9356" stroke="black" stroke-width="0.75"/>
<path d="M120.474 121.565L132 132" stroke="black" stroke-width="0.75"/>
<path d="M94.6813 95.6814L92.5091 103.241C92.2176 104.253 90.7824 104.253 90.4909 103.241L88.3178 95.6823L80.7596 93.5092C79.7468 93.2177 79.7468 91.7825 80.7596 91.4911L88.3178 89.3179L90.4909 81.7597C90.7824 80.7469 92.2176 80.7469 92.5091 81.7597L94.6822 89.3179L102.24 91.4911C103.253 91.7825 103.253 93.2177 102.24 93.5092L94.6822 95.6823L94.6813 95.6814Z" fill="#164194"/>
<circle cx="1" cy="1" r="1" transform="matrix(-8.42937e-08 1 1 8.42937e-08 47 135)" fill="black"/>
<circle cx="1" cy="1" r="1" transform="matrix(-8.42937e-08 1 1 8.42937e-08 48.8967 49.1034)" fill="black"/>
<circle cx="1" cy="1" r="1" transform="matrix(-8.42937e-08 1 1 8.42937e-08 136 50.0001)" fill="black"/>
</svg>
