<svg width="279" height="30" viewBox="0 0 279 30" fill="none" xmlns="http://www.w3.org/2000/svg">
<path d="M240.448 26V25.3608L242.849 22.733C243.13 22.4252 243.362 22.1577 243.545 21.9304C243.727 21.7008 243.862 21.4853 243.95 21.2841C244.04 21.0805 244.085 20.8674 244.085 20.6449C244.085 20.3892 244.023 20.1679 243.9 19.9808C243.779 19.7938 243.613 19.6494 243.403 19.5476C243.192 19.4458 242.955 19.3949 242.692 19.3949C242.413 19.3949 242.169 19.4529 241.961 19.5689C241.755 19.6825 241.595 19.8423 241.482 20.0483C241.37 20.2543 241.315 20.4957 241.315 20.7727H240.477C240.477 20.3466 240.575 19.9725 240.771 19.6506C240.968 19.3286 241.235 19.0777 241.574 18.8977C241.915 18.7178 242.297 18.6278 242.721 18.6278C243.147 18.6278 243.525 18.7178 243.854 18.8977C244.183 19.0777 244.441 19.3203 244.628 19.6257C244.815 19.9311 244.908 20.2708 244.908 20.6449C244.908 20.9124 244.86 21.174 244.763 21.4297C244.668 21.683 244.502 21.9659 244.266 22.2784C244.031 22.5885 243.706 22.9673 243.289 23.4148L241.656 25.1619V25.2188H245.036V26H240.448ZM248.875 26.0994C248.34 26.0994 247.884 25.9538 247.508 25.6626C247.131 25.3691 246.844 24.9441 246.645 24.3878C246.446 23.8291 246.347 23.1544 246.347 22.3636C246.347 21.5777 246.446 20.9065 246.645 20.3501C246.846 19.7914 247.135 19.3653 247.511 19.0717C247.89 18.7758 248.345 18.6278 248.875 18.6278C249.405 18.6278 249.859 18.7758 250.235 19.0717C250.614 19.3653 250.903 19.7914 251.102 20.3501C251.303 20.9065 251.403 21.5777 251.403 22.3636C251.403 23.1544 251.304 23.8291 251.105 24.3878C250.906 24.9441 250.619 25.3691 250.242 25.6626C249.866 25.9538 249.41 26.0994 248.875 26.0994ZM248.875 25.3182C249.405 25.3182 249.817 25.0625 250.111 24.5511C250.404 24.0398 250.551 23.3106 250.551 22.3636C250.551 21.7339 250.484 21.1977 250.349 20.755C250.216 20.3123 250.024 19.9749 249.773 19.7429C249.525 19.5109 249.225 19.3949 248.875 19.3949C248.349 19.3949 247.939 19.6541 247.643 20.1726C247.347 20.6887 247.199 21.419 247.199 22.3636C247.199 22.9934 247.265 23.5284 247.398 23.9688C247.53 24.4091 247.721 24.7441 247.969 24.9737C248.22 25.2034 248.522 25.3182 248.875 25.3182ZM252.753 26V25.3608L255.153 22.733C255.435 22.4252 255.667 22.1577 255.849 21.9304C256.032 21.7008 256.167 21.4853 256.254 21.2841C256.344 21.0805 256.389 20.8674 256.389 20.6449C256.389 20.3892 256.328 20.1679 256.205 19.9808C256.084 19.7938 255.918 19.6494 255.707 19.5476C255.497 19.4458 255.26 19.3949 254.997 19.3949C254.718 19.3949 254.474 19.4529 254.266 19.5689C254.06 19.6825 253.9 19.8423 253.786 20.0483C253.675 20.2543 253.619 20.4957 253.619 20.7727H252.781C252.781 20.3466 252.879 19.9725 253.076 19.6506C253.272 19.3286 253.54 19.0777 253.879 18.8977C254.219 18.7178 254.602 18.6278 255.026 18.6278C255.452 18.6278 255.829 18.7178 256.158 18.8977C256.487 19.0777 256.746 19.3203 256.933 19.6257C257.12 19.9311 257.213 20.2708 257.213 20.6449C257.213 20.9124 257.165 21.174 257.067 21.4297C256.973 21.683 256.807 21.9659 256.57 22.2784C256.336 22.5885 256.01 22.9673 255.594 23.4148L253.96 25.1619V25.2188H257.341V26H252.753ZM261.18 26.0994C260.645 26.0994 260.189 25.9538 259.812 25.6626C259.436 25.3691 259.148 24.9441 258.95 24.3878C258.751 23.8291 258.651 23.1544 258.651 22.3636C258.651 21.5777 258.751 20.9065 258.95 20.3501C259.151 19.7914 259.44 19.3653 259.816 19.0717C260.195 18.7758 260.649 18.6278 261.18 18.6278C261.71 18.6278 262.163 18.7758 262.54 19.0717C262.919 19.3653 263.207 19.7914 263.406 20.3501C263.607 20.9065 263.708 21.5777 263.708 22.3636C263.708 23.1544 263.609 23.8291 263.41 24.3878C263.211 24.9441 262.923 25.3691 262.547 25.6626C262.17 25.9538 261.715 26.0994 261.18 26.0994ZM261.18 25.3182C261.71 25.3182 262.122 25.0625 262.415 24.5511C262.709 24.0398 262.856 23.3106 262.856 22.3636C262.856 21.7339 262.788 21.1977 262.653 20.755C262.521 20.3123 262.329 19.9749 262.078 19.7429C261.83 19.5109 261.53 19.3949 261.18 19.3949C260.654 19.3949 260.243 19.6541 259.947 20.1726C259.652 20.6887 259.504 21.419 259.504 22.3636C259.504 22.9934 259.57 23.5284 259.702 23.9688C259.835 24.4091 260.026 24.7441 260.274 24.9737C260.525 25.2034 260.827 25.3182 261.18 25.3182Z" fill="white"/>
<path d="M19.0597 18.7273V26H18.179V19.6506H18.1364L16.3608 20.8295V19.9347L18.179 18.7273H19.0597ZM23.4666 18.6278C23.7649 18.6302 24.0632 18.687 24.3615 18.7983C24.6598 18.9096 24.9321 19.0942 25.1783 19.3523C25.4245 19.608 25.6222 19.9571 25.7713 20.3999C25.9205 20.8426 25.995 21.3977 25.995 22.0653C25.995 22.7116 25.9335 23.2857 25.8104 23.7876C25.6896 24.2872 25.5144 24.7086 25.2848 25.0518C25.0575 25.3951 24.7805 25.6555 24.4538 25.8331C24.1295 26.0107 23.7625 26.0994 23.353 26.0994C22.9458 26.0994 22.5824 26.0189 22.2628 25.858C21.9455 25.6946 21.6851 25.4685 21.4815 25.1797C21.2803 24.8885 21.1513 24.5511 21.0945 24.1676H21.9609C22.0391 24.5014 22.1941 24.7772 22.4261 24.995C22.6605 25.2105 22.9695 25.3182 23.353 25.3182C23.9141 25.3182 24.3568 25.0732 24.6811 24.5831C25.0078 24.093 25.1712 23.4006 25.1712 22.5057H25.1143C24.9818 22.7045 24.8243 22.8762 24.642 23.0206C24.4598 23.165 24.2573 23.2763 24.0348 23.3544C23.8123 23.4325 23.5755 23.4716 23.3246 23.4716C22.9079 23.4716 22.5256 23.3686 22.1776 23.1626C21.8319 22.9543 21.5549 22.669 21.3466 22.3068C21.1406 21.9422 21.0376 21.5256 21.0376 21.0568C21.0376 20.6117 21.1371 20.2045 21.3359 19.8352C21.5372 19.4635 21.8189 19.1676 22.1811 18.9474C22.5457 18.7273 22.9742 18.6207 23.4666 18.6278ZM23.4666 19.4091C23.1683 19.4091 22.8996 19.4837 22.6605 19.6328C22.4238 19.7796 22.2356 19.9785 22.0959 20.2294C21.9586 20.478 21.8899 20.7538 21.8899 21.0568C21.8899 21.3598 21.9562 21.6357 22.0888 21.8842C22.2237 22.1304 22.4072 22.3269 22.6392 22.4737C22.8736 22.6181 23.1399 22.6903 23.4382 22.6903C23.6631 22.6903 23.8726 22.6465 24.0668 22.5589C24.2609 22.469 24.4302 22.3471 24.5746 22.1932C24.7214 22.0369 24.8362 21.8606 24.919 21.6641C25.0019 21.4652 25.0433 21.258 25.0433 21.0426C25.0433 20.7585 24.9747 20.4922 24.8374 20.2436C24.7024 19.995 24.5154 19.7938 24.2763 19.6399C24.0395 19.486 23.7696 19.4091 23.4666 19.4091ZM27.4235 26L30.6763 19.5653V19.5085H26.9263V18.7273H31.5854V19.5511L28.3468 26H27.4235ZM35.125 26.0994C34.59 26.0994 34.1342 25.9538 33.7578 25.6626C33.3814 25.3691 33.0938 24.9441 32.8949 24.3878C32.696 23.8291 32.5966 23.1544 32.5966 22.3636C32.5966 21.5777 32.696 20.9065 32.8949 20.3501C33.0961 19.7914 33.3849 19.3653 33.7614 19.0717C34.1402 18.7758 34.5947 18.6278 35.125 18.6278C35.6553 18.6278 36.1087 18.7758 36.4851 19.0717C36.8639 19.3653 37.1527 19.7914 37.3516 20.3501C37.5528 20.9065 37.6534 21.5777 37.6534 22.3636C37.6534 23.1544 37.554 23.8291 37.3551 24.3878C37.1562 24.9441 36.8686 25.3691 36.4922 25.6626C36.1158 25.9538 35.66 26.0994 35.125 26.0994ZM35.125 25.3182C35.6553 25.3182 36.0672 25.0625 36.3608 24.5511C36.6544 24.0398 36.8011 23.3106 36.8011 22.3636C36.8011 21.7339 36.7337 21.1977 36.5987 20.755C36.4661 20.3123 36.2744 19.9749 36.0234 19.7429C35.7749 19.5109 35.4754 19.3949 35.125 19.3949C34.5994 19.3949 34.1887 19.6541 33.8928 20.1726C33.5968 20.6887 33.4489 21.419 33.4489 22.3636C33.4489 22.9934 33.5152 23.5284 33.6477 23.9688C33.7803 24.4091 33.9709 24.7441 34.2195 24.9737C34.4704 25.2034 34.7723 25.3182 35.125 25.3182Z" fill="white"/>
<path d="M258.707 8.70711C259.098 8.31658 259.098 7.68342 258.707 7.29289L252.343 0.928932C251.953 0.538408 251.319 0.538408 250.929 0.928932C250.538 1.31946 250.538 1.95262 250.929 2.34315L256.586 8L250.929 13.6569C250.538 14.0474 250.538 14.6805 250.929 15.0711C251.319 15.4616 251.953 15.4616 252.343 15.0711L258.707 8.70711ZM25 9H258V7H25V9Z" fill="white"/>
</svg>
