<svg width="64" height="193" viewBox="0 0 64 193" fill="none" xmlns="http://www.w3.org/2000/svg">
<path d="M14 189.099C13.465 189.099 13.0092 188.954 12.6328 188.663C12.2564 188.369 11.9688 187.944 11.7699 187.388C11.571 186.829 11.4716 186.154 11.4716 185.364C11.4716 184.578 11.571 183.906 11.7699 183.35C11.9711 182.791 12.2599 182.365 12.6364 182.072C13.0152 181.776 13.4697 181.628 14 181.628C14.5303 181.628 14.9837 181.776 15.3601 182.072C15.7389 182.365 16.0277 182.791 16.2266 183.35C16.4278 183.906 16.5284 184.578 16.5284 185.364C16.5284 186.154 16.429 186.829 16.2301 187.388C16.0312 187.944 15.7436 188.369 15.3672 188.663C14.9908 188.954 14.535 189.099 14 189.099ZM14 188.318C14.5303 188.318 14.9422 188.062 15.2358 187.551C15.5294 187.04 15.6761 186.311 15.6761 185.364C15.6761 184.734 15.6087 184.198 15.4737 183.755C15.3411 183.312 15.1494 182.975 14.8984 182.743C14.6499 182.511 14.3504 182.395 14 182.395C13.4744 182.395 13.0637 182.654 12.7678 183.173C12.4718 183.689 12.3239 184.419 12.3239 185.364C12.3239 185.993 12.3902 186.528 12.5227 186.969C12.6553 187.409 12.8459 187.744 13.0945 187.974C13.3454 188.203 13.6473 188.318 14 188.318Z" fill="white"/>
<path d="M10.7069 10V9.3608L13.1075 6.73295C13.3892 6.42519 13.6212 6.15767 13.8035 5.9304C13.9858 5.70076 14.1208 5.48532 14.2084 5.28409C14.2983 5.08049 14.3433 4.86742 14.3433 4.64489C14.3433 4.3892 14.2818 4.16785 14.1586 3.98082C14.0379 3.7938 13.8722 3.64938 13.6615 3.54759C13.4508 3.44579 13.214 3.39489 12.9513 3.39489C12.6719 3.39489 12.4281 3.45289 12.2197 3.56889C12.0138 3.68253 11.854 3.84233 11.7403 4.0483C11.6291 4.25426 11.5734 4.49574 11.5734 4.77273H10.7354C10.7354 4.34659 10.8336 3.97254 11.0301 3.65057C11.2266 3.3286 11.4941 3.07765 11.8327 2.89773C12.1736 2.7178 12.5559 2.62784 12.9797 2.62784C13.4058 2.62784 13.7834 2.7178 14.1125 2.89773C14.4416 3.07765 14.6996 3.32031 14.8866 3.62571C15.0737 3.93111 15.1672 4.27083 15.1672 4.64489C15.1672 4.91241 15.1186 5.17401 15.0216 5.42969C14.9269 5.683 14.7612 5.96591 14.5244 6.27841C14.29 6.58854 13.9645 6.96733 13.5479 7.41477L11.9143 9.16193V9.21875H15.295V10H10.7069ZM19.5883 10V4.54545H20.398V5.39773H20.469C20.5827 5.10653 20.7661 4.88045 21.0194 4.71946C21.2728 4.55611 21.577 4.47443 21.9321 4.47443C22.2919 4.47443 22.5914 4.55611 22.8305 4.71946C23.072 4.88045 23.2602 5.10653 23.3952 5.39773H23.452C23.5916 5.116 23.8012 4.89228 24.0805 4.72656C24.3599 4.55848 24.6949 4.47443 25.0855 4.47443C25.5732 4.47443 25.9721 4.62713 26.2822 4.93253C26.5924 5.23556 26.7474 5.70786 26.7474 6.34943V10H25.9094V6.34943C25.9094 5.94697 25.7993 5.65933 25.5791 5.48651C25.3589 5.31368 25.0997 5.22727 24.8014 5.22727C24.4179 5.22727 24.1208 5.34328 23.9101 5.57528C23.6994 5.80492 23.594 6.09612 23.594 6.44886V10H22.7417V6.2642C22.7417 5.95407 22.6411 5.70431 22.4399 5.51491C22.2387 5.32315 21.9794 5.22727 21.6622 5.22727C21.4444 5.22727 21.2408 5.28527 21.0514 5.40128C20.8644 5.51728 20.7129 5.67827 20.5969 5.88423C20.4832 6.08783 20.4264 6.32339 20.4264 6.59091V10H19.5883ZM28.2797 10V4.54545H29.1178V10H28.2797ZM28.7059 3.63636C28.5425 3.63636 28.4017 3.58073 28.2833 3.46946C28.1673 3.35819 28.1093 3.22443 28.1093 3.06818C28.1093 2.91193 28.1673 2.77817 28.2833 2.6669C28.4017 2.55563 28.5425 2.5 28.7059 2.5C28.8692 2.5 29.0089 2.55563 29.1249 2.6669C29.2433 2.77817 29.3025 2.91193 29.3025 3.06818C29.3025 3.22443 29.2433 3.35819 29.1249 3.46946C29.0089 3.58073 28.8692 3.63636 28.7059 3.63636ZM31.4909 2.72727V10H30.6528V2.72727H31.4909ZM33.8639 2.72727V10H33.0258V2.72727H33.8639ZM35.3989 10V4.54545H36.2369V10H35.3989ZM35.825 3.63636C35.6617 3.63636 35.5208 3.58073 35.4024 3.46946C35.2864 3.35819 35.2284 3.22443 35.2284 3.06818C35.2284 2.91193 35.2864 2.77817 35.4024 2.6669C35.5208 2.55563 35.6617 2.5 35.825 2.5C35.9884 2.5 36.128 2.55563 36.2441 2.6669C36.3624 2.77817 36.4216 2.91193 36.4216 3.06818C36.4216 3.22443 36.3624 3.35819 36.2441 3.46946C36.128 3.58073 35.9884 3.63636 35.825 3.63636ZM39.9878 10.1136C39.4954 10.1136 39.0634 9.99645 38.6917 9.76207C38.3224 9.5277 38.0335 9.19981 37.8252 8.77841C37.6192 8.35701 37.5162 7.86458 37.5162 7.30114C37.5162 6.73295 37.6192 6.23698 37.8252 5.81321C38.0335 5.38944 38.3224 5.06037 38.6917 4.82599C39.0634 4.59162 39.4954 4.47443 39.9878 4.47443C40.4803 4.47443 40.9111 4.59162 41.2805 4.82599C41.6521 5.06037 41.941 5.38944 42.1469 5.81321C42.3553 6.23698 42.4594 6.73295 42.4594 7.30114C42.4594 7.86458 42.3553 8.35701 42.1469 8.77841C41.941 9.19981 41.6521 9.5277 41.2805 9.76207C40.9111 9.99645 40.4803 10.1136 39.9878 10.1136ZM39.9878 9.3608C40.3619 9.3608 40.6697 9.26491 40.9111 9.07315C41.1526 8.88139 41.3314 8.62926 41.4474 8.31676C41.5634 8.00426 41.6214 7.66572 41.6214 7.30114C41.6214 6.93655 41.5634 6.59683 41.4474 6.28196C41.3314 5.96709 41.1526 5.71259 40.9111 5.51847C40.6697 5.32434 40.3619 5.22727 39.9878 5.22727C39.6138 5.22727 39.306 5.32434 39.0645 5.51847C38.8231 5.71259 38.6443 5.96709 38.5283 6.28196C38.4123 6.59683 38.3543 6.93655 38.3543 7.30114C38.3543 7.66572 38.4123 8.00426 38.5283 8.31676C38.6443 8.62926 38.8231 8.88139 39.0645 9.07315C39.306 9.26491 39.6138 9.3608 39.9878 9.3608ZM44.5768 6.71875V10H43.7387V4.54545H44.5484V5.39773H44.6194C44.7472 5.12074 44.9414 4.8982 45.2018 4.73011C45.4622 4.55966 45.7984 4.47443 46.2103 4.47443C46.5796 4.47443 46.9028 4.55019 47.1798 4.7017C47.4568 4.85085 47.6722 5.07812 47.8261 5.38352C47.98 5.68655 48.0569 6.07008 48.0569 6.53409V10H47.2188V6.59091C47.2188 6.16241 47.1076 5.8286 46.885 5.58949C46.6625 5.34801 46.3571 5.22727 45.9688 5.22727C45.7013 5.22727 45.4622 5.28527 45.2515 5.40128C45.0432 5.51728 44.8786 5.68655 44.7579 5.90909C44.6372 6.13163 44.5768 6.40152 44.5768 6.71875ZM53.452 5.76705L52.6991 5.98011C52.6518 5.85464 52.5819 5.73272 52.4896 5.61435C52.3997 5.49361 52.2765 5.39418 52.1203 5.31605C51.964 5.23793 51.764 5.19886 51.5202 5.19886C51.1863 5.19886 50.9082 5.2758 50.6856 5.42969C50.4655 5.5812 50.3554 5.77415 50.3554 6.00852C50.3554 6.21686 50.4311 6.38139 50.5827 6.50213C50.7342 6.62287 50.9709 6.72348 51.2929 6.80398L52.1025 7.00284C52.5902 7.12121 52.9536 7.30232 53.1927 7.54616C53.4318 7.78764 53.5514 8.09896 53.5514 8.48011C53.5514 8.79261 53.4614 9.07197 53.2815 9.31818C53.104 9.56439 52.8554 9.75852 52.5358 9.90057C52.2162 10.0426 51.8445 10.1136 51.4207 10.1136C50.8644 10.1136 50.4039 9.9929 50.0393 9.75142C49.6747 9.50994 49.4439 9.1572 49.3469 8.69318L50.1423 8.49432C50.2181 8.78788 50.3613 9.00805 50.572 9.15483C50.7851 9.30161 51.0632 9.375 51.4065 9.375C51.7971 9.375 52.1073 9.29214 52.3369 9.12642C52.5689 8.95833 52.6849 8.7571 52.6849 8.52273C52.6849 8.33333 52.6186 8.17472 52.4861 8.04688C52.3535 7.91667 52.1499 7.8196 51.8753 7.75568L50.9662 7.54261C50.4666 7.42424 50.0997 7.24077 49.8653 6.99219C49.6333 6.74124 49.5173 6.42756 49.5173 6.05114C49.5173 5.74337 49.6037 5.47112 49.7765 5.23438C49.9517 4.99763 50.1897 4.81179 50.4903 4.67685C50.7934 4.5419 51.1366 4.47443 51.5202 4.47443C52.0599 4.47443 52.4837 4.5928 52.7915 4.82955C53.1016 5.06629 53.3218 5.37879 53.452 5.76705Z" fill="white"/>
<path d="M33.7071 13.2929C33.3166 12.9024 32.6834 12.9024 32.2929 13.2929L25.9289 19.6569C25.5384 20.0474 25.5384 20.6805 25.9289 21.0711C26.3194 21.4616 26.9526 21.4616 27.3431 21.0711L33 15.4142L38.6568 21.0711C39.0474 21.4616 39.6805 21.4616 40.0711 21.0711C40.4616 20.6805 40.4616 20.0474 40.0711 19.6569L33.7071 13.2929ZM34 190L34 14L32 14L32 190L34 190Z" fill="white"/>
</svg>
