<svg width="100" height="112" viewBox="0 0 100 112" fill="none" xmlns="http://www.w3.org/2000/svg">
<path d="M57.4258 21.8239H42.0282C40.8933 21.8239 39.9733 22.7617 39.9733 23.9186V51.7798C39.9733 52.9367 40.8933 53.8746 42.0282 53.8746H57.4258C58.5607 53.8746 59.4808 52.9367 59.4808 51.7798V23.9186C59.4808 22.7617 58.5607 21.8239 57.4258 21.8239Z" fill="#49B170"/>
<path d="M46.9907 24.2305H43.438C43.0038 24.2305 42.6519 24.5893 42.6519 25.0318V30.4524C42.6519 30.8949 43.0038 31.2537 43.438 31.2537H46.9907C47.4249 31.2537 47.7768 30.8949 47.7768 30.4524V25.0318C47.7768 24.5893 47.4249 24.2305 46.9907 24.2305Z" fill="#F9DA1B"/>
<path d="M45.2145 23.8447V31.6398" stroke="black" stroke-miterlimit="10" stroke-linecap="round"/>
<path d="M48.2681 27.7422H42.1606" stroke="black" stroke-miterlimit="10" stroke-linecap="round"/>
<path d="M55.6167 29.4264H52.064C51.6298 29.4264 51.2778 29.7852 51.2778 30.2278V35.6483C51.2778 36.0909 51.6298 36.4497 52.064 36.4497H55.6167C56.0508 36.4497 56.4028 36.0909 56.4028 35.6483V30.2278C56.4028 29.7852 56.0508 29.4264 55.6167 29.4264Z" fill="#F9DA1B"/>
<path d="M53.8405 29.0406V36.8357" stroke="black" stroke-miterlimit="10" stroke-linecap="round"/>
<path d="M56.894 32.9381H50.7864" stroke="black" stroke-miterlimit="10" stroke-linecap="round"/>
<path d="M55.6167 39.4187H52.064C51.6298 39.4187 51.2778 39.7775 51.2778 40.2201V45.6406C51.2778 46.0832 51.6298 46.442 52.064 46.442H55.6167C56.0508 46.442 56.4028 46.0832 56.4028 45.6406V40.2201C56.4028 39.7775 56.0508 39.4187 55.6167 39.4187Z" fill="#F9DA1B"/>
<path d="M53.8405 39.033V46.828" stroke="black" stroke-miterlimit="10" stroke-linecap="round"/>
<path d="M56.894 42.9302H50.7864" stroke="black" stroke-miterlimit="10" stroke-linecap="round"/>
<path d="M46.9907 34.2225H43.438C43.0038 34.2225 42.6519 34.5813 42.6519 35.0239V40.4444C42.6519 40.887 43.0038 41.2458 43.438 41.2458H46.9907C47.4249 41.2458 47.7768 40.887 47.7768 40.4444V35.0239C47.7768 34.5813 47.4249 34.2225 46.9907 34.2225Z" fill="#F9DA1B"/>
<path d="M45.2145 33.837V41.6321" stroke="black" stroke-miterlimit="10" stroke-linecap="round"/>
<path d="M48.2681 37.7343H42.1606" stroke="black" stroke-miterlimit="10" stroke-linecap="round"/>
<path d="M42.6898 52.9708V44.7489C42.6898 44.2169 43.1129 43.7853 43.6351 43.7853H46.8699C47.3917 43.7853 47.8152 44.2165 47.8152 44.7489V52.9708" stroke="black" stroke-miterlimit="10" stroke-linecap="round"/>
<path d="M55.9929 22.967V17.6843" stroke="black" stroke-miterlimit="10" stroke-linecap="round"/>
<path d="M53.1579 16.2053L58.8283 18.9807" stroke="black" stroke-miterlimit="10" stroke-linecap="round"/>
<path d="M18.183 68.9926V79.9017H16.862V68.9926H18.183ZM20.6612 79.9017V71.7199H21.8757V72.9983H21.9823C22.1527 72.5615 22.4279 72.2224 22.8079 71.9809C23.1879 71.7359 23.6442 71.6134 24.1769 71.6134C24.7166 71.6134 25.1659 71.7359 25.5245 71.9809C25.8867 72.2224 26.1691 72.5615 26.3715 72.9983H26.4567C26.6662 72.5757 26.9805 72.2402 27.3995 71.9916C27.8186 71.7394 28.3211 71.6134 28.907 71.6134C29.6385 71.6134 30.2369 71.8424 30.7021 72.3005C31.1673 72.7551 31.3999 73.4635 31.3999 74.4259V79.9017H30.1428V74.4259C30.1428 73.8222 29.9777 73.3907 29.6474 73.1315C29.3171 72.8723 28.9283 72.7426 28.4809 72.7426C27.9056 72.7426 27.4599 72.9166 27.1438 73.2647C26.8278 73.6091 26.6698 74.0459 26.6698 74.575V79.9017H25.3914V74.298C25.3914 73.8328 25.2404 73.4582 24.9386 73.1741C24.6367 72.8865 24.2479 72.7426 23.772 72.7426C23.4453 72.7426 23.1399 72.8296 22.8559 73.0037C22.5753 73.1777 22.348 73.4191 22.174 73.7281C22.0036 74.0335 21.9184 74.3868 21.9184 74.7881V79.9017H20.6612ZM33.6984 79.9017V71.7199H34.9128V72.9983H35.0194C35.1898 72.5615 35.465 72.2224 35.845 71.9809C36.225 71.7359 36.6813 71.6134 37.214 71.6134C37.7538 71.6134 38.203 71.7359 38.5616 71.9809C38.9239 72.2224 39.2062 72.5615 39.4086 72.9983H39.4938C39.7033 72.5757 40.0176 72.2402 40.4366 71.9916C40.8557 71.7394 41.3582 71.6134 41.9441 71.6134C42.6756 71.6134 43.274 71.8424 43.7392 72.3005C44.2044 72.7551 44.437 73.4635 44.437 74.4259V79.9017H43.1799V74.4259C43.1799 73.8222 43.0148 73.3907 42.6845 73.1315C42.3543 72.8723 41.9654 72.7426 41.518 72.7426C40.9427 72.7426 40.497 72.9166 40.181 73.2647C39.8649 73.6091 39.7069 74.0459 39.7069 74.575V79.9017H38.4285V74.298C38.4285 73.8328 38.2775 73.4582 37.9757 73.1741C37.6739 72.8865 37.285 72.7426 36.8092 72.7426C36.4824 72.7426 36.1771 72.8296 35.893 73.0037C35.6124 73.1777 35.3851 73.4191 35.2111 73.7281C35.0407 74.0335 34.9555 74.3868 34.9555 74.7881V79.9017H33.6984ZM50.1659 80.0722C49.3775 80.0722 48.6975 79.8982 48.1257 79.5502C47.5576 79.1986 47.119 78.7086 46.81 78.08C46.5046 77.4479 46.3519 76.7128 46.3519 75.8747C46.3519 75.0367 46.5046 74.298 46.81 73.6588C47.119 73.0161 47.5487 72.5154 48.0991 72.1567C48.6531 71.7945 49.2994 71.6134 50.038 71.6134C50.4642 71.6134 50.885 71.6844 51.3005 71.8264C51.7159 71.9685 52.0941 72.1993 52.435 72.5189C52.776 72.835 53.0476 73.254 53.25 73.776C53.4524 74.298 53.5536 74.9408 53.5536 75.7043V76.237H47.2468V75.1503H52.2752C52.2752 74.6887 52.1829 74.2767 51.9983 73.9145C51.8171 73.5523 51.5579 73.2664 51.2206 73.0569C50.8867 72.8474 50.4926 72.7426 50.038 72.7426C49.5373 72.7426 49.1041 72.8669 48.7383 73.1155C48.3761 73.3605 48.0973 73.6801 47.902 74.0743C47.7067 74.4685 47.609 74.8911 47.609 75.3421V76.0665C47.609 76.6844 47.7156 77.2082 47.9286 77.6379C48.1453 78.064 48.4453 78.3889 48.8289 78.6127C49.2124 78.8328 49.6581 78.9429 50.1659 78.9429C50.4961 78.9429 50.7944 78.8968 51.0608 78.8044C51.3306 78.7086 51.5632 78.5665 51.7586 78.3783C51.9539 78.1865 52.1048 77.9486 52.2113 77.6645L53.4258 78.0054C53.298 78.4174 53.0831 78.7796 52.7813 79.0921C52.4794 79.401 52.1066 79.6425 51.6627 79.8165C51.2188 79.987 50.7198 80.0722 50.1659 80.0722ZM60.6222 76.5566V71.7199H61.8793V79.9017H60.6222V78.5168H60.537C60.3452 78.9323 60.0469 79.2856 59.6421 79.5768C59.2372 79.8644 58.7259 80.0083 58.108 80.0083C57.5966 80.0083 57.1421 79.8964 56.7443 79.6727C56.3466 79.4454 56.0341 79.1045 55.8068 78.65C55.5796 78.1919 55.4659 77.6148 55.4659 76.9188V71.7199H56.723V76.8336C56.723 77.4301 56.8899 77.906 57.2237 78.2611C57.5611 78.6162 57.9908 78.7938 58.5128 78.7938C58.8253 78.7938 59.1431 78.7139 59.4663 78.5541C59.793 78.3943 60.0664 78.1492 60.2866 77.819C60.5103 77.4887 60.6222 77.0679 60.6222 76.5566ZM64.3522 79.9017V68.9926H65.6093V73.0196H65.7158C65.8082 72.8776 65.936 72.6965 66.0994 72.4763C66.2663 72.2526 66.5042 72.0537 66.8131 71.8797C67.1256 71.7022 67.5482 71.6134 68.0809 71.6134C68.7698 71.6134 69.3771 71.7856 69.9026 72.1301C70.4282 72.4745 70.8384 72.9628 71.1331 73.5949C71.4279 74.227 71.5752 74.9728 71.5752 75.8321C71.5752 76.6986 71.4279 77.4497 71.1331 78.0853C70.8384 78.7174 70.43 79.2075 69.908 79.5555C69.3859 79.9 68.784 80.0722 68.1022 80.0722C67.5766 80.0722 67.1558 79.9852 66.8398 79.8112C66.5237 79.6336 66.2805 79.433 66.11 79.2093C65.9396 78.982 65.8082 78.7938 65.7158 78.6446H65.5667V79.9017H64.3522ZM65.588 75.8108C65.588 76.4287 65.6786 76.9738 65.8597 77.4461C66.0408 77.9149 66.3053 78.2824 66.6533 78.5488C67.0014 78.8115 67.4275 78.9429 67.9318 78.9429C68.4573 78.9429 68.8959 78.8044 69.2475 78.5274C69.6026 78.2469 69.8689 77.8705 70.0465 77.3982C70.2276 76.9223 70.3181 76.3932 70.3181 75.8108C70.3181 75.2355 70.2293 74.7171 70.0518 74.2554C69.8778 73.7902 69.6132 73.4227 69.2581 73.1528C68.9065 72.8794 68.4644 72.7426 67.9318 72.7426C67.4204 72.7426 66.9907 72.8723 66.6427 73.1315C66.2947 73.3872 66.0319 73.7458 65.8543 74.2075C65.6768 74.6656 65.588 75.2 65.588 75.8108ZM74.7553 68.9926V79.9017H73.4982V68.9926H74.7553ZM80.4881 80.0722C79.6998 80.0722 79.0197 79.8982 78.448 79.5502C77.8798 79.1986 77.4413 78.7086 77.1323 78.08C76.8269 77.4479 76.6742 76.7128 76.6742 75.8747C76.6742 75.0367 76.8269 74.298 77.1323 73.6588C77.4413 73.0161 77.8709 72.5154 78.4214 72.1567C78.9753 71.7945 79.6217 71.6134 80.3603 71.6134C80.7864 71.6134 81.2072 71.6844 81.6227 71.8264C82.0382 71.9685 82.4164 72.1993 82.7573 72.5189C83.0982 72.835 83.3699 73.254 83.5723 73.776C83.7747 74.298 83.8759 74.9408 83.8759 75.7043V76.237H77.5691V75.1503H82.5975C82.5975 74.6887 82.5052 74.2767 82.3205 73.9145C82.1394 73.5523 81.8802 73.2664 81.5428 73.0569C81.209 72.8474 80.8148 72.7426 80.3603 72.7426C79.8596 72.7426 79.4263 72.8669 79.0606 73.1155C78.6984 73.3605 78.4196 73.6801 78.2243 74.0743C78.029 74.4685 77.9313 74.8911 77.9313 75.3421V76.0665C77.9313 76.6844 78.0378 77.2082 78.2509 77.6379C78.4675 78.064 78.7676 78.3889 79.1511 78.6127C79.5347 78.8328 79.9803 78.9429 80.4881 78.9429C80.8184 78.9429 81.1167 78.8968 81.383 78.8044C81.6529 78.7086 81.8855 78.5665 82.0808 78.3783C82.2761 78.1865 82.4271 77.9486 82.5336 77.6645L83.7481 78.0054C83.6202 78.4174 83.4054 78.7796 83.1035 79.0921C82.8017 79.401 82.4288 79.6425 81.9849 79.8165C81.541 79.987 81.0421 80.0722 80.4881 80.0722Z" fill="black"/>
<circle cx="50.2366" cy="107.495" r="3.78125" fill="#164194"/>
<rect x="0.5" y="0.5" width="98.3929" height="91.9107" rx="9.5" stroke="black"/>
</svg>
