<svg width="100" height="112" viewBox="0 0 100 112" fill="none" xmlns="http://www.w3.org/2000/svg">
<path d="M10.7409 79.9017V68.9926H14.427C15.2828 68.9926 15.9824 69.1471 16.5257 69.4561C17.0726 69.7615 17.4774 70.1752 17.7402 70.6972C18.003 71.2192 18.1343 71.8016 18.1343 72.4443C18.1343 73.0871 18.003 73.6713 17.7402 74.1968C17.4809 74.7224 17.0797 75.1414 16.5363 75.4539C15.993 75.7629 15.297 75.9174 14.4483 75.9174H11.8062V74.7455H14.4057C14.9916 74.7455 15.4621 74.6443 15.8172 74.4419C16.1723 74.2394 16.4298 73.966 16.5896 73.6215C16.753 73.2735 16.8346 72.8811 16.8346 72.4443C16.8346 72.0076 16.753 71.6169 16.5896 71.2725C16.4298 70.928 16.1706 70.6581 15.8119 70.4628C15.4532 70.2639 14.9774 70.1645 14.3843 70.1645H12.0619V79.9017H10.7409ZM20.0919 79.9017V71.7199H21.3064V72.9557H21.3916C21.5408 72.5509 21.8107 72.2224 22.2013 71.9703C22.5919 71.7181 23.0323 71.5921 23.5223 71.5921C23.6146 71.5921 23.7301 71.5938 23.8685 71.5974C24.007 71.601 24.1118 71.6063 24.1828 71.6134V72.8918C24.1402 72.8811 24.0426 72.8652 23.8899 72.8438C23.7407 72.819 23.5827 72.8066 23.4158 72.8066C23.0181 72.8066 22.6629 72.89 22.3504 73.0569C22.0415 73.2203 21.7965 73.4475 21.6154 73.7387C21.4378 74.0264 21.349 74.3549 21.349 74.7242V79.9017H20.0919ZM28.7478 80.0722C28.0092 80.0722 27.3611 79.8964 26.8036 79.5448C26.2496 79.1933 25.8163 78.7014 25.5038 78.0693C25.1949 77.4372 25.0404 76.6986 25.0404 75.8534C25.0404 75.0012 25.1949 74.2572 25.5038 73.6215C25.8163 72.9859 26.2496 72.4923 26.8036 72.1407C27.3611 71.7892 28.0092 71.6134 28.7478 71.6134C29.4864 71.6134 30.1328 71.7892 30.6867 72.1407C31.2443 72.4923 31.6775 72.9859 31.9864 73.6215C32.2989 74.2572 32.4552 75.0012 32.4552 75.8534C32.4552 76.6986 32.2989 77.4372 31.9864 78.0693C31.6775 78.7014 31.2443 79.1933 30.6867 79.5448C30.1328 79.8964 29.4864 80.0722 28.7478 80.0722ZM28.7478 78.9429C29.3089 78.9429 29.7705 78.7991 30.1328 78.5115C30.495 78.2238 30.7631 77.8456 30.9371 77.3769C31.1111 76.9081 31.1981 76.4003 31.1981 75.8534C31.1981 75.3066 31.1111 74.797 30.9371 74.3247C30.7631 73.8524 30.495 73.4706 30.1328 73.1794C29.7705 72.8882 29.3089 72.7426 28.7478 72.7426C28.1867 72.7426 27.7251 72.8882 27.3629 73.1794C27.0006 73.4706 26.7325 73.8524 26.5585 74.3247C26.3845 74.797 26.2975 75.3066 26.2975 75.8534C26.2975 76.4003 26.3845 76.9081 26.5585 77.3769C26.7325 77.8456 27.0006 78.2238 27.3629 78.5115C27.7251 78.7991 28.1867 78.9429 28.7478 78.9429ZM34.3741 82.9699V71.7199H35.5886V73.0196H35.7378C35.8301 72.8776 35.9579 72.6965 36.1213 72.4763C36.2882 72.2526 36.5261 72.0537 36.8351 71.8797C37.1476 71.7022 37.5702 71.6134 38.1028 71.6134C38.7918 71.6134 39.399 71.7856 39.9246 72.1301C40.4501 72.4745 40.8603 72.9628 41.155 73.5949C41.4498 74.227 41.5972 74.9728 41.5972 75.8321C41.5972 76.6986 41.4498 77.4497 41.155 78.0853C40.8603 78.7174 40.4519 79.2075 39.9299 79.5555C39.4079 79.9 38.806 80.0722 38.1241 80.0722C37.5986 80.0722 37.1778 79.9852 36.8617 79.8112C36.5457 79.6336 36.3024 79.433 36.132 79.2093C35.9615 78.982 35.8301 78.7938 35.7378 78.6446H35.6312V82.9699H34.3741ZM35.6099 75.8108C35.6099 76.4287 35.7005 76.9738 35.8816 77.4461C36.0627 77.9149 36.3273 78.2824 36.6753 78.5488C37.0233 78.8115 37.4494 78.9429 37.9537 78.9429C38.4793 78.9429 38.9178 78.8044 39.2694 78.5274C39.6245 78.2469 39.8908 77.8705 40.0684 77.3982C40.2495 76.9223 40.34 76.3932 40.34 75.8108C40.34 75.2355 40.2513 74.7171 40.0737 74.2554C39.8997 73.7902 39.6351 73.4227 39.28 73.1528C38.9285 72.8794 38.4864 72.7426 37.9537 72.7426C37.4423 72.7426 37.0126 72.8723 36.6646 73.1315C36.3166 73.3872 36.0538 73.7458 35.8763 74.2075C35.6987 74.6656 35.6099 75.2 35.6099 75.8108ZM43.5148 79.9017V71.7199H44.7293V72.9557H44.8145C44.9636 72.5509 45.2335 72.2224 45.6241 71.9703C46.0148 71.7181 46.4551 71.5921 46.9452 71.5921C47.0375 71.5921 47.1529 71.5938 47.2914 71.5974C47.4299 71.601 47.5347 71.6063 47.6057 71.6134V72.8918C47.5631 72.8811 47.4654 72.8652 47.3127 72.8438C47.1636 72.819 47.0055 72.8066 46.8386 72.8066C46.4409 72.8066 46.0858 72.89 45.7733 73.0569C45.4643 73.2203 45.2193 73.4475 45.0382 73.7387C44.8606 74.0264 44.7719 74.3549 44.7719 74.7242V79.9017H43.5148ZM49.0958 79.9017V71.7199H50.3529V79.9017H49.0958ZM49.735 70.3563C49.49 70.3563 49.2787 70.2728 49.1011 70.1059C48.9271 69.939 48.8401 69.7384 48.8401 69.504C48.8401 69.2696 48.9271 69.069 49.1011 68.9021C49.2787 68.7352 49.49 68.6517 49.735 68.6517C49.9801 68.6517 50.1896 68.7352 50.3636 68.9021C50.5411 69.069 50.6299 69.2696 50.6299 69.504C50.6299 69.7384 50.5411 69.939 50.3636 70.1059C50.1896 70.2728 49.9801 70.3563 49.735 70.3563ZM56.0858 80.0722C55.2974 80.0722 54.6174 79.8982 54.0457 79.5502C53.4775 79.1986 53.0389 78.7086 52.73 78.08C52.4246 77.4479 52.2719 76.7128 52.2719 75.8747C52.2719 75.0367 52.4246 74.298 52.73 73.6588C53.0389 73.0161 53.4686 72.5154 54.019 72.1567C54.573 71.7945 55.2193 71.6134 55.9579 71.6134C56.3841 71.6134 56.8049 71.6844 57.2204 71.8264C57.6359 71.9685 58.0141 72.1993 58.355 72.5189C58.6959 72.835 58.9675 73.254 59.17 73.776C59.3724 74.298 59.4736 74.9408 59.4736 75.7043V76.237H53.1668V75.1503H58.1952C58.1952 74.6887 58.1028 74.2767 57.9182 73.9145C57.7371 73.5523 57.4778 73.2664 57.1405 73.0569C56.8067 72.8474 56.4125 72.7426 55.9579 72.7426C55.4572 72.7426 55.024 72.8669 54.6582 73.1155C54.296 73.3605 54.0173 73.6801 53.8219 74.0743C53.6266 74.4685 53.529 74.8911 53.529 75.3421V76.0665C53.529 76.6844 53.6355 77.2082 53.8486 77.6379C54.0652 78.064 54.3653 78.3889 54.7488 78.6127C55.1323 78.8328 55.578 78.9429 56.0858 78.9429C56.416 78.9429 56.7143 78.8968 56.9807 78.8044C57.2506 78.7086 57.4832 78.5665 57.6785 78.3783C57.8738 78.1865 58.0247 77.9486 58.1312 77.6645L59.3457 78.0054C59.2179 78.4174 59.003 78.7796 58.7012 79.0921C58.3994 79.401 58.0265 79.6425 57.5826 79.8165C57.1387 79.987 56.6398 80.0722 56.0858 80.0722ZM55.3187 70.612L56.6185 68.1404H58.0886L56.4267 70.612H55.3187ZM64.9441 71.7199V72.7853H60.704V71.7199H64.9441ZM61.9398 69.7597H63.1969V77.558C63.1969 77.9131 63.2484 78.1794 63.3514 78.357C63.4579 78.531 63.5929 78.6482 63.7562 78.7086C63.9231 78.7654 64.0989 78.7938 64.2836 78.7938C64.4221 78.7938 64.5357 78.7867 64.6245 78.7725C64.7133 78.7547 64.7843 78.7405 64.8376 78.7299L65.0932 79.8591C65.008 79.8911 64.8891 79.923 64.7364 79.955C64.5837 79.9905 64.3901 80.0083 64.1557 80.0083C63.8006 80.0083 63.4526 79.9319 63.1117 79.7792C62.7744 79.6265 62.4938 79.3939 62.2701 79.0814C62.0499 78.7689 61.9398 78.3747 61.9398 77.8989V69.7597ZM69.2427 80.0935C68.7243 80.0935 68.2538 79.9958 67.8312 79.8005C67.4086 79.6017 67.073 79.3158 66.8244 78.9429C66.5758 78.5665 66.4516 78.112 66.4516 77.5793C66.4516 77.1105 66.5439 76.7306 66.7285 76.4394C66.9132 76.1446 67.16 75.9138 67.469 75.7469C67.7779 75.58 68.1188 75.4557 68.4917 75.374C68.8681 75.2888 69.2463 75.2213 69.6263 75.1716C70.1234 75.1077 70.5265 75.0598 70.8354 75.0278C71.1479 74.9923 71.3752 74.9337 71.5173 74.852C71.6628 74.7703 71.7356 74.6283 71.7356 74.4259V74.3833C71.7356 73.8577 71.5918 73.4493 71.3042 73.1581C71.0201 72.8669 70.5886 72.7213 70.0098 72.7213C69.4097 72.7213 68.9391 72.8527 68.5982 73.1155C68.2573 73.3783 68.0176 73.6588 67.8791 73.9571L66.6859 73.531C66.899 73.0338 67.1831 72.6468 67.5382 72.3698C67.8969 72.0892 68.2875 71.8939 68.7101 71.7838C69.1362 71.6702 69.5552 71.6134 69.9672 71.6134C70.23 71.6134 70.5318 71.6453 70.8727 71.7093C71.2172 71.7696 71.5492 71.8957 71.8688 72.0875C72.192 72.2792 72.4601 72.5686 72.6731 72.9557C72.8862 73.3428 72.9927 73.8613 72.9927 74.5111V79.9017H71.7356V78.7938H71.6717C71.5865 78.9713 71.4445 79.1613 71.2456 79.3637C71.0467 79.5662 70.7822 79.7384 70.4519 79.8804C70.1217 80.0225 69.7186 80.0935 69.2427 80.0935ZM69.4345 78.9642C69.9317 78.9642 70.3507 78.8666 70.6916 78.6713C71.0361 78.476 71.2953 78.2238 71.4693 77.9149C71.6469 77.6059 71.7356 77.281 71.7356 76.9401V75.7895C71.6824 75.8534 71.5652 75.912 71.3841 75.9653C71.2065 76.015 71.0006 76.0594 70.7662 76.0985C70.5354 76.134 70.3099 76.1659 70.0897 76.1943C69.8731 76.2192 69.6973 76.2405 69.5624 76.2583C69.2356 76.3009 68.9302 76.3701 68.6462 76.466C68.3656 76.5583 68.1383 76.6986 67.9643 76.8868C67.7939 77.0715 67.7087 77.3236 67.7087 77.6432C67.7087 78.08 67.8702 78.4103 68.1934 78.634C68.5201 78.8541 68.9338 78.9642 69.4345 78.9642ZM75.2872 79.9017V71.7199H76.5443V79.9017H75.2872ZM75.9264 70.3563C75.6814 70.3563 75.4701 70.2728 75.2926 70.1059C75.1185 69.939 75.0315 69.7384 75.0315 69.504C75.0315 69.2696 75.1185 69.069 75.2926 68.9021C75.4701 68.7352 75.6814 68.6517 75.9264 68.6517C76.1715 68.6517 76.381 68.7352 76.555 68.9021C76.7325 69.069 76.8213 69.2696 76.8213 69.504C76.8213 69.7384 76.7325 69.939 76.555 70.1059C76.381 70.2728 76.1715 70.3563 75.9264 70.3563ZM78.8468 79.9017V71.7199H80.0613V72.9557H80.1465C80.2957 72.5509 80.5655 72.2224 80.9562 71.9703C81.3468 71.7181 81.7871 71.5921 82.2772 71.5921C82.3695 71.5921 82.4849 71.5938 82.6234 71.5974C82.7619 71.601 82.8667 71.6063 82.9377 71.6134V72.8918C82.8951 72.8811 82.7974 72.8652 82.6447 72.8438C82.4956 72.819 82.3376 72.8066 82.1707 72.8066C81.7729 72.8066 81.4178 72.89 81.1053 73.0569C80.7964 73.2203 80.5513 73.4475 80.3702 73.7387C80.1927 74.0264 80.1039 74.3549 80.1039 74.7242V79.9017H78.8468ZM87.6092 80.0722C86.8209 80.0722 86.1408 79.8982 85.5691 79.5502C85.0009 79.1986 84.5624 78.7086 84.2534 78.08C83.948 77.4479 83.7953 76.7128 83.7953 75.8747C83.7953 75.0367 83.948 74.298 84.2534 73.6588C84.5624 73.0161 84.992 72.5154 85.5425 72.1567C86.0964 71.7945 86.7427 71.6134 87.4814 71.6134C87.9075 71.6134 88.3283 71.6844 88.7438 71.8264C89.1593 71.9685 89.5375 72.1993 89.8784 72.5189C90.2193 72.835 90.491 73.254 90.6934 73.776C90.8958 74.298 90.997 74.9408 90.997 75.7043V76.237H84.6902V75.1503H89.7186C89.7186 74.6887 89.6263 74.2767 89.4416 73.9145C89.2605 73.5523 89.0013 73.2664 88.6639 73.0569C88.3301 72.8474 87.9359 72.7426 87.4814 72.7426C86.9807 72.7426 86.5474 72.8669 86.1817 73.1155C85.8195 73.3605 85.5407 73.6801 85.3454 74.0743C85.1501 74.4685 85.0524 74.8911 85.0524 75.3421V76.0665C85.0524 76.6844 85.1589 77.2082 85.372 77.6379C85.5886 78.064 85.8887 78.3889 86.2722 78.6127C86.6557 78.8328 87.1014 78.9429 87.6092 78.9429C87.9395 78.9429 88.2378 78.8968 88.5041 78.8044C88.774 78.7086 89.0066 78.5665 89.2019 78.3783C89.3972 78.1865 89.5481 77.9486 89.6547 77.6645L90.8692 78.0054C90.7413 78.4174 90.5265 78.7796 90.2246 79.0921C89.9228 79.401 89.5499 79.6425 89.106 79.8165C88.6621 79.987 88.1632 80.0722 87.6092 80.0722Z" fill="black"/>
<circle cx="50.2366" cy="107.495" r="3.78125" fill="#164194"/>
<rect x="0.5" y="0.5" width="98.3929" height="91.9107" rx="9.5" stroke="black"/>
<path d="M46.0994 31.9325C50.1274 31.9325 53.3927 28.6537 53.3927 24.6091C53.3927 20.5645 50.1274 17.2858 46.0994 17.2858C42.0714 17.2858 38.8061 20.5645 38.8061 24.6091C38.8061 28.6537 42.0714 31.9325 46.0994 31.9325Z" stroke="black" stroke-miterlimit="10"/>
<path d="M49.7452 26.4C41.7938 22.0286 37.015 32.123 40.8531 37.2431C41.1879 37.6893 39.8383 38.6525 39.1487 39.1027C38.9296 39.2459 38.8435 39.5252 38.9461 39.7669L39.8913 41.9903C39.9994 42.2446 39.8983 42.54 39.6566 42.6737L38.2435 43.456C38.0318 43.5731 37.9243 43.8178 37.9808 44.0539L38.4417 45.9789C38.5017 46.2306 38.3751 46.4899 38.1399 46.5964L36.7333 47.232C36.5051 47.335 36.378 47.5827 36.4276 47.8289L36.6833 49.1127C36.7398 49.3956 36.5642 49.6729 36.2849 49.7418L34.9804 50.0634C34.6556 50.1432 34.482 50.499 34.6181 50.8055L35.6579 53.1545C35.7555 53.3756 35.9882 53.5037 36.2264 53.4685L38.0704 53.1962C38.24 53.1711 38.3876 53.0661 38.4672 52.9138L45.3907 39.6855L46.8569 40.4242L48.5532 37.4797C50.0645 39.987 56.5646 30.1438 49.7442 26.4005L49.7452 26.4ZM46.4996 34.1027C44.8483 34.3595 43.4492 32.938 43.7189 31.2859C43.886 30.2639 44.7257 29.4353 45.7465 29.2861C47.3788 29.0474 48.7579 30.4377 48.5102 32.0783C48.3551 33.1048 47.5209 33.9439 46.4991 34.1032L46.4996 34.1027Z" fill="#F9C5AF"/>
<path d="M58.3251 31.8219L54.6602 26.0843C54.3855 25.6537 53.8215 25.517 53.3812 25.7738L45.0225 30.6431C44.5841 30.8984 44.422 31.4536 44.6532 31.9058L47.7927 38.0534C48.0429 38.5433 48.6524 38.7202 49.1243 38.4398L51.1314 37.248L52.1687 39.0744C52.4339 39.5412 53.0304 39.697 53.4883 39.4186L56.4656 37.6248L56.5167 37.5942C56.965 37.3248 57.1132 36.7425 56.8484 36.2903L55.7901 34.4794L58.0089 33.1599C58.4727 32.8841 58.6164 32.2776 58.3251 31.8219ZM48.7695 33.2534L47.4985 31.0978L52.6626 28.2288L53.8936 30.2638L48.7695 33.2534Z" fill="#164194"/>
<path d="M64.9118 52.9032L64.8888 53.878C64.8818 54.1819 64.7172 54.4598 64.455 54.6115L63.6799 55.0597C63.4197 55.2105 63.1004 55.2145 62.8357 55.0713L61.9099 54.5698C61.7628 54.49 61.6417 54.3694 61.5617 54.2221L53.4882 39.4191L56.4656 37.6254L64.8003 52.4555C64.8768 52.5922 64.9154 52.7464 64.9118 52.9032Z" fill="#49B170"/>
<path d="M62.705 54.3129L55.1644 40.3797C55.0053 40.0863 55.0919 39.7195 55.3651 39.5285C55.6794 39.309 56.1132 39.4069 56.3039 39.7401L64.3243 53.7552" stroke="black" stroke-miterlimit="10" stroke-linecap="round"/>
<path d="M46.0994 17.2858C50.1276 17.2858 53.3928 20.5648 53.3928 24.6091C53.3928 27.8394 51.3101 30.5814 48.4193 31.5546" stroke="black" stroke-miterlimit="10"/>
<path d="M37.0125 52.0335L43.6448 38.7474" stroke="black" stroke-miterlimit="10" stroke-linecap="round"/>
</svg>
