<svg width="189" height="40" viewBox="0 0 189 40" fill="none" xmlns="http://www.w3.org/2000/svg">
<g clip-path="url(#clip0_254_647)">
<path d="M187.49 12.3699C186.524 10.0388 185.127 7.91137 183.37 6.09998C183.271 7.55068 183.06 8.9916 182.74 10.41C182.49 10.49 175.25 14.1699 175.25 14.1699L168.61 12.54L165.97 4.53998L171.25 2.23993L174.25 0.669922C172.549 0.203319 170.794 -0.0353938 169.03 -0.0400391H137.03L141.97 5.70996L141.05 14.71L130.86 20.0099L123.09 10.35L121.9 0.00994873H47.93V2.00995L44.87 10.4399L34.78 10.1799L30.95 18.1799L24.31 14.29L14.87 6.36993L21.54 0.0299683H19.98C14.6757 0.0299683 9.5886 2.13709 5.83787 5.88782C2.08714 9.63855 -0.0200089 14.7256 -0.0200089 20.03C-0.0227223 22.6567 0.493575 25.258 1.49922 27.6846C2.50486 30.1112 3.98005 32.3152 5.84001 34.1699C7.69478 36.0299 9.89874 37.5051 12.3253 38.5107C14.7519 39.5164 17.3533 40.0327 19.98 40.03H54.13L60.63 33.4899L70.08 29.6099L73.93 32.7L83.67 33.2999L82.9 40.04H128.15L127.41 39.78L124.7 31.0699L130.7 28.45L140.03 34.27L142.54 40.04H168.99C174.294 40.04 179.381 37.9328 183.132 34.1821C186.883 30.4313 188.99 25.3443 188.99 20.04C188.999 17.4095 188.49 14.8031 187.49 12.3699ZM12.93 21.9299L7.13999 25.6L5.13999 20.6699L7.72001 15.48L13.4 14.39L12.93 21.9299ZM28.38 32.8799C28 33.7799 23.53 34.78 23.53 34.78L18.3 32.4999L23.53 27.2499H28.38C28.38 27.2499 28.74 31.9899 28.35 32.8799H28.38ZM57.81 26.23L49.64 34.0599L38.64 30.0599L37.43 20.7399L45.43 14.7399L61.53 12.1C61.53 12.1 65.85 17.33 65.73 18.23C65.61 19.13 57.78 26.23 57.78 26.23H57.81ZM74.81 11.23L70.38 5.99994L75 3.34998L80.49 5.20996L82.34 10.6799L74.81 11.23ZM109.89 38.7999L104.14 39.5699L100.06 35.48L106.57 31.65L112.85 34.3799L109.89 38.7999ZM111.64 8.72998L109.85 6.80994L111.64 4.12994L115.85 6.42993L111.64 8.72998ZM170.42 38.21L168.42 35.33L169.96 32.21L174.17 30.6699L175.81 34.4399L170.42 38.21ZM183.58 23.3699L152.83 35.7L142.51 23.09L152.83 10.5599L183.55 22.7599C183.602 22.797 183.644 22.8458 183.673 22.9023C183.702 22.9588 183.717 23.0214 183.717 23.085C183.717 23.1485 183.702 23.2111 183.673 23.2676C183.644 23.3241 183.602 23.3729 183.55 23.41L183.58 23.3699Z" fill="white"/>
<path d="M183.55 23.41L152.83 35.7L142.51 23.09L152.83 10.5599L183.55 22.7599C183.602 22.797 183.644 22.8458 183.673 22.9023C183.702 22.9588 183.717 23.0214 183.717 23.085C183.717 23.1485 183.702 23.2111 183.673 23.2676C183.644 23.3241 183.602 23.3729 183.55 23.41Z" fill="#121212"/>
<path d="M175.8 34.48L170.39 38.25L168.41 35.37L169.95 32.25L174.16 30.71L175.8 34.48Z" fill="#121212"/>
<path d="M115.82 6.47004L111.61 8.77004L109.82 6.85004L111.61 4.17004L115.82 6.47004Z" fill="#121212"/>
<path d="M142.55 40H128.16L127.42 39.74L124.71 31.03L130.71 28.41L140.04 34.23L142.55 40Z" fill="#121212"/>
<path d="M183.37 6.09998C183.271 7.55068 183.06 8.9916 182.74 10.41C182.49 10.49 175.25 14.1699 175.25 14.1699L168.61 12.54L165.97 4.53998L171.25 2.23993L174.25 0.669922C177.725 1.62179 180.877 3.49847 183.37 6.09998Z" fill="#121212"/>
<path d="M47.9499 0V2L44.8899 10.43L34.7999 10.17L30.9699 18.15L24.3299 14.26L14.8899 6.34L21.5599 0H47.9499Z" fill="#121212"/>
<path d="M65.6999 18.23C65.5699 19.12 57.7799 26.23 57.7799 26.23L49.6099 34.0599L38.6099 30.0599L37.3999 20.7399L45.3999 14.7399L61.4999 12.1C61.4999 12.1 65.8199 17.33 65.6999 18.23Z" fill="#121212"/>
<path d="M28.35 32.88C27.97 33.78 23.5 34.78 23.5 34.78L18.27 32.5L23.5 27.25H28.35C28.35 27.25 28.74 31.99 28.35 32.88Z" fill="#121212"/>
<path d="M83.6799 33.26L82.9099 40H54.1499L60.6499 33.46L70.0999 29.58L73.9399 32.66L83.6799 33.26Z" fill="#121212"/>
<path d="M112.82 34.4199L109.86 38.8399L104.11 39.6099L100.03 35.5199L106.54 31.6899L112.82 34.4199Z" fill="#121212"/>
<path d="M82.3101 10.72L74.7801 11.27L70.3501 6.04001L74.9701 3.39001L80.4601 5.25001L82.3101 10.72Z" fill="#121212"/>
<path d="M13.3801 14.39L12.9001 21.93L7.11012 25.6L5.12012 20.67L7.70012 15.48L13.3801 14.39Z" fill="#121212"/>
<path d="M141.9 5.75L140.98 14.7L130.79 20L123.02 10.34L121.83 0H136.96L141.9 5.75Z" fill="#121212"/>
<path d="M75.6719 17.4929C75.6188 17.0223 75.4001 16.6577 75.0156 16.3991C74.6312 16.1373 74.1473 16.0064 73.5639 16.0064C73.1463 16.0064 72.785 16.0727 72.4801 16.2053C72.1752 16.3345 71.9382 16.5135 71.7692 16.7422C71.6035 16.9676 71.5206 17.2244 71.5206 17.5128C71.5206 17.7547 71.5769 17.9635 71.6896 18.1392C71.8056 18.3149 71.9564 18.4624 72.142 18.5817C72.331 18.6977 72.5331 18.7955 72.7486 18.875C72.964 18.9512 73.1712 19.0142 73.37 19.0639L74.3643 19.3224C74.6892 19.402 75.0223 19.5097 75.3636 19.6456C75.705 19.7815 76.0215 19.9605 76.3132 20.1825C76.6049 20.4046 76.8402 20.6797 77.0192 21.0078C77.2015 21.3359 77.2926 21.7287 77.2926 22.1861C77.2926 22.7628 77.1435 23.2749 76.8452 23.7223C76.5502 24.1697 76.121 24.5227 75.5575 24.7812C74.9974 25.0398 74.3196 25.169 73.5241 25.169C72.7618 25.169 72.1023 25.0481 71.5455 24.8061C70.9886 24.5642 70.5528 24.2211 70.2379 23.777C69.9231 23.3295 69.7491 22.7992 69.7159 22.1861H71.2571C71.2869 22.554 71.4063 22.8606 71.6151 23.1058C71.8272 23.3478 72.0973 23.5284 72.4254 23.6477C72.7569 23.7637 73.1198 23.8217 73.5142 23.8217C73.9484 23.8217 74.3345 23.7538 74.6726 23.6179C75.014 23.4787 75.2824 23.2865 75.478 23.0412C75.6735 22.7926 75.7713 22.5026 75.7713 22.1712C75.7713 21.8696 75.6851 21.6226 75.5128 21.4304C75.3438 21.2382 75.1134 21.0791 74.8217 20.9531C74.5334 20.8272 74.2069 20.7161 73.8423 20.62L72.6392 20.2919C71.8239 20.0698 71.1776 19.7434 70.7003 19.3125C70.2263 18.8816 69.9893 18.3116 69.9893 17.6023C69.9893 17.0156 70.1484 16.5036 70.4666 16.0661C70.7848 15.6286 71.2157 15.2888 71.7592 15.0469C72.3028 14.8016 72.916 14.679 73.5987 14.679C74.2881 14.679 74.8963 14.8 75.4233 15.0419C75.9536 15.2839 76.3712 15.617 76.6761 16.0412C76.9811 16.4621 77.1402 16.946 77.1534 17.4929H75.6719ZM83.8464 21.8331V17.3636H85.3379V25H83.8762V23.6776H83.7967C83.621 24.0852 83.3393 24.425 82.9515 24.6967C82.5671 24.9652 82.0881 25.0994 81.5147 25.0994C81.0242 25.0994 80.59 24.9917 80.2122 24.7763C79.8377 24.5575 79.5427 24.2344 79.3272 23.8068C79.1151 23.3793 79.0091 22.8506 79.0091 22.2209V17.3636H80.4956V22.0419C80.4956 22.5623 80.6397 22.9766 80.9281 23.2848C81.2164 23.593 81.591 23.7472 82.0517 23.7472C82.3301 23.7472 82.6068 23.6776 82.8819 23.5384C83.1603 23.3991 83.3907 23.1887 83.573 22.907C83.7586 22.6252 83.8497 22.2673 83.8464 21.8331ZM87.3352 25V17.3636H88.8217V25H87.3352ZM88.0859 16.1854C87.8274 16.1854 87.6054 16.0992 87.4197 15.9268C87.2375 15.7512 87.1463 15.5424 87.1463 15.3004C87.1463 15.0552 87.2375 14.8464 87.4197 14.674C87.6054 14.4983 87.8274 14.4105 88.0859 14.4105C88.3445 14.4105 88.5649 14.4983 88.7472 14.674C88.9328 14.8464 89.0256 15.0552 89.0256 15.3004C89.0256 15.5424 88.9328 15.7512 88.7472 15.9268C88.5649 16.0992 88.3445 16.1854 88.0859 16.1854ZM97.3542 17.3636L94.585 25H92.9941L90.22 17.3636H91.8159L93.7498 23.2401H93.8294L95.7583 17.3636H97.3542ZM100.755 25.169C100.271 25.169 99.8334 25.0795 99.4423 24.9006C99.0512 24.7183 98.7413 24.4548 98.5126 24.1101C98.2872 23.7654 98.1745 23.3428 98.1745 22.8423C98.1745 22.4115 98.2574 22.0568 98.4231 21.7784C98.5888 21.5 98.8126 21.2796 99.0943 21.1172C99.376 20.9548 99.6909 20.8321 100.039 20.7493C100.387 20.6664 100.742 20.6035 101.103 20.5604C101.56 20.5073 101.931 20.4643 102.216 20.4311C102.501 20.3946 102.709 20.3366 102.838 20.2571C102.967 20.1776 103.032 20.0483 103.032 19.8693V19.8345C103.032 19.4003 102.909 19.0639 102.664 18.8253C102.422 18.5866 102.061 18.4673 101.58 18.4673C101.08 18.4673 100.685 18.5784 100.397 18.8004C100.112 19.0192 99.9146 19.2628 99.8052 19.5312L98.4082 19.2131C98.5739 18.7491 98.8159 18.3745 99.1341 18.0895C99.4556 17.8011 99.8251 17.5923 100.243 17.4631C100.66 17.3305 101.099 17.2642 101.56 17.2642C101.865 17.2642 102.188 17.3007 102.53 17.3736C102.874 17.4432 103.196 17.5724 103.494 17.7614C103.796 17.9503 104.043 18.2204 104.235 18.5717C104.427 18.9197 104.523 19.3722 104.523 19.929V25H103.072V23.956H103.012C102.916 24.1482 102.772 24.3371 102.579 24.5227C102.387 24.7083 102.14 24.8625 101.839 24.9851C101.537 25.1077 101.176 25.169 100.755 25.169ZM101.078 23.9759C101.489 23.9759 101.84 23.8946 102.132 23.7322C102.427 23.5698 102.651 23.3577 102.803 23.0959C102.959 22.8307 103.037 22.5473 103.037 22.2457V21.2614C102.984 21.3144 102.881 21.3641 102.729 21.4105C102.579 21.4536 102.409 21.4917 102.216 21.5249C102.024 21.5547 101.837 21.5829 101.655 21.6094C101.472 21.6326 101.32 21.6525 101.197 21.669C100.909 21.7055 100.645 21.7668 100.407 21.853C100.171 21.9392 99.9825 22.0634 99.84 22.2259C99.7008 22.3849 99.6312 22.5971 99.6312 22.8622C99.6312 23.2301 99.7671 23.5085 100.039 23.6974C100.311 23.883 100.657 23.9759 101.078 23.9759ZM107.99 20.4659V25H106.503V17.3636H107.93V18.6065H108.025C108.2 18.2022 108.475 17.8774 108.85 17.6321C109.228 17.3868 109.703 17.2642 110.277 17.2642C110.797 17.2642 111.253 17.3736 111.644 17.5923C112.035 17.8078 112.338 18.1293 112.554 18.5568C112.769 18.9844 112.877 19.513 112.877 20.1428V25H111.39V20.3217C111.39 19.7682 111.246 19.3357 110.958 19.0241C110.669 18.7093 110.273 18.5518 109.77 18.5518C109.425 18.5518 109.118 18.6264 108.85 18.7756C108.585 18.9247 108.374 19.1435 108.218 19.4318C108.066 19.7169 107.99 20.0616 107.99 20.4659ZM118.435 17.3636V18.5568H114.264V17.3636H118.435ZM115.382 15.5341H116.869V22.7578C116.869 23.0462 116.912 23.2633 116.998 23.4091C117.084 23.5516 117.195 23.6494 117.331 23.7024C117.471 23.7521 117.621 23.777 117.784 23.777C117.903 23.777 118.007 23.7687 118.097 23.7521C118.186 23.7356 118.256 23.7223 118.306 23.7124L118.574 24.9403C118.488 24.9735 118.365 25.0066 118.206 25.0398C118.047 25.0762 117.848 25.0961 117.61 25.0994C117.219 25.1061 116.854 25.0365 116.516 24.8906C116.178 24.7448 115.904 24.5194 115.696 24.2145C115.487 23.9096 115.382 23.5268 115.382 23.0661V15.5341Z" fill="#121212"/>
</g>
<defs>
<clipPath id="clip0_254_647">
<rect width="189" height="40" fill="white"/>
</clipPath>
</defs>
</svg>
