<svg width="275" height="50" viewBox="0 0 275 50" fill="none" xmlns="http://www.w3.org/2000/svg">
<g clip-path="url(#clip0_90_243)">
<path d="M269.33 28.75L264.64 22.75L264.18 15.75L257.77 14.84L254.38 6.70996L260.99 2.46997C257.567 0.790931 253.803 -0.0781208 249.99 -0.0700121H227.25L227.61 0.14001C227.61 0.14001 226.84 8.13995 226.61 8.26995C226.38 8.39995 219.12 12.03 219.12 12.03L212.48 10.4L209.86 2.54998L215.14 0.249995L215.55 0.0399732H194.64L196.09 4.84997L188.71 13.65L177.86 7.67999L173.58 -4.81308e-06H85.91L85.33 3.89996L75.41 5.69L73.27 14.28L65.98 11.81L55.13 5.96997L59.28 -0.0300341H25C18.3696 -0.0300341 12.0107 2.60388 7.32234 7.29229C2.63393 11.9807 3.77693e-06 18.3396 3.77693e-06 24.97C-0.0015813 27.8536 0.495754 30.7159 1.47001 33.43C2.41192 36.051 3.78776 38.4951 5.54 40.66L14.63 31.5H36.43L33.43 49.88L33.28 49.97H86.18L93.91 42.19L103.35 38.31L107.2 41.39L116.93 41.99L116.12 49.18L115.86 49.97H249.96C255.782 49.9695 261.42 47.9375 265.904 44.2242C270.388 40.511 273.435 35.3495 274.52 29.63L269.33 28.75ZM15.14 18.27L9.86 16L9.11 10L16.43 4.34997L21.87 5.05999L23.5 11.21L15.14 18.27ZM38.41 12.81L36.41 9.92999L37.94 6.80999L42.15 5.26995L43.79 9.03997L38.41 12.81ZM70.48 45.68C70.09 46.57 65.63 47.57 65.63 47.57L60.39 45.29L65.63 40.04H70.48C70.48 40.04 70.86 44.78 70.48 45.68ZM113.38 9.82L108.95 4.54998L113.57 1.89996L119.06 3.76L120.91 9.22998L113.38 9.82ZM144.21 47.12L138.47 47.88L134.38 43.8L140.86 39.97L147.15 42.69L144.21 47.12ZM153.92 6.70001L152.14 4.78997L153.92 2.09997L158.14 4.39996L153.92 6.70001ZM170.73 46.7L163.31 44.1L160.6 35.39L166.6 32.77L175.92 38.59L179.7 47.25L170.73 46.7ZM208.11 48.7L206.11 45.83L207.64 42.7L211.86 41.17L213.49 44.94L208.11 48.7ZM237.41 9.42999L239.2 6.75L243.41 9.04998L239.2 11.35L237.41 9.42999ZM268.06 31.43L251.45 49.17L240.64 44L243.59 32.44L267.86 30.94C267.912 30.9426 267.962 30.9598 268.005 30.9894C268.048 31.0191 268.082 31.0602 268.103 31.108C268.123 31.1558 268.13 31.2085 268.123 31.2601C268.115 31.3117 268.094 31.3601 268.06 31.4V31.43Z" fill="#121212"/>
<path d="M36.43 31.55L33.43 49.9301L33.28 50.02H24.96C21.227 50.0195 17.5416 49.1831 14.1741 47.572C10.8067 45.961 7.84281 43.6163 5.5 40.71L14.59 31.55H36.43Z" fill="white"/>
<path d="M23.4896 11.26L15.1396 18.27L9.84961 16L9.09961 10.05L16.4196 4.40002L21.8596 5.11002L23.4896 11.26Z" fill="white"/>
<path d="M268.06 31.4L251.45 49.1401L240.64 43.97L243.59 32.41L267.86 30.9401C267.912 30.9427 267.962 30.9598 268.005 30.9895C268.048 31.0192 268.081 31.0602 268.102 31.108C268.123 31.1558 268.13 31.2085 268.123 31.2601C268.115 31.3117 268.093 31.3601 268.06 31.4Z" fill="white"/>
<path d="M213.51 44.93L208.11 48.69L206.13 45.82L207.66 42.69L211.88 41.16L213.51 44.93Z" fill="white"/>
<path d="M43.8097 9.04002L38.4097 12.81L36.4297 9.93002L37.9597 6.81002L42.1697 5.27002L43.8097 9.04002Z" fill="white"/>
<path d="M275 25C274.996 26.5635 274.849 28.1234 274.56 29.66L269.33 28.75L264.64 22.75L264.18 15.75L257.77 14.84L254.38 6.70996L260.99 2.46997C265.204 4.53241 268.753 7.73903 271.23 11.7232C273.708 15.7074 275.014 20.3084 275 25Z" fill="white"/>
<path d="M243.41 9.03999L239.2 11.34L237.41 9.41999L239.2 6.73999L243.41 9.03999Z" fill="white"/>
<path d="M158.14 4.39998L153.92 6.69998L152.14 4.78998L153.92 2.09998L158.14 4.39998Z" fill="white"/>
<path d="M179.7 47.28L170.73 46.73L163.31 44.1301L160.6 35.42L166.6 32.8L175.92 38.62L179.7 47.28Z" fill="white"/>
<path d="M227.61 0.210022C227.61 0.210022 226.84 8.21003 226.61 8.34003C226.38 8.47003 219.12 12.1 219.12 12.1L212.48 10.47L209.86 2.55005L215.14 0.250061L215.55 0.0400391H227.29L227.61 0.210022Z" fill="white"/>
<path d="M85.9099 0L85.3299 3.9L75.4099 5.69L73.2699 14.28L65.9799 11.81L55.1299 5.97L59.2799 0H85.9099Z" fill="white"/>
<path d="M70.4796 45.6801C70.0896 46.5701 65.6296 47.5701 65.6296 47.5701L60.3896 45.29L65.6296 40.04H70.4796C70.4796 40.04 70.8596 44.7801 70.4796 45.6801Z" fill="white"/>
<path d="M116.97 42.02L116.16 49.21L115.9 50H86.2197L93.9497 42.22L103.39 38.34L107.24 41.42L116.97 42.02Z" fill="white"/>
<path d="M147.18 42.69L144.21 47.12L138.47 47.88L134.38 43.8L140.89 39.97L147.18 42.69Z" fill="white"/>
<path d="M120.91 9.26994L113.38 9.81994L108.95 4.58994L113.57 1.93994L119.06 3.79994L120.91 9.26994Z" fill="white"/>
<path d="M196.09 4.81L188.71 13.61L177.83 7.68L173.55 0H194.64L196.09 4.81Z" fill="white"/>
<path d="M31.1449 27V17.5455H32.2898V25.9844H36.6847V27H31.1449ZM38.3097 27V19.9091H39.3991V27H38.3097ZM38.8636 18.7273C38.6513 18.7273 38.4682 18.6549 38.3143 18.5103C38.1635 18.3656 38.0881 18.1918 38.0881 17.9886C38.0881 17.7855 38.1635 17.6116 38.3143 17.467C38.4682 17.3223 38.6513 17.25 38.8636 17.25C39.076 17.25 39.2576 17.3223 39.4084 17.467C39.5623 17.6116 39.6392 17.7855 39.6392 17.9886C39.6392 18.1918 39.5623 18.3656 39.4084 18.5103C39.2576 18.6549 39.076 18.7273 38.8636 18.7273ZM41.3946 27V19.9091H42.4472V20.9801H42.521C42.6503 20.6293 42.8842 20.3446 43.2227 20.1261C43.5613 19.9076 43.9429 19.7983 44.3676 19.7983C44.4477 19.7983 44.5477 19.7998 44.6677 19.8029C44.7877 19.806 44.8785 19.8106 44.9401 19.8168V20.9247C44.9031 20.9155 44.8185 20.9016 44.6862 20.8832C44.5569 20.8616 44.42 20.8509 44.2753 20.8509C43.9306 20.8509 43.6228 20.9232 43.352 21.0678C43.0843 21.2094 42.8719 21.4064 42.7149 21.6587C42.5611 21.908 42.4841 22.1927 42.4841 22.5128V27H41.3946ZM48.9887 27.1477C48.3055 27.1477 47.7161 26.9969 47.2206 26.6953C46.7282 26.3906 46.3481 25.9659 46.0803 25.4212C45.8157 24.8733 45.6833 24.2363 45.6833 23.5099C45.6833 22.7836 45.8157 22.1435 46.0803 21.5895C46.3481 21.0324 46.7205 20.5985 47.1975 20.2876C47.6776 19.9737 48.2378 19.8168 48.8779 19.8168C49.2472 19.8168 49.6119 19.8783 49.972 20.0014C50.3321 20.1245 50.6599 20.3246 50.9553 20.6016C51.2508 20.8755 51.4862 21.2386 51.6617 21.6911C51.8371 22.1435 51.9248 22.7005 51.9248 23.3622V23.8239H46.4589V22.8821H50.8169C50.8169 22.482 50.7368 22.125 50.5768 21.8111C50.4198 21.4972 50.1952 21.2494 49.9028 21.0678C49.6135 20.8862 49.2719 20.7955 48.8779 20.7955C48.444 20.7955 48.0685 20.9032 47.7515 21.1186C47.4376 21.331 47.196 21.608 47.0267 21.9496C46.8575 22.2912 46.7728 22.6574 46.7728 23.0483V23.6761C46.7728 24.2116 46.8651 24.6656 47.0498 25.038C47.2375 25.4073 47.4976 25.6889 47.83 25.8828C48.1624 26.0736 48.5486 26.169 48.9887 26.169C49.2749 26.169 49.5335 26.129 49.7643 26.049C49.9982 25.9659 50.1998 25.8428 50.3691 25.6797C50.5383 25.5135 50.6691 25.3073 50.7615 25.0611L51.814 25.3565C51.7032 25.7135 51.517 26.0275 51.2554 26.2983C50.9938 26.5661 50.6707 26.7753 50.286 26.9261C49.9012 27.0739 49.4688 27.1477 48.9887 27.1477ZM58.3279 17.5455V27H57.2384V17.5455H58.3279ZM63.2963 27.1477C62.6131 27.1477 62.0237 26.9969 61.5282 26.6953C61.0358 26.3906 60.6557 25.9659 60.388 25.4212C60.1233 24.8733 59.9909 24.2363 59.9909 23.5099C59.9909 22.7836 60.1233 22.1435 60.388 21.5895C60.6557 21.0324 61.0281 20.5985 61.5051 20.2876C61.9853 19.9737 62.5454 19.8168 63.1855 19.8168C63.5549 19.8168 63.9196 19.8783 64.2797 20.0014C64.6397 20.1245 64.9675 20.3246 65.263 20.6016C65.5584 20.8755 65.7939 21.2386 65.9693 21.6911C66.1447 22.1435 66.2324 22.7005 66.2324 23.3622V23.8239H60.7665V22.8821H65.1245C65.1245 22.482 65.0444 22.125 64.8844 21.8111C64.7275 21.4972 64.5028 21.2494 64.2104 21.0678C63.9211 20.8862 63.5795 20.7955 63.1855 20.7955C62.7516 20.7955 62.3761 20.9032 62.0591 21.1186C61.7452 21.331 61.5036 21.608 61.3343 21.9496C61.1651 22.2912 61.0804 22.6574 61.0804 23.0483V23.6761C61.0804 24.2116 61.1728 24.6656 61.3574 25.038C61.5452 25.4073 61.8052 25.6889 62.1376 25.8828C62.47 26.0736 62.8562 26.169 63.2963 26.169C63.5826 26.169 63.8411 26.129 64.0719 26.049C64.3058 25.9659 64.5074 25.8428 64.6767 25.6797C64.8459 25.5135 64.9767 25.3073 65.0691 25.0611L66.1216 25.3565C66.0108 25.7135 65.8246 26.0275 65.563 26.2983C65.3014 26.5661 64.9783 26.7753 64.5936 26.9261C64.2089 27.0739 63.7765 27.1477 63.2963 27.1477ZM74.4082 29.8068C73.8819 29.8068 73.4295 29.7391 73.051 29.6037C72.6724 29.4714 72.3569 29.2959 72.1046 29.0774C71.8553 28.862 71.6568 28.6312 71.5091 28.3849L72.377 27.7756C72.4754 27.9048 72.6001 28.0526 72.7509 28.2188C72.9017 28.388 73.1079 28.5342 73.3695 28.6573C73.6342 28.7835 73.9804 28.8466 74.4082 28.8466C74.9806 28.8466 75.4531 28.7081 75.8255 28.4311C76.1979 28.1541 76.3841 27.7202 76.3841 27.1293V25.6889H76.2917C76.2117 25.8182 76.0978 25.9782 75.9501 26.169C75.8055 26.3568 75.5962 26.5245 75.3223 26.6722C75.0514 26.8169 74.6852 26.8892 74.2235 26.8892C73.6511 26.8892 73.1371 26.7538 72.6816 26.483C72.2292 26.2121 71.8707 25.8182 71.606 25.3011C71.3444 24.7841 71.2136 24.1562 71.2136 23.4176C71.2136 22.6913 71.3413 22.0588 71.5968 21.5202C71.8522 20.9786 72.2077 20.56 72.6632 20.2646C73.1187 19.966 73.6449 19.8168 74.242 19.8168C74.7037 19.8168 75.0699 19.8937 75.3407 20.0476C75.6146 20.1984 75.8239 20.3707 75.9686 20.5646C76.1163 20.7554 76.2302 20.9124 76.3102 21.0355H76.421V19.9091H77.4735V27.2031C77.4735 27.8125 77.3351 28.308 77.0581 28.6896C76.7842 29.0743 76.4148 29.3559 75.9501 29.5344C75.4885 29.716 74.9745 29.8068 74.4082 29.8068ZM74.3713 25.9105C74.8083 25.9105 75.1776 25.8105 75.4792 25.6104C75.7808 25.4104 76.0101 25.1226 76.1671 24.7472C76.324 24.3717 76.4025 23.9223 76.4025 23.3991C76.4025 22.8883 76.3256 22.4374 76.1717 22.0465C76.0178 21.6557 75.7901 21.3494 75.4885 21.1278C75.1868 20.9062 74.8145 20.7955 74.3713 20.7955C73.9096 20.7955 73.5249 20.9124 73.2172 21.1463C72.9125 21.3802 72.6832 21.6941 72.5293 22.0881C72.3785 22.482 72.3031 22.919 72.3031 23.3991C72.3031 23.8916 72.38 24.3271 72.5339 24.7056C72.6909 25.0811 72.9217 25.3765 73.2264 25.592C73.5342 25.8043 73.9158 25.9105 74.3713 25.9105ZM83.9366 24.1009V19.9091H85.0261V27H83.9366V25.7997H83.8627C83.6966 26.1598 83.438 26.466 83.0872 26.7184C82.7363 26.9677 82.2931 27.0923 81.7576 27.0923C81.3145 27.0923 80.9205 26.9954 80.5758 26.8015C80.2311 26.6045 79.9603 26.3091 79.7633 25.9151C79.5663 25.5181 79.4679 25.018 79.4679 24.4148V19.9091H80.5574V24.3409C80.5574 24.858 80.702 25.2704 80.9913 25.5781C81.2837 25.8859 81.6561 26.0398 82.1085 26.0398C82.3793 26.0398 82.6548 25.9705 82.9348 25.832C83.218 25.6935 83.455 25.4812 83.6458 25.195C83.8397 24.9087 83.9366 24.544 83.9366 24.1009ZM87.0216 27V19.9091H88.1111V27H87.0216ZM87.5756 18.7273C87.3632 18.7273 87.1801 18.6549 87.0262 18.5103C86.8754 18.3656 86.8 18.1918 86.8 17.9886C86.8 17.7855 86.8754 17.6116 87.0262 17.467C87.1801 17.3223 87.3632 17.25 87.5756 17.25C87.7879 17.25 87.9695 17.3223 88.1203 17.467C88.2742 17.6116 88.3511 17.7855 88.3511 17.9886C88.3511 18.1918 88.2742 18.3656 88.1203 18.5103C87.9695 18.6549 87.7879 18.7273 87.5756 18.7273ZM92.7841 27.1477C92.1932 27.1477 91.6715 26.9985 91.2191 26.6999C90.7667 26.3983 90.4128 25.9736 90.1573 25.4258C89.9019 24.8749 89.7741 24.224 89.7741 23.473C89.7741 22.7282 89.9019 22.0819 90.1573 21.5341C90.4128 20.9863 90.7682 20.5631 91.2237 20.2646C91.6792 19.966 92.2055 19.8168 92.8026 19.8168C93.2642 19.8168 93.6289 19.8937 93.8967 20.0476C94.1675 20.1984 94.3737 20.3707 94.5153 20.5646C94.6599 20.7554 94.7723 20.9124 94.8523 21.0355H94.9446V17.5455H96.0341V27H94.9815V25.9105H94.8523C94.7723 26.0398 94.6584 26.2029 94.5107 26.3999C94.3629 26.5937 94.1521 26.7676 93.8782 26.9215C93.6043 27.0723 93.2396 27.1477 92.7841 27.1477ZM92.9318 26.169C93.3688 26.169 93.7382 26.0552 94.0398 25.8274C94.3414 25.5966 94.5707 25.2781 94.7276 24.8718C94.8846 24.4625 94.9631 23.9901 94.9631 23.4545C94.9631 22.9252 94.8861 22.462 94.7322 22.065C94.5784 21.6649 94.3506 21.354 94.049 21.1325C93.7474 20.9078 93.375 20.7955 92.9318 20.7955C92.4702 20.7955 92.0855 20.9139 91.7777 21.1509C91.473 21.3848 91.2437 21.7034 91.0898 22.1065C90.939 22.5066 90.8636 22.956 90.8636 23.4545C90.8636 23.9593 90.9406 24.4179 91.0945 24.8303C91.2514 25.2396 91.4822 25.5658 91.7869 25.8089C92.0947 26.049 92.4763 26.169 92.9318 26.169ZM101.154 27.1477C100.471 27.1477 99.8812 26.9969 99.3857 26.6953C98.8932 26.3906 98.5131 25.9659 98.2454 25.4212C97.9807 24.8733 97.8484 24.2363 97.8484 23.5099C97.8484 22.7836 97.9807 22.1435 98.2454 21.5895C98.5131 21.0324 98.8855 20.5985 99.3626 20.2876C99.8427 19.9737 100.403 19.8168 101.043 19.8168C101.412 19.8168 101.777 19.8783 102.137 20.0014C102.497 20.1245 102.825 20.3246 103.12 20.6016C103.416 20.8755 103.651 21.2386 103.827 21.6911C104.002 22.1435 104.09 22.7005 104.09 23.3622V23.8239H98.6239V22.8821H102.982C102.982 22.482 102.902 22.125 102.742 21.8111C102.585 21.4972 102.36 21.2494 102.068 21.0678C101.779 20.8862 101.437 20.7955 101.043 20.7955C100.609 20.7955 100.234 20.9032 99.9165 21.1186C99.6026 21.331 99.361 21.608 99.1918 21.9496C99.0225 22.2912 98.9379 22.6574 98.9379 23.0483V23.6761C98.9379 24.2116 99.0302 24.6656 99.2148 25.038C99.4026 25.4073 99.6626 25.6889 99.995 25.8828C100.327 26.0736 100.714 26.169 101.154 26.169C101.44 26.169 101.699 26.129 101.929 26.049C102.163 25.9659 102.365 25.8428 102.534 25.6797C102.703 25.5135 102.834 25.3073 102.926 25.0611L103.979 25.3565C103.868 25.7135 103.682 26.0275 103.42 26.2983C103.159 26.5661 102.836 26.7753 102.451 26.9261C102.066 27.0739 101.634 27.1477 101.154 27.1477ZM112.081 27.1477C111.49 27.1477 110.968 26.9985 110.516 26.6999C110.064 26.3983 109.71 25.9736 109.454 25.4258C109.199 24.8749 109.071 24.224 109.071 23.473C109.071 22.7282 109.199 22.0819 109.454 21.5341C109.71 20.9863 110.065 20.5631 110.521 20.2646C110.976 19.966 111.502 19.8168 112.099 19.8168C112.561 19.8168 112.926 19.8937 113.194 20.0476C113.464 20.1984 113.671 20.3707 113.812 20.5646C113.957 20.7554 114.069 20.9124 114.149 21.0355H114.241V17.5455H115.331V27H114.278V25.9105H114.149C114.069 26.0398 113.955 26.2029 113.808 26.3999C113.66 26.5937 113.449 26.7676 113.175 26.9215C112.901 27.0723 112.536 27.1477 112.081 27.1477ZM112.229 26.169C112.666 26.169 113.035 26.0552 113.337 25.8274C113.638 25.5966 113.868 25.2781 114.025 24.8718C114.181 24.4625 114.26 23.9901 114.26 23.4545C114.26 22.9252 114.183 22.462 114.029 22.065C113.875 21.6649 113.647 21.354 113.346 21.1325C113.044 20.9078 112.672 20.7955 112.229 20.7955C111.767 20.7955 111.382 20.9139 111.075 21.1509C110.77 21.3848 110.541 21.7034 110.387 22.1065C110.236 22.5066 110.161 22.956 110.161 23.4545C110.161 23.9593 110.237 24.4179 110.391 24.8303C110.548 25.2396 110.779 25.5658 111.084 25.8089C111.392 26.049 111.773 26.169 112.229 26.169ZM121.946 24.1009V19.9091H123.036V27H121.946V25.7997H121.873C121.706 26.1598 121.448 26.466 121.097 26.7184C120.746 26.9677 120.303 27.0923 119.767 27.0923C119.324 27.0923 118.93 26.9954 118.586 26.8015C118.241 26.6045 117.97 26.3091 117.773 25.9151C117.576 25.5181 117.478 25.018 117.478 24.4148V19.9091H118.567V24.3409C118.567 24.858 118.712 25.2704 119.001 25.5781C119.293 25.8859 119.666 26.0398 120.118 26.0398C120.389 26.0398 120.665 25.9705 120.945 25.832C121.228 25.6935 121.465 25.4812 121.656 25.195C121.849 24.9087 121.946 24.544 121.946 24.1009ZM129.777 17.5455V27H128.688V17.5455H129.777ZM133.859 27.1662C133.41 27.1662 133.002 27.0816 132.636 26.9123C132.27 26.7399 131.979 26.4922 131.763 26.169C131.548 25.8428 131.44 25.4489 131.44 24.9872C131.44 24.581 131.52 24.2517 131.68 23.9993C131.84 23.7438 132.054 23.5438 132.322 23.3991C132.59 23.2545 132.885 23.1468 133.208 23.076C133.535 23.0021 133.862 22.9437 134.192 22.9006C134.622 22.8452 134.972 22.8036 135.24 22.7759C135.51 22.7451 135.707 22.6944 135.83 22.6236C135.957 22.5528 136.02 22.4297 136.02 22.2543V22.2173C136.02 21.7618 135.895 21.4079 135.646 21.1555C135.4 20.9032 135.026 20.777 134.524 20.777C134.004 20.777 133.596 20.8909 133.301 21.1186C133.005 21.3464 132.797 21.5895 132.677 21.848L131.643 21.4787C131.828 21.0478 132.074 20.7124 132.382 20.4723C132.693 20.2292 133.031 20.0599 133.398 19.9645C133.767 19.866 134.13 19.8168 134.487 19.8168C134.715 19.8168 134.976 19.8445 135.272 19.8999C135.57 19.9522 135.858 20.0614 136.135 20.2276C136.415 20.3938 136.648 20.6446 136.832 20.9801C137.017 21.3156 137.109 21.7649 137.109 22.3281V27H136.02V26.0398H135.964C135.89 26.1937 135.767 26.3583 135.595 26.5337C135.423 26.7092 135.193 26.8584 134.907 26.9815C134.621 27.1046 134.272 27.1662 133.859 27.1662ZM134.025 26.1875C134.456 26.1875 134.819 26.1029 135.115 25.9336C135.413 25.7643 135.638 25.5458 135.789 25.2781C135.943 25.0103 136.02 24.7287 136.02 24.4332V23.4361C135.974 23.4915 135.872 23.5423 135.715 23.5884C135.561 23.6315 135.383 23.67 135.18 23.7038C134.979 23.7346 134.784 23.7623 134.593 23.7869C134.405 23.8085 134.253 23.8269 134.136 23.8423C133.853 23.8793 133.588 23.9393 133.342 24.0224C133.099 24.1024 132.902 24.224 132.751 24.3871C132.604 24.5471 132.53 24.7656 132.53 25.0426C132.53 25.4212 132.67 25.7074 132.95 25.9013C133.233 26.0921 133.591 26.1875 134.025 26.1875ZM140.187 22.7344V27H139.098V19.9091H140.15V21.017H140.243C140.409 20.657 140.661 20.3677 141 20.1491C141.338 19.9276 141.775 19.8168 142.311 19.8168C142.791 19.8168 143.211 19.9152 143.571 20.1122C143.931 20.3061 144.211 20.6016 144.411 20.9986C144.611 21.3925 144.711 21.8911 144.711 22.4943V27H143.622V22.5682C143.622 22.0111 143.477 21.5772 143.188 21.2663C142.899 20.9524 142.502 20.7955 141.997 20.7955C141.649 20.7955 141.338 20.8709 141.064 21.0217C140.794 21.1725 140.58 21.3925 140.423 21.6818C140.266 21.9711 140.187 22.322 140.187 22.7344ZM149.583 27.1477C148.918 27.1477 148.346 26.9908 147.866 26.6768C147.385 26.3629 147.016 25.9305 146.758 25.3796C146.499 24.8287 146.37 24.1993 146.37 23.4915C146.37 22.7713 146.502 22.1358 146.767 21.5849C147.035 21.0309 147.407 20.5985 147.884 20.2876C148.364 19.9737 148.924 19.8168 149.564 19.8168C150.063 19.8168 150.512 19.9091 150.912 20.0938C151.313 20.2784 151.64 20.5369 151.896 20.8693C152.151 21.2017 152.31 21.5895 152.371 22.0327H151.282C151.199 21.7095 151.014 21.4233 150.728 21.174C150.445 20.9216 150.063 20.7955 149.583 20.7955C149.158 20.7955 148.786 20.9062 148.466 21.1278C148.149 21.3464 147.901 21.6557 147.722 22.0558C147.547 22.4528 147.459 22.919 147.459 23.4545C147.459 24.0024 147.546 24.4794 147.718 24.8857C147.893 25.2919 148.14 25.6074 148.456 25.832C148.777 26.0567 149.152 26.169 149.583 26.169C149.866 26.169 150.123 26.1198 150.354 26.0213C150.585 25.9228 150.78 25.7812 150.94 25.5966C151.1 25.4119 151.214 25.1903 151.282 24.9318H152.371C152.31 25.3504 152.157 25.7274 151.914 26.0629C151.674 26.3952 151.356 26.6599 150.959 26.8569C150.565 27.0508 150.106 27.1477 149.583 27.1477ZM156.937 27.1477C156.254 27.1477 155.664 26.9969 155.169 26.6953C154.676 26.3906 154.296 25.9659 154.029 25.4212C153.764 24.8733 153.632 24.2363 153.632 23.5099C153.632 22.7836 153.764 22.1435 154.029 21.5895C154.296 21.0324 154.669 20.5985 155.146 20.2876C155.626 19.9737 156.186 19.8168 156.826 19.8168C157.195 19.8168 157.56 19.8783 157.92 20.0014C158.28 20.1245 158.608 20.3246 158.904 20.6016C159.199 20.8755 159.434 21.2386 159.61 21.6911C159.785 22.1435 159.873 22.7005 159.873 23.3622V23.8239H154.407V22.8821H158.765C158.765 22.482 158.685 22.125 158.525 21.8111C158.368 21.4972 158.143 21.2494 157.851 21.0678C157.562 20.8862 157.22 20.7955 156.826 20.7955C156.392 20.7955 156.017 20.9032 155.7 21.1186C155.386 21.331 155.144 21.608 154.975 21.9496C154.806 22.2912 154.721 22.6574 154.721 23.0483V23.6761C154.721 24.2116 154.813 24.6656 154.998 25.038C155.186 25.4073 155.446 25.6889 155.778 25.8828C156.111 26.0736 156.497 26.169 156.937 26.169C157.223 26.169 157.482 26.129 157.713 26.049C157.946 25.9659 158.148 25.8428 158.317 25.6797C158.487 25.5135 158.617 25.3073 158.71 25.0611L159.762 25.3565C159.651 25.7135 159.465 26.0275 159.204 26.2983C158.942 26.5661 158.619 26.7753 158.234 26.9261C157.849 27.0739 157.417 27.1477 156.937 27.1477ZM165.999 24.1009V19.9091H167.089V27H165.999V25.7997H165.925C165.759 26.1598 165.501 26.466 165.15 26.7184C164.799 26.9677 164.356 27.0923 163.82 27.0923C163.377 27.0923 162.983 26.9954 162.638 26.8015C162.294 26.6045 162.023 26.3091 161.826 25.9151C161.629 25.5181 161.53 25.018 161.53 24.4148V19.9091H162.62V24.3409C162.62 24.858 162.765 25.2704 163.054 25.5781C163.346 25.8859 163.719 26.0398 164.171 26.0398C164.442 26.0398 164.717 25.9705 164.997 25.832C165.28 25.6935 165.517 25.4812 165.708 25.195C165.902 24.9087 165.999 24.544 165.999 24.1009ZM169.084 27V19.9091H170.137V20.9801H170.21C170.34 20.6293 170.574 20.3446 170.912 20.1261C171.251 19.9076 171.632 19.7983 172.057 19.7983C172.137 19.7983 172.237 19.7998 172.357 19.8029C172.477 19.806 172.568 19.8106 172.63 19.8168V20.9247C172.593 20.9155 172.508 20.9016 172.376 20.8832C172.246 20.8616 172.109 20.8509 171.965 20.8509C171.62 20.8509 171.312 20.9232 171.041 21.0678C170.774 21.2094 170.561 21.4064 170.404 21.6587C170.251 21.908 170.174 22.1927 170.174 22.5128V27H169.084ZM180.255 27.1477C179.664 27.1477 179.142 26.9985 178.69 26.6999C178.237 26.3983 177.883 25.9736 177.628 25.4258C177.373 24.8749 177.245 24.224 177.245 23.473C177.245 22.7282 177.373 22.0819 177.628 21.5341C177.883 20.9863 178.239 20.5631 178.694 20.2646C179.15 19.966 179.676 19.8168 180.273 19.8168C180.735 19.8168 181.1 19.8937 181.367 20.0476C181.638 20.1984 181.844 20.3707 181.986 20.5646C182.131 20.7554 182.243 20.9124 182.323 21.0355H182.415V17.5455H183.505V27H182.452V25.9105H182.323C182.243 26.0398 182.129 26.2029 181.981 26.3999C181.834 26.5937 181.623 26.7676 181.349 26.9215C181.075 27.0723 180.71 27.1477 180.255 27.1477ZM180.403 26.169C180.84 26.169 181.209 26.0552 181.51 25.8274C181.812 25.5966 182.041 25.2781 182.198 24.8718C182.355 24.4625 182.434 23.9901 182.434 23.4545C182.434 22.9252 182.357 22.462 182.203 22.065C182.049 21.6649 181.821 21.354 181.52 21.1325C181.218 20.9078 180.846 20.7955 180.403 20.7955C179.941 20.7955 179.556 20.9139 179.248 21.1509C178.944 21.3848 178.714 21.7034 178.561 22.1065C178.41 22.5066 178.334 22.956 178.334 23.4545C178.334 23.9593 178.411 24.4179 178.565 24.8303C178.722 25.2396 178.953 25.5658 179.258 25.8089C179.565 26.049 179.947 26.169 180.403 26.169ZM186.612 17.5455V18.3764C186.612 18.6288 186.566 18.8981 186.473 19.1843C186.384 19.4674 186.252 19.7429 186.076 20.0107C185.904 20.2753 185.695 20.5062 185.448 20.7031L184.857 20.223C185.051 19.946 185.219 19.6583 185.361 19.3597C185.505 19.0581 185.578 18.7365 185.578 18.3949V17.5455H186.612ZM190.211 27.1477C189.528 27.1477 188.939 26.9969 188.443 26.6953C187.951 26.3906 187.571 25.9659 187.303 25.4212C187.038 24.8733 186.906 24.2363 186.906 23.5099C186.906 22.7836 187.038 22.1435 187.303 21.5895C187.571 21.0324 187.943 20.5985 188.42 20.2876C188.9 19.9737 189.46 19.8168 190.101 19.8168C190.47 19.8168 190.835 19.8783 191.195 20.0014C191.555 20.1245 191.883 20.3246 192.178 20.6016C192.473 20.8755 192.709 21.2386 192.884 21.6911C193.06 22.1435 193.147 22.7005 193.147 23.3622V23.8239H187.682V22.8821H192.04C192.04 22.482 191.959 22.125 191.799 21.8111C191.642 21.4972 191.418 21.2494 191.125 21.0678C190.836 20.8862 190.495 20.7955 190.101 20.7955C189.667 20.7955 189.291 20.9032 188.974 21.1186C188.66 21.331 188.419 21.608 188.249 21.9496C188.08 22.2912 187.995 22.6574 187.995 23.0483V23.6761C187.995 24.2116 188.088 24.6656 188.272 25.038C188.46 25.4073 188.72 25.6889 189.053 25.8828C189.385 26.0736 189.771 26.169 190.211 26.169C190.498 26.169 190.756 26.129 190.987 26.049C191.221 25.9659 191.422 25.8428 191.592 25.6797C191.761 25.5135 191.892 25.3073 191.984 25.0611L193.037 25.3565C192.926 25.7135 192.74 26.0275 192.478 26.2983C192.216 26.5661 191.893 26.7753 191.509 26.9261C191.124 27.0739 190.691 27.1477 190.211 27.1477ZM195.894 22.7344V27H194.805V19.9091H195.857V21.017H195.95C196.116 20.657 196.368 20.3677 196.707 20.1491C197.045 19.9276 197.482 19.8168 198.018 19.8168C198.498 19.8168 198.918 19.9152 199.278 20.1122C199.638 20.3061 199.918 20.6016 200.118 20.9986C200.318 21.3925 200.418 21.8911 200.418 22.4943V27H199.329V22.5682C199.329 22.0111 199.184 21.5772 198.895 21.2663C198.606 20.9524 198.209 20.7955 197.704 20.7955C197.356 20.7955 197.045 20.8709 196.771 21.0217C196.501 21.1725 196.287 21.3925 196.13 21.6818C195.973 21.9711 195.894 22.322 195.894 22.7344ZM207.247 29.6591V25.9105H207.155C207.075 26.0398 206.961 26.2029 206.813 26.3999C206.666 26.5937 206.455 26.7676 206.181 26.9215C205.907 27.0723 205.542 27.1477 205.087 27.1477C204.496 27.1477 203.974 26.9985 203.522 26.6999C203.069 26.3983 202.715 25.9736 202.46 25.4258C202.205 24.8749 202.077 24.224 202.077 23.473C202.077 22.7282 202.205 22.0819 202.46 21.5341C202.715 20.9863 203.071 20.5631 203.526 20.2646C203.982 19.966 204.508 19.8168 205.105 19.8168C205.567 19.8168 205.932 19.8937 206.199 20.0476C206.47 20.1984 206.676 20.3707 206.818 20.5646C206.963 20.7554 207.075 20.9124 207.155 21.0355H207.284V19.9091H208.337V29.6591H207.247ZM205.235 26.169C205.672 26.169 206.041 26.0552 206.343 25.8274C206.644 25.5966 206.873 25.2781 207.03 24.8718C207.187 24.4625 207.266 23.9901 207.266 23.4545C207.266 22.9252 207.189 22.462 207.035 22.065C206.881 21.6649 206.653 21.354 206.352 21.1325C206.05 20.9078 205.678 20.7955 205.235 20.7955C204.773 20.7955 204.388 20.9139 204.08 21.1509C203.776 21.3848 203.546 21.7034 203.393 22.1065C203.242 22.5066 203.166 22.956 203.166 23.4545C203.166 23.9593 203.243 24.4179 203.397 24.8303C203.554 25.2396 203.785 25.5658 204.09 25.8089C204.397 26.049 204.779 26.169 205.235 26.169ZM214.8 24.1009V19.9091H215.889V27H214.8V25.7997H214.726C214.56 26.1598 214.301 26.466 213.95 26.7184C213.6 26.9677 213.156 27.0923 212.621 27.0923C212.178 27.0923 211.784 26.9954 211.439 26.8015C211.094 26.6045 210.824 26.3091 210.627 25.9151C210.43 25.5181 210.331 25.018 210.331 24.4148V19.9091H211.421V24.3409C211.421 24.858 211.565 25.2704 211.855 25.5781C212.147 25.8859 212.519 26.0398 212.972 26.0398C213.243 26.0398 213.518 25.9705 213.798 25.832C214.081 25.6935 214.318 25.4812 214.509 25.195C214.703 24.9087 214.8 24.544 214.8 24.1009ZM220.858 27.1477C220.175 27.1477 219.585 26.9969 219.09 26.6953C218.597 26.3906 218.217 25.9659 217.949 25.4212C217.685 24.8733 217.552 24.2363 217.552 23.5099C217.552 22.7836 217.685 22.1435 217.949 21.5895C218.217 21.0324 218.59 20.5985 219.067 20.2876C219.547 19.9737 220.107 19.8168 220.747 19.8168C221.116 19.8168 221.481 19.8783 221.841 20.0014C222.201 20.1245 222.529 20.3246 222.824 20.6016C223.12 20.8755 223.355 21.2386 223.531 21.6911C223.706 22.1435 223.794 22.7005 223.794 23.3622V23.8239H218.328V22.8821H222.686C222.686 22.482 222.606 22.125 222.446 21.8111C222.289 21.4972 222.064 21.2494 221.772 21.0678C221.483 20.8862 221.141 20.7955 220.747 20.7955C220.313 20.7955 219.938 20.9032 219.621 21.1186C219.307 21.331 219.065 21.608 218.896 21.9496C218.727 22.2912 218.642 22.6574 218.642 23.0483V23.6761C218.642 24.2116 218.734 24.6656 218.919 25.038C219.107 25.4073 219.367 25.6889 219.699 25.8828C220.032 26.0736 220.418 26.169 220.858 26.169C221.144 26.169 221.403 26.129 221.633 26.049C221.867 25.9659 222.069 25.8428 222.238 25.6797C222.407 25.5135 222.538 25.3073 222.631 25.0611L223.683 25.3565C223.572 25.7135 223.386 26.0275 223.125 26.2983C222.863 26.5661 222.54 26.7753 222.155 26.9261C221.77 27.0739 221.338 27.1477 220.858 27.1477ZM228.535 19.9091V20.8324H224.86V19.9091H228.535ZM225.931 18.2102H227.021V24.9688C227.021 25.2765 227.065 25.5073 227.155 25.6612C227.247 25.812 227.364 25.9136 227.506 25.9659C227.65 26.0152 227.803 26.0398 227.963 26.0398C228.083 26.0398 228.181 26.0336 228.258 26.0213C228.335 26.0059 228.397 25.9936 228.443 25.9844L228.664 26.9631C228.59 26.9908 228.487 27.0185 228.355 27.0462C228.223 27.0769 228.055 27.0923 227.852 27.0923C227.544 27.0923 227.242 27.0262 226.947 26.8938C226.655 26.7615 226.411 26.5599 226.218 26.2891C226.027 26.0182 225.931 25.6766 225.931 25.2642V18.2102ZM233.071 27.1477C232.388 27.1477 231.798 26.9969 231.303 26.6953C230.81 26.3906 230.43 25.9659 230.162 25.4212C229.898 24.8733 229.765 24.2363 229.765 23.5099C229.765 22.7836 229.898 22.1435 230.162 21.5895C230.43 21.0324 230.803 20.5985 231.28 20.2876C231.76 19.9737 232.32 19.8168 232.96 19.8168C233.329 19.8168 233.694 19.8783 234.054 20.0014C234.414 20.1245 234.742 20.3246 235.037 20.6016C235.333 20.8755 235.568 21.2386 235.744 21.6911C235.919 22.1435 236.007 22.7005 236.007 23.3622V23.8239H230.541V22.8821H234.899C234.899 22.482 234.819 22.125 234.659 21.8111C234.502 21.4972 234.277 21.2494 233.985 21.0678C233.696 20.8862 233.354 20.7955 232.96 20.7955C232.526 20.7955 232.151 20.9032 231.834 21.1186C231.52 21.331 231.278 21.608 231.109 21.9496C230.939 22.2912 230.855 22.6574 230.855 23.0483V23.6761C230.855 24.2116 230.947 24.6656 231.132 25.038C231.32 25.4073 231.58 25.6889 231.912 25.8828C232.244 26.0736 232.631 26.169 233.071 26.169C233.357 26.169 233.616 26.129 233.846 26.049C234.08 25.9659 234.282 25.8428 234.451 25.6797C234.62 25.5135 234.751 25.3073 234.843 25.0611L235.896 25.3565C235.785 25.7135 235.599 26.0275 235.337 26.2983C235.076 26.5661 234.753 26.7753 234.368 26.9261C233.983 27.0739 233.551 27.1477 233.071 27.1477ZM242.687 21.4972L241.708 21.7741C241.647 21.611 241.556 21.4525 241.436 21.2987C241.319 21.1417 241.159 21.0124 240.956 20.9109C240.753 20.8093 240.493 20.7585 240.176 20.7585C239.742 20.7585 239.38 20.8585 239.091 21.0586C238.804 21.2556 238.661 21.5064 238.661 21.8111C238.661 22.0819 238.76 22.2958 238.957 22.4528C239.154 22.6097 239.461 22.7405 239.88 22.8452L240.933 23.1037C241.567 23.2576 242.039 23.493 242.35 23.81C242.661 24.1239 242.816 24.5286 242.816 25.0241C242.816 25.4304 242.699 25.7936 242.465 26.1136C242.234 26.4337 241.911 26.6861 241.496 26.8707C241.08 27.0554 240.597 27.1477 240.046 27.1477C239.323 27.1477 238.724 26.9908 238.25 26.6768C237.776 26.3629 237.476 25.9044 237.35 25.3011L238.384 25.0426C238.483 25.4242 238.669 25.7105 238.943 25.9013C239.22 26.0921 239.582 26.1875 240.028 26.1875C240.536 26.1875 240.939 26.0798 241.237 25.8643C241.539 25.6458 241.69 25.3842 241.69 25.0795C241.69 24.8333 241.604 24.6271 241.431 24.4609C241.259 24.2917 240.994 24.1655 240.637 24.0824L239.455 23.8054C238.806 23.6515 238.329 23.413 238.024 23.0898C237.723 22.7636 237.572 22.3558 237.572 21.8665C237.572 21.4664 237.684 21.1125 237.909 20.8047C238.137 20.4969 238.446 20.2553 238.837 20.0799C239.231 19.9045 239.677 19.8168 240.176 19.8168C240.877 19.8168 241.428 19.9706 241.828 20.2784C242.231 20.5862 242.518 20.9924 242.687 21.4972Z" fill="white"/>
</g>
<defs>
<clipPath id="clip0_90_243">
<rect width="275" height="50" fill="white"/>
</clipPath>
</defs>
</svg>
