<svg width="189" height="40" viewBox="0 0 189 40" fill="none" xmlns="http://www.w3.org/2000/svg">
<g clip-path="url(#clip0_49_950)">
<path d="M187.49 12.37C186.524 10.0388 185.127 7.91142 183.37 6.10002C183.271 7.55073 183.06 8.99164 182.74 10.41C182.49 10.49 175.25 14.17 175.25 14.17L168.61 12.54L165.97 4.54003L171.25 2.23998L174.25 0.669971C172.549 0.203368 170.794 -0.0353451 169.03 -0.0399904H137.03L141.97 5.71001L141.05 14.71L130.86 20.01L123.09 10.35L121.9 0.00999737H47.93V2.01L44.87 10.44L34.78 10.18L30.95 18.18L24.31 14.29L14.87 6.36998L21.54 0.0300169H19.98C14.6757 0.0300169 9.5886 2.13714 5.83787 5.88787C2.08714 9.63859 -0.0200089 14.7257 -0.0200089 20.03C-0.0227223 22.6567 0.493575 25.2581 1.49922 27.6847C2.50486 30.1113 3.98005 32.3152 5.84001 34.17C7.69478 36.0299 9.89874 37.5051 12.3253 38.5108C14.7519 39.5164 17.3533 40.0327 19.98 40.03H54.13L60.63 33.49L70.08 29.61L73.93 32.7L83.67 33.3L82.9 40.04H128.15L127.41 39.78L124.7 31.07L130.7 28.45L140.03 34.27L142.54 40.04H168.99C174.294 40.04 179.381 37.9328 183.132 34.1821C186.883 30.4314 188.99 25.3444 188.99 20.04C188.999 17.4096 188.49 14.8031 187.49 12.37ZM12.93 21.93L7.13999 25.6L5.13999 20.67L7.72001 15.48L13.4 14.39L12.93 21.93ZM28.38 32.88C28 33.78 23.53 34.78 23.53 34.78L18.3 32.5L23.53 27.25H28.38C28.38 27.25 28.74 31.99 28.35 32.88H28.38ZM57.81 26.23L49.64 34.06L38.64 30.06L37.43 20.74L45.43 14.74L61.53 12.1C61.53 12.1 65.85 17.33 65.73 18.23C65.61 19.13 57.78 26.23 57.78 26.23H57.81ZM74.81 11.23L70.38 5.99999L75 3.35002L80.49 5.21001L82.34 10.68L74.81 11.23ZM109.89 38.8L104.14 39.57L100.06 35.48L106.57 31.65L112.85 34.38L109.89 38.8ZM111.64 8.73003L109.85 6.80999L111.64 4.12999L115.85 6.42998L111.64 8.73003ZM170.42 38.21L168.42 35.33L169.96 32.21L174.17 30.67L175.81 34.44L170.42 38.21ZM183.58 23.37L152.83 35.7L142.51 23.09L152.83 10.56L183.55 22.76C183.602 22.797 183.644 22.8458 183.673 22.9023C183.702 22.9588 183.717 23.0215 183.717 23.085C183.717 23.1485 183.702 23.2111 183.673 23.2676C183.644 23.3241 183.602 23.373 183.55 23.41L183.58 23.37Z" fill="white"/>
<path d="M183.55 23.41L152.83 35.7L142.51 23.09L152.83 10.56L183.55 22.76C183.602 22.797 183.644 22.8458 183.673 22.9023C183.702 22.9588 183.717 23.0215 183.717 23.085C183.717 23.1485 183.702 23.2111 183.673 23.2676C183.644 23.3241 183.602 23.373 183.55 23.41Z" fill="#121212"/>
<path d="M175.8 34.48L170.39 38.25L168.41 35.37L169.95 32.25L174.16 30.71L175.8 34.48Z" fill="#121212"/>
<path d="M115.82 6.47L111.61 8.77L109.82 6.85L111.61 4.17L115.82 6.47Z" fill="#121212"/>
<path d="M142.55 40H128.16L127.42 39.74L124.71 31.03L130.71 28.41L140.04 34.23L142.55 40Z" fill="#121212"/>
<path d="M183.37 6.10002C183.271 7.55073 183.06 8.99164 182.74 10.41C182.49 10.49 175.25 14.17 175.25 14.17L168.61 12.54L165.97 4.54003L171.25 2.23998L174.25 0.669971C177.725 1.62184 180.877 3.49852 183.37 6.10002Z" fill="#121212"/>
<path d="M47.95 0V2L44.89 10.43L34.8 10.17L30.97 18.15L24.33 14.26L14.89 6.34L21.56 0H47.95Z" fill="#121212"/>
<path d="M65.7 18.23C65.57 19.12 57.78 26.23 57.78 26.23L49.61 34.06L38.61 30.06L37.4 20.74L45.4 14.74L61.5 12.1C61.5 12.1 65.82 17.33 65.7 18.23Z" fill="#121212"/>
<path d="M28.35 32.88C27.97 33.78 23.5 34.78 23.5 34.78L18.27 32.5L23.5 27.25H28.35C28.35 27.25 28.74 31.99 28.35 32.88Z" fill="#121212"/>
<path d="M83.68 33.26L82.91 40H54.15L60.65 33.46L70.1 29.58L73.94 32.66L83.68 33.26Z" fill="#121212"/>
<path d="M112.82 34.42L109.86 38.84L104.11 39.61L100.03 35.52L106.54 31.69L112.82 34.42Z" fill="#121212"/>
<path d="M82.31 10.72L74.78 11.27L70.35 6.04L74.97 3.39L80.46 5.25L82.31 10.72Z" fill="#121212"/>
<path d="M13.38 14.39L12.9 21.93L7.11 25.6L5.12 20.67L7.7 15.48L13.38 14.39Z" fill="#121212"/>
<path d="M141.9 5.75L140.98 14.7L130.79 20L123.02 10.34L121.83 0H136.96L141.9 5.75Z" fill="#121212"/>
<path d="M71.4148 25H68.1186V14.8182H71.5192C72.5168 14.8182 73.3736 15.022 74.0895 15.4297C74.8054 15.834 75.3539 16.4157 75.7351 17.1747C76.1196 17.9304 76.3118 18.8369 76.3118 19.8942C76.3118 20.9548 76.1179 21.8662 75.7301 22.6286C75.3456 23.3909 74.7888 23.9775 74.0597 24.3885C73.3305 24.7962 72.4489 25 71.4148 25ZM69.6548 23.6577H71.3303C72.1058 23.6577 72.7505 23.5118 73.2642 23.2202C73.7779 22.9252 74.1624 22.4993 74.4176 21.9425C74.6728 21.3823 74.8004 20.6996 74.8004 19.8942C74.8004 19.0954 74.6728 18.4176 74.4176 17.8608C74.1657 17.304 73.7895 16.8814 73.2891 16.593C72.7886 16.3047 72.1671 16.1605 71.4247 16.1605H69.6548V23.6577ZM81.394 25.1541C80.6416 25.1541 79.9937 24.9934 79.4501 24.6719C78.9099 24.3471 78.4922 23.8913 78.1973 23.3047C77.9056 22.7147 77.7598 22.0237 77.7598 21.2315C77.7598 20.4493 77.9056 19.7599 78.1973 19.1634C78.4922 18.5668 78.9032 18.1011 79.4302 17.7663C79.9605 17.4316 80.5803 17.2642 81.2896 17.2642C81.7205 17.2642 82.1381 17.3355 82.5424 17.478C82.9468 17.6205 83.3097 17.8442 83.6312 18.1491C83.9527 18.4541 84.2063 18.8501 84.3919 19.3374C84.5775 19.8213 84.6703 20.4096 84.6703 21.1023V21.6293H78.6V20.5156H83.2136C83.2136 20.1245 83.1341 19.7782 82.975 19.4766C82.8159 19.1716 82.5922 18.9313 82.3038 18.7557C82.0188 18.58 81.684 18.4922 81.2995 18.4922C80.8819 18.4922 80.5173 18.5949 80.2058 18.8004C79.8975 19.0026 79.6589 19.2678 79.4899 19.5959C79.3242 19.9207 79.2413 20.2737 79.2413 20.6548V21.5249C79.2413 22.0353 79.3308 22.4695 79.5098 22.8274C79.6921 23.1854 79.9456 23.4588 80.2704 23.6477C80.5952 23.8333 80.9747 23.9261 81.4089 23.9261C81.6906 23.9261 81.9475 23.8864 82.1795 23.8068C82.4115 23.724 82.612 23.6013 82.7811 23.4389C82.9501 23.2765 83.0794 23.076 83.1689 22.8374L84.5758 23.0909C84.4631 23.5052 84.2609 23.8681 83.9693 24.1797C83.6809 24.4879 83.318 24.7282 82.8805 24.9006C82.4463 25.0696 81.9508 25.1541 81.394 25.1541ZM80.6184 16.3445L81.7818 14.0526H83.3478L81.8066 16.3445H80.6184ZM86.4389 25V14.8182H87.9254V18.6016H88.0149C88.1011 18.4425 88.2254 18.2585 88.3878 18.0497C88.5502 17.8409 88.7756 17.6586 89.0639 17.5028C89.3523 17.3438 89.7334 17.2642 90.2074 17.2642C90.8239 17.2642 91.3741 17.42 91.858 17.7315C92.3419 18.0431 92.7214 18.4922 92.9964 19.0788C93.2749 19.6655 93.4141 20.3714 93.4141 21.1967C93.4141 22.022 93.2765 22.7296 93.0014 23.3196C92.7263 23.9062 92.3485 24.3587 91.8679 24.6768C91.3873 24.9917 90.8388 25.1491 90.2223 25.1491C89.7583 25.1491 89.3788 25.0713 89.0838 24.9155C88.7921 24.7597 88.5634 24.5774 88.3977 24.3686C88.232 24.1598 88.1044 23.9742 88.0149 23.8118H87.8906V25H86.4389ZM87.8956 21.1818C87.8956 21.7187 87.9735 22.1894 88.1293 22.5938C88.285 22.9981 88.5104 23.3146 88.8054 23.5433C89.1004 23.7687 89.4616 23.8814 89.8892 23.8814C90.3333 23.8814 90.7045 23.7637 91.0028 23.5284C91.3011 23.2898 91.5265 22.9666 91.679 22.5589C91.8348 22.1513 91.9126 21.6922 91.9126 21.1818C91.9126 20.678 91.8364 20.2256 91.6839 19.8246C91.5348 19.4235 91.3094 19.107 91.0078 18.875C90.7095 18.643 90.3366 18.527 89.8892 18.527C89.4583 18.527 89.0938 18.638 88.7955 18.8601C88.5005 19.0821 88.2768 19.392 88.1243 19.7898C87.9718 20.1875 87.8956 20.6515 87.8956 21.1818ZM99.9206 21.8331V17.3636H101.412V25H99.9505V23.6776H99.8709C99.6953 24.0852 99.4135 24.425 99.0257 24.6967C98.6413 24.9652 98.1623 25.0994 97.589 25.0994C97.0984 25.0994 96.6642 24.9917 96.2864 24.7763C95.9119 24.5575 95.6169 24.2344 95.4015 23.8068C95.1893 23.3793 95.0833 22.8506 95.0833 22.2209V17.3636H96.5698V22.0419C96.5698 22.5623 96.714 22.9766 97.0023 23.2848C97.2907 23.593 97.6652 23.7472 98.1259 23.7472C98.4043 23.7472 98.681 23.6776 98.9561 23.5384C99.2346 23.3991 99.4649 23.1887 99.6472 22.907C99.8328 22.6252 99.9239 22.2673 99.9206 21.8331ZM106.974 17.3636V18.5568H102.803V17.3636H106.974ZM103.922 15.5341H105.408V22.7578C105.408 23.0462 105.451 23.2633 105.537 23.4091C105.623 23.5516 105.734 23.6494 105.87 23.7024C106.01 23.7521 106.16 23.777 106.323 23.777C106.442 23.777 106.547 23.7687 106.636 23.7521C106.725 23.7356 106.795 23.7223 106.845 23.7124L107.113 24.9403C107.027 24.9735 106.904 25.0066 106.745 25.0398C106.586 25.0762 106.387 25.0961 106.149 25.0994C105.758 25.1061 105.393 25.0365 105.055 24.8906C104.717 24.7448 104.444 24.5194 104.235 24.2145C104.026 23.9096 103.922 23.5268 103.922 23.0661V15.5341ZM111.828 25.1541C111.075 25.1541 110.427 24.9934 109.884 24.6719C109.343 24.3471 108.926 23.8913 108.631 23.3047C108.339 22.7147 108.193 22.0237 108.193 21.2315C108.193 20.4493 108.339 19.7599 108.631 19.1634C108.926 18.5668 109.337 18.1011 109.864 17.7663C110.394 17.4316 111.014 17.2642 111.723 17.2642C112.154 17.2642 112.572 17.3355 112.976 17.478C113.38 17.6205 113.743 17.8442 114.065 18.1491C114.386 18.4541 114.64 18.8501 114.825 19.3374C115.011 19.8213 115.104 20.4096 115.104 21.1023V21.6293H109.034V20.5156H113.647C113.647 20.1245 113.568 19.7782 113.409 19.4766C113.249 19.1716 113.026 18.9313 112.737 18.7557C112.452 18.58 112.118 18.4922 111.733 18.4922C111.316 18.4922 110.951 18.5949 110.639 18.8004C110.331 19.0026 110.093 19.2678 109.923 19.5959C109.758 19.9207 109.675 20.2737 109.675 20.6548V21.5249C109.675 22.0353 109.764 22.4695 109.943 22.8274C110.126 23.1854 110.379 23.4588 110.704 23.6477C111.029 23.8333 111.408 23.9261 111.843 23.9261C112.124 23.9261 112.381 23.8864 112.613 23.8068C112.845 23.724 113.046 23.6013 113.215 23.4389C113.384 23.2765 113.513 23.076 113.602 22.8374L115.009 23.0909C114.897 23.5052 114.695 23.8681 114.403 24.1797C114.115 24.4879 113.752 24.7282 113.314 24.9006C112.88 25.0696 112.384 25.1541 111.828 25.1541ZM116.753 25V17.3636H118.19V18.5767H118.27C118.409 18.1657 118.654 17.8426 119.005 17.6072C119.36 17.3686 119.761 17.2493 120.208 17.2493C120.301 17.2493 120.411 17.2526 120.537 17.2592C120.666 17.2659 120.767 17.2741 120.84 17.2841V18.706C120.78 18.6894 120.674 18.6712 120.522 18.6513C120.369 18.6281 120.217 18.6165 120.064 18.6165C119.713 18.6165 119.4 18.6911 119.125 18.8402C118.853 18.986 118.637 19.1899 118.478 19.4517C118.319 19.7102 118.24 20.0052 118.24 20.3366V25H116.753Z" fill="#121212"/>
</g>
<defs>
<clipPath id="clip0_49_950">
<rect width="189" height="40" fill="white"/>
</clipPath>
</defs>
</svg>
