<svg width="275" height="50" viewBox="0 0 275 50" fill="none" xmlns="http://www.w3.org/2000/svg">
<g clip-path="url(#clip0_90_243)">
<path d="M269.33 28.75L264.64 22.75L264.18 15.75L257.77 14.84L254.38 6.70996L260.99 2.46997C257.567 0.790931 253.803 -0.0781208 249.99 -0.0700121H227.25L227.61 0.14001C227.61 0.14001 226.84 8.13995 226.61 8.26995C226.38 8.39995 219.12 12.03 219.12 12.03L212.48 10.4L209.86 2.54998L215.14 0.249995L215.55 0.0399732H194.64L196.09 4.84997L188.71 13.65L177.86 7.67999L173.58 -4.81308e-06H85.91L85.33 3.89996L75.41 5.69L73.27 14.28L65.98 11.81L55.13 5.96997L59.28 -0.0300341H25C18.3696 -0.0300341 12.0107 2.60388 7.32234 7.29229C2.63393 11.9807 3.77693e-06 18.3396 3.77693e-06 24.97C-0.0015813 27.8536 0.495754 30.7159 1.47001 33.43C2.41192 36.051 3.78776 38.4951 5.54 40.66L14.63 31.5H36.43L33.43 49.88L33.28 49.97H86.18L93.91 42.19L103.35 38.31L107.2 41.39L116.93 41.99L116.12 49.18L115.86 49.97H249.96C255.782 49.9695 261.42 47.9375 265.904 44.2242C270.388 40.511 273.435 35.3495 274.52 29.63L269.33 28.75ZM15.14 18.27L9.86 16L9.11 10L16.43 4.34997L21.87 5.05999L23.5 11.21L15.14 18.27ZM38.41 12.81L36.41 9.92999L37.94 6.80999L42.15 5.26995L43.79 9.03997L38.41 12.81ZM70.48 45.68C70.09 46.57 65.63 47.57 65.63 47.57L60.39 45.29L65.63 40.04H70.48C70.48 40.04 70.86 44.78 70.48 45.68ZM113.38 9.82L108.95 4.54998L113.57 1.89996L119.06 3.76L120.91 9.22998L113.38 9.82ZM144.21 47.12L138.47 47.88L134.38 43.8L140.86 39.97L147.15 42.69L144.21 47.12ZM153.92 6.70001L152.14 4.78997L153.92 2.09997L158.14 4.39996L153.92 6.70001ZM170.73 46.7L163.31 44.1L160.6 35.39L166.6 32.77L175.92 38.59L179.7 47.25L170.73 46.7ZM208.11 48.7L206.11 45.83L207.64 42.7L211.86 41.17L213.49 44.94L208.11 48.7ZM237.41 9.42999L239.2 6.75L243.41 9.04998L239.2 11.35L237.41 9.42999ZM268.06 31.43L251.45 49.17L240.64 44L243.59 32.44L267.86 30.94C267.912 30.9426 267.962 30.9598 268.005 30.9894C268.048 31.0191 268.082 31.0602 268.103 31.108C268.123 31.1558 268.13 31.2085 268.123 31.2601C268.115 31.3117 268.094 31.3601 268.06 31.4V31.43Z" fill="#121212"/>
<path d="M36.43 31.55L33.43 49.9301L33.28 50.02H24.96C21.227 50.0195 17.5416 49.1831 14.1741 47.572C10.8067 45.961 7.84281 43.6163 5.5 40.71L14.59 31.55H36.43Z" fill="white"/>
<path d="M23.4896 11.26L15.1396 18.27L9.84961 16L9.09961 10.05L16.4196 4.40002L21.8596 5.11002L23.4896 11.26Z" fill="white"/>
<path d="M268.06 31.4L251.45 49.1401L240.64 43.97L243.59 32.41L267.86 30.9401C267.912 30.9427 267.962 30.9598 268.005 30.9895C268.048 31.0192 268.081 31.0602 268.102 31.108C268.123 31.1558 268.13 31.2085 268.123 31.2601C268.115 31.3117 268.093 31.3601 268.06 31.4Z" fill="white"/>
<path d="M213.51 44.93L208.11 48.69L206.13 45.82L207.66 42.69L211.88 41.16L213.51 44.93Z" fill="white"/>
<path d="M43.8097 9.04002L38.4097 12.81L36.4297 9.93002L37.9597 6.81002L42.1697 5.27002L43.8097 9.04002Z" fill="white"/>
<path d="M275 25C274.996 26.5635 274.849 28.1234 274.56 29.66L269.33 28.75L264.64 22.75L264.18 15.75L257.77 14.84L254.38 6.70996L260.99 2.46997C265.204 4.53241 268.753 7.73903 271.23 11.7232C273.708 15.7074 275.014 20.3084 275 25Z" fill="white"/>
<path d="M243.41 9.03999L239.2 11.34L237.41 9.41999L239.2 6.73999L243.41 9.03999Z" fill="white"/>
<path d="M158.14 4.39998L153.92 6.69998L152.14 4.78998L153.92 2.09998L158.14 4.39998Z" fill="white"/>
<path d="M179.7 47.28L170.73 46.73L163.31 44.1301L160.6 35.42L166.6 32.8L175.92 38.62L179.7 47.28Z" fill="white"/>
<path d="M227.61 0.210022C227.61 0.210022 226.84 8.21003 226.61 8.34003C226.38 8.47003 219.12 12.1 219.12 12.1L212.48 10.47L209.86 2.55005L215.14 0.250061L215.55 0.0400391H227.29L227.61 0.210022Z" fill="white"/>
<path d="M85.9099 0L85.3299 3.9L75.4099 5.69L73.2699 14.28L65.9799 11.81L55.1299 5.97L59.2799 0H85.9099Z" fill="white"/>
<path d="M70.4796 45.6801C70.0896 46.5701 65.6296 47.5701 65.6296 47.5701L60.3896 45.29L65.6296 40.04H70.4796C70.4796 40.04 70.8596 44.7801 70.4796 45.6801Z" fill="white"/>
<path d="M116.97 42.02L116.16 49.21L115.9 50H86.2197L93.9497 42.22L103.39 38.34L107.24 41.42L116.97 42.02Z" fill="white"/>
<path d="M147.18 42.69L144.21 47.12L138.47 47.88L134.38 43.8L140.89 39.97L147.18 42.69Z" fill="white"/>
<path d="M120.91 9.26994L113.38 9.81994L108.95 4.58994L113.57 1.93994L119.06 3.79994L120.91 9.26994Z" fill="white"/>
<path d="M196.09 4.81L188.71 13.61L177.83 7.68L173.55 0H194.64L196.09 4.81Z" fill="white"/>
<path d="M21.5327 27H20.3324L23.804 17.5455H24.9858L28.4574 27H27.2571L24.4318 19.0412H24.358L21.5327 27ZM21.9759 23.3068H26.8139V24.3224H21.9759V23.3068ZM32.663 27.1477C31.9982 27.1477 31.4258 26.9908 30.9457 26.6768C30.4656 26.3629 30.0962 25.9305 29.8377 25.3796C29.5792 24.8287 29.4499 24.1993 29.4499 23.4915C29.4499 22.7713 29.5823 22.1358 29.8469 21.5849C30.1147 21.0309 30.4871 20.5985 30.9641 20.2876C31.4442 19.9737 32.0044 19.8168 32.6445 19.8168C33.1431 19.8168 33.5924 19.9091 33.9925 20.0938C34.3926 20.2784 34.7204 20.5369 34.9759 20.8693C35.2313 21.2017 35.3898 21.5895 35.4513 22.0327H34.3619C34.2788 21.7095 34.0941 21.4233 33.8079 21.174C33.5247 20.9216 33.1431 20.7955 32.663 20.7955C32.2383 20.7955 31.8659 20.9062 31.5458 21.1278C31.2288 21.3464 30.9811 21.6557 30.8026 22.0558C30.6271 22.4528 30.5394 22.919 30.5394 23.4545C30.5394 24.0024 30.6256 24.4794 30.7979 24.8857C30.9734 25.2919 31.2196 25.6074 31.5366 25.832C31.8567 26.0567 32.2321 26.169 32.663 26.169C32.9461 26.169 33.2031 26.1198 33.4339 26.0213C33.6648 25.9228 33.8602 25.7812 34.0202 25.5966C34.1803 25.4119 34.2942 25.1903 34.3619 24.9318H35.4513C35.3898 25.3504 35.2375 25.7274 34.9943 26.0629C34.7543 26.3952 34.4357 26.6599 34.0387 26.8569C33.6448 27.0508 33.1862 27.1477 32.663 27.1477ZM39.9247 27.1477C39.2599 27.1477 38.6875 26.9908 38.2074 26.6768C37.7273 26.3629 37.358 25.9305 37.0994 25.3796C36.8409 24.8287 36.7116 24.1993 36.7116 23.4915C36.7116 22.7713 36.844 22.1358 37.1087 21.5849C37.3764 21.0309 37.7488 20.5985 38.2259 20.2876C38.706 19.9737 39.2661 19.8168 39.9062 19.8168C40.4048 19.8168 40.8542 19.9091 41.2543 20.0938C41.6544 20.2784 41.9821 20.5369 42.2376 20.8693C42.493 21.2017 42.6515 21.5895 42.7131 22.0327H41.6236C41.5405 21.7095 41.3558 21.4233 41.0696 21.174C40.7865 20.9216 40.4048 20.7955 39.9247 20.7955C39.5 20.7955 39.1276 20.9062 38.8075 21.1278C38.4905 21.3464 38.2428 21.6557 38.0643 22.0558C37.8888 22.4528 37.8011 22.919 37.8011 23.4545C37.8011 24.0024 37.8873 24.4794 38.0597 24.8857C38.2351 25.2919 38.4813 25.6074 38.7983 25.832C39.1184 26.0567 39.4938 26.169 39.9247 26.169C40.2079 26.169 40.4648 26.1198 40.6957 26.0213C40.9265 25.9228 41.1219 25.7812 41.282 25.5966C41.442 25.4119 41.5559 25.1903 41.6236 24.9318H42.7131C42.6515 25.3504 42.4992 25.7274 42.256 26.0629C42.016 26.3952 41.6974 26.6599 41.3004 26.8569C40.9065 27.0508 40.4479 27.1477 39.9247 27.1477ZM47.2788 27.1477C46.5955 27.1477 46.0062 26.9969 45.5107 26.6953C45.0182 26.3906 44.6381 25.9659 44.3704 25.4212C44.1057 24.8733 43.9734 24.2363 43.9734 23.5099C43.9734 22.7836 44.1057 22.1435 44.3704 21.5895C44.6381 21.0324 45.0105 20.5985 45.4876 20.2876C45.9677 19.9737 46.5278 19.8168 47.168 19.8168C47.5373 19.8168 47.902 19.8783 48.2621 20.0014C48.6222 20.1245 48.9499 20.3246 49.2454 20.6016C49.5408 20.8755 49.7763 21.2386 49.9517 21.6911C50.1271 22.1435 50.2148 22.7005 50.2148 23.3622V23.8239H44.7489V22.8821H49.1069C49.1069 22.482 49.0269 22.125 48.8668 21.8111C48.7099 21.4972 48.4852 21.2494 48.1928 21.0678C47.9035 20.8862 47.5619 20.7955 47.168 20.7955C46.734 20.7955 46.3585 20.9032 46.0415 21.1186C45.7276 21.331 45.486 21.608 45.3168 21.9496C45.1475 22.2912 45.0629 22.6574 45.0629 23.0483V23.6761C45.0629 24.2116 45.1552 24.6656 45.3398 25.038C45.5276 25.4073 45.7876 25.6889 46.12 25.8828C46.4524 26.0736 46.8387 26.169 47.2788 26.169C47.565 26.169 47.8235 26.129 48.0543 26.049C48.2882 25.9659 48.4898 25.8428 48.6591 25.6797C48.8284 25.5135 48.9592 25.3073 49.0515 25.0611L50.104 25.3565C49.9933 25.7135 49.8071 26.0275 49.5455 26.2983C49.2839 26.5661 48.9607 26.7753 48.576 26.9261C48.1913 27.0739 47.7589 27.1477 47.2788 27.1477ZM46.6509 18.9489L45.2106 16.8068H46.4847L47.6112 18.9489H46.6509ZM56.8949 21.4972L55.9162 21.7741C55.8546 21.611 55.7638 21.4525 55.6438 21.2987C55.5269 21.1417 55.3668 21.0124 55.1637 20.9109C54.9606 20.8093 54.7005 20.7585 54.3835 20.7585C53.9496 20.7585 53.5879 20.8585 53.2987 21.0586C53.0124 21.2556 52.8693 21.5064 52.8693 21.8111C52.8693 22.0819 52.9678 22.2958 53.1648 22.4528C53.3617 22.6097 53.6695 22.7405 54.0881 22.8452L55.1406 23.1037C55.7746 23.2576 56.247 23.493 56.5579 23.81C56.8687 24.1239 57.0241 24.5286 57.0241 25.0241C57.0241 25.4304 56.9072 25.7936 56.6733 26.1136C56.4425 26.4337 56.1193 26.6861 55.7038 26.8707C55.2884 27.0554 54.8052 27.1477 54.2543 27.1477C53.531 27.1477 52.9324 26.9908 52.4585 26.6768C51.9845 26.3629 51.6844 25.9044 51.5582 25.3011L52.5923 25.0426C52.6908 25.4242 52.877 25.7105 53.1509 25.9013C53.4279 26.0921 53.7895 26.1875 54.2358 26.1875C54.7436 26.1875 55.1468 26.0798 55.4453 25.8643C55.7469 25.6458 55.8977 25.3842 55.8977 25.0795C55.8977 24.8333 55.8116 24.6271 55.6392 24.4609C55.4669 24.2917 55.2022 24.1655 54.8452 24.0824L53.6634 23.8054C53.014 23.6515 52.5369 23.413 52.2322 23.0898C51.9306 22.7636 51.7798 22.3558 51.7798 21.8665C51.7798 21.4664 51.8922 21.1125 52.1168 20.8047C52.3446 20.4969 52.6539 20.2553 53.0447 20.0799C53.4387 19.9045 53.8849 19.8168 54.3835 19.8168C55.0852 19.8168 55.6361 19.9706 56.0362 20.2784C56.4394 20.5862 56.7256 20.9924 56.8949 21.4972ZM64.407 27.1662C63.9577 27.1662 63.5499 27.0816 63.1837 26.9123C62.8174 26.7399 62.5266 26.4922 62.3112 26.169C62.0957 25.8428 61.988 25.4489 61.988 24.9872C61.988 24.581 62.068 24.2517 62.2281 23.9993C62.3881 23.7438 62.602 23.5438 62.8698 23.3991C63.1375 23.2545 63.433 23.1468 63.7561 23.076C64.0824 23.0021 64.4101 22.9437 64.7394 22.9006C65.1703 22.8452 65.5196 22.8036 65.7874 22.7759C66.0582 22.7451 66.2552 22.6944 66.3783 22.6236C66.5045 22.5528 66.5676 22.4297 66.5676 22.2543V22.2173C66.5676 21.7618 66.4429 21.4079 66.1936 21.1555C65.9474 20.9032 65.5735 20.777 65.0718 20.777C64.5517 20.777 64.1439 20.8909 63.8485 21.1186C63.553 21.3464 63.3453 21.5895 63.2252 21.848L62.1911 21.4787C62.3758 21.0478 62.622 20.7124 62.9298 20.4723C63.2406 20.2292 63.5792 20.0599 63.9454 19.9645C64.3147 19.866 64.6779 19.8168 65.0349 19.8168C65.2626 19.8168 65.5242 19.8445 65.8197 19.8999C66.1182 19.9522 66.406 20.0614 66.683 20.2276C66.963 20.3938 67.1954 20.6446 67.3801 20.9801C67.5647 21.3156 67.657 21.7649 67.657 22.3281V27H66.5676V26.0398H66.5122C66.4383 26.1937 66.3152 26.3583 66.1428 26.5337C65.9705 26.7092 65.7412 26.8584 65.455 26.9815C65.1688 27.1046 64.8195 27.1662 64.407 27.1662ZM64.5732 26.1875C65.0041 26.1875 65.3673 26.1029 65.6627 25.9336C65.9613 25.7643 66.1859 25.5458 66.3367 25.2781C66.4906 25.0103 66.5676 24.7287 66.5676 24.4332V23.4361C66.5214 23.4915 66.4198 23.5423 66.2629 23.5884C66.109 23.6315 65.9305 23.67 65.7274 23.7038C65.5273 23.7346 65.3319 23.7623 65.1411 23.7869C64.9533 23.8085 64.801 23.8269 64.684 23.8423C64.4009 23.8793 64.1362 23.9393 63.89 24.0224C63.6469 24.1024 63.4499 24.224 63.2991 24.3871C63.1514 24.5471 63.0775 24.7656 63.0775 25.0426C63.0775 25.4212 63.2175 25.7074 63.4976 25.9013C63.7807 26.0921 64.1393 26.1875 64.5732 26.1875ZM74.1143 24.1009V19.9091H75.2038V27H74.1143V25.7997H74.0405C73.8743 26.1598 73.6158 26.466 73.2649 26.7184C72.9141 26.9677 72.4709 27.0923 71.9354 27.0923C71.4922 27.0923 71.0982 26.9954 70.7536 26.8015C70.4089 26.6045 70.138 26.3091 69.9411 25.9151C69.7441 25.5181 69.6456 25.018 69.6456 24.4148V19.9091H70.7351V24.3409C70.7351 24.858 70.8797 25.2704 71.169 25.5781C71.4614 25.8859 71.8338 26.0398 72.2862 26.0398C72.5571 26.0398 72.8325 25.9705 73.1126 25.832C73.3957 25.6935 73.6327 25.4812 73.8235 25.195C74.0174 24.9087 74.1143 24.544 74.1143 24.1009ZM83.7178 29.8068C83.1915 29.8068 82.7391 29.7391 82.3605 29.6037C81.982 29.4714 81.6665 29.2959 81.4142 29.0774C81.1649 28.862 80.9664 28.6312 80.8186 28.3849L81.6865 27.7756C81.785 27.9048 81.9097 28.0526 82.0605 28.2188C82.2113 28.388 82.4175 28.5342 82.6791 28.6573C82.9437 28.7835 83.29 28.8466 83.7178 28.8466C84.2902 28.8466 84.7626 28.7081 85.135 28.4311C85.5074 28.1541 85.6936 27.7202 85.6936 27.1293V25.6889H85.6013C85.5213 25.8182 85.4074 25.9782 85.2597 26.169C85.115 26.3568 84.9057 26.5245 84.6318 26.6722C84.361 26.8169 83.9948 26.8892 83.5331 26.8892C82.9607 26.8892 82.4467 26.7538 81.9912 26.483C81.5388 26.2121 81.1802 25.8182 80.9156 25.3011C80.654 24.7841 80.5232 24.1562 80.5232 23.4176C80.5232 22.6913 80.6509 22.0588 80.9063 21.5202C81.1618 20.9786 81.5173 20.56 81.9727 20.2646C82.4282 19.966 82.9545 19.8168 83.5516 19.8168C84.0132 19.8168 84.3795 19.8937 84.6503 20.0476C84.9242 20.1984 85.1335 20.3707 85.2781 20.5646C85.4259 20.7554 85.5397 20.9124 85.6198 21.0355H85.7306V19.9091H86.7831V27.2031C86.7831 27.8125 86.6446 28.308 86.3676 28.6896C86.0937 29.0743 85.7244 29.3559 85.2597 29.5344C84.798 29.716 84.2841 29.8068 83.7178 29.8068ZM83.6808 25.9105C84.1179 25.9105 84.4872 25.8105 84.7888 25.6104C85.0904 25.4104 85.3197 25.1226 85.4767 24.7472C85.6336 24.3717 85.7121 23.9223 85.7121 23.3991C85.7121 22.8883 85.6352 22.4374 85.4813 22.0465C85.3274 21.6557 85.0996 21.3494 84.798 21.1278C84.4964 20.9062 84.124 20.7955 83.6808 20.7955C83.2192 20.7955 82.8345 20.9124 82.5267 21.1463C82.222 21.3802 81.9927 21.6941 81.8389 22.0881C81.6881 22.482 81.6127 22.919 81.6127 23.3991C81.6127 23.8916 81.6896 24.3271 81.8435 24.7056C82.0004 25.0811 82.2313 25.3765 82.536 25.592C82.8437 25.8043 83.2253 25.9105 83.6808 25.9105ZM93.2462 24.1009V19.9091H94.3357V27H93.2462V25.7997H93.1723C93.0061 26.1598 92.7476 26.466 92.3968 26.7184C92.0459 26.9677 91.6027 27.0923 91.0672 27.0923C90.624 27.0923 90.2301 26.9954 89.8854 26.8015C89.5407 26.6045 89.2699 26.3091 89.0729 25.9151C88.8759 25.5181 88.7774 25.018 88.7774 24.4148V19.9091H89.8669V24.3409C89.8669 24.858 90.0116 25.2704 90.3009 25.5781C90.5932 25.8859 90.9656 26.0398 91.4181 26.0398C91.6889 26.0398 91.9643 25.9705 92.2444 25.832C92.5276 25.6935 92.7645 25.4812 92.9553 25.195C93.1492 24.9087 93.2462 24.544 93.2462 24.1009ZM96.3311 27V19.9091H97.4206V27H96.3311ZM96.8851 18.7273C96.6728 18.7273 96.4896 18.6549 96.3358 18.5103C96.185 18.3656 96.1096 18.1918 96.1096 17.9886C96.1096 17.7855 96.185 17.6116 96.3358 17.467C96.4896 17.3223 96.6728 17.25 96.8851 17.25C97.0975 17.25 97.2791 17.3223 97.4299 17.467C97.5837 17.6116 97.6607 17.7855 97.6607 17.9886C97.6607 18.1918 97.5837 18.3656 97.4299 18.5103C97.2791 18.6549 97.0975 18.7273 96.8851 18.7273ZM102.094 27.1477C101.503 27.1477 100.981 26.9985 100.529 26.6999C100.076 26.3983 99.7223 25.9736 99.4669 25.4258C99.2114 24.8749 99.0837 24.224 99.0837 23.473C99.0837 22.7282 99.2114 22.0819 99.4669 21.5341C99.7223 20.9863 100.078 20.5631 100.533 20.2646C100.989 19.966 101.515 19.8168 102.112 19.8168C102.574 19.8168 102.938 19.8937 103.206 20.0476C103.477 20.1984 103.683 20.3707 103.825 20.5646C103.969 20.7554 104.082 20.9124 104.162 21.0355H104.254V17.5455H105.344V27H104.291V25.9105H104.162C104.082 26.0398 103.968 26.2029 103.82 26.3999C103.672 26.5937 103.462 26.7676 103.188 26.9215C102.914 27.0723 102.549 27.1477 102.094 27.1477ZM102.241 26.169C102.678 26.169 103.048 26.0552 103.349 25.8274C103.651 25.5966 103.88 25.2781 104.037 24.8718C104.194 24.4625 104.273 23.9901 104.273 23.4545C104.273 22.9252 104.196 22.462 104.042 22.065C103.888 21.6649 103.66 21.354 103.359 21.1325C103.057 20.9078 102.685 20.7955 102.241 20.7955C101.78 20.7955 101.395 20.9139 101.087 21.1509C100.783 21.3848 100.553 21.7034 100.399 22.1065C100.249 22.5066 100.173 22.956 100.173 23.4545C100.173 23.9593 100.25 24.4179 100.404 24.8303C100.561 25.2396 100.792 25.5658 101.097 25.8089C101.404 26.049 101.786 26.169 102.241 26.169ZM110.463 27.1477C109.78 27.1477 109.191 26.9969 108.695 26.6953C108.203 26.3906 107.823 25.9659 107.555 25.4212C107.29 24.8733 107.158 24.2363 107.158 23.5099C107.158 22.7836 107.29 22.1435 107.555 21.5895C107.823 21.0324 108.195 20.5985 108.672 20.2876C109.152 19.9737 109.712 19.8168 110.353 19.8168C110.722 19.8168 111.087 19.8783 111.447 20.0014C111.807 20.1245 112.134 20.3246 112.43 20.6016C112.725 20.8755 112.961 21.2386 113.136 21.6911C113.312 22.1435 113.399 22.7005 113.399 23.3622V23.8239H107.934V22.8821H112.291C112.291 22.482 112.211 22.125 112.051 21.8111C111.894 21.4972 111.67 21.2494 111.377 21.0678C111.088 20.8862 110.746 20.7955 110.353 20.7955C109.919 20.7955 109.543 20.9032 109.226 21.1186C108.912 21.331 108.671 21.608 108.501 21.9496C108.332 22.2912 108.247 22.6574 108.247 23.0483V23.6761C108.247 24.2116 108.34 24.6656 108.524 25.038C108.712 25.4073 108.972 25.6889 109.305 25.8828C109.637 26.0736 110.023 26.169 110.463 26.169C110.75 26.169 111.008 26.129 111.239 26.049C111.473 25.9659 111.674 25.8428 111.844 25.6797C112.013 25.5135 112.144 25.3073 112.236 25.0611L113.289 25.3565C113.178 25.7135 112.992 26.0275 112.73 26.2983C112.468 26.5661 112.145 26.7753 111.761 26.9261C111.376 27.0739 110.943 27.1477 110.463 27.1477ZM121.391 27.1477C120.8 27.1477 120.278 26.9985 119.826 26.6999C119.373 26.3983 119.019 25.9736 118.764 25.4258C118.508 24.8749 118.381 24.224 118.381 23.473C118.381 22.7282 118.508 22.0819 118.764 21.5341C119.019 20.9863 119.375 20.5631 119.83 20.2646C120.286 19.966 120.812 19.8168 121.409 19.8168C121.871 19.8168 122.235 19.8937 122.503 20.0476C122.774 20.1984 122.98 20.3707 123.122 20.5646C123.266 20.7554 123.379 20.9124 123.459 21.0355H123.551V17.5455H124.641V27H123.588V25.9105H123.459C123.379 26.0398 123.265 26.2029 123.117 26.3999C122.969 26.5937 122.759 26.7676 122.485 26.9215C122.211 27.0723 121.846 27.1477 121.391 27.1477ZM121.538 26.169C121.975 26.169 122.345 26.0552 122.646 25.8274C122.948 25.5966 123.177 25.2781 123.334 24.8718C123.491 24.4625 123.57 23.9901 123.57 23.4545C123.57 22.9252 123.493 22.462 123.339 22.065C123.185 21.6649 122.957 21.354 122.655 21.1325C122.354 20.9078 121.981 20.7955 121.538 20.7955C121.077 20.7955 120.692 20.9139 120.384 21.1509C120.079 21.3848 119.85 21.7034 119.696 22.1065C119.545 22.5066 119.47 22.956 119.47 23.4545C119.47 23.9593 119.547 24.4179 119.701 24.8303C119.858 25.2396 120.089 25.5658 120.393 25.8089C120.701 26.049 121.083 26.169 121.538 26.169ZM131.256 24.1009V19.9091H132.345V27H131.256V25.7997H131.182C131.016 26.1598 130.757 26.466 130.407 26.7184C130.056 26.9677 129.612 27.0923 129.077 27.0923C128.634 27.0923 128.24 26.9954 127.895 26.8015C127.55 26.6045 127.28 26.3091 127.083 25.9151C126.886 25.5181 126.787 25.018 126.787 24.4148V19.9091H127.877V24.3409C127.877 24.858 128.021 25.2704 128.311 25.5781C128.603 25.8859 128.975 26.0398 129.428 26.0398C129.699 26.0398 129.974 25.9705 130.254 25.832C130.537 25.6935 130.774 25.4812 130.965 25.195C131.159 24.9087 131.256 24.544 131.256 24.1009ZM139.087 17.5455V27H137.997V17.5455H139.087ZM143.169 27.1662C142.719 27.1662 142.312 27.0816 141.945 26.9123C141.579 26.7399 141.288 26.4922 141.073 26.169C140.857 25.8428 140.75 25.4489 140.75 24.9872C140.75 24.581 140.83 24.2517 140.99 23.9993C141.15 23.7438 141.364 23.5438 141.631 23.3991C141.899 23.2545 142.195 23.1468 142.518 23.076C142.844 23.0021 143.172 22.9437 143.501 22.9006C143.932 22.8452 144.281 22.8036 144.549 22.7759C144.82 22.7451 145.017 22.6944 145.14 22.6236C145.266 22.5528 145.329 22.4297 145.329 22.2543V22.2173C145.329 21.7618 145.205 21.4079 144.955 21.1555C144.709 20.9032 144.335 20.777 143.834 20.777C143.313 20.777 142.906 20.8909 142.61 21.1186C142.315 21.3464 142.107 21.5895 141.987 21.848L140.953 21.4787C141.138 21.0478 141.384 20.7124 141.691 20.4723C142.002 20.2292 142.341 20.0599 142.707 19.9645C143.076 19.866 143.44 19.8168 143.797 19.8168C144.024 19.8168 144.286 19.8445 144.581 19.8999C144.88 19.9522 145.168 20.0614 145.445 20.2276C145.725 20.3938 145.957 20.6446 146.142 20.9801C146.326 21.3156 146.419 21.7649 146.419 22.3281V27H145.329V26.0398H145.274C145.2 26.1937 145.077 26.3583 144.905 26.5337C144.732 26.7092 144.503 26.8584 144.217 26.9815C143.93 27.1046 143.581 27.1662 143.169 27.1662ZM143.335 26.1875C143.766 26.1875 144.129 26.1029 144.424 25.9336C144.723 25.7643 144.948 25.5458 145.098 25.2781C145.252 25.0103 145.329 24.7287 145.329 24.4332V23.4361C145.283 23.4915 145.182 23.5423 145.025 23.5884C144.871 23.6315 144.692 23.67 144.489 23.7038C144.289 23.7346 144.094 23.7623 143.903 23.7869C143.715 23.8085 143.563 23.8269 143.446 23.8423C143.163 23.8793 142.898 23.9393 142.652 24.0224C142.409 24.1024 142.212 24.224 142.061 24.3871C141.913 24.5471 141.839 24.7656 141.839 25.0426C141.839 25.4212 141.979 25.7074 142.259 25.9013C142.542 26.0921 142.901 26.1875 143.335 26.1875ZM149.497 22.7344V27H148.407V19.9091H149.46V21.017H149.552C149.718 20.657 149.971 20.3677 150.309 20.1491C150.648 19.9276 151.085 19.8168 151.62 19.8168C152.1 19.8168 152.521 19.9152 152.881 20.1122C153.241 20.3061 153.521 20.6016 153.721 20.9986C153.921 21.3925 154.021 21.8911 154.021 22.4943V27H152.931V22.5682C152.931 22.0111 152.787 21.5772 152.498 21.2663C152.208 20.9524 151.811 20.7955 151.306 20.7955C150.959 20.7955 150.648 20.8709 150.374 21.0217C150.103 21.1725 149.889 21.3925 149.732 21.6818C149.575 21.9711 149.497 22.322 149.497 22.7344ZM158.892 27.1477C158.228 27.1477 157.655 26.9908 157.175 26.6768C156.695 26.3629 156.326 25.9305 156.067 25.3796C155.809 24.8287 155.679 24.1993 155.679 23.4915C155.679 22.7713 155.812 22.1358 156.076 21.5849C156.344 21.0309 156.717 20.5985 157.194 20.2876C157.674 19.9737 158.234 19.8168 158.874 19.8168C159.373 19.8168 159.822 19.9091 160.222 20.0938C160.622 20.2784 160.95 20.5369 161.205 20.8693C161.461 21.2017 161.619 21.5895 161.681 22.0327H160.591C160.508 21.7095 160.324 21.4233 160.037 21.174C159.754 20.9216 159.373 20.7955 158.892 20.7955C158.468 20.7955 158.095 20.9062 157.775 21.1278C157.458 21.3464 157.211 21.6557 157.032 22.0558C156.857 22.4528 156.769 22.919 156.769 23.4545C156.769 24.0024 156.855 24.4794 157.027 24.8857C157.203 25.2919 157.449 25.6074 157.766 25.832C158.086 26.0567 158.462 26.169 158.892 26.169C159.176 26.169 159.433 26.1198 159.663 26.0213C159.894 25.9228 160.09 25.7812 160.25 25.5966C160.41 25.4119 160.524 25.1903 160.591 24.9318H161.681C161.619 25.3504 161.467 25.7274 161.224 26.0629C160.984 26.3952 160.665 26.6599 160.268 26.8569C159.874 27.0508 159.416 27.1477 158.892 27.1477ZM166.247 27.1477C165.563 27.1477 164.974 26.9969 164.478 26.6953C163.986 26.3906 163.606 25.9659 163.338 25.4212C163.073 24.8733 162.941 24.2363 162.941 23.5099C162.941 22.7836 163.073 22.1435 163.338 21.5895C163.606 21.0324 163.978 20.5985 164.455 20.2876C164.935 19.9737 165.496 19.8168 166.136 19.8168C166.505 19.8168 166.87 19.8783 167.23 20.0014C167.59 20.1245 167.918 20.3246 168.213 20.6016C168.509 20.8755 168.744 21.2386 168.919 21.6911C169.095 22.1435 169.183 22.7005 169.183 23.3622V23.8239H163.717V22.8821H168.075C168.075 22.482 167.995 22.125 167.835 21.8111C167.678 21.4972 167.453 21.2494 167.161 21.0678C166.871 20.8862 166.53 20.7955 166.136 20.7955C165.702 20.7955 165.326 20.9032 165.009 21.1186C164.695 21.331 164.454 21.608 164.285 21.9496C164.115 22.2912 164.031 22.6574 164.031 23.0483V23.6761C164.031 24.2116 164.123 24.6656 164.308 25.038C164.495 25.4073 164.755 25.6889 165.088 25.8828C165.42 26.0736 165.806 26.169 166.247 26.169C166.533 26.169 166.791 26.129 167.022 26.049C167.256 25.9659 167.458 25.8428 167.627 25.6797C167.796 25.5135 167.927 25.3073 168.019 25.0611L169.072 25.3565C168.961 25.7135 168.775 26.0275 168.513 26.2983C168.252 26.5661 167.928 26.7753 167.544 26.9261C167.159 27.0739 166.727 27.1477 166.247 27.1477ZM175.309 24.1009V19.9091H176.398V27H175.309V25.7997H175.235C175.069 26.1598 174.81 26.466 174.459 26.7184C174.108 26.9677 173.665 27.0923 173.13 27.0923C172.687 27.0923 172.293 26.9954 171.948 26.8015C171.603 26.6045 171.332 26.3091 171.135 25.9151C170.938 25.5181 170.84 25.018 170.84 24.4148V19.9091H171.929V24.3409C171.929 24.858 172.074 25.2704 172.363 25.5781C172.656 25.8859 173.028 26.0398 173.481 26.0398C173.751 26.0398 174.027 25.9705 174.307 25.832C174.59 25.6935 174.827 25.4812 175.018 25.195C175.212 24.9087 175.309 24.544 175.309 24.1009ZM178.394 27V19.9091H179.446V20.9801H179.52C179.649 20.6293 179.883 20.3446 180.222 20.1261C180.56 19.9076 180.942 19.7983 181.367 19.7983C181.447 19.7983 181.547 19.7998 181.667 19.8029C181.787 19.806 181.878 19.8106 181.939 19.8168V20.9247C181.902 20.9155 181.818 20.9016 181.685 20.8832C181.556 20.8616 181.419 20.8509 181.274 20.8509C180.93 20.8509 180.622 20.9232 180.351 21.0678C180.083 21.2094 179.871 21.4064 179.714 21.6587C179.56 21.908 179.483 22.1927 179.483 22.5128V27H178.394ZM189.564 27.1477C188.973 27.1477 188.452 26.9985 187.999 26.6999C187.547 26.3983 187.193 25.9736 186.938 25.4258C186.682 24.8749 186.554 24.224 186.554 23.473C186.554 22.7282 186.682 22.0819 186.938 21.5341C187.193 20.9863 187.549 20.5631 188.004 20.2646C188.459 19.966 188.986 19.8168 189.583 19.8168C190.044 19.8168 190.409 19.8937 190.677 20.0476C190.948 20.1984 191.154 20.3707 191.296 20.5646C191.44 20.7554 191.553 20.9124 191.633 21.0355H191.725V17.5455H192.814V27H191.762V25.9105H191.633C191.553 26.0398 191.439 26.2029 191.291 26.3999C191.143 26.5937 190.932 26.7676 190.658 26.9215C190.385 27.0723 190.02 27.1477 189.564 27.1477ZM189.712 26.169C190.149 26.169 190.518 26.0552 190.82 25.8274C191.122 25.5966 191.351 25.2781 191.508 24.8718C191.665 24.4625 191.743 23.9901 191.743 23.4545C191.743 22.9252 191.666 22.462 191.513 22.065C191.359 21.6649 191.131 21.354 190.829 21.1325C190.528 20.9078 190.155 20.7955 189.712 20.7955C189.25 20.7955 188.866 20.9139 188.558 21.1509C188.253 21.3848 188.024 21.7034 187.87 22.1065C187.719 22.5066 187.644 22.956 187.644 23.4545C187.644 23.9593 187.721 24.4179 187.875 24.8303C188.032 25.2396 188.263 25.5658 188.567 25.8089C188.875 26.049 189.257 26.169 189.712 26.169ZM195.921 17.5455V18.3764C195.921 18.6288 195.875 18.8981 195.783 19.1843C195.694 19.4674 195.561 19.7429 195.386 20.0107C195.213 20.2753 195.004 20.5062 194.758 20.7031L194.167 20.223C194.361 19.946 194.529 19.6583 194.67 19.3597C194.815 19.0581 194.887 18.7365 194.887 18.3949V17.5455H195.921ZM199.521 27.1477C198.838 27.1477 198.248 26.9969 197.753 26.6953C197.26 26.3906 196.88 25.9659 196.613 25.4212C196.348 24.8733 196.216 24.2363 196.216 23.5099C196.216 22.7836 196.348 22.1435 196.613 21.5895C196.88 21.0324 197.253 20.5985 197.73 20.2876C198.21 19.9737 198.77 19.8168 199.41 19.8168C199.779 19.8168 200.144 19.8783 200.504 20.0014C200.864 20.1245 201.192 20.3246 201.488 20.6016C201.783 20.8755 202.018 21.2386 202.194 21.6911C202.369 22.1435 202.457 22.7005 202.457 23.3622V23.8239H196.991V22.8821H201.349C201.349 22.482 201.269 22.125 201.109 21.8111C200.952 21.4972 200.727 21.2494 200.435 21.0678C200.146 20.8862 199.804 20.7955 199.41 20.7955C198.976 20.7955 198.601 20.9032 198.284 21.1186C197.97 21.331 197.728 21.608 197.559 21.9496C197.39 22.2912 197.305 22.6574 197.305 23.0483V23.6761C197.305 24.2116 197.397 24.6656 197.582 25.038C197.77 25.4073 198.03 25.6889 198.362 25.8828C198.695 26.0736 199.081 26.169 199.521 26.169C199.807 26.169 200.066 26.129 200.297 26.049C200.53 25.9659 200.732 25.8428 200.901 25.6797C201.071 25.5135 201.201 25.3073 201.294 25.0611L202.346 25.3565C202.235 25.7135 202.049 26.0275 201.788 26.2983C201.526 26.5661 201.203 26.7753 200.818 26.9261C200.433 27.0739 200.001 27.1477 199.521 27.1477ZM205.204 22.7344V27H204.114V19.9091H205.167V21.017H205.259C205.425 20.657 205.678 20.3677 206.016 20.1491C206.355 19.9276 206.792 19.8168 207.327 19.8168C207.808 19.8168 208.228 19.9152 208.588 20.1122C208.948 20.3061 209.228 20.6016 209.428 20.9986C209.628 21.3925 209.728 21.8911 209.728 22.4943V27H208.638V22.5682C208.638 22.0111 208.494 21.5772 208.205 21.2663C207.915 20.9524 207.518 20.7955 207.013 20.7955C206.666 20.7955 206.355 20.8709 206.081 21.0217C205.81 21.1725 205.596 21.3925 205.439 21.6818C205.282 21.9711 205.204 22.322 205.204 22.7344ZM216.557 29.6591V25.9105H216.465C216.385 26.0398 216.271 26.2029 216.123 26.3999C215.975 26.5937 215.764 26.7676 215.491 26.9215C215.217 27.0723 214.852 27.1477 214.396 27.1477C213.805 27.1477 213.284 26.9985 212.831 26.6999C212.379 26.3983 212.025 25.9736 211.77 25.4258C211.514 24.8749 211.386 24.224 211.386 23.473C211.386 22.7282 211.514 22.0819 211.77 21.5341C212.025 20.9863 212.381 20.5631 212.836 20.2646C213.292 19.966 213.818 19.8168 214.415 19.8168C214.877 19.8168 215.241 19.8937 215.509 20.0476C215.78 20.1984 215.986 20.3707 216.128 20.5646C216.272 20.7554 216.385 20.9124 216.465 21.0355H216.594V19.9091H217.646V29.6591H216.557ZM214.544 26.169C214.981 26.169 215.35 26.0552 215.652 25.8274C215.954 25.5966 216.183 25.2781 216.34 24.8718C216.497 24.4625 216.575 23.9901 216.575 23.4545C216.575 22.9252 216.498 22.462 216.345 22.065C216.191 21.6649 215.963 21.354 215.661 21.1325C215.36 20.9078 214.987 20.7955 214.544 20.7955C214.082 20.7955 213.698 20.9139 213.39 21.1509C213.085 21.3848 212.856 21.7034 212.702 22.1065C212.551 22.5066 212.476 22.956 212.476 23.4545C212.476 23.9593 212.553 24.4179 212.707 24.8303C212.864 25.2396 213.095 25.5658 213.399 25.8089C213.707 26.049 214.089 26.169 214.544 26.169ZM224.109 24.1009V19.9091H225.199V27H224.109V25.7997H224.036C223.869 26.1598 223.611 26.466 223.26 26.7184C222.909 26.9677 222.466 27.0923 221.93 27.0923C221.487 27.0923 221.093 26.9954 220.749 26.8015C220.404 26.6045 220.133 26.3091 219.936 25.9151C219.739 25.5181 219.641 25.018 219.641 24.4148V19.9091H220.73V24.3409C220.73 24.858 220.875 25.2704 221.164 25.5781C221.457 25.8859 221.829 26.0398 222.281 26.0398C222.552 26.0398 222.828 25.9705 223.108 25.832C223.391 25.6935 223.628 25.4812 223.819 25.195C224.013 24.9087 224.109 24.544 224.109 24.1009ZM230.167 27.1477C229.484 27.1477 228.895 26.9969 228.399 26.6953C227.907 26.3906 227.527 25.9659 227.259 25.4212C226.994 24.8733 226.862 24.2363 226.862 23.5099C226.862 22.7836 226.994 22.1435 227.259 21.5895C227.527 21.0324 227.899 20.5985 228.376 20.2876C228.856 19.9737 229.416 19.8168 230.057 19.8168C230.426 19.8168 230.791 19.8783 231.151 20.0014C231.511 20.1245 231.839 20.3246 232.134 20.6016C232.43 20.8755 232.665 21.2386 232.84 21.6911C233.016 22.1435 233.104 22.7005 233.104 23.3622V23.8239H227.638V22.8821H231.996C231.996 22.482 231.916 22.125 231.756 21.8111C231.599 21.4972 231.374 21.2494 231.081 21.0678C230.792 20.8862 230.451 20.7955 230.057 20.7955C229.623 20.7955 229.247 20.9032 228.93 21.1186C228.616 21.331 228.375 21.608 228.205 21.9496C228.036 22.2912 227.952 22.6574 227.952 23.0483V23.6761C227.952 24.2116 228.044 24.6656 228.229 25.038C228.416 25.4073 228.676 25.6889 229.009 25.8828C229.341 26.0736 229.727 26.169 230.167 26.169C230.454 26.169 230.712 26.129 230.943 26.049C231.177 25.9659 231.378 25.8428 231.548 25.6797C231.717 25.5135 231.848 25.3073 231.94 25.0611L232.993 25.3565C232.882 25.7135 232.696 26.0275 232.434 26.2983C232.173 26.5661 231.849 26.7753 231.465 26.9261C231.08 27.0739 230.648 27.1477 230.167 27.1477ZM237.845 19.9091V20.8324H234.17V19.9091H237.845ZM235.241 18.2102H236.33V24.9688C236.33 25.2765 236.375 25.5073 236.464 25.6612C236.557 25.812 236.674 25.9136 236.815 25.9659C236.96 26.0152 237.112 26.0398 237.272 26.0398C237.392 26.0398 237.491 26.0336 237.568 26.0213C237.645 26.0059 237.706 25.9936 237.752 25.9844L237.974 26.9631C237.9 26.9908 237.797 27.0185 237.665 27.0462C237.532 27.0769 237.365 27.0923 237.161 27.0923C236.854 27.0923 236.552 27.0262 236.257 26.8938C235.964 26.7615 235.721 26.5599 235.527 26.2891C235.336 26.0182 235.241 25.6766 235.241 25.2642V18.2102ZM242.38 27.1477C241.697 27.1477 241.108 26.9969 240.612 26.6953C240.12 26.3906 239.74 25.9659 239.472 25.4212C239.207 24.8733 239.075 24.2363 239.075 23.5099C239.075 22.7836 239.207 22.1435 239.472 21.5895C239.74 21.0324 240.112 20.5985 240.589 20.2876C241.069 19.9737 241.629 19.8168 242.27 19.8168C242.639 19.8168 243.004 19.8783 243.364 20.0014C243.724 20.1245 244.051 20.3246 244.347 20.6016C244.642 20.8755 244.878 21.2386 245.053 21.6911C245.229 22.1435 245.316 22.7005 245.316 23.3622V23.8239H239.85V22.8821H244.208C244.208 22.482 244.128 22.125 243.968 21.8111C243.811 21.4972 243.587 21.2494 243.294 21.0678C243.005 20.8862 242.663 20.7955 242.27 20.7955C241.836 20.7955 241.46 20.9032 241.143 21.1186C240.829 21.331 240.588 21.608 240.418 21.9496C240.249 22.2912 240.164 22.6574 240.164 23.0483V23.6761C240.164 24.2116 240.257 24.6656 240.441 25.038C240.629 25.4073 240.889 25.6889 241.222 25.8828C241.554 26.0736 241.94 26.169 242.38 26.169C242.667 26.169 242.925 26.129 243.156 26.049C243.39 25.9659 243.591 25.8428 243.761 25.6797C243.93 25.5135 244.061 25.3073 244.153 25.0611L245.206 25.3565C245.095 25.7135 244.909 26.0275 244.647 26.2983C244.385 26.5661 244.062 26.7753 243.678 26.9261C243.293 27.0739 242.86 27.1477 242.38 27.1477ZM251.996 21.4972L251.018 21.7741C250.956 21.611 250.865 21.4525 250.745 21.2987C250.628 21.1417 250.468 21.0124 250.265 20.9109C250.062 20.8093 249.802 20.7585 249.485 20.7585C249.051 20.7585 248.69 20.8585 248.4 21.0586C248.114 21.2556 247.971 21.5064 247.971 21.8111C247.971 22.0819 248.069 22.2958 248.266 22.4528C248.463 22.6097 248.771 22.7405 249.19 22.8452L250.242 23.1037C250.876 23.2576 251.349 23.493 251.659 23.81C251.97 24.1239 252.126 24.5286 252.126 25.0241C252.126 25.4304 252.009 25.7936 251.775 26.1136C251.544 26.4337 251.221 26.6861 250.805 26.8707C250.39 27.0554 249.907 27.1477 249.356 27.1477C248.633 27.1477 248.034 26.9908 247.56 26.6768C247.086 26.3629 246.786 25.9044 246.66 25.3011L247.694 25.0426C247.792 25.4242 247.979 25.7105 248.252 25.9013C248.529 26.0921 248.891 26.1875 249.337 26.1875C249.845 26.1875 250.248 26.0798 250.547 25.8643C250.848 25.6458 250.999 25.3842 250.999 25.0795C250.999 24.8333 250.913 24.6271 250.741 24.4609C250.568 24.2917 250.304 24.1655 249.947 24.0824L248.765 23.8054C248.116 23.6515 247.638 23.413 247.334 23.0898C247.032 22.7636 246.881 22.3558 246.881 21.8665C246.881 21.4664 246.994 21.1125 247.218 20.8047C247.446 20.4969 247.755 20.2553 248.146 20.0799C248.54 19.9045 248.987 19.8168 249.485 19.8168C250.187 19.8168 250.738 19.9706 251.138 20.2784C251.541 20.5862 251.827 20.9924 251.996 21.4972Z" fill="white"/>
</g>
<defs>
<clipPath id="clip0_90_243">
<rect width="275" height="50" fill="white"/>
</clipPath>
</defs>
</svg>
