<svg width="189" height="40" viewBox="0 0 189 40" fill="none" xmlns="http://www.w3.org/2000/svg">
<g clip-path="url(#clip0_254_1003)">
<path d="M187.49 12.3699C186.524 10.0388 185.127 7.91137 183.37 6.09998C183.271 7.55068 183.06 8.9916 182.74 10.41C182.49 10.49 175.25 14.1699 175.25 14.1699L168.61 12.54L165.97 4.53998L171.25 2.23993L174.25 0.669922C172.549 0.203319 170.794 -0.0353938 169.03 -0.0400391H137.03L141.97 5.70996L141.05 14.71L130.86 20.0099L123.09 10.35L121.9 0.00994873H47.93V2.00995L44.87 10.4399L34.78 10.1799L30.95 18.1799L24.31 14.29L14.87 6.36993L21.54 0.0299683H19.98C14.6757 0.0299683 9.5886 2.13709 5.83787 5.88782C2.08714 9.63855 -0.0200089 14.7256 -0.0200089 20.03C-0.0227223 22.6567 0.493575 25.258 1.49922 27.6846C2.50486 30.1112 3.98005 32.3152 5.84001 34.1699C7.69478 36.0299 9.89874 37.5051 12.3253 38.5107C14.7519 39.5164 17.3533 40.0327 19.98 40.03H54.13L60.63 33.4899L70.08 29.6099L73.93 32.7L83.67 33.2999L82.9 40.04H128.15L127.41 39.78L124.7 31.0699L130.7 28.45L140.03 34.27L142.54 40.04H168.99C174.294 40.04 179.381 37.9328 183.132 34.1821C186.883 30.4313 188.99 25.3443 188.99 20.04C188.999 17.4095 188.49 14.8031 187.49 12.3699ZM12.93 21.9299L7.13999 25.6L5.13999 20.6699L7.72001 15.48L13.4 14.39L12.93 21.9299ZM28.38 32.8799C28 33.7799 23.53 34.78 23.53 34.78L18.3 32.4999L23.53 27.2499H28.38C28.38 27.2499 28.74 31.9899 28.35 32.8799H28.38ZM57.81 26.23L49.64 34.0599L38.64 30.0599L37.43 20.7399L45.43 14.7399L61.53 12.1C61.53 12.1 65.85 17.33 65.73 18.23C65.61 19.13 57.78 26.23 57.78 26.23H57.81ZM74.81 11.23L70.38 5.99994L75 3.34998L80.49 5.20996L82.34 10.6799L74.81 11.23ZM109.89 38.7999L104.14 39.5699L100.06 35.48L106.57 31.65L112.85 34.3799L109.89 38.7999ZM111.64 8.72998L109.85 6.80994L111.64 4.12994L115.85 6.42993L111.64 8.72998ZM170.42 38.21L168.42 35.33L169.96 32.21L174.17 30.6699L175.81 34.4399L170.42 38.21ZM183.58 23.3699L152.83 35.7L142.51 23.09L152.83 10.5599L183.55 22.7599C183.602 22.797 183.644 22.8458 183.673 22.9023C183.702 22.9588 183.717 23.0214 183.717 23.085C183.717 23.1485 183.702 23.2111 183.673 23.2676C183.644 23.3241 183.602 23.3729 183.55 23.41L183.58 23.3699Z" fill="white"/>
<path d="M183.55 23.41L152.83 35.7L142.51 23.09L152.83 10.5599L183.55 22.7599C183.601 22.797 183.643 22.8458 183.672 22.9023C183.701 22.9588 183.717 23.0214 183.717 23.085C183.717 23.1485 183.701 23.2111 183.672 23.2676C183.643 23.3241 183.601 23.3729 183.55 23.41Z" fill="#121212"/>
<path d="M175.8 34.48L170.39 38.25L168.41 35.37L169.95 32.25L174.16 30.71L175.8 34.48Z" fill="#121212"/>
<path d="M115.82 6.47004L111.61 8.77004L109.82 6.85004L111.61 4.17004L115.82 6.47004Z" fill="#121212"/>
<path d="M142.55 40H128.16L127.42 39.74L124.71 31.03L130.71 28.41L140.04 34.23L142.55 40Z" fill="#121212"/>
<path d="M183.37 6.09998C183.271 7.55068 183.06 8.9916 182.74 10.41C182.49 10.49 175.25 14.1699 175.25 14.1699L168.61 12.54L165.97 4.53998L171.25 2.23993L174.25 0.669922C177.725 1.62179 180.877 3.49847 183.37 6.09998Z" fill="#121212"/>
<path d="M47.9501 0V2L44.8901 10.43L34.8001 10.17L30.9701 18.15L24.3301 14.26L14.8901 6.34L21.5601 0H47.9501Z" fill="#121212"/>
<path d="M65.6999 18.23C65.5699 19.12 57.7799 26.23 57.7799 26.23L49.6099 34.0599L38.6099 30.0599L37.3999 20.7399L45.3999 14.7399L61.4999 12.1C61.4999 12.1 65.8199 17.33 65.6999 18.23Z" fill="#121212"/>
<path d="M28.35 32.88C27.97 33.78 23.5 34.78 23.5 34.78L18.27 32.5L23.5 27.25H28.35C28.35 27.25 28.74 31.99 28.35 32.88Z" fill="#121212"/>
<path d="M83.6799 33.26L82.9099 40H54.1499L60.6499 33.46L70.0999 29.58L73.9399 32.66L83.6799 33.26Z" fill="#121212"/>
<path d="M112.82 34.4199L109.86 38.8399L104.11 39.6099L100.03 35.5199L106.54 31.6899L112.82 34.4199Z" fill="#121212"/>
<path d="M82.3101 10.72L74.7801 11.27L70.3501 6.04001L74.9701 3.39001L80.4601 5.25001L82.3101 10.72Z" fill="#121212"/>
<path d="M13.3801 14.39L12.9001 21.93L7.11012 25.6L5.12012 20.67L7.70012 15.48L13.3801 14.39Z" fill="#121212"/>
<path d="M141.9 5.75L140.98 14.7L130.79 20L123.02 10.34L121.83 0H136.96L141.9 5.75Z" fill="#121212"/>
<path d="M69.1186 25V14.8182H72.7479C73.5367 14.8182 74.1913 14.9541 74.7116 15.2259C75.2353 15.4976 75.6264 15.8738 75.8849 16.3544C76.1435 16.8317 76.2727 17.3835 76.2727 18.0099C76.2727 18.633 76.1418 19.1816 75.88 19.6555C75.6214 20.1262 75.2304 20.4924 74.7067 20.7543C74.1863 21.0161 73.5317 21.147 72.7429 21.147H69.9936V19.8246H72.6037C73.1009 19.8246 73.5052 19.7533 73.8168 19.6108C74.1316 19.4683 74.362 19.2611 74.5078 18.9893C74.6536 18.7176 74.7266 18.3911 74.7266 18.0099C74.7266 17.6255 74.652 17.2924 74.5028 17.0107C74.357 16.7289 74.1267 16.5135 73.8118 16.3643C73.5002 16.2119 73.0909 16.1357 72.5838 16.1357H70.6548V25H69.1186ZM74.1449 20.4062L76.6605 25H74.9105L72.4446 20.4062H74.1449ZM81.2182 25.1541C80.4658 25.1541 79.8179 24.9934 79.2743 24.6719C78.7341 24.3471 78.3165 23.8913 78.0215 23.3047C77.7298 22.7147 77.584 22.0237 77.584 21.2315C77.584 20.4493 77.7298 19.7599 78.0215 19.1634C78.3165 18.5668 78.7275 18.1011 79.2544 17.7663C79.7847 17.4316 80.4045 17.2642 81.1138 17.2642C81.5447 17.2642 81.9623 17.3355 82.3667 17.478C82.771 17.6205 83.1339 17.8442 83.4554 18.1491C83.7769 18.4541 84.0305 18.8501 84.2161 19.3374C84.4017 19.8213 84.4945 20.4096 84.4945 21.1023V21.6293H78.4242V20.5156H83.0378C83.0378 20.1245 82.9583 19.7782 82.7992 19.4766C82.6401 19.1716 82.4164 18.9313 82.128 18.7557C81.843 18.58 81.5082 18.4922 81.1238 18.4922C80.7061 18.4922 80.3416 18.5949 80.03 18.8004C79.7218 19.0026 79.4831 19.2678 79.3141 19.5959C79.1484 19.9207 79.0655 20.2737 79.0655 20.6548V21.5249C79.0655 22.0353 79.155 22.4695 79.334 22.8274C79.5163 23.1854 79.7698 23.4588 80.0946 23.6477C80.4194 23.8333 80.7989 23.9261 81.2331 23.9261C81.5149 23.9261 81.7717 23.8864 82.0037 23.8068C82.2357 23.724 82.4363 23.6013 82.6053 23.4389C82.7743 23.2765 82.9036 23.076 82.9931 22.8374L84.4 23.0909C84.2873 23.5052 84.0852 23.8681 83.7935 24.1797C83.5051 24.4879 83.1422 24.7282 82.7047 24.9006C82.2705 25.0696 81.775 25.1541 81.2182 25.1541ZM80.4426 16.3445L81.606 14.0526H83.1721L81.6309 16.3445H80.4426ZM91.8661 19.228L90.5188 19.4666C90.4625 19.2943 90.373 19.1302 90.2504 18.9744C90.131 18.8187 89.9686 18.6911 89.7631 18.5916C89.5576 18.4922 89.3008 18.4425 88.9925 18.4425C88.5716 18.4425 88.2203 18.5369 87.9386 18.7259C87.6568 18.9115 87.516 19.1518 87.516 19.4467C87.516 19.7019 87.6104 19.9074 87.7994 20.0632C87.9883 20.219 88.2932 20.3466 88.7141 20.446L89.9272 20.7244C90.6299 20.8868 91.1535 21.1371 91.4982 21.4751C91.8429 21.8132 92.0153 22.2524 92.0153 22.7926C92.0153 23.25 91.8827 23.6577 91.6175 24.0156C91.3557 24.3703 90.9895 24.6487 90.5188 24.8509C90.0515 25.053 89.5096 25.1541 88.8931 25.1541C88.038 25.1541 87.3403 24.9718 86.8001 24.6072C86.2598 24.2393 85.9284 23.7173 85.8058 23.0412L87.2425 22.8224C87.332 23.197 87.516 23.4804 87.7944 23.6726C88.0728 23.8615 88.4357 23.956 88.8832 23.956C89.3704 23.956 89.7598 23.8549 90.0515 23.6527C90.3432 23.4472 90.489 23.197 90.489 22.902C90.489 22.6634 90.3995 22.4628 90.2205 22.3004C90.0449 22.138 89.7747 22.0154 89.4102 21.9325L88.1175 21.6491C87.4049 21.4867 86.878 21.2282 86.5366 20.8736C86.1985 20.5189 86.0295 20.0698 86.0295 19.5263C86.0295 19.0755 86.1554 18.6811 86.4073 18.343C86.6592 18.005 87.0072 17.7415 87.4513 17.5526C87.8955 17.3603 88.4042 17.2642 88.9776 17.2642C89.8029 17.2642 90.4525 17.4432 90.9265 17.8011C91.4005 18.1558 91.7137 18.6314 91.8661 19.228ZM98.487 21.8331V17.3636H99.9785V25H98.5169V23.6776H98.4373C98.2617 24.0852 97.9799 24.425 97.5922 24.6967C97.2077 24.9652 96.7288 25.0994 96.1554 25.0994C95.6648 25.0994 95.2306 24.9917 94.8528 24.7763C94.4783 24.5575 94.1833 24.2344 93.9679 23.8068C93.7557 23.3793 93.6497 22.8506 93.6497 22.2209V17.3636H95.1362V22.0419C95.1362 22.5623 95.2804 22.9766 95.5687 23.2848C95.8571 23.593 96.2316 23.7472 96.6923 23.7472C96.9707 23.7472 97.2475 23.6776 97.5225 23.5384C97.801 23.3991 98.0313 23.1887 98.2136 22.907C98.3992 22.6252 98.4904 22.2673 98.487 21.8331ZM103.462 14.8182V25H101.976V14.8182H103.462ZM107.684 25.169C107.201 25.169 106.763 25.0795 106.372 24.9006C105.981 24.7183 105.671 24.4548 105.442 24.1101C105.217 23.7654 105.104 23.3428 105.104 22.8423C105.104 22.4115 105.187 22.0568 105.353 21.7784C105.519 21.5 105.742 21.2796 106.024 21.1172C106.306 20.9548 106.621 20.8321 106.969 20.7493C107.317 20.6664 107.671 20.6035 108.032 20.5604C108.49 20.5073 108.861 20.4643 109.146 20.4311C109.431 20.3946 109.638 20.3366 109.768 20.2571C109.897 20.1776 109.961 20.0483 109.961 19.8693V19.8345C109.961 19.4003 109.839 19.0639 109.594 18.8253C109.352 18.5866 108.99 18.4673 108.51 18.4673C108.009 18.4673 107.615 18.5784 107.327 18.8004C107.041 19.0192 106.844 19.2628 106.735 19.5312L105.338 19.2131C105.504 18.7491 105.746 18.3745 106.064 18.0895C106.385 17.8011 106.755 17.5923 107.172 17.4631C107.59 17.3305 108.029 17.2642 108.49 17.2642C108.795 17.2642 109.118 17.3007 109.459 17.3736C109.804 17.4432 110.126 17.5724 110.424 17.7614C110.725 17.9503 110.972 18.2204 111.165 18.5717C111.357 18.9197 111.453 19.3722 111.453 19.929V25H110.001V23.956H109.942C109.845 24.1482 109.701 24.3371 109.509 24.5227C109.317 24.7083 109.07 24.8625 108.768 24.9851C108.467 25.1077 108.105 25.169 107.684 25.169ZM108.008 23.9759C108.419 23.9759 108.77 23.8946 109.062 23.7322C109.357 23.5698 109.58 23.3577 109.733 23.0959C109.889 22.8307 109.966 22.5473 109.966 22.2457V21.2614C109.913 21.3144 109.811 21.3641 109.658 21.4105C109.509 21.4536 109.338 21.4917 109.146 21.5249C108.954 21.5547 108.767 21.5829 108.584 21.6094C108.402 21.6326 108.25 21.6525 108.127 21.669C107.839 21.7055 107.575 21.7668 107.336 21.853C107.101 21.9392 106.912 22.0634 106.77 22.2259C106.631 22.3849 106.561 22.5971 106.561 22.8622C106.561 23.2301 106.697 23.5085 106.969 23.6974C107.24 23.883 107.587 23.9759 108.008 23.9759ZM116.998 17.3636V18.5568H112.826V17.3636H116.998ZM113.945 15.5341H115.431V22.7578C115.431 23.0462 115.475 23.2633 115.561 23.4091C115.647 23.5516 115.758 23.6494 115.894 23.7024C116.033 23.7521 116.184 23.777 116.346 23.777C116.466 23.777 116.57 23.7687 116.659 23.7521C116.749 23.7356 116.819 23.7223 116.868 23.7124L117.137 24.9403C117.051 24.9735 116.928 25.0066 116.769 25.0398C116.61 25.0762 116.411 25.0961 116.172 25.0994C115.781 25.1061 115.417 25.0365 115.078 24.8906C114.74 24.7448 114.467 24.5194 114.258 24.2145C114.049 23.9096 113.945 23.5268 113.945 23.0661V15.5341ZM124.241 19.228L122.894 19.4666C122.837 19.2943 122.748 19.1302 122.625 18.9744C122.506 18.8187 122.344 18.6911 122.138 18.5916C121.933 18.4922 121.676 18.4425 121.368 18.4425C120.947 18.4425 120.595 18.5369 120.314 18.7259C120.032 18.9115 119.891 19.1518 119.891 19.4467C119.891 19.7019 119.985 19.9074 120.174 20.0632C120.363 20.219 120.668 20.3466 121.089 20.446L122.302 20.7244C123.005 20.8868 123.529 21.1371 123.873 21.4751C124.218 21.8132 124.39 22.2524 124.39 22.7926C124.39 23.25 124.258 23.6577 123.993 24.0156C123.731 24.3703 123.364 24.6487 122.894 24.8509C122.426 25.053 121.885 25.1541 121.268 25.1541C120.413 25.1541 119.715 24.9718 119.175 24.6072C118.635 24.2393 118.303 23.7173 118.181 23.0412L119.618 22.8224C119.707 23.197 119.891 23.4804 120.169 23.6726C120.448 23.8615 120.811 23.956 121.258 23.956C121.745 23.956 122.135 23.8549 122.426 23.6527C122.718 23.4472 122.864 23.197 122.864 22.902C122.864 22.6634 122.775 22.4628 122.596 22.3004C122.42 22.138 122.15 22.0154 121.785 21.9325L120.493 21.6491C119.78 21.4867 119.253 21.2282 118.912 20.8736C118.574 20.5189 118.404 20.0698 118.404 19.5263C118.404 19.0755 118.53 18.6811 118.782 18.343C119.034 18.005 119.382 17.7415 119.826 17.5526C120.27 17.3603 120.779 17.2642 121.353 17.2642C122.178 17.2642 122.828 17.4432 123.301 17.8011C123.775 18.1558 124.089 18.6314 124.241 19.228Z" fill="#121212"/>
</g>
<defs>
<clipPath id="clip0_254_1003">
<rect width="189" height="40" fill="white"/>
</clipPath>
</defs>
</svg>
