<?xml version="1.0" encoding="utf-8"?>
<!-- Generator: Adobe Illustrator 27.0.0, SVG Export Plug-In . SVG Version: 6.00 Build 0)  -->
<svg version="1.1" id="Calque_1" xmlns="http://www.w3.org/2000/svg" xmlns:xlink="http://www.w3.org/1999/xlink" x="0px" y="0px"
	 viewBox="0 0 700 700" style="enable-background:new 0 0 700 700;" xml:space="preserve">
<g>
	<path d="M307.6,175.8l4.3,123.2c0.1,3.8,2.8,5.8,5.5,6.2l119.6,17.7c32.4,4.8,32.4,6.8,32.3,39.8l0.2,57.9
		c0.1,32.2-9.4,44.3-18.6,55.9c-7.8,9.9-15.8,20.1-15.9,36.2c-0.1,16.1-5.6,29.9-48.8,29.9l-61.4,0c-43.1,0-48.7-13.8-48.7-25.8l0,0
		l0,0c-0.2-20.6-10.9-31.3-21.2-41.5c-11.8-11.8-24-23.9-24-54.6c0-4.6-0.1-9.3-0.1-13.9c-0.3-24-0.6-48.9,8.4-58
		c2.5-2.5,5.6-3.7,9.8-3.8l-0.9,42c-0.1,3.6,2.7,6.5,6.4,6.6c3.6,0,6.5-2.8,6.6-6.3l4.7-211.3c0.3-12.6,10.6-18.2,20.9-18.3
		C296.6,157.4,307.1,163.1,307.6,175.8L307.6,175.8z M252.6,175.4l-3.5,156.4c-7.8,0.2-14.3,2.7-19.2,7.7
		c-12.8,13-12.5,39.3-12.1,67.3c0.1,4.6,0.1,9.1,0.1,13.7c0,36.1,15.4,51.5,27.8,63.8c9.6,9.6,17.2,17.1,17.4,32.4v0
		c0,38.8,46.4,38.8,61.6,38.8l61.4,0c15.2,0,61.6,0,61.6-38.7c0.2-15.7,6-23,13.3-32.3c9.6-12.2,21.5-27.3,21.4-64l-0.2-52v-5.8
		c0.1-35.8-1.8-46.4-43.4-52.6l-114.2-16.9l-4.1-117.8c-0.7-20.3-17.7-30.9-34.2-30.8C269.8,144.6,253.1,155.2,252.6,175.4
		L252.6,175.4z"/>
</g>
</svg>
