<svg width="217" height="40" viewBox="0 0 217 40" fill="none" xmlns="http://www.w3.org/2000/svg">
<path d="M28.3977 8.27273H29.4545V14.5114C29.4545 15.0682 29.3523 15.5412 29.1477 15.9304C28.9432 16.3196 28.6548 16.6151 28.2827 16.8168C27.9105 17.0185 27.4716 17.1193 26.9659 17.1193C26.4886 17.1193 26.0639 17.0327 25.6918 16.8594C25.3196 16.6832 25.027 16.4332 24.8139 16.1094C24.6009 15.7855 24.4943 15.4006 24.4943 14.9545H25.5341C25.5341 15.2017 25.5952 15.4176 25.7173 15.6023C25.8423 15.7841 26.0128 15.9261 26.2287 16.0284C26.4446 16.1307 26.6903 16.1818 26.9659 16.1818C27.2699 16.1818 27.5284 16.1179 27.7415 15.9901C27.9545 15.8622 28.1165 15.6747 28.2273 15.4276C28.3409 15.1776 28.3977 14.8722 28.3977 14.5114V8.27273ZM34.1804 17.1364C33.5497 17.1364 33.0057 16.9972 32.5483 16.7188C32.0938 16.4375 31.7429 16.0455 31.4957 15.5426C31.2514 15.0369 31.1293 14.4489 31.1293 13.7784C31.1293 13.108 31.2514 12.517 31.4957 12.0057C31.7429 11.4915 32.0866 11.0909 32.527 10.804C32.9702 10.5142 33.4872 10.3693 34.0781 10.3693C34.419 10.3693 34.7557 10.4261 35.0881 10.5398C35.4205 10.6534 35.723 10.8381 35.9957 11.0938C36.2685 11.3466 36.4858 11.6818 36.6477 12.0994C36.8097 12.517 36.8906 13.0312 36.8906 13.642V14.0682H31.8452V13.1989H35.8679C35.8679 12.8295 35.794 12.5 35.6463 12.2102C35.5014 11.9205 35.294 11.6918 35.0241 11.5241C34.7571 11.3565 34.4418 11.2727 34.0781 11.2727C33.6776 11.2727 33.331 11.3722 33.0384 11.571C32.7486 11.767 32.5256 12.0227 32.3693 12.3381C32.2131 12.6534 32.1349 12.9915 32.1349 13.3523V13.9318C32.1349 14.4261 32.2202 14.8452 32.3906 15.1889C32.5639 15.5298 32.804 15.7898 33.1108 15.9688C33.4176 16.1449 33.7741 16.233 34.1804 16.233C34.4446 16.233 34.6832 16.196 34.8963 16.1222C35.1122 16.0455 35.2983 15.9318 35.4545 15.7812C35.6108 15.6278 35.7315 15.4375 35.8168 15.2102L36.7884 15.483C36.6861 15.8125 36.5142 16.1023 36.2727 16.3523C36.0313 16.5994 35.733 16.7926 35.3778 16.9318C35.0227 17.0682 34.6236 17.1364 34.1804 17.1364ZM41.7955 17V10.4545H42.767V11.4773H42.8523C42.9886 11.1278 43.2088 10.8565 43.5128 10.6634C43.8168 10.4673 44.1818 10.3693 44.608 10.3693C45.0398 10.3693 45.3991 10.4673 45.6861 10.6634C45.9759 10.8565 46.2017 11.1278 46.3636 11.4773H46.4318C46.5994 11.1392 46.8509 10.8707 47.1861 10.6719C47.5213 10.4702 47.9233 10.3693 48.392 10.3693C48.9773 10.3693 49.456 10.5526 49.8281 10.919C50.2003 11.2827 50.3864 11.8494 50.3864 12.6193V17H49.3807V12.6193C49.3807 12.1364 49.2486 11.7912 48.9844 11.5838C48.7202 11.3764 48.4091 11.2727 48.0511 11.2727C47.5909 11.2727 47.2344 11.4119 46.9815 11.6903C46.7287 11.9659 46.6023 12.3153 46.6023 12.7386V17H45.5795V12.517C45.5795 12.1449 45.4588 11.8452 45.2173 11.6179C44.9759 11.3878 44.6648 11.2727 44.2841 11.2727C44.0227 11.2727 43.7784 11.3423 43.5511 11.4815C43.3267 11.6207 43.1449 11.8139 43.0057 12.0611C42.8693 12.3054 42.8011 12.5881 42.8011 12.9091V17H41.7955ZM53.1115 8.27273V9.03977C53.1115 9.27273 53.0689 9.52131 52.9837 9.78551C52.9013 10.0469 52.7791 10.3011 52.6172 10.5483C52.4581 10.7926 52.2649 11.0057 52.0376 11.1875L51.4922 10.7443C51.6712 10.4886 51.826 10.223 51.9567 9.94744C52.0902 9.66903 52.157 9.37216 52.157 9.05682V8.27273H53.1115ZM56.4343 17.1364C55.8036 17.1364 55.2596 16.9972 54.8022 16.7188C54.3477 16.4375 53.9968 16.0455 53.7496 15.5426C53.5053 15.0369 53.3832 14.4489 53.3832 13.7784C53.3832 13.108 53.5053 12.517 53.7496 12.0057C53.9968 11.4915 54.3406 11.0909 54.7809 10.804C55.2241 10.5142 55.7411 10.3693 56.332 10.3693C56.6729 10.3693 57.0096 10.4261 57.342 10.5398C57.6744 10.6534 57.9769 10.8381 58.2496 11.0938C58.5224 11.3466 58.7397 11.6818 58.9016 12.0994C59.0636 12.517 59.1445 13.0312 59.1445 13.642V14.0682H54.0991V13.1989H58.1218C58.1218 12.8295 58.0479 12.5 57.9002 12.2102C57.7553 11.9205 57.5479 11.6918 57.2781 11.5241C57.011 11.3565 56.6957 11.2727 56.332 11.2727C55.9315 11.2727 55.5849 11.3722 55.2923 11.571C55.0025 11.767 54.7795 12.0227 54.6232 12.3381C54.467 12.6534 54.3888 12.9915 54.3888 13.3523V13.9318C54.3888 14.4261 54.4741 14.8452 54.6445 15.1889C54.8178 15.5298 55.0579 15.7898 55.3647 15.9688C55.6715 16.1449 56.0281 16.233 56.4343 16.233C56.6985 16.233 56.9371 16.196 57.1502 16.1222C57.3661 16.0455 57.5522 15.9318 57.7085 15.7812C57.8647 15.6278 57.9854 15.4375 58.0707 15.2102L59.0423 15.483C58.94 15.8125 58.7681 16.1023 58.5266 16.3523C58.2852 16.5994 57.9869 16.7926 57.6317 16.9318C57.2766 17.0682 56.8775 17.1364 56.4343 17.1364ZM61.68 13.0625V17H60.6744V10.4545H61.646V11.4773H61.7312C61.8846 11.1449 62.1175 10.8778 62.43 10.6761C62.7425 10.4716 63.146 10.3693 63.6403 10.3693C64.0835 10.3693 64.4712 10.4602 64.8036 10.642C65.136 10.821 65.3945 11.0938 65.5792 11.4602C65.7638 11.8239 65.8562 12.2841 65.8562 12.8409V17H64.8505V12.9091C64.8505 12.3949 64.717 11.9943 64.4499 11.7074C64.1829 11.4176 63.8164 11.2727 63.3505 11.2727C63.0295 11.2727 62.7425 11.3423 62.4897 11.4815C62.2397 11.6207 62.0423 11.8239 61.8974 12.0909C61.7525 12.358 61.68 12.6818 61.68 13.0625ZM70.3359 19.5909C69.8501 19.5909 69.4325 19.5284 69.0831 19.4034C68.7337 19.2812 68.4425 19.1193 68.2095 18.9176C67.9794 18.7188 67.7962 18.5057 67.6598 18.2784L68.4609 17.7159C68.5518 17.8352 68.6669 17.9716 68.8061 18.125C68.9453 18.2812 69.1357 18.4162 69.3771 18.5298C69.6214 18.6463 69.9411 18.7045 70.3359 18.7045C70.8643 18.7045 71.3004 18.5767 71.6442 18.321C71.9879 18.0653 72.1598 17.6648 72.1598 17.1193V15.7898H72.0746C72.0007 15.9091 71.8956 16.0568 71.7592 16.233C71.6257 16.4062 71.4325 16.5611 71.1797 16.6974C70.9297 16.831 70.5916 16.8977 70.1655 16.8977C69.6371 16.8977 69.1626 16.7727 68.7422 16.5227C68.3246 16.2727 67.9936 15.9091 67.7493 15.4318C67.5078 14.9545 67.3871 14.375 67.3871 13.6932C67.3871 13.0227 67.505 12.4389 67.7408 11.9418C67.9766 11.4418 68.3047 11.0554 68.7251 10.7827C69.1456 10.5071 69.6314 10.3693 70.1825 10.3693C70.6087 10.3693 70.9467 10.4403 71.1967 10.5824C71.4496 10.7216 71.6428 10.8807 71.7763 11.0597C71.9126 11.2358 72.0178 11.3807 72.0916 11.4943H72.1939V10.4545H73.1655V17.1875C73.1655 17.75 73.0376 18.2074 72.782 18.5597C72.5291 18.9148 72.1882 19.1747 71.7592 19.3395C71.3331 19.5071 70.8587 19.5909 70.3359 19.5909ZM70.3018 15.9943C70.7053 15.9943 71.0462 15.902 71.3246 15.7173C71.603 15.5327 71.8146 15.267 71.9595 14.9205C72.1044 14.5739 72.1768 14.1591 72.1768 13.6761C72.1768 13.2045 72.1058 12.7884 71.9638 12.4276C71.8217 12.0668 71.6115 11.7841 71.3331 11.5795C71.0547 11.375 70.7109 11.2727 70.3018 11.2727C69.8757 11.2727 69.5206 11.3807 69.2365 11.5966C68.9553 11.8125 68.7436 12.1023 68.6016 12.4659C68.4624 12.8295 68.3928 13.233 68.3928 13.6761C68.3928 14.1307 68.4638 14.5327 68.6058 14.8821C68.7507 15.2287 68.9638 15.5014 69.245 15.7003C69.5291 15.8963 69.8814 15.9943 70.3018 15.9943ZM76.9325 17.1534C76.5178 17.1534 76.1413 17.0753 75.8033 16.919C75.4652 16.7599 75.1967 16.5312 74.9979 16.233C74.799 15.9318 74.6996 15.5682 74.6996 15.142C74.6996 14.767 74.7734 14.4631 74.9212 14.2301C75.0689 13.9943 75.2663 13.8097 75.5135 13.6761C75.7607 13.5426 76.0334 13.4432 76.3317 13.3778C76.6328 13.3097 76.9354 13.2557 77.2393 13.2159C77.6371 13.1648 77.9595 13.1264 78.2067 13.1009C78.4567 13.0724 78.6385 13.0256 78.7521 12.9602C78.8686 12.8949 78.9268 12.7812 78.9268 12.6193V12.5852C78.9268 12.1648 78.8118 11.8381 78.5817 11.6051C78.3544 11.3722 78.0092 11.2557 77.5462 11.2557C77.0661 11.2557 76.6896 11.3608 76.4169 11.571C76.1442 11.7812 75.9524 12.0057 75.8416 12.2443L74.8871 11.9034C75.0575 11.5057 75.2848 11.196 75.5689 10.9744C75.8558 10.75 76.1683 10.5937 76.5064 10.5057C76.8473 10.4148 77.1825 10.3693 77.5121 10.3693C77.7223 10.3693 77.9638 10.3949 78.2365 10.446C78.5121 10.4943 78.7777 10.5952 79.0334 10.7486C79.2919 10.902 79.5064 11.1335 79.6768 11.4432C79.8473 11.7528 79.9325 12.1676 79.9325 12.6875V17H78.9268V16.1136H78.8757C78.8075 16.2557 78.6939 16.4077 78.5348 16.5696C78.3757 16.7315 78.1641 16.8693 77.8999 16.983C77.6357 17.0966 77.3132 17.1534 76.9325 17.1534ZM77.0859 16.25C77.4837 16.25 77.8189 16.1719 78.0916 16.0156C78.3672 15.8594 78.5746 15.6577 78.7138 15.4105C78.8558 15.1634 78.9268 14.9034 78.9268 14.6307V13.7102C78.8842 13.7614 78.7905 13.8082 78.6456 13.8509C78.5036 13.8906 78.3388 13.9261 78.1513 13.9574C77.9666 13.9858 77.7862 14.0114 77.6101 14.0341C77.4368 14.054 77.2962 14.071 77.1882 14.0852C76.9268 14.1193 76.6825 14.1747 76.4553 14.2514C76.2308 14.3253 76.049 14.4375 75.9098 14.5881C75.7734 14.7358 75.7053 14.9375 75.7053 15.1932C75.7053 15.5426 75.8345 15.8068 76.093 15.9858C76.3544 16.1619 76.6854 16.25 77.0859 16.25ZM84.4102 19.5909C83.9244 19.5909 83.5067 19.5284 83.1573 19.4034C82.8079 19.2812 82.5167 19.1193 82.2837 18.9176C82.0536 18.7188 81.8704 18.5057 81.734 18.2784L82.5352 17.7159C82.6261 17.8352 82.7411 17.9716 82.8803 18.125C83.0195 18.2812 83.2099 18.4162 83.4513 18.5298C83.6957 18.6463 84.0153 18.7045 84.4102 18.7045C84.9386 18.7045 85.3746 18.5767 85.7184 18.321C86.0621 18.0653 86.234 17.6648 86.234 17.1193V15.7898H86.1488C86.0749 15.9091 85.9698 16.0568 85.8335 16.233C85.6999 16.4062 85.5067 16.5611 85.2539 16.6974C85.0039 16.831 84.6658 16.8977 84.2397 16.8977C83.7113 16.8977 83.2369 16.7727 82.8164 16.5227C82.3988 16.2727 82.0678 15.9091 81.8235 15.4318C81.582 14.9545 81.4613 14.375 81.4613 13.6932C81.4613 13.0227 81.5792 12.4389 81.815 11.9418C82.0508 11.4418 82.3789 11.0554 82.7994 10.7827C83.2198 10.5071 83.7056 10.3693 84.2567 10.3693C84.6829 10.3693 85.021 10.4403 85.271 10.5824C85.5238 10.7216 85.717 10.8807 85.8505 11.0597C85.9869 11.2358 86.092 11.3807 86.1658 11.4943H86.2681V10.4545H87.2397V17.1875C87.2397 17.75 87.1119 18.2074 86.8562 18.5597C86.6033 18.9148 86.2624 19.1747 85.8335 19.3395C85.4073 19.5071 84.9329 19.5909 84.4102 19.5909ZM84.3761 15.9943C84.7795 15.9943 85.1204 15.902 85.3988 15.7173C85.6772 15.5327 85.8888 15.267 86.0337 14.9205C86.1786 14.5739 86.2511 14.1591 86.2511 13.6761C86.2511 13.2045 86.18 12.7884 86.038 12.4276C85.896 12.0668 85.6857 11.7841 85.4073 11.5795C85.1289 11.375 84.7852 11.2727 84.3761 11.2727C83.9499 11.2727 83.5948 11.3807 83.3107 11.5966C83.0295 11.8125 82.8178 12.1023 82.6758 12.4659C82.5366 12.8295 82.467 13.233 82.467 13.6761C82.467 14.1307 82.538 14.5327 82.68 14.8821C82.8249 15.2287 83.038 15.5014 83.3192 15.7003C83.6033 15.8963 83.9556 15.9943 84.3761 15.9943ZM91.8249 17.1364C91.1942 17.1364 90.6502 16.9972 90.1928 16.7188C89.7383 16.4375 89.3874 16.0455 89.1403 15.5426C88.896 15.0369 88.7738 14.4489 88.7738 13.7784C88.7738 13.108 88.896 12.517 89.1403 12.0057C89.3874 11.4915 89.7312 11.0909 90.1715 10.804C90.6147 10.5142 91.1317 10.3693 91.7227 10.3693C92.0636 10.3693 92.4002 10.4261 92.7326 10.5398C93.065 10.6534 93.3675 10.8381 93.6403 11.0938C93.913 11.3466 94.1303 11.6818 94.2923 12.0994C94.4542 12.517 94.5352 13.0312 94.5352 13.642V14.0682H89.4897V13.1989H93.5124C93.5124 12.8295 93.4386 12.5 93.2908 12.2102C93.146 11.9205 92.9386 11.6918 92.6687 11.5241C92.4016 11.3565 92.0863 11.2727 91.7227 11.2727C91.3221 11.2727 90.9755 11.3722 90.6829 11.571C90.3931 11.767 90.1701 12.0227 90.0138 12.3381C89.8576 12.6534 89.7795 12.9915 89.7795 13.3523V13.9318C89.7795 14.4261 89.8647 14.8452 90.0352 15.1889C90.2085 15.5298 90.4485 15.7898 90.7553 15.9688C91.0621 16.1449 91.4187 16.233 91.8249 16.233C92.0891 16.233 92.3278 16.196 92.5408 16.1222C92.7567 16.0455 92.9428 15.9318 93.0991 15.7812C93.2553 15.6278 93.3761 15.4375 93.4613 15.2102L94.4329 15.483C94.3306 15.8125 94.1587 16.1023 93.9173 16.3523C93.6758 16.5994 93.3775 16.7926 93.0224 16.9318C92.6673 17.0682 92.2681 17.1364 91.8249 17.1364ZM99.44 19.4545V10.4545H100.412V11.4943H100.531C100.605 11.3807 100.707 11.2358 100.838 11.0597C100.971 10.8807 101.162 10.7216 101.409 10.5824C101.659 10.4403 101.997 10.3693 102.423 10.3693C102.974 10.3693 103.46 10.5071 103.88 10.7827C104.301 11.0582 104.629 11.4489 104.865 11.9545C105.1 12.4602 105.218 13.0568 105.218 13.7443C105.218 14.4375 105.1 15.0384 104.865 15.5469C104.629 16.0526 104.302 16.4446 103.885 16.723C103.467 16.9986 102.985 17.1364 102.44 17.1364C102.02 17.1364 101.683 17.0668 101.43 16.9276C101.177 16.7855 100.983 16.625 100.846 16.446C100.71 16.2642 100.605 16.1136 100.531 15.9943H100.446V19.4545H99.44ZM100.429 13.7273C100.429 14.2216 100.501 14.6577 100.646 15.0355C100.791 15.4105 101.002 15.7045 101.281 15.9176C101.559 16.1278 101.9 16.233 102.304 16.233C102.724 16.233 103.075 16.1222 103.356 15.9006C103.64 15.6761 103.853 15.375 103.995 14.9972C104.14 14.6165 104.213 14.1932 104.213 13.7273C104.213 13.267 104.142 12.8523 104 12.483C103.86 12.1108 103.649 11.8168 103.365 11.6009C103.083 11.3821 102.73 11.2727 102.304 11.2727C101.895 11.2727 101.551 11.3764 101.272 11.5838C100.994 11.7884 100.784 12.0753 100.642 12.4446C100.5 12.8111 100.429 13.2386 100.429 13.7273ZM109.412 17.1364C108.821 17.1364 108.302 16.9957 107.856 16.7145C107.413 16.4332 107.066 16.0398 106.816 15.5341C106.569 15.0284 106.446 14.4375 106.446 13.7614C106.446 13.0795 106.569 12.4844 106.816 11.9759C107.066 11.4673 107.413 11.0724 107.856 10.7912C108.302 10.5099 108.821 10.3693 109.412 10.3693C110.002 10.3693 110.52 10.5099 110.963 10.7912C111.409 11.0724 111.755 11.4673 112.002 11.9759C112.252 12.4844 112.377 13.0795 112.377 13.7614C112.377 14.4375 112.252 15.0284 112.002 15.5341C111.755 16.0398 111.409 16.4332 110.963 16.7145C110.52 16.9957 110.002 17.1364 109.412 17.1364ZM109.412 16.233C109.86 16.233 110.23 16.1179 110.52 15.8878C110.809 15.6577 111.024 15.3551 111.163 14.9801C111.302 14.6051 111.372 14.1989 111.372 13.7614C111.372 13.3239 111.302 12.9162 111.163 12.5384C111.024 12.1605 110.809 11.8551 110.52 11.6222C110.23 11.3892 109.86 11.2727 109.412 11.2727C108.963 11.2727 108.593 11.3892 108.304 11.6222C108.014 11.8551 107.799 12.1605 107.66 12.5384C107.521 12.9162 107.451 13.3239 107.451 13.7614C107.451 14.1989 107.521 14.6051 107.66 14.9801C107.799 15.3551 108.014 15.6577 108.304 15.8878C108.593 16.1179 108.963 16.233 109.412 16.233ZM118.038 14.3239V10.4545H119.043V17H118.038V15.892H117.969C117.816 16.2244 117.577 16.5071 117.254 16.7401C116.93 16.9702 116.521 17.0852 116.026 17.0852C115.617 17.0852 115.254 16.9957 114.935 16.8168C114.617 16.6349 114.367 16.3622 114.185 15.9986C114.004 15.6321 113.913 15.1705 113.913 14.6136V10.4545H114.918V14.5455C114.918 15.0227 115.052 15.4034 115.319 15.6875C115.589 15.9716 115.933 16.1136 116.35 16.1136C116.6 16.1136 116.854 16.0497 117.113 15.9219C117.374 15.794 117.593 15.598 117.769 15.3338C117.948 15.0696 118.038 14.733 118.038 14.3239ZM120.885 17V10.4545H121.857V11.4432H121.925C122.044 11.1193 122.26 10.8565 122.573 10.6548C122.885 10.4531 123.238 10.3523 123.63 10.3523C123.703 10.3523 123.796 10.3537 123.907 10.3565C124.017 10.3594 124.101 10.3636 124.158 10.3693V11.392C124.124 11.3835 124.046 11.3707 123.924 11.3537C123.804 11.3338 123.678 11.3239 123.544 11.3239C123.226 11.3239 122.942 11.3906 122.692 11.5241C122.445 11.6548 122.249 11.8366 122.104 12.0696C121.962 12.2997 121.891 12.5625 121.891 12.858V17H120.885ZM129.731 8.27273V17H128.725V8.27273H129.731ZM133.499 17.1534C133.084 17.1534 132.708 17.0753 132.37 16.919C132.032 16.7599 131.763 16.5312 131.564 16.233C131.365 15.9318 131.266 15.5682 131.266 15.142C131.266 14.767 131.34 14.4631 131.488 14.2301C131.635 13.9943 131.833 13.8097 132.08 13.6761C132.327 13.5426 132.6 13.4432 132.898 13.3778C133.199 13.3097 133.502 13.2557 133.806 13.2159C134.203 13.1648 134.526 13.1264 134.773 13.1009C135.023 13.0724 135.205 13.0256 135.319 12.9602C135.435 12.8949 135.493 12.7812 135.493 12.6193V12.5852C135.493 12.1648 135.378 11.8381 135.148 11.6051C134.921 11.3722 134.576 11.2557 134.113 11.2557C133.632 11.2557 133.256 11.3608 132.983 11.571C132.711 11.7812 132.519 12.0057 132.408 12.2443L131.453 11.9034C131.624 11.5057 131.851 11.196 132.135 10.9744C132.422 10.75 132.735 10.5937 133.073 10.5057C133.414 10.4148 133.749 10.3693 134.078 10.3693C134.289 10.3693 134.53 10.3949 134.803 10.446C135.078 10.4943 135.344 10.5952 135.6 10.7486C135.858 10.902 136.073 11.1335 136.243 11.4432C136.414 11.7528 136.499 12.1676 136.499 12.6875V17H135.493V16.1136H135.442C135.374 16.2557 135.26 16.4077 135.101 16.5696C134.942 16.7315 134.73 16.8693 134.466 16.983C134.202 17.0966 133.88 17.1534 133.499 17.1534ZM133.652 16.25C134.05 16.25 134.385 16.1719 134.658 16.0156C134.934 15.8594 135.141 15.6577 135.28 15.4105C135.422 15.1634 135.493 14.9034 135.493 14.6307V13.7102C135.451 13.7614 135.357 13.8082 135.212 13.8509C135.07 13.8906 134.905 13.9261 134.718 13.9574C134.533 13.9858 134.353 14.0114 134.176 14.0341C134.003 14.054 133.863 14.071 133.755 14.0852C133.493 14.1193 133.249 14.1747 133.022 14.2514C132.797 14.3253 132.615 14.4375 132.476 14.5881C132.34 14.7358 132.272 14.9375 132.272 15.1932C132.272 15.5426 132.401 15.8068 132.659 15.9858C132.921 16.1619 133.252 16.25 133.652 16.25ZM141.71 19.4545V10.4545H142.681V11.4943H142.8C142.874 11.3807 142.977 11.2358 143.107 11.0597C143.241 10.8807 143.431 10.7216 143.678 10.5824C143.928 10.4403 144.266 10.3693 144.692 10.3693C145.244 10.3693 145.729 10.5071 146.15 10.7827C146.57 11.0582 146.898 11.4489 147.134 11.9545C147.37 12.4602 147.488 13.0568 147.488 13.7443C147.488 14.4375 147.37 15.0384 147.134 15.5469C146.898 16.0526 146.572 16.4446 146.154 16.723C145.737 16.9986 145.255 17.1364 144.71 17.1364C144.289 17.1364 143.952 17.0668 143.7 16.9276C143.447 16.7855 143.252 16.625 143.116 16.446C142.979 16.2642 142.874 16.1136 142.8 15.9943H142.715V19.4545H141.71ZM142.698 13.7273C142.698 14.2216 142.771 14.6577 142.915 15.0355C143.06 15.4105 143.272 15.7045 143.55 15.9176C143.829 16.1278 144.17 16.233 144.573 16.233C144.994 16.233 145.344 16.1222 145.626 15.9006C145.91 15.6761 146.123 15.375 146.265 14.9972C146.41 14.6165 146.482 14.1932 146.482 13.7273C146.482 13.267 146.411 12.8523 146.269 12.483C146.13 12.1108 145.918 11.8168 145.634 11.6009C145.353 11.3821 144.999 11.2727 144.573 11.2727C144.164 11.2727 143.82 11.3764 143.542 11.5838C143.263 11.7884 143.053 12.0753 142.911 12.4446C142.769 12.8111 142.698 13.2386 142.698 13.7273ZM149.022 17V10.4545H149.994V11.4432H150.062C150.181 11.1193 150.397 10.8565 150.71 10.6548C151.022 10.4531 151.374 10.3523 151.766 10.3523C151.84 10.3523 151.933 10.3537 152.043 10.3565C152.154 10.3594 152.238 10.3636 152.295 10.3693V11.392C152.261 11.3835 152.183 11.3707 152.06 11.3537C151.941 11.3338 151.815 11.3239 151.681 11.3239C151.363 11.3239 151.079 11.3906 150.829 11.5241C150.582 11.6548 150.386 11.8366 150.241 12.0696C150.099 12.2997 150.028 12.5625 150.028 12.858V17H149.022ZM155.947 17.1364C155.356 17.1364 154.837 16.9957 154.391 16.7145C153.948 16.4332 153.602 16.0398 153.352 15.5341C153.104 15.0284 152.981 14.4375 152.981 13.7614C152.981 13.0795 153.104 12.4844 153.352 11.9759C153.602 11.4673 153.948 11.0724 154.391 10.7912C154.837 10.5099 155.356 10.3693 155.947 10.3693C156.538 10.3693 157.055 10.5099 157.498 10.7912C157.944 11.0724 158.29 11.4673 158.538 11.9759C158.788 12.4844 158.913 13.0795 158.913 13.7614C158.913 14.4375 158.788 15.0284 158.538 15.5341C158.29 16.0398 157.944 16.4332 157.498 16.7145C157.055 16.9957 156.538 17.1364 155.947 17.1364ZM155.947 16.233C156.396 16.233 156.765 16.1179 157.055 15.8878C157.344 15.6577 157.559 15.3551 157.698 14.9801C157.837 14.6051 157.907 14.1989 157.907 13.7614C157.907 13.3239 157.837 12.9162 157.698 12.5384C157.559 12.1605 157.344 11.8551 157.055 11.6222C156.765 11.3892 156.396 11.2727 155.947 11.2727C155.498 11.2727 155.129 11.3892 154.839 11.6222C154.549 11.8551 154.335 12.1605 154.195 12.5384C154.056 12.9162 153.987 13.3239 153.987 13.7614C153.987 14.1989 154.056 14.6051 154.195 14.9801C154.335 15.3551 154.549 15.6577 154.839 15.8878C155.129 16.1179 155.498 16.233 155.947 16.233ZM163.294 10.4545V11.3068H159.902V10.4545H163.294ZM160.891 8.88636H161.897V15.125C161.897 15.4091 161.938 15.6222 162.02 15.7642C162.105 15.9034 162.213 15.9972 162.344 16.0455C162.478 16.0909 162.618 16.1136 162.766 16.1136C162.877 16.1136 162.968 16.108 163.039 16.0966C163.11 16.0824 163.167 16.071 163.209 16.0625L163.414 16.9659C163.346 16.9915 163.25 17.017 163.128 17.0426C163.006 17.071 162.851 17.0852 162.664 17.0852C162.38 17.0852 162.101 17.0241 161.828 16.902C161.559 16.7798 161.334 16.5938 161.155 16.3438C160.979 16.0938 160.891 15.7784 160.891 15.3977V8.88636ZM167.481 17.1364C166.85 17.1364 166.306 16.9972 165.849 16.7188C165.395 16.4375 165.044 16.0455 164.797 15.5426C164.552 15.0369 164.43 14.4489 164.43 13.7784C164.43 13.108 164.552 12.517 164.797 12.0057C165.044 11.4915 165.387 11.0909 165.828 10.804C166.271 10.5142 166.788 10.3693 167.379 10.3693C167.72 10.3693 168.056 10.4261 168.389 10.5398C168.721 10.6534 169.024 10.8381 169.297 11.0938C169.569 11.3466 169.787 11.6818 169.949 12.0994C170.11 12.517 170.191 13.0312 170.191 13.642V14.0682H165.146V13.1989H169.169C169.169 12.8295 169.095 12.5 168.947 12.2102C168.802 11.9205 168.595 11.6918 168.325 11.5241C168.058 11.3565 167.743 11.2727 167.379 11.2727C166.978 11.2727 166.632 11.3722 166.339 11.571C166.049 11.767 165.826 12.0227 165.67 12.3381C165.514 12.6534 165.436 12.9915 165.436 13.3523V13.9318C165.436 14.4261 165.521 14.8452 165.691 15.1889C165.865 15.5298 166.105 15.7898 166.412 15.9688C166.718 16.1449 167.075 16.233 167.481 16.233C167.745 16.233 167.984 16.196 168.197 16.1222C168.413 16.0455 168.599 15.9318 168.755 15.7812C168.912 15.6278 169.032 15.4375 169.118 15.2102L170.089 15.483C169.987 15.8125 169.815 16.1023 169.574 16.3523C169.332 16.5994 169.034 16.7926 168.679 16.9318C168.324 17.0682 167.924 17.1364 167.481 17.1364ZM174.38 17.1364C173.767 17.1364 173.238 16.9915 172.795 16.7017C172.352 16.4119 172.011 16.0128 171.772 15.5043C171.534 14.9957 171.414 14.4148 171.414 13.7614C171.414 13.0966 171.537 12.5099 171.781 12.0014C172.028 11.4901 172.372 11.0909 172.812 10.804C173.255 10.5142 173.772 10.3693 174.363 10.3693C174.824 10.3693 175.238 10.4545 175.608 10.625C175.977 10.7955 176.279 11.0341 176.515 11.3409C176.751 11.6477 176.897 12.0057 176.954 12.4148H175.949C175.872 12.1165 175.701 11.8523 175.437 11.6222C175.176 11.3892 174.824 11.2727 174.38 11.2727C173.988 11.2727 173.645 11.375 173.349 11.5795C173.056 11.7812 172.828 12.0668 172.663 12.4361C172.501 12.8026 172.42 13.233 172.42 13.7273C172.42 14.233 172.5 14.6733 172.659 15.0483C172.821 15.4233 173.048 15.7145 173.341 15.9219C173.636 16.1293 173.983 16.233 174.38 16.233C174.642 16.233 174.879 16.1875 175.092 16.0966C175.305 16.0057 175.485 15.875 175.633 15.7045C175.781 15.5341 175.886 15.3295 175.949 15.0909H176.954C176.897 15.4773 176.757 15.8253 176.532 16.1349C176.311 16.4418 176.017 16.6861 175.65 16.8679C175.287 17.0469 174.863 17.1364 174.38 17.1364ZM181.271 10.4545V11.3068H177.879V10.4545H181.271ZM178.868 8.88636H179.873V15.125C179.873 15.4091 179.914 15.6222 179.997 15.7642C180.082 15.9034 180.19 15.9972 180.321 16.0455C180.454 16.0909 180.595 16.1136 180.743 16.1136C180.853 16.1136 180.944 16.108 181.015 16.0966C181.086 16.0824 181.143 16.071 181.186 16.0625L181.39 16.9659C181.322 16.9915 181.227 17.017 181.105 17.0426C180.983 17.071 180.828 17.0852 180.64 17.0852C180.356 17.0852 180.078 17.0241 179.805 16.902C179.535 16.7798 179.311 16.5938 179.132 16.3438C178.956 16.0938 178.868 15.7784 178.868 15.3977V8.88636ZM182.784 17V10.4545H183.789V17H182.784ZM183.295 9.36364C183.099 9.36364 182.93 9.29688 182.788 9.16335C182.649 9.02983 182.579 8.86932 182.579 8.68182C182.579 8.49432 182.649 8.33381 182.788 8.20028C182.93 8.06676 183.099 8 183.295 8C183.491 8 183.659 8.06676 183.798 8.20028C183.94 8.33381 184.011 8.49432 184.011 8.68182C184.011 8.86932 183.94 9.02983 183.798 9.16335C183.659 9.29688 183.491 9.36364 183.295 9.36364ZM188.29 17.1364C187.7 17.1364 187.181 16.9957 186.735 16.7145C186.292 16.4332 185.945 16.0398 185.695 15.5341C185.448 15.0284 185.325 14.4375 185.325 13.7614C185.325 13.0795 185.448 12.4844 185.695 11.9759C185.945 11.4673 186.292 11.0724 186.735 10.7912C187.181 10.5099 187.7 10.3693 188.29 10.3693C188.881 10.3693 189.398 10.5099 189.842 10.7912C190.288 11.0724 190.634 11.4673 190.881 11.9759C191.131 12.4844 191.256 13.0795 191.256 13.7614C191.256 14.4375 191.131 15.0284 190.881 15.5341C190.634 16.0398 190.288 16.4332 189.842 16.7145C189.398 16.9957 188.881 17.1364 188.29 17.1364ZM188.29 16.233C188.739 16.233 189.109 16.1179 189.398 15.8878C189.688 15.6577 189.903 15.3551 190.042 14.9801C190.181 14.6051 190.251 14.1989 190.251 13.7614C190.251 13.3239 190.181 12.9162 190.042 12.5384C189.903 12.1605 189.688 11.8551 189.398 11.6222C189.109 11.3892 188.739 11.2727 188.29 11.2727C187.842 11.2727 187.472 11.3892 187.183 11.6222C186.893 11.8551 186.678 12.1605 186.539 12.5384C186.4 12.9162 186.33 13.3239 186.33 13.7614C186.33 14.1989 186.4 14.6051 186.539 14.9801C186.678 15.3551 186.893 15.6577 187.183 15.8878C187.472 16.1179 187.842 16.233 188.29 16.233ZM193.797 13.0625V17H192.792V10.4545H193.763V11.4773H193.848C194.002 11.1449 194.235 10.8778 194.547 10.6761C194.86 10.4716 195.263 10.3693 195.757 10.3693C196.201 10.3693 196.588 10.4602 196.921 10.642C197.253 10.821 197.512 11.0938 197.696 11.4602C197.881 11.8239 197.973 12.2841 197.973 12.8409V17H196.968V12.9091C196.968 12.3949 196.834 11.9943 196.567 11.7074C196.3 11.4176 195.934 11.2727 195.468 11.2727C195.147 11.2727 194.86 11.3423 194.607 11.4815C194.357 11.6207 194.159 11.8239 194.015 12.0909C193.87 12.358 193.797 12.6818 193.797 13.0625ZM27.392 32.1364C26.8466 32.1364 26.3651 31.9986 25.9474 31.723C25.5298 31.4446 25.2031 31.0526 24.9673 30.5469C24.7315 30.0384 24.6136 29.4375 24.6136 28.7443C24.6136 28.0568 24.7315 27.4602 24.9673 26.9545C25.2031 26.4489 25.5313 26.0582 25.9517 25.7827C26.3722 25.5071 26.858 25.3693 27.4091 25.3693C27.8352 25.3693 28.1719 25.4403 28.419 25.5824C28.669 25.7216 28.8594 25.8807 28.9901 26.0597C29.1236 26.2358 29.2273 26.3807 29.3011 26.4943H29.3864V23.2727H30.392V32H29.4205V30.9943H29.3011C29.2273 31.1136 29.1222 31.2642 28.9858 31.446C28.8494 31.625 28.6548 31.7855 28.402 31.9276C28.1491 32.0668 27.8125 32.1364 27.392 32.1364ZM27.5284 31.233C27.9318 31.233 28.2727 31.1278 28.5511 30.9176C28.8295 30.7045 29.0412 30.4105 29.1861 30.0355C29.331 29.6577 29.4034 29.2216 29.4034 28.7273C29.4034 28.2386 29.3324 27.8111 29.1903 27.4446C29.0483 27.0753 28.8381 26.7884 28.5597 26.5838C28.2813 26.3764 27.9375 26.2727 27.5284 26.2727C27.1023 26.2727 26.7472 26.3821 26.4631 26.6009C26.1818 26.8168 25.9702 27.1108 25.8281 27.483C25.6889 27.8523 25.6193 28.267 25.6193 28.7273C25.6193 29.1932 25.6903 29.6165 25.8324 29.9972C25.9773 30.375 26.1903 30.6761 26.4716 30.9006C26.7557 31.1222 27.108 31.233 27.5284 31.233ZM35.1179 32.1364C34.4872 32.1364 33.9432 31.9972 33.4858 31.7188C33.0312 31.4375 32.6804 31.0455 32.4332 30.5426C32.1889 30.0369 32.0668 29.4489 32.0668 28.7784C32.0668 28.108 32.1889 27.517 32.4332 27.0057C32.6804 26.4915 33.0241 26.0909 33.4645 25.804C33.9077 25.5142 34.4247 25.3693 35.0156 25.3693C35.3565 25.3693 35.6932 25.4261 36.0256 25.5398C36.358 25.6534 36.6605 25.8381 36.9332 26.0938C37.206 26.3466 37.4233 26.6818 37.5852 27.0994C37.7472 27.517 37.8281 28.0312 37.8281 28.642V29.0682H32.7827V28.1989H36.8054C36.8054 27.8295 36.7315 27.5 36.5838 27.2102C36.4389 26.9205 36.2315 26.6918 35.9616 26.5241C35.6946 26.3565 35.3793 26.2727 35.0156 26.2727C34.6151 26.2727 34.2685 26.3722 33.9759 26.571C33.6861 26.767 33.4631 27.0227 33.3068 27.3381C33.1506 27.6534 33.0724 27.9915 33.0724 28.3523V28.9318C33.0724 29.4261 33.1577 29.8452 33.3281 30.1889C33.5014 30.5298 33.7415 30.7898 34.0483 30.9688C34.3551 31.1449 34.7116 31.233 35.1179 31.233C35.3821 31.233 35.6207 31.196 35.8338 31.1222C36.0497 31.0455 36.2358 30.9318 36.392 30.7812C36.5483 30.6278 36.669 30.4375 36.7543 30.2102L37.7259 30.483C37.6236 30.8125 37.4517 31.1023 37.2102 31.3523C36.9688 31.5994 36.6705 31.7926 36.3153 31.9318C35.9602 32.0682 35.5611 32.1364 35.1179 32.1364ZM43.7386 23.2727V32H42.733V23.2727H43.7386ZM46.467 23.2727V24.0398C46.467 24.2727 46.4244 24.5213 46.3391 24.7855C46.2567 25.0469 46.1346 25.3011 45.9727 25.5483C45.8136 25.7926 45.6204 26.0057 45.3931 26.1875L44.8477 25.7443C45.0266 25.4886 45.1815 25.223 45.3121 24.9474C45.4457 24.669 45.5124 24.3722 45.5124 24.0568V23.2727H46.467ZM49.7898 32.1364C49.1591 32.1364 48.6151 31.9972 48.1577 31.7188C47.7031 31.4375 47.3523 31.0455 47.1051 30.5426C46.8608 30.0369 46.7386 29.4489 46.7386 28.7784C46.7386 28.108 46.8608 27.517 47.1051 27.0057C47.3523 26.4915 47.696 26.0909 48.1364 25.804C48.5795 25.5142 49.0966 25.3693 49.6875 25.3693C50.0284 25.3693 50.3651 25.4261 50.6974 25.5398C51.0298 25.6534 51.3324 25.8381 51.6051 26.0938C51.8778 26.3466 52.0952 26.6818 52.2571 27.0994C52.419 27.517 52.5 28.0312 52.5 28.642V29.0682H47.4545V28.1989H51.4773C51.4773 27.8295 51.4034 27.5 51.2557 27.2102C51.1108 26.9205 50.9034 26.6918 50.6335 26.5241C50.3665 26.3565 50.0511 26.2727 49.6875 26.2727C49.2869 26.2727 48.9403 26.3722 48.6477 26.571C48.358 26.767 48.1349 27.0227 47.9787 27.3381C47.8224 27.6534 47.7443 27.9915 47.7443 28.3523V28.9318C47.7443 29.4261 47.8295 29.8452 48 30.1889C48.1733 30.5298 48.4134 30.7898 48.7202 30.9688C49.027 31.1449 49.3835 31.233 49.7898 31.233C50.054 31.233 50.2926 31.196 50.5057 31.1222C50.7216 31.0455 50.9077 30.9318 51.0639 30.7812C51.2202 30.6278 51.3409 30.4375 51.4261 30.2102L52.3977 30.483C52.2955 30.8125 52.1236 31.1023 51.8821 31.3523C51.6406 31.5994 51.3423 31.7926 50.9872 31.9318C50.6321 32.0682 50.233 32.1364 49.7898 32.1364ZM55.0355 28.0625V32H54.0298V25.4545H55.0014V26.4773H55.0866C55.2401 26.1449 55.473 25.8778 55.7855 25.6761C56.098 25.4716 56.5014 25.3693 56.9957 25.3693C57.4389 25.3693 57.8267 25.4602 58.1591 25.642C58.4915 25.821 58.75 26.0938 58.9347 26.4602C59.1193 26.8239 59.2116 27.2841 59.2116 27.8409V32H58.206V27.9091C58.206 27.3949 58.0724 26.9943 57.8054 26.7074C57.5384 26.4176 57.1719 26.2727 56.706 26.2727C56.3849 26.2727 56.098 26.3423 55.8452 26.4815C55.5952 26.6207 55.3977 26.8239 55.2528 27.0909C55.108 27.358 55.0355 27.6818 55.0355 28.0625ZM66.1673 25.4545L63.7468 32H62.7241L60.3036 25.4545H61.3945L63.2013 30.6705H63.2695L65.0763 25.4545H66.1673ZM67.4947 32V25.4545H68.5004V32H67.4947ZM68.006 24.3636C67.81 24.3636 67.641 24.2969 67.4989 24.1634C67.3597 24.0298 67.2901 23.8693 67.2901 23.6818C67.2901 23.4943 67.3597 23.3338 67.4989 23.2003C67.641 23.0668 67.81 23 68.006 23C68.2021 23 68.3697 23.0668 68.5089 23.2003C68.6509 23.3338 68.7219 23.4943 68.7219 23.6818C68.7219 23.8693 68.6509 24.0298 68.5089 24.1634C68.3697 24.2969 68.2021 24.3636 68.006 24.3636ZM70.3423 32V25.4545H71.3139V26.4432H71.3821C71.5014 26.1193 71.7173 25.8565 72.0298 25.6548C72.3423 25.4531 72.6946 25.3523 73.0866 25.3523C73.1605 25.3523 73.2528 25.3537 73.3636 25.3565C73.4744 25.3594 73.5582 25.3636 73.6151 25.3693V26.392C73.581 26.3835 73.5028 26.3707 73.3807 26.3537C73.2614 26.3338 73.1349 26.3239 73.0014 26.3239C72.6832 26.3239 72.3991 26.3906 72.1491 26.5241C71.902 26.6548 71.706 26.8366 71.5611 27.0696C71.419 27.2997 71.348 27.5625 71.348 27.858V32H70.3423ZM77.267 32.1364C76.6761 32.1364 76.1577 31.9957 75.7116 31.7145C75.2685 31.4332 74.9219 31.0398 74.6719 30.5341C74.4247 30.0284 74.3011 29.4375 74.3011 28.7614C74.3011 28.0795 74.4247 27.4844 74.6719 26.9759C74.9219 26.4673 75.2685 26.0724 75.7116 25.7912C76.1577 25.5099 76.6761 25.3693 77.267 25.3693C77.858 25.3693 78.375 25.5099 78.8182 25.7912C79.2642 26.0724 79.6108 26.4673 79.858 26.9759C80.108 27.4844 80.233 28.0795 80.233 28.7614C80.233 29.4375 80.108 30.0284 79.858 30.5341C79.6108 31.0398 79.2642 31.4332 78.8182 31.7145C78.375 31.9957 77.858 32.1364 77.267 32.1364ZM77.267 31.233C77.7159 31.233 78.0852 31.1179 78.375 30.8878C78.6648 30.6577 78.8793 30.3551 79.0185 29.9801C79.1577 29.6051 79.2273 29.1989 79.2273 28.7614C79.2273 28.3239 79.1577 27.9162 79.0185 27.5384C78.8793 27.1605 78.6648 26.8551 78.375 26.6222C78.0852 26.3892 77.7159 26.2727 77.267 26.2727C76.8182 26.2727 76.4489 26.3892 76.1591 26.6222C75.8693 26.8551 75.6548 27.1605 75.5156 27.5384C75.3764 27.9162 75.3068 28.3239 75.3068 28.7614C75.3068 29.1989 75.3764 29.6051 75.5156 29.9801C75.6548 30.3551 75.8693 30.6577 76.1591 30.8878C76.4489 31.1179 76.8182 31.233 77.267 31.233ZM82.7738 28.0625V32H81.7681V25.4545H82.7397V26.4773H82.8249C82.9783 26.1449 83.2113 25.8778 83.5238 25.6761C83.8363 25.4716 84.2397 25.3693 84.734 25.3693C85.1772 25.3693 85.565 25.4602 85.8974 25.642C86.2298 25.821 86.4883 26.0938 86.6729 26.4602C86.8576 26.8239 86.9499 27.2841 86.9499 27.8409V32H85.9442V27.9091C85.9442 27.3949 85.8107 26.9943 85.5437 26.7074C85.2766 26.4176 84.9102 26.2727 84.4442 26.2727C84.1232 26.2727 83.8363 26.3423 83.5835 26.4815C83.3335 26.6207 83.136 26.8239 82.9911 27.0909C82.8462 27.358 82.7738 27.6818 82.7738 28.0625ZM89.7933 28.0625V32H88.7876V25.4545H89.7592V26.4773H89.8445C89.9979 26.1449 90.2308 25.8778 90.5433 25.6761C90.8558 25.4716 91.2592 25.3693 91.7536 25.3693C92.1967 25.3693 92.5845 25.4602 92.9169 25.642C93.2493 25.821 93.5078 26.0938 93.6925 26.4602C93.8771 26.8239 93.9695 27.2841 93.9695 27.8409V32H92.9638V27.9091C92.9638 27.3949 92.8303 26.9943 92.5632 26.7074C92.2962 26.4176 91.9297 26.2727 91.4638 26.2727C91.1428 26.2727 90.8558 26.3423 90.603 26.4815C90.353 26.6207 90.1555 26.8239 90.0107 27.0909C89.8658 27.358 89.7933 27.6818 89.7933 28.0625ZM98.5515 32.1364C97.9208 32.1364 97.3768 31.9972 96.9194 31.7188C96.4648 31.4375 96.114 31.0455 95.8668 30.5426C95.6225 30.0369 95.5004 29.4489 95.5004 28.7784C95.5004 28.108 95.6225 27.517 95.8668 27.0057C96.114 26.4915 96.4577 26.0909 96.8981 25.804C97.3413 25.5142 97.8583 25.3693 98.4492 25.3693C98.7901 25.3693 99.1268 25.4261 99.4592 25.5398C99.7915 25.6534 100.094 25.8381 100.367 26.0938C100.64 26.3466 100.857 26.6818 101.019 27.0994C101.181 27.517 101.262 28.0312 101.262 28.642V29.0682H96.2163V28.1989H100.239C100.239 27.8295 100.165 27.5 100.017 27.2102C99.8725 26.9205 99.6651 26.6918 99.3952 26.5241C99.1282 26.3565 98.8129 26.2727 98.4492 26.2727C98.0487 26.2727 97.7021 26.3722 97.4094 26.571C97.1197 26.767 96.8967 27.0227 96.7404 27.3381C96.5842 27.6534 96.506 27.9915 96.506 28.3523V28.9318C96.506 29.4261 96.5913 29.8452 96.7617 30.1889C96.935 30.5298 97.1751 30.7898 97.4819 30.9688C97.7887 31.1449 98.1452 31.233 98.5515 31.233C98.8157 31.233 99.0543 31.196 99.2674 31.1222C99.4833 31.0455 99.6694 30.9318 99.8256 30.7812C99.9819 30.6278 100.103 30.4375 100.188 30.2102L101.159 30.483C101.057 30.8125 100.885 31.1023 100.644 31.3523C100.402 31.5994 100.104 31.7926 99.7489 31.9318C99.3938 32.0682 98.9947 32.1364 98.5515 32.1364ZM102.792 32V25.4545H103.763V26.4773H103.848C103.985 26.1278 104.205 25.8565 104.509 25.6634C104.813 25.4673 105.178 25.3693 105.604 25.3693C106.036 25.3693 106.395 25.4673 106.682 25.6634C106.972 25.8565 107.198 26.1278 107.36 26.4773H107.428C107.596 26.1392 107.847 25.8707 108.182 25.6719C108.517 25.4702 108.919 25.3693 109.388 25.3693C109.973 25.3693 110.452 25.5526 110.824 25.919C111.196 26.2827 111.382 26.8494 111.382 27.6193V32H110.377V27.6193C110.377 27.1364 110.245 26.7912 109.98 26.5838C109.716 26.3764 109.405 26.2727 109.047 26.2727C108.587 26.2727 108.23 26.4119 107.978 26.6903C107.725 26.9659 107.598 27.3153 107.598 27.7386V32H106.576V27.517C106.576 27.1449 106.455 26.8452 106.213 26.6179C105.972 26.3878 105.661 26.2727 105.28 26.2727C105.019 26.2727 104.775 26.3423 104.547 26.4815C104.323 26.6207 104.141 26.8139 104.002 27.0611C103.865 27.3054 103.797 27.5881 103.797 27.9091V32H102.792ZM115.966 32.1364C115.335 32.1364 114.791 31.9972 114.333 31.7188C113.879 31.4375 113.528 31.0455 113.281 30.5426C113.037 30.0369 112.914 29.4489 112.914 28.7784C112.914 28.108 113.037 27.517 113.281 27.0057C113.528 26.4915 113.872 26.0909 114.312 25.804C114.755 25.5142 115.272 25.3693 115.863 25.3693C116.204 25.3693 116.541 25.4261 116.873 25.5398C117.206 25.6534 117.508 25.8381 117.781 26.0938C118.054 26.3466 118.271 26.6818 118.433 27.0994C118.595 27.517 118.676 28.0312 118.676 28.642V29.0682H113.63V28.1989H117.653C117.653 27.8295 117.579 27.5 117.431 27.2102C117.287 26.9205 117.079 26.6918 116.809 26.5241C116.542 26.3565 116.227 26.2727 115.863 26.2727C115.463 26.2727 115.116 26.3722 114.824 26.571C114.534 26.767 114.311 27.0227 114.154 27.3381C113.998 27.6534 113.92 27.9915 113.92 28.3523V28.9318C113.92 29.4261 114.005 29.8452 114.176 30.1889C114.349 30.5298 114.589 30.7898 114.896 30.9688C115.203 31.1449 115.559 31.233 115.966 31.233C116.23 31.233 116.468 31.196 116.681 31.1222C116.897 31.0455 117.083 30.9318 117.24 30.7812C117.396 30.6278 117.517 30.4375 117.602 30.2102L118.574 30.483C118.471 30.8125 118.299 31.1023 118.058 31.3523C117.816 31.5994 117.518 31.7926 117.163 31.9318C116.808 32.0682 116.409 32.1364 115.966 32.1364ZM121.211 28.0625V32H120.206V25.4545H121.177V26.4773H121.262C121.416 26.1449 121.649 25.8778 121.961 25.6761C122.274 25.4716 122.677 25.3693 123.172 25.3693C123.615 25.3693 124.002 25.4602 124.335 25.642C124.667 25.821 124.926 26.0938 125.11 26.4602C125.295 26.8239 125.387 27.2841 125.387 27.8409V32H124.382V27.9091C124.382 27.3949 124.248 26.9943 123.981 26.7074C123.714 26.4176 123.348 26.2727 122.882 26.2727C122.561 26.2727 122.274 26.3423 122.021 26.4815C121.771 26.6207 121.574 26.8239 121.429 27.0909C121.284 27.358 121.211 27.6818 121.211 28.0625ZM130.072 25.4545V26.3068H126.68V25.4545H130.072ZM127.668 23.8864H128.674V30.125C128.674 30.4091 128.715 30.6222 128.798 30.7642C128.883 30.9034 128.991 30.9972 129.121 31.0455C129.255 31.0909 129.396 31.1136 129.543 31.1136C129.654 31.1136 129.745 31.108 129.816 31.0966C129.887 31.0824 129.944 31.071 129.987 31.0625L130.191 31.9659C130.123 31.9915 130.028 32.017 129.906 32.0426C129.783 32.071 129.629 32.0852 129.441 32.0852C129.157 32.0852 128.879 32.0241 128.606 31.902C128.336 31.7798 128.112 31.5938 127.933 31.3438C127.756 31.0938 127.668 30.7784 127.668 30.3977V23.8864Z" fill="black"/>
<rect x="17.375" y="0.375" width="199.25" height="39.25" rx="7.625" stroke="black" stroke-opacity="0.35" stroke-width="0.75"/>
<circle cx="3.5" cy="20.5" r="3.5" fill="#164194" fill-opacity="0.3"/>
</svg>
