<svg width="217" height="40" viewBox="0 0 217 40" fill="none" xmlns="http://www.w3.org/2000/svg">
<path d="M28.3977 8.27273H29.4545V14.5114C29.4545 15.0682 29.3523 15.5412 29.1477 15.9304C28.9432 16.3196 28.6548 16.6151 28.2827 16.8168C27.9105 17.0185 27.4716 17.1193 26.9659 17.1193C26.4886 17.1193 26.0639 17.0327 25.6918 16.8594C25.3196 16.6832 25.027 16.4332 24.8139 16.1094C24.6009 15.7855 24.4943 15.4006 24.4943 14.9545H25.5341C25.5341 15.2017 25.5952 15.4176 25.7173 15.6023C25.8423 15.7841 26.0128 15.9261 26.2287 16.0284C26.4446 16.1307 26.6903 16.1818 26.9659 16.1818C27.2699 16.1818 27.5284 16.1179 27.7415 15.9901C27.9545 15.8622 28.1165 15.6747 28.2273 15.4276C28.3409 15.1776 28.3977 14.8722 28.3977 14.5114V8.27273ZM34.1804 17.1364C33.5497 17.1364 33.0057 16.9972 32.5483 16.7188C32.0938 16.4375 31.7429 16.0455 31.4957 15.5426C31.2514 15.0369 31.1293 14.4489 31.1293 13.7784C31.1293 13.108 31.2514 12.517 31.4957 12.0057C31.7429 11.4915 32.0866 11.0909 32.527 10.804C32.9702 10.5142 33.4872 10.3693 34.0781 10.3693C34.419 10.3693 34.7557 10.4261 35.0881 10.5398C35.4205 10.6534 35.723 10.8381 35.9957 11.0938C36.2685 11.3466 36.4858 11.6818 36.6477 12.0994C36.8097 12.517 36.8906 13.0312 36.8906 13.642V14.0682H31.8452V13.1989H35.8679C35.8679 12.8295 35.794 12.5 35.6463 12.2102C35.5014 11.9205 35.294 11.6918 35.0241 11.5241C34.7571 11.3565 34.4418 11.2727 34.0781 11.2727C33.6776 11.2727 33.331 11.3722 33.0384 11.571C32.7486 11.767 32.5256 12.0227 32.3693 12.3381C32.2131 12.6534 32.1349 12.9915 32.1349 13.3523V13.9318C32.1349 14.4261 32.2202 14.8452 32.3906 15.1889C32.5639 15.5298 32.804 15.7898 33.1108 15.9688C33.4176 16.1449 33.7741 16.233 34.1804 16.233C34.4446 16.233 34.6832 16.196 34.8963 16.1222C35.1122 16.0455 35.2983 15.9318 35.4545 15.7812C35.6108 15.6278 35.7315 15.4375 35.8168 15.2102L36.7884 15.483C36.6861 15.8125 36.5142 16.1023 36.2727 16.3523C36.0313 16.5994 35.733 16.7926 35.3778 16.9318C35.0227 17.0682 34.6236 17.1364 34.1804 17.1364ZM41.7955 19.4545V10.4545H42.767V11.4943H42.8864C42.9602 11.3807 43.0625 11.2358 43.1932 11.0597C43.3267 10.8807 43.517 10.7216 43.7642 10.5824C44.0142 10.4403 44.3523 10.3693 44.7784 10.3693C45.3295 10.3693 45.8153 10.5071 46.2358 10.7827C46.6563 11.0582 46.9844 11.4489 47.2202 11.9545C47.456 12.4602 47.5739 13.0568 47.5739 13.7443C47.5739 14.4375 47.456 15.0384 47.2202 15.5469C46.9844 16.0526 46.6577 16.4446 46.2401 16.723C45.8224 16.9986 45.3409 17.1364 44.7955 17.1364C44.375 17.1364 44.0384 17.0668 43.7855 16.9276C43.5327 16.7855 43.3381 16.625 43.2017 16.446C43.0653 16.2642 42.9602 16.1136 42.8864 15.9943H42.8011V19.4545H41.7955ZM42.7841 13.7273C42.7841 14.2216 42.8565 14.6577 43.0014 15.0355C43.1463 15.4105 43.358 15.7045 43.6364 15.9176C43.9148 16.1278 44.2557 16.233 44.6591 16.233C45.0795 16.233 45.4304 16.1222 45.7116 15.9006C45.9957 15.6761 46.2088 15.375 46.3509 14.9972C46.4957 14.6165 46.5682 14.1932 46.5682 13.7273C46.5682 13.267 46.4972 12.8523 46.3551 12.483C46.2159 12.1108 46.0043 11.8168 45.7202 11.6009C45.4389 11.3821 45.0852 11.2727 44.6591 11.2727C44.25 11.2727 43.9063 11.3764 43.6278 11.5838C43.3494 11.7884 43.1392 12.0753 42.9972 12.4446C42.8551 12.8111 42.7841 13.2386 42.7841 13.7273ZM51.0341 17.1534C50.6193 17.1534 50.2429 17.0753 49.9048 16.919C49.5668 16.7599 49.2983 16.5312 49.0994 16.233C48.9006 15.9318 48.8011 15.5682 48.8011 15.142C48.8011 14.767 48.875 14.4631 49.0227 14.2301C49.1705 13.9943 49.3679 13.8097 49.6151 13.6761C49.8622 13.5426 50.1349 13.4432 50.4332 13.3778C50.7344 13.3097 51.0369 13.2557 51.3409 13.2159C51.7386 13.1648 52.0611 13.1264 52.3082 13.1009C52.5582 13.0724 52.7401 13.0256 52.8537 12.9602C52.9702 12.8949 53.0284 12.7812 53.0284 12.6193V12.5852C53.0284 12.1648 52.9134 11.8381 52.6832 11.6051C52.456 11.3722 52.1108 11.2557 51.6477 11.2557C51.1676 11.2557 50.7912 11.3608 50.5185 11.571C50.2457 11.7812 50.054 12.0057 49.9432 12.2443L48.9886 11.9034C49.1591 11.5057 49.3864 11.196 49.6705 10.9744C49.9574 10.75 50.2699 10.5937 50.608 10.5057C50.9489 10.4148 51.2841 10.3693 51.6136 10.3693C51.8239 10.3693 52.0653 10.3949 52.3381 10.446C52.6136 10.4943 52.8793 10.5952 53.1349 10.7486C53.3935 10.902 53.608 11.1335 53.7784 11.4432C53.9489 11.7528 54.0341 12.1676 54.0341 12.6875V17H53.0284V16.1136H52.9773C52.9091 16.2557 52.7955 16.4077 52.6364 16.5696C52.4773 16.7315 52.2656 16.8693 52.0014 16.983C51.7372 17.0966 51.4148 17.1534 51.0341 17.1534ZM51.1875 16.25C51.5852 16.25 51.9205 16.1719 52.1932 16.0156C52.4688 15.8594 52.6761 15.6577 52.8153 15.4105C52.9574 15.1634 53.0284 14.9034 53.0284 14.6307V13.7102C52.9858 13.7614 52.892 13.8082 52.7472 13.8509C52.6051 13.8906 52.4403 13.9261 52.2528 13.9574C52.0682 13.9858 51.8878 14.0114 51.7116 14.0341C51.5384 14.054 51.3977 14.071 51.2898 14.0852C51.0284 14.1193 50.7841 14.1747 50.5568 14.2514C50.3324 14.3253 50.1506 14.4375 50.0114 14.5881C49.875 14.7358 49.8068 14.9375 49.8068 15.1932C49.8068 15.5426 49.9361 15.8068 50.1946 15.9858C50.456 16.1619 50.7869 16.25 51.1875 16.25ZM55.8697 17V10.4545H56.8413V11.4432H56.9094C57.0288 11.1193 57.2447 10.8565 57.5572 10.6548C57.8697 10.4531 58.2219 10.3523 58.614 10.3523C58.6879 10.3523 58.7802 10.3537 58.891 10.3565C59.0018 10.3594 59.0856 10.3636 59.1424 10.3693V11.392C59.1083 11.3835 59.0302 11.3707 58.908 11.3537C58.7887 11.3338 58.6623 11.3239 58.5288 11.3239C58.2106 11.3239 57.9265 11.3906 57.6765 11.5241C57.4293 11.6548 57.2333 11.8366 57.0884 12.0696C56.9464 12.2997 56.8754 12.5625 56.8754 12.858V17H55.8697ZM63.5913 10.4545V11.3068H60.1992V10.4545H63.5913ZM61.1879 8.88636H62.1935V15.125C62.1935 15.4091 62.2347 15.6222 62.3171 15.7642C62.4023 15.9034 62.5103 15.9972 62.641 16.0455C62.7745 16.0909 62.9151 16.1136 63.0629 16.1136C63.1737 16.1136 63.2646 16.108 63.3356 16.0966C63.4066 16.0824 63.4634 16.071 63.506 16.0625L63.7106 16.9659C63.6424 16.9915 63.5472 17.017 63.4251 17.0426C63.3029 17.071 63.1481 17.0852 62.9606 17.0852C62.6765 17.0852 62.3981 17.0241 62.1254 16.902C61.8555 16.7798 61.631 16.5938 61.4521 16.3438C61.2759 16.0938 61.1879 15.7784 61.1879 15.3977V8.88636ZM65.104 17V10.4545H66.1097V17H65.104ZM65.6154 9.36364C65.4194 9.36364 65.2504 9.29688 65.1083 9.16335C64.9691 9.02983 64.8995 8.86932 64.8995 8.68182C64.8995 8.49432 64.9691 8.33381 65.1083 8.20028C65.2504 8.06676 65.4194 8 65.6154 8C65.8114 8 65.979 8.06676 66.1183 8.20028C66.2603 8.33381 66.3313 8.49432 66.3313 8.68182C66.3313 8.86932 66.2603 9.02983 66.1183 9.16335C65.979 9.29688 65.8114 9.36364 65.6154 9.36364ZM70.6108 17.1364C69.9972 17.1364 69.4688 16.9915 69.0256 16.7017C68.5824 16.4119 68.2415 16.0128 68.0028 15.5043C67.7642 14.9957 67.6449 14.4148 67.6449 13.7614C67.6449 13.0966 67.767 12.5099 68.0114 12.0014C68.2585 11.4901 68.6023 11.0909 69.0426 10.804C69.4858 10.5142 70.0028 10.3693 70.5938 10.3693C71.054 10.3693 71.4688 10.4545 71.8381 10.625C72.2074 10.7955 72.5099 11.0341 72.7457 11.3409C72.9815 11.6477 73.1278 12.0057 73.1847 12.4148H72.179C72.1023 12.1165 71.9318 11.8523 71.6676 11.6222C71.4063 11.3892 71.054 11.2727 70.6108 11.2727C70.2188 11.2727 69.875 11.375 69.5795 11.5795C69.2869 11.7812 69.0582 12.0668 68.8935 12.4361C68.7315 12.8026 68.6506 13.233 68.6506 13.7273C68.6506 14.233 68.7301 14.6733 68.8892 15.0483C69.0511 15.4233 69.2784 15.7145 69.571 15.9219C69.8665 16.1293 70.2131 16.233 70.6108 16.233C70.8722 16.233 71.1094 16.1875 71.3224 16.0966C71.5355 16.0057 71.7159 15.875 71.8636 15.7045C72.0114 15.5341 72.1165 15.3295 72.179 15.0909H73.1847C73.1278 15.4773 72.9872 15.8253 72.7628 16.1349C72.5412 16.4418 72.2472 16.6861 71.8807 16.8679C71.517 17.0469 71.0938 17.1364 70.6108 17.1364ZM74.6548 17V10.4545H75.6605V17H74.6548ZM75.1662 9.36364C74.9702 9.36364 74.8011 9.29688 74.6591 9.16335C74.5199 9.02983 74.4503 8.86932 74.4503 8.68182C74.4503 8.49432 74.5199 8.33381 74.6591 8.20028C74.8011 8.06676 74.9702 8 75.1662 8C75.3622 8 75.5298 8.06676 75.669 8.20028C75.8111 8.33381 75.8821 8.49432 75.8821 8.68182C75.8821 8.86932 75.8111 9.02983 75.669 9.16335C75.5298 9.29688 75.3622 9.36364 75.1662 9.36364ZM77.5025 19.4545V10.4545H78.4741V11.4943H78.5934C78.6673 11.3807 78.7695 11.2358 78.9002 11.0597C79.0337 10.8807 79.2241 10.7216 79.4712 10.5824C79.7212 10.4403 80.0593 10.3693 80.4854 10.3693C81.0366 10.3693 81.5224 10.5071 81.9428 10.7827C82.3633 11.0582 82.6914 11.4489 82.9272 11.9545C83.163 12.4602 83.2809 13.0568 83.2809 13.7443C83.2809 14.4375 83.163 15.0384 82.9272 15.5469C82.6914 16.0526 82.3647 16.4446 81.9471 16.723C81.5295 16.9986 81.0479 17.1364 80.5025 17.1364C80.082 17.1364 79.7454 17.0668 79.4925 16.9276C79.2397 16.7855 79.0451 16.625 78.9087 16.446C78.7724 16.2642 78.6673 16.1136 78.5934 15.9943H78.5082V19.4545H77.5025ZM78.4911 13.7273C78.4911 14.2216 78.5636 14.6577 78.7085 15.0355C78.8533 15.4105 79.065 15.7045 79.3434 15.9176C79.6218 16.1278 79.9627 16.233 80.3661 16.233C80.7866 16.233 81.1374 16.1222 81.4187 15.9006C81.7028 15.6761 81.9158 15.375 82.0579 14.9972C82.2028 14.6165 82.2752 14.1932 82.2752 13.7273C82.2752 13.267 82.2042 12.8523 82.0621 12.483C81.9229 12.1108 81.7113 11.8168 81.4272 11.6009C81.146 11.3821 80.7923 11.2727 80.3661 11.2727C79.957 11.2727 79.6133 11.3764 79.3349 11.5838C79.0565 11.7884 78.8462 12.0753 78.7042 12.4446C78.5621 12.8111 78.4911 13.2386 78.4911 13.7273ZM87.5593 17.1364C86.9286 17.1364 86.3846 16.9972 85.9272 16.7188C85.4727 16.4375 85.1218 16.0455 84.8746 15.5426C84.6303 15.0369 84.5082 14.4489 84.5082 13.7784C84.5082 13.108 84.6303 12.517 84.8746 12.0057C85.1218 11.4915 85.4656 11.0909 85.9059 10.804C86.3491 10.5142 86.8661 10.3693 87.457 10.3693C87.7979 10.3693 88.1346 10.4261 88.467 10.5398C88.7994 10.6534 89.1019 10.8381 89.3746 11.0938C89.6474 11.3466 89.8647 11.6818 90.0266 12.0994C90.1886 12.517 90.2695 13.0312 90.2695 13.642V14.0682H85.2241V13.1989H89.2468C89.2468 12.8295 89.1729 12.5 89.0252 12.2102C88.8803 11.9205 88.6729 11.6918 88.4031 11.5241C88.136 11.3565 87.8207 11.2727 87.457 11.2727C87.0565 11.2727 86.7099 11.3722 86.4173 11.571C86.1275 11.767 85.9045 12.0227 85.7482 12.3381C85.592 12.6534 85.5138 12.9915 85.5138 13.3523V13.9318C85.5138 14.4261 85.5991 14.8452 85.7695 15.1889C85.9428 15.5298 86.1829 15.7898 86.4897 15.9688C86.7965 16.1449 87.1531 16.233 87.5593 16.233C87.8235 16.233 88.0621 16.196 88.2752 16.1222C88.4911 16.0455 88.6772 15.9318 88.8335 15.7812C88.9897 15.6278 89.1104 15.4375 89.1957 15.2102L90.1673 15.483C90.065 15.8125 89.8931 16.1023 89.6516 16.3523C89.4102 16.5994 89.1119 16.7926 88.7567 16.9318C88.4016 17.0682 88.0025 17.1364 87.5593 17.1364ZM97.1005 17.1534C96.6857 17.1534 96.3093 17.0753 95.9712 16.919C95.6332 16.7599 95.3647 16.5312 95.1658 16.233C94.967 15.9318 94.8675 15.5682 94.8675 15.142C94.8675 14.767 94.9414 14.4631 95.0891 14.2301C95.2369 13.9943 95.4343 13.8097 95.6815 13.6761C95.9286 13.5426 96.2013 13.4432 96.4996 13.3778C96.8008 13.3097 97.1033 13.2557 97.4073 13.2159C97.805 13.1648 98.1275 13.1264 98.3746 13.1009C98.6246 13.0724 98.8065 13.0256 98.9201 12.9602C99.0366 12.8949 99.0948 12.7812 99.0948 12.6193V12.5852C99.0948 12.1648 98.9798 11.8381 98.7496 11.6051C98.5224 11.3722 98.1772 11.2557 97.7141 11.2557C97.234 11.2557 96.8576 11.3608 96.5849 11.571C96.3121 11.7812 96.1204 12.0057 96.0096 12.2443L95.055 11.9034C95.2255 11.5057 95.4528 11.196 95.7369 10.9744C96.0238 10.75 96.3363 10.5937 96.6744 10.5057C97.0153 10.4148 97.3505 10.3693 97.68 10.3693C97.8903 10.3693 98.1317 10.3949 98.4045 10.446C98.68 10.4943 98.9457 10.5952 99.2013 10.7486C99.4599 10.902 99.6744 11.1335 99.8448 11.4432C100.015 11.7528 100.1 12.1676 100.1 12.6875V17H99.0948V16.1136H99.0437C98.9755 16.2557 98.8619 16.4077 98.7028 16.5696C98.5437 16.7315 98.332 16.8693 98.0678 16.983C97.8036 17.0966 97.4812 17.1534 97.1005 17.1534ZM97.2539 16.25C97.6516 16.25 97.9869 16.1719 98.2596 16.0156C98.5352 15.8594 98.7425 15.6577 98.8817 15.4105C99.0238 15.1634 99.0948 14.9034 99.0948 14.6307V13.7102C99.0522 13.7614 98.9585 13.8082 98.8136 13.8509C98.6715 13.8906 98.5067 13.9261 98.3192 13.9574C98.1346 13.9858 97.9542 14.0114 97.7781 14.0341C97.6048 14.054 97.4641 14.071 97.3562 14.0852C97.0948 14.1193 96.8505 14.1747 96.6232 14.2514C96.3988 14.3253 96.217 14.4375 96.0778 14.5881C95.9414 14.7358 95.8732 14.9375 95.8732 15.1932C95.8732 15.5426 96.0025 15.8068 96.261 15.9858C96.5224 16.1619 96.8533 16.25 97.2539 16.25ZM104.595 17.1364C103.982 17.1364 103.453 16.9915 103.01 16.7017C102.567 16.4119 102.226 16.0128 101.987 15.5043C101.749 14.9957 101.629 14.4148 101.629 13.7614C101.629 13.0966 101.751 12.5099 101.996 12.0014C102.243 11.4901 102.587 11.0909 103.027 10.804C103.47 10.5142 103.987 10.3693 104.578 10.3693C105.038 10.3693 105.453 10.4545 105.822 10.625C106.192 10.7955 106.494 11.0341 106.73 11.3409C106.966 11.6477 107.112 12.0057 107.169 12.4148H106.163C106.087 12.1165 105.916 11.8523 105.652 11.6222C105.391 11.3892 105.038 11.2727 104.595 11.2727C104.203 11.2727 103.859 11.375 103.564 11.5795C103.271 11.7812 103.043 12.0668 102.878 12.4361C102.716 12.8026 102.635 13.233 102.635 13.7273C102.635 14.233 102.714 14.6733 102.874 15.0483C103.036 15.4233 103.263 15.7145 103.555 15.9219C103.851 16.1293 104.197 16.233 104.595 16.233C104.857 16.233 105.094 16.1875 105.307 16.0966C105.52 16.0057 105.7 15.875 105.848 15.7045C105.996 15.5341 106.101 15.3295 106.163 15.0909H107.169C107.112 15.4773 106.972 15.8253 106.747 16.1349C106.526 16.4418 106.232 16.6861 105.865 16.8679C105.501 17.0469 105.078 17.1364 104.595 17.1364ZM111.486 10.4545V11.3068H108.094V10.4545H111.486ZM109.082 8.88636H110.088V15.125C110.088 15.4091 110.129 15.6222 110.212 15.7642C110.297 15.9034 110.405 15.9972 110.536 16.0455C110.669 16.0909 110.81 16.1136 110.957 16.1136C111.068 16.1136 111.159 16.108 111.23 16.0966C111.301 16.0824 111.358 16.071 111.401 16.0625L111.605 16.9659C111.537 16.9915 111.442 17.017 111.32 17.0426C111.197 17.071 111.043 17.0852 110.855 17.0852C110.571 17.0852 110.293 17.0241 110.02 16.902C109.75 16.7798 109.526 16.5938 109.347 16.3438C109.17 16.0938 109.082 15.7784 109.082 15.3977V8.88636ZM112.999 17V10.4545H114.004V17H112.999ZM113.51 9.36364C113.314 9.36364 113.145 9.29688 113.003 9.16335C112.864 9.02983 112.794 8.86932 112.794 8.68182C112.794 8.49432 112.864 8.33381 113.003 8.20028C113.145 8.06676 113.314 8 113.51 8C113.706 8 113.874 8.06676 114.013 8.20028C114.155 8.33381 114.226 8.49432 114.226 8.68182C114.226 8.86932 114.155 9.02983 114.013 9.16335C113.874 9.29688 113.706 9.36364 113.51 9.36364ZM121.199 10.4545L118.778 17H117.755L115.335 10.4545H116.426L118.233 15.6705H118.301L120.108 10.4545H121.199ZM125.036 17.1364C124.405 17.1364 123.861 16.9972 123.404 16.7188C122.949 16.4375 122.598 16.0455 122.351 15.5426C122.107 15.0369 121.985 14.4489 121.985 13.7784C121.985 13.108 122.107 12.517 122.351 12.0057C122.598 11.4915 122.942 11.0909 123.382 10.804C123.826 10.5142 124.343 10.3693 124.934 10.3693C125.275 10.3693 125.611 10.4261 125.944 10.5398C126.276 10.6534 126.578 10.8381 126.851 11.0938C127.124 11.3466 127.341 11.6818 127.503 12.0994C127.665 12.517 127.746 13.0312 127.746 13.642V14.0682H122.701V13.1989H126.723C126.723 12.8295 126.65 12.5 126.502 12.2102C126.357 11.9205 126.15 11.6918 125.88 11.5241C125.613 11.3565 125.297 11.2727 124.934 11.2727C124.533 11.2727 124.186 11.3722 123.894 11.571C123.604 11.767 123.381 12.0227 123.225 12.3381C123.069 12.6534 122.99 12.9915 122.99 13.3523V13.9318C122.99 14.4261 123.076 14.8452 123.246 15.1889C123.419 15.5298 123.659 15.7898 123.966 15.9688C124.273 16.1449 124.63 16.233 125.036 16.233C125.3 16.233 125.539 16.196 125.752 16.1222C125.968 16.0455 126.154 15.9318 126.31 15.7812C126.466 15.6278 126.587 15.4375 126.672 15.2102L127.644 15.483C127.542 15.8125 127.37 16.1023 127.128 16.3523C126.887 16.5994 126.588 16.7926 126.233 16.9318C125.878 17.0682 125.479 17.1364 125.036 17.1364ZM129.276 17V10.4545H130.248V11.4773H130.333C130.469 11.1278 130.689 10.8565 130.993 10.6634C131.297 10.4673 131.662 10.3693 132.088 10.3693C132.52 10.3693 132.88 10.4673 133.167 10.6634C133.456 10.8565 133.682 11.1278 133.844 11.4773H133.912C134.08 11.1392 134.331 10.8707 134.667 10.6719C135.002 10.4702 135.404 10.3693 135.873 10.3693C136.458 10.3693 136.936 10.5526 137.309 10.919C137.681 11.2827 137.867 11.8494 137.867 12.6193V17H136.861V12.6193C136.861 12.1364 136.729 11.7912 136.465 11.5838C136.201 11.3764 135.89 11.2727 135.532 11.2727C135.071 11.2727 134.715 11.4119 134.462 11.6903C134.209 11.9659 134.083 12.3153 134.083 12.7386V17H133.06V12.517C133.06 12.1449 132.939 11.8452 132.698 11.6179C132.456 11.3878 132.145 11.2727 131.765 11.2727C131.503 11.2727 131.259 11.3423 131.032 11.4815C130.807 11.6207 130.625 11.8139 130.486 12.0611C130.35 12.3054 130.282 12.5881 130.282 12.9091V17H129.276ZM142.45 17.1364C141.819 17.1364 141.275 16.9972 140.818 16.7188C140.363 16.4375 140.012 16.0455 139.765 15.5426C139.521 15.0369 139.399 14.4489 139.399 13.7784C139.399 13.108 139.521 12.517 139.765 12.0057C140.012 11.4915 140.356 11.0909 140.797 10.804C141.24 10.5142 141.757 10.3693 142.348 10.3693C142.689 10.3693 143.025 10.4261 143.358 10.5398C143.69 10.6534 143.993 10.8381 144.265 11.0938C144.538 11.3466 144.755 11.6818 144.917 12.0994C145.079 12.517 145.16 13.0312 145.16 13.642V14.0682H140.115V13.1989H144.137C144.137 12.8295 144.064 12.5 143.916 12.2102C143.771 11.9205 143.564 11.6918 143.294 11.5241C143.027 11.3565 142.711 11.2727 142.348 11.2727C141.947 11.2727 141.6 11.3722 141.308 11.571C141.018 11.767 140.795 12.0227 140.639 12.3381C140.483 12.6534 140.404 12.9915 140.404 13.3523V13.9318C140.404 14.4261 140.49 14.8452 140.66 15.1889C140.833 15.5298 141.074 15.7898 141.38 15.9688C141.687 16.1449 142.044 16.233 142.45 16.233C142.714 16.233 142.953 16.196 143.166 16.1222C143.382 16.0455 143.568 15.9318 143.724 15.7812C143.88 15.6278 144.001 15.4375 144.086 15.2102L145.058 15.483C144.956 15.8125 144.784 16.1023 144.542 16.3523C144.301 16.5994 144.002 16.7926 143.647 16.9318C143.292 17.0682 142.893 17.1364 142.45 17.1364ZM147.696 13.0625V17H146.69V10.4545H147.662V11.4773H147.747C147.9 11.1449 148.133 10.8778 148.446 10.6761C148.758 10.4716 149.162 10.3693 149.656 10.3693C150.099 10.3693 150.487 10.4602 150.819 10.642C151.152 10.821 151.41 11.0938 151.595 11.4602C151.779 11.8239 151.872 12.2841 151.872 12.8409V17H150.866V12.9091C150.866 12.3949 150.733 11.9943 150.466 11.7074C150.199 11.4176 149.832 11.2727 149.366 11.2727C149.045 11.2727 148.758 11.3423 148.505 11.4815C148.255 11.6207 148.058 11.8239 147.913 12.0909C147.768 12.358 147.696 12.6818 147.696 13.0625ZM156.556 10.4545V11.3068H153.164V10.4545H156.556ZM154.153 8.88636H155.158V15.125C155.158 15.4091 155.2 15.6222 155.282 15.7642C155.367 15.9034 155.475 15.9972 155.606 16.0455C155.739 16.0909 155.88 16.1136 156.028 16.1136C156.138 16.1136 156.229 16.108 156.3 16.0966C156.371 16.0824 156.428 16.071 156.471 16.0625L156.675 16.9659C156.607 16.9915 156.512 17.017 156.39 17.0426C156.268 17.071 156.113 17.0852 155.925 17.0852C155.641 17.0852 155.363 17.0241 155.09 16.902C154.82 16.7798 154.596 16.5938 154.417 16.3438C154.241 16.0938 154.153 15.7784 154.153 15.3977V8.88636ZM163.37 17.1534C162.955 17.1534 162.579 17.0753 162.241 16.919C161.903 16.7599 161.634 16.5312 161.435 16.233C161.237 15.9318 161.137 15.5682 161.137 15.142C161.137 14.767 161.211 14.4631 161.359 14.2301C161.506 13.9943 161.704 13.8097 161.951 13.6761C162.198 13.5426 162.471 13.4432 162.769 13.3778C163.07 13.3097 163.373 13.2557 163.677 13.2159C164.075 13.1648 164.397 13.1264 164.644 13.1009C164.894 13.0724 165.076 13.0256 165.19 12.9602C165.306 12.8949 165.364 12.7812 165.364 12.6193V12.5852C165.364 12.1648 165.249 11.8381 165.019 11.6051C164.792 11.3722 164.447 11.2557 163.984 11.2557C163.504 11.2557 163.127 11.3608 162.854 11.571C162.582 11.7812 162.39 12.0057 162.279 12.2443L161.325 11.9034C161.495 11.5057 161.722 11.196 162.006 10.9744C162.293 10.75 162.606 10.5937 162.944 10.5057C163.285 10.4148 163.62 10.3693 163.95 10.3693C164.16 10.3693 164.401 10.3949 164.674 10.446C164.95 10.4943 165.215 10.5952 165.471 10.7486C165.729 10.902 165.944 11.1335 166.114 11.4432C166.285 11.7528 166.37 12.1676 166.37 12.6875V17H165.364V16.1136H165.313C165.245 16.2557 165.131 16.4077 164.972 16.5696C164.813 16.7315 164.602 16.8693 164.337 16.983C164.073 17.0966 163.751 17.1534 163.37 17.1534ZM163.523 16.25C163.921 16.25 164.256 16.1719 164.529 16.0156C164.805 15.8594 165.012 15.6577 165.151 15.4105C165.293 15.1634 165.364 14.9034 165.364 14.6307V13.7102C165.322 13.7614 165.228 13.8082 165.083 13.8509C164.941 13.8906 164.776 13.9261 164.589 13.9574C164.404 13.9858 164.224 14.0114 164.048 14.0341C163.874 14.054 163.734 14.071 163.626 14.0852C163.364 14.1193 163.12 14.1747 162.893 14.2514C162.668 14.3253 162.487 14.4375 162.347 14.5881C162.211 14.7358 162.143 14.9375 162.143 15.1932C162.143 15.5426 162.272 15.8068 162.531 15.9858C162.792 16.1619 163.123 16.25 163.523 16.25ZM163.592 9.56818L162.262 7.59091H163.438L164.478 9.56818H163.592ZM172.586 8.27273V17H171.581V8.27273H172.586ZM176.354 17.1534C175.94 17.1534 175.563 17.0753 175.225 16.919C174.887 16.7599 174.619 16.5312 174.42 16.233C174.221 15.9318 174.121 15.5682 174.121 15.142C174.121 14.767 174.195 14.4631 174.343 14.2301C174.491 13.9943 174.688 13.8097 174.935 13.6761C175.183 13.5426 175.455 13.4432 175.754 13.3778C176.055 13.3097 176.357 13.2557 176.661 13.2159C177.059 13.1648 177.381 13.1264 177.629 13.1009C177.879 13.0724 178.06 13.0256 178.174 12.9602C178.29 12.8949 178.349 12.7812 178.349 12.6193V12.5852C178.349 12.1648 178.234 11.8381 178.004 11.6051C177.776 11.3722 177.431 11.2557 176.968 11.2557C176.488 11.2557 176.112 11.3608 175.839 11.571C175.566 11.7812 175.374 12.0057 175.263 12.2443L174.309 11.9034C174.479 11.5057 174.707 11.196 174.991 10.9744C175.278 10.75 175.59 10.5937 175.928 10.5057C176.269 10.4148 176.604 10.3693 176.934 10.3693C177.144 10.3693 177.386 10.3949 177.658 10.446C177.934 10.4943 178.2 10.5952 178.455 10.7486C178.714 10.902 178.928 11.1335 179.099 11.4432C179.269 11.7528 179.354 12.1676 179.354 12.6875V17H178.349V16.1136H178.298C178.229 16.2557 178.116 16.4077 177.957 16.5696C177.798 16.7315 177.586 16.8693 177.322 16.983C177.058 17.0966 176.735 17.1534 176.354 17.1534ZM176.508 16.25C176.906 16.25 177.241 16.1719 177.513 16.0156C177.789 15.8594 177.996 15.6577 178.136 15.4105C178.278 15.1634 178.349 14.9034 178.349 14.6307V13.7102C178.306 13.7614 178.212 13.8082 178.067 13.8509C177.925 13.8906 177.761 13.9261 177.573 13.9574C177.388 13.9858 177.208 14.0114 177.032 14.0341C176.859 14.054 176.718 14.071 176.61 14.0852C176.349 14.1193 176.104 14.1747 175.877 14.2514C175.653 14.3253 175.471 14.4375 175.332 14.5881C175.195 14.7358 175.127 14.9375 175.127 15.1932C175.127 15.5426 175.256 15.8068 175.515 15.9858C175.776 16.1619 176.107 16.25 176.508 16.25ZM189.917 10.4545L187.497 17H186.474L184.054 10.4545H185.145L186.951 15.6705H187.02L188.826 10.4545H189.917ZM191.245 17V10.4545H192.25V17H191.245ZM191.756 9.36364C191.56 9.36364 191.391 9.29688 191.249 9.16335C191.11 9.02983 191.04 8.86932 191.04 8.68182C191.04 8.49432 191.11 8.33381 191.249 8.20028C191.391 8.06676 191.56 8 191.756 8C191.952 8 192.12 8.06676 192.259 8.20028C192.401 8.33381 192.472 8.49432 192.472 8.68182C192.472 8.86932 192.401 9.02983 192.259 9.16335C192.12 9.29688 191.952 9.36364 191.756 9.36364ZM196.837 17.1364C196.206 17.1364 195.662 16.9972 195.205 16.7188C194.75 16.4375 194.399 16.0455 194.152 15.5426C193.908 15.0369 193.786 14.4489 193.786 13.7784C193.786 13.108 193.908 12.517 194.152 12.0057C194.399 11.4915 194.743 11.0909 195.183 10.804C195.626 10.5142 196.143 10.3693 196.734 10.3693C197.075 10.3693 197.412 10.4261 197.744 10.5398C198.077 10.6534 198.379 10.8381 198.652 11.0938C198.925 11.3466 199.142 11.6818 199.304 12.0994C199.466 12.517 199.547 13.0312 199.547 13.642V14.0682H194.501V13.1989H198.524C198.524 12.8295 198.45 12.5 198.303 12.2102C198.158 11.9205 197.95 11.6918 197.68 11.5241C197.413 11.3565 197.098 11.2727 196.734 11.2727C196.334 11.2727 195.987 11.3722 195.695 11.571C195.405 11.767 195.182 12.0227 195.026 12.3381C194.869 12.6534 194.791 12.9915 194.791 13.3523V13.9318C194.791 14.4261 194.876 14.8452 195.047 15.1889C195.22 15.5298 195.46 15.7898 195.767 15.9688C196.074 16.1449 196.43 16.233 196.837 16.233C197.101 16.233 197.339 16.196 197.553 16.1222C197.768 16.0455 197.955 15.9318 198.111 15.7812C198.267 15.6278 198.388 15.4375 198.473 15.2102L199.445 15.483C199.342 15.8125 199.17 16.1023 198.929 16.3523C198.688 16.5994 198.389 16.7926 198.034 16.9318C197.679 17.0682 197.28 17.1364 196.837 17.1364ZM27.392 32.1364C26.8466 32.1364 26.3651 31.9986 25.9474 31.723C25.5298 31.4446 25.2031 31.0526 24.9673 30.5469C24.7315 30.0384 24.6136 29.4375 24.6136 28.7443C24.6136 28.0568 24.7315 27.4602 24.9673 26.9545C25.2031 26.4489 25.5313 26.0582 25.9517 25.7827C26.3722 25.5071 26.858 25.3693 27.4091 25.3693C27.8352 25.3693 28.1719 25.4403 28.419 25.5824C28.669 25.7216 28.8594 25.8807 28.9901 26.0597C29.1236 26.2358 29.2273 26.3807 29.3011 26.4943H29.3864V23.2727H30.392V32H29.4205V30.9943H29.3011C29.2273 31.1136 29.1222 31.2642 28.9858 31.446C28.8494 31.625 28.6548 31.7855 28.402 31.9276C28.1491 32.0668 27.8125 32.1364 27.392 32.1364ZM27.5284 31.233C27.9318 31.233 28.2727 31.1278 28.5511 30.9176C28.8295 30.7045 29.0412 30.4105 29.1861 30.0355C29.331 29.6577 29.4034 29.2216 29.4034 28.7273C29.4034 28.2386 29.3324 27.8111 29.1903 27.4446C29.0483 27.0753 28.8381 26.7884 28.5597 26.5838C28.2813 26.3764 27.9375 26.2727 27.5284 26.2727C27.1023 26.2727 26.7472 26.3821 26.4631 26.6009C26.1818 26.8168 25.9702 27.1108 25.8281 27.483C25.6889 27.8523 25.6193 28.267 25.6193 28.7273C25.6193 29.1932 25.6903 29.6165 25.8324 29.9972C25.9773 30.375 26.1903 30.6761 26.4716 30.9006C26.7557 31.1222 27.108 31.233 27.5284 31.233ZM35.1179 32.1364C34.4872 32.1364 33.9432 31.9972 33.4858 31.7188C33.0312 31.4375 32.6804 31.0455 32.4332 30.5426C32.1889 30.0369 32.0668 29.4489 32.0668 28.7784C32.0668 28.108 32.1889 27.517 32.4332 27.0057C32.6804 26.4915 33.0241 26.0909 33.4645 25.804C33.9077 25.5142 34.4247 25.3693 35.0156 25.3693C35.3565 25.3693 35.6932 25.4261 36.0256 25.5398C36.358 25.6534 36.6605 25.8381 36.9332 26.0938C37.206 26.3466 37.4233 26.6818 37.5852 27.0994C37.7472 27.517 37.8281 28.0312 37.8281 28.642V29.0682H32.7827V28.1989H36.8054C36.8054 27.8295 36.7315 27.5 36.5838 27.2102C36.4389 26.9205 36.2315 26.6918 35.9616 26.5241C35.6946 26.3565 35.3793 26.2727 35.0156 26.2727C34.6151 26.2727 34.2685 26.3722 33.9759 26.571C33.6861 26.767 33.4631 27.0227 33.3068 27.3381C33.1506 27.6534 33.0724 27.9915 33.0724 28.3523V28.9318C33.0724 29.4261 33.1577 29.8452 33.3281 30.1889C33.5014 30.5298 33.7415 30.7898 34.0483 30.9688C34.3551 31.1449 34.7116 31.233 35.1179 31.233C35.3821 31.233 35.6207 31.196 35.8338 31.1222C36.0497 31.0455 36.2358 30.9318 36.392 30.7812C36.5483 30.6278 36.669 30.4375 36.7543 30.2102L37.7259 30.483C37.6236 30.8125 37.4517 31.1023 37.2102 31.3523C36.9688 31.5994 36.6705 31.7926 36.3153 31.9318C35.9602 32.0682 35.5611 32.1364 35.1179 32.1364ZM42.733 32V25.4545H43.7045V26.4773H43.7898C43.9261 26.1278 44.1463 25.8565 44.4503 25.6634C44.7543 25.4673 45.1193 25.3693 45.5455 25.3693C45.9773 25.3693 46.3366 25.4673 46.6236 25.6634C46.9134 25.8565 47.1392 26.1278 47.3011 26.4773H47.3693C47.5369 26.1392 47.7884 25.8707 48.1236 25.6719C48.4588 25.4702 48.8608 25.3693 49.3295 25.3693C49.9148 25.3693 50.3935 25.5526 50.7656 25.919C51.1378 26.2827 51.3239 26.8494 51.3239 27.6193V32H50.3182V27.6193C50.3182 27.1364 50.1861 26.7912 49.9219 26.5838C49.6577 26.3764 49.3466 26.2727 48.9886 26.2727C48.5284 26.2727 48.1719 26.4119 47.919 26.6903C47.6662 26.9659 47.5398 27.3153 47.5398 27.7386V32H46.517V27.517C46.517 27.1449 46.3963 26.8452 46.1548 26.6179C45.9134 26.3878 45.6023 26.2727 45.2216 26.2727C44.9602 26.2727 44.7159 26.3423 44.4886 26.4815C44.2642 26.6207 44.0824 26.8139 43.9432 27.0611C43.8068 27.3054 43.7386 27.5881 43.7386 27.9091V32H42.733ZM55.0888 32.1534C54.674 32.1534 54.2976 32.0753 53.9595 31.919C53.6214 31.7599 53.353 31.5312 53.1541 31.233C52.9553 30.9318 52.8558 30.5682 52.8558 30.142C52.8558 29.767 52.9297 29.4631 53.0774 29.2301C53.2251 28.9943 53.4226 28.8097 53.6697 28.6761C53.9169 28.5426 54.1896 28.4432 54.4879 28.3778C54.7891 28.3097 55.0916 28.2557 55.3956 28.2159C55.7933 28.1648 56.1158 28.1264 56.3629 28.1009C56.6129 28.0724 56.7947 28.0256 56.9084 27.9602C57.0249 27.8949 57.0831 27.7812 57.0831 27.6193V27.5852C57.0831 27.1648 56.968 26.8381 56.7379 26.6051C56.5107 26.3722 56.1655 26.2557 55.7024 26.2557C55.2223 26.2557 54.8459 26.3608 54.5732 26.571C54.3004 26.7812 54.1087 27.0057 53.9979 27.2443L53.0433 26.9034C53.2138 26.5057 53.4411 26.196 53.7251 25.9744C54.0121 25.75 54.3246 25.5937 54.6626 25.5057C55.0036 25.4148 55.3388 25.3693 55.6683 25.3693C55.8786 25.3693 56.12 25.3949 56.3928 25.446C56.6683 25.4943 56.9339 25.5952 57.1896 25.7486C57.4482 25.902 57.6626 26.1335 57.8331 26.4432C58.0036 26.7528 58.0888 27.1676 58.0888 27.6875V32H57.0831V31.1136H57.032C56.9638 31.2557 56.8501 31.4077 56.6911 31.5696C56.532 31.7315 56.3203 31.8693 56.0561 31.983C55.7919 32.0966 55.4695 32.1534 55.0888 32.1534ZM55.2422 31.25C55.6399 31.25 55.9751 31.1719 56.2479 31.0156C56.5234 30.8594 56.7308 30.6577 56.87 30.4105C57.0121 30.1634 57.0831 29.9034 57.0831 29.6307V28.7102C57.0405 28.7614 56.9467 28.8082 56.8018 28.8509C56.6598 28.8906 56.495 28.9261 56.3075 28.9574C56.1229 28.9858 55.9425 29.0114 55.7663 29.0341C55.593 29.054 55.4524 29.071 55.3445 29.0852C55.0831 29.1193 54.8388 29.1747 54.6115 29.2514C54.3871 29.3253 54.2053 29.4375 54.0661 29.5881C53.9297 29.7358 53.8615 29.9375 53.8615 30.1932C53.8615 30.5426 53.9908 30.8068 54.2493 30.9858C54.5107 31.1619 54.8416 31.25 55.2422 31.25ZM65.9585 32.1364C65.3448 32.1364 64.8164 31.9915 64.3732 31.7017C63.93 31.4119 63.5891 31.0128 63.3505 30.5043C63.1119 29.9957 62.9925 29.4148 62.9925 28.7614C62.9925 28.0966 63.1147 27.5099 63.359 27.0014C63.6062 26.4901 63.9499 26.0909 64.3903 25.804C64.8335 25.5142 65.3505 25.3693 65.9414 25.3693C66.4016 25.3693 66.8164 25.4545 67.1857 25.625C67.555 25.7955 67.8576 26.0341 68.0934 26.3409C68.3292 26.6477 68.4755 27.0057 68.5323 27.4148H67.5266C67.4499 27.1165 67.2795 26.8523 67.0153 26.6222C66.7539 26.3892 66.4016 26.2727 65.9585 26.2727C65.5664 26.2727 65.2227 26.375 64.9272 26.5795C64.6346 26.7812 64.4059 27.0668 64.2411 27.4361C64.0792 27.8026 63.9982 28.233 63.9982 28.7273C63.9982 29.233 64.0778 29.6733 64.2369 30.0483C64.3988 30.4233 64.6261 30.7145 64.9187 30.9219C65.2141 31.1293 65.5607 31.233 65.9585 31.233C66.2198 31.233 66.457 31.1875 66.6701 31.0966C66.8832 31.0057 67.0636 30.875 67.2113 30.7045C67.359 30.5341 67.4641 30.3295 67.5266 30.0909H68.5323C68.4755 30.4773 68.3349 30.8253 68.1104 31.1349C67.8888 31.4418 67.5948 31.6861 67.2283 31.8679C66.8647 32.0469 66.4414 32.1364 65.9585 32.1364ZM72.6616 32.1364C72.0707 32.1364 71.5522 31.9957 71.1062 31.7145C70.663 31.4332 70.3164 31.0398 70.0664 30.5341C69.8192 30.0284 69.6957 29.4375 69.6957 28.7614C69.6957 28.0795 69.8192 27.4844 70.0664 26.9759C70.3164 26.4673 70.663 26.0724 71.1062 25.7912C71.5522 25.5099 72.0707 25.3693 72.6616 25.3693C73.2525 25.3693 73.7695 25.5099 74.2127 25.7912C74.6587 26.0724 75.0053 26.4673 75.2525 26.9759C75.5025 27.4844 75.6275 28.0795 75.6275 28.7614C75.6275 29.4375 75.5025 30.0284 75.2525 30.5341C75.0053 31.0398 74.6587 31.4332 74.2127 31.7145C73.7695 31.9957 73.2525 32.1364 72.6616 32.1364ZM72.6616 31.233C73.1104 31.233 73.4798 31.1179 73.7695 30.8878C74.0593 30.6577 74.2738 30.3551 74.413 29.9801C74.5522 29.6051 74.6218 29.1989 74.6218 28.7614C74.6218 28.3239 74.5522 27.9162 74.413 27.5384C74.2738 27.1605 74.0593 26.8551 73.7695 26.6222C73.4798 26.3892 73.1104 26.2727 72.6616 26.2727C72.2127 26.2727 71.8434 26.3892 71.5536 26.6222C71.2638 26.8551 71.0494 27.1605 70.9102 27.5384C70.771 27.9162 70.7013 28.3239 70.7013 28.7614C70.7013 29.1989 70.771 29.6051 70.9102 29.9801C71.0494 30.3551 71.2638 30.6577 71.5536 30.8878C71.8434 31.1179 72.2127 31.233 72.6616 31.233ZM80.9126 27.7898V28.7273H77.0945V27.7898H80.9126ZM82.6822 34.4545V25.4545H83.6538V26.4943H83.7731C83.8469 26.3807 83.9492 26.2358 84.0799 26.0597C84.2134 25.8807 84.4038 25.7216 84.6509 25.5824C84.9009 25.4403 85.239 25.3693 85.6651 25.3693C86.2163 25.3693 86.7021 25.5071 87.1225 25.7827C87.543 26.0582 87.8711 26.4489 88.1069 26.9545C88.3427 27.4602 88.4606 28.0568 88.4606 28.7443C88.4606 29.4375 88.3427 30.0384 88.1069 30.5469C87.8711 31.0526 87.5444 31.4446 87.1268 31.723C86.7092 31.9986 86.2276 32.1364 85.6822 32.1364C85.2617 32.1364 84.9251 32.0668 84.6722 31.9276C84.4194 31.7855 84.2248 31.625 84.0884 31.446C83.9521 31.2642 83.8469 31.1136 83.7731 30.9943H83.6879V34.4545H82.6822ZM83.6708 28.7273C83.6708 29.2216 83.7433 29.6577 83.8881 30.0355C84.033 30.4105 84.2447 30.7045 84.5231 30.9176C84.8015 31.1278 85.1424 31.233 85.5458 31.233C85.9663 31.233 86.3171 31.1222 86.5984 30.9006C86.8825 30.6761 87.0955 30.375 87.2376 29.9972C87.3825 29.6165 87.4549 29.1932 87.4549 28.7273C87.4549 28.267 87.3839 27.8523 87.2418 27.483C87.1026 27.1108 86.891 26.8168 86.6069 26.6009C86.3256 26.3821 85.9719 26.2727 85.5458 26.2727C85.1367 26.2727 84.793 26.3764 84.5146 26.5838C84.2362 26.7884 84.0259 27.0753 83.8839 27.4446C83.7418 27.8111 83.6708 28.2386 83.6708 28.7273ZM89.9947 32V25.4545H90.9663V26.4432H91.0344C91.1538 26.1193 91.3697 25.8565 91.6822 25.6548C91.9947 25.4531 92.3469 25.3523 92.739 25.3523C92.8129 25.3523 92.9052 25.3537 93.016 25.3565C93.1268 25.3594 93.2106 25.3636 93.2674 25.3693V26.392C93.2333 26.3835 93.1552 26.3707 93.033 26.3537C92.9137 26.3338 92.7873 26.3239 92.6538 26.3239C92.3356 26.3239 92.0515 26.3906 91.8015 26.5241C91.5543 26.6548 91.3583 26.8366 91.2134 27.0696C91.0714 27.2997 91.0004 27.5625 91.0004 27.858V32H89.9947ZM96.9194 32.1364C96.3285 32.1364 95.81 31.9957 95.364 31.7145C94.9208 31.4332 94.5742 31.0398 94.3242 30.5341C94.0771 30.0284 93.9535 29.4375 93.9535 28.7614C93.9535 28.0795 94.0771 27.4844 94.3242 26.9759C94.5742 26.4673 94.9208 26.0724 95.364 25.7912C95.81 25.5099 96.3285 25.3693 96.9194 25.3693C97.5103 25.3693 98.0273 25.5099 98.4705 25.7912C98.9165 26.0724 99.2631 26.4673 99.5103 26.9759C99.7603 27.4844 99.8853 28.0795 99.8853 28.7614C99.8853 29.4375 99.7603 30.0284 99.5103 30.5341C99.2631 31.0398 98.9165 31.4332 98.4705 31.7145C98.0273 31.9957 97.5103 32.1364 96.9194 32.1364ZM96.9194 31.233C97.3683 31.233 97.7376 31.1179 98.0273 30.8878C98.3171 30.6577 98.5316 30.3551 98.6708 29.9801C98.81 29.6051 98.8796 29.1989 98.8796 28.7614C98.8796 28.3239 98.81 27.9162 98.6708 27.5384C98.5316 27.1605 98.3171 26.8551 98.0273 26.6222C97.7376 26.3892 97.3683 26.2727 96.9194 26.2727C96.4705 26.2727 96.1012 26.3892 95.8114 26.6222C95.5217 26.8551 95.3072 27.1605 95.168 27.5384C95.0288 27.9162 94.9592 28.3239 94.9592 28.7614C94.9592 29.1989 95.0288 29.6051 95.168 29.9801C95.3072 30.3551 95.5217 30.6577 95.8114 30.8878C96.1012 31.1179 96.4705 31.233 96.9194 31.233ZM101.42 34.4545V25.4545H102.392V26.4943H102.511C102.585 26.3807 102.688 26.2358 102.818 26.0597C102.952 25.8807 103.142 25.7216 103.389 25.5824C103.639 25.4403 103.977 25.3693 104.403 25.3693C104.955 25.3693 105.44 25.5071 105.861 25.7827C106.281 26.0582 106.609 26.4489 106.845 26.9545C107.081 27.4602 107.199 28.0568 107.199 28.7443C107.199 29.4375 107.081 30.0384 106.845 30.5469C106.609 31.0526 106.283 31.4446 105.865 31.723C105.447 31.9986 104.966 32.1364 104.42 32.1364C104 32.1364 103.663 32.0668 103.411 31.9276C103.158 31.7855 102.963 31.625 102.827 31.446C102.69 31.2642 102.585 31.1136 102.511 30.9943H102.426V34.4545H101.42ZM102.409 28.7273C102.409 29.2216 102.482 29.6577 102.626 30.0355C102.771 30.4105 102.983 30.7045 103.261 30.9176C103.54 31.1278 103.881 31.233 104.284 31.233C104.705 31.233 105.055 31.1222 105.337 30.9006C105.621 30.6761 105.834 30.375 105.976 29.9972C106.121 29.6165 106.193 29.1932 106.193 28.7273C106.193 28.267 106.122 27.8523 105.98 27.483C105.841 27.1108 105.629 26.8168 105.345 26.6009C105.064 26.3821 104.71 26.2727 104.284 26.2727C103.875 26.2727 103.531 26.3764 103.253 26.5838C102.974 26.7884 102.764 27.0753 102.622 27.4446C102.48 27.8111 102.409 28.2386 102.409 28.7273ZM108.733 32V25.4545H109.705V26.4432H109.773C109.892 26.1193 110.108 25.8565 110.42 25.6548C110.733 25.4531 111.085 25.3523 111.477 25.3523C111.551 25.3523 111.643 25.3537 111.754 25.3565C111.865 25.3594 111.949 25.3636 112.006 25.3693V26.392C111.972 26.3835 111.893 26.3707 111.771 26.3537C111.652 26.3338 111.526 26.3239 111.392 26.3239C111.074 26.3239 110.79 26.3906 110.54 26.5241C110.293 26.6548 110.097 26.8366 109.952 27.0696C109.81 27.2997 109.739 27.5625 109.739 27.858V32H108.733ZM113.198 32V25.4545H114.203V32H113.198ZM113.709 24.3636C113.513 24.3636 113.344 24.2969 113.202 24.1634C113.063 24.0298 112.993 23.8693 112.993 23.6818C112.993 23.4943 113.063 23.3338 113.202 23.2003C113.344 23.0668 113.513 23 113.709 23C113.905 23 114.073 23.0668 114.212 23.2003C114.354 23.3338 114.425 23.4943 114.425 23.6818C114.425 23.8693 114.354 24.0298 114.212 24.1634C114.073 24.2969 113.905 24.3636 113.709 24.3636ZM118.79 32.1364C118.159 32.1364 117.615 31.9972 117.158 31.7188C116.703 31.4375 116.352 31.0455 116.105 30.5426C115.861 30.0369 115.739 29.4489 115.739 28.7784C115.739 28.108 115.861 27.517 116.105 27.0057C116.352 26.4915 116.696 26.0909 117.136 25.804C117.58 25.5142 118.097 25.3693 118.688 25.3693C119.028 25.3693 119.365 25.4261 119.697 25.5398C120.03 25.6534 120.332 25.8381 120.605 26.0938C120.878 26.3466 121.095 26.6818 121.257 27.0994C121.419 27.517 121.5 28.0312 121.5 28.642V29.0682H116.455V28.1989H120.477C120.477 27.8295 120.403 27.5 120.256 27.2102C120.111 26.9205 119.903 26.6918 119.634 26.5241C119.366 26.3565 119.051 26.2727 118.688 26.2727C118.287 26.2727 117.94 26.3722 117.648 26.571C117.358 26.767 117.135 27.0227 116.979 27.3381C116.822 27.6534 116.744 27.9915 116.744 28.3523V28.9318C116.744 29.4261 116.83 29.8452 117 30.1889C117.173 30.5298 117.413 30.7898 117.72 30.9688C118.027 31.1449 118.384 31.233 118.79 31.233C119.054 31.233 119.293 31.196 119.506 31.1222C119.722 31.0455 119.908 30.9318 120.064 30.7812C120.22 30.6278 120.341 30.4375 120.426 30.2102L121.398 30.483C121.295 30.8125 121.124 31.1023 120.882 31.3523C120.641 31.5994 120.342 31.7926 119.987 31.9318C119.632 32.0682 119.233 32.1364 118.79 32.1364ZM118.176 24.5682L119.216 22.5909H120.392L119.062 24.5682H118.176ZM125.876 25.4545V26.3068H122.484V25.4545H125.876ZM123.473 23.8864H124.479V30.125C124.479 30.4091 124.52 30.6222 124.602 30.7642C124.688 30.9034 124.795 30.9972 124.926 31.0455C125.06 31.0909 125.2 31.1136 125.348 31.1136C125.459 31.1136 125.55 31.108 125.621 31.0966C125.692 31.0824 125.749 31.071 125.791 31.0625L125.996 31.9659C125.928 31.9915 125.832 32.017 125.71 32.0426C125.588 32.071 125.433 32.0852 125.246 32.0852C124.962 32.0852 124.683 32.0241 124.411 31.902C124.141 31.7798 123.916 31.5938 123.737 31.3438C123.561 31.0938 123.473 30.7784 123.473 30.3977V23.8864ZM130.063 32.1364C129.433 32.1364 128.888 31.9972 128.431 31.7188C127.977 31.4375 127.626 31.0455 127.379 30.5426C127.134 30.0369 127.012 29.4489 127.012 28.7784C127.012 28.108 127.134 27.517 127.379 27.0057C127.626 26.4915 127.969 26.0909 128.41 25.804C128.853 25.5142 129.37 25.3693 129.961 25.3693C130.302 25.3693 130.638 25.4261 130.971 25.5398C131.303 25.6534 131.606 25.8381 131.879 26.0938C132.151 26.3466 132.369 26.6818 132.531 27.0994C132.692 27.517 132.773 28.0312 132.773 28.642V29.0682H127.728V28.1989H131.751C131.751 27.8295 131.677 27.5 131.529 27.2102C131.384 26.9205 131.177 26.6918 130.907 26.5241C130.64 26.3565 130.325 26.2727 129.961 26.2727C129.56 26.2727 129.214 26.3722 128.921 26.571C128.631 26.767 128.408 27.0227 128.252 27.3381C128.096 27.6534 128.018 27.9915 128.018 28.3523V28.9318C128.018 29.4261 128.103 29.8452 128.273 30.1889C128.447 30.5298 128.687 30.7898 128.994 30.9688C129.3 31.1449 129.657 31.233 130.063 31.233C130.327 31.233 130.566 31.196 130.779 31.1222C130.995 31.0455 131.181 30.9318 131.337 30.7812C131.494 30.6278 131.614 30.4375 131.7 30.2102L132.671 30.483C132.569 30.8125 132.397 31.1023 132.156 31.3523C131.914 31.5994 131.616 31.7926 131.261 31.9318C130.906 32.0682 130.506 32.1364 130.063 32.1364ZM129.45 24.5682L130.489 22.5909H131.665L130.336 24.5682H129.45Z" fill="black"/>
<rect x="17.375" y="0.375" width="199.25" height="39.25" rx="7.625" stroke="black" stroke-opacity="0.35" stroke-width="0.75"/>
<circle cx="3.5" cy="20.5" r="3.5" fill="#164194" fill-opacity="0.3"/>
</svg>
