<svg width="57" height="32" viewBox="0 0 57 32" fill="none" xmlns="http://www.w3.org/2000/svg">
<path fill-rule="evenodd" clip-rule="evenodd" d="M57 16.1564C57 16.5733 56.6285 16.9381 56.2039 16.9381C55.7793 16.9381 55.4078 16.5733 55.4078 16.1564C55.4078 15.7394 55.7793 15.3746 56.2039 15.3746C56.6285 15.3746 57 15.6873 57 16.1564Z" fill="white"/>
<path fill-rule="evenodd" clip-rule="evenodd" d="M26.9078 19.0749C26.5363 19.0749 26.2178 18.7622 26.2178 18.3974V13.6547C26.2178 13.2899 26.5363 12.9772 26.9078 12.9772C27.2793 12.9772 27.5977 13.2899 27.5977 13.6547V18.3974C27.5977 18.7622 27.2793 19.0749 26.9078 19.0749ZM28.6592 18.3974V13.5505C28.6592 12.5603 27.8631 11.8827 26.8547 11.8827C25.8463 11.8827 25.0502 12.6124 25.0502 13.5505V18.3974C25.0502 19.3876 25.7402 20.0651 26.8547 20.0651C28.0223 20.1173 28.6592 19.3876 28.6592 18.3974ZM33.3296 12.1954V19.8046C33.3296 19.9088 33.4357 20.013 33.5419 20.013H35.7178C35.824 20.013 35.9301 19.9088 35.9301 19.8046V19.127C35.9301 19.0228 35.824 18.9186 35.7178 18.9186H34.4441V16.5733H35.3463C35.4525 16.5733 35.5586 16.4691 35.5586 16.3648V15.6873C35.5586 15.5831 35.4525 15.4788 35.3463 15.4788H34.4441V13.1336H35.7178C35.824 13.1336 35.9301 13.0293 35.9301 12.9251V12.2476C35.9301 12.1433 35.824 12.0391 35.7178 12.0391H33.5419C33.3826 11.987 33.3296 12.0912 33.3296 12.1954ZM22.1843 12.1954V19.8046C22.1843 19.9088 22.2905 20.013 22.3966 20.013H24.4134C24.5195 20.013 24.6257 19.9088 24.6257 19.7524V19.127C24.6257 19.0228 24.5195 18.8664 24.4134 18.8664H23.2458V12.1954C23.2458 12.0912 23.1396 11.9349 23.0335 11.9349H22.4497C22.2905 11.987 22.1843 12.0912 22.1843 12.1954ZM21.1229 11.987H19.9022C19.1061 11.987 18.4162 12.6124 18.4162 13.4463V18.5537C18.4162 19.3355 19.053 20.013 19.9022 20.013H21.1229C21.229 20.013 21.3352 19.9088 21.3352 19.8046V19.127C21.3352 19.0228 21.229 18.9186 21.1229 18.9186H20.1145C19.8491 18.9186 19.5838 18.658 19.5838 18.3974V13.6547C19.5838 13.342 19.8491 13.1336 20.1145 13.1336H21.1229C21.229 13.1336 21.3352 13.0293 21.3352 12.9251V12.2476C21.3882 12.0912 21.2821 11.987 21.1229 11.987ZM31.9497 11.987H31.1536C30.1452 11.987 29.3491 12.7166 29.3491 13.8111C29.3491 15.114 29.986 15.7915 30.6229 16.5733C31.2597 17.355 31.3659 17.5635 31.3659 18.0847C31.3659 18.7101 31.1005 18.8664 30.5698 18.8664H29.9329C29.8268 18.8664 29.7206 18.9707 29.7206 19.0749L29.6676 19.7524C29.6676 19.8567 29.7737 19.9609 29.8798 19.9609H30.8882C32.162 19.9609 32.4804 19.1792 32.4804 18.0326C32.4804 16.9381 32.2681 16.7818 31.5251 15.7394C30.7821 14.7492 30.5167 14.645 30.5167 13.8111C30.5167 12.9251 31.2597 13.0293 31.2597 13.0293H32.0558C32.162 13.0293 32.2681 12.9251 32.2681 12.8208V12.1433C32.162 12.0391 32.0027 11.987 31.9497 11.987ZM17.2486 11.987H16.4525C15.4441 11.987 14.648 12.7166 14.648 13.8111C14.648 15.114 15.2849 15.7915 15.9218 16.5733C16.5586 17.355 16.6648 17.5635 16.6648 18.0847C16.6648 18.7101 16.3994 18.8664 15.8687 18.8664H15.1788C15.0726 18.8664 14.9665 18.9707 14.9665 19.0749L14.9134 19.7524C14.9134 19.8567 15.0195 19.9609 15.1257 19.9609H16.1341C17.4078 19.9609 17.7262 19.1792 17.7262 18.0326C17.7262 16.9381 17.5139 16.7818 16.7709 15.7394C16.0279 14.7492 15.7625 14.645 15.7625 13.8111C15.7625 12.9251 16.5056 13.0293 16.5056 13.0293H17.3017C17.4078 13.0293 17.5139 12.9251 17.5139 12.8208V12.1433C17.4609 12.0391 17.4078 11.987 17.2486 11.987ZM13.905 18.241V12.1954C13.905 12.0912 13.7989 11.9349 13.6396 11.9349H13.0558C12.9497 11.9349 12.7905 12.0391 12.7905 12.1954V18.241C12.7905 18.3453 12.8966 18.5016 13.0558 18.5016H13.6396C13.8519 18.4495 13.905 18.3453 13.905 18.241ZM9.92457 13.0814C10.3491 13.0814 10.6676 13.3941 10.6676 13.8111V18.2932C10.6676 18.7101 10.3491 19.0228 9.92457 19.0228H9.39384V13.0814H9.92457ZM8.65083 11.987C8.54468 11.987 8.38546 12.0912 8.38546 12.2476V19.8046C8.38546 19.9088 8.49161 20.0651 8.65083 20.0651H10.1369C11.0391 20.0651 11.7821 19.3355 11.7821 18.4495V13.6026C11.7821 12.7166 11.0391 11.987 10.1369 11.987H8.65083ZM13.3743 19.2313C12.8966 19.2313 12.5251 19.5961 12.5251 20.0651C12.5251 20.5342 12.8966 20.899 13.3743 20.899C13.8519 20.899 14.2234 20.5342 14.2234 20.0651C14.2234 19.5961 13.8519 19.2313 13.3743 19.2313ZM0 15.9479L13.3743 0L53.1787 15.5309C53.5502 15.6873 53.5502 16.2606 53.1787 16.4169L13.3743 32L0 15.9479Z" fill="white"/>
</svg>
