<svg width="63" height="57" viewBox="0 0 63 57" fill="none" xmlns="http://www.w3.org/2000/svg">
<path d="M13.7183 49.2468H0V24.8605H13.1981L12.9381 27.3787L4.55108 27.5112V35.4632L12.418 35.5958L12.2229 37.8488L4.55108 38.0476V46.7949L13.8483 46.9937L13.7183 49.2468Z" fill="#5071AE"/>
<path d="M23.0805 37.9151L23.7306 37.7826C24.3158 37.65 24.9009 37.4512 25.4211 37.2524C25.9412 37.0536 26.3963 36.7223 26.7864 36.2584C27.1765 35.7946 27.5015 35.2644 27.6966 34.5355C27.8916 33.8066 28.0217 32.9451 28.0217 31.8185C28.0217 30.1619 27.6316 28.9691 26.9164 28.2401C26.2012 27.5112 25.226 27.1136 24.0557 27.1136C23.7306 27.1136 23.4706 27.1136 23.1455 27.1136C22.8204 27.1136 22.4954 27.1799 22.1703 27.2461V49.1805H17.5542V24.993C18.0093 24.9268 18.5944 24.9268 19.1145 24.8605C19.6997 24.7942 20.2848 24.7942 20.87 24.7942C21.4551 24.7942 22.1053 24.728 22.6904 24.728C23.2755 24.728 23.9257 24.728 24.4458 24.728C25.8762 24.728 27.0464 24.8605 28.0867 25.1918C29.1269 25.5232 29.9721 25.9871 30.6223 26.5835C31.2724 27.1799 31.7926 27.9088 32.1176 28.7703C32.4427 29.6317 32.6378 30.6257 32.6378 31.686C32.6378 32.8126 32.4427 33.8728 32.1176 34.8668C31.7276 35.8608 31.2074 36.7223 30.4272 37.4512C29.6471 38.1802 28.7368 38.7766 27.5666 39.1742C26.3963 39.5718 25.031 39.8369 23.4056 39.8369H23.2105L23.0805 37.9151Z" fill="#5071AE"/>
<path d="M41.2848 47.3913C41.2848 49.9094 40.6997 51.9637 39.5294 53.4879C38.3591 55.012 36.6687 56.2048 34.3932 57L33.613 55.4759C34.2632 55.0783 34.7183 54.6807 35.1734 54.1505C35.5635 53.6867 35.8885 53.1565 36.0836 52.6264C36.2786 52.0962 36.4737 51.4998 36.5387 50.8372C36.6037 50.2408 36.6687 49.5118 36.6687 48.8492V24.8605H41.2848V47.3913Z" fill="#CE3D30"/>
<path d="M51.2972 49.2468V27.4449L44.3406 27.3124L44.6006 24.7942H63L62.7399 27.1799L55.9783 27.3787V49.1805H51.2972V49.2468Z" fill="#5071AE"/>
<path d="M38.4241 15.6494C36.8638 16.1795 36.0836 17.9025 36.6037 19.4929C37.1238 21.0833 38.8142 21.8785 40.3746 21.3484C41.935 20.8182 42.7152 19.0953 42.195 17.5049C41.6749 15.9145 39.9845 15.053 38.4241 15.6494Z" fill="#CE3D30"/>
<path d="M36.6687 2.92614V0.010392C36.6687 0.010392 57.2136 -1.11615 57.7337 20.0893H54.808C54.808 20.0893 55.5232 2.85987 36.6687 2.92614Z" fill="#CE3F31"/>
<path d="M36.6687 7.69736V5.57682C36.6687 5.57682 51.6873 4.25148 52.1424 20.1556H49.9319C49.9319 20.1556 50.452 7.43229 36.6687 7.69736Z" fill="#CE3F31"/>
<path d="M36.6687 12.1373V10.7456C36.6687 10.7456 46.4211 9.08897 46.6811 20.0893H45.3158C45.3158 20.1556 45.7059 11.2095 36.6687 12.1373Z" fill="#CE3F31"/>
</svg>
