<svg width="375" height="295" viewBox="0 0 375 295" fill="none" xmlns="http://www.w3.org/2000/svg">
<g clip-path="url(#clip0_144_8)">
<path d="M378.403 57.3928H372.636V119H378.403V57.3928Z" fill="#2F4233"/>
<path d="M375.082 100.9C361.465 100.9 350.384 89.773 350.384 76.0993C350.384 62.4257 361.465 51.2988 375.082 51.2988V54.0275C362.975 54.0275 353.101 63.9416 353.101 76.0993C353.101 88.257 362.975 98.1712 375.082 98.1712V100.9Z" fill="#2F4233"/>
<path d="M352.316 92.2591C364.089 92.2591 373.633 82.6759 373.633 70.8543C373.633 59.0327 364.089 49.4495 352.316 49.4495C340.544 49.4495 331 59.0327 331 70.8543C331 82.6759 340.544 92.2591 352.316 92.2591Z" fill="#6BA06B"/>
<path d="M374.237 78.8583L373.935 76.16C385.046 74.8866 393.409 65.4879 393.409 54.2397H396.127C396.127 66.8825 386.707 77.4637 374.237 78.8887V78.8583Z" fill="#2F4233"/>
<path d="M373.391 65.4879C391.401 65.4879 406 50.8279 406 32.7439C406 14.66 391.401 0 373.391 0C355.382 0 340.783 14.66 340.783 32.7439C340.783 50.8279 355.382 65.4879 373.391 65.4879Z" fill="#79B77B"/>
</g>
<path d="M362.772 72.4902H220.28V119.666H362.772V72.4902Z" fill="#BAB4C6"/>
<path d="M363.982 72.4909H220.28L198.607 30H342.308L363.982 72.4909Z" fill="#F3E8F3"/>
<path d="M197.648 30L176 72.4909H220.28L341.35 30H197.648Z" fill="#D16162"/>
<path d="M363.982 72.4909H220.28L198.607 30H342.308L363.982 72.4909Z" fill="#D16162"/>
<path d="M198.279 32.3181L177.487 72.4918V119.668H220.28V72.4918L198.279 32.3181Z" fill="#F3E8F3"/>
<path d="M195.909 87.5034H188.248V107.754H195.909V87.5034Z" fill="#ADAAAD"/>
<path d="M209.518 87.5034H201.857V107.754H209.518V87.5034Z" fill="#ADAAAD"/>
<path d="M349.868 87.5034H338.275V107.754H349.868V87.5034Z" fill="#786380"/>
<path d="M328.824 87.5034H317.231V107.754H328.824V87.5034Z" fill="#786380"/>
<path d="M307.806 87.5034H296.213V107.754H307.806V87.5034Z" fill="#786380"/>
<path d="M286.788 87.5034H275.195V107.754H286.788V87.5034Z" fill="#786380"/>
<path d="M265.768 87.5034H254.176V107.754H265.768V87.5034Z" fill="#786380"/>
<path d="M244.75 87.5034H233.157V107.754H244.75V87.5034Z" fill="#786380"/>
<rect y="119" width="375" height="176" fill="#79B77B"/>
<path d="M49.4807 71.4778H-23.1027V119.508H49.4807V71.4778Z" fill="#BAB4C6"/>
<path d="M39.2131 89.3589H28.355V108.326H39.2131V89.3589Z" fill="#786380"/>
<path d="M19.5271 89.3589H8.66919V108.326H19.5271V89.3589Z" fill="#786380"/>
<path d="M51.6527 69H-65V72.3971H51.6527V69Z" fill="#D16162"/>
<path d="M261.333 138.649H228.594C225.57 138.649 223.118 141.099 223.118 144.122C223.118 147.144 225.57 149.595 228.594 149.595H261.333C264.357 149.595 266.809 147.144 266.809 144.122C266.809 141.099 264.357 138.649 261.333 138.649Z" fill="#5E1B19"/>
<path d="M259.938 147.01L260.664 154.967L264.134 154.65L263.408 146.694L259.938 147.01Z" fill="#5E1B19"/>
<path d="M255.769 149.543L256.495 157.5L259.965 157.184L259.24 149.227L255.769 149.543Z" fill="#5E1B19"/>
<path d="M226.739 146.545L226.013 154.501L229.484 154.817L230.209 146.861L226.739 146.545Z" fill="#5E1B19"/>
<path d="M230.944 149.044L230.218 157.001L233.688 157.317L234.414 149.361L230.944 149.044Z" fill="#5E1B19"/>
<path d="M316.672 126H283.933C280.909 126 278.457 128.45 278.457 131.473C278.457 134.495 280.909 136.946 283.933 136.946H316.672C319.696 136.946 322.148 134.495 322.148 131.473C322.148 128.45 319.696 126 316.672 126Z" fill="#5E1B19"/>
<path d="M315.277 134.361L316.003 142.318L319.473 142.001L318.747 134.045L315.277 134.361Z" fill="#5E1B19"/>
<path d="M311.108 136.894L311.834 144.851L315.305 144.535L314.579 136.578L311.108 136.894Z" fill="#5E1B19"/>
<path d="M282.078 133.896L281.352 141.852L284.823 142.169L285.549 134.212L282.078 133.896Z" fill="#5E1B19"/>
<path d="M286.283 136.395L285.557 144.352L289.028 144.668L289.754 136.712L286.283 136.395Z" fill="#5E1B19"/>
<path d="M300.07 159.994H267.331C264.307 159.994 261.855 162.444 261.855 165.467C261.855 168.49 264.307 170.94 267.331 170.94H300.07C303.095 170.94 305.546 168.49 305.546 165.467C305.546 162.444 303.095 159.994 300.07 159.994Z" fill="#5E1B19"/>
<path d="M298.675 168.355L299.401 176.312L302.871 175.996L302.146 168.039L298.675 168.355Z" fill="#5E1B19"/>
<path d="M294.507 170.889L295.233 178.845L298.703 178.529L297.977 170.572L294.507 170.889Z" fill="#5E1B19"/>
<path d="M265.477 167.89L264.751 175.846L268.221 176.163L268.947 168.206L265.477 167.89Z" fill="#5E1B19"/>
<path d="M269.681 170.39L268.955 178.346L272.426 178.662L273.152 170.706L269.681 170.39Z" fill="#5E1B19"/>
<defs>
<clipPath id="clip0_144_8">
<rect width="75" height="119" fill="white" transform="translate(331)"/>
</clipPath>
</defs>
</svg>
