<svg width="375" height="292" viewBox="0 0 375 292" fill="none" xmlns="http://www.w3.org/2000/svg">
<path d="M279.762 99.3627C275.481 99.3627 272 95.615 272 86.785V56.7181C272.011 28.7761 277.509 26 279.762 26C282.485 26 287.525 27.6336 287.525 56.7181V86.785C287.525 94.7928 284.054 99.3627 279.762 99.3627Z" fill="#487466"/>
<path d="M281.022 55.821H279.762L278.492 117.855L280.926 117.396L281.022 55.821Z" fill="#2F4233"/>
<path d="M280.072 75.4034L284.225 72.2856L284.236 72.8409L280.243 76.7487" fill="#2F4233"/>
<path d="M276.281 80.7524L276.014 81.4892L279.783 88.2905L279.912 86.6356L276.281 80.7524Z" fill="#2F4233"/>
<path d="M44.1708 101.772C40.2156 101.772 37.0001 98.3099 37.0001 90.1528V62.3772C37.0099 36.5645 42.0896 34 44.1708 34C46.686 34 51.3416 35.5091 51.3416 62.3772V90.1528C51.3416 97.5504 48.1359 101.772 44.1708 101.772Z" fill="#487466"/>
<path d="M45.3347 61.5486H44.1708L42.9971 118.855L45.2459 118.431L45.3347 61.5486Z" fill="#2F4233"/>
<path d="M44.457 79.6384L48.2938 76.7583L48.3037 77.2712L44.6148 80.8812" fill="#2F4233"/>
<path d="M40.9553 84.5798L40.7087 85.2604L44.1905 91.5434L44.3088 90.0146L40.9553 84.5798Z" fill="#2F4233"/>
<path d="M124.389 106.772C118.659 106.772 114 104.171 114 98.0696V77.2634C114 57.9291 121.374 56 124.389 56C128.033 56 134.778 57.1289 134.778 77.2634V98.0696C134.778 103.614 130.133 106.772 124.389 106.772Z" fill="#487466"/>
<path d="M126.061 76.6343H124.375L122.674 119.561L125.946 119.247L126.061 76.6343Z" fill="#2F4233"/>
<path d="M124.803 90.1817L130.348 88.0239L130.362 88.4098L125.018 91.1248" fill="#2F4233"/>
<path d="M119.716 93.8828L119.373 94.3973L124.403 99.0986L124.574 97.9554L119.716 93.8828Z" fill="#2F4233"/>
<path d="M30.3888 109.79C26.0109 109.79 22.4517 107.803 22.4517 103.141V87.2454C22.4517 72.4739 28.0852 71 30.3888 71C33.1728 71 38.3259 71.8625 38.3259 87.2454V103.141C38.3259 107.377 34.7777 109.79 30.3888 109.79Z" fill="#487466"/>
<path d="M31.6663 86.7646H30.378L29.0788 119.561L31.5789 119.321L31.6663 86.7646Z" fill="#2F4233"/>
<path d="M30.7054 97.1151L34.9415 95.4666L34.9524 95.7613L30.8692 97.8357" fill="#2F4233"/>
<path d="M26.8187 99.9429L26.5566 100.336L30.3996 103.928L30.5306 103.054L26.8187 99.9429Z" fill="#2F4233"/>
<path d="M387.98 50.5723H320.786V115.937H387.98V50.5723Z" fill="#BAB4C6"/>
<path d="M320.809 50.5723H283.704V115.937H320.809V50.5723Z" fill="#F3E8F3"/>
<path d="M299.678 88.0486H293.035V105.607H299.678V88.0486Z" fill="#ADAAAD"/>
<path d="M311.457 88.0488H304.814V105.607H311.457V88.0488Z" fill="#ADAAAD"/>
<path d="M378.475 88.0488H368.424V105.607H378.475V88.0488Z" fill="#786380"/>
<path d="M360.251 88.0488H350.199V105.607H360.251V88.0488Z" fill="#786380"/>
<path d="M342.027 88.0486H331.975V105.607H342.027V88.0486Z" fill="#786380"/>
<path d="M299.678 60.1387H293.035V77.6974H299.678V60.1387Z" fill="#ADAAAD"/>
<path d="M311.457 60.1387H304.814V77.6974H311.457V60.1387Z" fill="#ADAAAD"/>
<path d="M378.475 60.1387H368.424V77.6974H378.475V60.1387Z" fill="#786380"/>
<path d="M360.251 60.1387H350.199V77.6974H360.251V60.1387Z" fill="#786380"/>
<path d="M342.027 60.1387H331.975V77.6974H342.027V60.1387Z" fill="#786380"/>
<path d="M389.991 49H282V52.1448H389.991V49Z" fill="#D16162"/>
<path d="M117.287 25.3438H86.396V117.857H117.287V25.3438Z" fill="#BAB4C6"/>
<path d="M118.008 25.3442H86.3958L73.4834 0H105.096L118.008 25.3442Z" fill="#F3E8F3"/>
<path d="M72.9124 0L60 25.3442H86.3961L104.525 0H72.9124Z" fill="#D16162"/>
<path d="M118.008 25.3442H86.3958L73.4834 0H105.096L118.008 25.3442Z" fill="#D16162"/>
<path d="M73.2885 1.38281L60.8871 25.3449V117.858H86.3963V25.3449L73.2885 1.38281Z" fill="#F3E8F3"/>
<path d="M71.875 34.2986H67.3053V46.3773H71.875V34.2986Z" fill="#ADAAAD"/>
<path d="M79.9772 34.2986H75.4075V46.3773H79.9772V34.2986Z" fill="#ADAAAD"/>
<path d="M71.875 50.5693H67.3053V62.648H71.875V50.5693Z" fill="#ADAAAD"/>
<path d="M79.9772 50.5693H75.4075V62.648H79.9772V50.5693Z" fill="#ADAAAD"/>
<path d="M71.875 66.8535H67.3053V78.9322H71.875V66.8535Z" fill="#ADAAAD"/>
<path d="M79.9772 66.8535H75.4075V78.9322H79.9772V66.8535Z" fill="#ADAAAD"/>
<path d="M71.875 83.1389H67.3053V95.2176H71.875V83.1389Z" fill="#ADAAAD"/>
<path d="M79.9772 83.1389H75.4075V95.2176H79.9772V83.1389Z" fill="#ADAAAD"/>
<path d="M99.1583 34.2986H92.2437V46.3773H99.1583V34.2986Z" fill="#786380"/>
<path d="M111.439 34.2986H104.525V46.3773H111.439V34.2986Z" fill="#786380"/>
<path d="M99.1583 50.5693H92.2437V62.648H99.1583V50.5693Z" fill="#786380"/>
<path d="M111.439 50.5693H104.525V62.648H111.439V50.5693Z" fill="#786380"/>
<path d="M99.1583 66.8535H92.2437V78.9322H99.1583V66.8535Z" fill="#786380"/>
<path d="M111.439 66.8535H104.525V78.9322H111.439V66.8535Z" fill="#786380"/>
<path d="M99.1583 83.1389H92.2437V95.2176H99.1583V83.1389Z" fill="#786380"/>
<path d="M111.439 83.1389H104.525V95.2176H111.439V83.1389Z" fill="#786380"/>
<rect y="116" width="375" height="176" fill="#79B77B"/>
<path d="M52.2923 150.951C48.4128 149.05 38.2029 147.901 41.7285 150.568C45.2542 153.234 53 154 53 154L52.2923 150.951Z" fill="#9CD179"/>
<path d="M320.292 130.951C316.413 129.05 306.203 127.901 309.729 130.568C313.254 133.234 321 134 321 134L320.292 130.951Z" fill="#9CD179"/>
<path d="M59.2333 157.951C55.0305 156.05 43.9698 154.901 47.7892 157.568C51.6087 160.234 60 161 60 161L59.2333 157.951Z" fill="#9CD179"/>
<path d="M327.233 137.951C323.03 136.05 311.97 134.901 315.789 137.568C319.609 140.234 328 141 328 141L327.233 137.951Z" fill="#9CD179"/>
<path d="M68.2922 153.951C64.4128 152.05 54.2029 150.901 57.7285 153.568C61.2541 156.234 69 157 69 157L68.2922 153.951Z" fill="#9CD179"/>
<path d="M336.292 133.951C332.413 132.05 322.203 130.901 325.729 133.568C329.254 136.234 337 137 337 137L336.292 133.951Z" fill="#9CD179"/>
</svg>
