<svg width="375" height="265" viewBox="0 0 375 265" fill="none" xmlns="http://www.w3.org/2000/svg">
<g clip-path="url(#clip0_270_12)">
<path d="M70.0265 45.3708H65.6437V92.9999H70.0265V45.3708Z" fill="#2F4233"/>
<path d="M67.5025 79.0067C57.1534 79.0067 48.7319 70.4044 48.7319 59.8332C48.7319 49.262 57.1534 40.6597 67.5025 40.6597V42.7692C58.3008 42.7692 50.7972 50.4339 50.7972 59.8332C50.7972 69.2324 58.3008 76.8971 67.5025 76.8971V79.0067Z" fill="#2F4233"/>
<path d="M50.2005 72.3263C59.1478 72.3263 66.401 64.9174 66.401 55.778C66.401 46.6387 59.1478 39.2297 50.2005 39.2297C41.2532 39.2297 34 46.6387 34 55.778C34 64.9174 41.2532 72.3263 50.2005 72.3263Z" fill="#6BA06B"/>
<path d="M66.86 61.9662L66.6305 59.8801C75.0749 58.8956 81.4312 51.6294 81.4312 42.9333H83.4964C83.4964 52.7076 76.337 60.888 66.86 61.9897V61.9662Z" fill="#2F4233"/>
<path d="M66.2174 51.6293C79.9045 51.6293 91 40.2955 91 26.3146C91 12.3338 79.9045 1 66.2174 1C52.5304 1 41.4348 12.3338 41.4348 26.3146C41.4348 40.2955 52.5304 51.6293 66.2174 51.6293Z" fill="#79B77B"/>
</g>
<g clip-path="url(#clip1_270_12)">
<path d="M1.82206 56.7605H5.12842V93H1.82206V56.7605Z" fill="#2F4233"/>
<path d="M3.72625 82.3528C11.5334 82.3528 17.8865 75.8076 17.8865 67.7643C17.8865 59.721 11.5334 53.1758 3.72625 53.1758V54.7809C10.6679 54.7809 16.3285 60.6127 16.3285 67.7643C16.3285 74.9159 10.6679 80.7478 3.72625 80.7478V82.3528Z" fill="#2F4233"/>
<path d="M16.7786 77.2701C10.0289 77.2701 4.55717 71.6328 4.55717 64.679C4.55717 57.7251 10.0289 52.0879 16.7786 52.0879C23.5283 52.0879 29 57.7251 29 64.679C29 71.6328 23.5283 77.2701 16.7786 77.2701Z" fill="#6BA06B"/>
<path d="M4.21093 69.3873L4.38403 67.8C-1.98634 67.051 -6.78143 61.5223 -6.78143 54.9058H-8.3394C-8.3394 62.3427 -2.93843 68.5669 4.21093 69.4051V69.3873Z" fill="#2F4233"/>
<path d="M4.69571 61.5223C-5.62962 61.5223 -13.9999 52.8988 -13.9999 42.2611C-13.9999 31.6235 -5.62962 23 4.69571 23C15.021 23 23.3914 31.6235 23.3914 42.2611C23.3914 52.8988 15.021 61.5223 4.69571 61.5223Z" fill="#79B77B"/>
</g>
<rect y="89" width="375" height="176" fill="#79B77B"/>
<path d="M352.763 42.481H210.278V89.6456H352.763V42.481Z" fill="#BAB4C6"/>
<path d="M353.972 42.4809H210.277L188.604 0H332.299L353.972 42.4809Z" fill="#F3E8F3"/>
<path d="M187.647 0L166 42.4809H210.278L331.342 0H187.647Z" fill="#D16162"/>
<path d="M353.972 42.4809H210.277L188.604 0H332.299L353.972 42.4809Z" fill="#D16162"/>
<path d="M188.277 2.31665L167.487 42.4809V89.6455H210.278V42.4809L188.277 2.31665Z" fill="#F3E8F3"/>
<path d="M185.909 57.4888H178.248V77.7346H185.909V57.4888Z" fill="#ADAAAD"/>
<path d="M199.517 57.4888H191.856V77.7346H199.517V57.4888Z" fill="#ADAAAD"/>
<path d="M339.859 57.4888H328.267V77.7346H339.859V57.4888Z" fill="#786380"/>
<path d="M318.817 57.4888H307.225V77.7346H318.817V57.4888Z" fill="#786380"/>
<path d="M297.799 57.4888H286.207V77.7346H297.799V57.4888Z" fill="#786380"/>
<path d="M276.782 57.4888H265.19V77.7346H276.782V57.4888Z" fill="#786380"/>
<path d="M255.765 57.4888H244.173V77.7346H255.765V57.4888Z" fill="#786380"/>
<path d="M234.747 57.4888H223.155V77.7346H234.747V57.4888Z" fill="#786380"/>
<defs>
<clipPath id="clip0_270_12">
<rect width="57" height="92" fill="white" transform="translate(34 1)"/>
</clipPath>
<clipPath id="clip1_270_12">
<rect width="43" height="70" fill="white" transform="matrix(-1 0 0 1 29 23)"/>
</clipPath>
</defs>
</svg>
