<svg width="375" height="328" viewBox="0 0 375 328" fill="none" xmlns="http://www.w3.org/2000/svg">
<g clip-path="url(#clip0_270_13)">
<path d="M60.4034 90.3928H54.6365V152H60.4034V90.3928Z" fill="#2F4233"/>
<path d="M57.0821 133.9C43.465 133.9 32.384 122.773 32.384 109.099C32.384 95.4257 43.465 84.2988 57.0821 84.2988V87.0275C44.9746 87.0275 35.1014 96.9416 35.1014 109.099C35.1014 121.257 44.9746 131.171 57.0821 131.171V133.9Z" fill="#2F4233"/>
<path d="M34.3164 125.259C46.0892 125.259 55.6329 115.676 55.6329 103.854C55.6329 92.0327 46.0892 82.4495 34.3164 82.4495C22.5437 82.4495 13 92.0327 13 103.854C13 115.676 22.5437 125.259 34.3164 125.259Z" fill="#6BA06B"/>
<path d="M56.2367 111.858L55.9348 109.16C67.0459 107.887 75.4095 98.4879 75.4095 87.2397H78.1268C78.1268 99.8825 68.7066 110.464 56.2367 111.889V111.858Z" fill="#2F4233"/>
<path d="M55.3914 98.4879C73.4007 98.4879 88.0001 83.8279 88.0001 65.7439C88.0001 47.66 73.4007 33 55.3914 33C37.3821 33 22.7827 47.66 22.7827 65.7439C22.7827 83.8279 37.3821 98.4879 55.3914 98.4879Z" fill="#79B77B"/>
</g>
<path d="M241.177 91.9728C246.547 91.9728 250.914 87.2744 250.914 76.2044V38.5105C250.914 3.48029 244.003 0 241.177 0C237.761 0 231.44 2.04803 231.44 38.5105V76.2044C231.44 86.2437 235.793 91.9728 241.177 91.9728Z" fill="#487466"/>
<path d="M239.596 37.3728H241.176L242.77 115.143L239.716 114.568L239.596 37.3728Z" fill="#2F4233"/>
<path d="M240.788 61.9357L235.578 58.0137L235.565 58.7097L240.574 63.6223" fill="#2F4233"/>
<path d="M245.542 68.6279L245.877 69.5515L241.163 78.0782L240.989 76.0167L245.542 68.6279Z" fill="#2F4233"/>
<path d="M216.182 97.6178C221.552 97.6178 225.919 95.1816 225.919 89.4659V69.9764C225.919 51.8657 219.008 50.0586 216.182 50.0586C212.766 50.0586 206.445 51.1161 206.445 69.9764V89.4659C206.445 94.6595 210.797 97.6178 216.182 97.6178Z" fill="#487466"/>
<path d="M214.615 69.387H216.195L217.789 109.597L214.722 109.303L214.615 69.387Z" fill="#2F4233"/>
<path d="M215.793 82.0898L210.596 80.0686L210.583 80.4166L215.592 82.9599" fill="#2F4233"/>
<path d="M220.562 85.5444L220.883 86.0263L216.169 90.4436L216.008 89.3727L220.562 85.5444Z" fill="#2F4233"/>
<path d="M184 153.653H284C284 153.653 266.417 97.7597 231.85 97.6532C206.523 97.5733 184 153.653 184 153.653Z" fill="url(#paint0_linear_270_13)"/>
<rect y="152" width="375" height="176" fill="#79B77B"/>
<path d="M277.292 182.951C273.413 181.05 263.203 179.901 266.729 182.568C270.254 185.234 278 186 278 186L277.292 182.951Z" fill="#9CD179"/>
<path d="M284.233 189.951C280.03 188.05 268.97 186.901 272.789 189.568C276.609 192.234 285 193 285 193L284.233 189.951Z" fill="#9CD179"/>
<path d="M293.292 185.951C289.413 184.05 279.203 182.901 282.729 185.568C286.254 188.234 294 189 294 189L293.292 185.951Z" fill="#9CD179"/>
<path d="M342 81H309V152H342V81Z" fill="#BAB4C6"/>
<path d="M309 81H267V152H309V81Z" fill="#F3E8F3"/>
<path d="M296 111H277V152H296V111Z" fill="#ADAAAD"/>
<path d="M344 78H265V85H344V78Z" fill="#D16162"/>
<defs>
<linearGradient id="paint0_linear_270_13" x1="234" y1="153.653" x2="234" y2="97.6532" gradientUnits="userSpaceOnUse">
<stop stop-color="#9ECC7C"/>
<stop offset="1" stop-color="#7EA97C"/>
</linearGradient>
<clipPath id="clip0_270_13">
<rect width="75" height="119" fill="white" transform="translate(13 33)"/>
</clipPath>
</defs>
</svg>
