<svg width="375" height="295" viewBox="0 0 375 295" fill="none" xmlns="http://www.w3.org/2000/svg">
<g clip-path="url(#clip0_269_10)">
<path d="M363.403 57.3928H357.636V119H363.403V57.3928Z" fill="#2F4233"/>
<path d="M360.082 100.9C346.465 100.9 335.384 89.773 335.384 76.0993C335.384 62.4257 346.465 51.2988 360.082 51.2988V54.0275C347.975 54.0275 338.101 63.9416 338.101 76.0993C338.101 88.257 347.975 98.1712 360.082 98.1712V100.9Z" fill="#2F4233"/>
<path d="M337.316 92.2591C349.089 92.2591 358.633 82.6759 358.633 70.8543C358.633 59.0327 349.089 49.4495 337.316 49.4495C325.544 49.4495 316 59.0327 316 70.8543C316 82.6759 325.544 92.2591 337.316 92.2591Z" fill="#6BA06B"/>
<path d="M359.237 78.8583L358.935 76.16C370.046 74.8866 378.409 65.4879 378.409 54.2397H381.127C381.127 66.8825 371.707 77.4637 359.237 78.8887V78.8583Z" fill="#2F4233"/>
<path d="M358.391 65.4879C376.401 65.4879 391 50.8279 391 32.7439C391 14.66 376.401 0 358.391 0C340.382 0 325.783 14.66 325.783 32.7439C325.783 50.8279 340.382 65.4879 358.391 65.4879Z" fill="#79B77B"/>
</g>
<g clip-path="url(#clip1_269_10)">
<path d="M68.1393 57.3928H62.5262V119H68.1393V57.3928Z" fill="#2F4233"/>
<path d="M64.9066 100.9C51.6526 100.9 40.8672 89.773 40.8672 76.0993C40.8672 62.4257 51.6526 51.2988 64.9066 51.2988V54.0275C53.122 54.0275 43.5121 63.9416 43.5121 76.0993C43.5121 88.257 53.122 98.1712 64.9066 98.1712V100.9Z" fill="#2F4233"/>
<path d="M42.748 92.2591C54.2068 92.2591 63.496 82.6759 63.496 70.8543C63.496 59.0327 54.2068 49.4495 42.748 49.4495C31.2892 49.4495 22 59.0327 22 70.8543C22 82.6759 31.2892 92.2591 42.748 92.2591Z" fill="#6BA06B"/>
<path d="M64.0837 78.8583L63.7899 76.16C74.6047 74.8866 82.7452 65.4879 82.7452 54.2397H85.3901C85.3901 66.8825 76.221 77.4637 64.0837 78.8887V78.8583Z" fill="#2F4233"/>
<path d="M63.2609 65.4879C80.7899 65.4879 95 50.8279 95 32.7439C95 14.66 80.7899 0 63.2609 0C45.7318 0 31.5217 14.66 31.5217 32.7439C31.5217 50.8279 45.7318 65.4879 63.2609 65.4879Z" fill="#79B77B"/>
</g>
<path d="M97.7278 49H140.126L115.467 61.7245H72.7421L97.7278 49Z" fill="#B53930"/>
<path d="M131.722 49H174.094L149.436 61.7245H106.736L131.722 49Z" fill="#B53930"/>
<path d="M165.464 49H207.836L183.178 61.7245H140.478L165.464 49Z" fill="#B53930"/>
<path d="M81.7249 61.7245V119.614H115.618V61.7245H115.568L106.384 49L81.7249 61.7245Z" fill="#BAB4C6"/>
<path d="M39.3264 61.7245V119.614H73.2195V61.7245H73.1692L63.9852 49L39.3264 61.7245Z" fill="#BAB4C6"/>
<path d="M115.543 61.7245V119.614H149.436V61.7245H149.385L140.201 49L115.543 61.7245Z" fill="#BAB4C6"/>
<path d="M149.36 61.7245V119.614H183.253V61.7245H183.203L174.019 49L149.36 61.7245Z" fill="#BAB4C6"/>
<path d="M183.153 61.7245V119.614H217.046V61.7245H217.021L207.836 49L183.153 61.7245Z" fill="#BAB4C6"/>
<path d="M81.7249 61.7236H39V119.613H81.7249V61.7236Z" fill="#F3E8F3"/>
<path d="M57.3934 87.5H49.744V107.718H57.3934V87.5Z" fill="#ADAAAD"/>
<path d="M70.9807 87.5H63.3316V107.718H70.9807V87.5Z" fill="#ADAAAD"/>
<path d="M211.107 87.5H199.533V107.718H211.107V87.5Z" fill="#786380"/>
<path d="M190.097 87.5H178.523V107.718H190.097V87.5Z" fill="#786380"/>
<path d="M169.112 87.5H157.538V107.718H169.112V87.5Z" fill="#786380"/>
<path d="M148.127 87.5H136.553V107.718H148.127V87.5Z" fill="#786380"/>
<path d="M127.142 87.5H115.568V107.718H127.142V87.5Z" fill="#786380"/>
<path d="M106.157 87.5H94.5826V107.718H106.157V87.5Z" fill="#786380"/>
<path d="M63.9858 49H106.384L81.7249 61.7245H39L63.9858 49Z" fill="#B53930"/>
<rect y="119" width="375" height="176" fill="#79B77B"/>
<path d="M133.292 156.951C129.413 155.05 119.203 153.901 122.729 156.568C126.254 159.234 134 160 134 160L133.292 156.951Z" fill="#9CD179"/>
<path d="M140.233 163.951C136.03 162.05 124.97 160.901 128.789 163.568C132.609 166.234 141 167 141 167L140.233 163.951Z" fill="#9CD179"/>
<path d="M149.292 159.951C145.413 158.05 135.203 156.901 138.729 159.568C142.254 162.234 150 163 150 163L149.292 159.951Z" fill="#9CD179"/>
<defs>
<clipPath id="clip0_269_10">
<rect width="75" height="119" fill="white" transform="translate(316)"/>
</clipPath>
<clipPath id="clip1_269_10">
<rect width="73" height="119" fill="white" transform="translate(22)"/>
</clipPath>
</defs>
</svg>
