<svg width="375" height="290" viewBox="0 0 375 290" fill="none" xmlns="http://www.w3.org/2000/svg">
<g clip-path="url(#clip0_270_14)">
<path d="M354.97 73.6189H351.202V114H354.97V73.6189Z" fill="#2F4233"/>
<path d="M352.8 102.136C343.904 102.136 336.664 94.8429 336.664 85.8803C336.664 76.9178 343.904 69.6245 352.8 69.6245V71.413C344.89 71.413 338.44 77.9114 338.44 85.8803C338.44 93.8492 344.89 100.348 352.8 100.348V102.136Z" fill="#2F4233"/>
<path d="M337.927 96.4722C345.618 96.4722 351.853 90.1908 351.853 82.4422C351.853 74.6936 345.618 68.4121 337.927 68.4121C330.235 68.4121 324 74.6936 324 82.4422C324 90.1908 330.235 96.4722 337.927 96.4722Z" fill="#6BA06B"/>
<path d="M352.248 87.6886L352.051 85.9199C359.31 85.0853 364.774 78.9247 364.774 71.552H366.55C366.55 79.8389 360.395 86.7744 352.248 87.7084V87.6886Z" fill="#2F4233"/>
<path d="M351.696 78.9248C363.462 78.9248 373 69.3158 373 57.4624C373 45.6091 363.462 36 351.696 36C339.93 36 330.391 45.6091 330.391 57.4624C330.391 69.3158 339.93 78.9248 351.696 78.9248Z" fill="#79B77B"/>
</g>
<g clip-path="url(#clip1_270_14)">
<path d="M55.4984 69.9949H51.4231V114H55.4984V69.9949Z" fill="#2F4233"/>
<path d="M53.1513 101.071C43.5285 101.071 35.698 93.1236 35.698 83.3567C35.698 73.5899 43.5285 65.6421 53.1513 65.6421V67.5911C44.5953 67.5911 37.6183 74.6727 37.6183 83.3567C37.6183 92.0408 44.5953 99.1223 53.1513 99.1223V101.071Z" fill="#2F4233"/>
<path d="M37.0636 94.8994C45.383 94.8994 52.1272 88.0542 52.1272 79.6102C52.1272 71.1662 45.383 64.321 37.0636 64.321C28.7442 64.321 22 71.1662 22 79.6102C22 88.0542 28.7442 94.8994 37.0636 94.8994Z" fill="#6BA06B"/>
<path d="M52.5539 85.3274L52.3406 83.4C60.1924 82.4905 66.1027 75.7771 66.1027 67.7427H68.0229C68.0229 76.7732 61.3659 84.3312 52.5539 85.349V85.3274Z" fill="#2F4233"/>
<path d="M51.9566 75.7771C64.6831 75.7771 75 65.3057 75 52.3885C75 39.4714 64.6831 29 51.9566 29C39.23 29 28.9131 39.4714 28.9131 52.3885C28.9131 65.3057 39.23 75.7771 51.9566 75.7771Z" fill="#79B77B"/>
</g>
<rect y="114" width="375" height="176" fill="#79B77B"/>
<path d="M338.911 34.6221H263.711V114H338.911V34.6221Z" fill="#BAB4C6"/>
<path d="M231.2 0.155518L200 34.6222H263.792L307.578 0.155518H231.2Z" fill="#D16162"/>
<path d="M341 34.6222H263.881L232.378 0.155518H309.486L341 34.6222Z" fill="#D16162"/>
<path d="M232.03 2.24438L202.089 34.5338V114H263.711V34.5338L232.03 2.24438Z" fill="#F3E8F3"/>
<path d="M242.993 46.457H236.815V62.7644H242.993V46.457Z" fill="#ADAAAD"/>
<path d="M253.942 46.457H247.764V62.7644H253.942V46.457Z" fill="#ADAAAD"/>
<path d="M242.993 90.4082H236.815V106.716H242.993V90.4082Z" fill="#ADAAAD"/>
<path d="M253.942 90.4082H247.764V106.716H253.942V90.4082Z" fill="#ADAAAD"/>
<path d="M214.467 46.457H208.289V62.7644H214.467V46.457Z" fill="#ADAAAD"/>
<path d="M225.416 46.457H219.238V62.7644H225.416V46.457Z" fill="#ADAAAD"/>
<path d="M214.467 90.4082H208.289V106.716H214.467V90.4082Z" fill="#ADAAAD"/>
<path d="M225.416 90.4082H219.238V106.716H225.416V90.4082Z" fill="#ADAAAD"/>
<path d="M315.046 46.457H305.706V62.7644H315.046V46.457Z" fill="#786380"/>
<path d="M331.621 46.457H322.281V62.7644H331.621V46.457Z" fill="#786380"/>
<path d="M315.046 68.4326H305.706V84.7399H315.046V68.4326Z" fill="#786380"/>
<path d="M331.621 68.4326H322.281V84.7399H331.621V68.4326Z" fill="#786380"/>
<path d="M315.046 90.4082H305.706V106.716H315.046V90.4082Z" fill="#786380"/>
<path d="M331.621 90.4082H322.281V106.716H331.621V90.4082Z" fill="#786380"/>
<path d="M280.375 46.457H271.035V62.7644H280.375V46.457Z" fill="#786380"/>
<path d="M296.951 46.457H287.611V62.7644H296.951V46.457Z" fill="#786380"/>
<path d="M280.375 68.4326H271.035V84.7399H280.375V68.4326Z" fill="#786380"/>
<path d="M296.951 68.4326H287.611V84.7399H296.951V68.4326Z" fill="#786380"/>
<path d="M288.778 89.9778H279.378V114H288.778V89.9778Z" fill="#786380"/>
<path d="M230.289 32.5333C233.75 32.5333 236.556 29.7276 236.556 26.2666C236.556 22.8057 233.75 20 230.289 20C226.828 20 224.022 22.8057 224.022 26.2666C224.022 29.7276 226.828 32.5333 230.289 32.5333Z" fill="#ADAAAD"/>
<defs>
<clipPath id="clip0_270_14">
<rect width="49" height="78" fill="white" transform="translate(324 36)"/>
</clipPath>
<clipPath id="clip1_270_14">
<rect width="53" height="85" fill="white" transform="translate(22 29)"/>
</clipPath>
</defs>
</svg>
