<svg width="375" height="317" viewBox="0 0 375 317" fill="none" xmlns="http://www.w3.org/2000/svg">
<path d="M47.21 94.71C43.2 94.71 39.94 91.2 39.94 82.93V54.77C39.95 28.6 45.1 26 47.21 26C49.76 26 54.48 27.53 54.48 54.77V82.93C54.48 90.43 51.23 94.71 47.21 94.71Z" fill="#487466"/>
<path d="M48.39 53.9299H47.21L46.02 112.03L48.3 111.6L48.39 53.9299Z" fill="#2F4233"/>
<path d="M47.5 72.2701L51.39 69.3501L51.4 69.8701L47.66 73.5301" fill="#2F4233"/>
<path d="M43.95 77.28L43.7 77.97L47.23 84.34L47.35 82.79L43.95 77.28Z" fill="#2F4233"/>
<path d="M26.3 110.89C22.29 110.89 19.03 109.07 19.03 104.8V90.2401C19.03 76.7101 24.19 75.3601 26.3 75.3601C28.85 75.3601 33.57 76.1501 33.57 90.2401V104.8C33.57 108.68 30.32 110.89 26.3 110.89Z" fill="#487466"/>
<path d="M27.47 89.8H26.29L25.1 119.84L27.39 119.62L27.47 89.8Z" fill="#2F4233"/>
<path d="M26.59 99.28L30.47 97.77L30.48 98.04L26.74 99.94" fill="#2F4233"/>
<path d="M23.03 101.87L22.79 102.23L26.31 105.52L26.43 104.72L23.03 101.87Z" fill="#2F4233"/>
<path d="M89.9 141.08H15C15 141.08 28.17 99.1001 54.06 99.0201C73.03 98.9501 89.9 141.08 89.9 141.08Z" fill="url(#paint0_linear_144_4)"/>
<rect y="141" width="375" height="176" fill="#79B77B"/>
<path d="M334 67.3813H272.875V140.81H334V67.3813Z" fill="#BAB4C6"/>
<path d="M334.974 67.3811H272.875L255.8 33.8472H317.879L334.974 67.3811Z" fill="#F3E8F3"/>
<path d="M255.045 33.8472L237.95 67.3811H272.875L317.123 33.8472" fill="#B53930"/>
<path d="M334.974 67.3811H272.875L255.8 33.8472H317.879L334.974 67.3811Z" fill="#B53930"/>
<path d="M331.793 76.7041L331.535 110.238H349.624L368.17 76.7041" fill="#D16162"/>
<path d="M386 110.238H323.902L306.827 76.7041H368.925L386 110.238Z" fill="#B53930"/>
<path d="M255.522 35.6758L239.123 67.3809V140.81H272.875V67.3809L255.522 35.6758Z" fill="#F3E8F3"/>
<path d="M385.901 110.357H288.758V140.81H385.901V110.357Z" fill="#BAB4C6"/>
<path d="M253.653 79.2285H247.61V95.2103H253.653V79.2285Z" fill="#ADAAAD"/>
<path d="M264.387 79.2285H258.344V95.2103H264.387V79.2285Z" fill="#ADAAAD"/>
<path d="M253.653 111.669H247.61V127.651H253.653V111.669Z" fill="#ADAAAD"/>
<path d="M264.387 111.669H258.344V127.651H264.387V111.669Z" fill="#ADAAAD"/>
<path d="M363.677 115.386H354.533V131.368H363.677V115.386Z" fill="#786380"/>
<path d="M379.48 115.386H370.336V131.368H379.48V115.386Z" fill="#786380"/>
<path d="M254.747 51.5382C256.975 51.5382 258.782 49.7316 258.782 47.503C258.782 45.2744 256.975 43.4678 254.747 43.4678C252.518 43.4678 250.711 45.2744 250.711 47.503C250.711 49.7316 252.518 51.5382 254.747 51.5382Z" fill="#534741"/>
<path d="M255.204 48.2784L253.792 46.8671L297.166 3.49365L297.703 4.03035L255.204 48.2784Z" fill="#534741"/>
<path d="M267.091 45.4758L256.695 35.0797L291.739 0.0549316L302.135 10.451L267.091 45.4758ZM258.106 35.0797L267.091 44.0645L300.724 10.451L291.739 1.46626L258.106 35.0797Z" fill="#534741"/>
<path d="M301.428 10.4344L296.382 5.38843L262.058 39.7126L267.104 44.7586L301.428 10.4344Z" fill="#534741"/>
<path d="M273.19 43.4528L258.755 29.0176L258.249 29.5236L272.684 43.9588L273.19 43.4528Z" fill="#534741"/>
<path d="M276.247 40.3916L261.812 25.9563L261.306 26.4623L275.741 40.8976L276.247 40.3916Z" fill="#534741"/>
<path d="M279.304 37.3105L264.869 22.8752L264.363 23.3813L278.798 37.8165L279.304 37.3105Z" fill="#534741"/>
<path d="M282.361 34.2497L267.926 19.8145L267.42 20.3205L281.855 34.7557L282.361 34.2497Z" fill="#534741"/>
<path d="M285.418 31.1884L270.983 16.7532L270.477 17.2592L284.912 31.6944L285.418 31.1884Z" fill="#534741"/>
<path d="M288.475 28.1272L274.04 13.6919L273.534 14.1979L287.969 28.6332L288.475 28.1272Z" fill="#534741"/>
<path d="M291.58 25.0659L277.145 10.6306L276.639 11.1366L291.074 25.5719L291.58 25.0659Z" fill="#534741"/>
<path d="M294.637 22.0046L280.202 7.56934L279.696 8.07534L294.131 22.5106L294.637 22.0046Z" fill="#534741"/>
<path d="M297.694 18.9233L283.259 4.48804L282.753 4.99404L297.188 19.4293L297.694 18.9233Z" fill="#534741"/>
<path d="M300.751 15.8625L286.316 1.42725L285.81 1.93325L300.245 16.3685L300.751 15.8625Z" fill="#534741"/>
<path d="M253.932 46.9668L255.323 48.3781L211.95 91.7317L211.413 91.195L253.932 46.9668Z" fill="#534741"/>
<path d="M217.396 95.1704L207 84.7942L242.025 49.7495L252.421 60.1456L217.396 95.1704ZM208.411 84.7942L217.396 93.7789L251.01 60.1456L242.025 51.1608L208.411 84.7942Z" fill="#534741"/>
<path d="M207.712 84.7955L212.758 89.8416L247.082 55.5174L242.036 50.4714L207.712 84.7955Z" fill="#534741"/>
<path d="M235.952 51.7925L250.387 66.2278L250.893 65.7218L236.458 51.2865L235.952 51.7925Z" fill="#534741"/>
<path d="M232.886 54.8538L247.322 69.2891L247.828 68.7831L233.392 54.3478L232.886 54.8538Z" fill="#534741"/>
<path d="M229.821 57.9151L244.256 72.3503L244.762 71.8443L230.327 57.4091L229.821 57.9151Z" fill="#534741"/>
<path d="M226.756 60.9759L241.191 75.4111L241.697 74.9051L227.262 60.4699L226.756 60.9759Z" fill="#534741"/>
<path d="M223.69 64.0372L238.125 78.4724L238.631 77.9664L224.196 63.5311L223.69 64.0372Z" fill="#534741"/>
<path d="M220.633 67.1184L235.068 81.5537L235.574 81.0477L221.139 66.6124L220.633 67.1184Z" fill="#534741"/>
<path d="M217.568 70.1795L232.003 84.6147L232.509 84.1087L218.074 69.6735L217.568 70.1795Z" fill="#534741"/>
<path d="M214.502 73.2408L228.938 87.676L229.444 87.17L215.008 72.7348L214.502 73.2408Z" fill="#534741"/>
<path d="M211.437 76.302L225.872 90.7373L226.378 90.2313L211.943 75.796L211.437 76.302Z" fill="#534741"/>
<path d="M208.372 79.3628L222.807 93.7981L223.313 93.2921L208.878 78.8568L208.372 79.3628Z" fill="#534741"/>
<path d="M253.912 48.2587L255.323 46.8474L298.677 90.2209L298.14 90.7576L253.912 48.2587Z" fill="#534741"/>
<path d="M291.739 95.1704L256.695 60.1456L267.091 49.7495L302.115 84.7743L291.719 95.1704H291.739ZM258.106 60.1456L291.739 93.7789L300.724 84.7942L267.091 51.1608L258.106 60.1456Z" fill="#534741"/>
<path d="M291.722 94.4784L296.768 89.4324L262.444 55.1082L257.398 60.1542L291.722 94.4784Z" fill="#534741"/>
<path d="M258.724 66.2319L273.159 51.7966L272.653 51.2906L258.218 65.7259L258.724 66.2319Z" fill="#534741"/>
<path d="M261.79 69.2932L276.225 54.8579L275.719 54.3519L261.284 68.7872L261.79 69.2932Z" fill="#534741"/>
<path d="M264.855 72.3542L279.29 57.9189L278.784 57.4129L264.349 71.8482L264.855 72.3542Z" fill="#534741"/>
<path d="M267.94 75.4155L282.375 60.9802L281.869 60.4742L267.434 74.9095L267.94 75.4155Z" fill="#534741"/>
<path d="M271.006 78.4968L285.441 64.0615L284.935 63.5555L270.5 77.9908L271.006 78.4968Z" fill="#534741"/>
<path d="M274.057 81.5439L288.492 67.1086L287.986 66.6026L273.551 81.0379L274.057 81.5439Z" fill="#534741"/>
<path d="M277.108 84.6189L291.544 70.1836L291.038 69.6776L276.602 84.1128L277.108 84.6189Z" fill="#534741"/>
<path d="M280.174 87.6801L294.609 73.2449L294.103 72.7389L279.668 87.1741L280.174 87.6801Z" fill="#534741"/>
<path d="M283.239 90.7414L297.674 76.3062L297.168 75.8001L282.733 90.2354L283.239 90.7414Z" fill="#534741"/>
<path d="M286.304 93.8027L300.74 79.3674L300.234 78.8614L285.798 93.2967L286.304 93.8027Z" fill="#534741"/>
<path d="M255.224 46.9865L253.812 48.3779L210.439 5.00448L210.976 4.46777L255.224 46.9865Z" fill="#534741"/>
<path d="M242.025 45.4758L207 10.451L217.396 0.0549316L252.421 35.0797L242.025 45.4758ZM208.411 10.451L242.025 44.0645L251.01 35.0797L217.396 1.46626L208.411 10.451Z" fill="#534741"/>
<path d="M217.409 0.762088L212.363 5.80811L246.687 40.1323L251.733 35.0863L217.409 0.762088Z" fill="#534741"/>
<path d="M250.385 28.9932L235.949 43.4285L236.455 43.9345L250.891 29.4992L250.385 28.9932Z" fill="#534741"/>
<path d="M247.328 25.9324L232.892 40.3677L233.398 40.8737L247.834 26.4384L247.328 25.9324Z" fill="#534741"/>
<path d="M244.271 22.8711L229.835 37.3064L230.341 37.8124L244.777 23.3771L244.271 22.8711Z" fill="#534741"/>
<path d="M241.214 19.8099L226.778 34.2451L227.284 34.7511L241.72 20.3159L241.214 19.8099Z" fill="#534741"/>
<path d="M238.137 16.7486L223.702 31.1838L224.208 31.6898L238.643 17.2546L238.137 16.7486Z" fill="#534741"/>
<path d="M235.066 13.7015L220.631 28.1367L221.137 28.6427L235.572 14.2075L235.066 13.7015Z" fill="#534741"/>
<path d="M231.995 10.6263L217.56 25.0615L218.066 25.5675L232.501 11.1323L231.995 10.6263Z" fill="#534741"/>
<path d="M228.938 7.54545L214.502 21.9807L215.008 22.4867L229.444 8.05146L228.938 7.54545Z" fill="#534741"/>
<path d="M225.881 4.48417L211.445 18.9194L211.951 19.4254L226.387 4.99018L225.881 4.48417Z" fill="#534741"/>
<path d="M222.824 1.42289L208.388 15.8582L208.894 16.3642L223.33 1.9289L222.824 1.42289Z" fill="#534741"/>
<path d="M306.827 76.7041L306.846 140.81H323.643V110.258L306.827 76.7041Z" fill="#F3E8F3"/>
<defs>
<linearGradient id="paint0_linear_144_4" x1="52.45" y1="141.08" x2="52.45" y2="99.0201" gradientUnits="userSpaceOnUse">
<stop stop-color="#9ECC7C"/>
<stop offset="1" stop-color="#7EA97C"/>
</linearGradient>
</defs>
</svg>
