<svg width="375" height="295" viewBox="0 0 375 295" fill="none" xmlns="http://www.w3.org/2000/svg">
<g clip-path="url(#clip0_144_8)">
<path d="M358.403 57.3928H352.636V119H358.403V57.3928Z" fill="#2F4233"/>
<path d="M355.082 100.9C341.465 100.9 330.384 89.773 330.384 76.0993C330.384 62.4257 341.465 51.2988 355.082 51.2988V54.0275C342.975 54.0275 333.101 63.9416 333.101 76.0993C333.101 88.257 342.975 98.1712 355.082 98.1712V100.9Z" fill="#2F4233"/>
<path d="M332.316 92.2591C344.089 92.2591 353.633 82.6759 353.633 70.8543C353.633 59.0327 344.089 49.4495 332.316 49.4495C320.544 49.4495 311 59.0327 311 70.8543C311 82.6759 320.544 92.2591 332.316 92.2591Z" fill="#6BA06B"/>
<path d="M354.237 78.8583L353.935 76.16C365.046 74.8866 373.409 65.4879 373.409 54.2397H376.127C376.127 66.8825 366.707 77.4637 354.237 78.8887V78.8583Z" fill="#2F4233"/>
<path d="M353.391 65.4879C371.401 65.4879 386 50.8279 386 32.7439C386 14.66 371.401 0 353.391 0C335.382 0 320.783 14.66 320.783 32.7439C320.783 50.8279 335.382 65.4879 353.391 65.4879Z" fill="#79B77B"/>
</g>
<rect y="119" width="375" height="176" fill="#79B77B"/>
<defs>
<clipPath id="clip0_144_8">
<rect width="75" height="119" fill="white" transform="translate(311)"/>
</clipPath>
</defs>
</svg>
