<svg width="375" height="299" viewBox="0 0 375 299" fill="none" xmlns="http://www.w3.org/2000/svg">
<g clip-path="url(#clip0_144_2)">
<path d="M358.403 61.3928H352.636V123H358.403V61.3928Z" fill="#2F4233"/>
<path d="M355.082 104.9C341.465 104.9 330.384 93.773 330.384 80.0993C330.384 66.4257 341.465 55.2988 355.082 55.2988V58.0275C342.975 58.0275 333.101 67.9416 333.101 80.0993C333.101 92.257 342.975 102.171 355.082 102.171V104.9Z" fill="#2F4233"/>
<path d="M332.316 96.2591C344.089 96.2591 353.633 86.6759 353.633 74.8543C353.633 63.0327 344.089 53.4495 332.316 53.4495C320.544 53.4495 311 63.0327 311 74.8543C311 86.6759 320.544 96.2591 332.316 96.2591Z" fill="#6BA06B"/>
<path d="M354.237 82.8583L353.935 80.16C365.046 78.8866 373.409 69.4879 373.409 58.2397H376.127C376.127 70.8825 366.707 81.4637 354.237 82.8887V82.8583Z" fill="#2F4233"/>
<path d="M353.391 69.4879C371.401 69.4879 386 54.8279 386 36.7439C386 18.66 371.401 4 353.391 4C335.382 4 320.783 18.66 320.783 36.7439C320.783 54.8279 335.382 69.4879 353.391 69.4879Z" fill="#79B77B"/>
</g>
<g clip-path="url(#clip1_144_2)">
<path d="M219.027 75.3708H214.644V123H219.027V75.3708Z" fill="#2F4233"/>
<path d="M216.502 109.007C206.153 109.007 197.732 100.404 197.732 89.8332C197.732 79.262 206.153 70.6597 216.502 70.6597V72.7692C207.301 72.7692 199.797 80.4339 199.797 89.8332C199.797 99.2324 207.301 106.897 216.502 106.897V109.007Z" fill="#2F4233"/>
<path d="M199.2 102.326C208.148 102.326 215.401 94.9174 215.401 85.778C215.401 76.6387 208.148 69.2297 199.2 69.2297C190.253 69.2297 183 76.6387 183 85.778C183 94.9174 190.253 102.326 199.2 102.326Z" fill="#6BA06B"/>
<path d="M215.86 91.9662L215.63 89.8801C224.075 88.8956 230.431 81.6294 230.431 72.9333H232.496C232.496 82.7076 225.337 90.888 215.86 91.9897V91.9662Z" fill="#2F4233"/>
<path d="M215.217 81.6293C228.904 81.6293 240 70.2955 240 56.3146C240 42.3338 228.904 31 215.217 31C201.53 31 190.435 42.3338 190.435 56.3146C190.435 70.2955 201.53 81.6293 215.217 81.6293Z" fill="#79B77B"/>
</g>
<path d="M382.263 85.9512H268.387V123.646H382.263V85.9512Z" fill="#BAB4C6"/>
<path d="M383.229 85.9511H268.387L251.066 52H365.908L383.229 85.9511Z" fill="#F3E8F3"/>
<path d="M250.301 52L233 85.9511H268.387L365.143 52H250.301Z" fill="#D16162"/>
<path d="M383.229 85.9511H268.387L251.066 52H365.908L383.229 85.9511Z" fill="#D16162"/>
<path d="M250.804 53.8516L234.188 85.9512V123.646H268.387V85.9512L250.804 53.8516Z" fill="#F3E8F3"/>
<path d="M248.911 97.9456H242.789V114.126H248.911V97.9456Z" fill="#ADAAAD"/>
<path d="M259.787 97.9456H253.664V114.126H259.787V97.9456Z" fill="#ADAAAD"/>
<path d="M371.95 97.9456H362.685V114.126H371.95V97.9456Z" fill="#786380"/>
<path d="M355.133 97.9456H345.868V114.126H355.133V97.9456Z" fill="#786380"/>
<path d="M338.335 97.9456H329.071V114.126H338.335V97.9456Z" fill="#786380"/>
<path d="M321.538 97.9456H312.274V114.126H321.538V97.9456Z" fill="#786380"/>
<path d="M304.741 97.9456H295.476V114.126H304.741V97.9456Z" fill="#786380"/>
<path d="M287.943 97.9456H278.679V114.126H287.943V97.9456Z" fill="#786380"/>
<path d="M48 45H44V127H48V45Z" fill="#ABAAAD"/>
<path d="M46.2183 41.6959L36.3868 38.9918C34.7968 38.5545 33.153 39.4879 32.7153 41.0767C32.2777 42.6655 33.2119 44.3081 34.8019 44.7454L44.6334 47.4495C46.2234 47.8868 47.8672 46.9534 48.3049 45.3646C48.7426 43.7758 47.8084 42.1333 46.2183 41.6959Z" fill="#ABAAAD"/>
<path d="M63.1003 59.6615L65.3048 62.1566C66.3913 63.3884 77.9177 78.0907 76.9414 78.9593C75.9651 79.8278 62.8326 66.531 61.7461 65.2992L59.5416 62.8041C58.4551 61.5723 46.0785 45.9067 47.0548 45.0381C48.0311 44.1695 62.0138 58.4297 63.0845 59.6615H63.1003Z" fill="#ABAAAD"/>
<path d="M29.1461 58.9486L26.354 60.7831C24.9817 61.6764 8.7341 71.0242 8.02425 69.9075C7.31441 68.7909 22.4104 57.6406 23.7828 56.7473L26.5749 54.9128C27.9473 54.0195 45.2675 43.9698 45.9773 45.0865C46.6872 46.2031 30.5185 58.0553 29.1461 58.9486Z" fill="#ABAAAD"/>
<path d="M49.9262 22.1154L49.724 25.493C49.6307 27.1657 47.4376 46.0802 46.1466 45.9997C44.8557 45.9193 44.949 26.8601 45.0578 25.1874L45.2601 21.8098C45.3534 20.1371 47.6242 -0.0801795 48.9152 0.000239265C50.2062 0.080658 50.0351 20.4427 49.9262 22.0993V22.1154Z" fill="#ABAAAD"/>
<rect y="123" width="375" height="176" fill="#79B77B"/>
<defs>
<clipPath id="clip0_144_2">
<rect width="75" height="119" fill="white" transform="translate(311 4)"/>
</clipPath>
<clipPath id="clip1_144_2">
<rect width="57" height="92" fill="white" transform="translate(183 31)"/>
</clipPath>
</defs>
</svg>
