<svg width="86" height="86" viewBox="0 0 86 86" fill="none" xmlns="http://www.w3.org/2000/svg">
<rect width="86" height="86" rx="25" fill="white"/>
<g clip-path="url(#clip0_353_761)">
<path d="M42.5 20.9824C49.8118 20.9824 50.7176 20.9824 53.6294 21.1118C56.2824 21.2412 57.7706 21.6941 58.7412 22.0824C60.0353 22.6 60.9412 23.1824 61.9118 24.1529C62.8824 25.1235 63.4647 26.0294 63.9824 27.3235C64.3706 28.2941 64.8235 29.7176 64.9529 32.4353C65.0824 35.3471 65.0824 36.1882 65.0824 43.5647C65.0824 50.9412 65.0824 51.7824 64.9529 54.6941C64.8235 57.3471 64.3706 58.8353 63.9824 59.8059C63.4647 61.1 62.8824 62.0059 61.9118 62.9765C60.9412 63.9471 60.0353 64.5294 58.7412 65.0471C57.7706 65.4353 56.3471 65.8882 53.6294 66.0177C50.7176 66.1471 49.8765 66.1471 42.5 66.1471C35.1882 66.1471 34.2824 66.1471 31.3706 66.0177C28.7176 65.8882 27.2294 65.4353 26.2588 65.0471C24.9647 64.5294 24.0588 63.9471 23.0882 62.9765C22.1176 62.0059 21.5353 61.1 21.0176 59.8059C20.6294 58.8353 20.1765 57.4118 20.0471 54.6941C19.9176 51.7824 19.9176 50.9412 19.9176 43.5647C19.9176 36.1882 19.9176 35.3471 20.0471 32.4353C20.1765 29.7824 20.6294 28.2941 21.0176 27.3235C21.5353 26.0294 22.1176 25.1235 23.0882 24.1529C24.0588 23.1824 24.9647 22.6 26.2588 22.0824C27.2294 21.6941 28.6529 21.2412 31.3706 21.1118C34.2824 20.9824 35.1882 20.9824 42.5 20.9824ZM42.5 16C35.0588 16 34.0882 16 31.1765 16.1941C28.2647 16.3235 26.2588 16.7765 24.5118 17.4882C22.7 18.2 21.1471 19.1059 19.6588 20.6588C18.1059 22.2118 17.2 23.7 16.4882 25.5118C15.7765 27.2588 15.3235 29.2647 15.1941 32.1765C15 35.0882 15 36.0588 15 43.5C15 50.9412 15 51.9118 15.1941 54.8235C15.3235 57.7353 15.7765 59.7412 16.4882 61.4882C17.2 63.3 18.1059 64.8529 19.6588 66.3412C21.2118 67.8941 22.7 68.8 24.5118 69.5118C26.2588 70.2235 28.2647 70.6765 31.1765 70.8059C34.0882 71 35.0588 71 42.5 71C49.9412 71 50.9118 71 53.8235 70.8059C56.7353 70.6765 58.7412 70.2235 60.4882 69.5118C62.3 68.8 63.8529 67.8941 65.3412 66.3412C66.8941 64.7882 67.8 63.3 68.5118 61.4882C69.2235 59.7412 69.6765 57.7353 69.8059 54.8235C70 51.9118 70 50.9412 70 43.5C70 36.0588 70 35.0882 69.8059 32.1765C69.6765 29.2647 69.2235 27.2588 68.5118 25.5118C67.8 23.7 66.8941 22.1471 65.3412 20.6588C63.7882 19.1059 62.3 18.2 60.4882 17.4882C58.7412 16.7765 56.7353 16.3235 53.8235 16.1941C50.9118 16 49.9412 16 42.5 16Z" fill="#5050FA"/>
<path d="M42.4999 29.394C34.6705 29.394 28.394 35.7352 28.394 43.4999C28.394 51.2646 34.7352 57.6058 42.4999 57.6058C50.3293 57.6058 56.6058 51.2646 56.6058 43.4999C56.6058 35.7352 50.3293 29.394 42.4999 29.394ZM42.4999 52.6882C37.4529 52.6882 33.3117 48.6117 33.3117 43.4999C33.3117 38.3882 37.3882 34.3117 42.4999 34.3117C47.6117 34.3117 51.6882 38.3882 51.6882 43.4999C51.6882 48.6117 47.547 52.6882 42.4999 52.6882Z" fill="#5050FA"/>
<path d="M57.1882 32.1117C59.0107 32.1117 60.4882 30.6343 60.4882 28.8117C60.4882 26.9892 59.0107 25.5117 57.1882 25.5117C55.3656 25.5117 53.8882 26.9892 53.8882 28.8117C53.8882 30.6343 55.3656 32.1117 57.1882 32.1117Z" fill="#5050FA"/>
</g>
<defs>
<clipPath id="clip0_353_761">
<rect width="55" height="55" fill="white" transform="translate(15 16)"/>
</clipPath>
</defs>
</svg>
