<svg width="86" height="86" viewBox="0 0 86 86" fill="none" xmlns="http://www.w3.org/2000/svg">
<rect width="86" height="86" rx="25" fill="white"/>
<g clip-path="url(#clip0_353_753)">
<path d="M46.52 39.2706C47.18 38.5488 47.72 37.7668 48.44 37.1052C50.54 35.1202 53 34.0976 55.94 34.1578C57.56 34.1578 59.12 34.2781 60.62 34.7593C64.16 35.7818 66.2 38.1879 67.16 41.6766C67.88 44.263 68 46.9097 68.06 49.5563C68.06 55.1503 68.06 60.7442 68.06 66.3984C68.06 66.9397 67.94 67.06 67.4 67.06C64.52 67.06 61.64 67.06 58.76 67.06C58.28 67.06 58.16 66.8796 58.16 66.3984C58.16 61.045 58.16 55.7518 58.16 50.3984C58.16 49.0751 58.1 47.7518 57.68 46.4285C57.02 44.0224 55.28 42.8194 52.76 42.9397C49.34 43.1202 47.54 44.8044 47.12 48.2931C47 49.1352 46.94 49.9773 46.94 50.8194C46.94 55.9924 46.94 61.2255 46.94 66.3984C46.94 66.9397 46.82 67.06 46.28 67.06C43.4 67.06 40.46 67.06 37.58 67.06C37.1 67.06 36.98 66.9397 36.98 66.4585C36.98 56.1728 36.98 45.8871 36.98 35.6014C36.98 35.1202 37.16 34.9999 37.64 34.9999C40.4 34.9999 43.16 34.9999 45.92 34.9999C46.4 34.9999 46.58 35.1803 46.52 35.6615C46.46 36.8044 46.52 38.0074 46.52 39.2706Z" fill="#5050FA"/>
<path d="M30.7398 51.0001C30.7398 56.1129 30.7398 61.1655 30.7398 66.2783C30.7398 66.8196 30.6198 67.0001 30.0198 67.0001C27.1398 66.9399 24.2598 67.0001 21.3798 67.0001C20.8998 67.0001 20.7798 66.8798 20.7798 66.3986C20.7798 56.1129 20.7798 45.8272 20.7798 35.5414C20.7798 35.1204 20.8998 34.9399 21.3198 34.9399C24.2598 34.9399 27.1398 34.9399 30.0798 34.9399C30.6198 34.9399 30.7398 35.1805 30.7398 35.6617C30.6798 40.7745 30.7398 45.8873 30.7398 51.0001Z" fill="#5050FA"/>
<path d="M31.52 24.7143C31.52 27.9023 28.94 30.4887 25.76 30.4887C22.64 30.5489 20 27.9023 20 24.7744C20 21.5865 22.58 19 25.76 19C28.94 19 31.52 21.5865 31.52 24.7143Z" fill="#5050FA"/>
</g>
<defs>
<clipPath id="clip0_353_753">
<rect width="48" height="48" fill="white" transform="translate(20 19)"/>
</clipPath>
</defs>
</svg>
