<svg width="86" height="86" viewBox="0 0 86 86" fill="none" xmlns="http://www.w3.org/2000/svg">
<rect width="86" height="86" rx="25" fill="white"/>
<path d="M67.7886 23.7241H18.2214C17.7185 23.7241 17.2357 23.9236 16.8736 24.2826C16.5115 24.6317 16.3103 25.1105 16.3103 25.6191V59.6494C16.3103 60.1481 16.5115 60.6269 16.8736 60.9859C17.2357 61.345 17.7185 61.5444 18.2214 61.5444H67.7886C68.2915 61.5444 68.7743 61.345 69.1364 60.9859C69.4985 60.6269 69.6997 60.1481 69.6997 59.6494V25.6191C69.6997 25.1204 69.4985 24.6417 69.1364 24.2826C68.7743 23.9236 68.2915 23.7241 67.7886 23.7241ZM64.6605 27.5042L43.005 44.0206L21.3495 27.5042H64.6605ZM20.1224 57.7544V31.344L41.8382 47.9104C42.1701 48.1597 42.5825 48.2993 42.9949 48.2993C43.4073 48.2993 43.8197 48.1597 44.1516 47.9104L65.8775 31.344V57.7544H20.1224Z" fill="#5050FA"/>
</svg>
