<svg width="86" height="86" viewBox="0 0 86 86" fill="none" xmlns="http://www.w3.org/2000/svg">
<rect width="86" height="86" rx="25" fill="white"/>
<path d="M15.0005 55.8996C15.2475 54.9891 15.4364 54.0642 15.7561 53.1971C16.2065 51.9687 16.9766 50.9426 17.9065 50.0177C22.2801 45.6677 26.6537 41.3322 31.0128 36.9822C31.3906 36.6065 31.812 36.3463 32.3641 36.3752C32.9744 36.4186 33.4393 36.7221 33.7009 37.2712C33.9479 37.8204 33.9043 38.3696 33.5265 38.8609C33.3812 39.0488 33.2069 39.2078 33.047 39.3812C28.7751 43.63 24.5033 47.8644 20.2459 52.1132C17.9501 54.4111 17.3834 57.6483 19.1271 60.1918C20.5074 62.2006 22.1348 64.1227 24.5614 64.9753C26.9153 65.7991 29.1093 65.3366 30.9837 63.7036C32.0444 62.7642 33.018 61.7237 34.0206 60.7265C37.5078 57.2725 40.9805 53.8041 44.4533 50.3357C46.9379 47.8499 47.214 44.2804 45.1217 41.6068C44.9473 41.3756 44.7293 41.1732 44.555 40.942C44.0028 40.2628 44.0464 39.3523 44.6567 38.7887C45.296 38.2106 46.2259 38.2395 46.8653 38.8754C50.3816 42.3294 50.585 48.2546 47.2576 51.9109C46.3277 52.937 45.3251 53.8908 44.3515 54.8591C40.7771 58.4142 37.2172 61.9693 33.6428 65.51C30.5333 68.5883 26.2905 69.3253 22.3818 67.461C21.8442 67.2009 21.3066 66.9118 20.8562 66.5217C18.9382 64.8019 16.8894 63.1833 15.8578 60.7554C15.4655 59.8305 15.2766 58.8333 15.0005 57.865C15.0005 57.2002 15.0005 56.5499 15.0005 55.8996Z" fill="#5050FA"/>
<path d="M36.3892 39.4821C36.4182 36.7507 37.3917 34.4529 39.2952 32.5597C43.6688 28.1953 48.0424 23.8308 52.4451 19.4808C56.3101 15.6656 62.0931 15.5789 66.0599 19.2785C67.3821 20.5214 68.748 21.7209 69.6924 23.3106C71.7848 26.8224 71.3344 31.4469 68.5736 34.4962C68.3847 34.6986 68.2104 34.9009 68.0069 35.0888C63.6769 39.3954 59.3469 43.702 55.0169 48.0087C54.5665 48.4567 54.087 48.7457 53.4186 48.6156C52.2998 48.3844 51.8057 47.0982 52.4741 46.1877C52.6194 45.9999 52.7938 45.8409 52.9536 45.6675C57.2255 41.4042 61.5119 37.1554 65.7838 32.8921C68.0796 30.6087 68.6317 27.3426 66.8881 24.7991C65.5223 22.8048 63.8949 20.9116 61.4974 20.0445C59.0999 19.1918 56.8768 19.6543 54.9879 21.3596C53.4767 22.7759 52.0673 24.2644 50.5997 25.7096C47.6065 28.6866 44.6133 31.6492 41.6346 34.6263C38.8884 37.3577 38.7866 41.0285 41.344 43.9333C42.0414 44.7137 42.0414 45.6241 41.3585 46.2455C40.6756 46.8525 39.7456 46.7658 39.0337 46.0143C37.29 44.1789 36.4182 41.9678 36.3892 39.4821Z" fill="#5050FA"/>
</svg>
