<svg width="100" height="112" viewBox="0 0 100 112" fill="none" xmlns="http://www.w3.org/2000/svg">
<path d="M18.5392 79.9017V68.9926H19.8602V78.7299H24.9313V79.9017H18.5392ZM30.1301 80.0722C29.3915 80.0722 28.7434 79.8964 28.1859 79.5448C27.6319 79.1933 27.1987 78.7014 26.8862 78.0693C26.5772 77.4372 26.4227 76.6986 26.4227 75.8534C26.4227 75.0012 26.5772 74.2572 26.8862 73.6215C27.1987 72.9859 27.6319 72.4923 28.1859 72.1407C28.7434 71.7892 29.3915 71.6134 30.1301 71.6134C30.8688 71.6134 31.5151 71.7892 32.0691 72.1407C32.6266 72.4923 33.0598 72.9859 33.3688 73.6215C33.6813 74.2572 33.8375 75.0012 33.8375 75.8534C33.8375 76.6986 33.6813 77.4372 33.3688 78.0693C33.0598 78.7014 32.6266 79.1933 32.0691 79.5448C31.5151 79.8964 30.8688 80.0722 30.1301 80.0722ZM30.1301 78.9429C30.6912 78.9429 31.1529 78.7991 31.5151 78.5115C31.8773 78.2238 32.1454 77.8456 32.3194 77.3769C32.4934 76.9081 32.5804 76.4003 32.5804 75.8534C32.5804 75.3066 32.4934 74.797 32.3194 74.3247C32.1454 73.8524 31.8773 73.4706 31.5151 73.1794C31.1529 72.8882 30.6912 72.7426 30.1301 72.7426C29.5691 72.7426 29.1074 72.8882 28.7452 73.1794C28.383 73.4706 28.1149 73.8524 27.9409 74.3247C27.7669 74.797 27.6798 75.3066 27.6798 75.8534C27.6798 76.4003 27.7669 76.9081 27.9409 77.3769C28.1149 77.8456 28.383 78.2238 28.7452 78.5115C29.1074 78.7991 29.5691 78.9429 30.1301 78.9429ZM39.0803 80.0722C38.3133 80.0722 37.6528 79.8911 37.0988 79.5289C36.5448 79.1666 36.1187 78.6677 35.8204 78.0321C35.5221 77.3964 35.3729 76.6702 35.3729 75.8534C35.3729 75.0225 35.5256 74.2892 35.831 73.6535C36.14 73.0143 36.5697 72.5154 37.1201 72.1567C37.6741 71.7945 38.3204 71.6134 39.059 71.6134C39.6343 71.6134 40.1528 71.7199 40.6144 71.933C41.0761 72.1461 41.4543 72.4443 41.749 72.8279C42.0438 73.2114 42.2266 73.6588 42.2977 74.1702H41.0406C40.9447 73.7973 40.7316 73.4671 40.4014 73.1794C40.0746 72.8882 39.6343 72.7426 39.0803 72.7426C38.5903 72.7426 38.1606 72.8705 37.7913 73.1262C37.4255 73.3783 37.1396 73.7352 36.9337 74.1968C36.7313 74.6549 36.63 75.1929 36.63 75.8108C36.63 76.4429 36.7295 76.9934 36.9283 77.4621C37.1308 77.9309 37.4148 78.2948 37.7806 78.5541C38.1499 78.8133 38.5832 78.9429 39.0803 78.9429C39.407 78.9429 39.7036 78.8861 39.9699 78.7725C40.2362 78.6588 40.4617 78.4955 40.6464 78.2824C40.831 78.0693 40.9624 77.8137 41.0406 77.5154H42.2977C42.2266 77.9983 42.0509 78.4333 41.7703 78.8204C41.4933 79.2039 41.1258 79.5093 40.6677 79.7366C40.2131 79.9603 39.684 80.0722 39.0803 80.0722ZM46.543 80.0935C46.0246 80.0935 45.554 79.9958 45.1315 79.8005C44.7089 79.6017 44.3733 79.3158 44.1247 78.9429C43.8761 78.5665 43.7518 78.112 43.7518 77.5793C43.7518 77.1105 43.8442 76.7306 44.0288 76.4394C44.2135 76.1446 44.4603 75.9138 44.7692 75.7469C45.0782 75.58 45.4191 75.4557 45.792 75.374C46.1684 75.2888 46.5466 75.2213 46.9266 75.1716C47.4237 75.1077 47.8268 75.0598 48.1357 75.0278C48.4482 74.9923 48.6755 74.9337 48.8175 74.852C48.9631 74.7703 49.0359 74.6283 49.0359 74.4259V74.3833C49.0359 73.8577 48.8921 73.4493 48.6045 73.1581C48.3204 72.8669 47.8889 72.7213 47.3101 72.7213C46.7099 72.7213 46.2394 72.8527 45.8985 73.1155C45.5576 73.3783 45.3179 73.6588 45.1794 73.9571L43.9862 73.531C44.1993 73.0338 44.4834 72.6468 44.8385 72.3698C45.1972 72.0892 45.5878 71.8939 46.0104 71.7838C46.4365 71.6702 46.8555 71.6134 47.2675 71.6134C47.5303 71.6134 47.8321 71.6453 48.173 71.7093C48.5175 71.7696 48.8495 71.8957 49.1691 72.0875C49.4923 72.2792 49.7604 72.5686 49.9734 72.9557C50.1865 73.3428 50.293 73.8613 50.293 74.5111V79.9017H49.0359V78.7938H48.972C48.8868 78.9713 48.7447 79.1613 48.5459 79.3637C48.347 79.5662 48.0825 79.7384 47.7522 79.8804C47.4219 80.0225 47.0189 80.0935 46.543 80.0935ZM46.7348 78.9642C47.232 78.9642 47.651 78.8666 47.9919 78.6713C48.3364 78.476 48.5956 78.2238 48.7696 77.9149C48.9472 77.6059 49.0359 77.281 49.0359 76.9401V75.7895C48.9827 75.8534 48.8655 75.912 48.6844 75.9653C48.5068 76.015 48.3009 76.0594 48.0665 76.0985C47.8357 76.134 47.6102 76.1659 47.39 76.1943C47.1734 76.2192 46.9976 76.2405 46.8626 76.2583C46.5359 76.3009 46.2305 76.3701 45.9465 76.466C45.6659 76.5583 45.4386 76.6986 45.2646 76.8868C45.0942 77.0715 45.009 77.3236 45.009 77.6432C45.009 78.08 45.1705 78.4103 45.4937 78.634C45.8204 78.8541 46.2341 78.9642 46.7348 78.9642ZM56.1458 71.7199V72.7853H51.9057V71.7199H56.1458ZM53.1415 69.7597H54.3986V77.558C54.3986 77.9131 54.4501 78.1794 54.5531 78.357C54.6596 78.531 54.7946 78.6482 54.9579 78.7086C55.1248 78.7654 55.3006 78.7938 55.4852 78.7938C55.6237 78.7938 55.7374 78.7867 55.8262 78.7725C55.9149 78.7547 55.986 78.7405 56.0392 78.7299L56.2949 79.8591C56.2097 79.8911 56.0907 79.923 55.938 79.955C55.7853 79.9905 55.5918 80.0083 55.3574 80.0083C55.0023 80.0083 54.6543 79.9319 54.3134 79.7792C53.976 79.6265 53.6955 79.3939 53.4718 79.0814C53.2516 78.7689 53.1415 78.3747 53.1415 77.8989V69.7597ZM60.4444 80.0935C59.9259 80.0935 59.4554 79.9958 59.0328 79.8005C58.6102 79.6017 58.2747 79.3158 58.0261 78.9429C57.7775 78.5665 57.6532 78.112 57.6532 77.5793C57.6532 77.1105 57.7455 76.7306 57.9302 76.4394C58.1149 76.1446 58.3617 75.9138 58.6706 75.7469C58.9796 75.58 59.3205 75.4557 59.6933 75.374C60.0698 75.2888 60.448 75.2213 60.8279 75.1716C61.3251 75.1077 61.7281 75.0598 62.0371 75.0278C62.3496 74.9923 62.5769 74.9337 62.7189 74.852C62.8645 74.7703 62.9373 74.6283 62.9373 74.4259V74.3833C62.9373 73.8577 62.7935 73.4493 62.5058 73.1581C62.2218 72.8669 61.7903 72.7213 61.2115 72.7213C60.6113 72.7213 60.1408 72.8527 59.7999 73.1155C59.459 73.3783 59.2193 73.6588 59.0808 73.9571L57.8876 73.531C58.1007 73.0338 58.3847 72.6468 58.7399 72.3698C59.0985 72.0892 59.4892 71.8939 59.9117 71.7838C60.3379 71.6702 60.7569 71.6134 61.1688 71.6134C61.4316 71.6134 61.7335 71.6453 62.0744 71.7093C62.4188 71.7696 62.7509 71.8957 63.0705 72.0875C63.3936 72.2792 63.6617 72.5686 63.8748 72.9557C64.0879 73.3428 64.1944 73.8613 64.1944 74.5111V79.9017H62.9373V78.7938H62.8734C62.7882 78.9713 62.6461 79.1613 62.4472 79.3637C62.2484 79.5662 61.9838 79.7384 61.6536 79.8804C61.3233 80.0225 60.9203 80.0935 60.4444 80.0935ZM60.6362 78.9642C61.1333 78.9642 61.5524 78.8666 61.8933 78.6713C62.2377 78.476 62.497 78.2238 62.671 77.9149C62.8485 77.6059 62.9373 77.281 62.9373 76.9401V75.7895C62.884 75.8534 62.7669 75.912 62.5857 75.9653C62.4082 76.015 62.2022 76.0594 61.9678 76.0985C61.737 76.134 61.5115 76.1659 61.2914 76.1943C61.0747 76.2192 60.899 76.2405 60.764 76.2583C60.4373 76.3009 60.1319 76.3701 59.8478 76.466C59.5673 76.5583 59.34 76.6986 59.166 76.8868C58.9955 77.0715 58.9103 77.3236 58.9103 77.6432C58.9103 78.08 59.0719 78.4103 59.395 78.634C59.7218 78.8541 60.1355 78.9642 60.6362 78.9642ZM66.4889 79.9017V71.7199H67.746V79.9017H66.4889ZM67.1281 70.3563C66.8831 70.3563 66.6718 70.2728 66.4942 70.1059C66.3202 69.939 66.2332 69.7384 66.2332 69.504C66.2332 69.2696 66.3202 69.069 66.4942 68.9021C66.6718 68.7352 66.8831 68.6517 67.1281 68.6517C67.3731 68.6517 67.5826 68.7352 67.7566 68.9021C67.9342 69.069 68.023 69.2696 68.023 69.504C68.023 69.7384 67.9342 69.939 67.7566 70.1059C67.5826 70.2728 67.3731 70.3563 67.1281 70.3563ZM70.0485 79.9017V71.7199H71.2629V72.9557H71.3482C71.4973 72.5509 71.7672 72.2224 72.1578 71.9703C72.5485 71.7181 72.9888 71.5921 73.4789 71.5921C73.5712 71.5921 73.6866 71.5938 73.8251 71.5974C73.9636 71.601 74.0683 71.6063 74.1394 71.6134V72.8918C74.0968 72.8811 73.9991 72.8652 73.8464 72.8438C73.6972 72.819 73.5392 72.8066 73.3723 72.8066C72.9746 72.8066 72.6195 72.89 72.307 73.0569C71.998 73.2203 71.753 73.4475 71.5719 73.7387C71.3943 74.0264 71.3056 74.3549 71.3056 74.7242V79.9017H70.0485ZM78.8109 80.0722C78.0225 80.0722 77.3425 79.8982 76.7708 79.5502C76.2026 79.1986 75.764 78.7086 75.4551 78.08C75.1497 77.4479 74.997 76.7128 74.997 75.8747C74.997 75.0367 75.1497 74.298 75.4551 73.6588C75.764 73.0161 76.1937 72.5154 76.7441 72.1567C77.2981 71.7945 77.9444 71.6134 78.683 71.6134C79.1092 71.6134 79.53 71.6844 79.9455 71.8264C80.361 71.9685 80.7392 72.1993 81.0801 72.5189C81.421 72.835 81.6926 73.254 81.895 73.776C82.0975 74.298 82.1987 74.9408 82.1987 75.7043V76.237H75.8919V75.1503H80.9203C80.9203 74.6887 80.8279 74.2767 80.6433 73.9145C80.4622 73.5523 80.2029 73.2664 79.8656 73.0569C79.5318 72.8474 79.1376 72.7426 78.683 72.7426C78.1823 72.7426 77.7491 72.8669 77.3833 73.1155C77.0211 73.3605 76.7423 73.6801 76.547 74.0743C76.3517 74.4685 76.2541 74.8911 76.2541 75.3421V76.0665C76.2541 76.6844 76.3606 77.2082 76.5737 77.6379C76.7903 78.064 77.0904 78.3889 77.4739 78.6127C77.8574 78.8328 78.3031 78.9429 78.8109 78.9429C79.1411 78.9429 79.4394 78.8968 79.7058 78.8044C79.9757 78.7086 80.2083 78.5665 80.4036 78.3783C80.5989 78.1865 80.7498 77.9486 80.8563 77.6645L82.0708 78.0054C81.943 78.4174 81.7281 78.7796 81.4263 79.0921C81.1245 79.401 80.7516 79.6425 80.3077 79.8165C79.8638 79.987 79.3649 80.0722 78.8109 80.0722Z" fill="black"/>
<circle cx="50.2366" cy="107.495" r="3.78125" fill="#164194"/>
<rect x="0.5" y="0.5" width="98.3929" height="91.9107" rx="9.5" stroke="black"/>
<g clip-path="url(#clip0_402_1773)">
<path d="M60.7659 18.3665H42.4214C41.0693 18.3665 39.9732 19.4572 39.9732 20.8026V53.2046C39.9732 54.55 41.0693 55.6407 42.4214 55.6407H60.7659C62.118 55.6407 63.2141 54.55 63.2141 53.2046V20.8026C63.2141 19.4572 62.118 18.3665 60.7659 18.3665Z" fill="#EDEDED"/>
<path d="M43.2893 22.8369H47.2136" stroke="black" stroke-miterlimit="10" stroke-linecap="round"/>
<path d="M43.2893 24.2313H47.2136" stroke="black" stroke-miterlimit="10" stroke-linecap="round"/>
<path d="M43.2893 25.6259H48.9495" stroke="black" stroke-miterlimit="10" stroke-linecap="round"/>
<path d="M51.6976 51.4017H57.3577" stroke="black" stroke-miterlimit="10" stroke-linecap="round"/>
<path d="M43.2893 30.274H60.2469" stroke="black" stroke-miterlimit="10" stroke-linecap="round"/>
<path d="M43.2893 32.1334H60.2469" stroke="black" stroke-miterlimit="10" stroke-linecap="round"/>
<path d="M43.2893 33.9927H60.2469" stroke="black" stroke-miterlimit="10" stroke-linecap="round"/>
<path d="M43.2893 35.8521H60.2469" stroke="black" stroke-miterlimit="10" stroke-linecap="round"/>
<path d="M43.2893 37.7113H60.2469" stroke="black" stroke-miterlimit="10" stroke-linecap="round"/>
<path d="M43.2893 39.5706H60.2469" stroke="black" stroke-miterlimit="10" stroke-linecap="round"/>
<path d="M43.2893 41.4299H60.2469" stroke="black" stroke-miterlimit="10" stroke-linecap="round"/>
<path d="M43.2893 43.2892H60.2469" stroke="black" stroke-miterlimit="10" stroke-linecap="round"/>
<path d="M43.2893 45.1484H60.2469" stroke="black" stroke-miterlimit="10" stroke-linecap="round"/>
<path d="M58.4354 51.1698L57.8141 51.4487L58.0244 50.9885L58.4354 51.1698Z" fill="black"/>
<path d="M59.7807 50.5656L58.4354 51.1699L58.0244 50.9886L58.711 49.4733L58.9493 49.5988L59.0941 49.6824L59.1548 49.7475L59.5659 50.1937L59.5939 50.2402L59.7807 50.5656Z" fill="#F9C5AF"/>
<path d="M76.0311 32.8181L76.5164 33.354L76.5463 33.4033L76.6883 33.6497L76.7411 33.7417L59.8756 50.5242L59.7798 50.567L59.5916 50.2416L59.5654 50.1956L59.0964 49.6829L58.9474 49.6006L58.7129 49.4723L58.7461 49.4003L75.6312 32.5978L75.8723 32.7326L76.0311 32.8181Z" fill="#164194"/>
<path d="M58.5036 50.7074L59.1945 49.681L74.9338 34.1243" stroke="black" stroke-miterlimit="10" stroke-linecap="round"/>
<path d="M75.0184 33.0008L75.4182 33.2211L75.9036 33.7566L76.1283 34.1447L78.7479 31.0225L78.2817 30.5563L75.0184 33.0008Z" stroke="black" stroke-linecap="round" stroke-linejoin="round"/>
<path d="M75.0744 33.1119L73.4941 34.5049L74.953 33.0426L75.0744 33.1119Z" stroke="black" stroke-linecap="round" stroke-linejoin="round"/>
</g>
<defs>
<clipPath id="clip0_402_1773">
<rect width="39.0082" height="37.2745" fill="white" transform="translate(39.9732 18.3661)"/>
</clipPath>
</defs>
</svg>
