<svg width="100" height="112" viewBox="0 0 100 112" fill="none" xmlns="http://www.w3.org/2000/svg">
<g clip-path="url(#clip0_402_1720)">
<path d="M58.9352 29.2633H40.575C38.7506 29.2633 37.2715 30.7492 37.2715 32.5823V51.0283C37.2715 52.8613 38.7506 54.3472 40.575 54.3472H58.9352C60.7596 54.3472 62.2387 52.8613 62.2387 51.0283V32.5823C62.2387 30.7492 60.7596 29.2633 58.9352 29.2633Z" fill="#9185BE"/>
<path d="M49.7411 32.5938H35.9867C34.7231 32.5938 34.0963 31.0531 34.9986 30.1642L41.1369 24.1157L48.753 16.6107C49.3015 16.0702 50.1802 16.0702 50.7292 16.6107L58.3453 24.1152L64.4836 30.1637C65.3859 31.0526 64.7591 32.5933 63.4955 32.5933L49.7411 32.5938Z" fill="#BCE4FA"/>
<path d="M40.7597 53.115V42.7437C40.7597 42.0727 41.3012 41.5282 41.9696 41.5282H46.1096C46.7775 41.5282 47.3195 42.0722 47.3195 42.7437V53.115" stroke="black" stroke-miterlimit="10" stroke-linecap="round"/>
<path d="M57.8588 36.3055H53.3118C52.7561 36.3055 52.3056 36.7581 52.3056 37.3164V44.1539C52.3056 44.7122 52.7561 45.1648 53.3118 45.1648H57.8588C58.4144 45.1648 58.8649 44.7122 58.8649 44.1539V37.3164C58.8649 36.7581 58.4144 36.3055 57.8588 36.3055Z" fill="#F9DA1B"/>
<path d="M55.5855 35.819V45.6518" stroke="black" stroke-miterlimit="10" stroke-linecap="round"/>
<path d="M59.4937 40.7351H51.6768" stroke="black" stroke-miterlimit="10" stroke-linecap="round"/>
<path d="M59.2473 26.1829V19.0751C59.2473 18.8155 59.0295 18.6052 58.7605 18.6052H57.3358C57.0674 18.6052 56.8491 18.8155 56.8491 19.0751V24.023" stroke="black" stroke-miterlimit="10" stroke-linecap="round"/>
</g>
<path d="M26.4513 68.9926H28.028L31.7354 78.048H31.8633L35.5707 68.9926H37.1474V79.9017H35.9116V71.6134H35.805L32.3959 79.9017H31.2028L27.7937 71.6134H27.6871V79.9017H26.4513V68.9926ZM42.0333 80.0935C41.5148 80.0935 41.0443 79.9958 40.6217 79.8005C40.1991 79.6017 39.8635 79.3158 39.615 78.9429C39.3664 78.5665 39.2421 78.112 39.2421 77.5793C39.2421 77.1105 39.3344 76.7306 39.5191 76.4394C39.7037 76.1446 39.9505 75.9138 40.2595 75.7469C40.5684 75.58 40.9093 75.4557 41.2822 75.374C41.6586 75.2888 42.0368 75.2213 42.4168 75.1716C42.914 75.1077 43.317 75.0598 43.626 75.0278C43.9385 74.9923 44.1657 74.9337 44.3078 74.852C44.4534 74.7703 44.5262 74.6283 44.5262 74.4259V74.3833C44.5262 73.8577 44.3824 73.4493 44.0947 73.1581C43.8106 72.8669 43.3792 72.7213 42.8003 72.7213C42.2002 72.7213 41.7297 72.8527 41.3887 73.1155C41.0478 73.3783 40.8081 73.6588 40.6696 73.9571L39.4765 73.531C39.6895 73.0338 39.9736 72.6468 40.3287 72.3698C40.6874 72.0892 41.078 71.8939 41.5006 71.7838C41.9267 71.6702 42.3458 71.6134 42.7577 71.6134C43.0205 71.6134 43.3223 71.6453 43.6632 71.7093C44.0077 71.7696 44.3397 71.8957 44.6593 72.0875C44.9825 72.2792 45.2506 72.5686 45.4637 72.9557C45.6767 73.3428 45.7833 73.8613 45.7833 74.5111V79.9017H44.5262V78.7938H44.4623C44.377 78.9713 44.235 79.1613 44.0361 79.3637C43.8373 79.5662 43.5727 79.7384 43.2424 79.8804C42.9122 80.0225 42.5091 80.0935 42.0333 80.0935ZM42.225 78.9642C42.7222 78.9642 43.1412 78.8666 43.4821 78.6713C43.8266 78.476 44.0858 78.2238 44.2598 77.9149C44.4374 77.6059 44.5262 77.281 44.5262 76.9401V75.7895C44.4729 75.8534 44.3557 75.912 44.1746 75.9653C43.9971 76.015 43.7911 76.0594 43.5567 76.0985C43.3259 76.134 43.1004 76.1659 42.8802 76.1943C42.6636 76.2192 42.4878 76.2405 42.3529 76.2583C42.0262 76.3009 41.7208 76.3701 41.4367 76.466C41.1561 76.5583 40.9289 76.6986 40.7549 76.8868C40.5844 77.0715 40.4992 77.3236 40.4992 77.6432C40.4992 78.08 40.6608 78.4103 40.9839 78.634C41.3106 78.8541 41.7243 78.9642 42.225 78.9642ZM48.0778 79.9017V71.7199H49.3349V79.9017H48.0778ZM48.717 70.3563C48.4719 70.3563 48.2606 70.2728 48.0831 70.1059C47.9091 69.939 47.8221 69.7384 47.8221 69.504C47.8221 69.2696 47.9091 69.069 48.0831 68.9021C48.2606 68.7352 48.4719 68.6517 48.717 68.6517C48.962 68.6517 49.1715 68.7352 49.3455 68.9021C49.5231 69.069 49.6118 69.2696 49.6118 69.504C49.6118 69.7384 49.5231 69.939 49.3455 70.1059C49.1715 70.2728 48.962 70.3563 48.717 70.3563ZM57.4328 73.5523L56.3035 73.8719C56.2325 73.6837 56.1277 73.5008 55.9892 73.3233C55.8543 73.1421 55.6696 72.993 55.4353 72.8758C55.2009 72.7586 54.9008 72.7 54.5351 72.7C54.0343 72.7 53.6171 72.8154 53.2833 73.0463C52.953 73.2735 52.7879 73.563 52.7879 73.9145C52.7879 74.227 52.9015 74.4738 53.1288 74.6549C53.3561 74.836 53.7112 74.987 54.1941 75.1077L55.4086 75.406C56.1402 75.5836 56.6853 75.8552 57.0439 76.221C57.4026 76.5832 57.5819 77.0502 57.5819 77.6219C57.5819 78.0907 57.447 78.5097 57.1771 78.879C56.9108 79.2483 56.5379 79.5395 56.0585 79.7526C55.5791 79.9657 55.0216 80.0722 54.3859 80.0722C53.5514 80.0722 52.8607 79.8911 52.3138 79.5289C51.7669 79.1666 51.4207 78.6375 51.2751 77.9415L52.4683 77.6432C52.5819 78.0836 52.7968 78.4138 53.1128 78.634C53.4324 78.8541 53.8497 78.9642 54.3646 78.9642C54.9505 78.9642 55.4157 78.8399 55.7602 78.5914C56.1082 78.3392 56.2822 78.0374 56.2822 77.6858C56.2822 77.4017 56.1828 77.1638 55.9839 76.972C55.7851 76.7767 55.4797 76.6311 55.0677 76.5353L53.7041 76.2157C52.9548 76.0381 52.4044 75.7629 52.0528 75.39C51.7048 75.0136 51.5308 74.5431 51.5308 73.9784C51.5308 73.5168 51.6604 73.1084 51.9196 72.7533C52.1824 72.3982 52.5393 72.1194 52.9903 71.917C53.4449 71.7146 53.9598 71.6134 54.5351 71.6134C55.3447 71.6134 55.9804 71.7909 56.442 72.1461C56.9072 72.5012 57.2375 72.9699 57.4328 73.5523ZM62.7981 80.0722C62.0595 80.0722 61.4114 79.8964 60.8539 79.5448C60.2999 79.1933 59.8666 78.7014 59.5541 78.0693C59.2452 77.4372 59.0907 76.6986 59.0907 75.8534C59.0907 75.0012 59.2452 74.2572 59.5541 73.6215C59.8666 72.9859 60.2999 72.4923 60.8539 72.1407C61.4114 71.7892 62.0595 71.6134 62.7981 71.6134C63.5367 71.6134 64.183 71.7892 64.737 72.1407C65.2946 72.4923 65.7278 72.9859 66.0367 73.6215C66.3492 74.2572 66.5055 75.0012 66.5055 75.8534C66.5055 76.6986 66.3492 77.4372 66.0367 78.0693C65.7278 78.7014 65.2946 79.1933 64.737 79.5448C64.183 79.8964 63.5367 80.0722 62.7981 80.0722ZM62.7981 78.9429C63.3592 78.9429 63.8208 78.7991 64.183 78.5115C64.5453 78.2238 64.8134 77.8456 64.9874 77.3769C65.1614 76.9081 65.2484 76.4003 65.2484 75.8534C65.2484 75.3066 65.1614 74.797 64.9874 74.3247C64.8134 73.8524 64.5453 73.4706 64.183 73.1794C63.8208 72.8882 63.3592 72.7426 62.7981 72.7426C62.237 72.7426 61.7754 72.8882 61.4132 73.1794C61.0509 73.4706 60.7828 73.8524 60.6088 74.3247C60.4348 74.797 60.3478 75.3066 60.3478 75.8534C60.3478 76.4003 60.4348 76.9081 60.6088 77.3769C60.7828 77.8456 61.0509 78.2238 61.4132 78.5115C61.7754 78.7991 62.237 78.9429 62.7981 78.9429ZM69.6815 74.9799V79.9017H68.4244V71.7199H69.6389V72.9983H69.7455C69.9372 72.5828 70.2284 72.249 70.619 71.9969C71.0097 71.7412 71.5139 71.6134 72.1318 71.6134C72.6858 71.6134 73.1705 71.727 73.586 71.9543C74.0015 72.178 74.3246 72.5189 74.5555 72.977C74.7863 73.4316 74.9017 74.0068 74.9017 74.7029V79.9017H73.6446V74.7881C73.6446 74.1453 73.4777 73.6446 73.1439 73.286C72.8101 72.9238 72.352 72.7426 71.7696 72.7426C71.3683 72.7426 71.0097 72.8296 70.6936 73.0037C70.3811 73.1777 70.1343 73.4316 69.9532 73.7654C69.7721 74.0992 69.6815 74.504 69.6815 74.9799Z" fill="black"/>
<circle cx="50.2366" cy="107.495" r="3.78125" fill="#164194"/>
<rect x="0.5" y="0.5" width="98.3929" height="91.9107" rx="9.5" stroke="black"/>
<defs>
<clipPath id="clip0_402_1720">
<rect width="30.3397" height="38.1414" fill="white" transform="translate(34.5714 16.2053)"/>
</clipPath>
</defs>
</svg>
