<svg width="100" height="112" viewBox="0 0 100 112" fill="none" xmlns="http://www.w3.org/2000/svg">
<g clip-path="url(#clip0_216_2884)">
<path d="M58.9351 29.2633H40.575C38.7505 29.2633 37.2715 30.7492 37.2715 32.5823V51.0283C37.2715 52.8613 38.7505 54.3472 40.575 54.3472H58.9351C60.7596 54.3472 62.2386 52.8613 62.2386 51.0283V32.5823C62.2386 30.7492 60.7596 29.2633 58.9351 29.2633Z" fill="#9185BE"/>
<path d="M49.7411 32.5938H35.9867C34.7231 32.5938 34.0963 31.0531 34.9986 30.1642L41.1369 24.1157L48.753 16.6107C49.3015 16.0702 50.1802 16.0702 50.7292 16.6107L58.3453 24.1152L64.4836 30.1637C65.3859 31.0526 64.7591 32.5933 63.4955 32.5933L49.7411 32.5938Z" fill="#BCE4FA"/>
<path d="M40.7596 53.115V42.7437C40.7596 42.0727 41.3011 41.5282 41.9695 41.5282H46.1096C46.7775 41.5282 47.3195 42.0722 47.3195 42.7437V53.115" stroke="black" stroke-miterlimit="10" stroke-linecap="round"/>
<path d="M57.8587 36.3055H53.3117C52.756 36.3055 52.3055 36.7581 52.3055 37.3164V44.1539C52.3055 44.7122 52.756 45.1648 53.3117 45.1648H57.8587C58.4144 45.1648 58.8648 44.7122 58.8648 44.1539V37.3164C58.8648 36.7581 58.4144 36.3055 57.8587 36.3055Z" fill="#F9DA1B"/>
<path d="M55.5854 35.819V45.6518" stroke="black" stroke-miterlimit="10" stroke-linecap="round"/>
<path d="M59.4936 40.7351H51.6768" stroke="black" stroke-miterlimit="10" stroke-linecap="round"/>
<path d="M59.2473 26.1829V19.0751C59.2473 18.8155 59.0295 18.6052 58.7606 18.6052H57.3359C57.0674 18.6052 56.8491 18.8155 56.8491 19.0751V24.023" stroke="black" stroke-miterlimit="10" stroke-linecap="round"/>
</g>
<path d="M26.4513 68.9926H28.028L31.7354 78.048H31.8632L35.5706 68.9926H37.1473V79.9017H35.9115V71.6134H35.805L32.3959 79.9017H31.2027L27.7936 71.6134H27.6871V79.9017H26.4513V68.9926ZM42.0332 80.0935C41.5147 80.0935 41.0442 79.9958 40.6216 79.8005C40.1991 79.6017 39.8635 79.3158 39.6149 78.9429C39.3663 78.5665 39.242 78.112 39.242 77.5793C39.242 77.1105 39.3344 76.7306 39.519 76.4394C39.7037 76.1446 39.9505 75.9138 40.2594 75.7469C40.5684 75.58 40.9093 75.4557 41.2821 75.374C41.6586 75.2888 42.0368 75.2213 42.4167 75.1716C42.9139 75.1077 43.317 75.0598 43.6259 75.0278C43.9384 74.9923 44.1657 74.9337 44.3077 74.852C44.4533 74.7703 44.5261 74.6283 44.5261 74.4259V74.3833C44.5261 73.8577 44.3823 73.4493 44.0946 73.1581C43.8106 72.8669 43.3791 72.7213 42.8003 72.7213C42.2001 72.7213 41.7296 72.8527 41.3887 73.1155C41.0478 73.3783 40.8081 73.6588 40.6696 73.9571L39.4764 73.531C39.6895 73.0338 39.9736 72.6468 40.3287 72.3698C40.6873 72.0892 41.078 71.8939 41.5005 71.7838C41.9267 71.6702 42.3457 71.6134 42.7576 71.6134C43.0204 71.6134 43.3223 71.6453 43.6632 71.7093C44.0076 71.7696 44.3397 71.8957 44.6593 72.0875C44.9824 72.2792 45.2505 72.5686 45.4636 72.9557C45.6767 73.3428 45.7832 73.8613 45.7832 74.5111V79.9017H44.5261V78.7938H44.4622C44.377 78.9713 44.2349 79.1613 44.0361 79.3637C43.8372 79.5662 43.5726 79.7384 43.2424 79.8804C42.9121 80.0225 42.5091 80.0935 42.0332 80.0935ZM42.225 78.9642C42.7221 78.9642 43.1412 78.8666 43.4821 78.6713C43.8265 78.476 44.0858 78.2238 44.2598 77.9149C44.4373 77.6059 44.5261 77.281 44.5261 76.9401V75.7895C44.4728 75.8534 44.3557 75.912 44.1745 75.9653C43.997 76.015 43.791 76.0594 43.5567 76.0985C43.3258 76.134 43.1003 76.1659 42.8802 76.1943C42.6635 76.2192 42.4878 76.2405 42.3528 76.2583C42.0261 76.3009 41.7207 76.3701 41.4366 76.466C41.1561 76.5583 40.9288 76.6986 40.7548 76.8868C40.5844 77.0715 40.4991 77.3236 40.4991 77.6432C40.4991 78.08 40.6607 78.4103 40.9839 78.634C41.3106 78.8541 41.7243 78.9642 42.225 78.9642ZM48.0777 79.9017V71.7199H49.3348V79.9017H48.0777ZM48.7169 70.3563C48.4719 70.3563 48.2606 70.2728 48.083 70.1059C47.909 69.939 47.822 69.7384 47.822 69.504C47.822 69.2696 47.909 69.069 48.083 68.9021C48.2606 68.7352 48.4719 68.6517 48.7169 68.6517C48.9619 68.6517 49.1714 68.7352 49.3454 68.9021C49.523 69.069 49.6118 69.2696 49.6118 69.504C49.6118 69.7384 49.523 69.939 49.3454 70.1059C49.1714 70.2728 48.9619 70.3563 48.7169 70.3563ZM57.4327 73.5523L56.3035 73.8719C56.2324 73.6837 56.1277 73.5008 55.9892 73.3233C55.8542 73.1421 55.6696 72.993 55.4352 72.8758C55.2008 72.7586 54.9008 72.7 54.535 72.7C54.0343 72.7 53.617 72.8154 53.2832 73.0463C52.953 73.2735 52.7878 73.563 52.7878 73.9145C52.7878 74.227 52.9015 74.4738 53.1287 74.6549C53.356 74.836 53.7111 74.987 54.1941 75.1077L55.4086 75.406C56.1401 75.5836 56.6852 75.8552 57.0439 76.221C57.4025 76.5832 57.5819 77.0502 57.5819 77.6219C57.5819 78.0907 57.4469 78.5097 57.177 78.879C56.9107 79.2483 56.5378 79.5395 56.0584 79.7526C55.579 79.9657 55.0215 80.0722 54.3858 80.0722C53.5513 80.0722 52.8606 79.8911 52.3138 79.5289C51.7669 79.1666 51.4206 78.6375 51.275 77.9415L52.4682 77.6432C52.5819 78.0836 52.7967 78.4138 53.1128 78.634C53.4324 78.8541 53.8496 78.9642 54.3645 78.9642C54.9505 78.9642 55.4157 78.8399 55.7601 78.5914C56.1081 78.3392 56.2821 78.0374 56.2821 77.6858C56.2821 77.4017 56.1827 77.1638 55.9839 76.972C55.785 76.7767 55.4796 76.6311 55.0677 76.5353L53.704 76.2157C52.9547 76.0381 52.4043 75.7629 52.0527 75.39C51.7047 75.0136 51.5307 74.5431 51.5307 73.9784C51.5307 73.5168 51.6603 73.1084 51.9196 72.7533C52.1824 72.3982 52.5393 72.1194 52.9902 71.917C53.4448 71.7146 53.9597 71.6134 54.535 71.6134C55.3446 71.6134 55.9803 71.7909 56.442 72.1461C56.9071 72.5012 57.2374 72.9699 57.4327 73.5523ZM62.798 80.0722C62.0594 80.0722 61.4113 79.8964 60.8538 79.5448C60.2998 79.1933 59.8666 78.7014 59.5541 78.0693C59.2451 77.4372 59.0907 76.6986 59.0907 75.8534C59.0907 75.0012 59.2451 74.2572 59.5541 73.6215C59.8666 72.9859 60.2998 72.4923 60.8538 72.1407C61.4113 71.7892 62.0594 71.6134 62.798 71.6134C63.5367 71.6134 64.183 71.7892 64.737 72.1407C65.2945 72.4923 65.7277 72.9859 66.0367 73.6215C66.3492 74.2572 66.5054 75.0012 66.5054 75.8534C66.5054 76.6986 66.3492 77.4372 66.0367 78.0693C65.7277 78.7014 65.2945 79.1933 64.737 79.5448C64.183 79.8964 63.5367 80.0722 62.798 80.0722ZM62.798 78.9429C63.3591 78.9429 63.8208 78.7991 64.183 78.5115C64.5452 78.2238 64.8133 77.8456 64.9873 77.3769C65.1613 76.9081 65.2483 76.4003 65.2483 75.8534C65.2483 75.3066 65.1613 74.797 64.9873 74.3247C64.8133 73.8524 64.5452 73.4706 64.183 73.1794C63.8208 72.8882 63.3591 72.7426 62.798 72.7426C62.237 72.7426 61.7753 72.8882 61.4131 73.1794C61.0509 73.4706 60.7828 73.8524 60.6088 74.3247C60.4348 74.797 60.3478 75.3066 60.3478 75.8534C60.3478 76.4003 60.4348 76.9081 60.6088 77.3769C60.7828 77.8456 61.0509 78.2238 61.4131 78.5115C61.7753 78.7991 62.237 78.9429 62.798 78.9429ZM69.6815 74.9799V79.9017H68.4244V71.7199H69.6389V72.9983H69.7454C69.9372 72.5828 70.2283 72.249 70.619 71.9969C71.0096 71.7412 71.5139 71.6134 72.1318 71.6134C72.6857 71.6134 73.1705 71.727 73.5859 71.9543C74.0014 72.178 74.3246 72.5189 74.5554 72.977C74.7862 73.4316 74.9016 74.0068 74.9016 74.7029V79.9017H73.6445V74.7881C73.6445 74.1453 73.4776 73.6446 73.1438 73.286C72.81 72.9238 72.3519 72.7426 71.7695 72.7426C71.3683 72.7426 71.0096 72.8296 70.6935 73.0037C70.381 73.1777 70.1342 73.4316 69.9531 73.7654C69.772 74.0992 69.6815 74.504 69.6815 74.9799Z" fill="black"/>
<circle cx="50.2366" cy="107.495" r="3.78125" fill="#164194" fill-opacity="0.3"/>
<rect x="0.5" y="0.5" width="98.3929" height="91.9107" rx="9.5" stroke="#EDEDED"/>
<defs>
<clipPath id="clip0_216_2884">
<rect width="30.3397" height="38.1414" fill="white" transform="translate(34.5714 16.2053)"/>
</clipPath>
</defs>
</svg>
