<svg width="1080" height="251" viewBox="0 0 1080 251" fill="none" xmlns="http://www.w3.org/2000/svg">
<path d="M0 37.9882C42.5829 37.9882 41.0453 169.345 116.009 169.345C219.536 169.345 248.129 10 395.802 10C574.157 10 616.374 241 764.494 241C903.802 241 852.448 68.6269 1080 68.6269" stroke="#9BFF82" stroke-width="20"/>
<g filter="url(#filter0_d_301_239)">
<rect x="115" y="43" width="850" height="160" rx="80" fill="#5050FA"/>
<path d="M283.856 143.45C281.666 143.45 279.746 143.045 278.096 142.235C276.446 141.395 275.156 140.24 274.226 138.77C273.326 137.27 272.876 135.53 272.876 133.55V119.6C272.876 117.59 273.326 115.85 274.226 114.38C275.156 112.91 276.446 111.77 278.096 110.96C279.746 110.12 281.666 109.7 283.856 109.7C286.076 109.7 287.996 110.12 289.616 110.96C291.266 111.77 292.541 112.91 293.441 114.38C294.371 115.85 294.836 117.59 294.836 119.6H288.086C288.086 118.28 287.711 117.275 286.961 116.585C286.241 115.895 285.206 115.55 283.856 115.55C282.506 115.55 281.456 115.895 280.706 116.585C279.986 117.275 279.626 118.28 279.626 119.6V133.55C279.626 134.84 279.986 135.845 280.706 136.565C281.456 137.255 282.506 137.6 283.856 137.6C285.206 137.6 286.241 137.255 286.961 136.565C287.711 135.845 288.086 134.84 288.086 133.55H294.836C294.836 135.53 294.371 137.27 293.441 138.77C292.541 140.24 291.266 141.395 289.616 142.235C287.996 143.045 286.076 143.45 283.856 143.45ZM300.128 143V110.15H306.878V118.25L306.653 122.975H308.633L306.653 124.55C306.653 122.51 307.253 120.875 308.453 119.645C309.653 118.415 311.273 117.8 313.313 117.8C315.713 117.8 317.633 118.64 319.073 120.32C320.543 122 321.278 124.235 321.278 127.025V143H314.528V127.7C314.528 126.41 314.183 125.42 313.493 124.73C312.833 124.01 311.903 123.65 310.703 123.65C309.503 123.65 308.558 124.01 307.868 124.73C307.208 125.42 306.878 126.41 306.878 127.7V143H300.128ZM337.641 143.45C335.451 143.45 333.546 143.045 331.926 142.235C330.306 141.395 329.046 140.24 328.146 138.77C327.276 137.27 326.841 135.53 326.841 133.55V127.7C326.841 125.72 327.276 123.995 328.146 122.525C329.046 121.025 330.306 119.87 331.926 119.06C333.546 118.22 335.451 117.8 337.641 117.8C339.861 117.8 341.766 118.22 343.356 119.06C344.976 119.87 346.221 121.025 347.091 122.525C347.991 123.995 348.441 125.72 348.441 127.7V133.55C348.441 135.53 347.991 137.27 347.091 138.77C346.221 140.24 344.976 141.395 343.356 142.235C341.766 143.045 339.861 143.45 337.641 143.45ZM337.641 137.6C338.961 137.6 339.966 137.255 340.656 136.565C341.346 135.845 341.691 134.84 341.691 133.55V127.7C341.691 126.38 341.346 125.375 340.656 124.685C339.966 123.995 338.961 123.65 337.641 123.65C336.351 123.65 335.346 123.995 334.626 124.685C333.936 125.375 333.591 126.38 333.591 127.7V133.55C333.591 134.84 333.936 135.845 334.626 136.565C335.346 137.255 336.351 137.6 337.641 137.6ZM354.273 143V136.925H362.463V124.325H355.173V118.25H369.213V136.925H376.323V143H354.273ZM365.523 114.335C364.293 114.335 363.303 114.02 362.553 113.39C361.833 112.76 361.473 111.905 361.473 110.825C361.473 109.745 361.833 108.89 362.553 108.26C363.303 107.63 364.293 107.315 365.523 107.315C366.753 107.315 367.728 107.63 368.448 108.26C369.198 108.89 369.573 109.745 369.573 110.825C369.573 111.905 369.198 112.76 368.448 113.39C367.728 114.02 366.753 114.335 365.523 114.335ZM390.57 143.45C388.53 143.45 386.745 143.135 385.215 142.505C383.685 141.845 382.485 140.945 381.615 139.805C380.775 138.665 380.355 137.33 380.355 135.8H387.105C387.105 136.64 387.39 137.27 387.96 137.69C388.56 138.11 389.43 138.32 390.57 138.32H392.55C393.78 138.32 394.71 138.11 395.34 137.69C396 137.27 396.33 136.67 396.33 135.89C396.33 135.14 396.03 134.54 395.43 134.09C394.83 133.64 393.96 133.34 392.82 133.19L389.265 132.74C386.565 132.41 384.525 131.6 383.145 130.31C381.765 129.02 381.075 127.28 381.075 125.09C381.075 122.69 381.9 120.875 383.55 119.645C385.2 118.415 387.615 117.8 390.795 117.8H392.505C395.535 117.8 397.95 118.46 399.75 119.78C401.55 121.1 402.45 122.87 402.45 125.09H395.7C395.7 124.37 395.43 123.83 394.89 123.47C394.35 123.11 393.555 122.93 392.505 122.93H390.795C389.745 122.93 388.95 123.125 388.41 123.515C387.87 123.875 387.6 124.4 387.6 125.09C387.6 126.44 388.575 127.25 390.525 127.52L394.17 128.015C397.02 128.375 399.18 129.215 400.65 130.535C402.12 131.825 402.855 133.58 402.855 135.8C402.855 138.23 401.985 140.12 400.245 141.47C398.505 142.79 395.94 143.45 392.55 143.45H390.57ZM408.238 143V136.925H416.428V124.325H409.138V118.25H423.178V136.925H430.288V143H408.238ZM419.488 114.335C418.258 114.335 417.268 114.02 416.518 113.39C415.798 112.76 415.438 111.905 415.438 110.825C415.438 109.745 415.798 108.89 416.518 108.26C417.268 107.63 418.258 107.315 419.488 107.315C420.718 107.315 421.693 107.63 422.413 108.26C423.163 108.89 423.538 109.745 423.538 110.825C423.538 111.905 423.163 112.76 422.413 113.39C421.693 114.02 420.718 114.335 419.488 114.335ZM444.535 143.45C442.495 143.45 440.71 143.135 439.18 142.505C437.65 141.845 436.45 140.945 435.58 139.805C434.74 138.665 434.32 137.33 434.32 135.8H441.07C441.07 136.64 441.355 137.27 441.925 137.69C442.525 138.11 443.395 138.32 444.535 138.32H446.515C447.745 138.32 448.675 138.11 449.305 137.69C449.965 137.27 450.295 136.67 450.295 135.89C450.295 135.14 449.995 134.54 449.395 134.09C448.795 133.64 447.925 133.34 446.785 133.19L443.23 132.74C440.53 132.41 438.49 131.6 437.11 130.31C435.73 129.02 435.04 127.28 435.04 125.09C435.04 122.69 435.865 120.875 437.515 119.645C439.165 118.415 441.58 117.8 444.76 117.8H446.47C449.5 117.8 451.915 118.46 453.715 119.78C455.515 121.1 456.415 122.87 456.415 125.09H449.665C449.665 124.37 449.395 123.83 448.855 123.47C448.315 123.11 447.52 122.93 446.47 122.93H444.76C443.71 122.93 442.915 123.125 442.375 123.515C441.835 123.875 441.565 124.4 441.565 125.09C441.565 126.44 442.54 127.25 444.49 127.52L448.135 128.015C450.985 128.375 453.145 129.215 454.615 130.535C456.085 131.825 456.82 133.58 456.82 135.8C456.82 138.23 455.95 140.12 454.21 141.47C452.47 142.79 449.905 143.45 446.515 143.45H444.535ZM502.235 143C499.715 143 497.735 142.28 496.295 140.84C494.855 139.4 494.135 137.42 494.135 134.9V124.325H487.61V118.25H494.135V111.275H500.885V118.25H510.11V124.325H500.885V134.675C500.885 135.335 501.05 135.875 501.38 136.295C501.74 136.715 502.25 136.925 502.91 136.925H509.66V143H502.235ZM526.518 143.45C524.328 143.45 522.423 143.045 520.803 142.235C519.183 141.395 517.923 140.24 517.023 138.77C516.153 137.27 515.718 135.53 515.718 133.55V127.7C515.718 125.72 516.153 123.995 517.023 122.525C517.923 121.025 519.183 119.87 520.803 119.06C522.423 118.22 524.328 117.8 526.518 117.8C528.738 117.8 530.643 118.22 532.233 119.06C533.853 119.87 535.098 121.025 535.968 122.525C536.868 123.995 537.318 125.72 537.318 127.7V133.55C537.318 135.53 536.868 137.27 535.968 138.77C535.098 140.24 533.853 141.395 532.233 142.235C530.643 143.045 528.738 143.45 526.518 143.45ZM526.518 137.6C527.838 137.6 528.843 137.255 529.533 136.565C530.223 135.845 530.568 134.84 530.568 133.55V127.7C530.568 126.38 530.223 125.375 529.533 124.685C528.843 123.995 527.838 123.65 526.518 123.65C525.228 123.65 524.223 123.995 523.503 124.685C522.813 125.375 522.468 126.38 522.468 127.7V133.55C522.468 134.84 522.813 135.845 523.503 136.565C524.223 137.255 525.228 137.6 526.518 137.6ZM542.97 143V118.25H549.495V122.975H551.475L549.495 124.55C549.495 122.51 550.095 120.875 551.295 119.645C552.495 118.415 554.115 117.8 556.155 117.8C558.555 117.8 560.475 118.64 561.915 120.32C563.385 122 564.12 124.235 564.12 127.025V143H557.37V127.7C557.37 126.41 557.025 125.42 556.335 124.73C555.675 124.01 554.745 123.65 553.545 123.65C552.345 123.65 551.4 124.01 550.71 124.73C550.05 125.42 549.72 126.41 549.72 127.7V143H542.97ZM602.74 143V127.25H596.17V121.175H602.74V117.8C602.74 115.49 603.52 113.645 605.08 112.265C606.67 110.855 608.74 110.15 611.29 110.15H618.535V116H611.515C610.915 116 610.42 116.195 610.03 116.585C609.67 116.945 609.49 117.425 609.49 118.025V121.175H618.535V127.25H609.49V143H602.74ZM634.492 143.45C632.302 143.45 630.382 143.045 628.732 142.235C627.112 141.395 625.852 140.24 624.952 138.77C624.082 137.27 623.647 135.53 623.647 133.55V127.7C623.647 125.72 624.082 123.995 624.952 122.525C625.852 121.025 627.112 119.87 628.732 119.06C630.382 118.22 632.302 117.8 634.492 117.8C636.682 117.8 638.572 118.22 640.162 119.06C641.782 119.87 643.027 121.025 643.897 122.525C644.797 123.995 645.247 125.72 645.247 127.7V132.2H630.082V133.55C630.082 135.11 630.457 136.295 631.207 137.105C631.957 137.885 633.082 138.275 634.582 138.275C635.632 138.275 636.472 138.095 637.102 137.735C637.762 137.375 638.197 136.88 638.407 136.25H645.022C644.482 138.41 643.252 140.15 641.332 141.47C639.442 142.79 637.162 143.45 634.492 143.45ZM638.812 128.735V127.61C638.812 126.08 638.452 124.91 637.732 124.1C637.042 123.29 635.962 122.885 634.492 122.885C633.022 122.885 631.912 123.305 631.162 124.145C630.442 124.985 630.082 126.17 630.082 127.7V128.375L639.262 128.285L638.812 128.735ZM660.395 143.45C658.355 143.45 656.57 143.135 655.04 142.505C653.51 141.845 652.31 140.945 651.44 139.805C650.6 138.665 650.18 137.33 650.18 135.8H656.93C656.93 136.64 657.215 137.27 657.785 137.69C658.385 138.11 659.255 138.32 660.395 138.32H662.375C663.605 138.32 664.535 138.11 665.165 137.69C665.825 137.27 666.155 136.67 666.155 135.89C666.155 135.14 665.855 134.54 665.255 134.09C664.655 133.64 663.785 133.34 662.645 133.19L659.09 132.74C656.39 132.41 654.35 131.6 652.97 130.31C651.59 129.02 650.9 127.28 650.9 125.09C650.9 122.69 651.725 120.875 653.375 119.645C655.025 118.415 657.44 117.8 660.62 117.8H662.33C665.36 117.8 667.775 118.46 669.575 119.78C671.375 121.1 672.275 122.87 672.275 125.09H665.525C665.525 124.37 665.255 123.83 664.715 123.47C664.175 123.11 663.38 122.93 662.33 122.93H660.62C659.57 122.93 658.775 123.125 658.235 123.515C657.695 123.875 657.425 124.4 657.425 125.09C657.425 126.44 658.4 127.25 660.35 127.52L663.995 128.015C666.845 128.375 669.005 129.215 670.475 130.535C671.945 131.825 672.68 133.58 672.68 135.8C672.68 138.23 671.81 140.12 670.07 141.47C668.33 142.79 665.765 143.45 662.375 143.45H660.395ZM691.112 143C688.592 143 686.612 142.28 685.172 140.84C683.732 139.4 683.012 137.42 683.012 134.9V124.325H676.487V118.25H683.012V111.275H689.762V118.25H698.987V124.325H689.762V134.675C689.762 135.335 689.927 135.875 690.257 136.295C690.617 136.715 691.127 136.925 691.787 136.925H698.537V143H691.112ZM705.045 143V136.925H713.235V124.325H705.945V118.25H719.985V136.925H727.095V143H705.045ZM716.295 114.335C715.065 114.335 714.075 114.02 713.325 113.39C712.605 112.76 712.245 111.905 712.245 110.825C712.245 109.745 712.605 108.89 713.325 108.26C714.075 107.63 715.065 107.315 716.295 107.315C717.525 107.315 718.5 107.63 719.22 108.26C719.97 108.89 720.345 109.745 720.345 110.825C720.345 111.905 719.97 112.76 719.22 113.39C718.5 114.02 717.525 114.335 716.295 114.335ZM738.192 143L729.777 118.25H736.752L741.252 132.155C741.522 132.995 741.762 133.91 741.972 134.9C742.182 135.89 742.347 136.685 742.467 137.285C742.617 136.685 742.797 135.89 743.007 134.9C743.217 133.91 743.442 133.01 743.682 132.2L748.092 118.25H754.977L746.652 143H738.192ZM766.164 143.45C763.674 143.45 761.694 142.775 760.224 141.425C758.784 140.075 758.064 138.245 758.064 135.935C758.064 133.415 758.964 131.495 760.764 130.175C762.564 128.825 765.144 128.15 768.504 128.15H773.229V126.35C773.229 125.36 772.884 124.595 772.194 124.055C771.504 123.515 770.544 123.245 769.314 123.245C768.114 123.245 767.154 123.485 766.434 123.965C765.744 124.445 765.399 125.09 765.399 125.9H759.099C759.159 124.25 759.609 122.825 760.449 121.625C761.319 120.395 762.534 119.45 764.094 118.79C765.654 118.13 767.484 117.8 769.584 117.8C772.794 117.8 775.329 118.565 777.189 120.095C779.049 121.595 779.979 123.68 779.979 126.35V143H773.454V139.175H772.374L773.544 137.375C773.544 139.235 772.884 140.72 771.564 141.83C770.244 142.91 768.444 143.45 766.164 143.45ZM768.684 138.545C770.004 138.545 771.084 138.2 771.924 137.51C772.794 136.82 773.229 135.905 773.229 134.765V132.155H768.639C767.439 132.155 766.494 132.44 765.804 133.01C765.144 133.55 764.814 134.315 764.814 135.305C764.814 136.325 765.159 137.12 765.849 137.69C766.539 138.26 767.484 138.545 768.684 138.545ZM800.617 143C798.877 143 797.347 142.64 796.027 141.92C794.707 141.17 793.672 140.135 792.922 138.815C792.202 137.495 791.842 135.965 791.842 134.225V116.225H783.967V110.15H798.592V134C798.592 134.87 798.832 135.575 799.312 136.115C799.822 136.655 800.482 136.925 801.292 136.925H808.267V143H800.617Z" fill="white"/>
</g>
<path d="M0 37.9882C42.5829 37.9882 41.0453 169.345 116.009 169.345C219.536 169.345 248.129 10 395.802 10M764.494 241C903.802 241 852.448 68.6269 1080 68.6269" stroke="#9BFF82" stroke-width="20"/>
<defs>
<filter id="filter0_d_301_239" x="101" y="31" width="882" height="192" filterUnits="userSpaceOnUse" color-interpolation-filters="sRGB">
<feFlood flood-opacity="0" result="BackgroundImageFix"/>
<feColorMatrix in="SourceAlpha" type="matrix" values="0 0 0 0 0 0 0 0 0 0 0 0 0 0 0 0 0 0 127 0" result="hardAlpha"/>
<feOffset dx="2" dy="4"/>
<feGaussianBlur stdDeviation="8"/>
<feComposite in2="hardAlpha" operator="out"/>
<feColorMatrix type="matrix" values="0 0 0 0 0 0 0 0 0 0 0 0 0 0 0 0 0 0 0.3 0"/>
<feBlend mode="normal" in2="BackgroundImageFix" result="effect1_dropShadow_301_239"/>
<feBlend mode="normal" in="SourceGraphic" in2="effect1_dropShadow_301_239" result="shape"/>
</filter>
</defs>
</svg>
