<svg width="89" height="89" viewBox="0 0 89 89" fill="none" xmlns="http://www.w3.org/2000/svg">
<path d="M20.7708 30.2092L19.4577 35.756C19.3622 36.1698 19.4577 36.6075 19.7203 36.9338C19.983 37.268 20.3888 37.459 20.8106 37.459H23.7153L23.4129 38.8438C21.9725 38.8915 20.6037 39.4963 19.601 40.5309C18.5982 41.5654 18.0332 42.9502 18.0332 44.3986V54.1075C18.0332 55.5798 18.6142 56.9884 19.6567 58.0309C20.6992 59.0734 22.1078 59.6543 23.5801 59.6543V60.6491C23.596 61.6916 24.0178 62.6784 24.7658 63.4026C25.5139 64.1268 26.5166 64.5247 27.5512 64.5088H30.7026C31.7451 64.5247 32.7479 64.1268 33.488 63.4026C34.236 62.6784 34.6578 61.6837 34.6737 60.6491V59.6543H54.0996V60.6491C54.1155 61.6916 54.5373 62.6784 55.2854 63.4026C56.0334 64.1268 57.0362 64.5247 58.0707 64.5088H61.2222C62.2647 64.5247 63.2674 64.1268 64.0075 63.4026C64.7556 62.6784 65.1774 61.6837 65.1933 60.6491V59.6543C66.6655 59.6543 68.0741 59.0734 69.1167 58.0309C70.1592 56.9884 70.7401 55.5798 70.7401 54.1075V44.3986C70.7401 42.9979 70.2149 41.645 69.2679 40.6184C68.3129 39.5918 67.0077 38.9552 65.6071 38.8517L65.3604 37.467H68.663C69.0848 37.467 69.4907 37.276 69.7533 36.9418C70.0159 36.6075 70.1114 36.1778 70.0159 35.7639L68.7028 30.2171C68.5516 29.5884 67.9946 29.1507 67.3499 29.1507H63.8802V29.0711C63.5698 27.5591 62.7581 26.2062 61.5803 25.2114C60.4025 24.2167 58.9223 23.6516 57.3863 23.6039H32.3022C30.7424 23.6596 29.2463 24.2167 28.0366 25.1955C26.827 26.1744 25.9595 27.5113 25.5696 29.0234V29.1587H22.1158C21.4711 29.1587 20.9141 29.5964 20.7629 30.2251L20.7708 30.2092ZM31.9123 60.6571C31.8804 61.2858 31.3393 61.7712 30.7106 61.7473H27.5591C26.9304 61.7712 26.3893 61.2858 26.3575 60.6571V59.6623H31.9043V60.6571H31.9123ZM62.4398 60.6571C62.4079 61.2858 61.8668 61.7712 61.2381 61.7473H58.0866C57.458 61.7712 56.9168 61.2858 56.885 60.6571V59.6623H62.4318V60.6571H62.4398ZM66.2756 31.9122L66.9282 34.6896H64.8988L64.4134 31.9122H66.2836H66.2756ZM28.2833 29.6043C28.538 28.713 29.0632 27.9252 29.7874 27.3522C30.5116 26.7712 31.395 26.429 32.3181 26.3654H57.4022C58.2936 26.4131 59.1371 26.7474 59.8215 27.3203C60.5059 27.8933 60.9755 28.6732 61.1744 29.5407L62.8138 38.8597H26.262L28.2913 29.6123L28.2833 29.6043ZM65.2092 41.6291C65.9414 41.6291 66.6496 41.9236 67.1749 42.4408C67.7001 42.9581 67.9866 43.6664 67.9866 44.4065V54.1155C67.9866 54.8476 67.6922 55.5559 67.1749 56.0811C66.6576 56.6064 65.9493 56.8929 65.2092 56.8929H23.588C22.8559 56.8929 22.1476 56.5984 21.6223 56.0811C21.0971 55.5639 20.8106 54.8556 20.8106 54.1155V44.4065C20.8106 43.6744 21.1051 42.9661 21.6223 42.4408C22.1396 41.9156 22.8479 41.6291 23.588 41.6291H65.2092ZM23.214 31.9202H24.925L24.3122 34.6976H22.5614L23.214 31.9202Z" fill="#4D51F4"/>
<path d="M36.0743 50.6457H52.7228C53.4868 50.6457 54.1075 50.025 54.1075 49.261C54.1075 48.497 53.4868 47.8763 52.7228 47.8763H36.0743C35.3103 47.8763 34.6896 48.497 34.6896 49.261C34.6896 50.025 35.3103 50.6457 36.0743 50.6457Z" fill="#4D51F4"/>
<path d="M27.7501 53.4231C28.8563 53.4231 29.9147 52.9854 30.6946 52.2055C31.4745 51.4256 31.9122 50.3672 31.9122 49.261C31.9122 48.1548 31.4745 47.0964 30.6946 46.3165C29.9147 45.5366 28.8563 45.0989 27.7501 45.0989C26.6439 45.0989 25.5855 45.5366 24.8056 46.3165C24.0257 47.0964 23.588 48.1548 23.588 49.261C23.588 50.3672 24.0257 51.4256 24.8056 52.2055C25.5855 52.9854 26.6439 53.4231 27.7501 53.4231ZM27.7501 47.8763C28.3151 47.8763 28.8165 48.2105 29.0314 48.7358C29.2462 49.253 29.1269 49.8499 28.729 50.2478C28.3311 50.6457 27.7342 50.7651 27.2169 50.5502C26.6996 50.3354 26.3574 49.826 26.3574 49.269C26.3574 48.505 26.9782 47.8842 27.7422 47.8842L27.7501 47.8763Z" fill="#4D51F4"/>
<path d="M61.047 53.4231C62.1532 53.4231 63.2117 52.9854 63.9916 52.2055C64.7715 51.4256 65.2092 50.3672 65.2092 49.261C65.2092 48.1548 64.7715 47.0964 63.9916 46.3165C63.2117 45.5366 62.1532 45.0989 61.047 45.0989C59.9408 45.0989 58.8824 45.5366 58.1025 46.3165C57.3226 47.0964 56.8849 48.1548 56.8849 49.261C56.8849 50.3672 57.3226 51.4256 58.1025 52.2055C58.8824 52.9854 59.9408 53.4231 61.047 53.4231ZM61.047 47.8763C61.6121 47.8763 62.1134 48.2105 62.3283 48.7358C62.5432 49.253 62.4238 49.8499 62.0259 50.2478C61.628 50.6457 61.0311 50.7651 60.5138 50.5502C59.9966 50.3354 59.6544 49.826 59.6544 49.269C59.6544 48.505 60.2751 47.8842 61.0391 47.8842L61.047 47.8763Z" fill="#4D51F4"/>
<path d="M2.94453 60.3546C3.23102 61.0788 4.04275 61.429 4.75899 61.1425C5.48318 60.856 5.83334 60.0443 5.54684 59.328L5.3081 58.6993C5.04548 57.9751 4.24171 57.6011 3.51751 57.8717C2.79332 58.1343 2.41929 58.9381 2.68987 59.6623L2.93657 60.3546H2.94453Z" fill="#4D51F4"/>
<path d="M35.0716 88.1048C35.4377 88.1923 35.8277 88.1207 36.146 87.9138C36.4643 87.7069 36.6792 87.3806 36.7508 87.0066C36.8224 86.6325 36.7349 86.2505 36.5121 85.9402C36.2892 85.6298 35.947 85.4308 35.573 85.3831L34.8807 85.2558C34.1485 85.1364 33.4482 85.6218 33.3049 86.354C33.1617 87.0861 33.6153 87.8024 34.3395 87.9775L35.0716 88.1127V88.1048Z" fill="#4D51F4"/>
<path d="M30.4161 5.10111C30.5673 5.10111 30.7185 5.07724 30.8697 5.02153L31.5143 4.80666C32.2146 4.552 32.5887 3.78006 32.3499 3.07178C32.1191 2.36351 31.371 1.9656 30.6469 2.16455L29.9545 2.39534C29.3178 2.61817 28.9279 3.27074 29.0393 3.93127C29.1507 4.59975 29.7317 5.0852 30.4081 5.09316L30.4161 5.10111Z" fill="#4D51F4"/>
<path d="M28.7927 86.4495C29.5169 86.6962 30.3047 86.3062 30.5514 85.5821C30.7981 84.8579 30.4082 84.07 29.684 83.8233L29.0473 83.6005C28.3231 83.3379 27.5273 83.7198 27.2727 84.4361C27.01 85.1603 27.392 85.9561 28.1083 86.2108L28.7847 86.4495H28.7927Z" fill="#4D51F4"/>
<path d="M84.5554 25.4343C84.2291 24.7419 83.4015 24.4475 82.7091 24.7737C82.0168 25.1 81.7223 25.9277 82.0486 26.62L82.3351 27.2328C82.6534 27.9331 83.4731 28.2355 84.1734 27.9172C84.8738 27.5989 85.1762 26.7792 84.8578 26.0789L84.5634 25.4343H84.5554Z" fill="#4D51F4"/>
<path d="M1.06636 54.1155C1.2096 54.7601 1.79055 55.2138 2.45107 55.1978C2.55453 55.2058 2.65799 55.2058 2.75348 55.1978C3.1116 55.1183 3.42993 54.8954 3.62092 54.5851C3.81988 54.2747 3.88354 53.9007 3.80396 53.5346C3.75621 53.3118 3.70846 53.0969 3.66867 52.8741C3.51747 52.126 2.78532 51.6406 2.02929 51.7918C1.28123 51.943 0.795778 52.6751 0.946983 53.4311C0.946983 53.654 1.00269 53.8927 1.0584 54.1076L1.06636 54.1155Z" fill="#4D51F4"/>
<path d="M87.0384 40.0773H87.2215C87.9775 39.9739 88.5107 39.2815 88.4152 38.5255C88.3834 38.2867 88.3515 38.0559 88.3117 37.8331C88.2003 37.0691 87.4841 36.5359 86.7201 36.6474C85.9561 36.7588 85.4229 37.475 85.5343 38.239C85.5662 38.4618 85.598 38.6926 85.6298 38.9313C85.7492 39.6078 86.3461 40.0932 87.0384 40.0773Z" fill="#4D51F4"/>
<path d="M0.167114 40.515C0.167114 40.7537 0.151197 40.9845 0.111407 41.2074C0.0795739 41.5814 0.190988 41.9475 0.429733 42.234C0.668478 42.5205 1.01068 42.6955 1.38471 42.7194H1.48021C2.21236 42.7194 2.81718 42.1544 2.86493 41.4302C2.86493 41.2074 2.88085 40.9766 2.92064 40.7378C2.9843 39.9738 2.41927 39.2974 1.65529 39.2258C0.891307 39.1621 0.214863 39.7271 0.143239 40.4911L0.159156 40.515H0.167114Z" fill="#4D51F4"/>
<path d="M86.8951 31.4745C86.6723 30.7423 85.8924 30.3285 85.1603 30.5513C84.4281 30.7742 84.0143 31.5541 84.2371 32.2862C84.3008 32.5011 84.3644 32.716 84.4281 32.9308C84.635 33.6709 85.407 34.0927 86.1391 33.8858C86.4972 33.7824 86.7917 33.5516 86.9747 33.2253C87.1578 32.899 87.1975 32.525 87.102 32.1669C87.0384 31.9281 86.9668 31.6973 86.9031 31.4665L86.8951 31.4745Z" fill="#4D51F4"/>
<path d="M1.1937 34.1166C1.13799 34.3554 1.08228 34.5782 1.03454 34.809C0.867414 35.557 1.3449 36.2971 2.09297 36.4643C2.84104 36.6314 3.58115 36.1539 3.74827 35.4058C3.79602 35.183 3.85173 34.9522 3.89948 34.7135C4.00293 34.3474 3.94722 33.9654 3.75623 33.6391C3.56523 33.3128 3.24691 33.082 2.88083 32.9945C2.51475 32.907 2.1248 32.9706 1.81444 33.1775C1.49611 33.3845 1.28124 33.7028 1.20166 34.0768V34.1166H1.1937Z" fill="#4D51F4"/>
<path d="M0.119352 47.7091C0.17506 48.4333 0.77988 48.9984 1.50407 48.9904H1.60753C1.9736 48.9665 2.3158 48.7914 2.55455 48.5129C2.79329 48.2344 2.91267 47.8683 2.88879 47.5022C2.88879 47.2794 2.87288 47.0407 2.849 46.8099C2.80125 46.0459 2.14868 45.457 1.3847 45.5047C0.620717 45.5525 0.0318127 46.205 0.0795616 46.969C0.0954779 47.2237 0.111394 47.4704 0.119352 47.7012V47.7091Z" fill="#4D51F4"/>
<path d="M4.95789 27.1612C4.24962 26.8747 3.43788 27.2169 3.15139 27.9331L2.88877 28.6255C2.72165 28.9756 2.70573 29.3815 2.84898 29.7476C2.99223 30.1057 3.28668 30.3922 3.65275 30.5275C4.01883 30.6627 4.4247 30.6389 4.7669 30.4638C5.11706 30.2887 5.37172 29.9704 5.47517 29.5964L5.72188 28.9677C6.00837 28.2594 5.66617 27.4556 4.95789 27.1612Z" fill="#4D51F4"/>
<path d="M53.3276 87.5716C53.439 87.5716 53.5504 87.5557 53.6618 87.5318L54.3542 87.3568C54.7203 87.2772 55.0386 87.0464 55.2376 86.7281C55.4365 86.4097 55.4922 86.0198 55.3967 85.6537C55.3012 85.2876 55.0625 84.9773 54.7362 84.7942C54.4099 84.6112 54.02 84.5634 53.6539 84.6749L52.9934 84.842C52.3169 85.0091 51.8713 85.6617 51.9508 86.354C52.0304 87.0464 52.6193 87.5716 53.3196 87.5796L53.3276 87.5716Z" fill="#4D51F4"/>
<path d="M88.2242 51.5768C88.264 51.3381 88.2958 51.1073 88.3356 50.8845C88.447 50.1205 87.9139 49.4043 87.1499 49.2929C86.3859 49.1814 85.6697 49.7146 85.5582 50.4786C85.5582 50.7015 85.4866 50.9243 85.4548 51.171C85.3593 51.927 85.8845 52.6194 86.6326 52.7228H86.8554C87.5319 52.7228 88.1048 52.2374 88.2242 51.5689V51.5768Z" fill="#4D51F4"/>
<path d="M82.4465 64.5168C82.7728 64.6759 83.1548 64.7078 83.505 64.5884C83.8551 64.469 84.1416 64.2144 84.3008 63.8881L84.6111 63.2276C84.9215 62.5352 84.6191 61.7235 83.9347 61.4051C83.2503 61.0868 82.4306 61.3733 82.0964 62.0498L81.8019 62.6625C81.6348 62.9888 81.6109 63.3708 81.7303 63.721C81.8496 64.0711 82.1043 64.3576 82.4306 64.5168H82.4465Z" fill="#4D51F4"/>
<path d="M87.4124 42.8706C86.6484 42.8706 86.0277 43.4913 86.0277 44.2553V45.0909C86.0277 45.457 86.1709 45.8151 86.4336 46.0698C86.6962 46.3244 87.0463 46.4756 87.4124 46.4756C87.7785 46.4756 88.1366 46.3324 88.3913 46.0698C88.6459 45.8072 88.7971 45.457 88.7971 45.0909V44.2553C88.7971 43.8892 88.6539 43.5311 88.3913 43.2765C88.1287 43.0218 87.7785 42.8706 87.4124 42.8706Z" fill="#4D51F4"/>
<path d="M86.0277 55.4604C85.2956 55.2376 84.5237 55.6594 84.3008 56.3915L84.1019 57.0362C83.8711 57.7683 84.277 58.5482 85.0011 58.779C85.1364 58.8188 85.2797 58.8427 85.4229 58.8427C86.0277 58.8427 86.5689 58.4527 86.744 57.8718L86.9589 57.1794C87.1658 56.4473 86.7519 55.6833 86.0198 55.4684L86.0277 55.4604Z" fill="#4D51F4"/>
<path d="M47.2556 88.6062L47.9479 88.5345C48.7119 88.455 49.269 87.7626 49.1894 86.9986C49.1098 86.2346 48.4175 85.6776 47.6535 85.7571L46.9611 85.8288C46.1971 85.8606 45.6003 86.5132 45.6401 87.2771C45.6719 88.0411 46.3245 88.638 47.0884 88.5982H47.2635L47.2556 88.6062Z" fill="#4D51F4"/>
<path d="M42.7751 2.77738H43.4675C44.2314 2.76146 44.8442 2.12481 44.8203 1.36082C44.8044 0.596841 44.1678 -0.0159366 43.4038 0.00793789H42.7114C41.9474 0.0238542 41.3347 0.660506 41.3506 1.42449C41.3665 2.18847 42.0032 2.80125 42.7671 2.78533L42.7751 2.77738Z" fill="#4D51F4"/>
<path d="M36.4802 3.46976C36.5757 3.47772 36.6712 3.47772 36.7667 3.46976L37.4591 3.35039C38.2151 3.20714 38.7085 2.48295 38.5653 1.72693C38.422 0.970901 37.6978 0.477495 36.9418 0.620742L36.2494 0.748073C35.4854 0.819696 34.9204 1.49614 34.9841 2.26012C35.0557 3.02411 35.7321 3.58914 36.4961 3.52547L36.4802 3.46976Z" fill="#4D51F4"/>
<path d="M49.5236 3.08775H49.6907C50.4547 3.13549 51.1152 2.54659 51.163 1.78261C51.2107 1.01862 50.6218 0.358097 49.8579 0.310348L49.1655 0.230767C48.7994 0.190976 48.4333 0.30239 48.1389 0.533177C47.8524 0.763963 47.6694 1.10616 47.6296 1.47224C47.55 2.23622 48.1071 2.92858 48.871 3.00816L49.5236 3.08775Z" fill="#4D51F4"/>
<path d="M41.5098 88.7971H41.5575C42.3215 88.813 42.9582 88.2002 42.9661 87.4363C42.982 86.6723 42.3693 86.0356 41.6053 86.0277H40.9129C40.1489 85.9879 39.4964 86.5768 39.4566 87.3487C39.4168 88.1207 40.0057 88.7653 40.7776 88.8051H41.5098V88.7971Z" fill="#4D51F4"/>
<path d="M61.1982 6.30289C61.8985 6.61326 62.7182 6.30289 63.0286 5.59462C63.339 4.8943 63.0286 4.07461 62.3203 3.76424L61.628 3.47775C60.9436 3.27879 60.2273 3.62895 59.9567 4.28152C59.6862 4.94205 59.9567 5.69011 60.5854 6.03232L61.2062 6.30289H61.1982Z" fill="#4D51F4"/>
<path d="M59.3043 85.6457C59.4793 85.6457 59.6624 85.6059 59.8215 85.5423L60.5139 85.2637C61.2222 84.9613 61.5485 84.1496 61.246 83.4413C60.9436 82.733 60.1319 82.4068 59.4236 82.7092L58.8029 82.9718C58.1901 83.2265 57.84 83.8711 57.9673 84.5236C58.0946 85.1762 58.6676 85.6457 59.3281 85.6457H59.2963H59.3043Z" fill="#4D51F4"/>
<path d="M55.5003 4.26558C55.8663 4.39291 56.2722 4.36108 56.6064 4.17804C56.9486 3.99501 57.1953 3.67668 57.2908 3.30265C57.3863 2.92861 57.3227 2.5307 57.1158 2.20442C56.9088 1.87813 56.5666 1.6553 56.1926 1.59164L55.5003 1.39269C54.7522 1.20169 53.9882 1.6553 53.7972 2.39541C53.6062 3.13552 54.0598 3.90747 54.7999 4.09846L55.4923 4.27354L55.5003 4.26558Z" fill="#4D51F4"/>
<path d="M11.1016 0C8.15711 0 5.33197 1.16985 3.25489 3.25489C1.16985 5.33197 0 8.15711 0 11.1016C0 14.0462 1.16985 16.8713 3.25489 18.9484C5.33993 21.0334 8.15711 22.2033 11.1016 22.2033C14.0462 22.2033 16.8713 21.0334 18.9484 18.9484C21.0334 16.8633 22.2033 14.0462 22.2033 11.1016C22.2033 8.15711 21.0334 5.33197 18.9484 3.25489C16.8633 1.16985 14.0462 0 11.1016 0ZM11.1016 19.4259C9.11209 19.4259 7.18622 18.7096 5.67417 17.3965C6.12778 16.5371 6.80423 15.8129 7.63983 15.3115C8.47544 14.8101 9.43042 14.5555 10.4013 14.5634H11.9372C12.8922 14.5475 13.8313 14.7863 14.6589 15.2638C15.4866 15.7412 16.171 16.4336 16.6405 17.2612C15.1205 18.646 13.1469 19.41 11.0937 19.4179L11.1016 19.4259ZM9.71691 9.71691C9.71691 9.15188 10.0512 8.65052 10.5764 8.43565C11.0937 8.22078 11.6905 8.34015 12.0884 8.73806C12.4864 9.13597 12.6057 9.73283 12.3909 10.2501C12.176 10.7674 11.6667 11.1096 11.1096 11.1096C10.3456 11.1096 9.72487 10.4889 9.72487 9.72487L9.71691 9.71691ZM18.4788 14.9613C17.4602 13.6323 16.0516 12.6614 14.452 12.1839C15.0648 11.3483 15.3513 10.3138 15.2478 9.28717C15.1444 8.25261 14.6589 7.29763 13.887 6.61323C13.115 5.92087 12.1123 5.54684 11.0778 5.5548C10.0432 5.56275 9.04843 5.96066 8.28444 6.66098C7.52046 7.3613 7.05093 8.32424 6.96339 9.3588C6.87585 10.3934 7.17826 11.42 7.80696 12.2396C6.20737 12.749 4.81469 13.7597 3.82787 15.1205C2.41132 12.558 2.44316 9.43838 3.91541 6.89972C5.38767 4.36903 8.08549 2.79331 11.0141 2.76148C13.9427 2.72965 16.6723 4.23374 18.2083 6.7326C19.7362 9.23147 19.8477 12.3511 18.4868 14.9454L18.4788 14.9613Z" fill="#4D51F4"/>
<path d="M77.6956 0C74.751 0 71.9259 1.16985 69.8488 3.25489C67.7638 5.33993 66.5939 8.15711 66.5939 11.1016C66.5939 14.0462 67.7638 16.8713 69.8488 18.9484C71.9339 21.0334 74.751 22.2033 77.6956 22.2033C80.6401 22.2033 83.4652 21.0334 85.5423 18.9484C87.6273 16.8633 88.7972 14.0462 88.7972 11.1016C88.7972 8.15711 87.6273 5.33197 85.5423 3.25489C83.4652 1.16985 80.6401 0 77.6956 0ZM77.6956 19.4259C75.706 19.4259 73.7801 18.7096 72.2681 17.3965C72.7217 16.5371 73.3982 15.8129 74.2338 15.3115C75.0694 14.8101 76.0244 14.5555 76.9952 14.5634H78.5312C79.4862 14.5475 80.4252 14.7863 81.2529 15.2638C82.0805 15.7412 82.7649 16.4336 83.2344 17.2612C81.7144 18.646 79.7408 19.41 77.6876 19.4179L77.6956 19.4259ZM76.3108 9.71691C76.3108 9.15188 76.6451 8.65052 77.1703 8.43565C77.6876 8.22078 78.2845 8.34015 78.6824 8.73806C79.0803 9.13597 79.1997 9.73283 78.9848 10.2501C78.7699 10.7674 78.2606 11.1096 77.7035 11.1096C76.9395 11.1096 76.3188 10.4889 76.3188 9.72487L76.3108 9.71691ZM85.0728 14.9613C84.0541 13.6323 82.6455 12.6614 81.0459 12.1839C81.6587 11.3483 81.9452 10.3138 81.8418 9.28717C81.7383 8.25261 81.2529 7.29763 80.4809 6.61323C79.709 5.92087 78.7063 5.54684 77.6717 5.5548C76.6371 5.56275 75.6424 5.96066 74.8784 6.66098C74.1144 7.3613 73.6449 8.32424 73.5573 9.3588C73.4698 10.3934 73.7722 11.42 74.4009 12.2396C72.8013 12.7569 71.4086 13.7676 70.4218 15.1285C69.0053 12.5659 69.0371 9.44634 70.5093 6.90768C71.9816 4.37699 74.6794 2.80127 77.608 2.76944C80.5366 2.73761 83.2663 4.2417 84.8022 6.74056C86.3302 9.23942 86.4416 12.359 85.0807 14.9534L85.0728 14.9613Z" fill="#4D51F4"/>
<path d="M11.1016 88.7971C14.0462 88.7971 16.8713 87.6273 18.9484 85.5422C21.0334 83.4572 22.2033 80.64 22.2033 77.6955C22.2033 74.751 21.0334 71.9258 18.9484 69.8488C16.8633 67.7637 14.0462 66.5939 11.1016 66.5939C8.15711 66.5939 5.33197 67.7637 3.25489 69.8488C1.16985 71.9338 0 74.751 0 77.6955C0 80.64 1.16985 83.4652 3.25489 85.5422C5.33993 87.6273 8.15711 88.7971 11.1016 88.7971ZM11.1016 86.0197C9.11209 86.0197 7.18622 85.3035 5.67417 83.9904C6.12778 83.1309 6.80423 82.4067 7.63983 81.9054C8.47544 81.404 9.43042 81.1493 10.4013 81.1573H11.9372C12.8922 81.1414 13.8313 81.3801 14.6589 81.8576C15.4866 82.3351 16.171 83.0275 16.6405 83.8551C15.1205 85.2398 13.1469 86.0038 11.0937 86.0118L11.1016 86.0197ZM9.71691 76.3108C9.71691 75.7458 10.0512 75.2444 10.5764 75.0295C11.0937 74.8146 11.6905 74.934 12.0884 75.3319C12.4864 75.7298 12.6057 76.3267 12.3909 76.844C12.176 77.3613 11.6667 77.7035 11.1096 77.7035C10.3456 77.7035 9.72487 77.0827 9.72487 76.3187L9.71691 76.3108ZM11.1016 69.3713C14.0064 69.3713 16.7042 70.8913 18.2083 73.3822C19.7124 75.8651 19.8158 78.9609 18.4709 81.5393C17.4602 80.2182 16.0516 79.2473 14.452 78.7619C15.0648 77.9263 15.3433 76.8917 15.2319 75.8651C15.1205 74.8385 14.6351 73.8835 13.8631 73.1991C13.0912 72.5068 12.0884 72.1328 11.0539 72.1407C10.0193 72.1487 9.02455 72.5466 8.26853 73.2469C7.50455 73.9472 7.03501 74.9101 6.94747 75.9367C6.85993 76.9713 7.15439 77.9979 7.77512 78.8176C6.17553 79.3349 4.78285 80.3456 3.804 81.7144C2.37949 79.1359 2.42724 76.0004 3.93133 73.4618C5.42746 70.9231 8.15711 69.3713 11.1016 69.3713Z" fill="#4D51F4"/>
<path d="M77.6956 66.6019C74.751 66.6019 71.9259 67.7717 69.8488 69.8568C67.7638 71.9418 66.5939 74.759 66.5939 77.7035C66.5939 80.648 67.7638 83.4732 69.8488 85.5502C71.9339 87.6353 74.751 88.8051 77.6956 88.8051C80.6401 88.8051 83.4652 87.6353 85.5423 85.5502C87.6273 83.4652 88.7972 80.648 88.7972 77.7035C88.7972 74.759 87.6273 71.9338 85.5423 69.8568C83.4573 67.7717 80.6401 66.6019 77.6956 66.6019ZM77.6956 86.0277C75.706 86.0277 73.7801 85.3115 72.2681 83.9984C72.7217 83.1389 73.3982 82.4147 74.2338 81.9134C75.0694 81.412 76.0244 81.1573 76.9952 81.1653H78.5312C79.4862 81.1494 80.4252 81.3881 81.2529 81.8656C82.0805 82.3431 82.7649 83.0275 83.2265 83.8631C81.7065 85.2399 79.7329 86.0118 77.6796 86.0198L77.6956 86.0277ZM76.3108 76.3188C76.3108 75.7538 76.6451 75.2524 77.1703 75.0375C77.6876 74.8226 78.2845 74.942 78.6824 75.3399C79.0803 75.7378 79.1997 76.3347 78.9848 76.852C78.7699 77.3693 78.2606 77.7115 77.7035 77.7115C76.9395 77.7115 76.3188 77.0907 76.3188 76.3267L76.3108 76.3188ZM85.0728 81.5473C84.0621 80.2262 82.6535 79.2553 81.0539 78.7699C81.6667 77.9343 81.9452 76.8997 81.8338 75.8731C81.7224 74.8465 81.2369 73.8915 80.465 73.2071C79.6931 72.5148 78.6903 72.1407 77.6558 72.1487C76.6212 72.1567 75.6264 72.5546 74.8704 73.2549C74.1064 73.9552 73.6369 74.9181 73.5494 75.9447C73.4618 76.9793 73.7563 78.0059 74.377 78.8256C72.7774 79.3429 71.3847 80.3536 70.4059 81.7224C68.9893 79.1598 69.0212 76.0402 70.4934 73.5096C71.9657 70.9789 74.6635 69.4111 77.5921 69.3713C80.5207 69.3315 83.2504 70.8436 84.7863 73.3424C86.3222 75.8413 86.4257 78.9529 85.0728 81.5553V81.5473Z" fill="#4D51F4"/>
</svg>
