<svg width="86" height="86" viewBox="0 0 86 86" fill="none" xmlns="http://www.w3.org/2000/svg">
<rect width="86" height="86" rx="25" fill="white"/>
<path d="M15.0003 55.8996C15.2473 54.9891 15.4362 54.0642 15.7558 53.1971C16.2063 51.9687 16.9764 50.9426 17.9063 50.0177C22.2799 45.6677 26.6535 41.3322 31.0126 36.9822C31.3904 36.6065 31.8117 36.3463 32.3639 36.3752C32.9742 36.4186 33.4391 36.7221 33.7007 37.2712C33.9477 37.8204 33.9041 38.3696 33.5263 38.8609C33.381 39.0488 33.2066 39.2078 33.0468 39.3812C28.7749 43.63 24.503 47.8644 20.2457 52.1132C17.9499 54.4111 17.3832 57.6483 19.1269 60.1918C20.5072 62.2006 22.1346 64.1227 24.5612 64.9753C26.9151 65.7991 29.1091 65.3366 30.9835 63.7036C32.0442 62.7642 33.0178 61.7237 34.0203 60.7265C37.5076 57.2725 40.9803 53.8041 44.453 50.3357C46.9377 47.8499 47.2138 44.2804 45.1214 41.6068C44.9471 41.3756 44.7291 41.1732 44.5548 40.942C44.0026 40.2628 44.0462 39.3523 44.6565 38.7887C45.2958 38.2106 46.2257 38.2395 46.8651 38.8754C50.3814 42.3294 50.5848 48.2546 47.2574 51.9109C46.3274 52.937 45.3249 53.8908 44.3513 54.8591C40.7769 58.4142 37.217 61.9693 33.6426 65.51C30.5331 68.5883 26.2903 69.3253 22.3816 67.461C21.844 67.2009 21.3064 66.9118 20.856 66.5217C18.938 64.8019 16.8892 63.1833 15.8576 60.7554C15.4652 59.8305 15.2763 58.8333 15.0003 57.865C15.0003 57.2002 15.0003 56.5499 15.0003 55.8996Z" fill="#5050FA"/>
<path d="M36.3888 39.4821C36.4178 36.7507 37.3913 34.4529 39.2948 32.5597C43.6684 28.1953 48.042 23.8308 52.4447 19.4808C56.3097 15.6656 62.0927 15.5789 66.0595 19.2785C67.3817 20.5214 68.7476 21.7209 69.692 23.3106C71.7844 26.8224 71.334 31.4469 68.5732 34.4962C68.3843 34.6986 68.21 34.9009 68.0065 35.0888C63.6765 39.3954 59.3465 43.702 55.0165 48.0087C54.5661 48.4567 54.0866 48.7457 53.4182 48.6156C52.2994 48.3844 51.8053 47.0982 52.4737 46.1877C52.619 45.9999 52.7934 45.8409 52.9532 45.6675C57.2251 41.4042 61.5115 37.1554 65.7834 32.8921C68.0792 30.6087 68.6313 27.3426 66.8877 24.7991C65.5219 22.8048 63.8945 20.9116 61.497 20.0445C59.0995 19.1918 56.8764 19.6543 54.9875 21.3596C53.4763 22.7759 52.0669 24.2644 50.5993 25.7096C47.6061 28.6866 44.6129 31.6492 41.6342 34.6263C38.888 37.3577 38.7863 41.0285 41.3436 43.9333C42.041 44.7137 42.041 45.6241 41.3581 46.2455C40.6752 46.8525 39.7452 46.7658 39.0333 46.0143C37.2896 44.1789 36.4178 41.9678 36.3888 39.4821Z" fill="#5050FA"/>
</svg>
