<svg width="86" height="86" viewBox="0 0 86 86" fill="none" xmlns="http://www.w3.org/2000/svg">
<rect width="86" height="86" rx="25" fill="white"/>
<g clip-path="url(#clip0_357_385)">
<path fill-rule="evenodd" clip-rule="evenodd" d="M60.0233 26C55.5023 21.5 49.4744 19 43.1116 19C29.9395 19 19.2233 29.6667 19.2233 42.7778C19.2233 46.9444 20.3395 51.0556 22.4047 54.6667L19 67L31.6698 63.6667C35.186 65.5556 39.093 66.5556 43.1116 66.5556C56.2837 66.5556 67 55.8889 67 42.7778C67 36.4444 64.5442 30.4444 60.0233 26ZM43.1116 62.5556C39.5395 62.5556 36.0233 61.6111 33.0093 59.7778L32.2837 59.3333L24.7488 61.2778L26.7581 54L26.2558 53.2778C24.2465 50.1111 23.2419 46.5 23.2419 42.7778C23.2419 31.8889 32.1721 23 43.1116 23C48.414 23 53.3814 25.0556 57.1767 28.7778C60.9163 32.5 62.9814 37.5 62.9814 42.7778C62.9814 53.7222 54.0512 62.5556 43.1116 62.5556ZM53.9953 47.7778C53.3814 47.5 50.4791 46.0556 49.9209 45.8333C49.3628 45.6111 48.9721 45.5556 48.5814 46.1111C48.1907 46.7222 47.0186 48.0556 46.6837 48.4444C46.3488 48.8333 46.014 48.8889 45.4 48.6111C44.786 48.3333 42.8884 47.6667 40.6 45.6667C38.814 44.1111 37.6419 42.1667 37.2512 41.5556C36.9163 40.9444 37.1954 40.6667 37.5302 40.3333C37.8093 40.0556 38.1442 39.6667 38.4233 39.2778C38.7023 38.9444 38.814 38.6667 39.0372 38.2778C39.2605 37.8889 39.1488 37.5556 38.9814 37.2222C38.814 36.9444 37.6419 34 37.1395 32.8333C36.6372 31.6667 36.1349 31.8333 35.8 31.8333C35.4651 31.8333 35.0744 31.8333 34.6279 31.8333C34.2372 31.8333 33.5674 32 33.0093 32.5556C32.4512 33.1667 30.9442 34.6111 30.9442 37.5C30.9442 40.4444 33.0651 43.2778 33.4 43.6667C33.6791 44.0556 37.586 50.0556 43.614 52.6667C45.0651 53.2778 46.1256 53.6667 47.0186 53.9444C48.4698 54.3889 49.7535 54.3333 50.7581 54.1667C51.9302 54 54.2744 52.7222 54.7767 51.3333C55.2791 49.9444 55.2791 48.7778 55.1116 48.5C55 48.2222 54.6093 48.0556 53.9953 47.7778Z" fill="#5050FA"/>
</g>
<defs>
<clipPath id="clip0_357_385">
<rect width="48" height="48" fill="white" transform="translate(19 19)"/>
</clipPath>
</defs>
</svg>
