<svg width="99" height="57" viewBox="0 0 99 57" fill="none" xmlns="http://www.w3.org/2000/svg">
<path d="M98.9292 35.5756C98.5676 32.3267 96.8375 29.3856 94.169 27.4704L59.4883 3.16346C56.5703 1.09442 53.0756 -0.00850043 49.5033 4.93338e-05H0.877984C0.395948 4.93338e-05 0.00858991 0.384789 0.00858991 0.863576V3.4969C0.00858991 3.97569 0.395948 4.36043 0.877984 4.36043H49.5033C51.2077 4.36043 52.8862 4.68532 54.4528 5.32655C54.7799 5.46335 54.9951 5.77969 54.9951 6.13023V20.3827C55.0209 23.2041 56.1657 25.9058 58.1799 27.9065C60.1942 29.9071 62.9056 31.0357 65.7548 31.0699H91.2511C91.4404 31.0699 91.6384 31.1297 91.7847 31.2494C93.2825 32.4464 94.2379 34.1906 94.4359 36.0972C94.6511 38.0978 94.0055 40.0984 92.6627 41.6118C91.3199 43.1251 89.4004 44.0057 87.3775 44.0484H0.8866C0.404564 44.0484 0.0172061 44.4332 0.0172061 44.912V49.8708C0.0172061 49.982 0.034428 50.0931 0.0774668 50.1957C0.860775 52.1365 2.20358 53.8123 3.94235 55.0092C5.72416 56.2319 7.83307 56.8987 10.0022 56.9073C11.0266 56.9073 12.0509 56.7619 13.0236 56.4798C13.9962 56.1977 14.9345 55.7702 15.8039 55.223C17.1036 54.3937 18.2054 53.3078 19.0318 52.0339C19.3761 51.5124 20.1594 51.5209 20.4951 52.0425C21.8207 54.1457 23.8607 55.7274 26.2709 56.4969C29.1717 57.4203 32.3308 57.0612 34.9476 55.5137C37.3663 54.0773 39.1137 51.7603 39.811 49.0672C39.9143 48.6824 40.2586 48.4088 40.6545 48.4088H44.6399C45.0445 48.4088 45.3888 48.6824 45.4835 49.0672C46.1807 51.7603 47.9281 54.0859 50.3469 55.5137C52.9636 57.0612 56.1227 57.4203 59.0235 56.4969C61.4251 55.736 63.4652 54.1543 64.7908 52.0596C65.1265 51.5295 65.9183 51.5295 66.254 52.0596C67.5796 54.1543 69.6197 55.736 72.0213 56.4969C74.9221 57.4203 78.0811 57.0612 80.6979 55.5137C83.1253 54.0773 84.864 51.7603 85.5699 49.0672C85.6732 48.6824 86.0175 48.4088 86.4135 48.4088H87.4722C90.7604 48.3832 93.885 46.9639 96.0714 44.5272C98.2578 42.082 99.2907 38.8331 98.9292 35.5842V35.5756ZM65.7376 26.7095C64.0591 26.6839 62.458 26.0084 61.2701 24.8286C60.0823 23.6487 59.4023 22.0584 59.3764 20.3912V10.1828C59.3764 9.48174 60.177 9.07135 60.7537 9.47319L83.0478 25.1449C83.745 25.6322 83.3921 26.7181 82.5485 26.7181H65.7548L65.7376 26.7095ZM13.6003 51.3927C12.5415 52.1365 11.2848 52.5384 9.985 52.5469C8.68523 52.5384 7.42851 52.1365 6.36975 51.3927C5.73277 50.9481 5.18187 50.3838 4.75148 49.7511C4.36413 49.1783 4.7773 48.4003 5.47453 48.4003H14.4955C15.1927 48.4003 15.6059 49.1783 15.2185 49.7511C14.7882 50.3924 14.2373 50.9481 13.6003 51.3927ZM33.028 51.3927C31.9693 52.1365 30.7125 52.5384 29.4128 52.5469C28.113 52.5384 26.8563 52.1365 25.7975 51.3927C25.1605 50.9481 24.6096 50.3838 24.1792 49.7511C23.7919 49.1783 24.2051 48.4003 24.9023 48.4003H33.9233C34.6205 48.4003 35.0337 49.1783 34.6463 49.7511C34.2159 50.3924 33.665 50.9481 33.028 51.3927ZM59.3678 51.3927C58.3091 52.1365 57.0524 52.5384 55.7526 52.5469C54.4528 52.5384 53.1961 52.1365 52.1373 51.3927C51.5003 50.9481 50.9494 50.3838 50.519 49.7511C50.1317 49.1783 50.5448 48.4003 51.2421 48.4003H60.2631C60.9603 48.4003 61.3734 49.1697 60.9861 49.7511C60.5557 50.3924 60.0048 50.9481 59.3678 51.3927ZM78.7698 51.4354C77.711 52.1536 76.4629 52.5384 75.1803 52.5469C73.8977 52.5469 72.6496 52.1622 71.5909 51.4354C70.9625 51.0079 70.4202 50.4779 69.9898 49.8708C69.5853 49.298 70.0071 48.5114 70.7043 48.5114H79.6563C80.3622 48.5114 80.7754 49.298 80.3708 49.8708C79.9404 50.4779 79.3981 51.0079 78.7698 51.4354ZM48.6253 11.337H0.869368C0.387332 11.337 0 11.7218 0 12.2006V14.8339C0 15.3127 0.387332 15.6974 0.869368 15.6974H5.49177C5.9738 15.6974 6.36113 16.0822 6.36113 16.5609V23.2212C6.36113 23.7 5.9738 24.0847 5.49177 24.0847H0.869368C0.387332 24.0847 0 24.4695 0 24.9483V27.5816C0 28.0604 0.387332 28.4451 0.869368 28.4451H48.6253C49.1074 28.4451 49.4947 28.0604 49.4947 27.5816V12.2006C49.4947 11.7218 49.1074 11.337 48.6253 11.337ZM18.4465 24.0933H11.6291C11.1471 24.0933 10.7597 23.7085 10.7597 23.2298V16.5695C10.7597 16.0907 11.1471 15.706 11.6291 15.706H18.4465C18.9285 15.706 19.3159 16.0907 19.3159 16.5695V23.2298C19.3159 23.7085 18.9285 24.0933 18.4465 24.0933ZM31.4012 24.0933H24.5838C24.1018 24.0933 23.7144 23.7085 23.7144 23.2298V16.5695C23.7144 16.0907 24.1018 15.706 24.5838 15.706H31.4012C31.8832 15.706 32.2705 16.0907 32.2705 16.5695V23.2298C32.2705 23.7085 31.8832 24.0933 31.4012 24.0933ZM44.244 24.0933H37.5385C37.0565 24.0933 36.6691 23.7085 36.6691 23.2298V16.5695C36.6691 16.0907 37.0565 15.706 37.5385 15.706H44.244C44.726 15.706 45.1133 16.0907 45.1133 16.5695V23.2298C45.1133 23.7085 44.726 24.0933 44.244 24.0933Z" fill="#4D51F4"/>
</svg>
