<svg width="86" height="86" viewBox="0 0 86 86" fill="none" xmlns="http://www.w3.org/2000/svg">
<rect width="86" height="86" rx="25" fill="white"/>
<g clip-path="url(#clip0_357_341)">
<path d="M32.3055 66C53.0721 66 64.3993 48.6972 64.3993 33.6761C64.3993 33.169 64.3993 32.7254 64.3364 32.2183C66.5389 30.6338 68.4268 28.6056 69.9371 26.3239C67.9233 27.2113 65.7208 27.8451 63.4554 28.0986C65.8467 26.7042 67.6087 24.4859 68.4897 21.8239C66.2872 23.1549 63.8959 24.0423 61.3158 24.6127C59.2391 22.3944 56.2815 21 53.0721 21C46.8421 21 41.8078 26.0704 41.8078 32.3451C41.8078 33.2324 41.9336 34.1197 42.1224 34.9437C32.6831 34.5 24.3764 29.9366 18.8387 23.0915C17.8947 24.7394 17.3284 26.7042 17.3284 28.7958C17.3284 32.7254 19.3421 36.2113 22.3627 38.2394C20.5378 38.1761 18.7757 37.669 17.2654 36.8451C17.2654 36.9085 17.2654 36.9085 17.2654 36.9718C17.2654 42.4859 21.167 47.0493 26.3272 48.1268C25.3833 48.3803 24.3764 48.507 23.3696 48.507C22.6144 48.507 21.9222 48.4437 21.23 48.3169C22.6773 52.8169 26.8307 56.1127 31.7391 56.1761C27.9005 59.2183 22.992 61.0563 17.7059 61.0563C16.8249 61.0563 15.881 60.993 15 60.9296C19.9714 64.0986 25.9497 66 32.3055 66Z" fill="#5050FA"/>
</g>
<defs>
<clipPath id="clip0_357_341">
<rect width="55" height="45" fill="white" transform="translate(15 21)"/>
</clipPath>
</defs>
</svg>
