<svg width="90" height="58" viewBox="0 0 90 58" fill="none" xmlns="http://www.w3.org/2000/svg">
<path d="M72.9295 23.2759H72.7695C72.1136 23.2759 71.5936 23.2759 70.9857 23.3647L70.1858 23.4777L63.7303 1.44516C63.4584 0.557071 62.7384 0 61.8585 0H53.1473C52.0514 0 51.1235 0.936526 51.1235 2.04259C51.1235 3.14866 52.0514 4.08519 53.1473 4.08519H60.3546L63.2104 13.8057H31.2132L33.333 8.02506C33.549 7.5245 33.469 6.81403 33.1251 6.24081C32.7091 5.70796 32.1251 5.40117 31.5092 5.40117H21.6461C20.5502 5.40117 19.6223 6.33769 19.6223 7.44376C19.6223 8.54983 20.5502 9.48636 21.6461 9.48636H28.5575L26.4297 15.1782L22.366 24.2205L21.5981 24.0106C20.2862 23.6553 18.7423 23.4616 17.2465 23.4616H17.2305C12.6789 23.3728 8.36726 25.1005 5.11954 28.3218C1.81584 31.5997 0 35.9836 0 40.6823C0 50.2252 7.69532 57.9919 17.1505 57.9919C26.0377 57.9919 33.573 50.9922 34.301 42.0548L34.3729 41.1829H41.8443C42.5642 41.1829 43.0442 40.7873 43.3321 40.4482L63.8823 16.2358L66.3301 24.4869L65.5862 24.8341C59.4667 27.684 55.5071 33.8683 55.5071 40.5935C55.6031 50.1849 63.3384 58 72.7535 58C77.3211 58 81.6487 56.1915 84.9205 52.9137C88.2002 49.6278 90 45.2923 90 40.6904C90 31.1475 82.3527 23.3728 72.9135 23.284L72.9295 23.2759ZM24.2298 29.5086L25.1498 30.1464C27.0936 31.4866 28.6854 33.5938 29.5254 35.919L29.9813 37.1946H20.7662L24.2298 29.5086ZM30.2453 42.2405C29.5014 48.9415 23.8779 54.0036 17.1505 54.0036C9.87912 54.0036 3.95965 48.0292 3.95965 40.6904C3.95965 33.3516 9.87912 27.3772 17.1505 27.3772C17.9824 27.3772 18.7023 27.4822 19.3903 27.5791L20.6382 27.7567L15.8066 38.3814C15.5346 39.0031 15.5666 39.7781 15.8946 40.2141L15.9266 40.2545C16.3345 40.868 16.9105 41.1829 17.6304 41.1829H30.3573L30.2453 42.2405ZM40.9404 37.1946H34.037L33.861 36.4841C32.7731 32.1971 30.2933 28.6448 26.6856 26.2227L26.0217 25.7787L29.5654 17.8182H57.3949L40.9484 37.2027L40.9404 37.1946ZM72.7695 54.0036C65.4982 54.0036 59.5787 48.0292 59.5787 40.6904C59.5787 35.806 62.2265 31.309 66.4821 28.9435L67.506 28.3703L71.3777 41.7723C71.6336 42.6119 72.4096 43.2174 73.2495 43.2174C73.4735 43.2174 73.6735 43.2174 73.8174 43.169C74.8493 42.838 75.4733 41.7158 75.2173 40.642L71.3217 27.3692H72.7695C80.0409 27.3692 85.9604 33.3435 85.9604 40.6823C85.9604 48.0212 80.0409 53.9955 72.7695 53.9955V54.0036Z" fill="#4D51F4"/>
</svg>
