<svg width="85" height="81" viewBox="0 0 85 81" fill="none" xmlns="http://www.w3.org/2000/svg">
<path d="M31.6109 12.0424H19.4573C16.9698 12.0424 14.5992 13.0153 12.8463 14.7467C11.0934 16.4781 10.1084 18.8196 10.1084 21.2765V35.1276C10.1084 35.6223 10.3087 36.084 10.6593 36.4303C11.0099 36.7765 11.4773 36.9744 11.9782 36.9744H39.0901C39.5909 36.9744 40.0584 36.7765 40.409 36.4303C40.7595 36.084 40.9599 35.6223 40.9599 35.1276V21.2765C40.9599 18.8196 39.9749 16.4781 38.222 14.7467C36.469 13.0153 34.0817 12.0424 31.6109 12.0424ZM37.2203 33.2808H13.848V21.2765C13.848 19.8089 14.4323 18.3908 15.484 17.352C16.5358 16.3132 17.9548 15.736 19.4573 15.736H31.6109C33.0968 15.736 34.5325 16.3132 35.5842 17.352C36.636 18.3908 37.2203 19.7924 37.2203 21.2765V33.2808Z" fill="#4D51F4"/>
<path d="M32.1618 52.392H28.5224L30.0249 46.3899C30.0917 46.192 30.0416 45.9776 29.908 45.8127C29.7745 45.6478 29.5742 45.5489 29.3571 45.5654H22.1618C21.8279 45.5654 21.5608 45.7962 21.5107 46.126L19.1735 59.1527C19.1401 59.3505 19.2069 59.5649 19.3571 59.7133L19.8246 59.9936H23.0967L22.5291 69.8708C22.5124 70.1676 22.7127 70.4314 22.9965 70.5139H23.1802C23.4139 70.4974 23.6309 70.3655 23.7478 70.1511L32.7294 53.3484C32.8296 53.1505 32.8129 52.9197 32.696 52.7383C32.5792 52.5239 32.3955 52.4085 32.1618 52.392Z" fill="#4D51F4"/>
<path d="M84.9833 15.1754C84.9833 14.6807 84.783 14.219 84.4324 13.8727C84.0818 13.5265 83.6144 13.3286 83.1135 13.3286H82.1786V6.86475C82.1786 5.8424 81.3439 5.01793 80.3088 5.01793C79.2738 5.01793 78.4391 5.8424 78.4391 6.86475V13.3286H69.7579V6.86475C69.7579 5.8424 68.9232 5.01793 67.8881 5.01793C66.8531 5.01793 66.0183 5.8424 66.0183 6.86475V13.3286H65.0834C64.0484 13.3286 63.2137 14.1531 63.2137 15.1754V22.9254C63.2137 25.4483 64.1152 27.8723 65.7679 29.8015C67.404 31.7308 69.6911 33.017 72.1953 33.4457V63.6378C72.1953 65.2868 71.3105 66.8038 69.8581 67.6283C68.4057 68.4527 66.636 68.4527 65.1836 67.6283C63.7312 66.8038 62.8464 65.2868 62.8464 63.6378V57.174C62.8464 55.2117 62.0617 53.3319 60.6594 51.9468C59.2571 50.5617 57.3539 49.7867 55.3672 49.7867H50.1251V16.3791C50.1251 12.2238 48.4557 8.21688 45.4674 5.28176C42.4791 2.33016 38.439 0.681213 34.232 0.681213H16.3688C12.1618 0.681213 8.10504 2.33016 5.13342 5.28176C2.1451 8.21688 0.475647 12.2073 0.475647 16.3791V78.4288C0.475647 78.9235 0.675981 79.3852 1.02657 79.7315C1.37715 80.0778 1.8446 80.2756 2.34543 80.2756H48.2554C48.7562 80.2756 49.2236 80.0778 49.5742 79.7315C49.9248 79.3852 50.1251 78.9235 50.1251 78.4288V53.4968H55.4507C56.4357 53.4968 57.3873 53.8926 58.0884 54.5851C58.7896 55.2777 59.1903 56.2176 59.1903 57.1904V63.6543C59.1903 66.6224 60.7929 69.3596 63.3973 70.8437C66.0016 72.3277 69.207 72.3277 71.8113 70.8437C74.4157 69.3596 76.0183 66.6224 76.0183 63.6543V33.4622C78.5225 33.0335 80.8097 31.7308 82.4457 29.818C84.0818 27.8888 84.9833 25.4648 85 22.9419L84.9833 15.1754ZM46.3856 76.582H4.21522V16.3791C4.21522 13.1967 5.5007 10.1461 7.77115 7.88709C10.0583 5.62804 13.1468 4.37484 16.3688 4.37484H34.232C37.454 4.37484 40.5425 5.64453 42.8296 7.88709C45.1001 10.1461 46.3856 13.1967 46.3856 16.3791V76.582ZM81.2437 22.9419C81.2437 24.8052 80.4925 26.5861 79.1569 27.9052C77.8214 29.2244 76.0184 29.9664 74.1319 29.9664C72.2287 29.9829 70.3923 29.2574 69.04 27.9382C67.6878 26.6191 66.9198 24.8217 66.9198 22.9419V17.0222H81.227V22.9419H81.2437Z" fill="#4D51F4"/>
</svg>
