<svg width="130" height="324" viewBox="0 0 130 324" fill="none" xmlns="http://www.w3.org/2000/svg">
<g clip-path="url(#clip0_58_3864)">
<path d="M11.63 86.77C17.7051 86.77 22.63 81.8451 22.63 75.77C22.63 69.6949 17.7051 64.77 11.63 64.77C5.55487 64.77 0.630005 69.6949 0.630005 75.77C0.630005 81.8451 5.55487 86.77 11.63 86.77Z" fill="#FD9E98"/>
<path d="M118.63 86.77C124.705 86.77 129.63 81.8451 129.63 75.77C129.63 69.6949 124.705 64.77 118.63 64.77C112.555 64.77 107.63 69.6949 107.63 75.77C107.63 81.8451 112.555 86.77 118.63 86.77Z" fill="#FD9E98"/>
<path d="M45.8146 9.53185L38.5029 14.3019C36.0884 15.8771 35.408 19.1114 36.9832 21.5259L44.2175 32.6148C45.7927 35.0294 49.027 35.7098 51.4416 34.1345L58.7532 29.3645C61.1677 27.7893 61.8481 24.555 60.2729 22.1404L53.0386 11.0516C51.4634 8.63704 48.2291 7.95664 45.8146 9.53185Z" fill="#18293A"/>
<path d="M43.8038 22.9498L36.4921 27.7198C34.0776 29.295 33.3972 32.5293 34.9724 34.9439L42.2067 46.0327C43.7819 48.4473 47.0162 49.1277 49.4308 47.5524L56.7424 42.7824C59.1569 41.2072 59.8373 37.9729 58.2621 35.5583L51.0278 24.4695C49.4526 22.0549 46.2183 21.3745 43.8038 22.9498Z" fill="#18293A"/>
<path d="M41.7884 36.386L34.4768 41.156C32.0623 42.7312 31.3819 45.9656 32.9571 48.3801L40.1913 59.469C41.7665 61.8835 45.0009 62.5639 47.4154 60.9887L54.727 56.2187C57.1416 54.6435 57.822 51.4091 56.2467 48.9946L49.0125 37.9057C47.4373 35.4912 44.2029 34.8108 41.7884 36.386Z" fill="#18293A"/>
<path d="M39.783 49.8122L32.4714 54.5823C30.0569 56.1575 29.3765 59.3918 30.9517 61.8063L38.186 72.8952C39.7612 75.3097 42.9955 75.9901 45.41 74.4149L52.7217 69.6449C55.1362 68.0697 55.8166 64.8354 54.2414 62.4208L47.0071 51.332C45.4319 48.9174 42.1976 48.237 39.783 49.8122Z" fill="#18293A"/>
<path d="M37.7777 63.2385L30.4661 68.0085C28.0515 69.5838 27.3711 72.8181 28.9464 75.2326L36.1806 86.3215C37.7558 88.736 40.9902 89.4164 43.4047 87.8412L50.7163 83.0712C53.1308 81.496 53.8112 78.2616 52.236 75.8471L45.0018 64.7582C43.4266 62.3437 40.1922 61.6633 37.7777 63.2385Z" fill="#18293A"/>
<path d="M35.7669 76.6564L28.4552 81.4264C26.0407 83.0016 25.3603 86.236 26.9355 88.6505L34.1698 99.7394C35.745 102.154 38.9793 102.834 41.3939 101.259L48.7055 96.4891C51.12 94.9138 51.8004 91.6795 50.2252 89.265L42.9909 78.1761C41.4157 75.7616 38.1814 75.0812 35.7669 76.6564Z" fill="#18293A"/>
<path d="M33.7515 90.0926L26.4399 94.8627C24.0254 96.4379 23.345 99.6722 24.9202 102.087L32.1544 113.176C33.7296 115.59 36.964 116.271 39.3785 114.695L46.6901 109.925C49.1047 108.35 49.7851 105.116 48.2098 102.701L40.9756 91.6124C39.4004 89.1978 36.166 88.5174 33.7515 90.0926Z" fill="#18293A"/>
<path d="M31.7378 103.524L24.4262 108.294C22.0116 109.87 21.3312 113.104 22.9064 115.518L30.1407 126.607C31.7159 129.022 34.9502 129.702 37.3648 128.127L44.6764 123.357C47.0909 121.782 47.7713 118.547 46.1961 116.133L38.9619 105.044C37.3866 102.63 34.1523 101.949 31.7378 103.524Z" fill="#18293A"/>
<path d="M29.727 116.942L22.4154 121.712C20.0008 123.287 19.3204 126.522 20.8956 128.936L28.1299 140.025C29.7051 142.44 32.9394 143.12 35.354 141.545L42.6656 136.775C45.0801 135.2 45.7605 131.965 44.1853 129.551L36.951 118.462C35.3758 116.047 32.1415 115.367 29.727 116.942Z" fill="#18293A"/>
<path d="M27.7216 130.368L20.41 135.138C17.9955 136.714 17.3151 139.948 18.8903 142.363L26.1245 153.451C27.6997 155.866 30.9341 156.546 33.3486 154.971L40.6602 150.201C43.0748 148.626 43.7552 145.392 42.1799 142.977L34.9457 131.888C33.3705 129.474 30.1361 128.793 27.7216 130.368Z" fill="#18293A"/>
<path d="M66.098 9.53552L58.7864 14.3055C56.3719 15.8808 55.6915 19.1151 57.2667 21.5296L64.5009 32.6185C66.0761 35.033 69.3105 35.7134 71.725 34.1382L79.0366 29.3682C81.4512 27.793 82.1316 24.5586 80.5563 22.1441L73.3221 11.0552C71.7469 8.6407 68.5125 7.9603 66.098 9.53552Z" fill="#18293A"/>
<path d="M64.0872 22.9534L56.7756 27.7234C54.361 29.2987 53.6806 32.533 55.2558 34.9475L62.4901 46.0364C64.0653 48.4509 67.2996 49.1313 69.7142 47.5561L77.0258 42.7861C79.4403 41.2109 80.1207 37.9765 78.5455 35.562L71.3112 24.4731C69.736 22.0586 66.5017 21.3782 64.0872 22.9534Z" fill="#18293A"/>
<path d="M62.0818 36.3797L54.7702 41.1497C52.3557 42.7249 51.6753 45.9592 53.2505 48.3738L60.4848 59.4626C62.06 61.8772 65.2943 62.5576 67.7088 60.9823L75.0205 56.2123C77.435 54.6371 78.1154 51.4028 76.5402 48.9883L69.3059 37.8994C67.7307 35.4848 64.4964 34.8044 62.0818 36.3797Z" fill="#18293A"/>
<path d="M60.0765 49.8159L52.7648 54.5859C50.3503 56.1611 49.6699 59.3955 51.2451 61.81L58.4794 72.8989C60.0546 75.3134 63.2889 75.9938 65.7035 74.4186L73.0151 69.6486C75.4296 68.0734 76.11 64.839 74.5348 62.4245L67.3005 51.3356C65.7253 48.9211 62.491 48.2407 60.0765 49.8159Z" fill="#18293A"/>
<path d="M58.0711 63.2422L50.7595 68.0122C48.345 69.5874 47.6646 72.8217 49.2398 75.2363L56.474 86.3251C58.0493 88.7397 61.2836 89.4201 63.6981 87.8449L71.0097 83.0748C73.4243 81.4996 74.1047 78.2653 72.5295 75.8508L65.2952 64.7619C63.72 62.3474 60.4856 61.667 58.0711 63.2422Z" fill="#18293A"/>
<path d="M56.0503 76.66L48.7387 81.43C46.3242 83.0053 45.6438 86.2396 47.219 88.6541L54.4532 99.743C56.0284 102.158 59.2628 102.838 61.6773 101.263L68.9889 96.4927C71.4035 94.9175 72.0839 91.6831 70.5086 89.2686L63.2744 78.1797C61.6992 75.7652 58.4648 75.0848 56.0503 76.66Z" fill="#18293A"/>
<path d="M54.0449 90.0963L46.7333 94.8663C44.3188 96.4415 43.6384 99.6759 45.2136 102.09L52.4479 113.179C54.0231 115.594 57.2574 116.274 59.6719 114.699L66.9836 109.929C69.3981 108.354 70.0785 105.119 68.5033 102.705L61.269 91.616C59.6938 89.2015 56.4595 88.5211 54.0449 90.0963Z" fill="#18293A"/>
<path d="M52.0396 103.523L44.728 108.293C42.3134 109.868 41.633 113.102 43.2083 115.517L50.4425 126.606C52.0177 129.02 55.2521 129.7 57.6666 128.125L64.9782 123.355C67.3927 121.78 68.0731 118.546 66.4979 116.131L59.2637 105.042C57.6885 102.628 54.4541 101.947 52.0396 103.523Z" fill="#18293A"/>
<path d="M50.0288 116.94L42.7171 121.71C40.3026 123.286 39.6222 126.52 41.1974 128.935L48.4317 140.023C50.0069 142.438 53.2412 143.118 55.6558 141.543L62.9674 136.773C65.3819 135.198 66.0623 131.964 64.4871 129.549L57.2528 118.46C55.6776 116.046 52.4433 115.365 50.0288 116.94Z" fill="#18293A"/>
<path d="M48.0134 130.367L40.7018 135.137C38.2873 136.712 37.6069 139.946 39.1821 142.361L46.4163 153.45C47.9916 155.864 51.2259 156.545 53.6404 154.969L60.952 150.199C63.3666 148.624 64.047 145.39 62.4717 142.975L55.2375 131.886C53.6623 129.472 50.4279 128.791 48.0134 130.367Z" fill="#18293A"/>
<path d="M83.4168 1.68865L71.3815 9.54034C68.967 11.1156 68.2866 14.3499 69.8618 16.7644L80.9045 33.6909C82.4797 36.1054 85.714 36.7858 88.1285 35.2106L100.164 27.3589C102.578 25.7837 103.259 22.5493 101.684 20.1348L90.6409 3.20837C89.0657 0.79384 85.8313 0.113439 83.4168 1.68865Z" fill="#18293A"/>
<path d="M75.4112 42.7997L82.7228 47.5698C85.1373 49.145 88.3716 48.4646 89.9468 46.05L97.1811 34.9612C98.7563 32.5466 98.0759 29.3123 95.6614 27.7371L88.3498 22.9671C85.9352 21.3919 82.7009 22.0723 81.1257 24.4868L73.8914 35.5757C72.3162 37.9902 72.9966 41.2245 75.4112 42.7997Z" fill="#18293A"/>
<path d="M77.4174 56.218L84.729 60.988C87.1436 62.5632 90.3779 61.8828 91.9531 59.4683L99.1874 48.3794C100.763 45.9649 100.082 42.7306 97.6677 41.1554L90.356 36.3853C87.9415 34.8101 84.7072 35.4905 83.132 37.9051L75.8977 48.9939C74.3225 51.4085 75.0029 54.6428 77.4174 56.218Z" fill="#18293A"/>
<path d="M79.4321 69.6417L86.7437 74.4118C89.1582 75.987 92.3925 75.3066 93.9677 72.892L101.202 61.8032C102.777 59.3886 102.097 56.1543 99.6823 54.5791L92.3707 49.8091C89.9561 48.2339 86.7218 48.9143 85.1466 51.3288L77.9123 62.4177C76.3371 64.8322 77.0175 68.0665 79.4321 69.6417Z" fill="#18293A"/>
<path d="M81.4367 83.0655L88.7483 87.8355C91.1629 89.4107 94.3972 88.7303 95.9724 86.3158L103.207 75.2269C104.782 72.8124 104.101 69.5781 101.687 68.0028L94.3753 63.2328C91.9608 61.6576 88.7265 62.338 87.1513 64.7525L79.917 75.8414C78.3418 78.2559 79.0222 81.4903 81.4367 83.0655Z" fill="#18293A"/>
<path d="M83.4459 96.4976L90.7575 101.268C93.172 102.843 96.4064 102.162 97.9816 99.7479L105.216 88.659C106.791 86.2445 106.111 83.0102 103.696 81.435L96.3845 76.6649C93.97 75.0897 90.7356 75.7701 89.1604 78.1847L81.9262 89.2735C80.351 91.6881 81.0314 94.9224 83.4459 96.4976Z" fill="#18293A"/>
<path d="M85.4605 109.921L92.7721 114.691C95.1867 116.267 98.421 115.586 99.9962 113.172L107.23 102.083C108.806 99.6683 108.125 96.434 105.711 94.8587L98.3991 90.0887C95.9846 88.5135 92.7503 89.1939 91.1751 91.6084L83.9408 102.697C82.3656 105.112 83.046 108.346 85.4605 109.921Z" fill="#18293A"/>
<path d="M87.4752 123.345L94.7868 128.115C97.2013 129.69 100.436 129.01 102.011 126.595L109.245 115.507C110.82 113.092 110.14 109.858 107.725 108.282L100.414 103.512C97.9993 101.937 94.7649 102.618 93.1897 105.032L85.9555 116.121C84.3802 118.536 85.0606 121.77 87.4752 123.345Z" fill="#18293A"/>
<path d="M89.4844 136.777L96.796 141.547C99.2105 143.122 102.445 142.442 104.02 140.028L111.254 128.939C112.83 126.524 112.149 123.29 109.735 121.715L102.423 116.945C100.008 115.369 96.7741 116.05 95.1989 118.464L87.9646 129.553C86.3894 131.968 87.0698 135.202 89.4844 136.777Z" fill="#18293A"/>
<path d="M91.499 150.201L98.8106 154.971C101.225 156.546 104.459 155.866 106.035 153.451L113.269 142.362C114.844 139.948 114.164 136.714 111.749 135.138L104.438 130.368C102.023 128.793 98.7888 129.473 97.2136 131.888L89.9793 142.977C88.4041 145.391 89.0845 148.626 91.499 150.201Z" fill="#18293A"/>
<path d="M48.2982 32.0142L64.6802 42.7017C67.0947 44.2769 70.3291 43.5965 71.9043 41.1819L86.4493 18.8869C88.0245 16.4724 87.3441 13.2381 84.9296 11.6629L68.5475 0.975394C66.133 -0.599821 62.8987 0.0805771 61.3235 2.49511L46.7784 24.7901C45.2032 27.2046 45.8836 30.439 48.2982 32.0142Z" fill="#18293A"/>
<path d="M58.4938 42.7992L65.8054 47.5693C68.2199 49.1445 71.4542 48.4641 73.0295 46.0496L80.2637 34.9607C81.8389 32.5461 81.1585 29.3118 78.744 27.7366L71.4324 22.9666C69.0178 21.3914 65.7835 22.0718 64.2083 24.4863L56.974 35.5752C55.3988 37.9897 56.0792 41.224 58.4938 42.7992Z" fill="#18293A"/>
<path d="M60.5084 56.223L67.82 60.993C70.2345 62.5682 73.4689 61.8878 75.0441 59.4733L82.2784 48.3844C83.8536 45.9699 83.1732 42.7356 80.7586 41.1603L73.447 36.3903C71.0325 34.8151 67.7982 35.4955 66.2229 37.91L58.9887 48.9989C57.4135 51.4134 58.0939 54.6478 60.5084 56.223Z" fill="#18293A"/>
<path d="M62.523 69.6467L69.8347 74.4168C72.2492 75.992 75.4835 75.3116 77.0587 72.8971L84.293 61.8082C85.8682 59.3937 85.1878 56.1593 82.7733 54.5841L75.4617 49.8141C73.0471 48.2389 69.8128 48.9193 68.2376 51.3338L61.0033 62.4227C59.4281 64.8372 60.1085 68.0715 62.523 69.6467Z" fill="#18293A"/>
<path d="M64.5377 83.0705L71.8493 87.8405C74.2638 89.4157 77.4982 88.7353 79.0734 86.3208L86.3076 75.2319C87.8829 72.8174 87.2025 69.5831 84.7879 68.0078L77.4763 63.2378C75.0618 61.6626 71.8274 62.343 70.2522 64.7575L63.018 75.8464C61.4428 78.2609 62.1232 81.4953 64.5377 83.0705Z" fill="#18293A"/>
<path d="M66.5385 96.4972L73.8501 101.267C76.2646 102.842 79.499 102.162 81.0742 99.7475L88.3085 88.6586C89.8837 86.2441 89.2033 83.0097 86.7887 81.4345L79.4771 76.6645C77.0626 75.0893 73.8283 75.7697 72.253 78.1842L65.0188 89.2731C63.4436 91.6876 64.124 94.9219 66.5385 96.4972Z" fill="#18293A"/>
<path d="M68.5531 109.921L75.8648 114.691C78.2793 116.266 81.5136 115.586 83.0888 113.171L90.3231 102.082C91.8983 99.6678 91.2179 96.4335 88.8034 94.8582L81.4918 90.0882C79.0772 88.513 75.8429 89.1934 74.2677 91.6079L67.0334 102.697C65.4582 105.111 66.1386 108.346 68.5531 109.921Z" fill="#18293A"/>
<path d="M70.5578 123.345L77.8694 128.115C80.2839 129.69 83.5183 129.009 85.0935 126.595L92.3277 115.506C93.903 113.092 93.2226 109.857 90.808 108.282L83.4964 103.512C81.0819 101.937 77.8475 102.617 76.2723 105.032L69.0381 116.121C67.4629 118.535 68.1433 121.769 70.5578 123.345Z" fill="#18293A"/>
<path d="M72.567 136.777L79.8786 141.547C82.2931 143.122 85.5274 142.442 87.1027 140.027L94.3369 128.938C95.9121 126.524 95.2317 123.289 92.8172 121.714L85.5056 116.944C83.0911 115.369 79.8567 116.049 78.2815 118.464L71.0473 129.553C69.472 131.967 70.1524 135.202 72.567 136.777Z" fill="#18293A"/>
<path d="M74.5816 150.2L81.8932 154.971C84.3078 156.546 87.5421 155.865 89.1173 153.451L96.3516 142.362C97.9268 139.947 97.2464 136.713 94.8319 135.138L87.5202 130.368C85.1057 128.793 81.8714 129.473 80.2962 131.888L73.0619 142.976C71.4867 145.391 72.1671 148.625 74.5816 150.2Z" fill="#18293A"/>
<path d="M30.0816 30.5704L45.4084 40.5695C47.8229 42.1447 51.0572 41.4643 52.6325 39.0497L66.3251 18.0613C67.9003 15.6467 67.2199 12.4124 64.8054 10.8372L49.4786 0.83819C47.0641 -0.737025 43.8298 -0.0566273 42.2545 2.3579L28.5619 23.3464C26.9867 25.7609 27.6671 28.9952 30.0816 30.5704Z" fill="#18293A"/>
<path d="M41.5764 42.7988L48.888 47.5688C51.3025 49.144 54.5369 48.4636 56.1121 46.0491L63.3463 34.9602C64.9215 32.5457 64.2411 29.3113 61.8266 27.7361L54.515 22.9661C52.1005 21.3909 48.8661 22.0713 47.2909 24.4858L40.0567 35.5747C38.4814 37.9892 39.1618 41.2235 41.5764 42.7988Z" fill="#18293A"/>
<path d="M43.591 56.2225L50.9026 60.9925C53.3172 62.5677 56.5515 61.8873 58.1267 59.4728L65.361 48.3839C66.9362 45.9694 66.2558 42.7351 63.8412 41.1599L56.5296 36.3898C54.1151 34.8146 50.8808 35.495 49.3056 37.9095L42.0713 48.9984C40.4961 51.413 41.1765 54.6473 43.591 56.2225Z" fill="#18293A"/>
<path d="M45.6057 69.6462L52.9173 74.4163C55.3318 75.9915 58.5661 75.3111 60.1413 72.8965L67.3756 61.8077C68.9508 59.3931 68.2704 56.1588 65.8559 54.5836L58.5443 49.8136C56.1297 48.2384 52.8954 48.9188 51.3202 51.3333L44.0859 62.4222C42.5107 64.8367 43.1911 68.071 45.6057 69.6462Z" fill="#18293A"/>
<path d="M47.6203 83.07L54.9319 87.84C57.3464 89.4152 60.5808 88.7348 62.156 86.3203L69.3902 75.2314C70.9655 72.8169 70.2851 69.5826 67.8705 68.0074L60.5589 63.2373C58.1444 61.6621 54.91 62.3425 53.3348 64.7571L46.1006 75.8459C44.5254 78.2605 45.2058 81.4948 47.6203 83.07Z" fill="#18293A"/>
<path d="M49.6295 96.5021L56.9411 101.272C59.3556 102.847 62.59 102.167 64.1652 99.7524L71.3994 88.6635C72.9746 86.249 72.2942 83.0147 69.8797 81.4395L62.5681 76.6694C60.1536 75.0942 56.9192 75.7746 55.344 78.1892L48.1098 89.278C46.5345 91.6926 47.2149 94.9269 49.6295 96.5021Z" fill="#18293A"/>
<path d="M51.6441 109.926L58.9557 114.696C61.3703 116.271 64.6046 115.591 66.1798 113.176L73.4141 102.087C74.9893 99.6728 74.3089 96.4384 71.8944 94.8632L64.5827 90.0932C62.1682 88.518 58.9339 89.1984 57.3587 91.6129L50.1244 102.702C48.5492 105.116 49.2296 108.351 51.6441 109.926Z" fill="#18293A"/>
<path d="M53.6588 123.35L60.9704 128.12C63.3849 129.695 66.6192 129.014 68.1945 126.6L75.4287 115.511C77.0039 113.097 76.3235 109.862 73.909 108.287L66.5974 103.517C64.1829 101.942 60.9485 102.622 59.3733 105.037L52.1391 116.126C50.5638 118.54 51.2442 121.774 53.6588 123.35Z" fill="#18293A"/>
<path d="M55.6596 136.776L62.9712 141.546C65.3857 143.121 68.62 142.441 70.1953 140.027L77.4295 128.938C79.0047 126.523 78.3243 123.289 75.9098 121.714L68.5982 116.944C66.1836 115.368 62.9493 116.049 61.3741 118.463L54.1398 129.552C52.5646 131.967 53.245 135.201 55.6596 136.776Z" fill="#18293A"/>
<path d="M57.6742 150.2L64.9858 154.97C67.4004 156.545 70.6347 155.865 72.2099 153.45L79.4442 142.361C81.0194 139.947 80.339 136.713 77.9245 135.137L70.6128 130.367C68.1983 128.792 64.964 129.473 63.3888 131.887L56.1545 142.976C54.5793 145.39 55.2597 148.625 57.6742 150.2Z" fill="#18293A"/>
<path d="M72.63 116.77H56.63V147.77H72.63V116.77Z" fill="#E36654"/>
<path d="M103.58 136.77H26.68C16.7113 136.77 8.63 144.851 8.63 154.82V305.72C8.63 315.689 16.7113 323.77 26.68 323.77H103.58C113.549 323.77 121.63 315.689 121.63 305.72V154.82C121.63 144.851 113.549 136.77 103.58 136.77Z" fill="#A0DAFF"/>
<path d="M89.03 31.52H39.74C33.1126 31.52 27.74 36.8926 27.74 43.52V113.1C27.74 119.727 33.1126 125.1 39.74 125.1H89.03C95.6574 125.1 101.03 119.727 101.03 113.1V43.52C101.03 36.8926 95.6574 31.52 89.03 31.52Z" fill="#FD9E98"/>
<path d="M28.8971 7.27855L21.5855 12.0486C19.1709 13.6238 18.4905 16.8581 20.0657 19.2727L27.3 30.3615C28.8752 32.7761 32.1095 33.4565 34.5241 31.8812L41.8357 27.1112C44.2502 25.536 44.9306 22.3017 43.3554 19.8871L36.1212 8.79827C34.5459 6.38374 31.3116 5.70334 28.8971 7.27855Z" fill="#18293A"/>
<path d="M28.0172 21.8393L20.7056 26.6093C18.291 28.1845 17.6106 31.4189 19.1859 33.8334L26.4201 44.9223C27.9953 47.3368 31.2297 48.0172 33.6442 46.442L40.9558 41.672C43.3703 40.0967 44.0507 36.8624 42.4755 34.4479L35.2413 23.359C33.6661 20.9445 30.4317 20.2641 28.0172 21.8393Z" fill="#18293A"/>
<path d="M23.7494 36.3829L16.4378 41.1529C14.0232 42.7282 13.3428 45.9625 14.918 48.377L22.1523 59.4659C23.7275 61.8804 26.9618 62.5608 29.3764 60.9856L36.688 56.2156C39.1025 54.6404 39.7829 51.406 38.2077 48.9915L30.9735 37.9026C29.3982 35.4881 26.1639 34.8077 23.7494 36.3829Z" fill="#18293A"/>
<path d="M21.744 49.8092L14.4324 54.5792C12.0179 56.1544 11.3375 59.3888 12.9127 61.8033L20.1469 72.8922C21.7221 75.3067 24.9565 75.9871 27.371 74.4119L34.6826 69.6419C37.0972 68.0666 37.7776 64.8323 36.2023 62.4178L28.9681 51.3289C27.3929 48.9144 24.1585 48.234 21.744 49.8092Z" fill="#18293A"/>
<path d="M19.7387 63.2454L12.427 68.0155C10.0125 69.5907 9.33211 72.825 10.9073 75.2395L18.1416 86.3284C19.7168 88.7429 22.9511 89.4233 25.3657 87.8481L32.6773 83.0781C35.0918 81.5029 35.7722 78.2686 34.197 75.854L26.9627 64.7652C25.3875 62.3506 22.1532 61.6702 19.7387 63.2454Z" fill="#18293A"/>
<path d="M17.7278 76.6633L10.4162 81.4333C8.00168 83.0086 7.32128 86.2429 8.89649 88.6574L16.1308 99.7463C17.706 102.161 20.9403 102.841 23.3548 101.266L30.6664 96.496C33.081 94.9208 33.7614 91.6864 32.1862 89.2719L24.9519 78.183C23.3767 75.7685 20.1424 75.0881 17.7278 76.6633Z" fill="#18293A"/>
<path d="M15.7125 90.0896L8.40086 94.8596C5.98633 96.4348 5.30593 99.6692 6.88114 102.084L14.1154 113.173C15.6906 115.587 18.9249 116.267 21.3395 114.692L28.6511 109.922C31.0656 108.347 31.746 105.113 30.1708 102.698L22.9366 91.6093C21.3613 89.1948 18.127 88.5144 15.7125 90.0896Z" fill="#18293A"/>
<path d="M13.6987 103.521L6.38712 108.291C3.97259 109.867 3.29219 113.101 4.86741 115.515L12.1017 126.604C13.6769 129.019 16.9112 129.699 19.3257 128.124L26.6374 123.354C29.0519 121.779 29.7323 118.544 28.1571 116.13L20.9228 105.041C19.3476 102.626 16.1133 101.946 13.6987 103.521Z" fill="#18293A"/>
<path d="M11.6879 116.949L4.37632 121.719C1.96179 123.294 1.28139 126.529 2.8566 128.943L10.0909 140.032C11.6661 142.447 14.9004 143.127 17.3149 141.552L24.6266 136.782C27.0411 135.207 27.7215 131.972 26.1463 129.558L18.912 118.469C17.3368 116.054 14.1025 115.374 11.6879 116.949Z" fill="#18293A"/>
<path d="M9.68257 130.375L2.37095 135.145C-0.0435816 136.721 -0.723982 139.955 0.851233 142.37L8.0855 153.458C9.66071 155.873 12.895 156.553 15.3096 154.978L22.6212 150.208C25.0357 148.633 25.7161 145.399 24.1409 142.984L16.9066 131.895C15.3314 129.481 12.0971 128.8 9.68257 130.375Z" fill="#18293A"/>
<path d="M86.9302 29.3649L94.2418 34.1349C96.6564 35.7101 99.8907 35.0297 101.466 32.6152L108.7 21.5263C110.275 19.1118 109.595 15.8775 107.18 14.3022L99.8688 9.53222C97.4543 7.95701 94.22 8.63741 92.6448 11.0519L85.4105 22.1408C83.8353 24.5553 84.5157 27.7897 86.9302 29.3649Z" fill="#18293A"/>
<path d="M88.9394 42.797L96.251 47.567C98.6655 49.1423 101.9 48.4619 103.475 46.0473L110.709 34.9585C112.285 32.5439 111.604 29.3096 109.19 27.7344L101.878 22.9644C99.4635 21.3891 96.2292 22.0695 94.6539 24.4841L87.4197 35.5729C85.8445 37.9875 86.5249 41.2218 88.9394 42.797Z" fill="#18293A"/>
<path d="M93.2012 56.2159L100.513 60.9859C102.927 62.5611 106.162 61.8807 107.737 59.4662L114.971 48.3773C116.546 45.9628 115.866 42.7285 113.451 41.1533L106.14 36.3832C103.725 34.808 100.491 35.4884 98.9158 37.903L91.6815 48.9918C90.1063 51.4064 90.7867 54.6407 93.2012 56.2159Z" fill="#18293A"/>
<path d="M95.2159 69.6396L102.527 74.4097C104.942 75.9849 108.176 75.3045 109.752 72.8899L116.986 61.8011C118.561 59.3865 117.881 56.1522 115.466 54.577L108.154 49.807C105.74 48.2318 102.506 48.9122 100.93 51.3267L93.6962 62.4156C92.1209 64.8301 92.8013 68.0644 95.2159 69.6396Z" fill="#18293A"/>
<path d="M97.2305 83.0634L104.542 87.8334C106.957 89.4086 110.191 88.7282 111.766 86.3137L119 75.2248C120.576 72.8103 119.895 69.576 117.481 68.0008L110.169 63.2307C107.755 61.6555 104.52 62.3359 102.945 64.7505L95.7108 75.8393C94.1356 78.2539 94.816 81.4882 97.2305 83.0634Z" fill="#18293A"/>
<path d="M99.2397 96.4955L106.551 101.266C108.966 102.841 112.2 102.16 113.775 99.7458L121.01 88.657C122.585 86.2424 121.904 83.0081 119.49 81.4329L112.178 76.6629C109.764 75.0877 106.529 75.7681 104.954 78.1826L97.72 89.2715C96.1448 91.686 96.8252 94.9203 99.2397 96.4955Z" fill="#18293A"/>
<path d="M101.254 109.929L108.566 114.699C110.98 116.274 114.215 115.594 115.79 113.18L123.024 102.091C124.6 99.6762 123.919 96.4418 121.505 94.8666L114.193 90.0966C111.778 88.5214 108.544 89.2018 106.969 91.6163L99.7346 102.705C98.1594 105.12 98.8398 108.354 101.254 109.929Z" fill="#18293A"/>
<path d="M103.269 123.353L110.581 128.123C112.995 129.698 116.229 129.018 117.805 126.603L125.039 115.514C126.614 113.1 125.934 109.866 123.519 108.29L116.208 103.52C113.793 101.945 110.559 102.626 108.984 105.04L101.749 116.129C100.174 118.543 100.854 121.778 103.269 123.353Z" fill="#18293A"/>
<path d="M105.278 136.785L112.59 141.555C115.004 143.13 118.239 142.45 119.814 140.035L127.048 128.947C128.623 126.532 127.943 123.298 125.528 121.723L118.217 116.952C115.802 115.377 112.568 116.058 110.993 118.472L103.758 129.561C102.183 131.976 102.864 135.21 105.278 136.785Z" fill="#18293A"/>
<path d="M107.283 150.209L114.594 154.979C117.009 156.554 120.243 155.874 121.819 153.459L129.053 142.37C130.628 139.956 129.948 136.721 127.533 135.146L120.221 130.376C117.807 128.801 114.573 129.481 112.997 131.896L105.763 142.985C104.188 145.399 104.868 148.634 107.283 150.209Z" fill="#18293A"/>
<path d="M41.23 36.75C41.23 36.75 48.69 32.06 64.14 32.06C79.59 32.06 88.31 36.75 88.31 36.75L93.12 30.39L80.19 21.59L45.77 22.5L36.55 30.55L41.23 36.75Z" fill="#18293A"/>
<path d="M49.16 79.43C55.3843 79.43 60.43 74.3843 60.43 68.16C60.43 61.9358 55.3843 56.89 49.16 56.89C42.9358 56.89 37.89 61.9358 37.89 68.16C37.89 74.3843 42.9358 79.43 49.16 79.43Z" fill="white"/>
<path d="M79.6 79.43C85.8242 79.43 90.87 74.3843 90.87 68.16C90.87 61.9358 85.8242 56.89 79.6 56.89C73.3757 56.89 68.33 61.9358 68.33 68.16C68.33 74.3843 73.3757 79.43 79.6 79.43Z" fill="white"/>
<path d="M45.1 74.8C47.9001 74.8 50.17 72.5301 50.17 69.73C50.17 66.9299 47.9001 64.66 45.1 64.66C42.2999 64.66 40.03 66.9299 40.03 69.73C40.03 72.5301 42.2999 74.8 45.1 74.8Z" fill="black"/>
<path d="M75.55 75.36C78.3501 75.36 80.62 73.0901 80.62 70.29C80.62 67.4899 78.3501 65.22 75.55 65.22C72.7499 65.22 70.48 67.4899 70.48 70.29C70.48 73.0901 72.7499 75.36 75.55 75.36Z" fill="black"/>
<path d="M59.72 64.22H38.59C40.19 59.95 44.32 56.89 49.15 56.89C53.98 56.89 58.11 59.95 59.71 64.22H59.72Z" fill="#E36654"/>
<path d="M90.16 64.22H69.03C70.63 59.95 74.76 56.89 79.59 56.89C84.42 56.89 88.55 59.95 90.15 64.22H90.16Z" fill="#E36654"/>
<path d="M69.45 82.99C69.45 86.32 67.31 89.02 64.67 89.02C62.03 89.02 59.89 86.32 59.89 82.99C59.89 79.66 62.03 70.94 64.67 70.94C67.31 70.94 69.45 79.67 69.45 82.99Z" fill="#E36654"/>
<path d="M65.36 99.01C60.36 99.01 55.5 97.05 52.62 94.55C52.2 94.19 52.16 93.56 52.52 93.14C52.88 92.72 53.52 92.68 53.93 93.04C58.36 96.87 67.95 99.3 74.45 93.89C74.87 93.54 75.5 93.59 75.86 94.02C76.21 94.44 76.16 95.07 75.73 95.43C72.65 97.99 68.97 99.01 65.36 99.01Z" fill="#E36654"/>
<path d="M56.17 50.69H44.39C43.2854 50.69 42.39 51.5854 42.39 52.69V53.2C42.39 54.3046 43.2854 55.2 44.39 55.2H56.17C57.2746 55.2 58.17 54.3046 58.17 53.2V52.69C58.17 51.5854 57.2746 50.69 56.17 50.69Z" fill="#10193A"/>
<path d="M84.36 50.69H72.58C71.4754 50.69 70.58 51.5854 70.58 52.69V53.2C70.58 54.3046 71.4754 55.2 72.58 55.2H84.36C85.4646 55.2 86.36 54.3046 86.36 53.2V52.69C86.36 51.5854 85.4646 50.69 84.36 50.69Z" fill="#10193A"/>
<path d="M84.67 86.7C74.45 86.7 66.13 78.38 66.13 68.16C66.13 57.94 74.45 49.62 84.67 49.62C94.89 49.62 103.21 57.94 103.21 68.16C103.21 78.38 94.89 86.7 84.67 86.7ZM84.67 50.62C75 50.62 67.13 58.49 67.13 68.16C67.13 77.83 75 85.7 84.67 85.7C94.34 85.7 102.21 77.83 102.21 68.16C102.21 58.49 94.34 50.62 84.67 50.62Z" fill="#F6BFCA"/>
<path d="M45.21 86.7C34.99 86.7 26.67 78.38 26.67 68.16C26.67 57.94 34.99 49.62 45.21 49.62C55.43 49.62 63.75 57.94 63.75 68.16C63.75 78.38 55.43 86.7 45.21 86.7ZM45.21 50.62C35.54 50.62 27.67 58.49 27.67 68.16C27.67 77.83 35.54 85.7 45.21 85.7C54.88 85.7 62.75 77.83 62.75 68.16C62.75 58.49 54.88 50.62 45.21 50.62Z" fill="#F6BFCA"/>
<path d="M66.63 67.66H63.25V68.66H66.63V67.66Z" fill="#F6BFCA"/>
<path d="M64.63 144.77C69.0483 144.77 72.63 141.188 72.63 136.77C72.63 132.352 69.0483 128.77 64.63 128.77C60.2117 128.77 56.63 132.352 56.63 136.77C56.63 141.188 60.2117 144.77 64.63 144.77Z" fill="#E36654"/>
</g>
<defs>
<clipPath id="clip0_58_3864">
<rect width="129.89" height="323.77" fill="white"/>
</clipPath>
</defs>
</svg>
