<svg width="142" height="287" viewBox="0 0 142 287" fill="none" xmlns="http://www.w3.org/2000/svg">
<g clip-path="url(#clip0_58_3871)">
<path d="M124.201 10.1527C130.078 10.1527 134.875 14.9588 134.875 20.8263V117.764C134.875 123.641 130.069 128.437 124.201 128.437C118.324 128.437 113.527 123.631 113.527 117.764C113.527 123.641 108.721 128.437 102.854 128.437C96.9764 128.437 92.1802 123.631 92.1802 117.764C92.1802 123.641 87.3741 128.437 81.5066 128.437C75.6292 128.437 70.8329 123.631 70.8329 117.764C70.8329 123.641 66.0269 128.437 60.1593 128.437C54.282 128.437 49.4857 123.631 49.4857 117.764C49.4857 123.641 44.6796 128.437 38.8121 128.437C32.9347 128.437 28.1385 123.631 28.1385 117.764C28.1385 123.641 23.3324 128.437 17.4649 128.437C11.5875 128.437 6.79126 123.631 6.79126 117.764V20.8362C6.79126 14.9588 11.5973 10.1625 17.4649 10.1625H124.201V10.1527Z" fill="#18293A"/>
<path d="M81.8112 55.3633H60.1888C54.2179 55.3633 49.3776 60.2036 49.3776 66.1745V117.282C49.3776 123.253 54.2179 128.093 60.1888 128.093H81.8112C87.7821 128.093 92.6224 123.253 92.6224 117.282V66.1745C92.6224 60.2036 87.7821 55.3633 81.8112 55.3633Z" fill="#A84C51"/>
<path d="M120.142 29.8094H21.8581C15.8873 29.8094 11.0469 34.6498 11.0469 40.6207V91.7282C11.0469 97.6991 15.8873 102.539 21.8581 102.539H120.142C126.113 102.539 130.953 97.6991 130.953 91.7282V40.6207C130.953 34.6498 126.113 29.8094 120.142 29.8094Z" fill="#A84C51"/>
<path d="M108.112 118.265H33.8881C21.2733 118.265 11.0469 128.491 11.0469 141.106V263.489C11.0469 276.104 21.2733 286.33 33.8881 286.33H108.112C120.727 286.33 130.953 276.104 130.953 263.489V141.106C130.953 128.491 120.727 118.265 108.112 118.265Z" fill="#A4A4FC"/>
<path d="M83.7769 75.02C90.8334 75.02 96.5538 69.2996 96.5538 62.2431C96.5538 55.1866 90.8334 49.4662 83.7769 49.4662C76.7204 49.4662 71 55.1866 71 62.2431C71 69.2996 76.7204 75.02 83.7769 75.02Z" fill="white"/>
<path d="M57.7317 75.02C64.7882 75.02 70.5086 69.2996 70.5086 62.2431C70.5086 55.1866 64.7882 49.4662 57.7317 49.4662C50.6752 49.4662 44.9548 55.1866 44.9548 62.2431C44.9548 69.2996 50.6752 75.02 57.7317 75.02Z" fill="white"/>
<path d="M83.7769 68.1401C85.9481 68.1401 87.7082 66.38 87.7082 64.2088C87.7082 62.0376 85.9481 60.2774 83.7769 60.2774C81.6056 60.2774 79.8455 62.0376 79.8455 64.2088C79.8455 66.38 81.6056 68.1401 83.7769 68.1401Z" fill="black"/>
<path d="M57.7317 68.1401C59.9029 68.1401 61.6631 66.38 61.6631 64.2088C61.6631 62.0376 59.9029 60.2774 57.7317 60.2774C55.5605 60.2774 53.8004 62.0376 53.8004 64.2088C53.8004 66.38 55.5605 68.1401 57.7317 68.1401Z" fill="black"/>
<path d="M97.5366 46.5177H44.4634V62.2431H97.5366V46.5177Z" fill="#A84C51"/>
<path d="M78.902 77.9685H61.1323C58.44 77.9685 56.2574 80.1511 56.2574 82.8434V103.562C56.2574 106.254 58.44 108.436 61.1323 108.436H78.902C81.5943 108.436 83.7769 106.254 83.7769 103.562V82.8434C83.7769 80.1511 81.5943 77.9685 78.902 77.9685Z" fill="#18293A"/>
<path d="M77.8799 75.02C77.8799 79.3641 74.3613 82.8827 70.0172 82.8827C65.673 82.8827 62.1545 79.3641 62.1545 75.02C62.1545 70.6759 65.673 47.5005 70.0172 47.5005C74.3613 47.5005 77.8799 70.6759 77.8799 75.02Z" fill="#752929"/>
<path d="M96.4457 52.2083H77.0052C74.7742 52.2083 72.9657 54.0146 72.9657 56.2429C72.9657 58.4711 74.7742 60.2774 77.0052 60.2774H96.4457C98.6766 60.2774 100.485 58.4711 100.485 56.2429C100.485 54.0146 98.6766 52.2083 96.4457 52.2083Z" fill="#18293A"/>
<path d="M64.9949 47.5005H45.5544C43.3234 47.5005 41.5149 49.3069 41.5149 51.5351C41.5149 53.7633 43.3234 55.5696 45.5544 55.5696H64.9949C67.2258 55.5696 69.0343 53.7633 69.0343 51.5351C69.0343 49.3069 67.2258 47.5005 64.9949 47.5005Z" fill="#18293A"/>
<path d="M130.953 79.9342C136.924 79.9342 141.764 75.0938 141.764 69.123C141.764 63.1521 136.924 58.3118 130.953 58.3118C124.982 58.3118 120.142 63.1521 120.142 69.123C120.142 75.0938 124.982 79.9342 130.953 79.9342Z" fill="#752929"/>
<path d="M11.0469 79.9342C17.0178 79.9342 21.8581 75.0938 21.8581 69.123C21.8581 63.1521 17.0178 58.3118 11.0469 58.3118C5.07606 58.3118 0.235718 63.1521 0.235718 69.123C0.235718 75.0938 5.07606 79.9342 11.0469 79.9342Z" fill="#752929"/>
<path d="M17.7696 12.1184H17.7597C11.8811 12.1184 7.1156 16.8839 7.1156 22.7625V62.4102C7.1156 68.2887 11.8811 73.0543 17.7597 73.0543H17.7696C23.6481 73.0543 28.4137 68.2887 28.4137 62.4102V22.7625C28.4137 16.8839 23.6481 12.1184 17.7696 12.1184Z" fill="#18293A"/>
<path d="M39.0677 12.1184H39.0578C33.1792 12.1184 28.4137 16.8839 28.4137 22.7625V40.7877C28.4137 46.6663 33.1792 51.4319 39.0578 51.4319H39.0677C44.9462 51.4319 49.7118 46.6663 49.7118 40.7877V22.7625C49.7118 16.8839 44.9462 12.1184 39.0677 12.1184Z" fill="#18293A"/>
<path d="M60.3558 12.1184H60.346C54.4674 12.1184 49.7018 16.8839 49.7018 22.7625V31.9422C49.7018 37.8208 54.4674 42.5863 60.346 42.5863H60.3558C66.2344 42.5863 70.9999 37.8208 70.9999 31.9422V22.7625C70.9999 16.8839 66.2344 12.1184 60.3558 12.1184Z" fill="#18293A"/>
<path d="M81.654 12.1184H81.6441C75.7655 12.1184 71 16.8839 71 22.7625V31.9422C71 37.8208 75.7655 42.5863 81.6441 42.5863H81.654C87.5325 42.5863 92.2981 37.8208 92.2981 31.9422V22.7625C92.2981 16.8839 87.5325 12.1184 81.654 12.1184Z" fill="#18293A"/>
<path d="M71.3243 10.6441V10.6539C71.3243 16.5325 76.0898 21.2981 81.9684 21.2981L102.618 21.2981C108.496 21.2981 113.262 16.5325 113.262 10.6539V10.6441C113.262 4.76552 108.496 -1.71661e-05 102.618 -1.71661e-05L81.9684 -1.71661e-05C76.0898 -1.71661e-05 71.3243 4.76552 71.3243 10.6441Z" fill="#18293A"/>
<path d="M29.0623 10.6441V10.6539C29.0623 16.5325 33.8279 21.2981 39.7064 21.2981L60.3559 21.2981C66.2344 21.2981 71 16.5325 71 10.6539V10.6441C71 4.76552 66.2344 -1.71661e-05 60.3559 -1.71661e-05L39.7064 -1.71661e-05C33.8279 -1.71661e-05 29.0623 4.76552 29.0623 10.6441Z" fill="#18293A"/>
<path d="M102.952 12.1184H102.942C97.0636 12.1184 92.2981 16.8839 92.2981 22.7625V40.7877C92.2981 46.6663 97.0636 51.4319 102.942 51.4319H102.952C108.831 51.4319 113.596 46.6663 113.596 40.7877V22.7625C113.596 16.8839 108.831 12.1184 102.952 12.1184Z" fill="#18293A"/>
<path d="M124.24 12.1184H124.23C118.352 12.1184 113.586 16.8839 113.586 22.7625V62.4102C113.586 68.2887 118.352 73.0543 124.23 73.0543H124.24C130.119 73.0543 134.884 68.2887 134.884 62.4102V22.7625C134.884 16.8839 130.119 12.1184 124.24 12.1184Z" fill="#18293A"/>
<path d="M74.9313 88.7797C74.9313 91.4924 72.7298 93.6939 70.0172 93.6939C67.3045 93.6939 65.103 91.4924 65.103 88.7797" fill="white"/>
<path d="M53.8004 118.265L130.766 195.231L130.953 206.759L42.2914 118.098L53.8004 118.265Z" fill="#19224D"/>
<path d="M42.2913 118.098L130.953 206.759V217.286L32.0206 118.353L42.2913 118.098Z" fill="#FF73BA"/>
</g>
<defs>
<clipPath id="clip0_58_3871">
<rect width="141.529" height="286.33" fill="white" transform="translate(0.235718)"/>
</clipPath>
</defs>
</svg>
