<svg width="168" height="316" viewBox="0 0 168 316" fill="none" xmlns="http://www.w3.org/2000/svg">
<g clip-path="url(#clip0_58_3866)">
<path d="M168 83.41C168 118.37 123.86 130.14 84 130.14C44.14 130.14 0 118.37 0 83.41C0 48.45 44.14 0 84 0C123.86 0 168 48.45 168 83.41Z" fill="#FEA2E1"/>
<path d="M98 111.07H72.11V156.07H98V111.07Z" fill="#752929"/>
<path d="M85.05 124.23C113.802 124.23 137.11 100.922 137.11 72.17C137.11 43.418 113.802 20.11 85.05 20.11C56.298 20.11 32.99 43.418 32.99 72.17C32.99 100.922 56.298 124.23 85.05 124.23Z" fill="#A84C51"/>
<path d="M31.81 50.78C31.81 50.78 80.01 54.15 100.94 22.93C100.94 22.93 110.73 51.43 137.01 60.06L136.07 37.47L107.68 15.37L82.26 8.32001L48.52 15.37L28.01 34.15L31.82 50.77L31.81 50.78Z" fill="#FEA2E1"/>
<path d="M67.44 75.72C73.3218 75.72 78.09 70.9518 78.09 65.07C78.09 59.1882 73.3218 54.42 67.44 54.42C61.5581 54.42 56.79 59.1882 56.79 65.07C56.79 70.9518 61.5581 75.72 67.44 75.72Z" fill="white"/>
<path d="M102.93 75.72C108.812 75.72 113.58 70.9518 113.58 65.07C113.58 59.1882 108.812 54.42 102.93 54.42C97.0482 54.42 92.28 59.1882 92.28 65.07C92.28 70.9518 97.0482 75.72 102.93 75.72Z" fill="white"/>
<path d="M70.54 71.43C72.7712 71.43 74.58 69.6212 74.58 67.39C74.58 65.1588 72.7712 63.35 70.54 63.35C68.3088 63.35 66.5 65.1588 66.5 67.39C66.5 69.6212 68.3088 71.43 70.54 71.43Z" fill="black"/>
<path d="M106.54 71.43C108.771 71.43 110.58 69.6212 110.58 67.39C110.58 65.1588 108.771 63.35 106.54 63.35C104.309 63.35 102.5 65.1588 102.5 67.39C102.5 69.6212 104.309 71.43 106.54 71.43Z" fill="black"/>
<mask id="mask0_58_3866" style="mask-type:luminance" maskUnits="userSpaceOnUse" x="56" y="54" width="23" height="22">
<path d="M67.44 75.72C73.3218 75.72 78.09 70.9518 78.09 65.07C78.09 59.1882 73.3218 54.42 67.44 54.42C61.5581 54.42 56.79 59.1882 56.79 65.07C56.79 70.9518 61.5581 75.72 67.44 75.72Z" fill="white"/>
</mask>
<g mask="url(#mask0_58_3866)">
<path d="M79.62 46.44H50.87V58.57H79.62V46.44Z" fill="#752929"/>
</g>
<mask id="mask1_58_3866" style="mask-type:luminance" maskUnits="userSpaceOnUse" x="92" y="54" width="22" height="22">
<path d="M102.93 75.72C108.812 75.72 113.58 70.9518 113.58 65.07C113.58 59.1882 108.812 54.42 102.93 54.42C97.0482 54.42 92.28 59.1882 92.28 65.07C92.28 70.9518 97.0482 75.72 102.93 75.72Z" fill="white"/>
</mask>
<g mask="url(#mask1_58_3866)">
<path d="M115.12 46.44H89.92V58.57H115.12V46.44Z" fill="#752929"/>
</g>
<path d="M31.55 83.07C37.6251 83.07 42.55 78.1451 42.55 72.07C42.55 65.9949 37.6251 61.07 31.55 61.07C25.4749 61.07 20.55 65.9949 20.55 72.07C20.55 78.1451 25.4749 83.07 31.55 83.07Z" fill="#A84C51"/>
<path d="M138.55 83.07C144.625 83.07 149.55 78.1451 149.55 72.07C149.55 65.9949 144.625 61.07 138.55 61.07C132.475 61.07 127.55 65.9949 127.55 72.07C127.55 78.1451 132.475 83.07 138.55 83.07Z" fill="#A84C51"/>
<path d="M88.17 78.51C88.17 80.74 86.36 82.55 84.13 82.55C81.9 82.55 80.09 80.74 80.09 78.51C80.09 76.28 81.9 70.42 84.13 70.42C86.36 70.42 88.17 76.27 88.17 78.51Z" fill="#752929"/>
<path d="M120.45 70.71C120.31 70.71 120.16 70.68 120.02 70.61L115.87 68.64C115.54 68.48 115.33 68.16 115.3 67.8C115.28 67.44 115.45 67.09 115.76 66.89L119.91 64.23C120.37 63.93 120.99 64.07 121.29 64.53C121.59 64.99 121.45 65.61 120.99 65.91L118.36 67.6L120.88 68.8C121.38 69.04 121.59 69.63 121.35 70.13C121.18 70.49 120.82 70.7 120.45 70.7V70.71Z" fill="#752929"/>
<path d="M47.68 70.71C47.31 70.71 46.95 70.5 46.78 70.14C46.54 69.64 46.76 69.04 47.25 68.81L49.77 67.61L47.14 65.92C46.68 65.62 46.54 65 46.84 64.54C47.14 64.07 47.76 63.94 48.22 64.24L52.37 66.9C52.68 67.1 52.85 67.44 52.83 67.81C52.81 68.17 52.59 68.49 52.26 68.65L48.11 70.62C47.97 70.69 47.82 70.72 47.68 70.72V70.71Z" fill="#752929"/>
<path d="M107.35 46.73H99.7C98.8716 46.73 98.2 47.4016 98.2 48.23V48.78C98.2 49.6084 98.8716 50.28 99.7 50.28H107.35C108.178 50.28 108.85 49.6084 108.85 48.78V48.23C108.85 47.4016 108.178 46.73 107.35 46.73Z" fill="#AD5317"/>
<path d="M69.49 46.73H61.84C61.0116 46.73 60.34 47.4016 60.34 48.23V48.78C60.34 49.6084 61.0116 50.28 61.84 50.28H69.49C70.3185 50.28 70.99 49.6084 70.99 48.78V48.23C70.99 47.4016 70.3185 46.73 69.49 46.73Z" fill="#AD5317"/>
<path d="M81.65 97.03C78.52 97.03 75.47 94.72 74.01 91.23C73.8 90.72 74.04 90.13 74.55 89.92C75.06 89.71 75.65 89.95 75.86 90.46C77.21 93.69 79.89 95.1 81.8 95.03C83.37 94.98 84.56 94.01 85.14 92.3C85.32 91.78 85.89 91.5 86.41 91.68C86.93 91.86 87.21 92.43 87.03 92.95C86.17 95.46 84.29 96.95 81.87 97.04C81.8 97.04 81.73 97.04 81.66 97.04L81.65 97.03Z" fill="#752929"/>
<path d="M68 79.57C60 79.57 53.5 73.07 53.5 65.07C53.5 57.07 60 50.57 68 50.57C76 50.57 82.5 57.07 82.5 65.07C82.5 73.07 76 79.57 68 79.57ZM68 51.57C60.56 51.57 54.5 57.63 54.5 65.07C54.5 72.51 60.56 78.57 68 78.57C75.44 78.57 81.5 72.51 81.5 65.07C81.5 57.63 75.44 51.57 68 51.57Z" fill="#10193A"/>
<path d="M103.5 80.07C95.5 80.07 89 73.57 89 65.57C89 57.57 95.5 51.07 103.5 51.07C111.5 51.07 118 57.57 118 65.57C118 73.57 111.5 80.07 103.5 80.07ZM103.5 52.07C96.06 52.07 90 58.13 90 65.57C90 73.01 96.06 79.07 103.5 79.07C110.94 79.07 117 73.01 117 65.57C117 58.13 110.94 52.07 103.5 52.07Z" fill="#10193A"/>
<path d="M90.25 60.88H81.51V61.88H90.25V60.88Z" fill="#10193A"/>
<path d="M85 146.07C92.1797 146.07 98 141.817 98 136.57C98 131.323 92.1797 127.07 85 127.07C77.8203 127.07 72 131.323 72 136.57C72 141.817 77.8203 146.07 85 146.07Z" fill="#752929"/>
<path d="M150.44 136.07H20.06C12.0187 136.07 5.5 142.589 5.5 150.63V300.51C5.5 308.551 12.0187 315.07 20.06 315.07H150.44C158.481 315.07 165 308.551 165 300.51V150.63C165 142.589 158.481 136.07 150.44 136.07Z" fill="#FF73BA"/>
</g>
<defs>
<clipPath id="clip0_58_3866">
<rect width="168" height="315.07" fill="white"/>
</clipPath>
</defs>
</svg>
