<svg width="242" height="316" viewBox="0 0 242 316" fill="none" xmlns="http://www.w3.org/2000/svg">
<g clip-path="url(#clip0_58_3620)" filter="url(#filter0_d_58_3620)">
<path d="M96.5291 0H145.462C156.501 0 165.462 8.96015 165.462 19.9997V99.82C165.462 111.725 155.796 121.39 143.891 121.39H98.0998C86.1946 121.39 76.5294 111.725 76.5294 99.82V19.9997C76.5294 8.96015 85.4896 0 96.5291 0Z" fill="#FD9E98"/>
<path d="M99.8223 79.0528C106.841 79.0528 112.531 73.363 112.531 66.3444C112.531 59.3257 106.841 53.636 99.8223 53.636C92.8036 53.636 87.1139 59.3257 87.1139 66.3444C87.1139 73.363 92.8036 79.0528 99.8223 79.0528Z" fill="white"/>
<path d="M142.178 79.0528C149.196 79.0528 154.886 73.363 154.886 66.3444C154.886 59.3257 149.196 53.636 142.178 53.636C135.159 53.636 129.469 59.3257 129.469 66.3444C129.469 73.363 135.159 79.0528 142.178 79.0528Z" fill="white"/>
<path d="M99.858 72.7343C102.52 72.7343 104.677 70.5767 104.677 67.9151C104.677 65.2535 102.52 63.0959 99.858 63.0959C97.1964 63.0959 95.0388 65.2535 95.0388 67.9151C95.0388 70.5767 97.1964 72.7343 99.858 72.7343Z" fill="black"/>
<path d="M141.848 72.7343C144.509 72.7343 146.667 70.5767 146.667 67.9151C146.667 65.2535 144.509 63.0959 141.848 63.0959C139.186 63.0959 137.028 65.2535 137.028 67.9151C137.028 70.5767 139.186 72.7343 141.848 72.7343Z" fill="black"/>
<mask id="mask0_58_3620" style="mask-type:luminance" maskUnits="userSpaceOnUse" x="87" y="53" width="26" height="27">
<path d="M99.8223 79.0528C106.841 79.0528 112.531 73.363 112.531 66.3444C112.531 59.3257 106.841 53.636 99.8223 53.636C92.8036 53.636 87.1139 59.3257 87.1139 66.3444C87.1139 73.363 92.8036 79.0528 99.8223 79.0528Z" fill="white"/>
</mask>
<g mask="url(#mask0_58_3620)">
<path d="M118.251 71.2885H83.9457V92.8143H118.251V71.2885Z" fill="#E36654"/>
<path d="M118.251 43.0516H83.9457V64.5773H118.251V43.0516Z" fill="#E36654"/>
</g>
<mask id="mask1_58_3620" style="mask-type:luminance" maskUnits="userSpaceOnUse" x="129" y="53" width="26" height="27">
<path d="M142.178 79.0528C149.196 79.0528 154.886 73.363 154.886 66.3444C154.886 59.3257 149.196 53.636 142.178 53.636C135.159 53.636 129.469 59.3257 129.469 66.3444C129.469 73.363 135.159 79.0528 142.178 79.0528Z" fill="white"/>
</mask>
<g mask="url(#mask1_58_3620)">
<path d="M157.064 70.5746H126.997V89.2802H157.064V70.5746Z" fill="#E36654"/>
<path d="M157.064 45.8717H126.997V64.5774H157.064V45.8717Z" fill="#E36654"/>
</g>
<path d="M155.627 10.6112C155.386 10.6112 155.145 10.513 154.966 10.3256C151.307 6.35419 143.784 6.25602 143.704 6.25602H135.252C134.761 6.25602 134.36 5.85442 134.36 5.36358C134.36 4.87273 134.761 4.47113 135.252 4.47113H143.713C144.061 4.47113 152.093 4.57822 156.278 9.11184C156.609 9.47775 156.591 10.04 156.225 10.3702C156.055 10.5308 155.841 10.6022 155.618 10.6022L155.627 10.6112Z" fill="white"/>
<path d="M76.351 75.8668C81.7727 75.8668 86.1678 71.4716 86.1678 66.0499C86.1678 60.6281 81.7727 56.233 76.351 56.233C70.9292 56.233 66.5341 60.6281 66.5341 66.0499C66.5341 71.4716 70.9292 75.8668 76.351 75.8668Z" fill="#FD9E98"/>
<path d="M165.595 75.8668C171.017 75.8668 175.412 71.4716 175.412 66.0499C175.412 60.6281 171.017 56.233 165.595 56.233C160.174 56.233 155.779 60.6281 155.779 66.0499C155.779 71.4716 160.174 75.8668 165.595 75.8668Z" fill="#FD9E98"/>
<path d="M125.819 82.3816C125.819 85.0411 123.659 87.2008 121 87.2008C118.341 87.2008 116.181 85.0411 116.181 82.3816C116.181 79.7221 118.341 72.7343 121 72.7343C123.659 72.7343 125.819 79.7132 125.819 82.3816Z" fill="#E36654"/>
<path d="M118.956 88.9321H110.344C109.605 88.9321 109.006 89.5315 109.006 90.2708V91.8326C109.006 92.5719 109.605 93.1712 110.344 93.1712H118.956C119.696 93.1712 120.295 92.5719 120.295 91.8326V90.2708C120.295 89.5315 119.696 88.9321 118.956 88.9321Z" fill="#18293A"/>
<path d="M131.656 88.9321H123.044C122.304 88.9321 121.705 89.5315 121.705 90.2708V91.8326C121.705 92.5719 122.304 93.1712 123.044 93.1712H131.656C132.395 93.1712 132.994 92.5719 132.994 91.8326V90.2708C132.994 89.5315 132.395 88.9321 131.656 88.9321Z" fill="#18293A"/>
<path d="M114.976 45.131H84.1866C83.4473 45.131 82.848 45.7303 82.848 46.4696V48.0314C82.848 48.7707 83.4473 49.3701 84.1866 49.3701H114.976C115.715 49.3701 116.315 48.7707 116.315 48.0314V46.4696C116.315 45.7303 115.715 45.131 114.976 45.131Z" fill="#18293A"/>
<path d="M157.813 45.131H127.024C126.285 45.131 125.685 45.7303 125.685 46.4696V48.0314C125.685 48.7707 126.285 49.3701 127.024 49.3701H157.813C158.553 49.3701 159.152 48.7707 159.152 48.0314V46.4696C159.152 45.7303 158.553 45.131 157.813 45.131Z" fill="#18293A"/>
<path d="M86.2839 23.2928H71.0231C70.2838 23.2928 69.6844 23.8922 69.6844 24.6315V26.1933C69.6844 26.9326 70.2838 27.532 71.0231 27.532H86.2839C87.0232 27.532 87.6226 26.9326 87.6226 26.1933V24.6315C87.6226 23.8922 87.0232 23.2928 86.2839 23.2928Z" fill="#18293A"/>
<path d="M86.2839 28.9331H71.0231C70.2838 28.9331 69.6844 29.5324 69.6844 30.2718V31.8336C69.6844 32.5729 70.2838 33.1722 71.0231 33.1722H86.2839C87.0232 33.1722 87.6226 32.5729 87.6226 31.8336V30.2718C87.6226 29.5324 87.0232 28.9331 86.2839 28.9331Z" fill="#18293A"/>
<path d="M86.2839 34.5823H71.0231C70.2838 34.5823 69.6844 35.1816 69.6844 35.9209V37.4827C69.6844 38.222 70.2838 38.8214 71.0231 38.8214H86.2839C87.0232 38.8214 87.6226 38.222 87.6226 37.4827V35.9209C87.6226 35.1816 87.0232 34.5823 86.2839 34.5823Z" fill="#18293A"/>
<path d="M170.977 23.2928H155.716C154.977 23.2928 154.378 23.8922 154.378 24.6315V26.1933C154.378 26.9326 154.977 27.532 155.716 27.532H170.977C171.716 27.532 172.316 26.9326 172.316 26.1933V24.6315C172.316 23.8922 171.716 23.2928 170.977 23.2928Z" fill="#18293A"/>
<path d="M170.977 28.9331H155.716C154.977 28.9331 154.378 29.5324 154.378 30.2718V31.8336C154.378 32.5729 154.977 33.1722 155.716 33.1722H170.977C171.716 33.1722 172.316 32.5729 172.316 31.8336V30.2718C172.316 29.5324 171.716 28.9331 170.977 28.9331Z" fill="#18293A"/>
<path d="M170.977 34.5823H155.716C154.977 34.5823 154.378 35.1816 154.378 35.9209V37.4827C154.378 38.222 154.977 38.8214 155.716 38.8214H170.977C171.716 38.8214 172.316 38.222 172.316 37.4827V35.9209C172.316 35.1816 171.716 34.5823 170.977 34.5823Z" fill="#18293A"/>
<path d="M122.374 102.756C118.814 102.756 115.199 100.016 113.521 96.0181C113.334 95.563 113.548 95.0365 114.003 94.849C114.458 94.6616 114.985 94.8758 115.172 95.331C116.6 98.749 119.652 101.105 122.553 100.971C124.561 100.9 126.069 99.6772 126.81 97.5085C126.97 97.0445 127.479 96.7856 127.943 96.9552C128.407 97.1159 128.657 97.6246 128.497 98.0886C127.515 100.962 125.373 102.667 122.615 102.756C122.535 102.756 122.455 102.756 122.383 102.756H122.374Z" fill="#E36654"/>
<path d="M169.835 132.983H72.1654C35.3076 132.983 5.42838 162.862 5.42838 199.72V240.273C5.42838 277.131 35.3076 307.01 72.1654 307.01H169.835C206.692 307.01 236.572 277.131 236.572 240.273V199.72C236.572 162.862 206.692 132.983 169.835 132.983Z" fill="#FD9E98"/>
<path d="M95.4939 133.206V307.01H4.98215V199.72C4.98215 199.72 4.58947 132.983 71.7192 132.983L95.4939 133.206Z" fill="#FF73BA"/>
<path d="M146.881 133.206V307.01H237.018V199.72C237.018 199.72 237.411 132.983 170.557 132.983L146.881 133.206Z" fill="#FF73BA"/>
<path d="M129.907 113.349H112.102V145.477H129.907V113.349Z" fill="#FD9E98"/>
<path d="M104.677 132.983L121.776 155.401L138.956 133.206H146.881V307.01H95.4939V133.206L104.677 132.983Z" fill="#FEA2E1"/>
</g>
<defs>
<filter id="filter0_d_58_3620" x="0.982178" y="0" width="240.036" height="315.01" filterUnits="userSpaceOnUse" color-interpolation-filters="sRGB">
<feFlood flood-opacity="0" result="BackgroundImageFix"/>
<feColorMatrix in="SourceAlpha" type="matrix" values="0 0 0 0 0 0 0 0 0 0 0 0 0 0 0 0 0 0 127 0" result="hardAlpha"/>
<feOffset dy="4"/>
<feGaussianBlur stdDeviation="2"/>
<feComposite in2="hardAlpha" operator="out"/>
<feColorMatrix type="matrix" values="0 0 0 0 0 0 0 0 0 0 0 0 0 0 0 0 0 0 0.25 0"/>
<feBlend mode="normal" in2="BackgroundImageFix" result="effect1_dropShadow_58_3620"/>
<feBlend mode="normal" in="SourceGraphic" in2="effect1_dropShadow_58_3620" result="shape"/>
</filter>
<clipPath id="clip0_58_3620">
<rect width="232.036" height="307.01" fill="white" transform="translate(4.98218)"/>
</clipPath>
</defs>
</svg>
