<svg width="164" height="325" viewBox="0 0 164 325" fill="none" xmlns="http://www.w3.org/2000/svg">
<g clip-path="url(#clip0_58_3867)">
<path d="M82.5 118.69C113.77 118.69 139.12 93.3404 139.12 62.07C139.12 30.7996 113.77 5.45001 82.5 5.45001C51.2296 5.45001 25.88 30.7996 25.88 62.07C25.88 93.3404 51.2296 118.69 82.5 118.69Z" fill="#FF73BA"/>
<path d="M65.87 21.09H99.14C113.71 21.09 125.54 32.92 125.54 47.49V83.79C125.54 101.17 111.43 115.28 94.05 115.28H70.96C53.58 115.28 39.47 101.17 39.47 83.79V47.49C39.47 32.92 51.3 21.09 65.87 21.09Z" fill="#FFC8A2"/>
<path d="M108.75 97.09H54.75V144.54H108.75V97.09Z" fill="#FFC8A2"/>
<path d="M27.01 57.53C30.1359 57.53 32.67 54.9959 32.67 51.87C32.67 48.7441 30.1359 46.21 27.01 46.21C23.884 46.21 21.35 48.7441 21.35 51.87C21.35 54.9959 23.884 57.53 27.01 57.53Z" fill="#FF73BA"/>
<path d="M29.56 48.24C32.686 48.24 35.22 45.7059 35.22 42.58C35.22 39.4541 32.686 36.92 29.56 36.92C26.4341 36.92 23.9 39.4541 23.9 42.58C23.9 45.7059 26.4341 48.24 29.56 48.24Z" fill="#FF73BA"/>
<path d="M33.64 39.52C36.7659 39.52 39.3 36.9859 39.3 33.86C39.3 30.7341 36.7659 28.2 33.64 28.2C30.514 28.2 27.98 30.7341 27.98 33.86C27.98 36.9859 30.514 39.52 33.64 39.52Z" fill="#FF73BA"/>
<path d="M39.16 31.61C42.2859 31.61 44.82 29.0759 44.82 25.95C44.82 22.824 42.2859 20.29 39.16 20.29C36.0341 20.29 33.5 22.824 33.5 25.95C33.5 29.0759 36.0341 31.61 39.16 31.61Z" fill="#FF73BA"/>
<path d="M45.93 24.76C49.056 24.76 51.59 22.2259 51.59 19.1C51.59 15.9741 49.056 13.44 45.93 13.44C42.8041 13.44 40.27 15.9741 40.27 19.1C40.27 22.2259 42.8041 24.76 45.93 24.76Z" fill="#FF73BA"/>
<path d="M53.78 19.17C56.9059 19.17 59.44 16.6359 59.44 13.51C59.44 10.384 56.9059 7.84998 53.78 7.84998C50.6541 7.84998 48.12 10.384 48.12 13.51C48.12 16.6359 50.6541 19.17 53.78 19.17Z" fill="#FF73BA"/>
<path d="M62.46 14.99C65.5859 14.99 68.12 12.4559 68.12 9.32998C68.12 6.20405 65.5859 3.66998 62.46 3.66998C59.3341 3.66998 56.8 6.20405 56.8 9.32998C56.8 12.4559 59.3341 14.99 62.46 14.99Z" fill="#FF73BA"/>
<path d="M71.73 12.35C74.8559 12.35 77.39 9.81596 77.39 6.69003C77.39 3.5641 74.8559 1.03003 71.73 1.03003C68.6041 1.03003 66.07 3.5641 66.07 6.69003C66.07 9.81596 68.6041 12.35 71.73 12.35Z" fill="#FF73BA"/>
<path d="M81.31 11.32C84.436 11.32 86.97 8.78593 86.97 5.66C86.97 2.53407 84.436 0 81.31 0C78.1841 0 75.65 2.53407 75.65 5.66C75.65 8.78593 78.1841 11.32 81.31 11.32Z" fill="#FF73BA"/>
<path d="M90.92 11.94C94.0459 11.94 96.58 9.40593 96.58 6.28C96.58 3.15406 94.0459 0.619995 90.92 0.619995C87.7941 0.619995 85.26 3.15406 85.26 6.28C85.26 9.40593 87.7941 11.94 90.92 11.94Z" fill="#FF73BA"/>
<path d="M100.29 14.19C103.416 14.19 105.95 11.6559 105.95 8.52999C105.95 5.40406 103.416 2.87 100.29 2.87C97.1641 2.87 94.63 5.40406 94.63 8.52999C94.63 11.6559 97.1641 14.19 100.29 14.19Z" fill="#FF73BA"/>
<path d="M109.14 18C112.266 18 114.8 15.4659 114.8 12.34C114.8 9.21406 112.266 6.67999 109.14 6.67999C106.014 6.67999 103.48 9.21406 103.48 12.34C103.48 15.4659 106.014 18 109.14 18Z" fill="#FF73BA"/>
<path d="M117.22 23.26C120.346 23.26 122.88 20.7259 122.88 17.6C122.88 14.4741 120.346 11.94 117.22 11.94C114.094 11.94 111.56 14.4741 111.56 17.6C111.56 20.7259 114.094 23.26 117.22 23.26Z" fill="#FF73BA"/>
<path d="M124.28 29.81C127.406 29.81 129.94 27.2759 129.94 24.15C129.94 21.0241 127.406 18.49 124.28 18.49C121.154 18.49 118.62 21.0241 118.62 24.15C118.62 27.2759 121.154 29.81 124.28 29.81Z" fill="#FF73BA"/>
<path d="M130.12 37.48C133.246 37.48 135.78 34.9459 135.78 31.82C135.78 28.694 133.246 26.16 130.12 26.16C126.994 26.16 124.46 28.694 124.46 31.82C124.46 34.9459 126.994 37.48 130.12 37.48Z" fill="#FF73BA"/>
<path d="M134.57 46.02C137.696 46.02 140.23 43.4859 140.23 40.36C140.23 37.2341 137.696 34.7 134.57 34.7C131.444 34.7 128.91 37.2341 128.91 40.36C128.91 43.4859 131.444 46.02 134.57 46.02Z" fill="#FF73BA"/>
<path d="M137.51 55.2C140.636 55.2 143.17 52.6659 143.17 49.54C143.17 46.4141 140.636 43.88 137.51 43.88C134.384 43.88 131.85 46.4141 131.85 49.54C131.85 52.6659 134.384 55.2 137.51 55.2Z" fill="#FF73BA"/>
<path d="M138.84 64.74C141.966 64.74 144.5 62.2059 144.5 59.08C144.5 55.9541 141.966 53.42 138.84 53.42C135.714 53.42 133.18 55.9541 133.18 59.08C133.18 62.2059 135.714 64.74 138.84 64.74Z" fill="#FF73BA"/>
<path d="M138.52 74.37C141.646 74.37 144.18 71.8359 144.18 68.71C144.18 65.5841 141.646 63.05 138.52 63.05C135.394 63.05 132.86 65.5841 132.86 68.71C132.86 71.8359 135.394 74.37 138.52 74.37Z" fill="#FF73BA"/>
<path d="M136.57 83.81C139.696 83.81 142.23 81.2759 142.23 78.15C142.23 75.0241 139.696 72.49 136.57 72.49C133.444 72.49 130.91 75.0241 130.91 78.15C130.91 81.2759 133.444 83.81 136.57 83.81Z" fill="#FF73BA"/>
<path d="M133.05 92.78C136.176 92.78 138.71 90.2459 138.71 87.12C138.71 83.9941 136.176 81.46 133.05 81.46C129.924 81.46 127.39 83.9941 127.39 87.12C127.39 90.2459 129.924 92.78 133.05 92.78Z" fill="#FF73BA"/>
<path d="M128.05 101.01C131.176 101.01 133.71 98.4759 133.71 95.35C133.71 92.2241 131.176 89.69 128.05 89.69C124.924 89.69 122.39 92.2241 122.39 95.35C122.39 98.4759 124.924 101.01 128.05 101.01Z" fill="#FF73BA"/>
<path d="M121.72 108.28C124.846 108.28 127.38 105.746 127.38 102.62C127.38 99.4941 124.846 96.96 121.72 96.96C118.594 96.96 116.06 99.4941 116.06 102.62C116.06 105.746 118.594 108.28 121.72 108.28Z" fill="#FF73BA"/>
<path d="M114.25 114.36C117.376 114.36 119.91 111.826 119.91 108.7C119.91 105.574 117.376 103.04 114.25 103.04C111.124 103.04 108.59 105.574 108.59 108.7C108.59 111.826 111.124 114.36 114.25 114.36Z" fill="#FF73BA"/>
<path d="M105.85 119.08C108.976 119.08 111.51 116.546 111.51 113.42C111.51 110.294 108.976 107.76 105.85 107.76C102.724 107.76 100.19 110.294 100.19 113.42C100.19 116.546 102.724 119.08 105.85 119.08Z" fill="#FF73BA"/>
<path d="M96.77 122.31C99.8959 122.31 102.43 119.776 102.43 116.65C102.43 113.524 99.8959 110.99 96.77 110.99C93.644 110.99 91.11 113.524 91.11 116.65C91.11 119.776 93.644 122.31 96.77 122.31Z" fill="#FF73BA"/>
<path d="M87.22 124C90.3791 124 92.94 121.439 92.94 118.28C92.94 115.121 90.3791 112.56 87.22 112.56C84.0609 112.56 81.5 115.121 81.5 118.28C81.5 121.439 84.0609 124 87.22 124Z" fill="#FF73BA"/>
<path d="M77.64 123.93C80.7659 123.93 83.3 121.396 83.3 118.27C83.3 115.144 80.7659 112.61 77.64 112.61C74.514 112.61 71.98 115.144 71.98 118.27C71.98 121.396 74.514 123.93 77.64 123.93Z" fill="#FF73BA"/>
<path d="M77.1 80.64C80.21 80.34 82.98 82.62 83.28 85.74C83.58 88.86 81.3 91.62 78.18 91.92C75.07 92.22 65.3 89.94 65 86.82C64.7 83.71 73.98 80.94 77.1 80.64Z" fill="#FF73BA"/>
<path d="M87.19 80.64C84.08 80.34 81.31 82.62 81.01 85.74C80.71 88.86 82.99 91.62 86.11 91.92C89.22 92.22 98.99 89.94 99.29 86.82C99.59 83.71 90.31 80.94 87.19 80.64Z" fill="#FF73BA"/>
<path d="M68.14 122.28C71.2659 122.28 73.8 119.746 73.8 116.62C73.8 113.494 71.2659 110.96 68.14 110.96C65.014 110.96 62.48 113.494 62.48 116.62C62.48 119.746 65.014 122.28 68.14 122.28Z" fill="#FF73BA"/>
<path d="M59.07 119.05C62.1959 119.05 64.73 116.516 64.73 113.39C64.73 110.264 62.1959 107.73 59.07 107.73C55.944 107.73 53.41 110.264 53.41 113.39C53.41 116.516 55.944 119.05 59.07 119.05Z" fill="#FF73BA"/>
<path d="M50.68 114.31C53.806 114.31 56.34 111.776 56.34 108.65C56.34 105.524 53.806 102.99 50.68 102.99C47.5541 102.99 45.02 105.524 45.02 108.65C45.02 111.776 47.5541 114.31 50.68 114.31Z" fill="#FF73BA"/>
<path d="M43.21 108.22C46.3359 108.22 48.87 105.686 48.87 102.56C48.87 99.4341 46.3359 96.9 43.21 96.9C40.0841 96.9 37.55 99.4341 37.55 102.56C37.55 105.686 40.0841 108.22 43.21 108.22Z" fill="#FF73BA"/>
<path d="M36.9 100.94C40.0259 100.94 42.56 98.4059 42.56 95.28C42.56 92.1541 40.0259 89.62 36.9 89.62C33.7741 89.62 31.24 92.1541 31.24 95.28C31.24 98.4059 33.7741 100.94 36.9 100.94Z" fill="#FF73BA"/>
<path d="M31.91 92.69C35.0359 92.69 37.57 90.1559 37.57 87.03C37.57 83.9041 35.0359 81.37 31.91 81.37C28.7841 81.37 26.25 83.9041 26.25 87.03C26.25 90.1559 28.7841 92.69 31.91 92.69Z" fill="#FF73BA"/>
<path d="M28.4 83.72C31.5259 83.72 34.06 81.1859 34.06 78.06C34.06 74.9341 31.5259 72.4 28.4 72.4C25.2741 72.4 22.74 74.9341 22.74 78.06C22.74 81.1859 25.2741 83.72 28.4 83.72Z" fill="#FF73BA"/>
<path d="M26.47 74.28C29.5959 74.28 32.13 71.7459 32.13 68.62C32.13 65.4941 29.5959 62.96 26.47 62.96C23.3441 62.96 20.81 65.4941 20.81 68.62C20.81 71.7459 23.3441 74.28 26.47 74.28Z" fill="#FF73BA"/>
<path d="M26.17 64.65C29.2959 64.65 31.83 62.1159 31.83 58.99C31.83 55.8641 29.2959 53.33 26.17 53.33C23.0441 53.33 20.51 55.8641 20.51 58.99C20.51 62.1159 23.0441 64.65 26.17 64.65Z" fill="#FF73BA"/>
<path d="M86.85 80.55C86.85 83.3 84.62 85.53 81.87 85.53C79.12 85.53 76.89 83.3 76.89 80.55C76.89 77.8 79.12 70.6 81.87 70.6C84.62 70.6 86.85 77.8 86.85 80.55Z" fill="#F89E62"/>
<path d="M83.21 101.66C79.5 101.66 75.74 98.82 74 94.66C73.79 94.15 74.03 93.56 74.54 93.35C75.05 93.14 75.64 93.38 75.85 93.89C77.31 97.39 80.42 99.8 83.39 99.66C85.43 99.59 86.96 98.34 87.71 96.14C87.89 95.62 88.46 95.34 88.98 95.52C89.5 95.7 89.78 96.27 89.6 96.79C88.58 99.79 86.34 101.56 83.46 101.66C83.38 101.66 83.3 101.66 83.21 101.66Z" fill="#F89E62"/>
<path d="M61.78 76.32C68.9597 76.32 74.78 70.4997 74.78 63.32C74.78 56.1403 68.9597 50.32 61.78 50.32C54.6003 50.32 48.78 56.1403 48.78 63.32C48.78 70.4997 54.6003 76.32 61.78 76.32Z" fill="white"/>
<path d="M103.5 76.32C110.68 76.32 116.5 70.4997 116.5 63.32C116.5 56.1403 110.68 50.32 103.5 50.32C96.3203 50.32 90.5 56.1403 90.5 63.32C90.5 70.4997 96.3203 76.32 103.5 76.32Z" fill="white"/>
<path d="M99.05 70.82C102.281 70.82 104.9 68.2009 104.9 64.97C104.9 61.7391 102.281 59.12 99.05 59.12C95.8192 59.12 93.2 61.7391 93.2 64.97C93.2 68.2009 95.8192 70.82 99.05 70.82Z" fill="black"/>
<path d="M57.05 70.82C60.2809 70.82 62.9 68.2009 62.9 64.97C62.9 61.7391 60.2809 59.12 57.05 59.12C53.8191 59.12 51.2 61.7391 51.2 64.97C51.2 68.2009 53.8191 70.82 57.05 70.82Z" fill="black"/>
<path d="M121 48.91H89.47C88.6415 48.91 87.97 49.5816 87.97 50.41V51.78C87.97 52.6084 88.6415 53.28 89.47 53.28H121C121.828 53.28 122.5 52.6084 122.5 51.78V50.41C122.5 49.5816 121.828 48.91 121 48.91Z" fill="#FF73BA"/>
<path d="M130.38 133.54H33.12C14.8283 133.54 0 148.368 0 166.66V291.42C0 309.712 14.8283 324.54 33.12 324.54H130.38C148.672 324.54 163.5 309.712 163.5 291.42V166.66C163.5 148.368 148.672 133.54 130.38 133.54Z" fill="#9088FF"/>
<path d="M78.99 42.91H47.46C46.6316 42.91 45.96 43.5816 45.96 44.41V45.78C45.96 46.6084 46.6316 47.28 47.46 47.28H78.99C79.8184 47.28 80.49 46.6084 80.49 45.78V44.41C80.49 43.5816 79.8184 42.91 78.99 42.91Z" fill="#FF73BA"/>
<path d="M108.75 133.54L92.16 144.34C88.79 146.54 86.54 150.09 85.99 154.08L83.3 173.78L81.26 154.95C80.77 150.47 78.14 146.51 74.2 144.32L54.75 133.54V126.06H108.75V133.54L108.58 127.4L108.75 133.54Z" fill="#FFC8A2"/>
<path d="M37.62 78.66C42.6568 78.66 46.74 74.5768 46.74 69.54C46.74 64.5031 42.6568 60.42 37.62 60.42C32.5832 60.42 28.5 64.5031 28.5 69.54C28.5 74.5768 32.5832 78.66 37.62 78.66Z" fill="#FFC8A2"/>
<path d="M126.38 78.66C131.417 78.66 135.5 74.5768 135.5 69.54C135.5 64.5031 131.417 60.42 126.38 60.42C121.343 60.42 117.26 64.5031 117.26 69.54C117.26 74.5768 121.343 78.66 126.38 78.66Z" fill="#FFC8A2"/>
<path d="M83.5 191.54C85.1569 191.54 86.5 190.197 86.5 188.54C86.5 186.883 85.1569 185.54 83.5 185.54C81.8431 185.54 80.5 186.883 80.5 188.54C80.5 190.197 81.8431 191.54 83.5 191.54Z" fill="#615FC2"/>
<path d="M83.5 207.54C85.1569 207.54 86.5 206.197 86.5 204.54C86.5 202.883 85.1569 201.54 83.5 201.54C81.8431 201.54 80.5 202.883 80.5 204.54C80.5 206.197 81.8431 207.54 83.5 207.54Z" fill="#615FC2"/>
<path d="M83.5 223.54C85.1569 223.54 86.5 222.197 86.5 220.54C86.5 218.883 85.1569 217.54 83.5 217.54C81.8431 217.54 80.5 218.883 80.5 220.54C80.5 222.197 81.8431 223.54 83.5 223.54Z" fill="#615FC2"/>
</g>
<defs>
<clipPath id="clip0_58_3867">
<rect width="163.5" height="324.54" fill="white"/>
</clipPath>
</defs>
</svg>
