<svg width="129" height="283" viewBox="0 0 129 283" fill="none" xmlns="http://www.w3.org/2000/svg">
<g clip-path="url(#clip0_58_3868)">
<path d="M120.5 56C120.5 56 111.44 106.25 117.99 119.27C118.62 120.52 117.73 122 116.33 122H13.27C11.7 122 10.84 120.2 11.81 118.96C13.46 116.84 15 113.56 14.5 109C13.5 100 8.5 56 8.5 56" fill="#615FC2"/>
<path d="M64.5 112C95.4279 112 120.5 86.9279 120.5 56C120.5 25.0721 95.4279 0 64.5 0C33.5721 0 8.5 25.0721 8.5 56C8.5 86.9279 33.5721 112 64.5 112Z" fill="#615FC2"/>
<path d="M83 29H46C28.3269 29 14 43.3269 14 61C14 78.6731 28.3269 93 46 93H83C100.673 93 115 78.6731 115 61C115 43.3269 100.673 29 83 29Z" fill="#FD9E98"/>
<path d="M89 52.5C89 46.1487 83.8513 41 77.5 41C71.1487 41 66 46.1487 66 52.5V54.5C66 60.8513 71.1487 66 77.5 66C83.8513 66 89 60.8513 89 54.5V52.5Z" fill="white"/>
<path d="M63 52.5C63 46.1487 57.8513 41 51.5 41C45.1487 41 40 46.1487 40 52.5V54.5C40 60.8513 45.1487 66 51.5 66C57.8513 66 63 60.8513 63 54.5V52.5Z" fill="white"/>
<path d="M49.68 50.01C49.68 47.6131 47.7369 45.67 45.34 45.67C42.9431 45.67 41 47.6131 41 50.01V54.66C41 57.0569 42.9431 59 45.34 59C47.7369 59 49.68 57.0569 49.68 54.66V50.01Z" fill="black"/>
<path d="M76 50.01C76 47.6131 74.0569 45.67 71.66 45.67C69.2631 45.67 67.32 47.6131 67.32 50.01V54.66C67.32 57.0569 69.2631 59 71.66 59C74.0569 59 76 57.0569 76 54.66V50.01Z" fill="black"/>
<path d="M89 52.5H66C66 46.17 71.17 41 77.5 41C80.66 41 83.54 42.29 85.62 44.38C87.71 46.46 89 49.34 89 52.5Z" fill="#E36654"/>
<path d="M63 52.5H40C40 46.17 45.17 41 51.5 41C54.66 41 57.54 42.29 59.62 44.38C61.71 46.46 63 49.34 63 52.5Z" fill="#E36654"/>
<path d="M11 72C17.0751 72 22 67.0751 22 61C22 54.9249 17.0751 50 11 50C4.92487 50 0 54.9249 0 61C0 67.0751 4.92487 72 11 72Z" fill="#FD9E98"/>
<path d="M118 72C124.075 72 129 67.0751 129 61C129 54.9249 124.075 50 118 50C111.925 50 107 54.9249 107 61C107 67.0751 111.925 72 118 72Z" fill="#FD9E98"/>
<path d="M31 23H90V42.5C90 43.88 88.88 45 87.5 45H33.5C32.12 45 31 43.88 31 42.5V23Z" fill="#615FC2"/>
<path d="M91 23H96V42.5C96 43.88 94.88 45 93.5 45C92.12 45 91 43.88 91 42.5V23Z" fill="#615FC2"/>
<path d="M26 105H38V233C38 239.62 32.62 245 26 245C19.38 245 14 239.62 14 233V117C14 110.38 19.38 105 26 105Z" fill="#18293A"/>
<path d="M106 245C99.38 245 94 239.62 94 233L94 105H106C112.62 105 118 110.38 118 117L118 233C118 239.62 112.62 245 106 245Z" fill="#18293A"/>
<path d="M35 238.75H19V251.25H35V238.75Z" fill="#18293A"/>
<path d="M114 238.75H98V251.25H114V238.75Z" fill="#18293A"/>
<path d="M99 271H32V283H99V271Z" fill="#18293A"/>
<path d="M67.8 78.78C66.5 78.78 65.17 78.67 63.85 78.44C63.31 78.35 62.94 77.83 63.04 77.28C63.13 76.74 63.66 76.38 64.2 76.47C68.46 77.21 72.67 76.64 76.06 74.87C79.36 73.15 81.47 70.48 82.01 67.38C82.1 66.84 82.61 66.47 83.17 66.57C83.71 66.66 84.08 67.18 83.98 67.73C83.33 71.47 80.85 74.64 76.98 76.65C74.27 78.07 71.11 78.79 67.81 78.79L67.8 78.78Z" fill="#E36654"/>
<path d="M64 66C65.6569 66 67 64.6569 67 63C67 61.3431 65.6569 60 64 60C62.3431 60 61 61.3431 61 63C61 64.6569 62.3431 66 64 66Z" fill="#E36654"/>
<path d="M73.87 93H58.37V105H73.87V93Z" fill="#FD9E98"/>
<path d="M93 105H38C31.3726 105 26 110.373 26 117V263C26 269.627 31.3726 275 38 275H93C99.6274 275 105 269.627 105 263V117C105 110.373 99.6274 105 93 105Z" fill="#18293A"/>
<path d="M78.12 99H67.12V105H78.12V99Z" fill="#18293A"/>
<path d="M65.12 99H54.12V105H65.12V99Z" fill="#18293A"/>
<path d="M66.5 105H65.5V137H66.5V105Z" fill="#615FC2"/>
<path d="M67 106H65V107H67V106Z" fill="#615FC2"/>
<path d="M67 108H65V109H67V108Z" fill="#615FC2"/>
<path d="M67 110H65V111H67V110Z" fill="#615FC2"/>
<path d="M67 112H65V113H67V112Z" fill="#615FC2"/>
<path d="M67 114H65V115H67V114Z" fill="#615FC2"/>
<path d="M67 116H65V117H67V116Z" fill="#615FC2"/>
<path d="M67 118H65V119H67V118Z" fill="#615FC2"/>
<path d="M67 120H65V121H67V120Z" fill="#615FC2"/>
<path d="M67 122H65V123H67V122Z" fill="#615FC2"/>
<path d="M67 124H65V125H67V124Z" fill="#615FC2"/>
<path d="M67 126H65V127H67V126Z" fill="#615FC2"/>
<path d="M67 128H65V129H67V128Z" fill="#615FC2"/>
<path d="M67 130H65V131H67V130Z" fill="#615FC2"/>
<path d="M67 132H65V133H67V132Z" fill="#615FC2"/>
<path d="M67 134H65V135H67V134Z" fill="#615FC2"/>
<path d="M67 136H65V137H67V136Z" fill="#615FC2"/>
<path d="M105.5 77C105.39 77 105.28 76.96 105.19 76.89C95.47 69.11 82.31 70.73 82.17 70.75C81.9 70.79 81.65 70.59 81.61 70.32C81.57 70.05 81.77 69.8 82.04 69.76C82.18 69.74 95.76 68.07 105.81 76.11C106.03 76.28 106.06 76.6 105.89 76.81C105.79 76.93 105.65 77 105.5 77Z" fill="#AD5317"/>
<path d="M107.844 77.8767C108.135 77.4075 107.61 76.5548 106.672 75.9723C105.733 75.3897 104.736 75.2979 104.445 75.7671C104.154 76.2363 104.678 77.0889 105.617 77.6715C106.555 78.2541 107.552 78.3459 107.844 77.8767Z" fill="#AD5317"/>
<path d="M105.023 78.1642C105.484 77.86 105.365 76.8661 104.756 75.9441C104.148 75.0222 103.281 74.5214 102.82 74.8256C102.359 75.1298 102.478 76.1237 103.087 77.0457C103.695 77.9676 104.562 78.4684 105.023 78.1642Z" fill="#AD5317"/>
<path d="M101.618 77.2146C102.167 77.1562 102.518 76.2185 102.401 75.1201C102.284 74.0217 101.744 73.1787 101.195 73.2371C100.646 73.2955 100.295 74.2332 100.412 75.3316C100.529 76.43 101.069 77.273 101.618 77.2146Z" fill="#AD5317"/>
<path d="M105.95 75.1411C106.093 74.6078 105.346 73.9423 104.279 73.6546C103.213 73.3668 102.232 73.5658 102.088 74.099C101.944 74.6323 102.692 75.2978 103.758 75.5855C104.825 75.8733 105.806 75.6743 105.95 75.1411Z" fill="#AD5317"/>
<path d="M102.218 73.5995C103.297 73.3651 104.077 72.7376 103.96 72.1979C103.843 71.6582 102.873 71.4107 101.794 71.645C100.714 71.8794 99.934 72.5069 100.051 73.0466C100.168 73.5863 101.138 73.8339 102.218 73.5995Z" fill="#AD5317"/>
</g>
<defs>
<clipPath id="clip0_58_3868">
<rect width="129" height="283" fill="white"/>
</clipPath>
</defs>
</svg>
