<svg width="186" height="237" viewBox="0 0 186 237" fill="none" xmlns="http://www.w3.org/2000/svg">
<g clip-path="url(#clip0_58_3863)">
<path d="M42.0605 205.652L10.0041 173.596C1.82192 165.414 -0.539877 153.068 4.04761 142.444L12.6141 122.597C42.8531 52.5439 142.193 52.5439 172.432 122.597L180.998 142.444C185.586 153.068 183.224 165.414 175.042 173.596L142.985 205.652C115.116 233.521 69.9297 233.521 42.0605 205.652Z" fill="#A84C51"/>
<path d="M107.927 60.7662H77.1352C41.8638 60.7662 13.2706 89.3593 13.2706 124.631V173.035C13.2706 208.307 41.8638 236.9 77.1352 236.9H107.927C143.198 236.9 171.791 208.307 171.791 173.035V124.631C171.791 89.3593 143.198 60.7662 107.927 60.7662Z" fill="#615FC2"/>
<path d="M92.5309 100.877C120.387 100.877 142.969 78.2946 142.969 50.4383C142.969 22.582 120.387 0 92.5309 0C64.6745 0 42.0925 22.582 42.0925 50.4383C42.0925 78.2946 64.6745 100.877 92.5309 100.877Z" fill="#A84C51"/>
<path d="M73.5324 58.0201C79.8288 58.0201 84.9331 52.9158 84.9331 46.6194C84.9331 40.323 79.8288 35.2188 73.5324 35.2188C67.236 35.2188 62.1318 40.323 62.1318 46.6194C62.1318 52.9158 67.236 58.0201 73.5324 58.0201Z" fill="white"/>
<path d="M111.521 58.0201C117.818 58.0201 122.922 52.9158 122.922 46.6194C122.922 40.323 117.818 35.2188 111.521 35.2188C105.225 35.2188 100.121 40.323 100.121 46.6194C100.121 52.9158 105.225 58.0201 111.521 58.0201Z" fill="white"/>
<path d="M73.5564 52.3438C75.9441 52.3438 77.8797 50.4082 77.8797 48.0205C77.8797 45.6328 75.9441 43.6972 73.5564 43.6972C71.1688 43.6972 69.2332 45.6328 69.2332 48.0205C69.2332 50.4082 71.1688 52.3438 73.5564 52.3438Z" fill="black"/>
<path d="M111.233 52.3438C113.621 52.3438 115.556 50.4082 115.556 48.0205C115.556 45.6328 113.621 43.6972 111.233 43.6972C108.845 43.6972 106.91 45.6328 106.91 48.0205C106.91 50.4082 108.845 52.3438 111.233 52.3438Z" fill="black"/>
<mask id="mask0_58_3863" style="mask-type:luminance" maskUnits="userSpaceOnUse" x="62" y="35" width="23" height="24">
<path d="M73.5324 58.0201C79.8288 58.0201 84.9331 52.9158 84.9331 46.6194C84.9331 40.323 79.8288 35.2188 73.5324 35.2188C67.236 35.2188 62.1318 40.323 62.1318 46.6194C62.1318 52.9158 67.236 58.0201 73.5324 58.0201Z" fill="white"/>
</mask>
<g mask="url(#mask0_58_3863)">
<path d="M90.065 25.7235H59.2896V45.0342H90.065V25.7235Z" fill="#752929"/>
</g>
<mask id="mask1_58_3863" style="mask-type:luminance" maskUnits="userSpaceOnUse" x="100" y="35" width="23" height="24">
<path d="M111.521 58.0201C117.818 58.0201 122.922 52.9158 122.922 46.6194C122.922 40.323 117.818 35.2188 111.521 35.2188C105.225 35.2188 100.121 40.323 100.121 46.6194C100.121 52.9158 105.225 58.0201 111.521 58.0201Z" fill="white"/>
</mask>
<g mask="url(#mask1_58_3863)">
<path d="M124.883 27.4529H97.9109V44.2336H124.883V27.4529Z" fill="#752929"/>
</g>
<path d="M41.9964 62.2793C48.1381 62.2793 53.1169 57.3005 53.1169 51.1589C53.1169 45.0172 48.1381 40.0384 41.9964 40.0384C35.8548 40.0384 30.876 45.0172 30.876 51.1589C30.876 57.3005 35.8548 62.2793 41.9964 62.2793Z" fill="#A84C51"/>
<path d="M143.057 62.2793C149.199 62.2793 154.178 57.3005 154.178 51.1589C154.178 45.0172 149.199 40.0384 143.057 40.0384C136.916 40.0384 131.937 45.0172 131.937 51.1589C131.937 57.3005 136.916 62.2793 143.057 62.2793Z" fill="#A84C51"/>
<path d="M63.0204 36.4117C62.7882 36.4117 62.5561 36.3476 62.3479 36.2035C61.8035 35.8352 61.6594 35.0987 62.0197 34.5462C62.1478 34.3621 65.158 29.9908 73.4123 29.1421C74.0608 29.0781 74.6613 29.5504 74.7333 30.2149C74.7974 30.8714 74.325 31.4639 73.6605 31.536C66.6071 32.2565 64.1173 35.7472 64.0132 35.8993C63.781 36.2355 63.4047 36.4197 63.0204 36.4197V36.4117Z" fill="#752929"/>
<path d="M123.17 36.4197C122.786 36.4197 122.41 36.2355 122.177 35.8913C122.057 35.7231 119.559 32.2565 112.53 31.536C111.874 31.4719 111.393 30.8795 111.457 30.215C111.521 29.5585 112.122 29.0781 112.778 29.1421C121.025 29.9908 124.043 34.3621 124.171 34.5462C124.539 35.0987 124.395 35.8432 123.843 36.2115C123.634 36.3476 123.402 36.4117 123.178 36.4117L123.17 36.4197Z" fill="#752929"/>
<path d="M118.943 61.9671H102.13C98.8156 61.9671 96.1256 59.277 96.1256 55.9625C96.1256 52.648 98.8156 49.9579 102.13 49.9579H118.943C122.257 49.9579 124.947 52.648 124.947 55.9625C124.947 59.277 122.257 61.9671 118.943 61.9671ZM102.13 52.3598C100.145 52.3598 98.5274 53.977 98.5274 55.9625C98.5274 57.948 100.145 59.5652 102.13 59.5652H118.943C120.928 59.5652 122.546 57.948 122.546 55.9625C122.546 53.977 120.928 52.3598 118.943 52.3598H102.13Z" fill="#FEA2E1"/>
<path d="M82.5152 62.3674H65.7025C62.3879 62.3674 59.6979 59.6773 59.6979 56.3628C59.6979 53.0483 62.3879 50.3582 65.7025 50.3582H82.5152C85.8298 50.3582 88.5198 53.0483 88.5198 56.3628C88.5198 59.6773 85.8298 62.3674 82.5152 62.3674ZM65.7025 52.7601C63.717 52.7601 62.0997 54.3773 62.0997 56.3628C62.0997 58.3483 63.717 59.9655 65.7025 59.9655H82.5152C84.5007 59.9655 86.118 58.3483 86.118 56.3628C86.118 54.3773 84.5007 52.7601 82.5152 52.7601H65.7025Z" fill="#FEA2E1"/>
<path d="M40.8836 57.9641H40.4833C39.8201 57.9641 39.2824 58.5017 39.2824 59.165V66.3704C39.2824 67.0337 39.8201 67.5714 40.4833 67.5714H40.8836C41.5468 67.5714 42.0845 67.0337 42.0845 66.3704V59.165C42.0845 58.5017 41.5468 57.9641 40.8836 57.9641Z" fill="#FEA2E1"/>
<path d="M98.9357 75.1771C98.9357 78.7158 96.0695 81.582 92.5309 81.582C88.9922 81.582 86.126 78.7158 86.126 75.1771H98.9357Z" fill="#FCFEF3"/>
<path d="M96.1816 64.3689C96.1816 70.2294 94.124 71.1741 92.5308 70.9739C90.5293 70.7257 88.8801 70.2294 88.8801 64.3689C88.8801 58.5085 90.5133 39.1497 92.5308 39.1497C94.5484 39.1497 96.1816 58.5085 96.1816 64.3689Z" fill="#752929"/>
<path d="M87.3189 57.5637C87.0387 57.5637 86.7665 57.4677 86.5343 57.2755C86.0299 56.8432 85.9739 56.0826 86.4062 55.5782C86.5103 55.4581 88.9281 52.68 92.3787 52.5519C94.4683 52.4799 96.3978 53.3365 98.1751 55.1139C98.6475 55.5862 98.6475 56.3468 98.1751 56.8112C97.7028 57.2755 96.9422 57.2835 96.4778 56.8112C95.1889 55.5222 93.8438 54.8977 92.4748 54.9537C90.097 55.0418 88.2476 57.1234 88.2316 57.1474C87.9914 57.4276 87.6551 57.5637 87.3189 57.5637Z" fill="#FEA2E1"/>
<path d="M0.0765991 134.526L21.2687 93.7913V151.851L0.0765991 134.526Z" fill="#615FC2"/>
<path d="M185.393 134.526L164.209 93.7913V151.851L185.393 134.526Z" fill="#615FC2"/>
</g>
<defs>
<clipPath id="clip0_58_3863">
<rect width="185.317" height="236.9" fill="white" transform="translate(0.0765991)"/>
</clipPath>
</defs>
</svg>
