<svg width="148" height="262" viewBox="0 0 148 262" fill="none" xmlns="http://www.w3.org/2000/svg">
<g clip-path="url(#clip0_58_3665)">
<path d="M113.944 51.541H98.482C92.7889 51.541 88.1738 56.1561 88.1738 61.8492V77.3115C88.1738 83.0045 92.7889 87.6197 98.482 87.6197H113.944C119.637 87.6197 124.252 83.0045 124.252 77.3115V61.8492C124.252 56.1561 119.637 51.541 113.944 51.541Z" fill="#A4A4FC"/>
<path d="M55.5311 30.0656H40.0688C34.3758 30.0656 29.7607 34.6807 29.7607 40.3738V77.3115C29.7607 83.0045 34.3758 87.6197 40.0688 87.6197H55.5311C61.2242 87.6197 65.8393 83.0045 65.8393 77.3115V40.3738C65.8393 34.6807 61.2242 30.0656 55.5311 30.0656Z" fill="#A4A4FC"/>
<path d="M72.7115 85.9016C96.4326 85.9016 115.662 66.6719 115.662 42.9508C115.662 19.2297 96.4326 0 72.7115 0C48.9904 0 29.7607 19.2297 29.7607 42.9508C29.7607 66.6719 48.9904 85.9016 72.7115 85.9016Z" fill="#A4A4FC"/>
<path d="M78.7246 96.2098H64.9803V127.134H78.7246V96.2098Z" fill="#F89E62"/>
<path d="M95.149 29.2065H50.274C41.7913 29.2065 34.9148 36.0831 34.9148 44.5658V92.8768C34.9148 101.36 41.7913 108.236 50.274 108.236H95.149C103.632 108.236 110.508 101.36 110.508 92.8768V44.5658C110.508 36.0831 103.632 29.2065 95.149 29.2065Z" fill="#FFC8A2"/>
<path d="M50.274 29.2066C50.274 29.2066 44.3639 43.6037 34.9148 44.5658C34.9148 44.5658 28.6955 24.9115 50.274 29.2066Z" fill="#A4A4FC"/>
<path d="M75.4603 79.5707C75.4603 81.4863 73.9055 83.0411 71.9899 83.0411C70.0743 83.0411 68.5195 81.4863 68.5195 79.5707C68.5195 77.6551 70.0743 72.6212 71.9899 72.6212C73.9055 72.6212 75.4603 77.6465 75.4603 79.5707Z" fill="#F89E62"/>
<path d="M73.6478 94.6636C68.5367 94.6636 66.9991 91.6828 66.9303 91.5454C66.7156 91.1159 66.896 90.6091 67.3169 90.3943C67.7378 90.1881 68.2532 90.3599 68.4594 90.7723C68.5281 90.9011 69.9798 93.4696 75.2113 92.8425C75.6837 92.791 76.1132 93.126 76.1648 93.5898C76.2249 94.0623 75.8813 94.4918 75.4174 94.5433C74.7817 94.6207 74.189 94.655 73.6307 94.655L73.6478 94.6636Z" fill="#F89E62"/>
<path d="M109.649 80.7475C113.919 80.7475 117.38 77.2862 117.38 73.0164C117.38 68.7466 113.919 65.2852 109.649 65.2852C105.379 65.2852 101.918 68.7466 101.918 73.0164C101.918 77.2862 105.379 80.7475 109.649 80.7475Z" fill="#FFC8A2"/>
<path d="M34.9147 80.7475C39.1845 80.7475 42.6459 77.2862 42.6459 73.0164C42.6459 68.7466 39.1845 65.2852 34.9147 65.2852C30.6449 65.2852 27.1836 68.7466 27.1836 73.0164C27.1836 77.2862 30.6449 80.7475 34.9147 80.7475Z" fill="#FFC8A2"/>
<path d="M147.016 188.984C147.016 148.658 114.326 115.967 74 115.967C33.6742 115.967 0.983612 148.658 0.983612 188.984C0.983612 229.309 33.6742 262 74 262C114.326 262 147.016 229.309 147.016 188.984Z" fill="#19224D"/>
<path d="M58.9672 127.993C60.8649 127.993 62.4033 126.455 62.4033 124.557C62.4033 122.66 60.8649 121.121 58.9672 121.121C57.0695 121.121 55.5312 122.66 55.5312 124.557C55.5312 126.455 57.0695 127.993 58.9672 127.993Z" fill="#FF73BA"/>
<path d="M83.8787 127.993C85.7764 127.993 87.3148 126.455 87.3148 124.557C87.3148 122.66 85.7764 121.121 83.8787 121.121C81.981 121.121 80.4426 122.66 80.4426 124.557C80.4426 126.455 81.981 127.993 83.8787 127.993Z" fill="#FF73BA"/>
<path d="M86.4557 122.839C88.3534 122.839 89.8918 121.301 89.8918 119.403C89.8918 117.506 88.3534 115.967 86.4557 115.967C84.558 115.967 83.0197 117.506 83.0197 119.403C83.0197 121.301 84.558 122.839 86.4557 122.839Z" fill="#FF73BA"/>
<path d="M57.2492 122.839C59.1469 122.839 60.6852 121.301 60.6852 119.403C60.6852 117.506 59.1469 115.967 57.2492 115.967C55.3515 115.967 53.8131 117.506 53.8131 119.403C53.8131 121.301 55.3515 122.839 57.2492 122.839Z" fill="#FF73BA"/>
<path d="M113.085 84.1836C114.983 84.1836 116.521 82.6452 116.521 80.7475C116.521 78.8498 114.983 77.3115 113.085 77.3115C111.188 77.3115 109.649 78.8498 109.649 80.7475C109.649 82.6452 111.188 84.1836 113.085 84.1836Z" fill="#FF73BA"/>
<path d="M33.1967 84.1836C35.0944 84.1836 36.6328 82.6452 36.6328 80.7475C36.6328 78.8498 35.0944 77.3115 33.1967 77.3115C31.299 77.3115 29.7607 78.8498 29.7607 80.7475C29.7607 82.6452 31.299 84.1836 33.1967 84.1836Z" fill="#FF73BA"/>
<path d="M63.2623 132.289C65.16 132.289 66.6984 130.75 66.6984 128.852C66.6984 126.955 65.16 125.416 63.2623 125.416C61.3646 125.416 59.8262 126.955 59.8262 128.852C59.8262 130.75 61.3646 132.289 63.2623 132.289Z" fill="#FF73BA"/>
<path d="M68.4164 135.725C70.3141 135.725 71.8524 134.186 71.8524 132.289C71.8524 130.391 70.3141 128.852 68.4164 128.852C66.5187 128.852 64.9803 130.391 64.9803 132.289C64.9803 134.186 66.5187 135.725 68.4164 135.725Z" fill="#FF73BA"/>
<path d="M74.4295 135.725C76.3272 135.725 77.8656 134.186 77.8656 132.289C77.8656 130.391 76.3272 128.852 74.4295 128.852C72.5318 128.852 70.9934 130.391 70.9934 132.289C70.9934 134.186 72.5318 135.725 74.4295 135.725Z" fill="#FF73BA"/>
<path d="M73.5705 158.918C74.5194 158.918 75.2885 158.149 75.2885 157.2C75.2885 156.251 74.5194 155.482 73.5705 155.482C72.6217 155.482 71.8525 156.251 71.8525 157.2C71.8525 158.149 72.6217 158.918 73.5705 158.918Z" fill="white"/>
<path d="M73.5705 148.61C74.5194 148.61 75.2885 147.841 75.2885 146.892C75.2885 145.943 74.5194 145.174 73.5705 145.174C72.6217 145.174 71.8525 145.943 71.8525 146.892C71.8525 147.841 72.6217 148.61 73.5705 148.61Z" fill="white"/>
<path d="M73.5705 170.085C74.5194 170.085 75.2885 169.316 75.2885 168.367C75.2885 167.418 74.5194 166.649 73.5705 166.649C72.6217 166.649 71.8525 167.418 71.8525 168.367C71.8525 169.316 72.6217 170.085 73.5705 170.085Z" fill="white"/>
<path d="M73.5705 181.252C74.5194 181.252 75.2885 180.483 75.2885 179.534C75.2885 178.586 74.5194 177.816 73.5705 177.816C72.6217 177.816 71.8525 178.586 71.8525 179.534C71.8525 180.483 72.6217 181.252 73.5705 181.252Z" fill="white"/>
<path d="M73.5705 192.42C74.5194 192.42 75.2885 191.65 75.2885 190.702C75.2885 189.753 74.5194 188.984 73.5705 188.984C72.6217 188.984 71.8525 189.753 71.8525 190.702C71.8525 191.65 72.6217 192.42 73.5705 192.42Z" fill="white"/>
<path d="M73.5705 203.587C74.5194 203.587 75.2885 202.818 75.2885 201.869C75.2885 200.92 74.5194 200.151 73.5705 200.151C72.6217 200.151 71.8525 200.92 71.8525 201.869C71.8525 202.818 72.6217 203.587 73.5705 203.587Z" fill="white"/>
<path d="M73.5705 214.754C74.5194 214.754 75.2885 213.985 75.2885 213.036C75.2885 212.087 74.5194 211.318 73.5705 211.318C72.6217 211.318 71.8525 212.087 71.8525 213.036C71.8525 213.985 72.6217 214.754 73.5705 214.754Z" fill="white"/>
<path d="M73.5705 225.921C74.5194 225.921 75.2885 225.152 75.2885 224.203C75.2885 223.254 74.5194 222.485 73.5705 222.485C72.6217 222.485 71.8525 223.254 71.8525 224.203C71.8525 225.152 72.6217 225.921 73.5705 225.921Z" fill="white"/>
<path d="M73.5705 237.089C74.5194 237.089 75.2885 236.319 75.2885 235.37C75.2885 234.422 74.5194 233.652 73.5705 233.652C72.6217 233.652 71.8525 234.422 71.8525 235.37C71.8525 236.319 72.6217 237.089 73.5705 237.089Z" fill="white"/>
<path d="M79.5836 132.289C81.4813 132.289 83.0197 130.75 83.0197 128.852C83.0197 126.955 81.4813 125.416 79.5836 125.416C77.6859 125.416 76.1475 126.955 76.1475 128.852C76.1475 130.75 77.6859 132.289 79.5836 132.289Z" fill="#FF73BA"/>
<path d="M112.656 158.918H84.3082C83.5952 158.918 83.0197 158.343 83.0197 157.63V151.616C83.0197 150.903 83.5952 150.328 84.3082 150.328H112.656C113.369 150.328 113.944 150.903 113.944 151.616V157.63C113.944 158.343 113.369 158.918 112.656 158.918ZM85.5967 156.341H111.367V152.905H85.5967V156.341Z" fill="white"/>
<path d="M71.8524 122.839C75.6478 122.839 78.7246 119.763 78.7246 115.967C78.7246 112.172 75.6478 109.095 71.8524 109.095C68.0571 109.095 64.9803 112.172 64.9803 115.967C64.9803 119.763 68.0571 122.839 71.8524 122.839Z" fill="#F89E62"/>
<path d="M56.6049 76.2463C62.2695 76.2463 66.8616 71.6542 66.8616 65.9896C66.8616 60.325 62.2695 55.733 56.6049 55.733C50.9403 55.733 46.3483 60.325 46.3483 65.9896C46.3483 71.6542 50.9403 76.2463 56.6049 76.2463Z" fill="white"/>
<mask id="mask0_58_3665" style="mask-type:luminance" maskUnits="userSpaceOnUse" x="46" y="55" width="21" height="22">
<path d="M56.6049 76.2463C62.2695 76.2463 66.8616 71.6542 66.8616 65.9896C66.8616 60.325 62.2695 55.733 56.6049 55.733C50.9403 55.733 46.3483 60.325 46.3483 65.9896C46.3483 71.6542 50.9403 76.2463 56.6049 76.2463Z" fill="white"/>
</mask>
<g mask="url(#mask0_58_3665)">
<path d="M41.7353 63.7133H69.43V46.3354H41.7353V63.7133Z" fill="#F89E62"/>
</g>
<path d="M85.6483 76.2463C91.3128 76.2463 95.9049 71.6542 95.9049 65.9896C95.9049 60.325 91.3128 55.733 85.6483 55.733C79.9837 55.733 75.3916 60.325 75.3916 65.9896C75.3916 71.6542 79.9837 76.2463 85.6483 76.2463Z" fill="white"/>
<mask id="mask1_58_3665" style="mask-type:luminance" maskUnits="userSpaceOnUse" x="75" y="55" width="21" height="22">
<path d="M85.6483 76.2463C91.3128 76.2463 95.9049 71.6542 95.9049 65.9896C95.9049 60.325 91.3128 55.733 85.6483 55.733C79.9837 55.733 75.3916 60.325 75.3916 65.9896C75.3916 71.6542 79.9837 76.2463 85.6483 76.2463Z" fill="white"/>
</mask>
<g mask="url(#mask1_58_3665)">
<path d="M70.7787 63.7133H98.4734V42.8993H70.7787V63.7133Z" fill="#F89E62"/>
</g>
<path d="M53.2118 72.2862C55.3609 72.2862 57.1032 70.544 57.1032 68.3949C57.1032 66.2458 55.3609 64.5035 53.2118 64.5035C51.0627 64.5035 49.3205 66.2458 49.3205 68.3949C49.3205 70.544 51.0627 72.2862 53.2118 72.2862Z" fill="black"/>
<path d="M83.1056 72.2862C85.2547 72.2862 86.9969 70.544 86.9969 68.3949C86.9969 66.2458 85.2547 64.5035 83.1056 64.5035C80.9564 64.5035 79.2142 66.2458 79.2142 68.3949C79.2142 70.544 80.9564 72.2862 83.1056 72.2862Z" fill="black"/>
<path d="M50.274 28.3475C50.274 28.3475 55.6772 65.2852 112.226 65.2852V37.7108C112.226 32.5395 106.342 28.3475 99.0833 28.3475H50.274Z" fill="#A4A4FC"/>
<path d="M116.092 42.0918H106.643C104.033 42.0918 101.918 44.2071 101.918 46.8164C101.918 49.4257 104.033 51.541 106.643 51.541H116.092C118.701 51.541 120.816 49.4257 120.816 46.8164C120.816 44.2071 118.701 42.0918 116.092 42.0918Z" fill="#FF73BA"/>
<path d="M63.2623 46.3869H47.8C46.8512 46.3869 46.082 47.1561 46.082 48.1049C46.082 49.0538 46.8512 49.823 47.8 49.823H63.2623C64.2111 49.823 64.9803 49.0538 64.9803 48.1049C64.9803 47.1561 64.2111 46.3869 63.2623 46.3869Z" fill="#9088FF"/>
</g>
<defs>
<clipPath id="clip0_58_3665">
<rect width="146.033" height="262" fill="white" transform="translate(0.983582)"/>
</clipPath>
</defs>
</svg>
