<svg width="73" height="90" viewBox="0 0 73 90" fill="none" xmlns="http://www.w3.org/2000/svg">
<path d="M36.4034 72.5262C52.8225 72.5262 66.1328 59.2159 66.1328 42.7968C66.1328 26.3777 52.8225 13.0674 36.4034 13.0674C19.9843 13.0674 6.67395 26.3777 6.67395 42.7968C6.67395 59.2159 19.9843 72.5262 36.4034 72.5262Z" fill="#F9DA1B"/>
<path d="M38.7658 9.61254L40.7625 15.2759L42.0922 19.0436C42.3218 19.6973 42.5109 20.402 42.8242 21.0236C43.6905 22.7619 45.8171 23.3981 47.5352 22.5989C48.1517 22.3077 48.7639 22.0092 49.3775 21.7151L56.6238 18.2415C57.2894 17.9226 58.0112 17.4757 58.749 17.3679C60.6591 17.0768 62.3469 18.9694 61.882 20.8533C61.7102 21.5463 61.3045 22.2145 61.007 22.8536L59.3048 26.4656C58.4516 28.2738 57.5723 30.0747 56.745 31.8931C55.9178 33.7115 56.6801 35.9564 58.5584 36.7557C59.1619 37.0105 59.7943 37.207 60.4108 37.4268L67.9877 40.1449C68.5998 40.3648 69.2438 40.5453 69.8357 40.8176C70.5138 41.1384 71.0401 41.7144 71.3019 42.422C71.5637 43.1296 71.5401 43.9125 71.2362 44.6028C70.8175 45.5418 70.0075 45.9582 69.1052 46.2814L65.9751 47.4039L59.0839 49.8789C58.7762 49.9794 58.4773 50.1055 58.1903 50.2559C57.7793 50.4914 57.4189 50.8069 57.1299 51.184C56.8409 51.5612 56.6291 51.9924 56.5068 52.4528C56.2943 53.2875 56.3802 54.171 56.7494 54.9482C56.8389 55.1418 56.9328 55.334 57.0237 55.5305L60.3343 62.5551L61.5773 65.1931C61.7639 65.5502 61.8889 65.9366 61.9469 66.336C61.9907 66.794 61.9246 67.256 61.7543 67.6829C61.5839 68.1099 61.3143 68.4892 60.9681 68.7891C60.6147 69.1013 60.1887 69.3184 59.7299 69.4202C59.271 69.5221 58.794 69.5053 58.3433 69.3714C58.0836 69.285 57.8311 69.1779 57.5882 69.0511L54.7757 67.703L47.9741 64.4433C47.7994 64.3589 47.6248 64.2715 47.4472 64.1915C47.009 63.9913 46.5351 63.8829 46.0542 63.8729C45.5733 63.8629 45.0953 63.9516 44.6494 64.1335C44.2035 64.3153 43.7988 64.5867 43.46 64.931C43.1212 65.2753 42.8553 65.6854 42.6784 66.1365C42.6019 66.3287 42.534 66.5252 42.4691 66.7188L39.9511 73.8526L38.9059 76.8167C38.8345 77.0449 38.7496 77.2685 38.6517 77.4864C38.4845 77.8336 38.2478 78.1422 37.9566 78.3927C37.6654 78.6432 37.326 78.8304 36.9596 78.9423C36.2644 79.1568 35.5141 79.0954 34.8623 78.7707C34.2104 78.446 33.7062 77.8824 33.4527 77.1953C33.2246 76.5678 33.008 75.9359 32.7871 75.3026L30.096 67.6739C29.8549 66.9911 29.6628 66.218 29.2874 65.5862C28.3346 63.9847 26.3292 63.4432 24.6746 64.2148C22.7645 65.1058 20.8732 66.0375 18.9732 66.9474L15.4922 68.6158C14.8108 68.9434 14.0658 69.4035 13.3006 69.4602C11.3342 69.6058 9.79222 67.6127 10.4044 65.7289C10.6123 65.0868 10.9689 64.4754 11.2548 63.8683L14.7198 56.5205C14.997 55.9309 15.2973 55.3471 15.55 54.7458C16.3513 52.8386 15.3464 50.6694 13.4479 49.9691C11.5955 49.279 9.72439 48.6341 7.86337 47.9673L4.10957 46.6235C3.49453 46.4023 2.82029 46.229 2.23267 45.9233C1.57157 45.5636 1.077 44.9565 0.855557 44.2327C0.634115 43.5089 0.703491 42.7263 1.04875 42.0536C1.50932 41.1801 2.30772 40.8161 3.17831 40.5045L10.3972 37.9131L13.162 36.9217C13.5126 36.8102 13.8493 36.6582 14.1654 36.4689C14.569 36.2093 14.9167 35.8707 15.188 35.4731C15.4594 35.0754 15.6487 34.6269 15.7449 34.1541C15.8918 33.3758 15.787 32.5705 15.446 31.8567C15.3478 31.6398 15.2439 31.4199 15.1428 31.2118L13.6558 28.0569L10.6022 21.5798C10.3981 21.1841 10.2763 20.7506 10.2441 20.3059C10.2292 19.8423 10.3254 19.3819 10.5244 18.9637C10.7235 18.5456 11.0196 18.1819 11.3876 17.9037C11.7679 17.6141 12.2151 17.4272 12.687 17.3604C13.1589 17.2937 13.6399 17.3494 14.0845 17.5223C14.2867 17.5994 14.4802 17.7028 14.6751 17.796L21.4608 21.0469L24.2934 22.4052C24.5028 22.5057 24.7121 22.612 24.9287 22.6964C25.3737 22.8725 25.8494 22.9561 26.3272 22.9423C26.8051 22.9285 27.2752 22.8175 27.7095 22.6161C28.1438 22.4146 28.5332 22.1267 28.8545 21.7698C29.1757 21.4128 29.4222 20.9941 29.5791 20.5388C29.6412 20.3699 29.6989 20.1996 29.7596 20.0293L30.8554 16.9181L33.3228 9.92264C33.6577 8.97342 34.215 8.17561 35.2156 7.86114C35.9136 7.63696 36.6703 7.69212 37.3291 8.01519C37.9879 8.33825 38.4982 8.90446 38.7542 9.59653C38.9131 10.0333 39.6118 9.84402 39.4501 9.4029C39.1799 8.62752 38.6544 7.96893 37.9611 7.53685C37.2678 7.10478 36.4486 6.92532 35.64 7.02838C34.2425 7.20891 33.1856 8.15959 32.715 9.47861C31.9526 11.6245 31.2004 13.7749 30.4425 15.9223L29.2095 19.4163C28.8962 20.3059 28.632 21.1838 27.7917 21.7457C27.3947 22.0089 26.9388 22.1682 26.4654 22.2091C25.992 22.2501 25.516 22.1713 25.0803 21.9801C24.9114 21.9044 24.7468 21.82 24.5807 21.7414L21.5965 20.3102L14.9335 17.1175C14.6362 16.9621 14.3261 16.833 14.0066 16.7317C13.5349 16.6003 13.041 16.5702 12.557 16.6435C12.073 16.7167 11.6097 16.8916 11.197 17.1568C10.4567 17.6333 9.91558 18.367 9.67608 19.219C9.43658 20.071 9.5154 20.9819 9.89762 21.7792C10.8014 23.7432 11.7413 25.6897 12.6625 27.6449L14.3069 31.139C14.6621 31.8931 15.1067 32.6429 15.0923 33.5047C15.0821 33.9794 14.9552 34.4441 14.7232 34.8573C14.4911 35.2704 14.1611 35.619 13.7626 35.872C13.4935 36.027 13.209 36.1529 12.9137 36.2476L10.0016 37.2915L2.84772 39.8567C2.66725 39.9207 2.48674 39.9819 2.30772 40.0503C1.5112 40.3441 0.845364 40.9158 0.430816 41.662C-0.322832 43.0625 -0.0773854 44.9056 1.08629 46.0048C1.72155 46.6046 2.53007 46.8434 3.3357 47.1302L6.82817 48.3822C8.94184 49.1407 11.0584 49.889 13.1678 50.6563C13.5407 50.7891 13.8822 50.9983 14.1709 51.2709C14.4596 51.5434 14.6892 51.8733 14.8452 52.2397C15.0012 52.6061 15.0802 53.0012 15.0772 53.3999C15.0743 53.7987 14.9895 54.1925 14.8281 54.5565C14.5596 55.1491 14.2723 55.7343 13.9951 56.3225L10.53 63.6834C10.2109 64.3603 9.78357 65.081 9.6132 65.8148C9.41155 66.7547 9.58808 67.7369 10.104 68.5457C10.62 69.3545 11.4332 69.9238 12.365 70.1285C13.1446 70.2786 13.9514 70.1687 14.6635 69.8155C14.8902 69.7092 15.1168 69.5985 15.3435 69.4894L18.5415 67.9563L24.8941 64.9107C26.2469 64.2613 27.8899 64.653 28.6652 65.9996C29.016 66.6082 29.195 67.3536 29.426 68.0117L32.1374 75.6986C32.3583 76.3261 32.5576 76.9696 32.8102 77.5912C33.1217 78.3478 33.6801 78.9743 34.3931 79.3669C35.106 79.7596 35.9305 79.8949 36.7301 79.7503C38.067 79.5261 39.0401 78.5492 39.4819 77.2943C39.7707 76.4722 40.0594 75.6472 40.3482 74.8193L43.0047 67.2866C43.3339 66.352 43.6457 65.4712 44.5726 64.9456C44.9637 64.726 45.4005 64.6023 45.8477 64.5846C46.2949 64.5669 46.74 64.6557 47.1469 64.8437C47.323 64.9238 47.4963 65.0111 47.671 65.0941L54.6126 68.4222L57.3009 69.7107C57.649 69.8935 58.018 70.0329 58.3996 70.1256C58.8754 70.2237 59.3662 70.2211 59.8409 70.1179C60.3156 70.0146 60.7639 69.813 61.1572 69.5258C62.601 68.4703 63.0225 66.614 62.2732 65.0126C61.9441 64.305 61.6077 63.5989 61.2742 62.8928L57.8264 55.58C57.4496 54.7793 57.0136 54.0193 57.0973 53.0934C57.146 52.6165 57.312 52.1594 57.5803 51.7635C57.8485 51.3677 58.2106 51.0456 58.6335 50.8266C58.8666 50.7115 59.1079 50.6142 59.3554 50.5355L66.4414 47.9935L69.4257 46.9235C70.4493 46.5566 71.3647 46.0237 71.8498 44.9872C72.5255 43.5473 72.2165 41.7144 70.9835 40.6778C70.3482 40.1449 69.5571 39.9207 68.7919 39.647L61.2337 36.9362C60.4931 36.6698 59.751 36.4121 59.0132 36.1399C58.6433 36.0041 58.3051 35.793 58.0197 35.5196C57.7343 35.2462 57.5079 34.9164 57.3545 34.5509C57.2012 34.1853 57.1242 33.7918 57.1284 33.3949C57.1326 32.9979 57.2178 32.6062 57.3789 32.244C58.2365 30.3397 59.1619 28.4587 60.0513 26.5748L61.7289 23.0152C62.0639 22.3048 62.5144 21.5448 62.6414 20.763C62.7792 19.8147 62.5406 18.8499 61.9773 18.078C61.4139 17.3061 60.5714 16.7894 59.6326 16.64C58.5815 16.4944 57.7095 16.9108 56.7999 17.3461L49.6504 20.7732C48.8592 21.1537 48.068 21.5332 47.2768 21.9117C45.8533 22.5901 44.1381 22.0573 43.4349 20.6014C43.1462 20.0001 42.9686 19.3232 42.7477 18.6971L41.3776 14.8114L39.4704 9.40435C39.3072 8.9807 38.6098 9.16996 38.7658 9.61254Z" fill="black"/>
<path d="M54.3438 42.1652C54.3491 42.1995 54.3491 42.2344 54.3438 42.2687V42.2302C54.3438 42.2475 54.3438 42.2634 54.3332 42.2806C54.3282 42.3048 54.322 42.3287 54.3146 42.3522C54.3146 42.3628 54.2748 42.4503 54.2974 42.4052C54.3199 42.3602 54.2748 42.445 54.2709 42.453C54.2669 42.4609 54.2457 42.4954 54.2324 42.5153C54.2191 42.5352 54.19 42.5643 54.2258 42.5259L54.1608 42.5975C54.1436 42.6134 54.1237 42.628 54.1064 42.6452C54.1595 42.5922 54.1144 42.6386 54.0958 42.6519C54.0723 42.6677 54.048 42.6823 54.0229 42.6956C54.0057 42.7049 53.9221 42.7407 54.003 42.7089C53.957 42.7272 53.9095 42.7419 53.8611 42.7526L53.8108 42.7632C53.8572 42.7566 53.8625 42.7566 53.824 42.7632H53.7458H53.6689C53.5986 42.7632 53.7312 42.7765 53.6437 42.7632C53.5912 42.7524 53.5397 42.7369 53.4899 42.7168C53.5668 42.7473 53.4979 42.7168 53.4806 42.7102C53.4519 42.695 53.424 42.6781 53.3971 42.6598C53.3785 42.6479 53.3268 42.5988 53.3865 42.6532L53.3321 42.6054C53.3144 42.5831 53.2949 42.5623 53.2738 42.5431C53.2592 42.5246 53.2632 42.5312 53.2884 42.563L53.2605 42.5232C53.2339 42.4806 53.21 42.4363 53.1889 42.3907C53.2287 42.4689 53.1889 42.3747 53.1783 42.3548C53.1705 42.3313 53.1638 42.3074 53.1584 42.2833C53.1584 42.262 53.1279 42.1944 53.1584 42.2713C53.1531 42.2371 53.1531 42.2022 53.1584 42.1679C53.1571 42.0804 53.1217 41.9969 53.0598 41.935C52.998 41.8732 52.9144 41.8378 52.827 41.8364C52.7395 41.8378 52.656 41.8732 52.5941 41.935C52.5322 41.9969 52.4969 42.0804 52.4955 42.1679C52.4973 42.4286 52.5787 42.6825 52.7286 42.8957C52.8786 43.109 53.0901 43.2713 53.3348 43.3612C53.5727 43.4455 53.8304 43.4564 54.0746 43.3926C54.3188 43.3287 54.5382 43.1931 54.7044 43.0032C54.902 42.7714 55.0122 42.4778 55.016 42.1732C55.0153 42.0855 54.9802 42.0016 54.9181 41.9396C54.8561 41.8776 54.7722 41.8424 54.6845 41.8417C54.5971 41.8434 54.5138 41.8789 54.452 41.9407C54.3902 42.0025 54.3548 42.0858 54.3531 42.1732L54.3438 42.1652Z" fill="#1D1D1B"/>
<path d="M51.4375 42.1652C51.4428 42.1995 51.4428 42.2344 51.4375 42.2687V42.2302C51.4375 42.2475 51.4375 42.2634 51.4282 42.2806C51.4189 42.2978 51.4163 42.3283 51.4083 42.3522C51.4004 42.3761 51.3685 42.4503 51.3911 42.4052C51.4136 42.3602 51.3685 42.445 51.3646 42.453C51.3606 42.4609 51.3394 42.4954 51.3261 42.5153C51.3129 42.5352 51.2837 42.5643 51.3261 42.5259L51.2611 42.5975C51.2439 42.6134 51.224 42.628 51.2068 42.6452C51.2598 42.5922 51.2161 42.6386 51.1962 42.6519C51.1728 42.668 51.1485 42.6826 51.1233 42.6956C51.106 42.7049 51.0225 42.7407 51.1034 42.7089C51.0573 42.7272 51.0099 42.7419 50.9615 42.7526L50.9124 42.7632C50.9588 42.7566 50.9628 42.7566 50.9244 42.7632H50.8475H50.7692C50.7003 42.7632 50.8316 42.7765 50.744 42.7632C50.6915 42.7522 50.6401 42.7367 50.5902 42.7168C50.6685 42.7473 50.5982 42.7168 50.581 42.7102C50.5522 42.695 50.5243 42.6781 50.4974 42.6598C50.4802 42.6479 50.4272 42.5988 50.4868 42.6532L50.4325 42.6054C50.4152 42.5831 50.3961 42.5623 50.3754 42.5431C50.3595 42.5246 50.3635 42.5312 50.3887 42.563L50.3609 42.5232C50.3342 42.4806 50.3103 42.4363 50.2893 42.3907C50.329 42.4689 50.2893 42.3747 50.2787 42.3548C50.2708 42.3313 50.2642 42.3074 50.2588 42.2833C50.2588 42.262 50.2283 42.1944 50.2588 42.2713C50.2534 42.2371 50.2534 42.2022 50.2588 42.1679C50.2574 42.0804 50.222 41.9969 50.1602 41.935C50.0983 41.8732 50.0148 41.8378 49.9273 41.8364C49.8398 41.8378 49.7563 41.8732 49.6944 41.935C49.6326 41.9969 49.5972 42.0804 49.5958 42.1679C49.5977 42.4286 49.679 42.6825 49.829 42.8957C49.9789 43.109 50.1904 43.2713 50.4351 43.3612C50.673 43.4455 50.9307 43.4564 51.1749 43.3926C51.4191 43.3287 51.6385 43.1931 51.8048 43.0032C52.0023 42.7714 52.1125 42.4778 52.1163 42.1732C52.1156 42.0855 52.0805 42.0016 52.0185 41.9396C51.9565 41.8776 51.8726 41.8424 51.7849 41.8417C51.6975 41.8434 51.6142 41.8789 51.5524 41.9407C51.4906 42.0025 51.4551 42.0858 51.4534 42.1732L51.4375 42.1652Z" fill="#1D1D1B"/>
<path d="M54.3437 44.5106C54.3418 44.9269 54.2141 45.333 53.9776 45.6755C53.741 46.0181 53.4065 46.2812 53.0178 46.4305C52.6168 46.5776 52.1803 46.5979 51.7674 46.4885C51.3545 46.3792 50.9851 46.1455 50.7095 45.8193C50.4052 45.4511 50.2392 44.9882 50.2401 44.5106C50.2401 44.085 49.5771 44.0837 49.5771 44.5106C49.5823 45.0672 49.7562 45.6091 50.0757 46.0648C50.3953 46.5205 50.8456 46.8685 51.3671 47.063C51.8901 47.2503 52.4579 47.2733 52.9944 47.129C53.5309 46.9847 54.0105 46.6799 54.3689 46.2555C54.7746 45.764 54.9988 45.1479 55.004 44.5106C55.004 44.085 54.3411 44.0837 54.3411 44.5106H54.3437Z" fill="#1D1D1B"/>
<path d="M59.0483 79.6241C59.3862 80.4029 59.6914 81.2005 60.0691 81.963C60.4613 82.7231 61.1575 83.3158 62.0136 83.6184L63.397 84.12L64.1414 84.3909C64.1975 84.4122 64.2564 84.431 64.3111 84.4536H64.3234C64.2564 84.4247 64.3234 84.4536 64.3056 84.4536C64.2878 84.4536 64.3467 84.4899 64.3248 84.4724C64.3029 84.4548 64.3097 84.4323 64.3248 84.4724C64.3248 84.4724 64.3248 84.5602 64.3248 84.5276C64.2974 84.5614 64.3248 84.52 64.3248 84.5276C64.2947 84.5627 64.307 84.5276 64.2755 84.5639C64.2974 84.5414 64.3385 84.5414 64.2892 84.5639L64.0771 84.6417L63.3135 84.9201C62.8743 85.0806 62.435 85.2386 61.9958 85.4004C61.5455 85.5633 61.1356 85.8077 60.7907 86.1191C60.4457 86.4304 60.1729 86.8023 59.9883 87.2125C59.8186 87.5888 59.6586 87.9725 59.493 88.3512L59.1728 89.0886L59.0701 89.3244C59.0633 89.342 59.0565 89.3595 59.0483 89.3771C59.0477 89.3808 59.0477 89.3846 59.0483 89.3884C59.0866 89.3131 59.0482 89.3796 59.0387 89.3884C59.0181 89.4147 59.0291 89.3884 59.0387 89.3884L59.014 89.3959C59.0784 89.4084 58.9456 89.3959 58.9771 89.3959C58.9525 89.3783 58.9224 89.3269 58.9552 89.3959C58.9374 89.3608 58.9237 89.3231 58.9087 89.288L58.635 88.661C58.4393 88.2108 58.245 87.7593 58.0479 87.3091C57.7437 86.574 57.1648 85.9616 56.4141 85.581C55.9671 85.3733 55.508 85.1882 55.0388 85.0267C54.5927 84.8637 54.1316 84.7194 53.6937 84.5363C53.6828 84.5363 53.6732 84.5238 53.7074 84.5363C53.7416 84.5489 53.6896 84.52 53.6787 84.5075C53.7074 84.5401 53.6787 84.5276 53.6855 84.5075C53.6732 84.5589 53.6732 84.4322 53.6855 84.4824C53.6787 84.4511 53.7156 84.4586 53.6855 84.4674C53.6965 84.4598 53.7471 84.4297 53.6855 84.4598C53.6978 84.4598 53.7115 84.4498 53.7238 84.4448L54.2972 84.2366L55.8722 83.6622C56.6027 83.4181 57.2334 82.9737 57.6785 82.3894C57.9782 81.9855 58.1478 81.499 58.3435 81.0475L58.936 79.6831C58.9442 79.6655 58.9497 79.6479 58.9579 79.6316C58.9661 79.6153 58.9716 79.6103 58.9579 79.6429C58.9442 79.6755 58.9703 79.6316 58.9881 79.6178C58.9525 79.6442 58.9675 79.6178 58.9949 79.6178C58.9319 79.6066 59.0633 79.6178 59.0318 79.6178C59.0236 79.6178 59.0688 79.6417 59.0318 79.6178C59.066 79.6429 59.0619 79.6442 59.0893 79.6981C59.1355 79.7695 59.2106 79.8213 59.2982 79.8422C59.3859 79.8631 59.479 79.8514 59.5573 79.8097C59.6341 79.7665 59.6897 79.6978 59.7127 79.6179C59.7356 79.538 59.7241 79.4531 59.6804 79.3808C59.6271 79.2823 59.5487 79.1971 59.4518 79.1322C59.3549 79.0673 59.2425 79.0247 59.1239 79.008C59.0053 78.9913 58.8841 79.0009 58.7704 79.0361C58.6567 79.0713 58.554 79.1311 58.4708 79.2103C58.3482 79.3615 58.2555 79.5313 58.1971 79.7119L57.5184 81.2645C57.2789 81.8162 56.9833 82.3229 56.4442 82.6853C56.0118 82.975 55.4863 83.1268 54.9992 83.3124C54.512 83.498 54.018 83.6673 53.5295 83.8491C53.1532 83.9883 52.9 84.3319 53.0382 84.7094C53.1381 84.9828 53.379 85.0969 53.6472 85.1947L55.3043 85.7992C55.8612 86.0011 56.3867 86.2005 56.8095 86.6093C57.2324 87.0182 57.4089 87.4797 57.621 87.9688L58.2628 89.446C58.3791 89.7169 58.5488 89.9477 58.8895 89.9916C59.2891 90.0468 59.5819 89.8248 59.7242 89.5012C59.9295 89.031 60.1348 88.5594 60.3373 88.0891C60.5398 87.6189 60.7026 87.1498 61.0488 86.7661C61.3504 86.4274 61.738 86.1617 62.1778 85.9923C62.3146 85.9397 62.4514 85.892 62.5883 85.8418L64.2728 85.2273C64.4739 85.1533 64.6915 85.0944 64.8338 84.9351C64.909 84.8498 64.9607 84.7492 64.9847 84.6417C65.0087 84.5343 65.0044 84.4231 64.972 84.3176C64.9396 84.212 64.88 84.1151 64.7984 84.0349C64.7168 83.9547 64.6153 83.8936 64.5027 83.8566C64.0538 83.6886 63.6009 83.5281 63.1507 83.3638C62.7005 83.1995 62.1833 83.0515 61.7563 82.8082C61.1583 82.4671 60.7902 81.958 60.5357 81.371L59.8638 79.826L59.7051 79.4586C59.6784 79.3798 59.62 79.3132 59.5417 79.2725C59.4634 79.2317 59.3711 79.2198 59.2836 79.2391C59.1973 79.2625 59.1244 79.3158 59.0805 79.3877C59.0365 79.4597 59.0249 79.5445 59.0483 79.6241Z" fill="#1D1D1B"/>
<path d="M13.6002 0.427931V14.7728C13.6002 15.3425 14.3603 15.3443 14.3603 14.7728V0.427931C14.3603 -0.141759 13.6002 -0.143528 13.6002 0.427931Z" fill="black"/>
<path d="M6.44792 7.60037H21.5114C22.1096 7.60037 22.1115 6.84033 21.5114 6.84033H6.44792C5.85162 6.84033 5.84976 7.60037 6.44792 7.60037Z" fill="black"/>
<path d="M8.41457 2.29331L11.9565 5.83781L17.603 11.4885L18.8995 12.7859C19.3164 13.2031 19.9619 12.5554 19.5468 12.1381L16.0031 8.59363L10.3565 2.95206L9.06189 1.65466C8.64498 1.23745 7.99766 1.88524 8.41457 2.30245V2.29331Z" fill="black"/>
<path d="M9.06189 12.786L12.6038 9.24253L18.2504 3.59818L19.5468 2.30183C19.9619 1.88494 19.3164 1.23767 18.8995 1.65455L15.3576 5.19805L9.71099 10.8424L8.41457 12.1388C7.99766 12.5557 8.64498 13.2029 9.06189 12.786Z" fill="black"/>
</svg>
