<svg width="208" height="44" viewBox="0 0 208 44" fill="none" xmlns="http://www.w3.org/2000/svg">
<rect x="0.5" y="0.5" width="207" height="43" rx="21.5" fill="white" stroke="black"/>
<path d="M15.2814 27L20.0364 16.5H21.5214L26.2914 27H24.7164L20.4714 17.34H21.0714L16.8264 27H15.2814ZM17.3064 24.375L17.7114 23.175H23.6214L24.0564 24.375H17.3064ZM32.4062 27.12C31.6062 27.12 30.8662 26.99 30.1862 26.73C29.5162 26.46 28.9312 26.085 28.4312 25.605C27.9412 25.115 27.5562 24.545 27.2762 23.895C26.9962 23.245 26.8562 22.53 26.8562 21.75C26.8562 20.97 26.9962 20.255 27.2762 19.605C27.5562 18.955 27.9462 18.39 28.4462 17.91C28.9462 17.42 29.5312 17.045 30.2012 16.785C30.8812 16.515 31.6212 16.38 32.4212 16.38C33.2312 16.38 33.9762 16.52 34.6562 16.8C35.3462 17.07 35.9312 17.475 36.4112 18.015L35.4362 18.96C35.0362 18.54 34.5862 18.23 34.0862 18.03C33.5862 17.82 33.0512 17.715 32.4812 17.715C31.8912 17.715 31.3412 17.815 30.8312 18.015C30.3312 18.215 29.8962 18.495 29.5262 18.855C29.1562 19.215 28.8662 19.645 28.6562 20.145C28.4562 20.635 28.3562 21.17 28.3562 21.75C28.3562 22.33 28.4562 22.87 28.6562 23.37C28.8662 23.86 29.1562 24.285 29.5262 24.645C29.8962 25.005 30.3312 25.285 30.8312 25.485C31.3412 25.685 31.8912 25.785 32.4812 25.785C33.0512 25.785 33.5862 25.685 34.0862 25.485C34.5862 25.275 35.0362 24.955 35.4362 24.525L36.4112 25.47C35.9312 26.01 35.3462 26.42 34.6562 26.7C33.9762 26.98 33.2262 27.12 32.4062 27.12ZM43.0263 27.12C42.2263 27.12 41.4863 26.99 40.8063 26.73C40.1363 26.46 39.5513 26.085 39.0513 25.605C38.5613 25.115 38.1763 24.545 37.8963 23.895C37.6163 23.245 37.4763 22.53 37.4763 21.75C37.4763 20.97 37.6163 20.255 37.8963 19.605C38.1763 18.955 38.5663 18.39 39.0663 17.91C39.5663 17.42 40.1513 17.045 40.8213 16.785C41.5013 16.515 42.2413 16.38 43.0413 16.38C43.8513 16.38 44.5963 16.52 45.2763 16.8C45.9663 17.07 46.5513 17.475 47.0313 18.015L46.0563 18.96C45.6563 18.54 45.2063 18.23 44.7063 18.03C44.2063 17.82 43.6713 17.715 43.1013 17.715C42.5113 17.715 41.9613 17.815 41.4513 18.015C40.9513 18.215 40.5163 18.495 40.1463 18.855C39.7763 19.215 39.4863 19.645 39.2763 20.145C39.0763 20.635 38.9763 21.17 38.9763 21.75C38.9763 22.33 39.0763 22.87 39.2763 23.37C39.4863 23.86 39.7763 24.285 40.1463 24.645C40.5163 25.005 40.9513 25.285 41.4513 25.485C41.9613 25.685 42.5113 25.785 43.1013 25.785C43.6713 25.785 44.2063 25.685 44.7063 25.485C45.2063 25.275 45.6563 24.955 46.0563 24.525L47.0313 25.47C46.5513 26.01 45.9663 26.42 45.2763 26.7C44.5963 26.98 43.8463 27.12 43.0263 27.12ZM50.5362 21.03H55.9362V22.305H50.5362V21.03ZM50.6712 25.695H56.7912V27H49.1712V16.5H56.5812V17.805H50.6712V25.695ZM59.22 27V16.5H63.315C64.235 16.5 65.02 16.645 65.67 16.935C66.32 17.225 66.82 17.645 67.17 18.195C67.52 18.745 67.695 19.4 67.695 20.16C67.695 20.92 67.52 21.575 67.17 22.125C66.82 22.665 66.32 23.085 65.67 23.385C65.02 23.675 64.235 23.82 63.315 23.82H60.045L60.72 23.115V27H59.22ZM60.72 23.265L60.045 22.515H63.27C64.23 22.515 64.955 22.31 65.445 21.9C65.945 21.49 66.195 20.91 66.195 20.16C66.195 19.41 65.945 18.83 65.445 18.42C64.955 18.01 64.23 17.805 63.27 17.805H60.045L60.72 17.055V23.265ZM71.6468 27V17.805H68.0468V16.5H76.7318V17.805H73.1318V27H71.6468ZM79.7305 21.03H85.1305V22.305H79.7305V21.03ZM79.8655 25.695H85.9855V27H78.3655V16.5H85.7755V17.805H79.8655V25.695ZM88.4144 27V16.5H92.5094C93.4294 16.5 94.2144 16.645 94.8644 16.935C95.5144 17.225 96.0144 17.645 96.3644 18.195C96.7144 18.745 96.8894 19.4 96.8894 20.16C96.8894 20.92 96.7144 21.575 96.3644 22.125C96.0144 22.665 95.5144 23.08 94.8644 23.37C94.2144 23.66 93.4294 23.805 92.5094 23.805H89.2394L89.9144 23.115V27H88.4144ZM95.4344 27L92.7644 23.19H94.3694L97.0694 27H95.4344ZM89.9144 23.265L89.2394 22.53H92.4644C93.4244 22.53 94.1494 22.325 94.6394 21.915C95.1394 21.495 95.3894 20.91 95.3894 20.16C95.3894 19.41 95.1394 18.83 94.6394 18.42C94.1494 18.01 93.4244 17.805 92.4644 17.805H89.2394L89.9144 17.055V23.265ZM103.341 27V16.5H104.841V25.695H110.526V27H103.341ZM110.657 27L115.412 16.5H116.897L121.667 27H120.092L115.847 17.34H116.447L112.202 27H110.657ZM112.682 24.375L113.087 23.175H118.997L119.432 24.375H112.682ZM127.262 27V16.5H128.492L133.202 24.435H132.542L137.192 16.5H138.422L138.437 27H136.997L136.982 18.765H137.327L133.187 25.725H132.497L128.327 18.765H128.702V27H127.262ZM141.588 27V16.5H143.088V27H141.588ZM149.292 27.12C148.492 27.12 147.727 27 146.997 26.76C146.267 26.51 145.692 26.19 145.272 25.8L145.827 24.63C146.227 24.98 146.737 25.27 147.357 25.5C147.977 25.73 148.622 25.845 149.292 25.845C149.902 25.845 150.397 25.775 150.777 25.635C151.157 25.495 151.437 25.305 151.617 25.065C151.797 24.815 151.887 24.535 151.887 24.225C151.887 23.865 151.767 23.575 151.527 23.355C151.297 23.135 150.992 22.96 150.612 22.83C150.242 22.69 149.832 22.57 149.382 22.47C148.932 22.37 148.477 22.255 148.017 22.125C147.567 21.985 147.152 21.81 146.772 21.6C146.402 21.39 146.102 21.11 145.872 20.76C145.642 20.4 145.527 19.94 145.527 19.38C145.527 18.84 145.667 18.345 145.947 17.895C146.237 17.435 146.677 17.07 147.267 16.8C147.867 16.52 148.627 16.38 149.547 16.38C150.157 16.38 150.762 16.46 151.362 16.62C151.962 16.78 152.482 17.01 152.922 17.31L152.427 18.51C151.977 18.21 151.502 17.995 151.002 17.865C150.502 17.725 150.017 17.655 149.547 17.655C148.957 17.655 148.472 17.73 148.092 17.88C147.712 18.03 147.432 18.23 147.252 18.48C147.082 18.73 146.997 19.01 146.997 19.32C146.997 19.69 147.112 19.985 147.342 20.205C147.582 20.425 147.887 20.6 148.257 20.73C148.637 20.86 149.052 20.98 149.502 21.09C149.952 21.19 150.402 21.305 150.852 21.435C151.312 21.565 151.727 21.735 152.097 21.945C152.477 22.155 152.782 22.435 153.012 22.785C153.242 23.135 153.357 23.585 153.357 24.135C153.357 24.665 153.212 25.16 152.922 25.62C152.632 26.07 152.182 26.435 151.572 26.715C150.972 26.985 150.212 27.12 149.292 27.12ZM158.608 27.12C157.808 27.12 157.043 27 156.313 26.76C155.583 26.51 155.008 26.19 154.588 25.8L155.143 24.63C155.543 24.98 156.053 25.27 156.673 25.5C157.293 25.73 157.938 25.845 158.608 25.845C159.218 25.845 159.713 25.775 160.093 25.635C160.473 25.495 160.753 25.305 160.933 25.065C161.113 24.815 161.203 24.535 161.203 24.225C161.203 23.865 161.083 23.575 160.843 23.355C160.613 23.135 160.308 22.96 159.928 22.83C159.558 22.69 159.148 22.57 158.698 22.47C158.248 22.37 157.793 22.255 157.333 22.125C156.883 21.985 156.468 21.81 156.088 21.6C155.718 21.39 155.418 21.11 155.188 20.76C154.958 20.4 154.843 19.94 154.843 19.38C154.843 18.84 154.983 18.345 155.263 17.895C155.553 17.435 155.993 17.07 156.583 16.8C157.183 16.52 157.943 16.38 158.863 16.38C159.473 16.38 160.078 16.46 160.678 16.62C161.278 16.78 161.798 17.01 162.238 17.31L161.743 18.51C161.293 18.21 160.818 17.995 160.318 17.865C159.818 17.725 159.333 17.655 158.863 17.655C158.273 17.655 157.788 17.73 157.408 17.88C157.028 18.03 156.748 18.23 156.568 18.48C156.398 18.73 156.313 19.01 156.313 19.32C156.313 19.69 156.428 19.985 156.658 20.205C156.898 20.425 157.203 20.6 157.573 20.73C157.953 20.86 158.368 20.98 158.818 21.09C159.268 21.19 159.718 21.305 160.168 21.435C160.628 21.565 161.043 21.735 161.413 21.945C161.793 22.155 162.098 22.435 162.328 22.785C162.558 23.135 162.673 23.585 162.673 24.135C162.673 24.665 162.528 25.16 162.238 25.62C161.948 26.07 161.498 26.435 160.888 26.715C160.288 26.985 159.528 27.12 158.608 27.12ZM164.865 27V16.5H166.365V27H164.865ZM174.248 27.12C173.448 27.12 172.703 26.985 172.013 26.715C171.333 26.445 170.743 26.07 170.243 25.59C169.743 25.1 169.353 24.53 169.073 23.88C168.793 23.23 168.653 22.52 168.653 21.75C168.653 20.98 168.793 20.27 169.073 19.62C169.353 18.97 169.743 18.405 170.243 17.925C170.743 17.435 171.333 17.055 172.013 16.785C172.693 16.515 173.438 16.38 174.248 16.38C175.048 16.38 175.783 16.515 176.453 16.785C177.133 17.045 177.723 17.42 178.223 17.91C178.733 18.39 179.123 18.955 179.393 19.605C179.673 20.255 179.813 20.97 179.813 21.75C179.813 22.53 179.673 23.245 179.393 23.895C179.123 24.545 178.733 25.115 178.223 25.605C177.723 26.085 177.133 26.46 176.453 26.73C175.783 26.99 175.048 27.12 174.248 27.12ZM174.248 25.785C174.828 25.785 175.363 25.685 175.853 25.485C176.353 25.285 176.783 25.005 177.143 24.645C177.513 24.275 177.798 23.845 177.998 23.355C178.208 22.865 178.313 22.33 178.313 21.75C178.313 21.17 178.208 20.635 177.998 20.145C177.798 19.655 177.513 19.23 177.143 18.87C176.783 18.5 176.353 18.215 175.853 18.015C175.363 17.815 174.828 17.715 174.248 17.715C173.658 17.715 173.113 17.815 172.613 18.015C172.123 18.215 171.693 18.5 171.323 18.87C170.953 19.23 170.663 19.655 170.453 20.145C170.253 20.635 170.153 21.17 170.153 21.75C170.153 22.33 170.253 22.865 170.453 23.355C170.663 23.845 170.953 24.275 171.323 24.645C171.693 25.005 172.123 25.285 172.613 25.485C173.113 25.685 173.658 25.785 174.248 25.785ZM182.106 27V16.5H183.336L190.281 25.125H189.636V16.5H191.136V27H189.906L182.961 18.375H183.606V27H182.106Z" fill="black"/>
</svg>
