<svg width="42" height="42" viewBox="0 0 42 42" fill="none" xmlns="http://www.w3.org/2000/svg">
<g clip-path="url(#clip0_346_2)">
<path d="M35.6415 6.35848C31.8828 2.59975 26.7045 0.265823 21 0.265823C15.2954 0.265823 10.1172 2.59975 6.35847 6.35848C2.59973 10.1119 0.265808 15.3008 0.265808 21C0.265808 32.4038 9.59619 41.7342 21 41.7342C26.7045 41.7342 31.8828 39.4003 35.6415 35.6415C39.4002 31.8881 41.7342 26.6992 41.7342 21C41.7342 15.3008 39.4002 10.1119 35.6415 6.35848Z" stroke="white" stroke-miterlimit="10"/>
<path d="M34.2805 12.6266V30.66H7.76733V12.6266H11.2177V27.3159C11.2177 27.3159 20.7235 28.2889 21.0213 30.5962V14.1365H21.0266V30.5909C21.3243 28.2835 30.8301 27.3106 30.8301 27.3106V12.6266H34.2805Z" stroke="white" stroke-linecap="round" stroke-linejoin="round"/>
<path d="M30.8301 11.3453V27.3159C30.8301 27.3159 21.3243 28.2889 21.0266 30.5962V14.1365C21.0957 14.0833 22.1962 13.3337 24.0357 12.6266C25.7369 11.9673 28.0762 11.3453 30.8354 11.3453H30.8301Z" stroke="white" stroke-linecap="round" stroke-linejoin="round"/>
<path d="M21.0266 14.1365V30.5909C21.0266 30.5909 21.0266 30.6175 21.0266 30.6281C21.0266 30.6387 21.0266 30.6494 21.0266 30.6547C21.0266 30.6706 21.0266 30.6866 21.0266 30.7025V14.1365ZM21.0266 14.1365H21.0319" stroke="white" stroke-linecap="round" stroke-linejoin="round"/>
<path d="M21.0266 14.1365V30.5962C20.7288 28.2889 11.223 27.3159 11.223 27.3159V11.3453C13.9769 11.3453 16.3162 11.9673 18.0228 12.6266C19.5433 13.2114 21.0213 14.1258 21.0319 14.1365H21.0266Z" stroke="white" stroke-linecap="round" stroke-linejoin="round"/>
<path d="M21.0266 14.1365V30.7025C21.0266 30.7025 21.0266 30.6706 21.0266 30.6547C21.0266 30.644 21.0266 30.6387 21.0266 30.6281C21.0266 30.6175 21.0266 30.6015 21.0266 30.5909V14.1365ZM21.0266 14.1365H21.0319" stroke="white" stroke-linecap="round" stroke-linejoin="round"/>
<path d="M19.8197 16.9063C19.2934 16.6299 18.6448 16.3162 17.9909 16.061C16.5448 15.5028 14.6362 14.9711 12.4033 14.8223" stroke="white" stroke-linecap="round" stroke-linejoin="round"/>
<path d="M12.4033 18.8787C14.6362 19.0276 16.5448 19.5592 17.9909 20.1175C18.6448 20.3727 19.2934 20.6863 19.8197 20.9628" stroke="white" stroke-linecap="round" stroke-linejoin="round"/>
<path d="M12.4033 22.9352C14.6362 23.084 16.5448 23.6157 17.9909 24.1739C18.6448 24.4291 19.2934 24.7428 19.8197 25.0192" stroke="white" stroke-linecap="round" stroke-linejoin="round"/>
<path d="M22.2334 16.8957C22.7544 16.6246 23.3924 16.3162 24.0357 16.0663C25.4924 15.5081 27.4063 14.9711 29.6499 14.8276" stroke="white" stroke-linecap="round" stroke-linejoin="round"/>
<path d="M22.2334 20.9468C22.7544 20.6757 23.3924 20.3673 24.0357 20.1175C25.4924 19.5592 27.4063 19.0223 29.6499 18.8787" stroke="white" stroke-linecap="round" stroke-linejoin="round"/>
<path d="M22.2334 25.0033C22.7544 24.7321 23.3924 24.4238 24.0357 24.1739C25.4924 23.6157 27.4063 23.0787 29.6499 22.9352" stroke="white" stroke-linecap="round" stroke-linejoin="round"/>
</g>
<defs>
<clipPath id="clip0_346_2">
<rect width="42" height="42" fill="white"/>
</clipPath>
</defs>
</svg>
