<svg width="45" height="45" viewBox="0 0 45 45" fill="none" xmlns="http://www.w3.org/2000/svg">
<path d="M44 22.5C44 10.6259 34.3741 1 22.5 1C10.6259 1 1 10.6259 1 22.5C1 34.3741 10.6259 44 22.5 44C34.3741 44 44 34.3741 44 22.5Z" stroke="black" stroke-miterlimit="10"/>
<path d="M30.4715 20.5044H14.5284C13.6029 20.5044 12.8525 21.2547 12.8525 22.1803V33.7131C12.8525 34.6387 13.6029 35.389 14.5284 35.389H30.4715C31.3971 35.389 32.1474 34.6387 32.1474 33.7131V22.1803C32.1474 21.2547 31.3971 20.5044 30.4715 20.5044Z" stroke="black" stroke-miterlimit="10"/>
<path d="M30.7692 16.6454C30.7692 12.0808 27.0646 8.37616 22.4999 8.37616C17.9353 8.37616 14.2307 12.0808 14.2307 16.6454V20.5044H16.4358V16.6454C16.4358 13.2936 19.1481 10.5813 22.4999 10.5813C25.8517 10.5813 28.564 13.2936 28.564 16.6454V20.5044H30.7692V16.6454Z" stroke="black" stroke-miterlimit="10"/>
</svg>
