<svg width="45" height="45" viewBox="0 0 45 45" fill="none" xmlns="http://www.w3.org/2000/svg">
<path d="M44 22.5C44 10.6259 34.3741 1 22.5 1C10.6259 1 1 10.6259 1 22.5C1 34.3741 10.6259 44 22.5 44C34.3741 44 44 34.3741 44 22.5Z" stroke="black" stroke-miterlimit="10"/>
<path d="M16.0501 16.9155H9.26929V28.0845H16.0501L24.4295 32.0758V12.9242L16.0501 16.9155Z" stroke="black" stroke-miterlimit="10"/>
<path d="M31.4639 31.552C33.7572 29.2367 35.174 26.0558 35.174 22.5386C35.174 19.0214 33.7297 15.7688 31.3867 13.4479" stroke="black" stroke-linecap="round" stroke-linejoin="round"/>
<path d="M28.4373 28.5365C29.9644 26.993 30.9126 24.8705 30.9126 22.5276C30.9126 20.1846 29.9478 18.0126 28.3877 16.469" stroke="black" stroke-linecap="round" stroke-linejoin="round"/>
</svg>
