<svg width="42" height="42" viewBox="0 0 42 42" fill="none" xmlns="http://www.w3.org/2000/svg">
<g clip-path="url(#clip0_21_605)">
<path d="M41.7342 21C41.7342 9.54883 32.4512 0.265823 21 0.265823C9.54882 0.265823 0.265808 9.54883 0.265808 21C0.265808 32.4512 9.54882 41.7342 21 41.7342C32.4512 41.7342 41.7342 32.4512 41.7342 21Z" stroke="white" stroke-miterlimit="10"/>
<path d="M14.7797 15.6144H8.24048V26.3856H14.7797L22.8607 30.2347V11.7653L14.7797 15.6144Z" stroke="white" stroke-miterlimit="10"/>
<path d="M29.6446 29.7296C31.8562 27.4967 33.2225 24.4291 33.2225 21.0372C33.2225 17.6453 31.8296 14.5086 29.5701 12.2704" stroke="white" stroke-linecap="round" stroke-linejoin="round"/>
<path d="M26.7258 26.8215C28.1985 25.3329 29.1129 23.2861 29.1129 21.0266C29.1129 18.7671 28.1825 16.6724 26.678 15.1838" stroke="white" stroke-linecap="round" stroke-linejoin="round"/>
</g>
<defs>
<clipPath id="clip0_21_605">
<rect width="42" height="42" fill="white"/>
</clipPath>
</defs>
</svg>
