<svg width="42" height="42" viewBox="0 0 42 42" fill="none" xmlns="http://www.w3.org/2000/svg">
<g clip-path="url(#clip0_21_615)">
<path d="M35.6415 6.35848C31.8828 2.59975 26.7045 0.265823 21 0.265823C15.2954 0.265823 10.1172 2.59975 6.35847 6.35848C2.59973 10.1119 0.265808 15.3008 0.265808 21C0.265808 32.4038 9.59619 41.7342 21 41.7342C26.7045 41.7342 31.8828 39.4003 35.6415 35.6415C39.4002 31.8881 41.7342 26.6992 41.7342 21C41.7342 15.3008 39.4002 10.1119 35.6415 6.35848Z" stroke="white" stroke-miterlimit="10"/>
<path d="M14.2747 23.6582C14.4076 24.2165 14.6096 24.7534 14.8701 25.2532H14.4023C12.2704 25.2532 10.5425 23.5253 10.5425 21.3934V15.439C10.5425 14.397 11.3825 13.557 12.4246 13.557H14.0886V22.0633C14.0886 22.6109 14.1524 23.1478 14.2747 23.6582Z" stroke="white" stroke-miterlimit="10"/>
<path d="M31.2767 15.439V21.42C31.2767 23.5359 29.5595 25.2532 27.4436 25.2532H27.1299C27.3904 24.7534 27.5924 24.2165 27.7253 23.6582C27.8476 23.1478 27.9114 22.6109 27.9114 22.0633V13.557H29.3947C30.4367 13.557 31.2767 14.397 31.2767 15.439Z" stroke="white" stroke-miterlimit="10"/>
<path d="M28.0868 33.4884V34.2911H13.9078V33.4884C13.9078 32.1699 14.9764 31.1013 16.2949 31.1013H18.6926V28.5706C17.0392 27.9858 15.6729 26.7896 14.8701 25.2532C14.6096 24.7534 14.4076 24.2165 14.2747 23.6582C14.1524 23.1478 14.0886 22.6109 14.0886 22.0633V9.83544H27.9114V22.0633C27.9114 22.6109 27.8476 23.1478 27.7253 23.6582C27.5924 24.2165 27.3904 24.7534 27.1299 25.2532C26.3271 26.7896 24.9607 27.9858 23.302 28.5706V31.1013H25.6997C27.0182 31.1013 28.0868 32.1699 28.0868 33.4884Z" stroke="white" stroke-miterlimit="10"/>
<path d="M14.0886 22.0633C14.0886 22.6109 14.1524 23.1479 14.2747 23.6582C13.0944 23.6582 12.1375 22.7013 12.1375 21.521V16.0185C12.1375 15.54 12.5256 15.1519 13.004 15.1519H14.0886V22.0633Z" stroke="white" stroke-miterlimit="10"/>
<path d="M29.6818 16.0185V21.7018C29.6818 22.781 28.8046 23.6582 27.7253 23.6582C27.8476 23.1479 27.9114 22.6109 27.9114 22.0633V15.1519H28.8152C29.2937 15.1519 29.6818 15.54 29.6818 16.0185Z" stroke="white" stroke-miterlimit="10"/>
</g>
<defs>
<clipPath id="clip0_21_615">
<rect width="42" height="42" fill="white"/>
</clipPath>
</defs>
</svg>
