<svg width="45" height="45" viewBox="0 0 45 45" fill="none" xmlns="http://www.w3.org/2000/svg">
<path d="M37.6823 7.31769C33.7847 3.42013 28.4153 1 22.5 1C16.5847 1 11.2153 3.42013 7.31769 7.31769C3.42013 11.2097 1 16.5903 1 22.5C1 34.325 10.675 44 22.5 44C28.4153 44 33.7847 41.5799 37.6823 37.6823C41.5799 33.7903 44 28.4097 44 22.5C44 16.5903 41.5799 11.2097 37.6823 7.31769Z" stroke="black" stroke-miterlimit="10"/>
<path d="M15.5263 25.2564C15.6641 25.8352 15.8736 26.392 16.1437 26.9102H15.6586C13.4479 26.9102 11.6562 25.1186 11.6562 22.9079V16.7336C11.6562 15.6531 12.5273 14.782 13.6078 14.782H15.3333V23.6026C15.3333 24.1704 15.3995 24.7272 15.5263 25.2564Z" stroke="black" stroke-miterlimit="10"/>
<path d="M33.1562 16.7336V22.9355C33.1562 25.1296 31.3756 26.9102 29.1815 26.9102H28.8562C29.1263 26.392 29.3358 25.8352 29.4736 25.2564C29.6004 24.7272 29.6666 24.1704 29.6666 23.6026V14.782H31.2047C32.2852 14.782 33.1562 15.6531 33.1562 16.7336Z" stroke="black" stroke-miterlimit="10"/>
<path d="M29.8484 35.4496V36.2821H15.1458V35.4496C15.1458 34.0824 16.2538 32.9744 17.621 32.9744H20.1073V30.3503C18.3928 29.7439 16.976 28.5035 16.1436 26.9103C15.8734 26.3921 15.664 25.8353 15.5261 25.2564C15.3993 24.7272 15.3332 24.1704 15.3332 23.6026V10.9231H29.6665V23.6026C29.6665 24.1704 29.6004 24.7272 29.4736 25.2564C29.3358 25.8353 29.1263 26.3921 28.8561 26.9103C28.0237 28.5035 26.6069 29.7439 24.8869 30.3503V32.9744H27.3732C28.7404 32.9744 29.8484 34.0824 29.8484 35.4496Z" stroke="black" stroke-miterlimit="10"/>
<path d="M15.3333 23.6026C15.3333 24.1704 15.3994 24.7272 15.5262 25.2564C14.3024 25.2564 13.3101 24.2641 13.3101 23.0403V17.3345C13.3101 16.8383 13.7125 16.4359 14.2086 16.4359H15.3333V23.6026Z" stroke="black" stroke-miterlimit="10"/>
<path d="M31.5024 17.3345V23.2277C31.5024 24.3468 30.5927 25.2564 29.4736 25.2564C29.6004 24.7272 29.6666 24.1704 29.6666 23.6026V16.4359H30.6038C31.0999 16.4359 31.5024 16.8383 31.5024 17.3345Z" stroke="black" stroke-miterlimit="10"/>
</svg>
