<svg width="142" height="206" viewBox="0 0 142 206" fill="none" xmlns="http://www.w3.org/2000/svg">
<g clip-path="url(#clip0_39_330)">
<path d="M76.955 4.28734L84.6326 26.2286C84.9281 27.0804 85.3962 27.8594 86.0065 28.5151C86.6169 29.1707 87.356 29.6883 88.1755 30.0342C88.9951 30.3802 89.8768 30.5467 90.7637 30.5231C91.6505 30.4994 92.5226 30.2861 93.3232 29.8969L113.992 19.9007C115.173 19.3223 116.502 19.132 117.795 19.3561C119.087 19.5802 120.279 20.2076 121.206 21.1516C122.133 22.0956 122.75 23.3096 122.97 24.6258C123.19 25.9419 123.003 27.2951 122.435 28.4983L112.618 49.5454C112.236 50.3607 112.027 51.2488 112.003 52.1519C111.98 53.055 112.144 53.953 112.484 54.7876C112.823 55.6221 113.331 56.3746 113.975 56.9962C114.619 57.6177 115.384 58.0944 116.221 58.3953L137.767 66.2134C139.002 66.6568 140.071 67.4793 140.827 68.5675C141.583 69.6557 141.989 70.956 141.989 72.2891C141.989 73.6222 141.583 74.9225 140.827 76.0107C140.071 77.0989 139.002 77.9214 137.767 78.3648L116.221 86.1829C115.384 86.4838 114.619 86.9605 113.975 87.5821C113.331 88.2036 112.823 88.9561 112.484 89.7906C112.144 90.6252 111.98 91.5232 112.003 92.4263C112.027 93.3294 112.236 94.2175 112.618 95.0328L122.435 116.08C123.003 117.283 123.19 118.636 122.97 119.952C122.75 121.269 122.133 122.483 121.206 123.427C120.279 124.371 119.087 124.998 117.795 125.222C116.502 125.446 115.173 125.256 113.992 124.678L93.3232 114.681C92.5226 114.292 91.6505 114.079 90.7637 114.055C89.8768 114.031 88.9951 114.198 88.1755 114.544C87.356 114.89 86.6169 115.407 86.0065 116.063C85.3962 116.719 84.9281 117.498 84.6326 118.35L76.955 140.291C76.5196 141.548 75.712 142.637 74.6434 143.407C73.5748 144.177 72.298 144.59 70.9889 144.59C69.6797 144.59 68.4027 144.177 67.3341 143.407C66.2655 142.637 65.4579 141.548 65.0224 140.291L57.3448 118.35C57.0494 117.498 56.5813 116.719 55.9709 116.063C55.3606 115.407 54.6215 114.89 53.8019 114.544C52.9824 114.198 52.1006 114.031 51.2138 114.055C50.3269 114.079 49.4549 114.292 48.6542 114.681L27.9856 124.678C26.804 125.256 25.4752 125.446 24.1827 125.222C22.8903 124.998 21.6982 124.371 20.7712 123.427C19.8441 122.483 19.2279 121.269 19.0078 119.952C18.7877 118.636 18.9746 117.283 19.5426 116.08L29.3593 95.0328C29.7414 94.2175 29.9509 93.3294 29.9741 92.4263C29.9973 91.5232 29.8337 90.6252 29.4939 89.7906C29.1542 88.9561 28.646 88.2036 28.0021 87.5821C27.3583 86.9605 26.5932 86.4838 25.7567 86.1829L4.2103 78.3648C2.97572 77.9214 1.90649 77.0989 1.15026 76.0107C0.394035 74.9225 -0.0120239 73.6222 -0.0120239 72.2891C-0.0120239 70.956 0.394035 69.6557 1.15026 68.5675C1.90649 67.4793 2.97572 66.6568 4.2103 66.2134L25.7567 58.3953C26.5932 58.0944 27.3583 57.6177 28.0021 56.9962C28.646 56.3746 29.1542 55.6221 29.4939 54.7876C29.8337 53.953 29.9973 53.055 29.9741 52.1519C29.9509 51.2488 29.7414 50.3607 29.3593 49.5454L19.6553 28.4983C19.0873 27.2951 18.9004 25.9419 19.1205 24.6258C19.3406 23.3096 19.9568 22.0956 20.8838 21.1516C21.8109 20.2076 23.003 19.5802 24.2954 19.3561C25.5878 19.132 26.9167 19.3223 28.0983 19.9007L48.7669 29.8969C49.5675 30.2861 50.4396 30.4994 51.3265 30.5231C52.2133 30.5467 53.0951 30.3802 53.9146 30.0342C54.7342 29.6883 55.473 29.1707 56.0833 28.5151C56.6937 27.8594 57.162 27.0804 57.4575 26.2286L65.1348 4.28734C65.592 3.06849 66.4021 2.01973 67.4575 1.27983C68.5128 0.539942 69.7637 0.143799 71.0449 0.143799C72.3262 0.143799 73.5773 0.539942 74.6327 1.27983C75.688 2.01973 76.4978 3.06849 76.955 4.28734Z" fill="#F9DA1B"/>
<path d="M76.6174 170.486H59.3937C54.5194 170.486 50.5679 174.51 50.5679 179.473V197.012C50.5679 201.976 54.5194 206 59.3937 206H76.6174C81.4917 206 85.4432 201.976 85.4432 197.012V179.473C85.4432 174.51 81.4917 170.486 76.6174 170.486Z" fill="#9185BE"/>
<path d="M84.0247 170.486H66.801C61.9267 170.486 57.9753 174.51 57.9753 179.473V197.012C57.9753 201.976 61.9267 206 66.801 206H84.0247C88.8991 206 92.8505 201.976 92.8505 197.012V179.473C92.8505 174.51 88.8991 170.486 84.0247 170.486Z" fill="#9185BE"/>
<path d="M100.708 124.93L84.9477 161.063L82.6963 166.244C81.9533 167.895 84.3848 169.362 85.1277 167.689L100.888 131.579L103.139 126.42C103.882 124.746 101.451 123.279 100.708 124.976V124.93Z" fill="black"/>
<path d="M40.3012 126.374L56.0615 162.461L58.313 167.643C59.0335 169.317 61.4649 167.849 60.7219 166.198L44.9617 130.088L42.7102 124.93C41.9672 123.233 39.5582 124.7 40.2787 126.374H40.3012Z" fill="black"/>
</g>
<defs>
<clipPath id="clip0_39_330">
<rect width="142" height="206" fill="white"/>
</clipPath>
</defs>
</svg>
