<svg width="97" height="97" viewBox="0 0 97 97" fill="none" xmlns="http://www.w3.org/2000/svg">
<path d="M77.1679 0H19.8321C8.87913 0 0 8.87913 0 19.8321V77.1679C0 88.1209 8.87913 97 19.8321 97H77.1679C88.1209 97 97 88.1209 97 77.1679V19.8321C97 8.87913 88.1209 0 77.1679 0Z" fill="#9185BE"/>
<path d="M48.9038 80.9434C67.2313 80.9434 82.0886 66.086 82.0886 47.7585C82.0886 29.4311 67.2313 14.5737 48.9038 14.5737C30.5763 14.5737 15.719 29.4311 15.719 47.7585C15.719 66.086 30.5763 80.9434 48.9038 80.9434Z" fill="#F9DA1B"/>
<path d="M51.4019 10.7788L53.6458 17.0679L55.1346 21.2568C55.3947 21.9886 55.6082 22.7786 55.9615 23.4755C56.9631 25.4496 59.3875 26.16 61.3519 25.2535C62.0429 24.9352 62.7281 24.5994 63.4152 24.2733L71.5348 20.4124C72.2724 20.063 73.078 19.5661 73.8971 19.4419C75.976 19.143 77.8142 21.1889 77.3076 23.2173C77.1135 23.9802 76.6709 24.7139 76.3371 25.4185L74.4154 29.4385C73.4604 31.4495 72.4743 33.4488 71.5484 35.4694C70.5895 37.5561 71.4669 40.0795 73.6195 40.986C74.2989 41.2733 75.0113 41.4907 75.7043 41.7372L84.1946 44.7575C84.874 44.9982 85.5883 45.2001 86.2463 45.4971C86.9866 45.8429 87.5621 46.4646 87.8498 47.2293C88.1375 47.994 88.1144 48.841 87.7856 49.5889C87.3275 50.6157 86.4268 51.0641 85.4466 51.4174L81.939 52.6655L74.2213 55.4102C73.869 55.5232 73.5269 55.6654 73.1983 55.8353C72.729 56.1045 72.3177 56.4641 71.9882 56.8932C71.6587 57.3223 71.4175 57.8125 71.2786 58.3355C71.0357 59.2838 71.1354 60.2874 71.56 61.1694C71.661 61.3868 71.7542 61.6004 71.8667 61.8139L75.58 69.6093L76.9737 72.5403C77.1747 72.9255 77.3105 73.3414 77.3755 73.771C77.425 74.269 77.3535 74.7715 77.1669 75.2359C76.9803 75.7003 76.6843 76.1127 76.3041 76.438C75.9191 76.7754 75.4552 77.0101 74.9554 77.1204C74.4556 77.2307 73.936 77.213 73.4448 77.0689C73.1607 76.9745 72.8842 76.8583 72.6179 76.7214L69.4578 75.2229L61.8371 71.6008C61.643 71.5077 61.4489 71.4067 61.2548 71.3213C60.7496 71.092 60.2029 70.9682 59.6482 70.9575C59.0934 70.9468 58.5424 71.0495 58.0287 71.2592C57.5199 71.4686 57.0586 71.7786 56.6723 72.1705C56.2861 72.5624 55.9829 73.0282 55.7809 73.54C55.6955 73.7535 55.6237 73.9709 55.5461 74.1883L52.7257 82.1196L51.561 85.4194C51.4832 85.6668 51.3905 85.9092 51.2835 86.1454C51.1024 86.5234 50.8448 86.8597 50.5271 87.133C50.2093 87.4063 49.8383 87.6107 49.4375 87.7332C48.6787 87.9678 47.8588 87.9028 47.1465 87.5515C46.4342 87.2002 45.8835 86.5893 45.6077 85.8445C45.3515 85.1477 45.1088 84.445 44.8604 83.7462L41.8459 75.2695C41.5741 74.5047 41.3528 73.6312 40.9316 72.9305C39.8407 71.1078 37.5464 70.5022 35.6538 71.3776C33.5186 72.3676 31.3931 73.4022 29.2638 74.4135L25.3641 76.2672C24.6149 76.6244 23.7899 77.1329 22.9494 77.195C20.7967 77.3503 19.1119 75.1957 19.7815 73.1498C20.0125 72.4452 20.4085 71.7697 20.7269 71.102L24.609 62.9378C24.9215 62.2836 25.2554 61.6334 25.5408 60.9656C25.7527 60.4529 25.8584 59.9024 25.8514 59.3476C25.8444 58.7928 25.7249 58.2452 25.5 57.7379C25.2752 57.2307 24.9497 56.7744 24.5433 56.3966C24.1369 56.0189 23.658 55.7275 23.1357 55.5403C21.0607 54.7638 18.9644 54.0573 16.8796 53.3158L12.6811 51.8231C11.9997 51.5785 11.2485 51.3883 10.6041 51.0467C9.88182 50.658 9.34103 50.0012 9.09816 49.2178C8.85529 48.4344 8.92975 47.5869 9.3055 46.8578C9.81213 45.8989 10.6876 45.5126 11.6445 45.1729L19.7388 42.2943L22.8446 41.1918C23.2441 41.0662 23.6277 40.8949 23.9879 40.6813C24.4495 40.388 24.8474 40.0049 25.1578 39.5547C25.4683 39.1045 25.685 38.5965 25.795 38.0608C25.9649 37.1743 25.8444 36.2568 25.4515 35.4442C25.3408 35.2055 25.2263 34.9667 25.1118 34.728L23.4463 31.2243L20.0242 24.0267C19.803 23.599 19.671 23.1308 19.636 22.6505C19.62 22.1495 19.7245 21.652 19.9407 21.1997C20.1568 20.7474 20.4784 20.3536 20.8783 20.0514C21.2953 19.7354 21.7862 19.5314 22.3043 19.4587C22.8224 19.3859 23.3506 19.447 23.8384 19.636C24.0578 19.7195 24.2674 19.8301 24.479 19.931L32.0803 23.5453L35.2559 25.0536C35.4966 25.1681 35.7373 25.2884 35.9857 25.3874C36.5018 25.5879 37.0534 25.6812 37.6067 25.6615C38.16 25.6418 38.7035 25.5096 39.2041 25.2729C40.1834 24.8006 40.9358 23.9596 41.2966 22.9339C41.3664 22.7398 41.4305 22.5573 41.4907 22.369L42.7194 18.912L45.4835 11.1476C45.8484 10.1208 46.454 9.25313 47.5488 8.91344C48.3077 8.67076 49.1309 8.72904 49.8481 9.07624C50.5652 9.42344 51.1215 10.033 51.4019 10.7788C51.6154 11.3611 52.5549 11.1088 52.3375 10.5207C52.029 9.64022 51.4279 8.89222 50.6345 8.40153C49.841 7.91084 48.9033 7.70716 47.9778 7.82449C46.3783 8.0283 45.171 9.10755 44.6352 10.6041C43.7837 12.9865 42.9348 15.374 42.0885 17.7667L40.7065 21.6489C40.3629 22.6195 40.0776 23.5803 39.1536 24.182C38.7205 24.4667 38.2235 24.6395 37.7073 24.6848C37.191 24.7302 36.6715 24.6468 36.1954 24.4421C36.0013 24.3587 35.8227 24.2655 35.6363 24.1762L32.2938 22.5845L24.8284 19.0362C24.4887 18.8611 24.1348 18.715 23.7705 18.5995C23.2314 18.4511 22.6672 18.4173 22.1142 18.5002C21.5613 18.5831 21.0318 18.7809 20.5599 19.0808C19.7146 19.6219 19.0968 20.454 18.8235 21.4198C18.5502 22.3856 18.6404 23.418 19.0769 24.3218C20.0902 26.5036 21.1442 28.6679 22.1827 30.84L24.0248 34.7221C24.413 35.5471 24.9099 36.3662 24.8924 37.3096C24.8812 37.823 24.7429 38.3255 24.4899 38.7724C24.2368 39.2192 23.877 39.5963 23.4424 39.8699C23.1473 40.039 22.8349 40.1763 22.5107 40.2795L19.2477 41.4441L11.233 44.2956C11.0389 44.3674 10.8273 44.4353 10.6274 44.511C9.71614 44.8442 8.95448 45.4929 8.48054 46.3395C7.62064 47.9254 7.89821 50.014 9.22786 51.2621C9.95188 51.9396 10.8758 52.2094 11.7843 52.5335L15.6975 53.9253C18.0656 54.7658 20.4376 55.5985 22.8019 56.4487C23.2073 56.5936 23.5785 56.8206 23.8922 57.1155C24.2059 57.4104 24.4554 57.7668 24.625 58.1626C24.7947 58.5583 24.8808 58.9848 24.878 59.4153C24.8753 59.8459 24.7837 60.2712 24.609 60.6648C24.3101 61.3247 23.9859 61.973 23.6754 62.6272L19.7932 70.805C19.4341 71.564 18.9508 72.3715 18.7586 73.1945C18.5277 74.2595 18.7287 75.3726 19.3175 76.2896C19.9063 77.2067 20.8348 77.8527 21.8993 78.086C22.7918 78.2545 23.7148 78.1285 24.5294 77.7269L25.2923 77.3639L28.8755 75.6616L35.9955 72.2763C37.4746 71.5737 39.2662 72.0007 40.1125 73.4585C40.5007 74.1281 40.6948 74.9492 40.9569 75.6732L43.9947 84.214C44.2431 84.9128 44.4663 85.6252 44.7478 86.3123C45.1033 87.1732 45.7429 87.8863 46.5601 88.3331C47.3774 88.7798 48.3229 88.9333 49.2395 88.7678C50.7652 88.5135 51.8735 87.409 52.3802 85.9824C52.7063 85.0687 53.0298 84.1545 53.3507 83.2396L56.3283 74.8696C56.6894 73.8506 57.0271 72.8897 58.0481 72.3152C58.4738 72.079 58.9489 71.9458 59.4353 71.9263C59.9217 71.9067 60.4059 72.0014 60.8491 72.2026C61.0432 72.2919 61.2373 72.3967 61.4314 72.4821L69.2094 76.1702L72.222 77.6007C72.6178 77.8081 73.0376 77.9659 73.472 78.0705C74.0151 78.1828 74.5757 78.181 75.118 78.065C75.6604 77.9491 76.1727 77.7215 76.6224 77.3969C77.4073 76.8322 77.9671 76.0079 78.2027 75.07C78.4382 74.1321 78.3343 73.1411 77.9093 72.2725C77.5405 71.496 77.162 70.7021 76.7893 69.916L72.9266 61.7906C72.5092 60.9152 72.0278 60.0824 72.121 59.0731C72.1739 58.5607 72.3528 58.0695 72.6417 57.643C72.9306 57.2166 73.3206 56.8684 73.7768 56.6292C74.0283 56.509 74.2877 56.4058 74.5532 56.3206L82.4942 53.4983L85.8387 52.3084C87.0033 51.893 88.0496 51.2893 88.6028 50.1188C89.3792 48.4883 89.0298 46.4094 87.6167 45.2331C86.8927 44.6314 85.9959 44.3752 85.1244 44.0685L76.6651 41.0598C75.8363 40.7647 75.0035 40.4775 74.1786 40.1746C73.7756 40.0278 73.4071 39.7996 73.0961 39.5042C72.7851 39.2087 72.5383 38.8525 72.3709 38.4575C72.2036 38.0626 72.1193 37.6374 72.1234 37.2085C72.1275 36.7796 72.2199 36.3561 72.3947 35.9644C73.3536 33.8486 74.3921 31.7639 75.3898 29.6675L77.2688 25.7116C77.6473 24.9158 78.1559 24.0636 78.2995 23.1882C78.4614 22.1136 78.1919 21.0186 77.5498 20.1419C76.9076 19.2652 75.9449 18.678 74.8715 18.5082C73.672 18.3355 72.6762 18.8072 71.6357 19.3002L63.6249 23.1086C62.7372 23.5292 61.8507 23.9504 60.9656 24.3723C60.2206 24.7396 59.3603 24.7961 58.5737 24.5293C57.7871 24.2625 57.1386 23.6942 56.7709 22.9494C56.4506 22.2895 56.2546 21.5441 56.0081 20.8531L54.4746 16.5361L52.3394 10.5284C52.1298 9.93445 51.1922 10.1965 51.4019 10.7788Z" fill="black"/>
<path d="M36.1392 45.039C36.147 45.0892 36.147 45.1402 36.1392 45.1904V45.1341C36.1392 45.1594 36.1392 45.1826 36.1237 45.2079C36.1165 45.2433 36.1074 45.2783 36.0965 45.3127C36.0965 45.3282 36.0383 45.4563 36.0713 45.3903C36.1043 45.3243 36.0383 45.4486 36.0325 45.4602C36.0266 45.4719 35.9956 45.5223 35.9762 45.5515C35.9568 45.5806 35.9141 45.6233 35.9665 45.567L35.8714 45.6718C35.8461 45.6951 35.817 45.7164 35.7918 45.7417C35.8694 45.664 35.8034 45.732 35.7762 45.7514C35.7418 45.7746 35.7062 45.796 35.6695 45.8154C35.6443 45.829 35.522 45.8814 35.6404 45.8349C35.573 45.8618 35.5035 45.8832 35.4327 45.8989L35.3589 45.9144C35.4268 45.9047 35.4346 45.9047 35.3783 45.9144H35.2638H35.1512C35.0483 45.9144 35.2424 45.9339 35.1143 45.9144C35.0374 45.8986 34.962 45.8759 34.8892 45.8465C35.0017 45.8911 34.9008 45.8465 34.8756 45.8368C34.8335 45.8145 34.7926 45.7899 34.7533 45.763C34.7261 45.7456 34.6504 45.6737 34.7378 45.7533L34.6582 45.6835C34.6322 45.6508 34.6037 45.6202 34.5728 45.5922C34.5514 45.565 34.5572 45.5747 34.5941 45.6213L34.5534 45.5631C34.5144 45.5007 34.4794 45.4358 34.4485 45.369C34.5068 45.4835 34.4485 45.3457 34.433 45.3166C34.4215 45.2822 34.4118 45.2472 34.4039 45.2118C34.4039 45.1807 34.3592 45.0817 34.4039 45.1943C34.3961 45.1441 34.3961 45.0931 34.4039 45.0429C34.4019 44.9148 34.3501 44.7925 34.2595 44.702C34.169 44.6114 34.0467 44.5596 33.9186 44.5576C33.7905 44.5596 33.6683 44.6114 33.5777 44.702C33.4871 44.7925 33.4354 44.9148 33.4333 45.0429C33.436 45.4245 33.5551 45.7963 33.7747 46.1084C33.9942 46.4206 34.3038 46.6583 34.6621 46.7899C35.0104 46.9132 35.3876 46.9292 35.7451 46.8358C36.1026 46.7423 36.4238 46.5438 36.6672 46.2658C36.9564 45.9264 37.1178 45.4965 37.1234 45.0507C37.1223 44.9223 37.0709 44.7994 36.9801 44.7086C36.8893 44.6178 36.7665 44.5664 36.6381 44.5654C36.5102 44.5679 36.3882 44.6198 36.2977 44.7103C36.2072 44.8007 36.1553 44.9227 36.1528 45.0507L36.1392 45.039Z" fill="#1D1D1B"/>
<path d="M31.8844 45.039C31.8922 45.0892 31.8922 45.1402 31.8844 45.1904V45.1341C31.8844 45.1594 31.8844 45.1826 31.8708 45.2079C31.8572 45.2331 31.8533 45.2778 31.8417 45.3127C31.83 45.3476 31.7835 45.4563 31.8165 45.3903C31.8495 45.3243 31.7835 45.4486 31.7776 45.4602C31.7718 45.4719 31.7408 45.5223 31.7213 45.5515C31.7019 45.5806 31.6592 45.6233 31.7213 45.567L31.6262 45.6718C31.601 45.6951 31.5719 45.7164 31.5467 45.7417C31.6243 45.664 31.5602 45.732 31.5311 45.7514C31.4969 45.775 31.4613 45.7964 31.4244 45.8154C31.3991 45.829 31.2768 45.8814 31.3952 45.8349C31.3279 45.8618 31.2584 45.8832 31.1875 45.8989L31.1157 45.9144C31.1837 45.9047 31.1895 45.9047 31.1332 45.9144H31.0206H30.9061C30.8052 45.9144 30.9973 45.9339 30.8692 45.9144C30.7923 45.8983 30.717 45.8756 30.644 45.8465C30.7586 45.8911 30.6557 45.8465 30.6305 45.8368C30.5884 45.8145 30.5475 45.7899 30.5082 45.763C30.4829 45.7456 30.4053 45.6737 30.4926 45.7533L30.4131 45.6835C30.3878 45.6508 30.3599 45.6203 30.3296 45.5922C30.3063 45.565 30.3121 45.5747 30.349 45.6213L30.3082 45.5631C30.2693 45.5007 30.2343 45.4358 30.2034 45.369C30.2616 45.4835 30.2034 45.3457 30.1879 45.3166C30.1764 45.2822 30.1667 45.2472 30.1588 45.2118C30.1588 45.1807 30.1141 45.0817 30.1588 45.1943C30.1509 45.1441 30.1509 45.0931 30.1588 45.0429C30.1568 44.9148 30.105 44.7925 30.0144 44.702C29.9239 44.6114 29.8016 44.5596 29.6735 44.5576C29.5454 44.5596 29.4232 44.6114 29.3326 44.702C29.242 44.7925 29.1902 44.9148 29.1882 45.0429C29.1909 45.4245 29.31 45.7963 29.5295 46.1084C29.7491 46.4206 30.0587 46.6583 30.4169 46.7899C30.7652 46.9132 31.1425 46.9292 31.5 46.8358C31.8575 46.7423 32.1787 46.5438 32.4221 46.2658C32.7113 45.9264 32.8727 45.4965 32.8782 45.0507C32.8772 44.9223 32.8258 44.7994 32.735 44.7086C32.6442 44.6178 32.5214 44.5664 32.393 44.5654C32.265 44.5679 32.1431 44.6198 32.0526 44.7103C31.9621 44.8007 31.9102 44.9227 31.9077 45.0507L31.8844 45.039Z" fill="#1D1D1B"/>
<path d="M36.1391 48.4728C36.1362 49.0823 35.9494 49.6767 35.603 50.1782C35.2567 50.6797 34.767 51.065 34.198 51.2835C33.6109 51.4988 32.9718 51.5285 32.3673 51.3684C31.7628 51.2084 31.2222 50.8663 30.8186 50.3887C30.3732 49.8497 30.1301 49.172 30.1314 48.4728C30.1314 47.8497 29.1609 47.8478 29.1609 48.4728C29.1685 49.2876 29.423 50.0809 29.8908 50.7481C30.3587 51.4152 31.0179 51.9247 31.7814 52.2094C32.5471 52.4836 33.3783 52.5174 34.1637 52.3061C34.9491 52.0948 35.6512 51.6486 36.176 51.0273C36.7699 50.3077 37.0982 49.4058 37.1058 48.4728C37.1058 47.8497 36.1352 47.8478 36.1352 48.4728H36.1391Z" fill="#1D1D1B"/>
</svg>
