<svg width="127" height="174" viewBox="0 0 127 174" fill="none" xmlns="http://www.w3.org/2000/svg">
<path d="M50.706 138.824C50.0339 138.824 49.3708 138.979 48.7676 139.275C48.1645 139.572 47.6373 140.003 47.2267 140.535C46.8161 141.067 46.533 141.686 46.399 142.345C46.265 143.004 46.2839 143.684 46.454 144.334L52.8042 168.601C52.8042 169.394 54.0837 170.093 56.0838 170.571C56.2783 170.612 56.4589 170.703 56.6083 170.834C56.7577 170.965 56.8708 171.132 56.9368 171.32C57.4145 172.851 59.4317 174 61.8413 174C64.2509 174 66.2809 172.849 66.7586 171.32C66.8246 171.132 66.9377 170.965 67.0871 170.834C67.2365 170.703 67.4171 170.612 67.6115 170.571C69.6117 170.102 70.889 169.394 70.889 168.601L77.2392 144.334C77.4092 143.687 77.4289 143.009 77.2968 142.352C77.1648 141.696 76.8845 141.078 76.4774 140.547C76.0703 140.015 75.5471 139.584 74.9478 139.285C74.3484 138.987 73.6888 138.829 73.0193 138.824H50.706Z" fill="#A3DBFE"/>
<path d="M77.0282 144.855C77.0314 144.908 77.0314 144.961 77.0282 145.015C77.0282 145.04 77.0282 145.068 77.0282 145.093C77.0282 145.211 77.0729 144.893 77.041 145.008C77.0282 145.053 77.0218 145.098 77.009 145.142C76.9962 145.187 76.9919 145.198 76.9834 145.226C76.9407 145.386 77.0602 145.089 77.0005 145.187C76.9407 145.285 76.8896 145.4 76.8256 145.492C76.8256 145.492 76.7744 145.577 76.7638 145.577C76.7531 145.577 76.8917 145.426 76.7894 145.541C76.7318 145.607 76.6742 145.673 76.6123 145.737C76.5057 145.846 76.3991 145.951 76.2776 146.049C76.2349 146.083 75.9961 146.262 76.1774 146.132C76.1006 146.189 76.0238 146.247 75.9449 146.302C75.5874 146.549 75.2157 146.774 74.8318 146.976C74.3819 147.217 73.917 147.433 73.4479 147.637H73.433L73.2368 147.718C73.1046 147.774 72.9724 147.827 72.838 147.878C72.5587 147.987 72.2772 148.092 71.9851 148.192C70.7057 148.644 69.4134 149.017 68.102 149.341C65.1371 150.067 62.1174 150.547 59.0735 150.776C57.6704 150.883 56.2609 150.936 54.8535 150.913C54.2138 150.913 53.589 150.874 52.96 150.827C52.6934 150.808 52.4268 150.783 52.1624 150.755L51.736 150.708H51.6613L51.4012 150.67C50.887 150.594 50.3773 150.49 49.8744 150.358C49.6612 150.301 49.4479 150.235 49.2347 150.16C49.1302 150.124 49.0214 150.083 48.9255 150.043C48.7741 149.985 49.0769 150.117 48.9255 150.043L48.7698 149.97C48.6143 149.895 48.464 149.809 48.3199 149.714C48.29 149.695 48.2623 149.672 48.2303 149.652C48.1194 149.582 48.3625 149.772 48.2666 149.682C48.2111 149.629 48.1493 149.582 48.096 149.527C48.0725 149.505 48.0534 149.482 48.0299 149.458C47.9169 149.341 48.064 149.426 48.0491 149.49C48.0491 149.473 47.9638 149.36 47.9552 149.343C47.9467 149.326 47.9318 149.292 47.9169 149.269C47.8593 149.179 47.9766 149.482 47.9382 149.318C47.9254 149.256 47.9062 149.196 47.8956 149.132C47.8337 148.744 47.3475 148.527 46.9978 148.623C46.8141 148.679 46.659 148.803 46.5642 148.97C46.4694 149.137 46.4422 149.334 46.4882 149.52C46.5969 150.196 47.1535 150.719 47.7122 151.056C48.4521 151.468 49.2546 151.756 50.0876 151.909C52.6145 152.448 55.2629 152.454 57.8303 152.322C61.1112 152.148 64.3712 151.695 67.5753 150.968C70.1491 150.384 72.7357 149.635 75.109 148.46C76.007 148.049 76.834 147.498 77.5591 146.827C78.0645 146.326 78.5507 145.605 78.4505 144.857C78.3972 144.466 78.1519 144.127 77.7212 144.127C77.3672 144.127 76.9386 144.464 76.9919 144.857L77.0282 144.855Z" fill="#1D1D1B"/>
<path d="M75.0535 152.309C75.0588 152.41 75.0588 152.51 75.0535 152.61C75.0535 152.736 75.1047 152.42 75.0535 152.54C75.0482 152.559 75.0439 152.579 75.0407 152.599C75.0236 152.661 74.998 152.723 74.9853 152.785C74.9575 152.906 75.0578 152.646 75.013 152.719C75.0002 152.744 74.9917 152.772 74.9767 152.798C74.9618 152.823 74.9213 152.902 74.8914 152.953C74.8616 153.005 74.8232 153.058 74.7891 153.109C74.755 153.16 74.6974 153.233 74.7763 153.128C74.8552 153.024 74.7486 153.16 74.7315 153.179C74.5263 153.413 74.3 153.627 74.0555 153.819C73.9212 153.917 74.0214 153.849 74.0555 153.819L73.9511 153.896C73.8871 153.945 73.821 153.992 73.7549 154.037C73.58 154.154 73.403 154.267 73.2239 154.374C72.8401 154.604 72.4413 154.813 72.0362 155.013C71.8229 155.114 71.6097 155.209 71.3965 155.303C71.2643 155.361 71.341 155.327 71.3709 155.316L71.1576 155.399C71.019 155.457 70.8783 155.512 70.7312 155.568C69.6617 155.975 68.5703 156.322 67.4622 156.608C64.8832 157.284 62.2456 157.713 59.5852 157.888C58.3666 157.971 57.1445 157.99 55.9239 157.945C55.3716 157.924 54.8193 157.888 54.2713 157.828L53.9024 157.788L53.7851 157.773C53.8875 157.785 53.6572 157.753 53.67 157.756C53.4226 157.719 53.1774 157.679 52.9322 157.63C52.4743 157.545 52.022 157.431 51.5781 157.291L51.2732 157.184L51.1751 157.146C51.1559 157.146 50.9618 157.06 51.0727 157.107C51.1836 157.154 51.0365 157.09 51.0258 157.084L50.8957 157.024C50.8126 156.984 50.7315 156.941 50.6505 156.896C50.5695 156.851 50.5012 156.811 50.4373 156.764L50.369 156.717L50.3029 156.67C50.2411 156.625 50.2603 156.64 50.3562 156.713C50.2709 156.713 50.1174 156.5 50.0598 156.438C50.0598 156.438 49.9916 156.361 49.9937 156.359C49.9959 156.357 50.1046 156.527 50.0279 156.399L49.9319 156.231C49.8466 156.09 49.9724 156.41 49.9319 156.203C49.9191 156.143 49.902 156.084 49.8914 156.024C49.8295 155.634 49.3455 155.418 48.9958 155.514C48.8164 155.571 48.6652 155.694 48.5726 155.858C48.4801 156.021 48.453 156.214 48.4968 156.397C48.7292 157.854 50.5204 158.515 51.7444 158.837C53.9514 159.419 56.3141 159.476 58.583 159.387C61.4472 159.271 64.2933 158.875 67.0805 158.205C69.3195 157.668 71.582 156.962 73.6077 155.847C74.4054 155.44 75.1267 154.898 75.7401 154.246C76.1965 153.721 76.5931 153.032 76.5014 152.312C76.4481 151.921 76.2029 151.582 75.7721 151.582C75.4181 151.582 74.9895 151.917 75.0428 152.312L75.0535 152.309Z" fill="#1D1D1B"/>
<path d="M73.0323 159.775C73.0387 159.879 73.0387 159.983 73.0323 160.086C73.0323 160.257 73.0664 159.963 73.0323 160.067C73.0152 160.127 73.0067 160.184 72.9896 160.242C72.9726 160.3 72.947 160.349 72.9342 160.402C72.9171 160.487 73.0238 160.233 72.9555 160.351L72.9193 160.421C72.8615 160.531 72.7974 160.637 72.7274 160.739C72.6207 160.903 72.8041 160.656 72.6932 160.786L72.5589 160.944C72.458 161.053 72.3535 161.157 72.2454 161.257C72.126 161.366 72.0045 161.47 71.8787 161.568C72.0002 161.47 71.8446 161.592 71.7976 161.626C71.7507 161.66 71.6377 161.739 71.5567 161.794C70.873 162.243 70.15 162.629 69.3966 162.948L69.3582 162.965L69.1791 163.04L68.8507 163.17C68.6225 163.257 68.3944 163.34 68.1641 163.421C67.6779 163.592 67.1853 163.745 66.6906 163.886C64.4999 164.502 62.248 164.874 59.9757 164.995C58.9148 165.06 57.8509 165.06 56.7899 164.995C55.9344 164.95 55.0849 164.826 54.2524 164.624C53.8519 164.53 53.4586 164.408 53.0753 164.259L52.9687 164.219C53.135 164.283 52.9687 164.219 52.941 164.204C52.8599 164.168 52.781 164.131 52.7021 164.091C52.5558 164.017 52.4134 163.935 52.2757 163.846C52.2117 163.805 52.1499 163.758 52.088 163.716C52.2671 163.841 52.0731 163.701 52.0326 163.664C51.9921 163.628 51.9324 163.571 51.8854 163.519C51.8385 163.468 51.8428 163.47 51.8193 163.447C51.7127 163.338 51.8641 163.528 51.8343 163.473C51.781 163.368 51.7085 163.259 51.6466 163.155C51.5848 163.05 51.6871 163.31 51.6807 163.229C51.6716 163.195 51.6602 163.162 51.6466 163.129C51.6296 163.065 51.6168 163.003 51.6061 162.939C51.5443 162.551 51.0623 162.338 50.7148 162.432C50.5321 162.487 50.3777 162.61 50.2836 162.776C50.1894 162.942 50.1629 163.138 50.2094 163.323C50.4226 164.692 51.9345 165.422 53.103 165.805C54.9945 166.424 57.0735 166.535 59.0481 166.492C61.5224 166.434 63.9819 166.094 66.3793 165.479C68.3133 164.987 70.2751 164.317 71.9789 163.257C73.1176 162.547 74.6721 161.323 74.4653 159.786C74.4141 159.4 74.1689 159.063 73.7402 159.063C73.3905 159.063 72.9641 159.395 73.0174 159.786L73.0323 159.775Z" fill="#1D1D1B"/>
<path d="M62.1422 110.08C86.3011 110.08 105.886 90.495 105.886 66.336C105.886 42.177 86.3011 22.5923 62.1422 22.5923C37.9832 22.5923 18.3984 42.177 18.3984 66.336C18.3984 90.495 37.9832 110.08 62.1422 110.08Z" fill="#F9DA1B"/>
<path d="M88.6113 103.533L92.117 105.201C92.5136 105.388 92.9081 105.582 93.3069 105.766C94.3849 106.289 95.6078 106.434 96.7784 106.177C97.8498 105.913 98.8136 105.324 99.5386 104.492C100.264 103.66 100.714 102.624 100.83 101.527C100.951 100.283 100.512 99.181 99.994 98.102L96.2709 90.2719C95.2018 88.0215 94.1356 85.7733 93.0723 83.5272C92.7004 82.7702 92.5627 81.9196 92.6766 81.084C92.7906 80.2484 93.1511 79.4657 93.712 78.8359C94.4264 78.0555 95.322 77.7356 96.2709 77.3966L104.687 74.4113C106.905 73.6223 109.127 72.8482 111.338 72.0443C112.914 71.4728 114.149 70.3171 114.669 68.7029C114.946 67.827 114.994 66.8946 114.807 65.9951C114.621 65.0955 114.206 64.2591 113.603 63.566C112.852 62.713 111.867 62.2865 110.831 61.9155L107.543 60.7469L98.2518 57.4417L95.5714 56.4886C94.0297 55.9405 92.8654 54.6739 92.6565 53.0149C92.5136 51.8954 92.9102 50.9529 93.3708 49.9805L94.9552 46.6476L99.1645 37.7918C99.5334 37.0156 99.9045 36.2416 100.271 35.4654C101.069 33.7723 101.064 31.8404 100.013 30.2453C98.7338 28.3262 96.3284 27.3581 94.1001 28.0511C93.3717 28.317 92.6628 28.6333 91.9784 28.9979L83.5405 33.0089C81.6576 33.9045 79.7897 34.8555 77.8812 35.6978C77.3677 35.9188 76.8153 36.0356 76.2563 36.0415C75.6973 36.0474 75.1427 35.9422 74.6246 35.7322C74.1065 35.5221 73.6353 35.2113 73.2382 34.8178C72.8411 34.4243 72.5261 33.9558 72.3114 33.4396C72.0705 32.8383 71.8849 32.2178 71.6568 31.6079L68.4816 22.6754L67.0657 18.6963C66.8473 18.0072 66.594 17.3297 66.3066 16.6663C64.5559 12.9986 59.1375 12.828 57.1011 16.3123C56.7024 16.9926 56.4763 17.7922 56.2119 18.5321L54.8493 22.3704L51.6273 31.4267C51.4141 32.0557 51.2008 32.6869 50.9577 33.3096C50.5741 34.3199 49.8176 35.1446 48.8441 35.6139C47.8706 36.0832 46.7542 36.1613 45.7248 35.8322C45.0739 35.5839 44.4394 35.2947 43.8249 34.9664L39.9482 33.1219L31.4421 29.0704C30.8024 28.7697 30.1819 28.4307 29.523 28.179C28.4667 27.7678 27.3054 27.7105 26.2137 28.0158C25.122 28.3211 24.1589 28.9726 23.4692 29.8722C22.2153 31.4928 22.0746 33.5761 22.9339 35.4164C23.2687 36.1307 23.6099 36.8408 23.9489 37.5487L28.1327 46.3512L29.781 49.8163C30.2075 50.7247 30.634 51.5734 30.5956 52.6226C30.5579 53.4753 30.2638 54.2968 29.7517 54.9797C29.2396 55.6626 28.5334 56.1751 27.7254 56.4502C26.8724 56.753 26.0344 57.0515 25.19 57.3522L15.9248 60.6531L12.53 61.86C11.547 62.2098 10.6109 62.5787 9.83682 63.3314C9.18994 63.9867 8.72383 64.7985 8.48391 65.6875C8.244 66.5765 8.23848 67.5125 8.46785 68.4043C8.68948 69.24 9.1139 70.0081 9.70347 70.6404C10.293 71.2728 11.0296 71.7499 11.8477 72.0294C13.963 72.8013 16.0911 73.537 18.2128 74.2918L26.7829 77.339C27.6614 77.6525 28.54 77.9148 29.2436 78.5673C29.8978 79.1811 30.3401 79.9869 30.5068 80.8683C30.6735 81.7498 30.556 82.6614 30.1713 83.4717C29.1456 85.651 28.1028 87.8218 27.0686 89.9968L23.2772 97.9741C22.806 98.9678 22.3603 99.938 22.3603 101.072C22.3824 102.19 22.7531 103.273 23.4207 104.169C24.0882 105.066 25.0192 105.731 26.0835 106.073C27.1409 106.402 28.2768 106.38 29.3204 106.009C29.8279 105.826 30.3141 105.582 30.8003 105.339L34.2121 103.717C34.8305 103.422 34.291 102.503 33.6747 102.795L30.1862 104.454C29.6715 104.731 29.1299 104.955 28.5698 105.122C28.0381 105.251 27.4858 105.272 26.9457 105.184C26.4057 105.095 25.8891 104.898 25.4267 104.606C24.5567 104.064 23.9144 103.224 23.6206 102.242C23.3269 101.26 23.4019 100.205 23.8317 99.2748C24.1174 98.6501 24.4202 98.0338 24.7145 97.4154L28.7937 88.8368L30.5359 85.1713C30.8728 84.4633 31.2822 83.7362 31.4827 82.9749C31.7628 81.8859 31.6894 80.7361 31.2732 79.6916C30.8569 78.647 30.1193 77.7619 29.1669 77.1642C28.4803 76.7377 27.6742 76.5117 26.9108 76.243L18.3557 73.2001C16.2809 72.4623 14.1975 71.7415 12.1291 70.9845C11.3735 70.7177 10.7115 70.2374 10.2232 69.602C9.73501 68.9665 9.44154 68.2031 9.37838 67.4042C9.30303 66.521 9.51027 65.6368 9.9702 64.879C10.4301 64.1213 11.119 63.5293 11.9372 63.1885C13.8244 62.4187 15.7969 61.8131 17.7181 61.1286L26.5185 58.0004C27.1198 57.7872 27.7297 57.5889 28.3225 57.3607C29.3708 56.9454 30.259 56.2061 30.8578 55.2506C31.4565 54.2952 31.7345 53.1734 31.6511 52.0489C31.5594 51.0382 31.1329 50.1788 30.7086 49.2768L29.0795 45.8522L24.9384 37.1393C24.5844 36.3951 24.2283 35.6467 23.8722 34.9046C23.4813 34.1031 23.3568 33.1976 23.5167 32.3203C23.6767 31.443 24.1128 30.6398 24.7614 30.0278C25.384 29.4401 26.1721 29.0576 27.0191 28.9322C27.866 28.8067 28.7311 28.9443 29.4974 29.3263L31.843 30.4372L40.5858 34.5933L43.9358 36.1862C44.8612 36.6254 45.7547 37.0391 46.806 37.0988C47.9339 37.1405 49.0457 36.8217 49.9802 36.1886C50.9146 35.5556 51.623 34.6412 52.0026 33.5782C52.2158 33.0132 52.4056 32.4438 52.6082 31.8723L55.7513 23.0293L57.1694 19.0461C57.3647 18.4142 57.5924 17.7929 57.8517 17.1845C58.232 16.3903 58.8529 15.7362 59.6261 15.3152C60.3994 14.8941 61.2857 14.7274 62.1591 14.8389C62.9279 14.9348 63.6547 15.2436 64.2575 15.7303C64.8603 16.2171 65.3152 16.8625 65.5709 17.5939C66.345 19.7263 67.0871 21.8587 67.8441 23.9911L70.8592 32.4673C71.145 33.2754 71.3945 34.1263 71.8892 34.8363C72.5331 35.7591 73.4543 36.4527 74.5191 36.8166C75.5838 37.1805 76.7368 37.1957 77.8108 36.86C78.5021 36.5993 79.1765 36.2959 79.8302 35.9516L83.5427 34.186L92.085 30.1238C92.6778 29.8444 93.2642 29.5523 93.8613 29.2815C94.8295 28.8395 95.9292 28.7805 96.9392 29.1163C97.9492 29.4522 98.7945 30.158 99.3052 31.0919C100.035 32.4076 99.8874 33.8341 99.2626 35.1434L97.9469 37.9155L93.7589 46.7287L92.3366 49.714C91.7779 50.8911 91.441 52.0745 91.6649 53.3945C91.8378 54.3192 92.2531 55.1815 92.8682 55.8933C93.4834 56.6051 94.2764 57.1409 95.1663 57.446C95.9041 57.7168 96.6462 57.9748 97.3882 58.2371L106.444 61.457L110.091 62.7535C110.85 63.0243 111.641 63.2525 112.291 63.7536C113.692 64.8198 114.198 66.7389 113.663 68.4001C113.236 69.7008 112.217 70.59 110.957 71.0421C108.594 71.8851 106.231 72.7245 103.869 73.5604L95.7932 76.4328C94.727 76.8081 93.7355 77.2239 92.9571 78.0768C92.2512 78.86 91.7934 79.835 91.6415 80.8784C91.4897 81.9218 91.6507 82.9868 92.1042 83.9387C93.0019 85.8835 93.9444 87.809 94.8635 89.7452L98.7956 98.0167C99.1261 98.7098 99.5249 99.4134 99.6997 100.166C100.207 102.337 98.7551 104.563 96.6248 105.115C95.0852 105.516 93.7973 104.815 92.4582 104.179L89.1551 102.608C88.5388 102.316 87.9972 103.235 88.6177 103.529L88.6113 103.533Z" fill="black"/>
<path d="M89.8802 106.357L88.5347 109.372L85.3361 116.56L81.4594 125.247L78.0988 132.777C77.555 133.994 77.0049 135.21 76.4675 136.43L76.4462 136.481C76.3791 136.604 76.3614 136.748 76.3966 136.883C76.4319 137.019 76.5175 137.135 76.636 137.21C76.7584 137.28 76.9035 137.299 77.04 137.264C77.1764 137.228 77.2933 137.139 77.3653 137.018L78.7023 134.007L81.9009 126.819L85.7775 118.132L89.1382 110.602C89.6819 109.385 90.2321 108.169 90.7694 106.949C90.7694 106.932 90.7844 106.915 90.7929 106.9C90.8598 106.777 90.8772 106.633 90.8415 106.498C90.8059 106.362 90.7198 106.245 90.601 106.171C90.4789 106.1 90.3339 106.08 90.1973 106.116C90.0607 106.151 89.9437 106.239 89.8717 106.361L89.8802 106.357Z" fill="black"/>
<path d="M33.4849 106.896L34.8305 109.911L38.0291 117.1L41.9057 125.785L45.2664 133.314L46.3709 135.79C46.5458 136.18 46.6993 136.587 46.8976 136.969C46.906 136.985 46.9131 137.001 46.9189 137.018C46.991 137.139 47.1078 137.228 47.2443 137.264C47.3807 137.299 47.5258 137.28 47.6482 137.21C47.7675 137.136 47.8539 137.019 47.8896 136.884C47.9253 136.748 47.9076 136.604 47.8402 136.481L46.4946 133.466L43.2854 126.277L39.4194 117.588L36.0587 110.058L34.9541 107.585C34.7793 107.193 34.6236 106.785 34.4275 106.406C34.4194 106.389 34.4123 106.372 34.4061 106.354C34.3338 106.234 34.2167 106.146 34.0803 106.11C33.9439 106.075 33.799 106.094 33.6769 106.165C33.5572 106.238 33.4705 106.355 33.4347 106.491C33.399 106.627 33.417 106.771 33.4849 106.894V106.896Z" fill="black"/>
<path d="M34.4787 65.8029C34.4702 65.7478 34.4702 65.6917 34.4787 65.6366V65.6984C34.4787 65.6707 34.4787 65.6451 34.4958 65.6174C34.5037 65.5785 34.5137 65.5401 34.5257 65.5023C34.5257 65.4852 34.5896 65.3445 34.5534 65.417C34.5171 65.4895 34.5896 65.353 34.596 65.3402C34.6024 65.3274 34.6365 65.272 34.6579 65.24C34.6792 65.208 34.7261 65.1611 34.6685 65.2229L34.773 65.1078C34.8007 65.0822 34.8327 65.0587 34.8605 65.031C34.7752 65.1163 34.8477 65.0417 34.8775 65.031C34.9153 65.0055 34.9545 64.982 34.9948 64.9606C35.0225 64.9457 35.1568 64.8881 35.0268 64.9393C35.1008 64.9098 35.1771 64.8862 35.2549 64.8689L35.336 64.8519C35.2613 64.8626 35.2528 64.8626 35.3147 64.8519H35.4405H35.5641C35.6771 64.8519 35.4639 64.8306 35.6047 64.8519C35.6892 64.8693 35.7719 64.8943 35.852 64.9265C35.7283 64.8775 35.8392 64.9265 35.8669 64.9372C35.9132 64.9617 35.958 64.9887 36.0013 65.0182C36.0311 65.0374 36.1143 65.1163 36.0183 65.0182L36.1058 65.095C36.1342 65.1309 36.1656 65.1644 36.1996 65.1952C36.223 65.2251 36.2166 65.2144 36.1761 65.1632L36.2209 65.2272C36.2637 65.2958 36.3022 65.367 36.336 65.4404C36.2721 65.3146 36.3361 65.466 36.3531 65.498C36.3658 65.5358 36.3764 65.5742 36.3851 65.6132C36.3851 65.6473 36.4341 65.756 36.3851 65.6323C36.3926 65.6875 36.3926 65.7435 36.3851 65.7987C36.3867 65.9395 36.4434 66.0742 36.5431 66.1738C36.6427 66.2734 36.7773 66.3301 36.9182 66.3318C37.0587 66.329 37.1927 66.272 37.2921 66.1726C37.3915 66.0732 37.4485 65.9392 37.4513 65.7987C37.4476 65.3793 37.3162 64.971 37.0747 64.6282C36.8332 64.2853 36.493 64.0242 36.0994 63.8795C35.7167 63.744 35.3023 63.7265 34.9095 63.8291C34.5168 63.9317 34.164 64.1499 33.8966 64.4553C33.5789 64.8281 33.4016 65.3003 33.3955 65.7901C33.3966 65.9312 33.4531 66.0661 33.5529 66.1659C33.6526 66.2656 33.7876 66.3221 33.9286 66.3232C34.0691 66.3205 34.2031 66.2635 34.3025 66.1641C34.4019 66.0647 34.459 65.9307 34.4617 65.7901L34.4787 65.8029Z" fill="#1D1D1B"/>
<path d="M39.1528 65.8029C39.1443 65.7478 39.1443 65.6917 39.1528 65.6366V65.6984C39.1528 65.6707 39.1528 65.6451 39.1677 65.6174C39.1827 65.5897 39.1869 65.5406 39.1997 65.5023C39.2125 65.4639 39.2637 65.3445 39.2274 65.417C39.1912 65.4895 39.2637 65.353 39.2701 65.3402C39.2765 65.3274 39.3106 65.272 39.3319 65.24C39.3533 65.208 39.4002 65.1611 39.3319 65.2229L39.4364 65.1078C39.4641 65.0822 39.4961 65.0587 39.5238 65.031C39.4386 65.1163 39.5089 65.0417 39.5409 65.031C39.5787 65.0055 39.6179 64.982 39.6582 64.9606C39.6859 64.9457 39.8202 64.8881 39.6902 64.9393C39.7642 64.9098 39.8405 64.8862 39.9183 64.8689L39.9972 64.8519C39.9226 64.8626 39.9162 64.8626 39.978 64.8519H40.1038H40.2275C40.3384 64.8519 40.1273 64.8306 40.268 64.8519C40.3525 64.8696 40.4352 64.8945 40.5154 64.9265C40.3896 64.8775 40.5026 64.9265 40.5303 64.9372C40.5766 64.9617 40.6214 64.9887 40.6647 65.0182C40.6924 65.0374 40.7777 65.1163 40.6817 65.0182L40.7692 65.095C40.7969 65.1308 40.8276 65.1644 40.8608 65.1952C40.8864 65.2251 40.88 65.2144 40.8395 65.1632L40.8843 65.2272C40.9271 65.2958 40.9656 65.367 40.9994 65.4404C40.9355 65.3146 40.9995 65.466 41.0165 65.498C41.0291 65.5358 41.0398 65.5742 41.0485 65.6132C41.0485 65.6473 41.0975 65.756 41.0485 65.6323C41.0571 65.6874 41.0571 65.7436 41.0485 65.7987C41.0507 65.9394 41.1076 66.0737 41.2071 66.1732C41.3066 66.2727 41.4409 66.3296 41.5816 66.3318C41.7223 66.3296 41.8566 66.2727 41.9561 66.1732C42.0556 66.0737 42.1125 65.9394 42.1147 65.7987C42.1117 65.3794 41.9809 64.9711 41.7397 64.6281C41.4985 64.2852 41.1584 64.024 40.7649 63.8795C40.3823 63.744 39.9678 63.7265 39.5751 63.8291C39.1824 63.9317 38.8295 64.1499 38.5621 64.4553C38.2444 64.8281 38.0671 65.3003 38.061 65.7901C38.0622 65.9312 38.1187 66.0661 38.2184 66.1659C38.3181 66.2656 38.4531 66.3221 38.5941 66.3232C38.7347 66.3205 38.8687 66.2635 38.9681 66.1641C39.0674 66.0647 39.1245 65.9307 39.1272 65.7901L39.1528 65.8029Z" fill="#1D1D1B"/>
<path d="M37.8351 68.6132C37.8906 68.6132 37.946 68.6132 38.0014 68.6132H38.0803C37.9609 68.6132 38.0228 68.6026 38.0548 68.6132C38.1586 68.6316 38.2611 68.6565 38.3618 68.6879C38.3838 68.6976 38.4067 68.7055 38.4301 68.7113C38.4983 68.7263 38.3405 68.6644 38.4002 68.6985C38.4599 68.7327 38.4748 68.7327 38.509 68.7518C38.5492 68.7733 38.5884 68.7967 38.6262 68.8222C38.6689 68.8478 38.7861 68.9608 38.6817 68.8563C38.7392 68.9139 38.8032 68.963 38.8608 69.0248C38.8608 69.0376 38.9717 69.1527 38.9141 69.0824C38.8565 69.012 38.9504 69.1378 38.9653 69.1591C39.012 69.2321 39.0548 69.3075 39.0932 69.3852C39.1508 69.5024 39.0804 69.3404 39.0932 69.4065C39.106 69.4726 39.1273 69.4982 39.1401 69.5451C39.1529 69.592 39.1806 69.7008 39.1977 69.7818C39.2276 69.9225 39.1977 69.7093 39.1977 69.7989C39.1977 69.8543 39.1977 69.9076 39.1977 69.9609C39.2041 70.0418 39.2041 70.1231 39.1977 70.204V70.268C39.1977 70.3383 39.2212 70.155 39.1977 70.2211C39.1743 70.2872 39.1806 70.317 39.17 70.3639C39.1508 70.4471 39.1209 70.5281 39.0954 70.6092C39.0698 70.6902 39.1508 70.5025 39.0954 70.6283L39.0271 70.7563C39.0058 70.7925 38.9845 70.8288 38.9589 70.865C38.8928 70.9439 38.9333 70.9013 38.9589 70.865C38.8928 70.9375 38.8288 71.0079 38.7456 71.0783L38.6945 71.1209C38.7051 71.1209 38.799 71.0527 38.7243 71.0975C38.6902 71.1167 38.6582 71.1422 38.6241 71.1614C38.5855 71.1862 38.5456 71.209 38.5047 71.2297C38.4826 71.2378 38.4612 71.2478 38.4407 71.2595C38.3874 71.2894 38.5452 71.2275 38.4535 71.2595C38.3618 71.2915 38.2637 71.3214 38.1656 71.3406C38.1251 71.3406 37.9737 71.3598 38.1102 71.3534C38.0313 71.3534 37.9545 71.3661 37.8756 71.3683C37.7199 71.3683 37.5664 71.3683 37.4129 71.3534C37.5494 71.3534 37.398 71.3534 37.3575 71.3406C37.2955 71.3282 37.2343 71.3125 37.1741 71.2936C37.1336 71.283 37.0952 71.2617 37.0525 71.2531C37.0099 71.2446 37.1421 71.3 37.0824 71.2659C37.0621 71.2538 37.0407 71.2438 37.0184 71.2361C36.931 71.1913 36.8564 71.1337 36.7732 71.0847C36.8969 71.1593 36.786 71.0847 36.754 71.0634C36.722 71.042 36.69 71.0036 36.6602 70.9717L36.5749 70.8757C36.658 70.9653 36.5877 70.8928 36.5557 70.8394C36.5119 70.7711 36.4727 70.6998 36.4384 70.6262C36.3744 70.5025 36.4533 70.6902 36.4384 70.607C36.4235 70.5239 36.4043 70.5068 36.3893 70.4556C36.3744 70.4044 36.3574 70.2978 36.336 70.2189C36.3147 70.14 36.336 70.3362 36.336 70.2658V70.2019C36.336 70.1528 36.336 70.1038 36.336 70.0569C36.336 69.9694 36.3361 69.8841 36.3488 69.7967C36.3616 69.7093 36.3233 69.9204 36.3488 69.7797C36.3488 69.7306 36.368 69.6837 36.3808 69.6368C36.3936 69.5899 36.4064 69.543 36.4213 69.496C36.4363 69.4491 36.4832 69.3276 36.4512 69.4086C36.4192 69.4897 36.4789 69.3489 36.4917 69.3255C36.5045 69.302 36.5386 69.2402 36.5642 69.1996C36.5898 69.1591 36.6175 69.1186 36.6453 69.0781C36.6922 69.0035 36.6282 69.0994 36.6197 69.108C36.6431 69.0845 36.6623 69.0589 36.6836 69.0333L36.7881 68.9288C36.8201 68.899 36.9438 68.8094 36.818 68.8947C36.9011 68.8369 36.9872 68.7835 37.076 68.7348L37.14 68.7049C37.238 68.6516 37.0632 68.7241 37.125 68.7049C37.1869 68.6857 37.2295 68.6687 37.2807 68.6538C37.3403 68.637 37.4008 68.6234 37.4619 68.6132C37.4875 68.6132 37.5131 68.6132 37.5387 68.6004C37.4619 68.6004 37.4726 68.6004 37.5387 68.6004H37.8415C37.9822 68.5982 38.1165 68.5414 38.216 68.4419C38.3155 68.3424 38.3724 68.208 38.3746 68.0673C38.3729 67.9265 38.3163 67.7918 38.2166 67.6922C38.117 67.5926 37.9824 67.5359 37.8415 67.5343C37.3286 67.5129 36.8207 67.6426 36.3808 67.9074C35.9505 68.1929 35.6213 68.6072 35.4404 69.0909C35.2703 69.5342 35.2268 70.0161 35.315 70.4827C35.4031 70.9493 35.6193 71.3822 35.9394 71.7329C36.3306 72.1211 36.8449 72.3609 37.3937 72.411C38.0046 72.5002 38.6279 72.3887 39.17 72.0933C40.0571 71.5666 40.4132 70.5132 40.2362 69.5344C40.1485 69.0121 39.8924 68.5328 39.5069 68.1697C39.0465 67.7593 38.4497 67.5351 37.833 67.5407C37.6923 67.5428 37.558 67.5997 37.4585 67.6992C37.359 67.7987 37.3021 67.933 37.2999 68.0737C37.2999 68.2161 37.3561 68.3527 37.4564 68.4537C37.5566 68.5548 37.6928 68.6121 37.8351 68.6132Z" fill="#1D1D1B"/>
<path d="M88.0335 99.5032C87.9582 97.0456 87.5888 94.6059 86.9332 92.2361C86.4065 90.4086 85.6708 88.5961 84.5876 87.0267C83.7666 85.8453 82.7196 84.7194 81.389 84.1138C80.8313 83.8434 80.2244 83.6892 79.6053 83.6606C78.9862 83.6321 78.3677 83.7297 77.7874 83.9475C76.3736 84.5105 75.3117 85.6534 74.5121 86.9222C73.3414 88.7752 72.6526 90.9332 72.1664 93.0571C71.47 96.1172 71.1464 99.2504 71.2026 102.388C71.2282 103.621 71.3028 104.9 71.644 106.09C71.8573 106.869 72.2645 107.773 73.0919 108.058C74.0962 108.406 74.9492 107.444 75.4013 106.679C76.4419 104.924 76.7767 102.742 77.0198 100.751C77.4164 97.6683 77.4228 94.5482 77.0389 91.4642C76.7607 89.1031 76.1131 86.8005 75.1198 84.6405C74.4054 83.1479 73.4501 81.7042 72.1856 80.6167C71.2794 79.8384 70.1897 79.2008 68.9721 79.1241C66.5732 78.9705 64.7223 80.589 63.5516 82.5359C62.9491 83.5679 62.4539 84.659 62.0739 85.792C61.8926 86.3145 61.7263 86.8433 61.5728 87.3743C61.5284 87.5014 61.4914 87.631 61.4619 87.7623C61.4448 87.8732 61.4768 87.7623 61.4619 87.7837C61.447 87.805 61.4427 87.8263 61.4363 87.8455C61.3851 87.9649 61.3339 88.0843 61.287 88.2059C60.9177 89.3036 60.6493 90.4328 60.4852 91.5793C60.1931 93.2596 59.982 94.9549 59.8221 96.6544C59.6579 98.4285 59.5513 100.209 59.5427 101.985C59.5088 103.534 59.6129 105.083 59.8541 106.613C60.0204 107.564 60.2806 108.756 61.0866 109.385C61.2653 109.524 61.4729 109.622 61.6942 109.671C61.9156 109.72 62.1451 109.719 62.366 109.668C62.8952 109.542 63.3666 109.241 63.7051 108.815C63.9677 108.39 64.1647 107.928 64.2894 107.444C64.5254 106.671 64.7148 105.884 64.8566 105.088C65.2973 102.64 65.527 100.159 65.5433 97.6715C65.5825 94.3477 65.312 91.0274 64.7351 87.7538C64.4828 86.1929 64.1004 84.6558 63.5921 83.1585C63.2145 82.0058 62.6807 80.9102 62.0056 79.9024C61.4683 79.1411 60.803 78.4097 59.9543 78.0003C59.1918 77.6217 58.3191 77.5279 57.4935 77.7359C56.4593 77.9982 55.5275 78.6827 54.811 79.4524C54.0135 80.3054 53.4846 81.3225 53.0326 82.3887C52.2767 84.1945 51.6357 86.0463 51.1134 87.9329C50.4708 90.1748 49.9645 92.4535 49.5973 94.7566C49.2093 96.9992 49.0493 99.2754 49.1197 101.55C49.205 103.371 49.4822 105.31 50.4225 106.907C50.6151 107.263 50.857 107.591 51.1412 107.879C51.4759 108.193 52.1157 108.333 52.5613 108.306C53.5635 108.235 54.2672 107.453 54.7235 106.623C55.3483 105.465 55.6575 104.139 55.8708 102.851C56.08 101.496 56.1883 100.128 56.1949 98.7569C56.2411 96.5608 56.0676 94.3656 55.6767 92.2041C55.3869 90.515 54.8563 88.8763 54.1009 87.338C53.523 86.2078 52.7426 85.1203 51.6678 84.4145C51.2188 84.1134 50.7111 83.911 50.1781 83.8206C49.6451 83.7302 49.0991 83.7538 48.5759 83.8899C47.3156 84.2269 46.2729 85.1416 45.4605 86.1268C44.181 87.6749 43.2876 89.4981 42.537 91.349C41.5136 93.9572 40.7125 96.6471 40.1423 99.3902C39.9952 100.06 41.023 100.343 41.1701 99.6738C41.7413 96.931 42.5424 94.2411 43.5648 91.6326C43.9442 90.6854 44.3844 89.7637 44.8826 88.8733C45.0958 88.4874 45.3325 88.1078 45.5799 87.741C45.7809 87.4368 45.998 87.1436 46.2303 86.8625C46.4442 86.603 46.672 86.3553 46.9126 86.1204C47.0235 86.0138 47.1365 85.9072 47.2538 85.8091L47.4244 85.6683C47.4479 85.6492 47.5481 85.5745 47.4244 85.6683L47.5396 85.583C47.7641 85.4215 48.0016 85.2789 48.2496 85.1566L48.4181 85.0777C48.4501 85.0627 48.5546 85.0265 48.4032 85.0777L48.4885 85.0436C48.6079 85.0009 48.7273 84.9583 48.851 84.9241C48.9747 84.89 49.0642 84.8751 49.1857 84.8538C49.3073 84.8325 49.0599 84.8538 49.2369 84.8538L49.4288 84.8388C49.5375 84.8324 49.6464 84.8324 49.7551 84.8388C49.8084 84.8388 49.8639 84.8495 49.9172 84.8538C50.0217 84.8538 49.7807 84.8261 49.883 84.8538C49.9172 84.8538 49.9534 84.8644 49.9897 84.873C50.0963 84.8922 50.2029 84.9199 50.3074 84.9497L50.463 85.003C50.51 85.018 50.7125 85.1118 50.5419 85.0308C50.7644 85.1289 50.9783 85.2451 51.1817 85.3783L51.3288 85.4828C51.3565 85.502 51.444 85.5724 51.3288 85.4828L51.4013 85.5404C51.5079 85.63 51.6145 85.7195 51.7105 85.8133C51.9056 85.9992 52.088 86.1979 52.2564 86.4083L52.3225 86.4914C52.2521 86.3955 52.4014 86.5895 52.3225 86.4914C52.3673 86.549 52.4099 86.6066 52.4526 86.6663C52.5464 86.7985 52.6381 86.935 52.7255 87.0715C52.9032 87.3558 53.0667 87.6472 53.216 87.9457C53.2927 88.0993 53.3674 88.2528 53.4292 88.4085C53.4654 88.4874 53.5017 88.5684 53.5358 88.6494C53.5955 88.7859 53.4932 88.5471 53.5507 88.6857C53.5742 88.7411 53.5977 88.7966 53.619 88.852C53.7611 89.2173 53.8941 89.5877 54.0177 89.963C54.283 90.7956 54.4967 91.6437 54.6574 92.5026C55.0164 94.5142 55.1778 96.5561 55.1394 98.5991C55.1453 99.8574 55.0612 101.114 54.8877 102.361C54.6958 103.589 54.4335 104.888 53.8685 105.986C53.6932 106.37 53.4397 106.713 53.1243 106.994C52.9223 107.166 52.6642 107.257 52.3993 107.25C52.3758 107.25 52.2329 107.231 52.3651 107.25C52.3196 107.25 52.2749 107.242 52.2308 107.225C52.1447 107.203 52.0599 107.177 51.977 107.146C51.8896 107.112 52.0901 107.201 51.9408 107.129C51.9259 107.129 51.7894 107.033 51.8747 107.105C51.8041 107.037 51.7405 106.962 51.6849 106.881C51.5953 106.768 51.7489 106.969 51.6636 106.854C51.638 106.817 51.6124 106.783 51.5889 106.747C51.5378 106.677 51.4908 106.604 51.4439 106.534C51.34 106.37 51.2446 106.202 51.1582 106.028C50.9907 105.703 50.8543 105.362 50.7509 105.011C50.6222 104.602 50.5175 104.185 50.4375 103.764C50.2722 102.849 50.1845 101.921 50.1752 100.992C50.1542 98.8423 50.3334 96.6957 50.7104 94.5796C51.0828 92.3659 51.5812 90.1752 52.2031 88.0182C52.4824 87.0523 52.7831 86.0991 53.1136 85.1459C53.2558 84.7194 53.41 84.2986 53.5763 83.8835C53.6474 83.6959 53.7185 83.5104 53.7896 83.327L53.8898 83.0839L53.9346 82.9751L53.9708 82.892C54.3973 81.9004 54.8728 80.9366 55.6256 80.1476C55.9882 79.7558 56.4072 79.4201 56.8687 79.1518C56.9583 79.0985 57.0479 79.0494 57.1417 79.0046L57.2782 78.9385C57.4253 78.8703 57.1822 78.9748 57.3293 78.9151C57.5175 78.8408 57.7115 78.7823 57.9093 78.7402C57.952 78.7296 57.9968 78.7232 58.0415 78.7146C58.1865 78.6891 57.9264 78.7146 58.0735 78.7146C58.1588 78.7146 58.2462 78.6997 58.3337 78.6976C58.4211 78.6954 58.5043 78.6976 58.5896 78.6976L58.7175 78.7104C58.5725 78.6933 58.758 78.7104 58.7857 78.7232C58.9541 78.7581 59.1194 78.8058 59.2804 78.866C59.2996 78.866 59.4318 78.9321 59.3146 78.8788L59.4361 78.9343C59.53 78.9812 59.6238 79.0345 59.7133 79.0878C59.8029 79.1411 59.869 79.1902 59.9457 79.2435C59.9457 79.2435 60.0822 79.3437 59.9927 79.2755L60.1057 79.3672C60.2761 79.5109 60.4371 79.6655 60.5876 79.8299C60.8974 80.1667 61.1704 80.5356 61.4022 80.9302C62.8309 83.2758 63.4002 86.0927 63.8288 88.7646C64.3256 91.8663 64.5397 95.0066 64.4685 98.1471C64.4368 100.436 64.2121 102.719 63.7968 104.971C63.658 105.724 63.4757 106.469 63.2509 107.201C63.2083 107.331 63.1656 107.461 63.1187 107.589L63.0548 107.76C63.0548 107.788 63.0313 107.813 63.0228 107.841C62.9887 107.93 63.0825 107.711 63.0228 107.841C62.9527 107.999 62.8699 108.152 62.7754 108.297C62.8948 108.12 62.7754 108.267 62.72 108.316C62.6176 108.404 62.8053 108.259 62.6645 108.357C62.5725 108.424 62.4764 108.485 62.3767 108.54C62.334 108.562 62.2892 108.579 62.2487 108.604C62.1698 108.651 62.3809 108.564 62.2935 108.585C62.2722 108.585 62.253 108.6 62.2317 108.606L62.1314 108.636C62.0568 108.655 61.931 108.636 62.1187 108.636C62.0476 108.632 61.9764 108.632 61.9054 108.636C61.8287 108.647 62.0419 108.683 61.9758 108.647C61.963 108.647 61.9395 108.647 61.9246 108.636C61.8879 108.619 61.8492 108.607 61.8095 108.6C61.8095 108.6 61.9331 108.67 61.8244 108.6L61.7327 108.542C61.6111 108.474 61.8116 108.628 61.7327 108.542C61.7028 108.51 61.6645 108.481 61.6346 108.449L61.5536 108.357C61.4725 108.272 61.6282 108.476 61.5536 108.344C61.5003 108.261 61.4448 108.176 61.3979 108.088C61.351 108.001 61.3084 107.905 61.2657 107.811C61.3467 107.986 61.2657 107.811 61.2487 107.76C61.2316 107.709 61.2039 107.634 61.1825 107.572C61.011 107.031 60.8876 106.476 60.8136 105.913C60.8136 105.875 60.8136 105.836 60.7987 105.798C60.8179 105.947 60.7987 105.811 60.7987 105.783C60.7987 105.704 60.7795 105.625 60.771 105.546C60.7497 105.367 60.7326 105.188 60.7156 105.009C60.6836 104.644 60.6622 104.278 60.6452 103.911C60.6089 103.126 60.6004 102.339 60.6132 101.555C60.6366 99.8252 60.7475 98.1001 60.9139 96.3814C60.9949 95.5455 61.0887 94.7139 61.2017 93.8823C61.1847 94.006 61.2017 93.846 61.2017 93.8311L61.2209 93.6904C61.2337 93.5965 61.2465 93.5006 61.2614 93.4068C61.287 93.2234 61.3147 93.04 61.3425 92.8545C61.3979 92.492 61.4576 92.1273 61.5216 91.7648C61.6845 90.6581 61.9442 89.5678 62.2978 88.5065L62.3447 88.3829C62.4295 88.1948 62.4966 87.9992 62.5451 87.7986C62.6923 87.2804 62.8501 86.7644 63.0249 86.2547C63.3619 85.2281 63.7968 84.2363 64.3235 83.2929C64.8225 82.4229 65.4622 81.555 66.2427 80.9856C67.0306 80.3927 68.0084 80.1089 68.9913 80.1881C69.0425 80.1881 69.0937 80.2009 69.1448 80.203C69.2451 80.203 69.0063 80.1732 69.1065 80.203C69.1321 80.203 69.1598 80.203 69.1854 80.2158C69.3005 80.2372 69.4178 80.2627 69.533 80.2947C69.6481 80.3267 69.7462 80.363 69.8613 80.4056C69.9018 80.4205 70.0938 80.5037 69.9317 80.4291L70.13 80.5208C70.38 80.6457 70.6209 80.7883 70.8508 80.9473L71.0256 81.0688C71.0576 81.0922 71.2389 81.233 71.1237 81.1392C71.2538 81.2415 71.3817 81.3524 71.5054 81.4569C71.7518 81.6748 71.986 81.9062 72.2069 82.1499C72.3242 82.28 72.4394 82.4143 72.5524 82.5508C72.7166 82.7491 72.7102 82.7427 72.8637 82.9538C73.3719 83.6556 73.8137 84.403 74.1837 85.1864C75.1049 87.1056 75.6764 89.336 75.9621 91.5025C76.3317 94.4612 76.3367 97.4539 75.977 100.414C75.8537 101.59 75.6398 102.755 75.3373 103.898C75.2231 104.326 75.0864 104.749 74.9279 105.163L74.8767 105.295C74.8767 105.31 74.8106 105.453 74.8618 105.335C74.8277 105.414 74.7914 105.495 74.7552 105.572C74.6827 105.728 74.6059 105.881 74.5206 106.03C74.4353 106.18 74.3799 106.271 74.3074 106.387C74.2711 106.44 74.2327 106.489 74.1965 106.542C74.1346 106.634 74.2775 106.446 74.2071 106.529C74.1815 106.557 74.1581 106.587 74.1325 106.617C74.0697 106.692 74.0028 106.763 73.9321 106.83C73.8979 106.862 73.8574 106.892 73.8233 106.924C73.7593 106.99 73.9384 106.854 73.8595 106.896L73.7892 106.945C73.7551 106.969 73.7188 106.988 73.6826 107.009C73.5141 107.052 73.6463 107.031 73.6826 107.009C73.657 107.009 73.4843 107.092 73.4693 107.069C73.4544 107.045 73.6506 107.069 73.4992 107.069C73.468 107.066 73.4366 107.066 73.4054 107.069C73.3691 107.069 73.5781 107.09 73.4416 107.069L73.3968 107.056L73.3542 107.041C73.4309 107.075 73.4437 107.08 73.3926 107.056C73.3352 107.025 73.2796 106.991 73.2262 106.954C73.3563 107.045 73.1836 106.907 73.1516 106.875C73.1196 106.843 73.1026 106.817 73.0791 106.79C73.1687 106.896 73.0791 106.79 73.0791 106.773C73.0258 106.692 72.9725 106.608 72.9277 106.523C72.9064 106.483 72.8872 106.442 72.868 106.402C72.8488 106.361 72.7998 106.248 72.8446 106.357C72.8062 106.265 72.772 106.169 72.74 106.075C72.663 105.844 72.5982 105.608 72.546 105.369C72.3154 104.165 72.2167 102.938 72.2517 101.712C72.2513 98.759 72.5955 95.8155 73.2774 92.9419C73.7615 90.9417 74.3969 89.0204 75.525 87.3039C75.7163 87.0038 75.9302 86.7187 76.1647 86.4509C76.3905 86.1892 76.635 85.944 76.8961 85.7174L77.0752 85.5703C77.1776 85.4871 76.9814 85.6385 77.088 85.5703L77.1775 85.5041C77.297 85.4189 77.4185 85.3378 77.5443 85.2632C77.6701 85.1886 77.7895 85.1246 77.9175 85.0627C77.9537 85.0457 78.1648 84.9561 78.007 85.018C78.0817 84.9902 78.1542 84.9604 78.2203 84.9348C78.3441 84.8914 78.4701 84.8544 78.5977 84.8239C78.6617 84.8069 78.7257 84.7941 78.7896 84.7813L78.8835 84.7663C79.0349 84.7365 78.8067 84.7663 78.9026 84.7663C79.168 84.7439 79.4348 84.7439 79.7001 84.7663H79.7961C79.9134 84.7663 79.666 84.7429 79.7812 84.7663L79.9731 84.8005C80.1128 84.8277 80.2509 84.8626 80.3868 84.905C80.5147 84.9433 80.6405 84.9902 80.7663 85.0393C80.6533 84.9881 80.8922 85.0883 80.7663 85.0393L80.8623 85.0819L81.0756 85.1886C81.3452 85.3301 81.6033 85.4927 81.8475 85.6747L81.9392 85.743C81.8261 85.6577 81.9392 85.743 81.952 85.7536L82.1311 85.9029C82.2633 86.0159 82.3912 86.1353 82.517 86.2569C83.017 86.7409 83.4566 87.2837 83.8263 87.8732C84.8065 89.418 85.5329 91.1098 85.9779 92.8843C86.5502 95.0577 86.875 97.2889 86.946 99.5352C86.9716 100.22 88.0399 100.224 88.0122 99.5352L88.0335 99.5032Z" fill="black"/>
<path d="M0.848846 38.0242C5.23303 39.8623 9.27174 42.4319 13.0908 45.2423C14.1741 46.0398 15.2403 46.8558 16.2894 47.6903C16.3914 47.786 16.526 47.8392 16.6658 47.8392C16.8056 47.8392 16.9402 47.786 17.0422 47.6903C17.1414 47.5897 17.197 47.4542 17.197 47.3129C17.197 47.1716 17.1414 47.036 17.0422 46.9354C13.2039 43.9203 9.23123 41.0373 4.88757 38.7684C3.65505 38.1216 2.39695 37.5309 1.11326 36.9964C0.976965 36.9592 0.83145 36.9775 0.7087 37.0475C0.58595 37.1175 0.495992 37.2333 0.458603 37.3696C0.424115 37.5055 0.443452 37.6495 0.512589 37.7714C0.581727 37.8934 0.695317 37.984 0.829635 38.0242H0.848846Z" fill="black"/>
<path d="M42.5946 0.671352C44.3154 5.52679 45.5053 10.5422 46.3924 15.6108C46.6355 16.9969 46.8573 18.3829 47.0662 19.7775C47.1046 19.9131 47.1948 20.028 47.3173 20.0975C47.4399 20.1669 47.5849 20.1853 47.7209 20.1485C47.8553 20.1083 47.969 20.0178 48.0385 19.8959C48.108 19.774 48.1279 19.6301 48.094 19.4939C47.3434 14.4977 46.4116 9.52287 45.0021 4.66744C44.5756 3.22879 44.1157 1.80222 43.6224 0.387741C43.5822 0.253423 43.4916 0.139832 43.3696 0.0706947C43.2477 0.00155739 43.1037 -0.0177799 42.9678 0.0167083C42.8324 0.0555598 42.7177 0.145769 42.648 0.268081C42.5782 0.390392 42.5591 0.535117 42.5946 0.671352Z" fill="black"/>
<path d="M90.8013 25.6352C93.3196 21.5624 96.4969 17.9586 99.898 14.6044C100.868 13.6469 101.856 12.7108 102.854 11.7854C103.359 11.3184 102.604 10.5657 102.101 11.0326C98.5418 14.3293 95.1151 17.7902 92.2065 21.6946C91.3806 22.7991 90.6051 23.9364 89.8801 25.1064C89.5176 25.6906 90.4388 26.228 90.8013 25.6437V25.6352Z" fill="black"/>
<path d="M107.811 49.9594C112.415 48.648 117.194 48.1213 121.956 47.9358C123.318 47.8825 124.681 47.8569 126.043 47.8462C126.73 47.8462 126.73 46.78 126.043 46.78C121.179 46.8184 116.296 47.0594 111.511 47.9848C110.171 48.2436 108.843 48.5584 107.528 48.9295C106.869 49.1171 107.15 50.1471 107.811 49.9594Z" fill="black"/>
<path d="M104.508 88.5105C107.799 89.1886 110.927 90.4489 113.933 91.9223C114.827 92.3616 115.71 92.8179 116.588 93.2828C117.194 93.6048 117.733 92.6857 117.126 92.3637C114.057 90.7325 110.901 89.2099 107.57 88.1907C106.656 87.9113 105.73 87.6725 104.798 87.4806C104.662 87.4461 104.518 87.4654 104.396 87.5346C104.274 87.6037 104.184 87.7173 104.144 87.8516C104.107 87.9879 104.126 88.1329 104.195 88.2556C104.265 88.3784 104.379 88.4691 104.515 88.5084L104.508 88.5105Z" fill="black"/>
<path d="M4.68709 94.0954C6.7491 91.7199 9.14164 89.6643 11.6685 87.8006C12.3793 87.2717 13.105 86.7543 13.8457 86.2482C13.9646 86.174 14.0505 86.057 14.0858 85.9213C14.1211 85.7857 14.1031 85.6417 14.0355 85.5189C13.9634 85.3976 13.8466 85.3095 13.7101 85.2736C13.5737 85.2376 13.4286 85.2568 13.3062 85.327C10.6769 87.1502 8.10529 89.0864 5.81937 91.3339C5.16544 91.9779 4.53639 92.6475 3.93222 93.3426C3.83561 93.4441 3.78174 93.5789 3.78174 93.719C3.78174 93.8591 3.83561 93.9939 3.93222 94.0954C4.03331 94.1936 4.16871 94.2485 4.30965 94.2485C4.4506 94.2485 4.586 94.1936 4.68709 94.0954Z" fill="black"/>
</svg>
