<svg width="71" height="84" viewBox="0 0 71 84" fill="none" xmlns="http://www.w3.org/2000/svg">
<g clip-path="url(#clip0_216_2806)">
<path d="M36.5114 53.6147C50.0797 53.6147 61.0791 42.7139 61.0791 29.2671C61.0791 15.8203 50.0797 4.91956 36.5114 4.91956C22.943 4.91956 11.9437 15.8203 11.9437 29.2671C11.9437 42.7139 22.943 53.6147 36.5114 53.6147Z" fill="#F9DA1B"/>
<path d="M38.4191 2.11739L40.0754 6.73435L41.1784 9.80598C41.3688 10.3389 41.5257 10.9133 41.7856 11.4201C42.5042 12.8373 44.2682 13.3559 45.6934 12.7043C46.2047 12.467 46.7125 12.2236 47.2215 11.9839L53.2323 9.15201C53.7844 8.89209 54.3832 8.52772 54.9952 8.43989C56.5796 8.20251 57.9796 9.74545 57.594 11.2813C57.4515 11.8462 57.1149 12.391 56.8682 12.912L55.4562 15.8567C54.7485 17.3308 54.0191 18.7989 53.3329 20.2814C52.6467 21.7638 53.279 23.5939 54.8371 24.2455C55.3377 24.4532 55.8622 24.6135 56.3736 24.7927L62.6586 27.0086C63.1664 27.1878 63.7006 27.335 64.1916 27.5569C64.754 27.8185 65.1907 28.288 65.4078 28.8649C65.625 29.4418 65.6054 30.0801 65.3533 30.6428C65.006 31.4083 64.3341 31.7478 63.5856 32.0113L60.9892 32.9263L55.273 34.944C55.0177 35.026 54.7698 35.1288 54.5317 35.2514C54.1908 35.4434 53.8919 35.7006 53.6521 36.008C53.4124 36.3155 53.2367 36.6671 53.1353 37.0424C52.959 37.7229 53.0302 38.4431 53.3365 39.0767C53.4107 39.2346 53.4886 39.3913 53.564 39.5515L56.3101 45.2782L57.3413 47.4288C57.496 47.7199 57.5997 48.0349 57.6479 48.3605C57.6842 48.7339 57.6294 49.1105 57.488 49.4586C57.3467 49.8066 57.1231 50.1159 56.8359 50.3604C56.5427 50.6149 56.1894 50.7919 55.8088 50.8749C55.4282 50.9579 55.0325 50.9442 54.6586 50.8351C54.4432 50.7647 54.2338 50.6774 54.0323 50.574L51.6994 49.475L46.0574 46.8175C45.9125 46.7487 45.7676 46.6775 45.6203 46.6122C45.2569 46.449 44.8638 46.3606 44.4649 46.3525C44.0659 46.3444 43.6695 46.4166 43.2996 46.5649C42.9297 46.7132 42.594 46.9344 42.313 47.2151C42.0319 47.4958 41.8114 47.8301 41.6646 48.1979C41.6012 48.3545 41.5449 48.5148 41.491 48.6726L39.4024 54.4883L38.5353 56.9048C38.4761 57.0908 38.4057 57.2731 38.3245 57.4508C38.1858 57.7338 37.9894 57.9853 37.7479 58.1896C37.5063 58.3938 37.2248 58.5464 36.9209 58.6376C36.3442 58.8125 35.7219 58.7625 35.1812 58.4978C34.6404 58.233 34.2222 57.7736 34.0119 57.2134C33.8227 56.7018 33.6431 56.1867 33.4598 55.6705L31.2275 49.4512C31.0275 48.8946 30.8682 48.2643 30.5568 47.7492C29.7664 46.4437 28.103 46.0022 26.7305 46.6312C25.1461 47.3576 23.5772 48.1172 22.0012 48.859L19.1137 50.2191C18.5485 50.4862 17.9305 50.8612 17.2958 50.9075C15.6646 51.0262 14.3856 49.4014 14.8934 47.8656C15.0658 47.3421 15.3616 46.8437 15.5988 46.3487L18.473 40.3586C18.703 39.8779 18.9521 39.4019 19.1616 38.9118C19.8263 37.3569 18.9928 35.5885 17.4179 35.0176C15.8814 34.455 14.3293 33.9292 12.7856 33.3857L9.67182 32.2902C9.16164 32.1098 8.60236 31.9685 8.11494 31.7193C7.56655 31.4261 7.15631 30.9311 6.97262 30.341C6.78894 29.751 6.84648 29.113 7.13288 28.5646C7.51492 27.8524 8.17719 27.5557 8.89935 27.3017L14.8874 25.1891L17.1808 24.3808C17.4717 24.2899 17.7509 24.1661 18.0131 24.0117C18.3479 23.8001 18.6363 23.524 18.8614 23.1999C19.0865 22.8757 19.2435 22.51 19.3233 22.1246C19.4452 21.4901 19.3583 20.8336 19.0754 20.2517C18.994 20.0748 18.9077 19.8956 18.8239 19.7259L17.5904 17.1539L15.0575 11.8735C14.8882 11.551 14.7871 11.1976 14.7604 10.835C14.7481 10.4571 14.8278 10.0817 14.993 9.74083C15.1581 9.39993 15.4037 9.1035 15.7089 8.87666C16.0244 8.6406 16.3954 8.48816 16.7868 8.43375C17.1783 8.37934 17.5772 8.42475 17.9461 8.5657C18.1137 8.6286 18.2742 8.71287 18.4359 8.78883L24.0646 11.4391L26.4143 12.5465C26.588 12.6284 26.7616 12.715 26.9413 12.7839C27.3104 12.9274 27.705 12.9956 28.1013 12.9843C28.4977 12.9731 28.8877 12.8826 29.2479 12.7184C29.6082 12.5541 29.9312 12.3194 30.1977 12.0284C30.4642 11.7374 30.6686 11.3961 30.7988 11.0249C30.8503 10.8872 30.8982 10.7484 30.9485 10.6095L31.8575 8.07315L33.9041 2.3702C34.182 1.59635 34.6443 0.94595 35.4742 0.689584C36.0532 0.506826 36.6809 0.551794 37.2274 0.815168C37.7738 1.07854 38.1971 1.54014 38.4095 2.10434C38.5413 2.4604 39.1209 2.30611 38.9868 1.94648C38.7626 1.31437 38.3267 0.777454 37.7517 0.42521C37.1766 0.0729665 36.497 -0.073334 35.8263 0.010687C34.667 0.15786 33.7904 0.932892 33.4 2.0082C32.7676 3.75766 32.1437 5.51068 31.5149 7.26132L30.4922 10.1098C30.2323 10.835 30.0131 11.5507 29.3161 12.0088C28.9868 12.2234 28.6087 12.3532 28.216 12.3866C27.8233 12.42 27.4284 12.3558 27.067 12.1999C26.9269 12.1382 26.7904 12.0694 26.6526 12.0053L24.1772 10.8386L18.6503 8.23575C18.4037 8.10901 18.1464 8.00377 17.8814 7.92122C17.4901 7.81408 17.0804 7.78956 16.679 7.84926C16.2775 7.90896 15.8932 8.05155 15.5508 8.26779C14.9368 8.65619 14.4879 9.25437 14.2892 9.94893C14.0906 10.6435 14.156 11.3862 14.473 12.0361C15.2227 13.6372 16.0024 15.2241 16.7664 16.8181L18.1305 19.6666C18.4251 20.2814 18.794 20.8926 18.782 21.5952C18.7735 21.9822 18.6683 22.3611 18.4758 22.6979C18.2833 23.0347 18.0095 23.3189 17.679 23.5251C17.4558 23.6515 17.2198 23.7541 16.9748 23.8313L14.5592 24.6823L8.62512 26.7736C8.47542 26.8258 8.32569 26.8756 8.17719 26.9314C7.51648 27.1709 6.96417 27.637 6.6203 28.2453C5.99515 29.3871 6.19875 30.8897 7.16402 31.7857C7.69096 32.2747 8.36163 32.4694 9.0299 32.7032L11.9269 33.7239C13.6802 34.3423 15.4359 34.9523 17.1856 35.5778C17.4949 35.6861 17.7782 35.8567 18.0177 36.0788C18.2572 36.301 18.4476 36.5699 18.577 36.8687C18.7064 37.1674 18.7719 37.4894 18.7695 37.8145C18.7671 38.1396 18.6967 38.4607 18.5628 38.7575C18.3401 39.2405 18.1018 39.7176 17.8718 40.1971L14.9976 46.198C14.7329 46.7499 14.3784 47.3374 14.2371 47.9356C14.0698 48.7019 14.2162 49.5026 14.6442 50.162C15.0722 50.8213 15.7468 51.2854 16.5197 51.4523C17.1663 51.5747 17.8356 51.4851 18.4263 51.1971C18.6143 51.1105 18.8023 51.0203 18.9904 50.9313L21.6431 49.6815L26.9125 47.1985C28.0347 46.6692 29.3976 46.9884 30.0407 48.0863C30.3317 48.5824 30.4802 49.1901 30.6718 49.7266L32.9209 55.9933C33.1041 56.5048 33.2694 57.0294 33.479 57.5362C33.7373 58.153 34.2006 58.6637 34.7919 58.9838C35.3833 59.304 36.0673 59.4142 36.7305 59.2964C37.8395 59.1136 38.6467 58.3172 39.0131 57.2941C39.2527 56.6239 39.4922 55.9514 39.7317 55.2764L41.9353 49.1355C42.2083 48.3735 42.467 47.6555 43.2359 47.227C43.5602 47.048 43.9226 46.9471 44.2935 46.9327C44.6645 46.9183 45.0337 46.9906 45.3712 47.1439C45.5173 47.2092 45.661 47.2804 45.806 47.3481L51.564 50.0613L53.794 51.1117C54.0827 51.2607 54.3888 51.3743 54.7053 51.4499C55.1 51.5299 55.5072 51.5278 55.9009 51.4436C56.2947 51.3595 56.6665 51.1951 56.9928 50.9609C58.1904 50.1004 58.5401 48.5872 57.9185 47.2816C57.6455 46.7048 57.3664 46.1292 57.0898 45.5535L54.2299 39.5918C53.9173 38.9391 53.5557 38.3195 53.6251 37.5647C53.6655 37.1758 53.8032 36.8032 54.0257 36.4805C54.2482 36.1578 54.5485 35.8952 54.8994 35.7167C55.0927 35.6229 55.2929 35.5435 55.4982 35.4793L61.376 33.407L63.8515 32.5347C64.7006 32.2356 65.4599 31.8012 65.8622 30.9561C66.4227 29.7823 66.1664 28.288 65.1437 27.443C64.6167 27.0086 63.9605 26.8258 63.3257 26.6027L57.0563 24.3927C56.4419 24.1755 55.8263 23.9654 55.2143 23.7435C54.9075 23.6328 54.627 23.4607 54.3902 23.2378C54.1535 23.0149 53.9657 22.7461 53.8385 22.4481C53.7113 22.15 53.6474 21.8292 53.6509 21.5056C53.6544 21.1821 53.7251 20.8627 53.8587 20.5674C54.57 19.015 55.3377 17.4815 56.0754 15.9457L57.467 13.0438C57.7449 12.4646 58.1185 11.845 58.2239 11.2077C58.3382 10.4346 58.1403 9.64806 57.673 9.01876C57.2057 8.38946 56.5069 7.9682 55.7281 7.84645C54.8562 7.72776 54.1329 8.06721 53.3784 8.42209L47.4479 11.216C46.7916 11.5262 46.1353 11.8355 45.479 12.1441C44.2982 12.6972 42.8754 12.2628 42.2922 11.0759C42.0527 10.5858 41.9053 10.0339 41.7221 9.52351L40.5856 6.35573L39.0036 1.94767C38.8682 1.60229 38.2898 1.75658 38.4191 2.11739Z" fill="black"/>
<path d="M39.9414 69.5699H29.9917C28.7184 69.5699 27.6863 70.5929 27.6863 71.8547V81.7153C27.6863 82.9771 28.7184 84 29.9917 84H39.9414C41.2146 84 42.2468 82.9771 42.2468 81.7153V71.8547C42.2468 70.5929 41.2146 69.5699 39.9414 69.5699Z" fill="#055445"/>
<path d="M43.0323 69.5699H33.0826C31.8094 69.5699 30.7772 70.5929 30.7772 71.8547V81.7153C30.7772 82.9771 31.8094 84 33.0826 84H43.0323C44.3055 84 45.3377 82.9771 45.3377 81.7153V71.8547C45.3377 70.5929 44.3055 69.5699 43.0323 69.5699Z" fill="#49B170"/>
<path d="M52.0899 51.5425L51.3342 53.2207L49.5377 57.2217L47.3593 62.057L45.4719 66.2479C45.1665 66.9256 44.8587 67.6021 44.5569 68.281L44.5437 68.3083C44.5059 68.3768 44.4959 68.457 44.516 68.5325C44.536 68.6081 44.5845 68.6731 44.6515 68.7142C44.72 68.7537 44.8016 68.7647 44.8783 68.7449C44.955 68.7251 45.0207 68.6761 45.0611 68.6086L45.8168 66.9303L47.6132 62.9294L49.7905 58.094L51.6779 53.9032C51.9833 53.2255 52.2922 52.5489 52.594 51.8701L52.606 51.8416C52.6439 51.7731 52.6538 51.6928 52.6338 51.6173C52.6137 51.5418 52.5652 51.4768 52.4982 51.4357C52.4294 51.3969 52.348 51.3864 52.2715 51.4064C52.1949 51.4263 52.1293 51.4752 52.0887 51.5425H52.0899Z" fill="black"/>
<path d="M20.4167 51.8416L21.1736 53.5198L22.97 57.5208L25.1473 62.3561L27.0359 66.547L27.655 67.9238C27.7532 68.1422 27.8407 68.3689 27.9508 68.5801L27.964 68.6086C28.0047 68.6759 28.0704 68.7247 28.147 68.7445C28.2236 68.7642 28.305 68.7534 28.3736 68.7142C28.4408 68.6733 28.4895 68.6082 28.5094 68.5325C28.5292 68.4569 28.5188 68.3765 28.4802 68.3083L27.7245 66.6301L25.9281 62.6291L23.7496 57.7926L21.8622 53.6017L21.2419 52.225C21.1449 52.0078 21.0574 51.7811 20.9473 51.5686C20.9473 51.5603 20.9389 51.5508 20.9341 51.5413C20.8936 51.4738 20.828 51.4247 20.7514 51.4047C20.6747 51.3848 20.5932 51.3954 20.5245 51.4345C20.4573 51.4754 20.4086 51.5404 20.3885 51.616C20.3684 51.6916 20.3786 51.772 20.4167 51.8404V51.8416Z" fill="black"/>
<path d="M46.6084 28.1298C46.6061 28.0992 46.6081 28.0684 46.6144 28.0384V28.0716C46.6144 28.0574 46.6144 28.042 46.6228 28.0277C46.6276 28.0057 46.6336 27.9839 46.6407 27.9624C46.6407 27.9541 46.6766 27.8758 46.6563 27.9161C46.6359 27.9565 46.6755 27.8794 46.6803 27.8722C46.6851 27.8651 46.7018 27.8354 46.715 27.8165C46.7281 27.7975 46.7521 27.7725 46.715 27.8081C46.7353 27.7868 46.7533 27.7642 46.7748 27.7441C46.7964 27.7239 46.8084 27.7156 46.824 27.7001C46.7761 27.7488 46.8156 27.7061 46.8324 27.7001L46.8982 27.6598C46.9138 27.6515 46.9904 27.6206 46.9174 27.6479C46.9591 27.6318 47.0019 27.6187 47.0455 27.6087L47.0898 27.6004C47.0479 27.6004 47.0443 27.6064 47.079 27.6004H47.1485C47.1725 27.6004 47.1952 27.6004 47.2192 27.6004C47.2815 27.6004 47.1629 27.5886 47.2407 27.6004C47.2883 27.6112 47.3351 27.6251 47.3808 27.642C47.3102 27.6159 47.3737 27.642 47.3892 27.6491C47.4155 27.6623 47.4407 27.6774 47.4647 27.6942C47.4802 27.7049 47.5282 27.7476 47.4743 27.6942C47.4898 27.7096 47.5066 27.7227 47.5233 27.7381C47.5392 27.7578 47.5565 27.7765 47.5749 27.7939C47.5892 27.8105 47.5844 27.8046 47.5629 27.7761L47.588 27.8105C47.612 27.8473 47.6323 27.8865 47.6527 27.9292C47.6156 27.858 47.6527 27.9434 47.6623 27.9601C47.6719 27.9767 47.6743 28.004 47.679 28.0253C47.6838 28.0467 47.7078 28.1049 47.679 28.036C47.6832 28.0663 47.6832 28.0971 47.679 28.1274C47.679 28.2061 47.7106 28.2816 47.7668 28.3372C47.8229 28.3929 47.899 28.4241 47.9784 28.4241C48.0579 28.4241 48.134 28.3929 48.1902 28.3372C48.2463 28.2816 48.2778 28.2061 48.2778 28.1274C48.275 27.8951 48.201 27.6691 48.0656 27.4794C47.9302 27.2897 47.7399 27.1452 47.5198 27.0652C47.3049 26.9894 47.0721 26.9795 46.8514 27.0366C46.6308 27.0938 46.4326 27.2154 46.2826 27.3856C46.1039 27.5926 46.0039 27.855 46 28.1274C46 28.2061 46.0316 28.2816 46.0877 28.3372C46.1439 28.3929 46.22 28.4241 46.2994 28.4241C46.3788 28.4241 46.455 28.3929 46.5111 28.3372C46.5673 28.2816 46.5988 28.2061 46.5988 28.1274L46.6084 28.1298Z" fill="#1D1D1B"/>
<path d="M49.2336 28.1298C49.2299 28.0994 49.2299 28.0688 49.2336 28.0384V28.0716C49.2336 28.0574 49.2336 28.042 49.242 28.0277C49.2504 28.0135 49.2528 27.9838 49.2588 27.9624C49.2647 27.9411 49.2947 27.8758 49.2755 27.9161C49.2564 27.9565 49.2947 27.8794 49.2995 27.8722L49.333 27.8165C49.3522 27.7892 49.3713 27.7725 49.339 27.8081C49.3593 27.7868 49.3773 27.7642 49.3989 27.7441C49.4204 27.7239 49.4324 27.7156 49.4468 27.7001C49.4001 27.7488 49.4396 27.7061 49.4564 27.7001L49.5222 27.6598C49.5378 27.6515 49.6144 27.6206 49.5414 27.6479C49.5831 27.6318 49.6259 27.6187 49.6695 27.6087L49.7138 27.6004C49.6719 27.6004 49.6683 27.6064 49.7031 27.6004C49.7378 27.5945 49.7486 27.6004 49.7725 27.6004C49.7965 27.6004 49.8192 27.6004 49.8432 27.6004C49.9055 27.6004 49.7869 27.5886 49.8647 27.6004C49.9123 27.6112 49.9591 27.6251 50.0049 27.642C49.9342 27.6159 49.9965 27.642 50.0132 27.6491C50.0393 27.6625 50.0645 27.6776 50.0887 27.6942C50.1043 27.7049 50.1509 27.7476 50.0983 27.6942L50.1462 27.7381C50.1641 27.7547 50.1797 27.7797 50.1989 27.7939C50.218 27.8081 50.2085 27.8046 50.1857 27.7761C50.1951 27.7871 50.2039 27.7986 50.212 27.8105C50.236 27.8473 50.2564 27.8865 50.2767 27.9292C50.2396 27.858 50.2767 27.9434 50.2863 27.9601C50.2959 27.9767 50.2983 28.004 50.3031 28.0253C50.3079 28.0467 50.3306 28.1049 50.3031 28.036C50.3073 28.0663 50.3073 28.0971 50.3031 28.1274C50.3031 28.2061 50.3346 28.2816 50.3908 28.3372C50.4469 28.3929 50.5231 28.4241 50.6025 28.4241C50.6819 28.4241 50.758 28.3929 50.8142 28.3372C50.8703 28.2816 50.9019 28.2061 50.9019 28.1274C50.899 27.8951 50.825 27.6691 50.6896 27.4794C50.5542 27.2897 50.3639 27.1452 50.1438 27.0652C49.9289 26.9894 49.696 26.9795 49.4754 27.0366C49.2548 27.0938 49.0566 27.2154 48.9066 27.3856C48.7274 27.5923 48.6274 27.8549 48.624 28.1274C48.6246 28.2059 48.6564 28.281 48.7124 28.3365C48.7684 28.392 48.8442 28.4235 48.9234 28.4241C49.0024 28.4226 49.0776 28.3909 49.1334 28.3355C49.1892 28.2802 49.2213 28.2056 49.2228 28.1274L49.2336 28.1298Z" fill="#1D1D1B"/>
<path d="M48.4958 29.6953C48.5269 29.6953 48.558 29.6953 48.588 29.6953H48.6335C48.5664 29.6953 48.6 29.6953 48.6191 29.6953C48.6775 29.7059 48.7351 29.7201 48.7916 29.738C48.8041 29.7431 48.8169 29.7474 48.8299 29.751C48.8682 29.7594 48.7784 29.7249 48.8131 29.7439C48.8479 29.7629 48.8538 29.7629 48.8742 29.7736L48.9401 29.8116C48.964 29.827 49.0287 29.8899 48.97 29.8306C49.0024 29.8638 49.0395 29.8911 49.0706 29.9243C49.0778 29.9315 49.1341 29.9955 49.1006 29.9564C49.067 29.9172 49.1221 29.9872 49.1305 30.0003C49.1566 30.0408 49.1802 30.0828 49.2011 30.1261C49.2347 30.1914 49.1952 30.1 49.2011 30.138L49.2275 30.2139C49.2407 30.2578 49.2491 30.3018 49.2587 30.3457C49.2754 30.4252 49.2587 30.3065 49.2587 30.3564C49.2587 30.386 49.2586 30.4157 49.2646 30.4466C49.267 30.4912 49.267 30.536 49.2646 30.5807C49.2646 30.5925 49.2646 30.6056 49.2646 30.6175C49.2646 30.6554 49.2778 30.5534 49.2646 30.5914C49.2514 30.6293 49.2551 30.6448 49.2479 30.6709C49.2371 30.7172 49.2203 30.7611 49.2059 30.8074C49.1916 30.8537 49.2371 30.748 49.2059 30.818C49.194 30.8418 49.182 30.8655 49.1688 30.8893C49.1557 30.913 49.1437 30.9296 49.1305 30.9486C49.0922 30.9937 49.1173 30.9676 49.1305 30.9486C49.0934 30.989 49.0575 31.0281 49.0107 31.0673L48.982 31.091C48.982 31.091 49.0395 31.0531 48.9976 31.078C48.9784 31.0887 48.9616 31.1017 48.9425 31.1136C48.9204 31.127 48.8976 31.1393 48.8742 31.1504L48.8395 31.167C48.8096 31.1848 48.8982 31.1492 48.8395 31.167C48.7808 31.1848 48.7341 31.2014 48.6778 31.2133C48.6563 31.2133 48.5712 31.224 48.6479 31.2192L48.5149 31.2287C48.4275 31.2287 48.3425 31.2287 48.255 31.2192C48.3329 31.2192 48.2479 31.2192 48.2251 31.2133C48.1903 31.2064 48.1559 31.1977 48.1221 31.1872C48.0993 31.18 48.0766 31.1694 48.0539 31.1634C48.0311 31.1575 48.1041 31.1907 48.0694 31.1706L48.0347 31.1539C47.9856 31.1302 47.9425 31.0982 47.8958 31.0697C47.9664 31.1124 47.9029 31.0697 47.885 31.0578C47.8669 31.0421 47.8498 31.0255 47.8335 31.008C47.8167 30.9902 47.8012 30.9712 47.7856 30.9534C47.8311 31.0044 47.7928 30.9629 47.7736 30.9344C47.7544 30.9059 47.7281 30.8572 47.7077 30.8157C47.6718 30.7457 47.7161 30.8513 47.7077 30.805C47.6994 30.7587 47.6874 30.748 47.679 30.7195C47.6706 30.6911 47.661 30.6317 47.6503 30.589C47.6395 30.5463 47.6503 30.6531 47.6503 30.6151C47.6503 30.6032 47.6503 30.5902 47.6503 30.5783C47.6503 30.5664 47.6503 30.5249 47.6503 30.4976C47.6503 30.4501 47.6503 30.4026 47.6503 30.354C47.6503 30.3053 47.6359 30.4228 47.6503 30.3433C47.6503 30.3172 47.661 30.2911 47.667 30.2638C47.673 30.2365 47.6814 30.2116 47.6898 30.1866C47.6982 30.1617 47.7245 30.0929 47.7065 30.1368C47.6886 30.1807 47.7233 30.1047 47.7305 30.0917C47.7422 30.0672 47.7554 30.0434 47.77 30.0205L47.8155 29.9528C47.8431 29.9125 47.8059 29.9659 47.8024 29.9706L47.8383 29.9291C47.8562 29.9089 47.8754 29.8899 47.8958 29.8709C47.9161 29.8519 47.9844 29.8045 47.9137 29.8519C47.9599 29.8187 48.0084 29.7886 48.0587 29.7617L48.0934 29.7451C48.1485 29.7166 48.0515 29.7558 48.0862 29.7451C48.1209 29.7344 48.1437 29.7249 48.1724 29.7166C48.2063 29.7069 48.2407 29.699 48.2754 29.6929L48.3173 29.6858C48.2754 29.6858 48.2814 29.6858 48.3173 29.6858C48.3592 29.6858 48.4299 29.6858 48.4874 29.6858C48.5668 29.6858 48.6429 29.6545 48.6991 29.5989C48.7552 29.5432 48.7868 29.4677 48.7868 29.3891C48.7868 29.3104 48.7552 29.2349 48.6991 29.1792C48.6429 29.1236 48.5668 29.0923 48.4874 29.0923C48.1989 29.0804 47.9133 29.1526 47.6658 29.3C47.4248 29.4594 47.2404 29.6898 47.1389 29.9588C47.0432 30.2054 47.0186 30.4736 47.0679 30.7333C47.1171 30.993 47.2383 31.234 47.4179 31.4293C47.6376 31.6452 47.9265 31.7783 48.2347 31.8055C48.5777 31.8556 48.9277 31.794 49.2323 31.6299C49.7305 31.3355 49.9317 30.7492 49.8371 30.2056C49.7871 29.9155 49.6434 29.6493 49.4275 29.4472C49.1694 29.218 48.8339 29.0931 48.4874 29.0971C48.408 29.0971 48.3318 29.1283 48.2757 29.184C48.2195 29.2396 48.188 29.3151 48.188 29.3938C48.188 29.4725 48.2195 29.548 48.2757 29.6036C48.3318 29.6593 48.408 29.6905 48.4874 29.6905L48.4958 29.6953Z" fill="#1D1D1B"/>
</g>
<defs>
<clipPath id="clip0_216_2806">
<rect width="71" height="84" fill="white"/>
</clipPath>
</defs>
</svg>
