<svg width="67" height="42" viewBox="0 0 67 42" fill="none" xmlns="http://www.w3.org/2000/svg">
<g clip-path="url(#clip0_325_319)">
<path d="M20.7958 41.599H16.9319L16.0415 35.0854C15.9653 34.5022 15.9105 33.9906 15.876 33.552C15.8272 33.1193 15.7796 32.5054 15.7308 31.7105C15.607 32.4243 15.4129 33.2192 15.1511 34.0976C15.0963 34.2693 15.0546 34.4163 15.0273 34.5398L12.9655 41.599H10.2098L8.14811 34.5398C8.12788 34.4234 8.08621 34.2752 8.02431 34.0976C7.73386 33.171 7.5446 32.3761 7.45413 31.7105C7.39937 32.4654 7.34699 33.0275 7.29819 33.398C7.27795 33.5896 7.24581 33.8719 7.20534 34.2423C7.16368 34.6127 7.13273 34.8938 7.11249 35.0866L6.22209 41.6002H2.3772L4.71866 26.5352H8.81115L11.1002 34.3046C11.1419 34.4493 11.1693 34.541 11.1836 34.5821C11.3835 35.2266 11.5181 35.8169 11.5871 36.3519C11.6014 36.1661 11.6526 35.8651 11.743 35.4465C11.7704 35.343 11.874 34.9561 12.0537 34.2835L14.3642 26.5352H18.4662L20.797 41.6002L20.7958 41.599Z" fill="#121212"/>
<path d="M23.0229 41.5989V26.5339H32.315V29.8372H27.0524V32.4513H32.0138V35.6828H27.0524V38.224H32.315V41.5989H23.0229Z" fill="#121212"/>
<path d="M34.947 26.5339H39.0907V33.8612C39.0907 34.9796 39.118 35.7545 39.174 36.1873C39.243 36.7023 39.3359 37.0927 39.4537 37.3608C39.599 37.7524 39.8716 38.0405 40.2727 38.2252C40.6727 38.438 41.156 38.5438 41.7226 38.5438C42.2892 38.5438 42.7618 38.438 43.1617 38.2252C43.5284 38.0464 43.8045 37.7583 43.9902 37.3608C44.1009 37.0869 44.1914 36.6953 44.2593 36.1873C44.3212 35.7757 44.3521 35.0007 44.3521 33.8612V26.5339H48.4648V34.4986C48.4648 36.1308 48.3648 37.3456 48.1649 38.1417C47.9792 38.9307 47.6399 39.6069 47.1495 40.169C46.6102 40.7934 45.896 41.2497 45.0056 41.5378C44.1212 41.8471 43.0272 42.0011 41.7214 42.0011C40.4156 42.0011 39.2907 41.8471 38.4276 41.5378C37.5503 41.2497 36.8361 40.7934 36.2826 40.169C35.8064 39.6198 35.4672 38.9448 35.2672 38.1417C35.0529 37.3326 34.9458 36.1179 34.9458 34.4986V26.5339H34.947Z" fill="#121212"/>
<path d="M51.6157 41.5989V26.5339H55.7487V32.389H61.2601V26.5339H65.4038V41.5989H61.2601V35.4664H55.7487V41.5989H51.6157Z" fill="#121212"/>
<path d="M65.9928 1.55156H0.810178V22.3822H65.9928V1.55156Z" fill="#121212"/>
<path d="M12.2022 2.45995L20.1043 0L33.4182 0.239445L26.7121 11.6688L17.6029 11.9773L12.6147 7.78215L12.2022 2.45995Z" fill="white"/>
<path d="M40.8574 9.95434L34.4008 13.4633L38.167 18.6907L55.2698 16.6803L40.8574 9.95434Z" fill="white"/>
<path d="M50.9654 3.33828L52.1569 5.75063L58.6906 8.01695L63.9941 16.3879L65.9928 15.5106L67.6452 12.0013L67.9526 3.8866L66.3002 0.267721L58.4983 0.889062L50.9654 3.33828Z" fill="white"/>
<path d="M14.8 21.1213L9.72678 18.1241L8.38143 14.6881L6.59088 14.2364V9.78075H5.4954V13.9601L4.92076 13.8152V8.80758H3.82566V13.5389L3.25101 13.3939V7.98509H2.15553V13.1176L1.42509 12.9336L-1.11133 21.9255L4.23096 24.4478L15.8375 23.5336L14.8 21.1213Z" fill="white"/>
</g>
<defs>
<clipPath id="clip0_325_319">
<rect width="67" height="42" fill="white"/>
</clipPath>
</defs>
</svg>
