<svg width="276" height="96" viewBox="0 0 276 96" fill="none" xmlns="http://www.w3.org/2000/svg">
<path d="M2.63907 49.4575V10.4247H13.2753V40.3392H26.4973V49.4575H2.63907Z" fill="white"/>
<path d="M33.9346 10.4247H43.8511L35.614 27.115H28.2567L33.9346 10.4247Z" fill="white"/>
<path d="M48.4628 10.4247H59.1257V29.4079C59.1257 32.3051 59.1968 34.3136 59.339 35.4334C59.5167 36.7665 59.7566 37.7797 60.0587 38.4729C60.4319 39.486 61.1339 40.2326 62.1646 40.7125C63.1954 41.2635 64.4394 41.539 65.8967 41.539C67.3361 41.539 68.5713 41.2635 69.602 40.7125C70.5439 40.2503 71.2548 39.5038 71.7346 38.4729C72.0189 37.7619 72.25 36.7488 72.4277 35.4334C72.5876 34.367 72.6676 32.3585 72.6676 29.4079V10.4247H83.2505V31.0609C83.2505 35.2912 82.9928 38.4373 82.4774 40.4992C81.9976 42.5432 81.1268 44.294 79.865 45.7515C78.4789 47.369 76.6395 48.551 74.347 49.2975C72.0722 50.0974 69.2555 50.4973 65.8967 50.4973C62.4668 50.4973 59.6411 50.0974 57.4197 49.2975C55.1627 48.551 53.3233 47.369 51.9016 45.7515C50.6754 44.3296 49.8046 42.5788 49.2892 40.4992C48.7383 38.4018 48.4628 35.2557 48.4628 31.0609V10.4247Z" fill="white"/>
<path d="M93.087 36.8465C94.722 38.6595 96.2859 40.0015 97.7787 40.8724C99.3426 41.7612 100.871 42.2055 102.364 42.2055C103.768 42.2055 104.932 41.8234 105.856 41.0591C106.78 40.2948 107.242 39.326 107.242 38.1529C107.242 36.8732 106.86 35.8689 106.096 35.1402C105.278 34.447 103.474 33.7271 100.684 32.9806C96.8812 31.9496 94.1889 30.6166 92.6072 28.9813C91.0078 27.3105 90.208 25.0354 90.208 22.1559C90.208 18.4233 91.4609 15.3838 93.9667 13.0376C96.4369 10.6736 99.6714 9.49158 103.67 9.49158C105.927 9.49158 107.971 9.78485 109.801 10.3714C111.72 10.958 113.542 11.8289 115.266 12.9843L111.934 20.6362C110.761 19.623 109.517 18.841 108.202 18.2899C106.922 17.7745 105.669 17.5168 104.443 17.5168C103.199 17.5168 102.159 17.8278 101.324 18.4499C100.524 19.0365 100.125 19.8186 100.125 20.7961C100.125 21.7382 100.471 22.5203 101.164 23.1424C101.893 23.7289 103.261 24.2888 105.269 24.8221C105.34 24.8398 105.403 24.8576 105.456 24.8754C105.509 24.8754 105.589 24.8932 105.696 24.9287C110.032 26.0841 112.893 27.3816 114.28 28.8213C115.186 29.7278 115.897 30.8743 116.412 32.2607C116.874 33.576 117.105 35.0691 117.105 36.7399C117.105 40.8635 115.746 44.1963 113.027 46.738C110.29 49.2442 106.664 50.4973 102.15 50.4973C99.3781 50.4973 96.899 50.0441 94.7131 49.1376C92.545 48.2311 90.4035 46.7736 88.2887 44.765L93.087 36.8465Z" fill="white"/>
<path d="M123.343 49.4575V10.4247H134.086V49.4575H123.343Z" fill="white"/>
<path d="M142.696 49.4575V10.4247H152.959L167.701 30.501C168.074 31.052 168.545 31.8785 169.113 32.9806C169.842 34.4025 170.553 35.8689 171.246 37.3797C170.979 35.3357 170.828 33.9048 170.793 33.0872C170.686 31.8074 170.633 30.6788 170.633 29.7012V10.4247H180.843V49.4575H170.633L155.891 29.3012C155.678 29.0168 155.207 28.1814 154.479 26.795C153.839 25.6575 153.128 24.2177 152.346 22.4758C152.524 23.8622 152.693 25.302 152.853 26.795C152.924 28.4658 152.959 29.5945 152.959 30.1811V49.4575H142.696Z" fill="white"/>
<path d="M189.24 49.4575V10.4247H213.151V18.9832H199.609V25.7552H212.378V34.127H199.609V40.7125H213.151V49.4575H189.24Z" fill="white"/>
<path d="M247.646 34.8735H258.229L254.257 21.9959C254.168 21.7649 253.999 21.125 253.75 20.0763C253.448 18.8498 253.173 17.7389 252.924 16.7436C252.675 17.6501 252.462 18.5655 252.284 19.4897C252 20.3784 251.76 21.2139 251.564 21.9959L247.646 34.8735ZM232.744 49.4575L246.206 10.4247H259.535L273.023 49.4575H262.44L260.468 42.4721H245.353L243.327 49.4575H232.744ZM246.713 0H252.657L256.549 7.41196H253.27L246.713 0Z" fill="white"/>
<path d="M47.3965 94.9602H37.4534L35.1609 78.0833C34.9654 76.5725 34.8232 75.2483 34.7344 74.1107C34.61 72.9909 34.4856 71.4001 34.3612 69.3383C34.0413 71.1868 33.5437 73.2487 32.8684 75.5238C32.7262 75.9682 32.6196 76.3503 32.5485 76.6702L27.2437 94.9602H20.1529L14.8481 76.6702C14.7948 76.3681 14.6881 75.9859 14.5282 75.5238C13.7818 73.1242 13.2931 71.0624 13.062 69.3383C12.9199 71.2935 12.7866 72.751 12.6622 73.7108C12.6089 74.2085 12.5289 74.9372 12.4223 75.8971C12.3156 76.8569 12.2357 77.5856 12.1824 78.0833L9.88983 94.9602H0L6.02453 55.9274H16.5541L22.4454 76.057C22.552 76.4303 22.6231 76.6702 22.6586 76.7769C23.174 78.4477 23.5206 79.9763 23.6983 81.3627C23.7338 80.8828 23.8671 80.1007 24.0981 79.0165C24.1692 78.7499 24.4358 77.7456 24.8978 76.0037L30.8424 55.9274H41.3987L47.3965 94.9602Z" fill="white"/>
<path d="M53.1278 94.9602V55.9274H77.0394V64.4858H63.4975V71.2579H76.2663V79.6297H63.4975V86.2151H77.0394V94.9602H53.1278Z" fill="white"/>
<path d="M83.8103 55.9274H94.4732V74.9106C94.4732 77.8078 94.5443 79.8163 94.6865 80.9361C94.8642 82.2692 95.1041 83.2824 95.4062 83.9756C95.7794 84.9887 96.4814 85.7352 97.5121 86.2151C98.5429 86.7662 99.7869 87.0417 101.244 87.0417C102.684 87.0417 103.919 86.7662 104.949 86.2151C105.891 85.753 106.602 85.0065 107.082 83.9756C107.366 83.2646 107.597 82.2514 107.775 80.9361C107.935 79.8697 108.015 77.8611 108.015 74.9106V55.9274H118.598V76.5636C118.598 80.7939 118.34 83.94 117.825 86.0019C117.345 88.0459 116.474 89.7967 115.213 91.2542C113.826 92.8717 111.987 94.0537 109.694 94.8002C107.42 95.6001 104.603 96 101.244 96C97.8142 96 94.9886 95.6001 92.7671 94.8002C90.5102 94.0537 88.6708 92.8717 87.2491 91.2542C86.0229 89.8323 85.1521 88.0815 84.6367 86.0019C84.0858 83.9045 83.8103 80.7584 83.8103 76.5636V55.9274Z" fill="white"/>
<path d="M126.702 94.9602V55.9274H137.338V71.0979H151.52V55.9274H162.183V94.9602H151.52V79.0698H137.338V94.9602H126.702Z" fill="white"/>
<path d="M272.944 58.7375H171.324V91.6924H272.944V58.7375Z" fill="white"/>
<path d="M189.085 60.1746L201.404 56.2829L222.16 56.6617L211.706 74.7433L197.504 75.2314L189.728 68.5946L189.085 60.1746Z" fill="#121212"/>
<path d="M233.758 72.0311L223.692 77.5824L229.564 85.8523L256.227 82.6718L233.758 72.0311Z" fill="#121212"/>
<path d="M249.517 61.5642L251.374 65.3806L261.56 68.966L269.829 82.2091L272.944 80.8213L275.521 75.2694L276 62.4317L273.424 56.7065L261.261 57.6894L249.517 61.5642Z" fill="#121212"/>
<path d="M193.134 89.6976L185.225 84.9559L183.128 79.5201L180.336 78.8055V71.7564H178.628V78.3684L177.733 78.139V70.2168H176.025V77.7019L175.129 77.4726V68.9156H173.422V77.0354L172.283 76.7444L168.329 90.9699L176.657 94.9602L194.752 93.514L193.134 89.6976Z" fill="#121212"/>
</svg>
