<svg width="73" height="24" viewBox="0 0 73 24" fill="none" xmlns="http://www.w3.org/2000/svg">
<path d="M7.87935 6.09091V17H6.55833V6.09091H7.87935ZM11.6147 12.0781V17H10.3576V8.81818H11.5721V10.0966H11.6786C11.8704 9.68111 12.1616 9.3473 12.5522 9.09517C12.9428 8.83949 13.4471 8.71165 14.065 8.71165C14.619 8.71165 15.1037 8.82528 15.5192 9.05256C15.9347 9.27628 16.2578 9.61719 16.4886 10.0753C16.7195 10.5298 16.8349 11.1051 16.8349 11.8011V17H15.5778V11.8864C15.5778 11.2436 15.4109 10.7429 15.0771 10.3842C14.7433 10.022 14.2852 9.84091 13.7028 9.84091C13.3015 9.84091 12.9428 9.92791 12.6268 10.1019C12.3143 10.2759 12.0675 10.5298 11.8864 10.8636C11.7053 11.1974 11.6147 11.6023 11.6147 12.0781ZM22.7755 8.81818V9.88352H18.365V8.81818H22.7755ZM19.686 17V7.68892C19.686 7.22017 19.7961 6.82954 20.0162 6.51704C20.2364 6.20454 20.5223 5.97017 20.8738 5.81392C21.2254 5.65767 21.5965 5.57954 21.9871 5.57954C22.2961 5.57954 22.5482 5.6044 22.7435 5.65412C22.9388 5.70383 23.0844 5.75 23.1803 5.79261L22.8181 6.87926C22.7542 6.85795 22.6654 6.83132 22.5518 6.79936C22.4417 6.7674 22.2961 6.75142 22.115 6.75142C21.6995 6.75142 21.3994 6.85618 21.2148 7.0657C21.0336 7.27521 20.9431 7.58239 20.9431 7.98722V17H19.686ZM27.5242 17.1705C26.7856 17.1705 26.1375 16.9947 25.58 16.6431C25.026 16.2915 24.5928 15.7997 24.2803 15.1676C23.9713 14.5355 23.8169 13.7969 23.8169 12.9517C23.8169 12.0994 23.9713 11.3555 24.2803 10.7198C24.5928 10.0842 25.026 9.59055 25.58 9.23899C26.1375 8.88743 26.7856 8.71165 27.5242 8.71165C28.2629 8.71165 28.9092 8.88743 29.4632 9.23899C30.0207 9.59055 30.4539 10.0842 30.7629 10.7198C31.0754 11.3555 31.2316 12.0994 31.2316 12.9517C31.2316 13.7969 31.0754 14.5355 30.7629 15.1676C30.4539 15.7997 30.0207 16.2915 29.4632 16.6431C28.9092 16.9947 28.2629 17.1705 27.5242 17.1705ZM27.5242 16.0412C28.0853 16.0412 28.547 15.8974 28.9092 15.6097C29.2714 15.3221 29.5395 14.9439 29.7135 14.4751C29.8875 14.0064 29.9745 13.4986 29.9745 12.9517C29.9745 12.4048 29.8875 11.8952 29.7135 11.4229C29.5395 10.9506 29.2714 10.5689 28.9092 10.2777C28.547 9.98651 28.0853 9.84091 27.5242 9.84091C26.9632 9.84091 26.5015 9.98651 26.1393 10.2777C25.7771 10.5689 25.509 10.9506 25.335 11.4229C25.161 11.8952 25.074 12.4048 25.074 12.9517C25.074 13.4986 25.161 14.0064 25.335 14.4751C25.509 14.9439 25.7771 15.3221 26.1393 15.6097C26.5015 15.8974 26.9632 16.0412 27.5242 16.0412Z" fill="black"/>
<rect x="0.375" y="0.375" width="36.25" height="23.25" rx="7.625" stroke="black" stroke-width="0.75"/>
<circle cx="61" cy="12" r="11.625" transform="rotate(-180 61 12)" stroke="black" stroke-width="0.75"/>
<path d="M49 12L37 12" stroke="black" stroke-width="0.75" stroke-linecap="round"/>
<circle cx="1" cy="1" r="1" transform="matrix(-1 -5.18986e-09 -5.18986e-09 1 62 7)" fill="black"/>
<rect x="60.2499" y="10.25" width="1.5" height="6.5" rx="0.75" stroke="black" stroke-width="0.5"/>
</svg>
