<svg width="100" height="112" viewBox="0 0 100 112" fill="none" xmlns="http://www.w3.org/2000/svg">
<path d="M57.4258 21.8239H42.0282C40.8933 21.8239 39.9733 22.7617 39.9733 23.9186V51.7798C39.9733 52.9367 40.8933 53.8746 42.0282 53.8746H57.4258C58.5607 53.8746 59.4808 52.9367 59.4808 51.7798V23.9186C59.4808 22.7617 58.5607 21.8239 57.4258 21.8239Z" fill="#49B170"/>
<path d="M46.9907 24.2305H43.438C43.0038 24.2305 42.6519 24.5893 42.6519 25.0318V30.4524C42.6519 30.8949 43.0038 31.2537 43.438 31.2537H46.9907C47.4249 31.2537 47.7768 30.8949 47.7768 30.4524V25.0318C47.7768 24.5893 47.4249 24.2305 46.9907 24.2305Z" fill="#F9DA1B"/>
<path d="M45.2146 23.8447V31.6398" stroke="black" stroke-miterlimit="10" stroke-linecap="round"/>
<path d="M48.2682 27.7422H42.1606" stroke="black" stroke-miterlimit="10" stroke-linecap="round"/>
<path d="M55.6167 29.4264H52.064C51.6298 29.4264 51.2778 29.7852 51.2778 30.2278V35.6483C51.2778 36.0909 51.6298 36.4497 52.064 36.4497H55.6167C56.0508 36.4497 56.4028 36.0909 56.4028 35.6483V30.2278C56.4028 29.7852 56.0508 29.4264 55.6167 29.4264Z" fill="#F9DA1B"/>
<path d="M53.8406 29.0406V36.8357" stroke="black" stroke-miterlimit="10" stroke-linecap="round"/>
<path d="M56.894 32.9381H50.7865" stroke="black" stroke-miterlimit="10" stroke-linecap="round"/>
<path d="M55.6167 39.4187H52.064C51.6298 39.4187 51.2778 39.7775 51.2778 40.2201V45.6406C51.2778 46.0832 51.6298 46.442 52.064 46.442H55.6167C56.0508 46.442 56.4028 46.0832 56.4028 45.6406V40.2201C56.4028 39.7775 56.0508 39.4187 55.6167 39.4187Z" fill="#F9DA1B"/>
<path d="M53.8406 39.033V46.828" stroke="black" stroke-miterlimit="10" stroke-linecap="round"/>
<path d="M56.894 42.9302H50.7865" stroke="black" stroke-miterlimit="10" stroke-linecap="round"/>
<path d="M46.9907 34.2225H43.438C43.0038 34.2225 42.6519 34.5813 42.6519 35.0239V40.4444C42.6519 40.887 43.0038 41.2458 43.438 41.2458H46.9907C47.4249 41.2458 47.7768 40.887 47.7768 40.4444V35.0239C47.7768 34.5813 47.4249 34.2225 46.9907 34.2225Z" fill="#F9DA1B"/>
<path d="M45.2146 33.837V41.6321" stroke="black" stroke-miterlimit="10" stroke-linecap="round"/>
<path d="M48.2682 37.7343H42.1606" stroke="black" stroke-miterlimit="10" stroke-linecap="round"/>
<path d="M42.6899 52.9708V44.7489C42.6899 44.2169 43.113 43.7853 43.6353 43.7853H46.87C47.3918 43.7853 47.8153 44.2165 47.8153 44.7489V52.9708" stroke="black" stroke-miterlimit="10" stroke-linecap="round"/>
<path d="M55.9929 22.967V17.6843" stroke="black" stroke-miterlimit="10" stroke-linecap="round"/>
<path d="M53.158 16.2053L58.8283 18.9807" stroke="black" stroke-miterlimit="10" stroke-linecap="round"/>
<path d="M18.1829 68.9926V79.9017H16.8619V68.9926H18.1829ZM20.6612 79.9017V71.7199H21.8757V72.9983H21.9822C22.1527 72.5615 22.4279 72.2224 22.8079 71.9809C23.1878 71.7359 23.6441 71.6134 24.1768 71.6134C24.7166 71.6134 25.1658 71.7359 25.5245 71.9809C25.8867 72.2224 26.169 72.5615 26.3714 72.9983H26.4566C26.6662 72.5757 26.9804 72.2402 27.3995 71.9916C27.8185 71.7394 28.321 71.6134 28.9069 71.6134C29.6385 71.6134 30.2368 71.8424 30.702 72.3005C31.1672 72.7551 31.3998 73.4635 31.3998 74.4259V79.9017H30.1427V74.4259C30.1427 73.8222 29.9776 73.3907 29.6473 73.1315C29.3171 72.8723 28.9282 72.7426 28.4808 72.7426C27.9055 72.7426 27.4598 72.9166 27.1438 73.2647C26.8277 73.6091 26.6697 74.0459 26.6697 74.575V79.9017H25.3913V74.298C25.3913 73.8328 25.2404 73.4582 24.9385 73.1741C24.6367 72.8865 24.2478 72.7426 23.772 72.7426C23.4453 72.7426 23.1399 72.8296 22.8558 73.0037C22.5753 73.1777 22.348 73.4191 22.174 73.7281C22.0035 74.0335 21.9183 74.3868 21.9183 74.7881V79.9017H20.6612ZM33.6983 79.9017V71.7199H34.9128V72.9983H35.0193C35.1898 72.5615 35.465 72.2224 35.845 71.9809C36.2249 71.7359 36.6813 71.6134 37.2139 71.6134C37.7537 71.6134 38.2029 71.7359 38.5616 71.9809C38.9238 72.2224 39.2061 72.5615 39.4085 72.9983H39.4938C39.7033 72.5757 40.0175 72.2402 40.4366 71.9916C40.8556 71.7394 41.3581 71.6134 41.944 71.6134C42.6756 71.6134 43.2739 71.8424 43.7391 72.3005C44.2043 72.7551 44.4369 73.4635 44.4369 74.4259V79.9017H43.1798V74.4259C43.1798 73.8222 43.0147 73.3907 42.6844 73.1315C42.3542 72.8723 41.9653 72.7426 41.5179 72.7426C40.9426 72.7426 40.4969 72.9166 40.1809 73.2647C39.8648 73.6091 39.7068 74.0459 39.7068 74.575V79.9017H38.4284V74.298C38.4284 73.8328 38.2775 73.4582 37.9756 73.1741C37.6738 72.8865 37.2849 72.7426 36.8091 72.7426C36.4824 72.7426 36.177 72.8296 35.8929 73.0037C35.6124 73.1777 35.3851 73.4191 35.2111 73.7281C35.0406 74.0335 34.9554 74.3868 34.9554 74.7881V79.9017H33.6983ZM50.1658 80.0722C49.3775 80.0722 48.6974 79.8982 48.1257 79.5502C47.5575 79.1986 47.1189 78.7086 46.81 78.08C46.5046 77.4479 46.3519 76.7128 46.3519 75.8747C46.3519 75.0367 46.5046 74.298 46.81 73.6588C47.1189 73.0161 47.5486 72.5154 48.099 72.1567C48.653 71.7945 49.2993 71.6134 50.038 71.6134C50.4641 71.6134 50.8849 71.6844 51.3004 71.8264C51.7159 71.9685 52.0941 72.1993 52.435 72.5189C52.7759 72.835 53.0476 73.254 53.25 73.776C53.4524 74.298 53.5536 74.9408 53.5536 75.7043V76.237H47.2468V75.1503H52.2752C52.2752 74.6887 52.1829 74.2767 51.9982 73.9145C51.8171 73.5523 51.5579 73.2664 51.2205 73.0569C50.8867 72.8474 50.4925 72.7426 50.038 72.7426C49.5373 72.7426 49.104 72.8669 48.7382 73.1155C48.376 73.3605 48.0973 73.6801 47.902 74.0743C47.7066 74.4685 47.609 74.8911 47.609 75.3421V76.0665C47.609 76.6844 47.7155 77.2082 47.9286 77.6379C48.1452 78.064 48.4453 78.3889 48.8288 78.6127C49.2123 78.8328 49.658 78.9429 50.1658 78.9429C50.4961 78.9429 50.7944 78.8968 51.0607 78.8044C51.3306 78.7086 51.5632 78.5665 51.7585 78.3783C51.9538 78.1865 52.1047 77.9486 52.2113 77.6645L53.4257 78.0054C53.2979 78.4174 53.0831 78.7796 52.7812 79.0921C52.4794 79.401 52.1065 79.6425 51.6626 79.8165C51.2187 79.987 50.7198 80.0722 50.1658 80.0722ZM60.6221 76.5566V71.7199H61.8792V79.9017H60.6221V78.5168H60.5369C60.3451 78.9323 60.0468 79.2856 59.642 79.5768C59.2372 79.8644 58.7258 80.0083 58.1079 80.0083C57.5966 80.0083 57.142 79.8964 56.7443 79.6727C56.3466 79.4454 56.0341 79.1045 55.8068 78.65C55.5795 78.1919 55.4659 77.6148 55.4659 76.9188V71.7199H56.723V76.8336C56.723 77.4301 56.8899 77.906 57.2237 78.2611C57.561 78.6162 57.9907 78.7938 58.5128 78.7938C58.8253 78.7938 59.1431 78.7139 59.4662 78.5541C59.7929 78.3943 60.0664 78.1492 60.2865 77.819C60.5103 77.4887 60.6221 77.0679 60.6221 76.5566ZM64.3522 79.9017V68.9926H65.6093V73.0196H65.7158C65.8081 72.8776 65.936 72.6965 66.0993 72.4763C66.2662 72.2526 66.5041 72.0537 66.8131 71.8797C67.1256 71.7022 67.5482 71.6134 68.0808 71.6134C68.7698 71.6134 69.377 71.7856 69.9026 72.1301C70.4281 72.4745 70.8383 72.9628 71.133 73.5949C71.4278 74.227 71.5752 74.9728 71.5752 75.8321C71.5752 76.6986 71.4278 77.4497 71.133 78.0853C70.8383 78.7174 70.4299 79.2075 69.9079 79.5555C69.3859 79.9 68.784 80.0722 68.1022 80.0722C67.5766 80.0722 67.1558 79.9852 66.8397 79.8112C66.5237 79.6336 66.2804 79.433 66.11 79.2093C65.9395 78.982 65.8081 78.7938 65.7158 78.6446H65.5666V79.9017H64.3522ZM65.5879 75.8108C65.5879 76.4287 65.6785 76.9738 65.8596 77.4461C66.0407 77.9149 66.3053 78.2824 66.6533 78.5488C67.0013 78.8115 67.4274 78.9429 67.9317 78.9429C68.4573 78.9429 68.8958 78.8044 69.2474 78.5274C69.6025 78.2469 69.8688 77.8705 70.0464 77.3982C70.2275 76.9223 70.3181 76.3932 70.3181 75.8108C70.3181 75.2355 70.2293 74.7171 70.0517 74.2554C69.8777 73.7902 69.6132 73.4227 69.258 73.1528C68.9065 72.8794 68.4644 72.7426 67.9317 72.7426C67.4203 72.7426 66.9906 72.8723 66.6426 73.1315C66.2946 73.3872 66.0318 73.7458 65.8543 74.2075C65.6767 74.6656 65.5879 75.2 65.5879 75.8108ZM74.7552 68.9926V79.9017H73.4981V68.9926H74.7552ZM80.4881 80.0722C79.6997 80.0722 79.0197 79.8982 78.4479 79.5502C77.8798 79.1986 77.4412 78.7086 77.1322 78.08C76.8268 77.4479 76.6741 76.7128 76.6741 75.8747C76.6741 75.0367 76.8268 74.298 77.1322 73.6588C77.4412 73.0161 77.8709 72.5154 78.4213 72.1567C78.9753 71.7945 79.6216 71.6134 80.3602 71.6134C80.7864 71.6134 81.2072 71.6844 81.6227 71.8264C82.0381 71.9685 82.4163 72.1993 82.7572 72.5189C83.0982 72.835 83.3698 73.254 83.5722 73.776C83.7746 74.298 83.8759 74.9408 83.8759 75.7043V76.237H77.569V75.1503H82.5974C82.5974 74.6887 82.5051 74.2767 82.3205 73.9145C82.1393 73.5523 81.8801 73.2664 81.5428 73.0569C81.209 72.8474 80.8148 72.7426 80.3602 72.7426C79.8595 72.7426 79.4263 72.8669 79.0605 73.1155C78.6983 73.3605 78.4195 73.6801 78.2242 74.0743C78.0289 74.4685 77.9313 74.8911 77.9313 75.3421V76.0665C77.9313 76.6844 78.0378 77.2082 78.2509 77.6379C78.4675 78.064 78.7675 78.3889 79.1511 78.6127C79.5346 78.8328 79.9803 78.9429 80.4881 78.9429C80.8183 78.9429 81.1166 78.8968 81.383 78.8044C81.6528 78.7086 81.8854 78.5665 82.0808 78.3783C82.2761 78.1865 82.427 77.9486 82.5335 77.6645L83.748 78.0054C83.6202 78.4174 83.4053 78.7796 83.1035 79.0921C82.8016 79.401 82.4288 79.6425 81.9849 79.8165C81.541 79.987 81.042 80.0722 80.4881 80.0722Z" fill="black"/>
<circle cx="50.2366" cy="107.495" r="3.78125" fill="#164194" fill-opacity="0.3"/>
<rect x="0.5" y="0.5" width="98.3929" height="91.9107" rx="9.5" stroke="#EDEDED"/>
</svg>
