<svg width="100" height="112" viewBox="0 0 100 112" fill="none" xmlns="http://www.w3.org/2000/svg">
<path d="M18.5392 80.1786V69.2695H19.8602V79.0067H24.9312V80.1786H18.5392ZM30.1301 80.349C29.3914 80.349 28.7434 80.1733 28.1858 79.8217C27.6318 79.4701 27.1986 78.9783 26.8861 78.3462C26.5772 77.7141 26.4227 76.9755 26.4227 76.1303C26.4227 75.278 26.5772 74.5341 26.8861 73.8984C27.1986 73.2628 27.6318 72.7691 28.1858 72.4176C28.7434 72.066 29.3914 71.8902 30.1301 71.8902C30.8687 71.8902 31.515 72.066 32.069 72.4176C32.6265 72.7691 33.0598 73.2628 33.3687 73.8984C33.6812 74.5341 33.8375 75.278 33.8375 76.1303C33.8375 76.9755 33.6812 77.7141 33.3687 78.3462C33.0598 78.9783 32.6265 79.4701 32.069 79.8217C31.515 80.1733 30.8687 80.349 30.1301 80.349ZM30.1301 79.2198C30.6912 79.2198 31.1528 79.076 31.515 78.7883C31.8772 78.5007 32.1453 78.1225 32.3193 77.6537C32.4934 77.185 32.5804 76.6772 32.5804 76.1303C32.5804 75.5834 32.4934 75.0738 32.3193 74.6015C32.1453 74.1292 31.8772 73.7475 31.515 73.4563C31.1528 73.1651 30.6912 73.0195 30.1301 73.0195C29.569 73.0195 29.1073 73.1651 28.7451 73.4563C28.3829 73.7475 28.1148 74.1292 27.9408 74.6015C27.7668 75.0738 27.6798 75.5834 27.6798 76.1303C27.6798 76.6772 27.7668 77.185 27.9408 77.6537C28.1148 78.1225 28.3829 78.5007 28.7451 78.7883C29.1073 79.076 29.569 79.2198 30.1301 79.2198ZM39.0803 80.349C38.3132 80.349 37.6527 80.1679 37.0987 79.8057C36.5448 79.4435 36.1186 78.9446 35.8203 78.3089C35.522 77.6733 35.3729 76.9471 35.3729 76.1303C35.3729 75.2993 35.5256 74.566 35.831 73.9304C36.1399 73.2912 36.5696 72.7922 37.12 72.4336C37.674 72.0713 38.3203 71.8902 39.059 71.8902C39.6342 71.8902 40.1527 71.9968 40.6144 72.2098C41.076 72.4229 41.4542 72.7212 41.7489 73.1047C42.0437 73.4882 42.2266 73.9357 42.2976 74.4471H41.0405C40.9446 74.0742 40.7315 73.7439 40.4013 73.4563C40.0746 73.1651 39.6342 73.0195 39.0803 73.0195C38.5902 73.0195 38.1605 73.1473 37.7912 73.403C37.4254 73.6552 37.1396 74.012 36.9336 74.4737C36.7312 74.9318 36.63 75.4698 36.63 76.0877C36.63 76.7198 36.7294 77.2702 36.9283 77.739C37.1307 78.2077 37.4148 78.5717 37.7806 78.8309C38.1499 79.0902 38.5831 79.2198 39.0803 79.2198C39.407 79.2198 39.7035 79.163 39.9698 79.0493C40.2362 78.9357 40.4617 78.7723 40.6463 78.5593C40.831 78.3462 40.9624 78.0905 41.0405 77.7922H42.2976C42.2266 78.2752 42.0508 78.7102 41.7703 79.0973C41.4933 79.4808 41.1257 79.7862 40.6676 80.0135C40.2131 80.2372 39.684 80.349 39.0803 80.349ZM46.543 80.3704C46.0245 80.3704 45.554 80.2727 45.1314 80.0774C44.7088 79.8785 44.3732 79.5927 44.1247 79.2198C43.8761 78.8434 43.7518 78.3888 43.7518 77.8561C43.7518 77.3874 43.8441 77.0074 44.0288 76.7162C44.2134 76.4215 44.4602 76.1907 44.7692 76.0238C45.0781 75.8569 45.419 75.7326 45.7919 75.6509C46.1683 75.5657 46.5465 75.4982 46.9265 75.4485C47.4237 75.3846 47.8267 75.3366 48.1357 75.3047C48.4482 75.2691 48.6754 75.2105 48.8175 75.1289C48.9631 75.0472 49.0359 74.9052 49.0359 74.7027V74.6601C49.0359 74.1346 48.8921 73.7262 48.6044 73.435C48.3203 73.1438 47.8889 72.9982 47.31 72.9982C46.7099 72.9982 46.2394 73.1296 45.8984 73.3924C45.5575 73.6552 45.3178 73.9357 45.1793 74.234L43.9862 73.8078C44.1992 73.3107 44.4833 72.9236 44.8384 72.6466C45.1971 72.3661 45.5877 72.1708 46.0103 72.0607C46.4364 71.9471 46.8555 71.8902 47.2674 71.8902C47.5302 71.8902 47.832 71.9222 48.173 71.9861C48.5174 72.0465 48.8494 72.1726 49.169 72.3643C49.4922 72.5561 49.7603 72.8455 49.9734 73.2326C50.1864 73.6196 50.293 74.1381 50.293 74.788V80.1786H49.0359V79.0706H48.972C48.8867 79.2482 48.7447 79.4382 48.5458 79.6406C48.347 79.843 48.0824 80.0152 47.7521 80.1573C47.4219 80.2993 47.0188 80.3704 46.543 80.3704ZM46.7347 79.2411C47.2319 79.2411 47.6509 79.1434 47.9918 78.9481C48.3363 78.7528 48.5955 78.5007 48.7695 78.1917C48.9471 77.8828 49.0359 77.5579 49.0359 77.2169V76.0664C48.9826 76.1303 48.8654 76.1889 48.6843 76.2422C48.5068 76.2919 48.3008 76.3363 48.0664 76.3753C47.8356 76.4108 47.6101 76.4428 47.3899 76.4712C47.1733 76.4961 46.9975 76.5174 46.8626 76.5351C46.5359 76.5777 46.2305 76.647 45.9464 76.7429C45.6658 76.8352 45.4386 76.9755 45.2646 77.1637C45.0941 77.3483 45.0089 77.6005 45.0089 77.9201C45.0089 78.3569 45.1705 78.6871 45.4936 78.9108C45.8203 79.131 46.234 79.2411 46.7347 79.2411ZM56.1457 71.9968V73.0621H51.9056V71.9968H56.1457ZM53.1414 70.0365H54.3985V77.8348C54.3985 78.19 54.45 78.4563 54.553 78.6338C54.6595 78.8079 54.7945 78.925 54.9578 78.9854C55.1247 79.0422 55.3005 79.0706 55.4852 79.0706C55.6237 79.0706 55.7373 79.0635 55.8261 79.0493C55.9149 79.0316 55.9859 79.0174 56.0392 79.0067L56.2948 80.136C56.2096 80.1679 56.0907 80.1999 55.938 80.2319C55.7853 80.2674 55.5917 80.2851 55.3573 80.2851C55.0022 80.2851 54.6542 80.2088 54.3133 80.0561C53.976 79.9034 53.6954 79.6708 53.4717 79.3583C53.2515 79.0458 53.1414 78.6516 53.1414 78.1757V70.0365ZM60.4443 80.3704C59.9259 80.3704 59.4554 80.2727 59.0328 80.0774C58.6102 79.8785 58.2746 79.5927 58.026 79.2198C57.7774 78.8434 57.6532 78.3888 57.6532 77.8561C57.6532 77.3874 57.7455 77.0074 57.9301 76.7162C58.1148 76.4215 58.3616 76.1907 58.6706 76.0238C58.9795 75.8569 59.3204 75.7326 59.6933 75.6509C60.0697 75.5657 60.4479 75.4982 60.8279 75.4485C61.325 75.3846 61.7281 75.3366 62.037 75.3047C62.3495 75.2691 62.5768 75.2105 62.7188 75.1289C62.8644 75.0472 62.9372 74.9052 62.9372 74.7027V74.6601C62.9372 74.1346 62.7934 73.7262 62.5058 73.435C62.2217 73.1438 61.7902 72.9982 61.2114 72.9982C60.6113 72.9982 60.1407 73.1296 59.7998 73.3924C59.4589 73.6552 59.2192 73.9357 59.0807 74.234L57.8875 73.8078C58.1006 73.3107 58.3847 72.9236 58.7398 72.6466C59.0985 72.3661 59.4891 72.1708 59.9117 72.0607C60.3378 71.9471 60.7568 71.8902 61.1688 71.8902C61.4316 71.8902 61.7334 71.9222 62.0743 71.9861C62.4188 72.0465 62.7508 72.1726 63.0704 72.3643C63.3936 72.5561 63.6617 72.8455 63.8747 73.2326C64.0878 73.6196 64.1943 74.1381 64.1943 74.788V80.1786H62.9372V79.0706H62.8733C62.7881 79.2482 62.6461 79.4382 62.4472 79.6406C62.2483 79.843 61.9838 80.0152 61.6535 80.1573C61.3233 80.2993 60.9202 80.3704 60.4443 80.3704ZM60.6361 79.2411C61.1333 79.2411 61.5523 79.1434 61.8932 78.9481C62.2377 78.7528 62.4969 78.5007 62.6709 78.1917C62.8485 77.8828 62.9372 77.5579 62.9372 77.2169V76.0664C62.884 76.1303 62.7668 76.1889 62.5857 76.2422C62.4081 76.2919 62.2022 76.3363 61.9678 76.3753C61.737 76.4108 61.5115 76.4428 61.2913 76.4712C61.0747 76.4961 60.8989 76.5174 60.7639 76.5351C60.4372 76.5777 60.1318 76.647 59.8478 76.7429C59.5672 76.8352 59.3399 76.9755 59.1659 77.1637C58.9955 77.3483 58.9103 77.6005 58.9103 77.9201C58.9103 78.3569 59.0718 78.6871 59.395 78.9108C59.7217 79.131 60.1354 79.2411 60.6361 79.2411ZM66.4888 80.1786V71.9968H67.7459V80.1786H66.4888ZM67.128 70.6331C66.883 70.6331 66.6717 70.5497 66.4942 70.3828C66.3201 70.2159 66.2331 70.0152 66.2331 69.7809C66.2331 69.5465 66.3201 69.3458 66.4942 69.1789C66.6717 69.012 66.883 68.9286 67.128 68.9286C67.3731 68.9286 67.5826 69.012 67.7566 69.1789C67.9341 69.3458 68.0229 69.5465 68.0229 69.7809C68.0229 70.0152 67.9341 70.2159 67.7566 70.3828C67.5826 70.5497 67.3731 70.6331 67.128 70.6331ZM70.0484 80.1786V71.9968H71.2629V73.2326H71.3481C71.4973 72.8277 71.7671 72.4993 72.1578 72.2471C72.5484 71.995 72.9887 71.8689 73.4788 71.8689C73.5711 71.8689 73.6865 71.8707 73.825 71.8743C73.9635 71.8778 74.0683 71.8831 74.1393 71.8902V73.1686C74.0967 73.158 73.999 73.142 73.8463 73.1207C73.6972 73.0958 73.5392 73.0834 73.3723 73.0834C72.9745 73.0834 72.6194 73.1669 72.3069 73.3338C71.998 73.4971 71.7529 73.7244 71.5718 74.0156C71.3943 74.3032 71.3055 74.6317 71.3055 75.001V80.1786H70.0484ZM78.8108 80.349C78.0225 80.349 77.3424 80.175 76.7707 79.827C76.2025 79.4755 75.7639 78.9854 75.455 78.3569C75.1496 77.7248 74.9969 76.9897 74.9969 76.1516C74.9969 75.3135 75.1496 74.5749 75.455 73.9357C75.7639 73.2929 76.1936 72.7922 76.7441 72.4336C77.298 72.0713 77.9443 71.8902 78.683 71.8902C79.1091 71.8902 79.5299 71.9613 79.9454 72.1033C80.3609 72.2453 80.7391 72.4762 81.08 72.7958C81.4209 73.1118 81.6926 73.5309 81.895 74.0529C82.0974 74.5749 82.1986 75.2177 82.1986 75.9811V76.5138H75.8918V75.4272H80.9202C80.9202 74.9655 80.8279 74.5536 80.6432 74.1914C80.4621 73.8292 80.2029 73.5433 79.8655 73.3338C79.5317 73.1243 79.1375 73.0195 78.683 73.0195C78.1823 73.0195 77.749 73.1438 77.3833 73.3924C77.0211 73.6374 76.7423 73.957 76.547 74.3512C76.3517 74.7453 76.254 75.1679 76.254 75.6189V76.3434C76.254 76.9613 76.3605 77.4851 76.5736 77.9147C76.7902 78.3409 77.0903 78.6658 77.4738 78.8895C77.8573 79.1097 78.303 79.2198 78.8108 79.2198C79.1411 79.2198 79.4394 79.1736 79.7057 79.0813C79.9756 78.9854 80.2082 78.8434 80.4035 78.6552C80.5988 78.4634 80.7497 78.2255 80.8563 77.9414L82.0708 78.2823C81.9429 78.6942 81.7281 79.0564 81.4262 79.3689C81.1244 79.6779 80.7515 79.9194 80.3076 80.0934C79.8637 80.2638 79.3648 80.349 78.8108 80.349Z" fill="black"/>
<circle cx="50.2366" cy="107.772" r="3.78125" fill="#164194" fill-opacity="0.3"/>
<rect x="0.5" y="0.776855" width="98.3929" height="91.9107" rx="9.5" stroke="#EDEDED"/>
<g clip-path="url(#clip0_216_2882)">
<path d="M60.7659 18.6433H42.4215C41.0694 18.6433 39.9733 19.734 39.9733 21.0795V53.4814C39.9733 54.8269 41.0694 55.9176 42.4215 55.9176H60.7659C62.1181 55.9176 63.2142 54.8269 63.2142 53.4814V21.0795C63.2142 19.734 62.1181 18.6433 60.7659 18.6433Z" fill="#EDEDED"/>
<path d="M43.2894 23.1138H47.2137" stroke="black" stroke-miterlimit="10" stroke-linecap="round"/>
<path d="M43.2894 24.5082H47.2137" stroke="black" stroke-miterlimit="10" stroke-linecap="round"/>
<path d="M43.2894 25.9027H48.9496" stroke="black" stroke-miterlimit="10" stroke-linecap="round"/>
<path d="M51.6976 51.6786H57.3578" stroke="black" stroke-miterlimit="10" stroke-linecap="round"/>
<path d="M43.2894 30.5509H60.247" stroke="black" stroke-miterlimit="10" stroke-linecap="round"/>
<path d="M43.2894 32.4103H60.247" stroke="black" stroke-miterlimit="10" stroke-linecap="round"/>
<path d="M43.2894 34.2695H60.247" stroke="black" stroke-miterlimit="10" stroke-linecap="round"/>
<path d="M43.2894 36.1289H60.247" stroke="black" stroke-miterlimit="10" stroke-linecap="round"/>
<path d="M43.2894 37.9882H60.247" stroke="black" stroke-miterlimit="10" stroke-linecap="round"/>
<path d="M43.2894 39.8474H60.247" stroke="black" stroke-miterlimit="10" stroke-linecap="round"/>
<path d="M43.2894 41.7068H60.247" stroke="black" stroke-miterlimit="10" stroke-linecap="round"/>
<path d="M43.2894 43.566H60.247" stroke="black" stroke-miterlimit="10" stroke-linecap="round"/>
<path d="M43.2894 45.4253H60.247" stroke="black" stroke-miterlimit="10" stroke-linecap="round"/>
<path d="M58.4355 51.4467L57.8142 51.7256L58.0244 51.2654L58.4355 51.4467Z" fill="black"/>
<path d="M59.7808 50.8425L58.4355 51.4467L58.0244 51.2655L58.7111 49.7501L58.9493 49.8756L59.0941 49.9593L59.1549 50.0244L59.5659 50.4706L59.594 50.5171L59.7808 50.8425Z" fill="#F9C5AF"/>
<path d="M76.0312 33.095L76.5166 33.6309L76.5465 33.6802L76.6885 33.9265L76.7412 34.0186L59.8757 50.8011L59.7799 50.8438L59.5917 50.5184L59.5655 50.4724L59.0965 49.9597L58.9475 49.8775L58.713 49.7492L58.7462 49.6771L75.6314 32.8746L75.8724 33.0094L76.0312 33.095Z" fill="#164194"/>
<path d="M58.5037 50.9842L59.1945 49.9579L74.9339 34.4011" stroke="black" stroke-miterlimit="10" stroke-linecap="round"/>
<path d="M75.0183 33.2776L75.4182 33.498L75.9035 34.0334L76.1282 34.4216L78.7478 31.2993L78.2816 30.8331L75.0183 33.2776Z" stroke="black" stroke-linecap="round" stroke-linejoin="round"/>
<path d="M75.0744 33.3887L73.4941 34.7818L74.953 33.3195L75.0744 33.3887Z" stroke="black" stroke-linecap="round" stroke-linejoin="round"/>
</g>
<defs>
<clipPath id="clip0_216_2882">
<rect width="39.0082" height="37.2745" fill="white" transform="translate(39.9733 18.6429)"/>
</clipPath>
</defs>
</svg>
