<svg width="100" height="112" viewBox="0 0 100 112" fill="none" xmlns="http://www.w3.org/2000/svg">
<path d="M10.7408 80.1786V69.2695H14.4269C15.2827 69.2695 15.9823 69.424 16.5256 69.7329C17.0725 70.0383 17.4773 70.452 17.7401 70.974C18.0029 71.4961 18.1343 72.0784 18.1343 72.7212C18.1343 73.364 18.0029 73.9481 17.7401 74.4737C17.4809 74.9993 17.0796 75.4183 16.5363 75.7308C15.993 76.0397 15.2969 76.1942 14.4482 76.1942H11.8062V75.0223H14.4056C14.9915 75.0223 15.4621 74.9211 15.8172 74.7187C16.1723 74.5163 16.4297 74.2429 16.5895 73.8984C16.7529 73.5504 16.8346 73.158 16.8346 72.7212C16.8346 72.2844 16.7529 71.8938 16.5895 71.5493C16.4297 71.2049 16.1705 70.935 15.8118 70.7397C15.4532 70.5408 14.9773 70.4414 14.3843 70.4414H12.0618V80.1786H10.7408ZM20.0919 80.1786V71.9968H21.3063V73.2326H21.3916C21.5407 72.8277 21.8106 72.4993 22.2012 72.2471C22.5919 71.995 23.0322 71.8689 23.5223 71.8689C23.6146 71.8689 23.73 71.8707 23.8685 71.8743C24.007 71.8778 24.1117 71.8831 24.1828 71.8902V73.1686C24.1401 73.158 24.0425 73.142 23.8898 73.1207C23.7406 73.0958 23.5826 73.0834 23.4157 73.0834C23.018 73.0834 22.6629 73.1669 22.3504 73.3338C22.0414 73.4971 21.7964 73.7244 21.6153 74.0156C21.4377 74.3032 21.349 74.6317 21.349 75.001V80.1786H20.0919ZM28.7477 80.349C28.0091 80.349 27.361 80.1733 26.8035 79.8217C26.2495 79.4701 25.8163 78.9783 25.5038 78.3462C25.1948 77.7141 25.0404 76.9755 25.0404 76.1303C25.0404 75.278 25.1948 74.5341 25.5038 73.8984C25.8163 73.2628 26.2495 72.7691 26.8035 72.4176C27.361 72.066 28.0091 71.8902 28.7477 71.8902C29.4864 71.8902 30.1327 72.066 30.6867 72.4176C31.2442 72.7691 31.6774 73.2628 31.9864 73.8984C32.2989 74.5341 32.4551 75.278 32.4551 76.1303C32.4551 76.9755 32.2989 77.7141 31.9864 78.3462C31.6774 78.9783 31.2442 79.4701 30.6867 79.8217C30.1327 80.1733 29.4864 80.349 28.7477 80.349ZM28.7477 79.2198C29.3088 79.2198 29.7705 79.076 30.1327 78.7883C30.4949 78.5007 30.763 78.1225 30.937 77.6537C31.111 77.185 31.198 76.6772 31.198 76.1303C31.198 75.5834 31.111 75.0738 30.937 74.6015C30.763 74.1292 30.4949 73.7475 30.1327 73.4563C29.7705 73.1651 29.3088 73.0195 28.7477 73.0195C28.1867 73.0195 27.725 73.1651 27.3628 73.4563C27.0006 73.7475 26.7325 74.1292 26.5585 74.6015C26.3845 75.0738 26.2975 75.5834 26.2975 76.1303C26.2975 76.6772 26.3845 77.185 26.5585 77.6537C26.7325 78.1225 27.0006 78.5007 27.3628 78.7883C27.725 79.076 28.1867 79.2198 28.7477 79.2198ZM34.3741 83.2468V71.9968H35.5886V73.2965H35.7377C35.83 73.1544 35.9579 72.9733 36.1212 72.7532C36.2881 72.5294 36.5261 72.3306 36.835 72.1566C37.1475 71.979 37.5701 71.8902 38.1028 71.8902C38.7917 71.8902 39.3989 72.0625 39.9245 72.4069C40.4501 72.7514 40.8602 73.2397 41.155 73.8718C41.4497 74.5039 41.5971 75.2496 41.5971 76.109C41.5971 76.9755 41.4497 77.7265 41.155 78.3622C40.8602 78.9943 40.4518 79.4843 39.9298 79.8324C39.4078 80.1768 38.8059 80.349 38.1241 80.349C37.5985 80.349 37.1777 80.262 36.8617 80.088C36.5456 79.9105 36.3023 79.7098 36.1319 79.4861C35.9614 79.2588 35.83 79.0706 35.7377 78.9215H35.6312V83.2468H34.3741ZM35.6099 76.0877C35.6099 76.7056 35.7004 77.2507 35.8815 77.723C36.0626 78.1917 36.3272 78.5593 36.6752 78.8256C37.0232 79.0884 37.4494 79.2198 37.9536 79.2198C38.4792 79.2198 38.9178 79.0813 39.2693 78.8043C39.6244 78.5238 39.8908 78.1473 40.0683 77.675C40.2494 77.1992 40.34 76.6701 40.34 76.0877C40.34 75.5124 40.2512 74.9939 40.0737 74.5323C39.8996 74.0671 39.6351 73.6995 39.28 73.4297C38.9284 73.1562 38.4863 73.0195 37.9536 73.0195C37.4423 73.0195 37.0126 73.1491 36.6646 73.4083C36.3166 73.664 36.0538 74.0227 35.8762 74.4843C35.6987 74.9424 35.6099 75.4769 35.6099 76.0877ZM43.5147 80.1786V71.9968H44.7292V73.2326H44.8144C44.9636 72.8277 45.2335 72.4993 45.6241 72.2471C46.0147 71.995 46.455 71.8689 46.9451 71.8689C47.0374 71.8689 47.1528 71.8707 47.2913 71.8743C47.4298 71.8778 47.5346 71.8831 47.6056 71.8902V73.1686C47.563 73.158 47.4653 73.142 47.3126 73.1207C47.1635 73.0958 47.0055 73.0834 46.8386 73.0834C46.4408 73.0834 46.0857 73.1669 45.7732 73.3338C45.4643 73.4971 45.2192 73.7244 45.0381 74.0156C44.8606 74.3032 44.7718 74.6317 44.7718 75.001V80.1786H43.5147ZM49.0958 80.1786V71.9968H50.3529V80.1786H49.0958ZM49.735 70.6331C49.4899 70.6331 49.2786 70.5497 49.1011 70.3828C48.9271 70.2159 48.8401 70.0152 48.8401 69.7809C48.8401 69.5465 48.9271 69.3458 49.1011 69.1789C49.2786 69.012 49.4899 68.9286 49.735 68.9286C49.98 68.9286 50.1895 69.012 50.3635 69.1789C50.5411 69.3458 50.6298 69.5465 50.6298 69.7809C50.6298 70.0152 50.5411 70.2159 50.3635 70.3828C50.1895 70.5497 49.98 70.6331 49.735 70.6331ZM56.0857 80.349C55.2974 80.349 54.6173 80.175 54.0456 79.827C53.4774 79.4755 53.0389 78.9854 52.7299 78.3569C52.4245 77.7248 52.2718 76.9897 52.2718 76.1516C52.2718 75.3135 52.4245 74.5749 52.7299 73.9357C53.0389 73.2929 53.4685 72.7922 54.019 72.4336C54.5729 72.0713 55.2192 71.8902 55.9579 71.8902C56.384 71.8902 56.8048 71.9613 57.2203 72.1033C57.6358 72.2453 58.014 72.4762 58.3549 72.7958C58.6958 73.1118 58.9675 73.5309 59.1699 74.0529C59.3723 74.5749 59.4735 75.2177 59.4735 75.9811V76.5138H53.1667V75.4272H58.1951C58.1951 74.9655 58.1028 74.5536 57.9181 74.1914C57.737 73.8292 57.4778 73.5433 57.1404 73.3338C56.8066 73.1243 56.4124 73.0195 55.9579 73.0195C55.4572 73.0195 55.0239 73.1438 54.6582 73.3924C54.296 73.6374 54.0172 73.957 53.8219 74.3512C53.6266 74.7453 53.5289 75.1679 53.5289 75.6189V76.3434C53.5289 76.9613 53.6354 77.4851 53.8485 77.9147C54.0651 78.3409 54.3652 78.6658 54.7487 78.8895C55.1322 79.1097 55.5779 79.2198 56.0857 79.2198C56.416 79.2198 56.7143 79.1736 56.9806 79.0813C57.2505 78.9854 57.4831 78.8434 57.6784 78.6552C57.8737 78.4634 58.0246 78.2255 58.1312 77.9414L59.3457 78.2823C59.2178 78.6942 59.003 79.0564 58.7011 79.3689C58.3993 79.6779 58.0264 79.9194 57.5825 80.0934C57.1386 80.2638 56.6397 80.349 56.0857 80.349ZM55.3187 70.8888L56.6184 68.4172H58.0886L56.4266 70.8888H55.3187ZM64.944 71.9968V73.0621H60.704V71.9968H64.944ZM61.9398 70.0365H63.1969V77.8348C63.1969 78.19 63.2484 78.4563 63.3514 78.6338C63.4579 78.8079 63.5928 78.925 63.7562 78.9854C63.9231 79.0422 64.0989 79.0706 64.2835 79.0706C64.422 79.0706 64.5357 79.0635 64.6244 79.0493C64.7132 79.0316 64.7842 79.0174 64.8375 79.0067L65.0932 80.136C65.008 80.1679 64.889 80.1999 64.7363 80.2319C64.5836 80.2674 64.3901 80.2851 64.1557 80.2851C63.8006 80.2851 63.4526 80.2088 63.1117 80.0561C62.7743 79.9034 62.4938 79.6708 62.27 79.3583C62.0499 79.0458 61.9398 78.6516 61.9398 78.1757V70.0365ZM69.2427 80.3704C68.7242 80.3704 68.2537 80.2727 67.8311 80.0774C67.4085 79.8785 67.0729 79.5927 66.8244 79.2198C66.5758 78.8434 66.4515 78.3888 66.4515 77.8561C66.4515 77.3874 66.5438 77.0074 66.7285 76.7162C66.9131 76.4215 67.1599 76.1907 67.4689 76.0238C67.7778 75.8569 68.1188 75.7326 68.4916 75.6509C68.868 75.5657 69.2462 75.4982 69.6262 75.4485C70.1234 75.3846 70.5264 75.3366 70.8354 75.3047C71.1479 75.2691 71.3751 75.2105 71.5172 75.1289C71.6628 75.0472 71.7356 74.9052 71.7356 74.7027V74.6601C71.7356 74.1346 71.5918 73.7262 71.3041 73.435C71.02 73.1438 70.5886 72.9982 70.0097 72.9982C69.4096 72.9982 68.9391 73.1296 68.5982 73.3924C68.2572 73.6552 68.0175 73.9357 67.8791 74.234L66.6859 73.8078C66.8989 73.3107 67.183 72.9236 67.5381 72.6466C67.8968 72.3661 68.2874 72.1708 68.71 72.0607C69.1362 71.9471 69.5552 71.8902 69.9671 71.8902C70.2299 71.8902 70.5317 71.9222 70.8727 71.9861C71.2171 72.0465 71.5492 72.1726 71.8688 72.3643C72.1919 72.5561 72.46 72.8455 72.6731 73.2326C72.8862 73.6196 72.9927 74.1381 72.9927 74.788V80.1786H71.7356V79.0706H71.6717C71.5864 79.2482 71.4444 79.4382 71.2455 79.6406C71.0467 79.843 70.7821 80.0152 70.4518 80.1573C70.1216 80.2993 69.7185 80.3704 69.2427 80.3704ZM69.4344 79.2411C69.9316 79.2411 70.3506 79.1434 70.6916 78.9481C71.036 78.7528 71.2952 78.5007 71.4692 78.1917C71.6468 77.8828 71.7356 77.5579 71.7356 77.2169V76.0664C71.6823 76.1303 71.5651 76.1889 71.384 76.2422C71.2065 76.2919 71.0005 76.3363 70.7661 76.3753C70.5353 76.4108 70.3098 76.4428 70.0896 76.4712C69.873 76.4961 69.6972 76.5174 69.5623 76.5351C69.2356 76.5777 68.9302 76.647 68.6461 76.7429C68.3656 76.8352 68.1383 76.9755 67.9643 77.1637C67.7938 77.3483 67.7086 77.6005 67.7086 77.9201C67.7086 78.3569 67.8702 78.6871 68.1933 78.9108C68.52 79.131 68.9337 79.2411 69.4344 79.2411ZM75.2872 80.1786V71.9968H76.5443V80.1786H75.2872ZM75.9264 70.6331C75.6813 70.6331 75.47 70.5497 75.2925 70.3828C75.1185 70.2159 75.0315 70.0152 75.0315 69.7809C75.0315 69.5465 75.1185 69.3458 75.2925 69.1789C75.47 69.012 75.6813 68.9286 75.9264 68.9286C76.1714 68.9286 76.3809 69.012 76.5549 69.1789C76.7325 69.3458 76.8213 69.5465 76.8213 69.7809C76.8213 70.0152 76.7325 70.2159 76.5549 70.3828C76.3809 70.5497 76.1714 70.6331 75.9264 70.6331ZM78.8467 80.1786V71.9968H80.0612V73.2326H80.1465C80.2956 72.8277 80.5655 72.4993 80.9561 72.2471C81.3467 71.995 81.7871 71.8689 82.2771 71.8689C82.3695 71.8689 82.4849 71.8707 82.6234 71.8743C82.7619 71.8778 82.8666 71.8831 82.9376 71.8902V73.1686C82.895 73.158 82.7974 73.142 82.6447 73.1207C82.4955 73.0958 82.3375 73.0834 82.1706 73.0834C81.7729 73.0834 81.4178 73.1669 81.1053 73.3338C80.7963 73.4971 80.5513 73.7244 80.3702 74.0156C80.1926 74.3032 80.1038 74.6317 80.1038 75.001V80.1786H78.8467ZM87.6092 80.349C86.8208 80.349 86.1408 80.175 85.569 79.827C85.0009 79.4755 84.5623 78.9854 84.2533 78.3569C83.9479 77.7248 83.7952 76.9897 83.7952 76.1516C83.7952 75.3135 83.9479 74.5749 84.2533 73.9357C84.5623 73.2929 84.992 72.7922 85.5424 72.4336C86.0964 72.0713 86.7427 71.8902 87.4813 71.8902C87.9075 71.8902 88.3283 71.9613 88.7438 72.1033C89.1592 72.2453 89.5374 72.4762 89.8783 72.7958C90.2192 73.1118 90.4909 73.5309 90.6933 74.0529C90.8957 74.5749 90.9969 75.2177 90.9969 75.9811V76.5138H84.6901V75.4272H89.7185C89.7185 74.9655 89.6262 74.5536 89.4416 74.1914C89.2604 73.8292 89.0012 73.5433 88.6639 73.3338C88.33 73.1243 87.9359 73.0195 87.4813 73.0195C86.9806 73.0195 86.5474 73.1438 86.1816 73.3924C85.8194 73.6374 85.5406 73.957 85.3453 74.3512C85.15 74.7453 85.0523 75.1679 85.0523 75.6189V76.3434C85.0523 76.9613 85.1589 77.4851 85.3719 77.9147C85.5886 78.3409 85.8886 78.6658 86.2722 78.8895C86.6557 79.1097 87.1014 79.2198 87.6092 79.2198C87.9394 79.2198 88.2377 79.1736 88.5041 79.0813C88.7739 78.9854 89.0065 78.8434 89.2018 78.6552C89.3972 78.4634 89.5481 78.2255 89.6546 77.9414L90.8691 78.2823C90.7413 78.6942 90.5264 79.0564 90.2246 79.3689C89.9227 79.6779 89.5499 79.9194 89.106 80.0934C88.6621 80.2638 88.1631 80.349 87.6092 80.349Z" fill="black"/>
<circle cx="50.2366" cy="107.772" r="3.78125" fill="#164194" fill-opacity="0.3"/>
<rect x="0.5" y="0.776855" width="98.3929" height="91.9107" rx="9.5" stroke="#EDEDED"/>
<path d="M46.0994 32.2093C50.1273 32.2093 53.3927 28.9306 53.3927 24.886C53.3927 20.8414 50.1273 17.5626 46.0994 17.5626C42.0714 17.5626 38.806 20.8414 38.806 24.886C38.806 28.9306 42.0714 32.2093 46.0994 32.2093Z" stroke="black" stroke-miterlimit="10"/>
<path d="M49.7452 26.6768C41.7938 22.3054 37.015 32.3999 40.8531 37.5199C41.1879 37.9661 39.8383 38.9293 39.1487 39.3795C38.9296 39.5227 38.8435 39.8021 38.9461 40.0438L39.8913 42.2672C39.9994 42.5214 39.8983 42.8169 39.6566 42.9505L38.2435 43.7329C38.0318 43.8499 37.9243 44.0946 37.9808 44.3308L38.4417 46.2557C38.5017 46.5074 38.3751 46.7667 38.1399 46.8732L36.7333 47.5088C36.5051 47.6118 36.378 47.8596 36.4276 48.1058L36.6833 49.3896C36.7398 49.6724 36.5642 49.9498 36.2849 50.0186L34.9804 50.3402C34.6556 50.4201 34.482 50.7758 34.6181 51.0823L35.6579 53.4313C35.7555 53.6524 35.9882 53.7806 36.2264 53.7454L38.0704 53.4731C38.24 53.4479 38.3876 53.3429 38.4672 53.1907L45.3907 39.9624L46.8569 40.701L48.5532 37.7566C50.0645 40.2639 56.5646 30.4207 49.7442 26.6773L49.7452 26.6768ZM46.4996 34.3796C44.8483 34.6363 43.4492 33.2148 43.7189 31.5628C43.886 30.5408 44.7257 29.7122 45.7465 29.563C47.3788 29.3243 48.7579 30.7146 48.5102 32.3551C48.3551 33.3817 47.5209 34.2208 46.4991 34.3801L46.4996 34.3796Z" fill="#F9C5AF"/>
<path d="M58.3251 32.0987L54.6602 26.3611C54.3855 25.9305 53.8215 25.7939 53.3812 26.0506L45.0225 30.92C44.5841 31.1752 44.422 31.7304 44.6532 32.1827L47.7927 38.3303C48.0429 38.8202 48.6524 38.997 49.1243 38.7167L51.1314 37.5248L52.1687 39.3513C52.4339 39.818 53.0304 39.9738 53.4883 39.6954L56.4656 37.9017L56.5167 37.871C56.965 37.6017 57.1132 37.0193 56.8484 36.5671L55.7901 34.7563L58.0089 33.4368C58.4727 33.1609 58.6164 32.5545 58.3251 32.0987ZM48.7695 33.5303L47.4985 31.3747L52.6626 28.5057L53.8936 30.5406L48.7695 33.5303Z" fill="#164194"/>
<path d="M64.9119 53.18L64.8889 54.1548C64.8819 54.4588 64.7173 54.7367 64.455 54.8884L63.6799 55.3366C63.4197 55.4873 63.1005 55.4914 62.8357 55.3482L61.91 54.8467C61.7629 54.7668 61.6418 54.6462 61.5617 54.499L53.4883 39.696L56.4657 37.9022L64.8003 52.7323C64.8769 52.869 64.9154 53.0233 64.9119 53.18Z" fill="#49B170"/>
<path d="M62.705 54.5898L55.1645 40.6566C55.0054 40.3631 55.092 39.9963 55.3652 39.8054C55.6794 39.5858 56.1133 39.6838 56.3039 40.0169L64.3243 54.0321" stroke="black" stroke-miterlimit="10" stroke-linecap="round"/>
<path d="M46.0994 17.5626C50.1276 17.5626 53.3927 20.8417 53.3927 24.886C53.3927 28.1163 51.31 30.8582 48.4192 31.8315" stroke="black" stroke-miterlimit="10"/>
<path d="M37.0126 52.3104L43.6449 39.0243" stroke="black" stroke-miterlimit="10" stroke-linecap="round"/>
</svg>
