<svg width="218" height="51" viewBox="0 0 218 51" fill="none" xmlns="http://www.w3.org/2000/svg">
<path d="M202.972 2.04004C206.42 2.04004 209.727 3.40962 212.165 5.8476C214.603 8.28557 215.972 11.5922 215.972 15.04V35.04C215.972 38.4879 214.603 41.7944 212.165 44.2324C209.727 46.6704 206.42 48.04 202.972 48.04H27.9725C24.5246 48.04 21.218 46.6704 18.7801 44.2324C16.3421 41.7944 14.9725 38.4879 14.9725 35.04V30.42C14.9725 29.5421 14.6237 28.7002 14.003 28.0795C13.3822 27.4587 12.5403 27.11 11.6625 27.11H3.54243L13.1925 20.64C13.7404 20.2744 14.1896 19.7792 14.5001 19.1982C14.8106 18.6173 14.9729 17.9687 14.9725 17.31V15C14.9725 11.5522 16.3421 8.24559 18.7801 5.80762C21.218 3.36964 24.5246 2 27.9725 2H202.972M202.972 0H27.9725C23.9942 0 20.1789 1.58039 17.3659 4.39343C14.5528 7.20648 12.9725 11.0218 12.9725 15V17.31C12.9735 17.6402 12.8927 17.9656 12.7374 18.257C12.5821 18.5484 12.3571 18.7968 12.0824 18.98L0.582439 26.68C0.347719 26.8395 0.170169 27.07 0.0757559 27.3376C-0.0186573 27.6052 -0.0249846 27.896 0.0576895 28.1675C0.140364 28.439 0.307705 28.6769 0.535259 28.8465C0.762814 29.0161 1.03864 29.1084 1.32243 29.11H11.6625C11.8349 29.1087 12.0058 29.1417 12.1653 29.207C12.3249 29.2724 12.4698 29.3688 12.5917 29.4907C12.7136 29.6126 12.8101 29.7576 12.8754 29.9171C12.9408 30.0767 12.9738 30.2476 12.9725 30.42V35.04C12.9725 39.0183 14.5528 42.8336 17.3659 45.6466C20.1789 48.4597 23.9942 50.04 27.9725 50.04H202.972C206.951 50.04 210.766 48.4597 213.579 45.6466C216.392 42.8336 217.972 39.0183 217.972 35.04V15.04C217.972 11.0618 216.392 7.24646 213.579 4.43341C210.766 1.62036 206.951 0.0400391 202.972 0.0400391V0Z" fill="white"/>
</svg>
