<svg width="218" height="59" viewBox="0 0 218 59" fill="none" xmlns="http://www.w3.org/2000/svg">
<path d="M202.998 2.40532C206.446 2.40532 209.753 4.02013 212.192 6.89464C214.63 9.76915 216 13.6679 216 17.733V41.3142C216 45.3793 214.63 49.278 212.192 52.1525C209.753 55.027 206.446 56.6419 202.998 56.6419H27.976C24.5277 56.6419 21.2207 55.027 18.7824 52.1525C16.3442 49.278 14.9743 45.3793 14.9743 41.3142V35.8669C14.9743 34.8318 14.6256 33.8392 14.0047 33.1073C13.3839 32.3754 12.5419 31.9642 11.6639 31.9642H3.54288L13.1941 24.3357C13.7421 23.9047 14.1914 23.3207 14.5019 22.6358C14.8125 21.9509 14.9748 21.1861 14.9743 20.4095V17.6858C14.9743 13.6207 16.3442 9.72201 18.7824 6.8475C21.2207 3.973 24.5277 2.35811 27.976 2.35811H202.998M202.998 0H27.976C23.9972 0 20.1815 1.86336 17.368 5.1801C14.5546 8.49684 12.9741 12.9953 12.9741 17.6858V20.4095C12.9751 20.7988 12.8944 21.1824 12.739 21.526C12.5837 21.8696 12.3587 22.1625 12.084 22.3785L0.582513 31.4572C0.347763 31.6453 0.170191 31.917 0.0757655 32.2325C-0.0186596 32.5481 -0.0249877 32.8909 0.0576968 33.211C0.140381 33.5311 0.307743 33.8117 0.535327 34.0116C0.76291 34.2116 1.03877 34.3204 1.3226 34.3223H11.6639C11.8364 34.3207 12.0073 34.3597 12.1669 34.4367C12.3264 34.5138 12.4714 34.6275 12.5933 34.7712C12.7152 34.9149 12.8117 35.0858 12.8771 35.2739C12.9424 35.4621 12.9754 35.6636 12.9741 35.8669V41.3142C12.9741 46.0047 14.5546 50.5032 17.368 53.8199C20.1815 57.1366 23.9972 59 27.976 59H202.998C206.977 59 210.793 57.1366 213.606 53.8199C216.419 50.5032 218 46.0047 218 41.3142V17.733C218 13.0425 216.419 8.54398 213.606 5.22724C210.793 1.9105 206.977 0.0472083 202.998 0.0472083V0Z" fill="white"/>
</svg>
