<svg width="277" height="331" viewBox="0 0 277 331" fill="none" xmlns="http://www.w3.org/2000/svg">
<path d="M27 329.449H250C256.896 329.449 263.509 326.71 268.385 321.834C273.261 316.958 276 310.345 276 303.449V43.4494C276 36.5537 273.261 29.9405 268.385 25.0646C263.509 20.1887 256.896 17.4494 250 17.4494H231.41C231.145 17.4494 230.89 17.3441 230.703 17.1565C230.515 16.969 230.41 16.7146 230.41 16.4494L230.27 1.87942C230.248 1.70125 230.179 1.53219 230.07 1.38998C229.96 1.24777 229.814 1.13761 229.648 1.07113C229.481 1.00465 229.299 0.984264 229.122 1.01211C228.945 1.03995 228.778 1.11501 228.64 1.22939L213.15 17.1594C212.964 17.3441 212.712 17.4483 212.45 17.4494H27C20.1044 17.4494 13.4912 20.1887 8.61523 25.0646C3.73929 29.9405 1 36.5537 1 43.4494V303.449C1 306.864 1.6725 310.245 2.97913 313.399C4.28575 316.554 6.20091 319.42 8.61523 321.834C11.0296 324.248 13.8958 326.164 17.0502 327.47C20.2047 328.777 23.5856 329.449 27 329.449Z" stroke="#121212" stroke-width="2" stroke-miterlimit="10"/>
</svg>
