<svg width="275" height="217" viewBox="0 0 275 217" fill="none" xmlns="http://www.w3.org/2000/svg">
<path d="M26.7972 216H248.193C255.037 216 261.601 213.251 266.441 208.357C271.281 203.464 274 196.827 274 189.906V43.6717C274 36.7512 271.281 30.1142 266.441 25.2207C261.601 20.3272 255.037 17.578 248.193 17.578H229.741C229.477 17.578 229.225 17.4723 229.039 17.2841C228.853 17.0959 228.748 16.8406 228.748 16.5744L228.599 1.94191C228.588 1.75202 228.523 1.56936 228.413 1.41524C228.302 1.26111 228.151 1.14189 227.976 1.07141C227.801 1.00094 227.61 0.982125 227.426 1.0172C227.241 1.05228 227.069 1.13978 226.932 1.26951L211.586 17.307C211.403 17.4961 211.153 17.6043 210.892 17.6081H26.8072C19.9627 17.6081 13.3985 20.3573 8.55875 25.2508C3.71897 30.1443 1 36.7813 1 43.7017V189.967C1.01577 196.875 3.7404 203.495 8.57632 208.375C13.4123 213.255 19.9648 215.997 26.7972 216Z" stroke="#1D1D1B" stroke-width="2" stroke-miterlimit="10"/>
</svg>
