<svg width="275" height="234" viewBox="0 0 275 234" fill="none" xmlns="http://www.w3.org/2000/svg">
<path d="M248.203 233H26.8072C19.9627 233 13.3985 230.033 8.55875 224.753C3.71897 219.473 1 212.311 1 204.843V47.0457C1 39.578 3.71897 32.4162 8.55875 27.1358C13.3985 21.8554 19.9627 18.8889 26.8072 18.8889H45.2593C45.5225 18.8889 45.775 18.7747 45.9611 18.5716C46.1473 18.3686 46.2519 18.0931 46.2519 17.8059L46.4007 2.01638C46.4123 1.81148 46.477 1.61438 46.5873 1.44807C46.6976 1.28175 46.849 1.15311 47.0238 1.07706C47.1985 1.00101 47.3895 0.980711 47.5744 1.01856C47.7594 1.05641 47.9306 1.15083 48.0683 1.29082L63.4136 18.5964C63.5969 18.8005 63.8466 18.9172 64.1084 18.9213H248.193C255.037 18.9213 261.601 21.8878 266.441 27.1683C271.281 32.4487 274 39.6105 274 47.0782V204.908C273.984 212.363 271.26 219.506 266.424 224.772C261.588 230.038 255.035 232.997 248.203 233Z" stroke="white" stroke-width="2" stroke-miterlimit="10"/>
</svg>
