<svg width="277" height="175" viewBox="0 0 277 175" fill="none" xmlns="http://www.w3.org/2000/svg">
<path d="M250 174H27C20.1044 174 13.4912 170.617 8.61523 164.594C3.73929 158.572 1 150.404 1 141.887V53.5266C1 45.0096 3.73929 36.8415 8.61523 30.8191C13.4912 24.7967 20.1044 21.4135 27 21.4135H45.59C45.8552 21.4135 46.1096 21.2833 46.2971 21.0517C46.4847 20.8201 46.59 20.5059 46.59 20.1784L46.73 2.1703C46.74 1.93418 46.8048 1.70656 46.9165 1.51452C47.0282 1.32248 47.1821 1.17407 47.3601 1.08693C47.5381 0.99979 47.7325 0.977583 47.9204 1.02293C48.1083 1.06828 48.2817 1.17931 48.42 1.34279L63.91 21.0059C64.0947 21.2386 64.3462 21.3717 64.61 21.3764H250C256.896 21.3764 263.509 24.7597 268.385 30.7821C273.261 36.8045 276 44.9725 276 53.4895V141.85C276.004 146.07 275.334 150.25 274.03 154.15C272.725 158.051 270.81 161.595 268.395 164.581C265.981 167.567 263.113 169.936 259.957 171.552C256.8 173.168 253.417 174 250 174Z" stroke="white" stroke-width="2" stroke-miterlimit="10"/>
</svg>
