<svg width="882" height="192" viewBox="0 0 882 192" fill="none" xmlns="http://www.w3.org/2000/svg">
<g filter="url(#filter0_d_114_84)">
<rect x="14" y="12" width="850" height="160" rx="80" fill="#5050FA"/>
<path d="M182.856 112.45C180.666 112.45 178.746 112.045 177.096 111.235C175.446 110.395 174.156 109.24 173.226 107.77C172.326 106.27 171.876 104.53 171.876 102.55V88.6C171.876 86.59 172.326 84.85 173.226 83.38C174.156 81.91 175.446 80.77 177.096 79.96C178.746 79.12 180.666 78.7 182.856 78.7C185.076 78.7 186.996 79.12 188.616 79.96C190.266 80.77 191.541 81.91 192.441 83.38C193.371 84.85 193.836 86.59 193.836 88.6H187.086C187.086 87.28 186.711 86.275 185.961 85.585C185.241 84.895 184.206 84.55 182.856 84.55C181.506 84.55 180.456 84.895 179.706 85.585C178.986 86.275 178.626 87.28 178.626 88.6V102.55C178.626 103.84 178.986 104.845 179.706 105.565C180.456 106.255 181.506 106.6 182.856 106.6C184.206 106.6 185.241 106.255 185.961 105.565C186.711 104.845 187.086 103.84 187.086 102.55H193.836C193.836 104.53 193.371 106.27 192.441 107.77C191.541 109.24 190.266 110.395 188.616 111.235C186.996 112.045 185.076 112.45 182.856 112.45ZM199.128 112V79.15H205.878V87.25L205.653 91.975H207.633L205.653 93.55C205.653 91.45 206.253 89.8 207.453 88.6C208.653 87.4 210.273 86.8 212.313 86.8C214.713 86.8 216.633 87.64 218.073 89.32C219.543 91 220.278 93.235 220.278 96.025V112H213.528V96.7C213.528 95.41 213.183 94.42 212.493 93.73C211.833 93.01 210.888 92.65 209.658 92.65C208.458 92.65 207.528 93.01 206.868 93.73C206.208 94.42 205.878 95.41 205.878 96.7V112H199.128ZM236.641 112.45C234.451 112.45 232.546 112.045 230.926 111.235C229.306 110.395 228.046 109.24 227.146 107.77C226.276 106.27 225.841 104.53 225.841 102.55V96.7C225.841 94.72 226.276 92.995 227.146 91.525C228.046 90.025 229.306 88.87 230.926 88.06C232.546 87.22 234.451 86.8 236.641 86.8C238.861 86.8 240.766 87.22 242.356 88.06C243.976 88.87 245.221 90.025 246.091 91.525C246.991 92.995 247.441 94.72 247.441 96.7V102.55C247.441 104.53 246.991 106.27 246.091 107.77C245.221 109.24 243.976 110.395 242.356 111.235C240.766 112.045 238.861 112.45 236.641 112.45ZM236.641 106.6C237.961 106.6 238.966 106.255 239.656 105.565C240.346 104.845 240.691 103.84 240.691 102.55V96.7C240.691 95.38 240.346 94.375 239.656 93.685C238.966 92.995 237.961 92.65 236.641 92.65C235.351 92.65 234.346 92.995 233.626 93.685C232.936 94.375 232.591 95.38 232.591 96.7V102.55C232.591 103.84 232.936 104.845 233.626 105.565C234.346 106.255 235.351 106.6 236.641 106.6ZM253.273 112V105.88H261.823V93.325H254.398V87.25H268.123V105.88H275.323V112H253.273ZM264.523 83.335C263.293 83.335 262.303 83.02 261.553 82.39C260.833 81.76 260.473 80.905 260.473 79.825C260.473 78.745 260.833 77.89 261.553 77.26C262.303 76.63 263.293 76.315 264.523 76.315C265.753 76.315 266.728 76.63 267.448 77.26C268.198 77.89 268.573 78.745 268.573 79.825C268.573 80.905 268.198 81.76 267.448 82.39C266.728 83.02 265.753 83.335 264.523 83.335ZM289.57 112.45C287.53 112.45 285.745 112.135 284.215 111.505C282.685 110.845 281.485 109.945 280.615 108.805C279.775 107.665 279.355 106.33 279.355 104.8H286.105C286.105 105.52 286.42 106.105 287.05 106.555C287.71 106.975 288.55 107.185 289.57 107.185H291.55C292.78 107.185 293.71 106.96 294.34 106.51C295 106.06 295.33 105.43 295.33 104.62C295.33 103.87 295.045 103.3 294.475 102.91C293.905 102.49 293.02 102.205 291.82 102.055L288.94 101.695C285.85 101.305 283.6 100.555 282.19 99.445C280.78 98.335 280.075 96.64 280.075 94.36C280.075 91.96 280.9 90.1 282.55 88.78C284.2 87.46 286.615 86.8 289.795 86.8H291.505C294.535 86.8 296.95 87.46 298.75 88.78C300.55 90.1 301.45 91.87 301.45 94.09H294.7C294.7 93.49 294.4 93.01 293.8 92.65C293.23 92.26 292.465 92.065 291.505 92.065H289.795C288.685 92.065 287.875 92.26 287.365 92.65C286.855 93.01 286.6 93.565 286.6 94.315C286.6 95.005 286.825 95.53 287.275 95.89C287.755 96.25 288.505 96.505 289.525 96.655L292.63 97.06C295.75 97.45 298.06 98.23 299.56 99.4C301.09 100.57 301.855 102.31 301.855 104.62C301.855 107.14 300.985 109.075 299.245 110.425C297.505 111.775 294.94 112.45 291.55 112.45H289.57ZM307.238 112V105.88H315.788V93.325H308.363V87.25H322.088V105.88H329.288V112H307.238ZM318.488 83.335C317.258 83.335 316.268 83.02 315.518 82.39C314.798 81.76 314.438 80.905 314.438 79.825C314.438 78.745 314.798 77.89 315.518 77.26C316.268 76.63 317.258 76.315 318.488 76.315C319.718 76.315 320.693 76.63 321.413 77.26C322.163 77.89 322.538 78.745 322.538 79.825C322.538 80.905 322.163 81.76 321.413 82.39C320.693 83.02 319.718 83.335 318.488 83.335ZM343.535 112.45C341.495 112.45 339.71 112.135 338.18 111.505C336.65 110.845 335.45 109.945 334.58 108.805C333.74 107.665 333.32 106.33 333.32 104.8H340.07C340.07 105.52 340.385 106.105 341.015 106.555C341.675 106.975 342.515 107.185 343.535 107.185H345.515C346.745 107.185 347.675 106.96 348.305 106.51C348.965 106.06 349.295 105.43 349.295 104.62C349.295 103.87 349.01 103.3 348.44 102.91C347.87 102.49 346.985 102.205 345.785 102.055L342.905 101.695C339.815 101.305 337.565 100.555 336.155 99.445C334.745 98.335 334.04 96.64 334.04 94.36C334.04 91.96 334.865 90.1 336.515 88.78C338.165 87.46 340.58 86.8 343.76 86.8H345.47C348.5 86.8 350.915 87.46 352.715 88.78C354.515 90.1 355.415 91.87 355.415 94.09H348.665C348.665 93.49 348.365 93.01 347.765 92.65C347.195 92.26 346.43 92.065 345.47 92.065H343.76C342.65 92.065 341.84 92.26 341.33 92.65C340.82 93.01 340.565 93.565 340.565 94.315C340.565 95.005 340.79 95.53 341.24 95.89C341.72 96.25 342.47 96.505 343.49 96.655L346.595 97.06C349.715 97.45 352.025 98.23 353.525 99.4C355.055 100.57 355.82 102.31 355.82 104.62C355.82 107.14 354.95 109.075 353.21 110.425C351.47 111.775 348.905 112.45 345.515 112.45H343.535ZM401.235 112C398.715 112 396.735 111.28 395.295 109.84C393.855 108.4 393.135 106.42 393.135 103.9V93.325H386.61V87.25H393.135V80.275H399.885V87.25H409.11V93.325H399.885V103.9C399.885 105.25 400.56 105.925 401.91 105.925H408.66V112H401.235ZM425.518 112.45C423.328 112.45 421.423 112.045 419.803 111.235C418.183 110.395 416.923 109.24 416.023 107.77C415.153 106.27 414.718 104.53 414.718 102.55V96.7C414.718 94.72 415.153 92.995 416.023 91.525C416.923 90.025 418.183 88.87 419.803 88.06C421.423 87.22 423.328 86.8 425.518 86.8C427.738 86.8 429.643 87.22 431.233 88.06C432.853 88.87 434.098 90.025 434.968 91.525C435.868 92.995 436.318 94.72 436.318 96.7V102.55C436.318 104.53 435.868 106.27 434.968 107.77C434.098 109.24 432.853 110.395 431.233 111.235C429.643 112.045 427.738 112.45 425.518 112.45ZM425.518 106.6C426.838 106.6 427.843 106.255 428.533 105.565C429.223 104.845 429.568 103.84 429.568 102.55V96.7C429.568 95.38 429.223 94.375 428.533 93.685C427.843 92.995 426.838 92.65 425.518 92.65C424.228 92.65 423.223 92.995 422.503 93.685C421.813 94.375 421.468 95.38 421.468 96.7V102.55C421.468 103.84 421.813 104.845 422.503 105.565C423.223 106.255 424.228 106.6 425.518 106.6ZM441.97 112V87.25H448.495V91.975H450.475L448.495 93.55C448.495 91.45 449.095 89.8 450.295 88.6C451.495 87.4 453.115 86.8 455.155 86.8C457.555 86.8 459.475 87.64 460.915 89.32C462.385 91 463.12 93.235 463.12 96.025V112H456.37V96.7C456.37 95.41 456.025 94.42 455.335 93.73C454.675 93.01 453.73 92.65 452.5 92.65C451.3 92.65 450.37 93.01 449.71 93.73C449.05 94.42 448.72 95.41 448.72 96.7V112H441.97ZM501.74 112V96.25H495.17V90.175H501.74V86.8C501.74 84.49 502.52 82.645 504.08 81.265C505.67 79.855 507.74 79.15 510.29 79.15H517.535V85H510.515C509.915 85 509.42 85.195 509.03 85.585C508.67 85.945 508.49 86.425 508.49 87.025V90.175H517.535V96.25H508.49V112H501.74ZM533.492 112.45C531.302 112.45 529.382 112.045 527.732 111.235C526.112 110.395 524.852 109.24 523.952 107.77C523.082 106.27 522.647 104.53 522.647 102.55V96.7C522.647 94.72 523.082 92.995 523.952 91.525C524.852 90.025 526.112 88.87 527.732 88.06C529.382 87.22 531.302 86.8 533.492 86.8C535.682 86.8 537.572 87.22 539.162 88.06C540.782 88.87 542.027 90.025 542.897 91.525C543.797 92.995 544.247 94.72 544.247 96.7V101.2H529.082V102.55C529.082 104.11 529.457 105.295 530.207 106.105C530.957 106.885 532.082 107.275 533.582 107.275C534.632 107.275 535.472 107.095 536.102 106.735C536.762 106.375 537.197 105.88 537.407 105.25H544.022C543.482 107.41 542.252 109.15 540.332 110.47C538.442 111.79 536.162 112.45 533.492 112.45ZM537.812 97.735V96.61C537.812 95.08 537.452 93.91 536.732 93.1C536.042 92.29 534.962 91.885 533.492 91.885C532.022 91.885 530.912 92.305 530.162 93.145C529.442 93.985 529.082 95.17 529.082 96.7V97.375L538.262 97.285L537.812 97.735ZM559.395 112.45C557.355 112.45 555.57 112.135 554.04 111.505C552.51 110.845 551.31 109.945 550.44 108.805C549.6 107.665 549.18 106.33 549.18 104.8H555.93C555.93 105.52 556.245 106.105 556.875 106.555C557.535 106.975 558.375 107.185 559.395 107.185H561.375C562.605 107.185 563.535 106.96 564.165 106.51C564.825 106.06 565.155 105.43 565.155 104.62C565.155 103.87 564.87 103.3 564.3 102.91C563.73 102.49 562.845 102.205 561.645 102.055L558.765 101.695C555.675 101.305 553.425 100.555 552.015 99.445C550.605 98.335 549.9 96.64 549.9 94.36C549.9 91.96 550.725 90.1 552.375 88.78C554.025 87.46 556.44 86.8 559.62 86.8H561.33C564.36 86.8 566.775 87.46 568.575 88.78C570.375 90.1 571.275 91.87 571.275 94.09H564.525C564.525 93.49 564.225 93.01 563.625 92.65C563.055 92.26 562.29 92.065 561.33 92.065H559.62C558.51 92.065 557.7 92.26 557.19 92.65C556.68 93.01 556.425 93.565 556.425 94.315C556.425 95.005 556.65 95.53 557.1 95.89C557.58 96.25 558.33 96.505 559.35 96.655L562.455 97.06C565.575 97.45 567.885 98.23 569.385 99.4C570.915 100.57 571.68 102.31 571.68 104.62C571.68 107.14 570.81 109.075 569.07 110.425C567.33 111.775 564.765 112.45 561.375 112.45H559.395ZM590.112 112C587.592 112 585.612 111.28 584.172 109.84C582.732 108.4 582.012 106.42 582.012 103.9V93.325H575.487V87.25H582.012V80.275H588.762V87.25H597.987V93.325H588.762V103.9C588.762 105.25 589.437 105.925 590.787 105.925H597.537V112H590.112ZM604.045 112V105.88H612.595V93.325H605.17V87.25H618.895V105.88H626.095V112H604.045ZM615.295 83.335C614.065 83.335 613.075 83.02 612.325 82.39C611.605 81.76 611.245 80.905 611.245 79.825C611.245 78.745 611.605 77.89 612.325 77.26C613.075 76.63 614.065 76.315 615.295 76.315C616.525 76.315 617.5 76.63 618.22 77.26C618.97 77.89 619.345 78.745 619.345 79.825C619.345 80.905 618.97 81.76 618.22 82.39C617.5 83.02 616.525 83.335 615.295 83.335ZM637.192 112L629.092 87.25H636.067L640.207 101.155C640.447 101.995 640.687 102.91 640.927 103.9C641.167 104.89 641.347 105.685 641.467 106.285C641.617 105.685 641.797 104.89 642.007 103.9C642.247 102.91 642.472 102.01 642.682 101.2L646.777 87.25H653.662L645.652 112H637.192ZM665.164 112.45C662.674 112.45 660.694 111.775 659.224 110.425C657.784 109.075 657.064 107.245 657.064 104.935C657.064 102.445 657.919 100.54 659.629 99.22C661.369 97.87 663.859 97.195 667.099 97.195H672.229V95.35C672.229 94.39 671.884 93.625 671.194 93.055C670.534 92.485 669.634 92.2 668.494 92.2C667.444 92.2 666.574 92.44 665.884 92.92C665.194 93.4 664.774 94.06 664.624 94.9H658.099C658.369 92.41 659.449 90.445 661.339 89.005C663.259 87.535 665.719 86.8 668.719 86.8C671.869 86.8 674.359 87.58 676.189 89.14C678.049 90.67 678.979 92.74 678.979 95.35V112H672.454V107.95H671.374L672.499 106.375C672.499 108.235 671.824 109.72 670.474 110.83C669.154 111.91 667.384 112.45 665.164 112.45ZM667.684 107.5C669.004 107.5 670.084 107.155 670.924 106.465C671.794 105.745 672.229 104.815 672.229 103.675V101.02H667.234C666.214 101.02 665.389 101.32 664.759 101.92C664.129 102.49 663.814 103.255 663.814 104.215C663.814 105.235 664.159 106.045 664.849 106.645C665.539 107.215 666.484 107.5 667.684 107.5ZM699.392 112C697.652 112 696.122 111.64 694.802 110.92C693.482 110.17 692.447 109.135 691.697 107.815C690.977 106.495 690.617 104.965 690.617 103.225V85.225H682.967V79.15H697.367V103.225C697.367 104.035 697.607 104.695 698.087 105.205C698.597 105.685 699.257 105.925 700.067 105.925H707.267V112H699.392Z" fill="white"/>
</g>
<defs>
<filter id="filter0_d_114_84" x="0" y="0" width="882" height="192" filterUnits="userSpaceOnUse" color-interpolation-filters="sRGB">
<feFlood flood-opacity="0" result="BackgroundImageFix"/>
<feColorMatrix in="SourceAlpha" type="matrix" values="0 0 0 0 0 0 0 0 0 0 0 0 0 0 0 0 0 0 127 0" result="hardAlpha"/>
<feOffset dx="2" dy="4"/>
<feGaussianBlur stdDeviation="8"/>
<feComposite in2="hardAlpha" operator="out"/>
<feColorMatrix type="matrix" values="0 0 0 0 0 0 0 0 0 0 0 0 0 0 0 0 0 0 0.3 0"/>
<feBlend mode="normal" in2="BackgroundImageFix" result="effect1_dropShadow_114_84"/>
<feBlend mode="normal" in="SourceGraphic" in2="effect1_dropShadow_114_84" result="shape"/>
</filter>
</defs>
</svg>
