<svg width="850" height="133" viewBox="0 0 850 133" fill="none" xmlns="http://www.w3.org/2000/svg">
<g clip-path="url(#clip0_153_146)">
<path d="M151.944 122.406V131.111H229.767V108.629H205.809L184.97 116.065C174.196 119.904 163.058 121.979 151.938 122.412L151.944 122.406Z" fill="black"/>
<path d="M177.366 77.148H223.714V55.7036H177.366V27.3417H229.767V4.85962H151.944V105.089C160.493 104.691 169.042 103.112 177.366 100.328V77.148Z" fill="black"/>
<path d="M393.194 59.2777V28.2064H425.187V4.85962H335.259V28.2064H367.253V50.5328C375.981 52.3717 384.529 55.1156 392.629 59.0125L393.194 59.2835V59.2777Z" fill="black"/>
<path d="M367.253 68.1495V131.105H393.194V78.4567L385.146 74.5886C379.399 71.8274 373.398 69.6887 367.253 68.1495Z" fill="black"/>
<path d="M638.565 37.9776L633.331 52.5159H627.203L627.024 43.6845C627.007 42.8314 626.84 42.0474 626.771 41.223C612.982 45.8866 599.902 53.2308 588.43 63.4111L570.191 79.6097C561.25 87.5418 551.127 93.5543 540.388 97.578C541.938 103.504 544.596 108.79 548.377 112.981C560.351 108.237 571.643 101.435 581.668 92.5455L599.406 76.8023C599.106 76.7677 598.858 76.6986 598.547 76.6697L594.587 76.3123L596.57 71.0838H606.468C620.971 60.3443 637.839 54.3087 655.017 52.8791C657.646 46.734 660.955 40.7792 664.95 35.2624C656.101 35.1125 647.252 36.0637 638.565 37.9833V37.9776Z" fill="#9BFF82"/>
<path d="M458.518 90.6715L393.194 59.2773V78.4563L454.166 107.758H458.518V90.6715Z" fill="#9BFF82"/>
<path d="M484.459 100.829V107.758H509.541V120.82C517.41 120.648 525.227 119.662 532.882 117.852C528.611 113.378 525.221 108.069 522.852 102.241C510.198 104.374 497.147 103.953 484.459 100.835V100.829Z" fill="#9BFF82"/>
<path d="M683.414 38C680.232 43.021 677.499 48.4859 675.199 54.1525C695.133 56.6947 714.381 65.4627 729.669 80.4507L740.345 90.804C743.141 85.2411 745.499 79.3785 747.269 73.4294L741.74 68.0683C725.236 51.887 704.801 41.9027 683.414 38Z" fill="#9BFF82"/>
<path d="M259.316 71.1698L179.165 99.7681C178.571 99.9814 177.966 100.131 177.366 100.333V108.628H205.809L284.392 80.5892L276.973 78.8829C270.055 77.2457 264.239 74.6113 259.31 71.1756L259.316 71.1698Z" fill="#9BFF82"/>
<path d="M84.1289 81.2986H81.0391V100.985C101.578 115.852 126.706 123.386 151.944 122.406V105.089C127.329 106.242 102.806 97.7912 84.1289 81.2986Z" fill="#9BFF82"/>
<path d="M306.171 54.4471L298.054 57.341C306.747 59.7621 313.642 63.5495 318.703 68.7146C334.556 64.368 351.366 64.1663 367.247 68.1496V50.5329C347.036 46.2786 325.782 47.4546 306.165 54.4529L306.171 54.4471Z" fill="#9BFF82"/>
<path d="M13.1261 0L0 11.2583L55.0983 75.4705V48.9129L13.1261 0Z" fill="#9BFF82"/>
<path d="M177.366 100.328C169.042 103.106 160.493 104.686 151.944 105.089V122.406C163.064 121.974 174.201 119.899 184.975 116.059L205.814 108.623H177.372L177.366 100.328Z" fill="#9BFF82"/>
<path d="M392.629 59.0067C384.524 55.1099 375.975 52.3659 367.253 50.527V68.1437C373.392 69.6828 379.393 71.8273 385.146 74.5828L393.194 78.4508V59.2719L392.629 59.001V59.0067Z" fill="#9BFF82"/>
<path d="M458.374 109.781L454.166 107.758H433.442V131.105H509.535V120.821C492.213 121.195 474.7 117.627 458.374 109.781Z" fill="black"/>
<path d="M484.459 100.829V28.2062H509.541V4.86523H433.448V28.212H458.524V90.6717L465.868 94.1997C471.904 97.0993 478.135 99.2783 484.459 100.829Z" fill="black"/>
<path d="M484.459 107.758V100.829C478.135 99.2727 471.898 97.0994 465.863 94.1998L458.518 90.6719V107.764H454.166L458.374 109.787C474.7 117.633 492.218 121.201 509.535 120.827V107.764H484.453L484.459 107.758Z" fill="black"/>
<path d="M61.889 83.3855L55.0983 75.4707V131.105H81.0391V100.979C74.0697 95.9351 67.6248 90.061 61.889 83.3798V83.3855Z" fill="black"/>
<path d="M84.129 81.2986H131.889V57.0929H80.699V29.0768H136.385V4.85962H55.0983V48.9129L75.0151 72.1271C77.8513 75.4302 80.9181 78.4624 84.129 81.2986Z" fill="black"/>
<path d="M84.129 81.2983C80.9181 78.4621 77.8513 75.4299 75.0151 72.1268L55.0983 48.9126V75.4702L61.889 83.3851C67.6248 90.0663 74.0754 95.9404 81.0391 100.984V81.2983H84.129Z" fill="black"/>
<path d="M284.398 80.5835L289.782 81.8229C293.933 82.7453 297.155 84.5323 299.467 87.184C301.767 89.8358 302.925 93.0063 302.925 96.6899C302.925 100.956 301.398 104.299 298.342 106.72C295.287 109.141 291.05 110.352 285.631 110.352C279.988 110.352 275.515 109.118 272.234 106.634C268.949 104.155 267.306 100.783 267.306 96.517H241.365C241.365 103.896 243.152 110.294 246.726 115.713C250.3 121.132 255.373 125.34 261.95 128.332C268.522 131.335 276.241 132.828 285.124 132.828C294.007 132.828 301.697 131.266 308.212 128.159C314.726 125.046 319.804 120.659 323.436 115.016C327.068 109.372 328.878 102.852 328.878 95.4678C328.878 85.2125 325.995 76.7674 320.231 70.1323C319.781 69.6192 319.21 69.1926 318.726 68.7026C316.472 69.3195 314.212 69.9363 311.999 70.726L284.415 80.5662L284.398 80.5835Z" fill="black"/>
<path d="M294.797 56.4009L282.173 53.4552C277.907 52.5386 274.65 50.7746 272.402 48.1863C270.153 45.5922 269.029 42.6235 269.029 39.2742C269.029 34.7836 270.349 31.3824 273.007 29.0708C275.659 26.7707 279.463 25.612 284.415 25.612C289.719 25.612 293.783 26.765 296.607 29.0708C299.432 31.3767 300.844 34.5472 300.844 38.5825H326.785C326.785 27.745 323.009 19.1268 315.458 12.7281C307.9 6.32937 297.668 3.13 284.761 3.13C271.964 3.13 261.818 6.44466 254.324 13.074C246.83 19.7033 243.083 28.5578 243.083 39.6201C243.083 49.5353 246.052 57.9228 251.989 64.7827C254.093 67.2154 256.612 69.2733 259.316 71.1641L298.054 57.3406C296.953 57.035 295.95 56.6546 294.791 56.3952L294.797 56.4009Z" fill="black"/>
<path d="M259.316 71.17C264.245 74.6057 270.061 77.2459 276.979 78.8773L284.398 80.5836L311.982 70.7434C314.195 69.9537 316.449 69.3369 318.709 68.72C313.648 63.5549 306.753 59.7676 298.06 57.3464L259.316 71.17Z" fill="black"/>
<path d="M538.716 84.2324C538.716 52.6941 563.227 11.9613 595.486 11.9613C613.702 11.9613 625.399 24.2976 626.776 41.2168C630.656 39.9024 634.593 38.8475 638.565 37.9713L648.832 9.44214L631.895 16.4692C632.795 17.5472 635.135 21.1501 635.856 23.4963L633.873 28.7248C630.633 15.9331 615.852 3.49304 593.866 3.49304C549.346 3.49304 518.891 44.2201 518.891 82.0707C518.891 89.1208 520.298 95.9634 522.846 102.235C528.812 101.232 534.692 99.7047 540.388 97.566C539.287 93.3751 538.71 88.8845 538.71 84.2266L538.716 84.2324Z" fill="#5050FA"/>
<path d="M599.412 76.796C608.064 77.8798 610.872 81.99 607.563 90.0028L599.452 110.006L608.105 104.962L605.943 110.006C594.95 117.754 581.974 122.798 571.88 122.798C561.642 122.798 553.854 119.022 548.383 112.975C543.322 114.981 538.145 116.607 532.876 117.852C541.039 126.401 552.367 131.906 565.931 131.992C577.466 132.171 589.721 128.026 600.178 121.72L608.468 132.892L625.047 90.0028C628.293 81.7075 632.437 77.384 640.185 76.6634L644.335 76.306L646.318 71.0775H606.473C604.237 72.732 602.04 74.4671 599.931 76.3406L599.423 76.7903L599.412 76.796Z" fill="#5050FA"/>
<path d="M540.393 97.5721C534.698 99.7108 528.812 101.233 522.852 102.241C525.221 108.075 528.611 113.379 532.882 117.852C538.151 116.607 543.328 114.981 548.389 112.975C544.602 108.784 541.95 103.498 540.399 97.5721H540.393Z" fill="#9BFF82"/>
<path d="M627.03 43.6844L627.209 52.5158H633.337L638.571 37.9774C634.599 38.8536 630.662 39.9086 626.782 41.2229C626.851 42.053 627.013 42.837 627.03 43.6844Z" fill="#5050FA"/>
<path d="M594.587 76.3067L598.547 76.6641C598.858 76.693 599.106 76.7564 599.406 76.7967L599.913 76.3471C602.029 74.4678 604.225 72.7384 606.456 71.084H596.558L594.575 76.3125L594.587 76.3067Z" fill="#5050FA"/>
<path d="M696.206 124.96C679.805 124.96 667.55 111.984 667.55 89.4615C667.55 78.0821 670.34 65.2558 675.199 53.2942C668.506 52.441 661.745 52.3085 655.017 52.8734C650.826 62.6617 648.446 72.9401 648.446 82.7976C648.446 111.632 667.008 132.719 696.926 132.719C719.621 132.719 739.521 119.824 752.918 102.144L740.345 89.9457C730.557 109.442 714.941 124.96 696.206 124.96Z" fill="#5050FA"/>
<path d="M683.414 37.1413C693.098 21.865 706.559 10.699 721.973 10.699C739.094 10.699 751.35 23.8538 751.35 46.382C751.35 54.6485 749.915 63.6701 747.269 72.5649L762.228 87.0745C767.601 76.0929 770.638 64.2927 770.638 53.0517C770.638 24.217 752.071 3.13 722.158 3.13C698.788 3.13 678.341 16.7691 664.95 35.2563C671.141 35.36 677.309 36.0287 683.414 37.1471V37.1413Z" fill="#5050FA"/>
<path d="M747.269 72.5653C745.499 78.5144 743.141 84.3771 740.345 89.9399L752.918 102.138C756.509 97.3994 759.645 92.3438 762.222 87.0691L747.263 72.5596L747.269 72.5653Z" fill="#5050FA"/>
<path d="M675.199 53.294C677.499 47.6332 680.232 42.1625 683.414 37.1415C677.309 36.029 671.141 35.3603 664.95 35.2507C660.955 40.7617 657.646 46.7223 655.017 52.8674C661.745 52.3083 668.506 52.4409 675.199 53.294Z" fill="#9BFF82"/>
<path d="M778.939 115.713C778.576 115.551 778.265 115.361 777.856 115.234C778.006 115.188 778.121 115.108 778.265 115.056L776.697 113.54C775.688 113.972 774.518 114.226 773.175 114.226H768.586L770.978 107.994L767.618 104.737C767.577 104.864 767.583 104.956 767.531 105.094L759.311 126.522C758.567 128.533 757.218 129.577 755.247 129.756L754.244 129.848L753.76 131.116H769.722C778.507 131.116 782.969 126.216 782.969 121.235C782.969 120.549 782.854 119.921 782.652 119.333L781.568 118.278L778.934 115.724L778.939 115.713ZM769.024 129.312H761.334L761.64 128.435H763.127L768.027 115.759H772.529C776.247 115.759 778.386 117.771 778.386 120.959C778.386 125.242 775.106 129.312 769.024 129.312Z" fill="#5050FA"/>
<path d="M778.939 115.713L781.574 118.267L782.658 119.322C782.121 117.731 780.819 116.543 778.939 115.713Z" fill="#5050FA"/>
<path d="M772.829 103.169H771.169L771.52 102.293H775.723C779.216 102.293 781.101 104.046 781.101 106.934C781.101 109.62 779.585 112.318 776.709 113.54L778.277 115.056C782.71 113.615 785.69 110.352 785.69 106.836C785.69 102.991 782.15 100.495 776.247 100.495H765.099L764.614 101.763L765.531 101.855C767.531 102.063 768.183 102.945 767.623 104.732L770.984 107.989L772.835 103.169H772.829Z" fill="#5050FA"/>
<path d="M787.287 129.312L788.111 128.482H789.558L790.78 127.202L790.578 127.006L788.076 124.573L781.816 131.105H794.804L792.959 129.312H787.287Z" fill="#5050FA"/>
<path d="M794.273 106.496C796.51 103.637 798.712 102.294 801.623 102.294H810.887L810.057 103.129H808.616L800.032 112.088L802.73 114.705L816.306 100.506H793.662L792.181 104.478L793.086 105.355L794.268 106.502L794.273 106.496Z" fill="#5050FA"/>
<path d="M809.844 120.216H808.443L808.431 120.227L809.411 121.178L809.844 120.216Z" fill="#5050FA"/>
<path d="M809.411 121.178L808.431 120.233L806.564 123.063C803.722 127.347 800.88 129.318 797.334 129.318H792.953L794.798 131.111H804.938L809.406 121.184L809.411 121.178Z" fill="#5050FA"/>
<path d="M791.045 111.171L793.322 107.712C793.645 107.24 793.956 106.899 794.279 106.496L793.097 105.349L792.192 104.473L789.69 111.171H791.045Z" fill="#5050FA"/>
<path d="M790.78 127.202L802.736 114.704L800.038 112.087L788.076 124.573L790.578 127.006L790.78 127.202Z" fill="#5050FA"/>
<path d="M837.41 100.5L836.926 101.769L837.842 101.861C839.987 102.08 840.604 103.037 839.86 105.095L836.182 114.716H822.111L825.783 105.095C826.526 103.083 827.835 102.04 829.847 101.861L830.902 101.769L831.38 100.5H818.79L818.306 101.769L819.223 101.861C821.367 102.08 821.978 103.037 821.234 105.095L813.533 125.173L818.825 130.309L818.052 131.111H820.059L820.537 129.842L819.574 129.75C817.343 129.531 816.819 128.574 817.562 126.516L821.194 117.114H819.62L819.926 116.244H837.105L836.799 117.114H835.266L831.64 126.516C830.896 128.528 829.495 129.571 827.57 129.75L826.567 129.842L826.083 131.111H838.678L839.157 129.842L838.24 129.75C836.009 129.531 835.444 128.574 836.188 126.516L844.408 105.089C845.152 103.077 846.507 102.034 848.518 101.855L849.527 101.763L850.006 100.495H837.416L837.41 100.5Z" fill="#5050FA"/>
<path d="M813.527 125.173L813.008 126.516C812.265 128.528 810.87 129.571 808.944 129.75L807.941 129.842L807.457 131.111H818.041L818.813 130.309L813.527 125.173Z" fill="#5050FA"/>
</g>
<defs>
<clipPath id="clip0_153_146">
<rect width="850" height="132.892" fill="white"/>
</clipPath>
</defs>
</svg>
