<svg width="86" height="86" viewBox="0 0 86 86" fill="none" xmlns="http://www.w3.org/2000/svg">
<rect width="86" height="86" rx="25" fill="white"/>
<g clip-path="url(#clip0_357_379)">
<path fill-rule="evenodd" clip-rule="evenodd" d="M43 19C29.4941 19 19 28.8824 19 42.2941C19 49.3059 21.8706 55.3294 26.5294 59.5176C26.9059 59.8471 27.1412 60.3647 27.1882 60.8824L27.3294 65.1647C27.3765 66.5294 28.7882 67.4235 30.0118 66.8588L34.7647 64.7412C35.1882 64.5529 35.6118 64.5529 36.0353 64.6471C38.2471 65.2588 40.5529 65.5882 43 65.5882C56.5059 65.5882 67 55.7059 67 42.2941C67 28.8824 56.5059 19 43 19ZM57.4 36.9294L50.3412 48.1294C49.2118 49.9176 46.8118 50.3412 45.1176 49.0706L39.5176 44.8824C39 44.5059 38.2941 44.5059 37.7765 44.8824L30.2471 50.6235C29.2118 51.3765 27.8941 50.2 28.6 49.1176L35.6588 37.9176C36.7882 36.1294 39.1882 35.7059 40.8824 36.9765L46.4824 41.1647C47 41.5412 47.7059 41.5412 48.2235 41.1647L55.8 35.4235C56.7882 34.6235 58.1059 35.8471 57.4 36.9294Z" fill="#5050FA"/>
</g>
<defs>
<clipPath id="clip0_357_379">
<rect width="48" height="48" fill="white" transform="translate(19 19)"/>
</clipPath>
</defs>
</svg>
