<svg width="51" height="90" viewBox="0 0 51 90" fill="none" xmlns="http://www.w3.org/2000/svg">
<g clip-path="url(#clip0_213_147)">
<path d="M51 27.1303H50.9184C50.9796 26.4488 51 25.7572 51 25.0657C51 11.2249 39.5806 0 25.5 0C11.4194 0 0 11.2249 0 25.0657C0 25.7572 0.0305878 26.4488 0.0815674 27.1303H0V27.1403C0.0713714 27.3508 0.122351 27.5613 0.142743 27.7817C0.418033 30.3174 1.08077 32.7428 2.06977 34.9978C5.46501 42.735 8.56457 50.6025 11.4602 58.5401L22.1048 87.6648C23.2467 90.7817 27.7329 90.7817 28.8749 87.6648L39.5092 58.5601C42.415 50.6125 45.5146 42.745 48.9098 34.9978C49.8988 32.7428 50.5616 30.3174 50.8369 27.7717C50.8776 27.5512 50.9184 27.3307 51 27.1303Z" fill="#5050FA"/>
<ellipse cx="26.1892" cy="24.5455" rx="13.7838" ry="13.6364" fill="white"/>
</g>
<defs>
<clipPath id="clip0_213_147">
<rect width="51" height="90" fill="white"/>
</clipPath>
</defs>
</svg>
