<svg width="191" height="98" viewBox="0 0 191 98" fill="none" xmlns="http://www.w3.org/2000/svg">
<g filter="url(#filter0_d_137_142)">
<rect x="21.1721" y="5.68042" width="147.689" height="86.7541" rx="25.8197" fill="#9BFF82"/>
<path d="M32.8426 77.123L35.8377 58.2747H41.802C43.0586 58.2747 44.1086 58.5071 44.952 58.9718C45.7955 59.4366 46.4066 60.0907 46.7852 60.9341C47.1639 61.7603 47.2672 62.7415 47.0951 63.8776C46.9574 64.8243 46.6389 65.6849 46.1397 66.4595C45.6578 67.2341 45.0467 67.8796 44.3066 68.396C43.5664 68.9124 42.7402 69.2567 41.8279 69.4288L42.2152 67.828L45.2619 77.123H41.8279L39.5557 69.6353H37.2578L36.0701 77.123H32.8426ZM37.6967 66.7952H40.4594C41.3545 66.7952 42.1033 66.5456 42.7057 66.0464C43.3082 65.5472 43.6783 64.8587 43.816 63.9808C43.9537 63.0858 43.7988 62.3886 43.3512 61.8894C42.9209 61.373 42.2582 61.1149 41.3631 61.1149H38.6004L37.6967 66.7952ZM48.6342 77.123L51.6293 58.2747H62.9383L62.4735 61.089H54.3661L53.5657 65.9948H60.7952L60.3563 68.7833H53.1268L52.2489 74.3087H60.3821L59.9432 77.123H48.6342ZM63.2897 77.123L66.2847 58.2747H70.0286L70.9065 64.2648C70.9925 64.8673 71.0528 65.4181 71.0872 65.9173C71.1388 66.4165 71.1647 66.778 71.1647 67.0017C71.2507 66.778 71.3884 66.4165 71.5778 65.9173C71.7671 65.4181 71.9995 64.8673 72.2749 64.2648L74.986 58.2747H78.8847L75.8897 77.123H72.8688L73.7983 71.262C73.9532 70.3669 74.1339 69.4202 74.3405 68.4218C74.547 67.4062 74.7622 66.3907 74.986 65.3751C75.227 64.3595 75.4593 63.4042 75.6831 62.5091C75.9069 61.5968 76.1134 60.7964 76.3028 60.1079L72.3782 69.0157H69.4347L68.2212 60.1079C68.204 60.762 68.1696 61.5366 68.1179 62.4317C68.0663 63.3095 67.9974 64.2562 67.9114 65.2718C67.8425 66.2702 67.7479 67.2858 67.6274 68.3185C67.5241 69.3513 67.395 70.3325 67.2401 71.262L66.3106 77.123H63.2897ZM85.0197 77.3812C83.8148 77.3812 82.8079 77.1575 81.9988 76.7099C81.1898 76.2452 80.6132 75.5997 80.2689 74.7735C79.9247 73.93 79.8386 72.9403 80.0107 71.8042L81.3017 63.5935C81.491 62.4575 81.887 61.4763 82.4894 60.6501C83.1091 59.8067 83.8923 59.1612 84.839 58.7136C85.8029 58.2489 86.8874 58.0165 88.0923 58.0165C89.3144 58.0165 90.3214 58.2489 91.1132 58.7136C91.9222 59.1612 92.4988 59.8067 92.8431 60.6501C93.2046 61.4763 93.2906 62.4489 93.1013 63.5677L91.8103 71.8042C91.6382 72.9403 91.2423 73.93 90.6226 74.7735C90.0029 75.5997 89.2197 76.2452 88.273 76.7099C87.3263 77.1575 86.2419 77.3812 85.0197 77.3812ZM85.4845 74.5411C86.3451 74.5411 87.0423 74.3087 87.5759 73.8439C88.1095 73.362 88.4451 72.6821 88.5829 71.8042L89.8738 63.5935C90.0115 62.6985 89.891 62.0185 89.5124 61.5538C89.1509 61.089 88.5312 60.8567 87.6533 60.8567C86.7755 60.8567 86.0697 61.089 85.5361 61.5538C85.0197 62.0185 84.6927 62.6985 84.555 63.5935L83.2382 71.8042C83.1005 72.6821 83.221 73.362 83.5997 73.8439C83.9783 74.3087 84.6066 74.5411 85.4845 74.5411ZM94.6662 77.123L97.6613 58.2747H101.56L104.426 73.5083C104.478 72.9575 104.529 72.312 104.581 71.5718C104.65 70.8144 104.727 70.0485 104.813 69.2739C104.899 68.4821 104.985 67.7935 105.072 67.2083L106.492 58.2747H109.435L106.44 77.123H102.541L99.701 61.8894C99.6666 62.3886 99.615 62.9911 99.5461 63.6968C99.4945 64.4026 99.4256 65.1255 99.3396 65.8657C99.2707 66.6058 99.1847 67.2858 99.0814 67.9054L97.6096 77.123H94.6662ZM114.408 77.123L116.938 61.2698H111.981L112.472 58.2747H125.588L125.098 61.2698H120.166L117.661 77.123H114.408ZM126.043 77.123L129.038 58.2747H140.347L139.882 61.089H131.775L130.974 65.9948H138.204L137.765 68.7833H130.535L129.658 74.3087H137.791L137.352 77.123H126.043ZM141.215 77.123L144.21 58.2747H150.174C151.431 58.2747 152.481 58.5071 153.324 58.9718C154.168 59.4366 154.779 60.0907 155.157 60.9341C155.536 61.7603 155.639 62.7415 155.467 63.8776C155.329 64.8243 155.011 65.6849 154.512 66.4595C154.03 67.2341 153.419 67.8796 152.679 68.396C151.938 68.9124 151.112 69.2567 150.2 69.4288L150.587 67.828L153.634 77.123H150.2L147.928 69.6353H145.63L144.442 77.123H141.215ZM146.069 66.7952H148.831C149.727 66.7952 150.475 66.5456 151.078 66.0464C151.68 65.5472 152.05 64.8587 152.188 63.9808C152.326 63.0858 152.171 62.3886 151.723 61.8894C151.293 61.373 150.63 61.1149 149.735 61.1149H146.972L146.069 66.7952Z" fill="#5050FA"/>
<path d="M95.2746 45.4426L95.2746 12.3934M95.2746 12.3934L106.893 24.0123M95.2746 12.3934L83.6557 24.0123" stroke="#5050FA" stroke-width="2.58197" stroke-miterlimit="16" stroke-linejoin="bevel"/>
</g>
<defs>
<filter id="filter0_d_137_142" x="21.1721" y="5.68042" width="151.82" height="90.8853" filterUnits="userSpaceOnUse" color-interpolation-filters="sRGB">
<feFlood flood-opacity="0" result="BackgroundImageFix"/>
<feColorMatrix in="SourceAlpha" type="matrix" values="0 0 0 0 0 0 0 0 0 0 0 0 0 0 0 0 0 0 127 0" result="hardAlpha"/>
<feOffset dx="2.06557" dy="2.06557"/>
<feGaussianBlur stdDeviation="1.03279"/>
<feComposite in2="hardAlpha" operator="out"/>
<feColorMatrix type="matrix" values="0 0 0 0 0 0 0 0 0 0 0 0 0 0 0 0 0 0 0.25 0"/>
<feBlend mode="normal" in2="BackgroundImageFix" result="effect1_dropShadow_137_142"/>
<feBlend mode="normal" in="SourceGraphic" in2="effect1_dropShadow_137_142" result="shape"/>
</filter>
</defs>
</svg>
