<svg width="86" height="86" viewBox="0 0 86 86" fill="none" xmlns="http://www.w3.org/2000/svg">
<rect width="86" height="86" rx="25" fill="white"/>
<g clip-path="url(#clip0_357_368)">
<path d="M70.7756 28.3778C70.1311 25.8397 68.1333 23.8873 65.62 23.1714C61.1089 22 43 22 43 22C43 22 24.8911 22 20.3156 23.2365C17.8022 23.8873 15.8689 25.9048 15.16 28.4429C14 32.9984 14 42.5 14 42.5C14 42.5 14 52.0016 15.2244 56.6222C15.8689 59.1603 17.8667 61.1127 20.38 61.8286C24.8911 63 43 63 43 63C43 63 61.1089 63 65.6844 61.7635C68.1978 61.1127 70.1311 59.0952 70.84 56.5571C72.0644 52.0016 72.0644 42.4349 72.0644 42.4349C72.0644 42.4349 72 32.9984 70.7756 28.3778ZM37.2 51.2857V33.7143L52.28 42.5L37.2 51.2857Z" fill="#5050FA"/>
</g>
<defs>
<clipPath id="clip0_357_368">
<rect width="58" height="41" fill="white" transform="translate(14 22)"/>
</clipPath>
</defs>
</svg>
