<svg xmlns="http://www.w3.org/2000/svg" version="1.1" xmlns:xlink="http://www.w3.org/1999/xlink" xmlns:svgjs="http://svgjs.com/svgjs" width="1080" height="1920" preserveAspectRatio="none" viewBox="0 0 1080 1920"><g mask="url(&quot;#SvgjsMask1640&quot;)" fill="none"><rect width="1080" height="1920" x="0" y="0" fill="url(#SvgjsLinearGradient1641)"></rect><path d="M1098 1920L0 1920 L0 1659.7Q33.29 1602.99, 90 1636.27Q123.65 1579.92, 180 1613.58Q191.56 1571.13, 234 1582.69Q272.51 1531.2, 324 1569.71Q352.47 1508.18, 414 1536.65Q446.42 1515.07, 468 1547.49Q505.1 1530.59, 522 1567.68Q551.36 1507.04, 612 1536.4Q678.17 1512.58, 702 1578.75Q716.86 1539.61, 756 1554.47Q788.14 1532.62, 810 1564.76Q859.21 1559.97, 864 1609.17Q902.99 1594.16, 918 1633.14Q925.14 1550.29, 1008 1557.43Q1045.44 1504.88, 1098 1542.32z" fill="rgba(24, 103, 153, 1)"></path><path d="M1134 1920L0 1920 L0 1760.33Q18.76 1689.09, 90 1707.86Q101.11 1628.96, 180 1640.07Q235.06 1605.13, 270 1660.19Q321.31 1657.5, 324 1708.81Q332.96 1663.77, 378 1672.73Q432.14 1636.88, 468 1691.02Q495.69 1628.71, 558 1656.4Q593.3 1637.7, 612 1673Q620.9 1627.9, 666 1636.8Q719.04 1599.84, 756 1652.88Q806.04 1648.92, 810 1698.96Q886.23 1685.19, 900 1761.42Q931.38 1702.8, 990 1734.17Q1019.5 1673.67, 1080 1703.17Q1075.17 1644.35, 1134 1639.52z" fill="rgba(35, 151, 223, 1)"></path><path d="M1116 1920L0 1920 L0 1784.34Q28.42 1758.76, 54 1787.17Q63.54 1742.71, 108 1752.25Q129.63 1719.88, 162 1741.52Q227.5 1717.02, 252 1782.52Q264.51 1741.03, 306 1753.54Q327.36 1720.9, 360 1742.26Q380.98 1709.24, 414 1730.21Q490.62 1716.83, 504 1793.44Q574.36 1773.8, 594 1844.15Q609.1 1805.25, 648 1820.35Q647.87 1730.21, 738 1730.08Q771.39 1709.47, 792 1742.87Q886.35 1747.22, 882 1841.57Q936.7 1806.27, 972 1860.97Q975.81 1774.78, 1062 1778.58Q1066.47 1729.05, 1116 1733.51z" fill="rgba(127, 198, 253, 1)"></path><path d="M1098 1920L0 1920 L0 1882.06Q40.2 1868.26, 54 1908.46Q116.55 1881.01, 144 1943.55Q157.99 1867.54, 234 1881.53Q254.03 1847.56, 288 1867.59Q299.93 1825.52, 342 1837.45Q391.45 1832.9, 396 1882.36Q434.34 1866.69, 450 1905.03Q505.35 1870.38, 540 1925.72Q548.29 1880.01, 594 1888.29Q633.7 1837.99, 684 1877.68Q748.45 1852.13, 774 1916.58Q793.55 1846.13, 864 1865.68Q915.32 1827, 954 1878.32Q1005.24 1875.56, 1008 1926.8Q1016.17 1844.97, 1098 1853.14z" fill="white"></path></g><defs><mask id="SvgjsMask1640"><rect width="1080" height="1920" fill="#ffffff"></rect></mask><linearGradient x1="-19.44%" y1="10.94%" x2="119.44%" y2="89.06%" gradientUnits="userSpaceOnUse" id="SvgjsLinearGradient1641"><stop stop-color="rgba(70, 161, 255, 1)" offset="0"></stop><stop stop-color="rgba(210, 232, 255, 1)" offset="1"></stop><stop stop-color="rgba(160, 198, 246, 1)" offset="1"></stop></linearGradient></defs></svg>