<svg width="66" height="42" viewBox="0 0 66 42" fill="none" xmlns="http://www.w3.org/2000/svg">
<g clip-path="url(#clip0_172_201)">
<path d="M64.1672 22.5546V1.47931H1.83276V22.5546H64.1672Z" fill="white"/>
<path d="M2.40149 12.572L9.07244 14.3712L10.3025 17.8356L15.0609 20.9424L16.1327 23.453L5.02695 24.4032L0 21.8244L2.40149 12.5709V12.572Z" fill="black"/>
<path d="M33.3665 1.22768L20.6953 0L12.833 1.94736V7.24969L17.4015 11.9652L26.0694 12.2016L33.3665 1.22768Z" fill="black"/>
<path d="M56.7329 0.702038L49.5002 3.1527L50.7432 5.69274L57.0717 8.05639L59.5588 11.9982L62.1585 16.6396L64.0781 15.7635L65.6611 11.9982L65.9999 3.67835L64.3044 0L56.7329 0.702038Z" fill="black"/>
<path fill-rule="evenodd" clip-rule="evenodd" d="M53.8295 16.6526L40.1136 9.9826L33.7346 13.6116L37.4354 18.8563L53.7568 16.8972C53.792 16.8901 53.8237 16.8772 53.8471 16.8583C53.8717 16.8395 53.8893 16.816 53.8975 16.7913C53.9057 16.7654 53.9034 16.7396 53.8917 16.7149C53.8799 16.6902 53.8588 16.669 53.8307 16.6514L53.8295 16.6526Z" fill="black"/>
<path d="M20.4855 41.599H16.6792L15.8021 35.0854C15.7271 34.5022 15.6731 33.9906 15.6391 33.552C15.591 33.1193 15.5441 32.5054 15.4961 31.7105C15.3741 32.4243 15.183 33.2192 14.925 34.0976C14.8711 34.2693 14.83 34.4163 14.8031 34.5398L12.7721 41.599H10.0575L8.02658 34.5398C8.00665 34.4234 7.9656 34.2752 7.90463 34.0976C7.61851 33.171 7.43207 32.3761 7.34295 31.7105C7.28901 32.4654 7.23742 33.0275 7.18934 33.398C7.16941 33.5896 7.13775 33.8719 7.09788 34.2423C7.05684 34.6127 7.02635 34.8938 7.00641 35.0866L6.12931 41.6002H2.3418L4.64831 26.5352H8.67972L10.9346 34.3046C10.9757 34.4493 11.0026 34.541 11.0167 34.5821C11.2137 35.2266 11.3462 35.8169 11.4142 36.3519C11.4283 36.1661 11.4787 35.8651 11.5678 35.4465C11.5948 35.343 11.6968 34.9561 11.8739 34.2835L14.1499 26.5352H18.1907L20.4867 41.6002L20.4855 41.599Z" fill="white"/>
<path d="M22.6794 41.599V26.534H31.8328V29.8372H26.6487V32.4513H31.5361V35.6828H26.6487V38.224H31.8328V41.599H22.6794Z" fill="white"/>
<path d="M34.4252 26.534H38.5071V33.8613C38.5071 34.9796 38.534 35.7546 38.5892 36.1873C38.6572 36.7024 38.7486 37.0928 38.8647 37.3609C39.0078 37.7525 39.2763 38.0406 39.6715 38.2252C40.0655 38.4381 40.5415 38.5439 41.0997 38.5439C41.6579 38.5439 42.1234 38.4381 42.5174 38.2252C42.8785 38.0465 43.1506 37.7584 43.3335 37.3609C43.4426 37.0869 43.5317 36.6953 43.5985 36.1873C43.6595 35.7757 43.69 35.0008 43.69 33.8613V26.534H47.7413V34.4987C47.7413 36.1309 47.6428 37.3456 47.4458 38.1417C47.2629 38.9308 46.9287 39.607 46.4456 40.1691C45.9144 40.7935 45.2109 41.2498 44.3337 41.5379C43.4625 41.8471 42.3849 42.0012 41.0985 42.0012C39.8122 42.0012 38.7041 41.8471 37.8539 41.5379C36.9897 41.2498 36.2862 40.7935 35.7409 40.1691C35.2719 39.6199 34.9377 38.9449 34.7407 38.1417C34.5296 37.3327 34.4241 36.1179 34.4241 34.4987V26.534H34.4252Z" fill="white"/>
<path d="M50.8452 41.599V26.534H54.9165V32.389H60.3457V26.534H64.4275V41.599H60.3457V35.4665H54.9165V41.599H50.8452Z" fill="white"/>
</g>
<defs>
<clipPath id="clip0_172_201">
<rect width="66" height="42" fill="white"/>
</clipPath>
</defs>
</svg>
