<svg width="276" height="95" viewBox="0 0 276 95" fill="none" xmlns="http://www.w3.org/2000/svg">
<path d="M272.967 90.9691V57.1976L171.362 57.1976V90.9691H272.967Z" fill="white"/>
<path d="M172.279 75.2091L183.253 78.0625L185.276 83.5562L193.104 88.4832L194.867 92.464L176.599 93.971L168.329 89.8822L172.279 75.2091Z" fill="black"/>
<path d="M222.923 56.9099L202.334 54.9462L189.56 58.0602V66.5397L196.983 74.081L211.066 74.4586L222.923 56.9099Z" fill="black"/>
<path d="M261.095 56.0537L249.461 59.923L251.46 63.9326L261.639 67.6645L265.64 73.8864L269.821 81.2129L272.908 79.8306L275.455 73.8864L276 60.753L273.273 54.9462L261.095 56.0537Z" fill="black"/>
<path fill-rule="evenodd" clip-rule="evenodd" d="M256.171 81.423L233.995 70.7062L223.681 76.5373L229.663 84.9653L256.05 81.8178C256.106 81.8071 256.157 81.7856 256.197 81.7555C256.238 81.7253 256.266 81.6877 256.278 81.6469C256.291 81.6061 256.287 81.5636 256.268 81.5241C256.249 81.4846 256.216 81.4496 256.171 81.423Z" fill="black"/>
<path d="M2.63907 48.9423V10.3161H13.2753V39.919H26.4973V48.9423H2.63907Z" fill="white"/>
<path d="M33.9346 10.3161H43.8511L35.614 26.8325H28.2567L33.9346 10.3161Z" fill="white"/>
<path d="M48.4628 10.3161H59.1257V29.1016C59.1257 31.9686 59.1968 33.9562 59.339 35.0643C59.5167 36.3835 59.7566 37.3861 60.0587 38.0721C60.4319 39.0747 61.1339 39.8135 62.1646 40.2884C63.1954 40.8336 64.4394 41.1063 65.8967 41.1063C67.3361 41.1063 68.5713 40.8336 69.602 40.2884C70.5439 39.8311 71.2548 39.0923 71.7346 38.0721C72.0189 37.3685 72.25 36.366 72.4277 35.0643C72.5876 34.009 72.6676 32.0214 72.6676 29.1016V10.3161H83.2505V30.7374C83.2505 34.9236 82.9928 38.0369 82.4774 40.0773C81.9976 42.1001 81.1268 43.8326 79.865 45.275C78.4789 46.8756 76.6395 48.0453 74.347 48.784C72.0722 49.5755 69.2555 49.9713 65.8967 49.9713C62.4668 49.9713 59.6411 49.5755 57.4197 48.784C55.1627 48.0453 53.3233 46.8756 51.9016 45.275C50.6754 43.8678 49.8046 42.1353 49.2892 40.0773C48.7383 38.0018 48.4628 34.8884 48.4628 30.7374V10.3161Z" fill="white"/>
<path d="M93.087 36.4627C94.722 38.2568 96.2859 39.5848 97.7787 40.4467C99.3426 41.3261 100.871 41.7659 102.364 41.7659C103.768 41.7659 104.932 41.3877 105.856 40.6314C106.78 39.875 107.242 38.9164 107.242 37.7555C107.242 36.4891 106.86 35.4953 106.096 34.7741C105.278 34.0881 103.474 33.3758 100.684 32.637C96.8812 31.6168 94.1889 30.2976 92.6072 28.6794C91.0078 27.026 90.208 24.7746 90.208 21.9251C90.208 18.2313 91.4609 15.2236 93.9667 12.9018C96.4369 10.5624 99.6714 9.39271 103.67 9.39271C105.927 9.39271 107.971 9.68293 109.801 10.2634C111.72 10.8438 113.542 11.7057 115.266 12.849L111.934 20.4212C110.761 19.4186 109.517 18.6447 108.202 18.0994C106.922 17.5893 105.669 17.3343 104.443 17.3343C103.199 17.3343 102.159 17.6421 101.324 18.2577C100.524 18.8382 100.125 19.6121 100.125 20.5795C100.125 21.5118 100.471 22.2857 101.164 22.9013C101.893 23.4818 103.261 24.0358 105.269 24.5635C105.34 24.5811 105.403 24.5987 105.456 24.6163C105.509 24.6163 105.589 24.6339 105.696 24.669C110.032 25.8124 112.893 27.0964 114.28 28.5211C115.186 29.4182 115.897 30.5527 116.412 31.9246C116.874 33.2263 117.105 34.7038 117.105 36.3572C117.105 40.4379 115.746 43.7359 113.027 46.2512C110.29 48.7313 106.664 49.9713 102.15 49.9713C99.3781 49.9713 96.899 49.5228 94.7131 48.6257C92.545 47.7287 90.4035 46.2863 88.2887 44.2987L93.087 36.4627Z" fill="white"/>
<path d="M123.343 48.9423V10.3161H134.086V48.9423H123.343Z" fill="white"/>
<path d="M142.696 48.9423V10.3161H152.959L167.701 30.1833C168.074 30.7286 168.545 31.5465 169.113 32.637C169.842 34.0442 170.553 35.4953 171.246 36.9904C170.979 34.9676 170.828 33.5517 170.793 32.7425C170.686 31.4761 170.633 30.3592 170.633 29.3918V10.3161H180.843V48.9423H170.633L155.891 28.996C155.678 28.7146 155.207 27.8879 154.479 26.5159C153.839 25.3902 153.128 23.9655 152.346 22.2417C152.524 23.6137 152.693 25.0384 152.853 26.5159C152.924 28.1693 152.959 29.2862 152.959 29.8667V48.9423H142.696Z" fill="white"/>
<path d="M189.24 48.9423V10.3161H213.151V18.7854H199.609V25.4869H212.378V33.7715H199.609V40.2884H213.151V48.9423H189.24Z" fill="white"/>
<path d="M247.646 34.5103H258.229L254.257 21.7668C254.168 21.5381 253.999 20.9049 253.75 19.8672C253.448 18.6535 253.173 17.5542 252.924 16.5692C252.675 17.4662 252.462 18.3721 252.284 19.2867C252 20.1662 251.76 20.9929 251.564 21.7668L247.646 34.5103ZM232.744 48.9423L246.206 10.3161H259.535L273.023 48.9423H262.44L260.468 42.0297H245.353L243.327 48.9423H232.744ZM246.713 0H252.657L256.549 7.33475H253.27L246.713 0Z" fill="white"/>
<path d="M47.3965 93.971H37.4534L35.1609 77.27C34.9654 75.7749 34.8232 74.4645 34.7344 73.3387C34.61 72.2306 34.4856 70.6564 34.3612 68.616C34.0413 70.4453 33.5437 72.4857 32.8684 74.7371C32.7262 75.1768 32.6196 75.555 32.5485 75.8716L27.2437 93.971H20.1529L14.8481 75.8716C14.7948 75.5726 14.6881 75.1944 14.5282 74.7371C13.7818 72.3625 13.2931 70.3222 13.062 68.616C12.9199 70.5508 12.7866 71.9932 12.6622 72.943C12.6089 73.4355 12.5289 74.1566 12.4223 75.1065C12.3156 76.0563 12.2357 76.7775 12.1824 77.27L9.88983 93.971H0L6.02453 55.3448H16.5541L22.4454 75.2648C22.552 75.6341 22.6231 75.8716 22.6586 75.9771C23.174 77.6305 23.5206 79.1432 23.6983 80.5152C23.7338 80.0403 23.8671 79.2663 24.0981 78.1934C24.1692 77.9296 24.4358 76.9358 24.8978 75.212L30.8424 55.3448H41.3987L47.3965 93.971Z" fill="white"/>
<path d="M53.1278 93.971V55.3448H77.0394V63.8141H63.4975V70.5156H76.2663V78.8002H63.4975V85.3171H77.0394V93.971H53.1278Z" fill="white"/>
<path d="M83.8103 55.3448H94.4732V74.1303C94.4732 76.9973 94.5443 78.9849 94.6865 80.093C94.8642 81.4122 95.1041 82.4148 95.4062 83.1008C95.7794 84.1034 96.4814 84.8422 97.5121 85.3171C98.5429 85.8623 99.7869 86.135 101.244 86.135C102.684 86.135 103.919 85.8623 104.949 85.3171C105.891 84.8598 106.602 84.121 107.082 83.1008C107.366 82.3972 107.597 81.3947 107.775 80.093C107.935 79.0377 108.015 77.0501 108.015 74.1303V55.3448H118.598V75.7661C118.598 79.9523 118.34 83.0656 117.825 85.106C117.345 87.1288 116.474 88.8613 115.213 90.3036C113.826 91.9043 111.987 93.074 109.694 93.8127C107.42 94.6042 104.603 95 101.244 95C97.8142 95 94.9886 94.6042 92.7671 93.8127C90.5102 93.074 88.6708 91.9043 87.2491 90.3036C86.0229 88.8965 85.1521 87.164 84.6367 85.106C84.0858 83.0305 83.8103 79.9171 83.8103 75.7661V55.3448Z" fill="white"/>
<path d="M126.702 93.971V55.3448H137.338V70.3573H151.52V55.3448H162.183V93.971H151.52V78.2462H137.338V93.971H126.702Z" fill="white"/>
</svg>
