<svg width="275" height="76" viewBox="0 0 275 76" fill="none" xmlns="http://www.w3.org/2000/svg">
<path d="M272.151 73.1349V40.4724L175.272 40.4724V73.1349H272.151Z" fill="white"/>
<path d="M176.156 57.6632L186.523 60.452L188.435 65.8212L195.831 70.6366L197.497 74.5272L180.236 76.0001L172.423 72.0039L176.156 57.6632Z" fill="black"/>
<path d="M224.281 40.0834L204.587 38.1803L192.368 41.1982V49.4158L199.469 56.7242L212.94 57.0902L224.281 40.0834Z" fill="black"/>
<path d="M260.597 39.2676L249.356 43.0661L251.287 47.0023L261.123 50.666L264.989 56.774L269.029 63.9665L272.013 62.6095L274.474 56.774L275 43.8809L272.365 38.1803L260.597 39.2676Z" fill="black"/>
<path fill-rule="evenodd" clip-rule="evenodd" d="M256.084 63.9881L234.766 53.652L224.851 59.2759L230.602 67.4046L255.968 64.369C256.022 64.3587 256.071 64.3379 256.109 64.3088C256.148 64.2797 256.175 64.2435 256.187 64.2041C256.199 64.1648 256.196 64.1238 256.178 64.0857C256.159 64.0476 256.127 64.0138 256.084 63.9881Z" fill="black"/>
<path d="M3.44596 30.1579V0.664862H11.4398V23.2681H21.377V30.1579H3.44596Z" fill="white"/>
<path d="M33.0371 19.1383H40.9909L38.0057 9.40801C37.9389 9.23341 37.8121 8.74992 37.6251 7.95753C37.398 7.03084 37.191 6.19144 37.004 5.43934C36.817 6.12429 36.6567 6.81595 36.5232 7.51433C36.3095 8.18585 36.1291 8.81707 35.9822 9.40801L33.0371 19.1383ZM21.8378 30.1579L31.9553 0.664862H41.9726L52.1101 30.1579H44.1564L42.6738 24.8797H31.3141L29.7915 30.1579H21.8378Z" fill="white"/>
<path d="M67.7972 30.1579V0.664862H85.7683V7.13157H75.5907V12.2485H85.1873V18.5742H75.5907V30.1579H67.7972Z" fill="white"/>
<path d="M97.8692 19.1383H105.823L102.838 9.40801C102.771 9.23341 102.644 8.74992 102.457 7.95753C102.23 7.03084 102.023 6.19144 101.836 5.43934C101.649 6.12429 101.489 6.81595 101.355 7.51433C101.142 8.18585 100.961 8.81707 100.814 9.40801L97.8692 19.1383ZM86.6699 30.1579L96.7874 0.664862H106.805L116.942 30.1579H108.988L107.506 24.8797H96.1463L94.6236 30.1579H86.6699Z" fill="white"/>
<path d="M127.18 12.45H128.783C130.773 12.45 132.128 12.2351 132.85 11.8053C133.584 11.3487 133.952 10.5899 133.952 9.52888C133.952 8.41416 133.611 7.62849 132.93 7.17186C132.182 6.7018 130.84 6.46676 128.903 6.46676H127.18V12.45ZM119.767 30.1579V0.664862H127.801C131.033 0.664862 133.344 0.772305 134.733 0.98719C136.029 1.18865 137.164 1.55798 138.139 2.09519C139.207 2.72642 140.029 3.52552 140.603 4.49251C141.177 5.51321 141.465 6.69508 141.465 8.03811C141.465 9.74377 141.037 11.0868 140.182 12.0672C139.341 13.0342 137.992 13.7729 136.135 14.2832C138.166 14.4444 139.795 15.1696 141.024 16.4589C142.199 17.7751 142.787 19.5345 142.787 21.7371C142.787 23.295 142.453 24.6716 141.785 25.8669C141.117 27.1025 140.176 28.0359 138.96 28.6671C138.025 29.164 136.797 29.5535 135.274 29.8355C133.698 30.0504 131.287 30.1579 128.041 30.1579H119.767ZM127.18 24.1344H129.985C131.881 24.1344 133.217 23.8859 133.992 23.389C134.793 22.9324 135.194 22.1467 135.194 21.032C135.194 19.8232 134.833 18.957 134.112 18.4332C133.391 17.9497 132.055 17.708 130.105 17.708H127.18V24.1344Z" fill="white"/>
<path d="M147.615 30.1579V0.664862H155.97C157.586 0.664862 158.948 0.698438 160.057 0.76559C161.179 0.832742 162.1 0.946899 162.822 1.10806C164.064 1.40353 165.172 1.91388 166.147 2.63912C167.216 3.44494 168.024 4.47908 168.572 5.74153C169.146 6.95026 169.433 8.32015 169.433 9.85121C169.433 12.1209 168.872 13.981 167.75 15.4315C166.655 16.882 165.032 17.8288 162.882 18.272L170.875 30.1579H161.84L155.108 18.6145V30.1579H147.615ZM155.108 14.6055H156.591C158.34 14.6055 159.603 14.3168 160.377 13.7393C161.165 13.0946 161.559 12.1612 161.559 10.9391C161.559 9.46173 161.192 8.41416 160.457 7.79637C159.71 7.16514 158.461 6.84953 156.711 6.84953H155.108V14.6055Z" fill="white"/>
<path d="M174.141 30.1579V0.664862H182.215V30.1579H174.141Z" fill="white"/>
<path d="M207.96 18.3929L209.482 20.4276C209.936 19.7829 210.264 19.0376 210.464 18.1914C210.691 17.305 210.805 16.4656 210.805 15.6733C210.805 13.0946 210.09 10.9659 208.661 9.28713C207.192 7.60834 205.348 6.76895 203.131 6.76895C200.954 6.76895 199.131 7.60834 197.662 9.28713C196.193 10.9256 195.458 12.9872 195.458 15.4718C195.458 17.9967 196.179 20.0851 197.622 21.7371C199.104 23.389 200.954 24.2149 203.171 24.2149C203.438 24.2149 203.766 24.1747 204.153 24.0941C204.447 24.0538 204.787 23.9463 205.175 23.7717L201.028 18.3929H207.96ZM219.419 33.6229H212.608L209.482 29.4931C208.694 29.9228 207.753 30.2653 206.657 30.5205C205.589 30.7488 204.454 30.863 203.251 30.863C201.502 30.863 199.899 30.6414 198.443 30.1982C196.934 29.755 195.511 29.0969 194.176 28.2239C192.092 26.8137 190.449 24.967 189.247 22.6839C188.045 20.3873 187.444 17.9698 187.444 15.4315C187.444 13.3767 187.845 11.4024 188.646 9.50873C189.448 7.60163 190.583 5.92955 192.052 4.49251C193.495 3.05546 195.171 1.94074 197.081 1.14835C198.977 0.382825 200.994 6.10352e-05 203.131 6.10352e-05C205.255 6.10352e-05 207.265 0.382825 209.162 1.14835C211.058 1.94074 212.741 3.05546 214.21 4.49251C215.706 5.98327 216.835 7.64863 217.596 9.48859C218.398 11.3957 218.798 13.3767 218.798 15.4315C218.798 17.5804 218.398 19.6285 217.596 21.5759C216.808 23.4158 215.633 25.0543 214.07 26.4914L219.419 33.6229Z" fill="white"/>
<path d="M223.607 0.664862H231.621V15.0085C231.621 17.1976 231.674 18.7152 231.781 19.5613C231.914 20.5686 232.095 21.3341 232.322 21.8579C232.602 22.6235 233.13 23.1875 233.904 23.5501C234.679 23.9665 235.614 24.1747 236.709 24.1747C237.791 24.1747 238.719 23.9665 239.494 23.5501C240.202 23.201 240.736 22.6369 241.097 21.8579C241.311 21.3207 241.484 20.5552 241.618 19.5613C241.738 18.7555 241.798 17.2379 241.798 15.0085V0.664862H249.752V16.2575C249.752 19.4539 249.558 21.8311 249.171 23.389C248.81 24.9335 248.156 26.2564 247.207 27.3576C246.166 28.5798 244.783 29.4729 243.06 30.037C241.351 30.6414 239.234 30.9435 236.709 30.9435C234.132 30.9435 232.008 30.6414 230.338 30.037C228.642 29.4729 227.26 28.5798 226.191 27.3576C225.27 26.2832 224.615 24.9603 224.228 23.389C223.814 21.8042 223.607 19.427 223.607 16.2575V0.664862Z" fill="white"/>
<path d="M255.842 30.1579V0.664862H273.814V7.13157H263.636V12.2485H273.232V18.5742H263.636V23.5501H273.814V30.1579H255.842Z" fill="white"/>
<path d="M11.1994 60.3963H19.1531L16.168 50.666C16.1012 50.4914 15.9743 50.0079 15.7873 49.2155C15.5602 48.2888 15.3532 47.4494 15.1662 46.6973C14.9792 47.3823 14.819 48.0739 14.6854 48.7723C14.4717 49.4438 14.2914 50.075 14.1445 50.666L11.1994 60.3963ZM0 71.4158L10.1175 41.9228H20.1348L30.2723 71.4158H22.3186L20.836 66.1377H9.47639L7.95375 71.4158H0ZM10.4982 34.0459H14.9659L17.8909 39.6464H15.4267L10.4982 34.0459Z" fill="white"/>
<path d="M79.5976 71.4158H72.1247L70.4017 58.6637C70.2548 57.5222 70.148 56.5216 70.0812 55.6621C69.9877 54.816 69.8942 53.6139 69.8007 52.056C69.5603 53.4528 69.1863 55.0107 68.6788 56.7298C68.5719 57.0655 68.4918 57.3543 68.4383 57.596L64.4515 71.4158H59.1222L55.1353 57.596C55.0953 57.3677 55.0151 57.079 54.8949 56.7298C54.334 54.9167 53.9667 53.3588 53.793 52.056C53.6862 53.5334 53.586 54.6346 53.4925 55.3599C53.4524 55.7359 53.3923 56.2866 53.3122 57.0118C53.2321 57.7371 53.1719 58.2877 53.1319 58.6637L51.4089 71.4158H43.976L48.5039 41.9228H56.4176L60.8452 57.1327C60.9254 57.4147 60.9788 57.596 61.0055 57.6766C61.3928 58.9391 61.6533 60.0941 61.7868 61.1416C61.8136 60.779 61.9137 60.1881 62.0874 59.3688C62.1408 59.1674 62.3411 58.4086 62.6884 57.0924L67.1561 41.9228H75.0899L79.5976 71.4158Z" fill="white"/>
<path d="M83.9051 71.4158V41.9228H101.876V48.3895H91.6986V53.5065H101.295V59.8322H91.6986V64.8081H101.876V71.4158H83.9051Z" fill="white"/>
<path d="M106.965 41.9228H114.979V56.2664C114.979 58.4556 115.032 59.9732 115.139 60.8193C115.273 61.8266 115.453 62.5921 115.68 63.1159C115.961 63.8814 116.488 64.4455 117.263 64.8081C118.037 65.2245 118.972 65.4326 120.068 65.4326C121.149 65.4326 122.078 65.2245 122.852 64.8081C123.56 64.4589 124.095 63.8949 124.455 63.1159C124.669 62.5787 124.843 61.8132 124.976 60.8193C125.096 60.0135 125.156 58.4959 125.156 56.2664V41.9228H133.11V57.5154C133.11 60.7119 132.917 63.089 132.529 64.647C132.169 66.1914 131.514 67.5143 130.566 68.6156C129.524 69.8378 128.142 70.7309 126.419 71.295C124.709 71.8993 122.592 72.2015 120.068 72.2015C117.49 72.2015 115.366 71.8993 113.697 71.295C112 70.7309 110.618 69.8378 109.549 68.6156C108.628 67.5412 107.973 66.2183 107.586 64.647C107.172 63.0622 106.965 60.685 106.965 57.5154V41.9228Z" fill="white"/>
<path d="M139.201 71.4158V41.9228H147.195V53.3856H157.853V41.9228H165.867V71.4158H157.853V59.4091H147.195V71.4158H139.201Z" fill="white"/>
</svg>
