<svg width="275" height="50" viewBox="0 0 275 50" fill="none" xmlns="http://www.w3.org/2000/svg">
<g clip-path="url(#clip0_38_152)">
<path d="M266.53 31.58L261.84 25.63L261.38 18.63L254.97 17.71L251.58 9.58004L261.88 2.98C258.232 1.00607 254.148 -0.0251503 250 -0.0200003H182.85L188.38 6.42L187.47 15.42L177.28 20.71L169.51 11.06L168.25 0.0600168H88.06V2.76003L84.99 11.18L74.91 10.93L71.08 18.93L64.44 15.04L54.99 7.13002L62.39 0.130024H25C18.3696 0.130024 12.0107 2.76394 7.32233 7.45235C2.63392 12.1408 0 18.4996 0 25.13C0 31.7604 2.63392 38.1193 7.32233 42.8077C12.0107 47.4961 18.3696 50.13 25 50.13H86.22L93.95 42.36L103.4 38.47L107.24 41.56L116.98 42.15L116.17 49.34L115.91 50.13H250C256.069 50.1302 261.932 47.9225 266.493 43.9186C271.054 39.9147 274.003 34.3882 274.79 28.37L271.79 32.63L266.53 31.58ZM37.93 6.81002L42.14 5.27999L43.78 9.04L38.37 12.81L36.37 9.94002L37.93 6.81002ZM9.06 10.05L16.39 4.40999L21.82 5.12001L23.46 11.26L15.11 18.26L9.82001 15.98L9.06 10.05ZM43.78 38.81L28.7 47.21H19.02L13.84 31.62L24.94 20.43H46.74L43.78 38.81ZM61.26 25.18L66.93 24.09L66.45 31.63L60.67 35.3L58.67 30.37L61.26 25.18ZM70.48 45.69C70.1 46.59 65.63 47.59 65.63 47.59L60.4 45.31L65.63 40.05H70.48C70.48 40.05 70.87 44.81 70.48 45.68V45.69ZM99.25 28.16L91.08 35.99L80.08 31.99L78.87 22.67L86.87 16.67L102.96 14.03C102.96 14.03 107.29 19.27 107.16 20.16C107.03 21.05 99.25 28.15 99.25 28.15V28.16ZM239.25 6.76003L243.46 9.05001L239.25 11.35L237.46 9.44002L239.25 6.76003ZM113.38 9.81002L108.96 4.58004L113.58 1.93001L119.07 3.79L120.92 9.26003L113.38 9.81002ZM144.22 47.11L138.47 47.88L134.39 43.79L140.9 39.96L147.19 42.69L144.22 47.11ZM153.93 6.71004L152.14 4.79L153.93 2.11L158.14 4.40999L153.93 6.71004ZM170.74 46.71L163.31 44.1L160.6 35.4L166.6 32.78L175.93 38.59L179.71 47.25L170.74 46.71ZM198.66 41.6L185.98 40.32L184.98 34.02L184.35 25.68L194.25 20.68L203.44 27.47L204.98 33.47L198.66 41.6ZM208.12 48.67L206.12 45.79L207.65 42.67L211.86 41.13L213.5 44.9L208.12 48.67ZM208.48 15.08L205.84 7.08004L211.12 4.77999L217.76 1.27999L223.63 4.77999C223.63 4.77999 222.87 12.83 222.63 12.91C222.39 12.99 215.14 16.67 215.14 16.67L208.48 15.08ZM257.88 43.64L252.35 46.96L249.03 48.67L247.41 41.18L252.35 39.18H259.07L257.88 43.64ZM259.99 30.01L227.17 43.09L216.17 29.61L227.17 16.22L259.99 29.22C260.083 29.2407 260.167 29.2927 260.227 29.3672C260.286 29.4417 260.319 29.5345 260.319 29.63C260.319 29.7256 260.286 29.8183 260.227 29.8928C260.167 29.9674 260.083 30.0193 259.99 30.04V30.01Z" fill="white"/>
<path d="M13.8301 31.61L19.0101 47.2H28.7001L43.7701 38.8L46.7301 20.42H24.9401L13.8301 31.61Z" fill="black"/>
<path d="M23.5001 11.26L21.8601 5.12003L16.4301 4.41003L9.1001 10.05L9.8501 16L15.1401 18.27L23.5001 11.26Z" fill="black"/>
<path d="M259.99 29.29L227.17 16.29L216.17 29.68L227.17 43.16L259.99 30.08C260.071 30.0507 260.141 29.997 260.191 29.9263C260.241 29.8556 260.267 29.7714 260.267 29.685C260.267 29.5987 260.241 29.5144 260.191 29.4437C260.141 29.373 260.071 29.3194 259.99 29.29Z" fill="#090808"/>
<path d="M207.66 42.7L206.13 45.82L208.11 48.7L213.52 44.93L211.88 41.16L207.66 42.7Z" fill="#090808"/>
<path d="M43.8099 9.04003L42.1799 5.28003L37.9599 6.81003L36.4299 9.94003L38.4099 12.81L43.8099 9.04003Z" fill="#090808"/>
<path d="M275 25C275.001 20.4906 273.781 16.065 271.472 12.192C269.162 8.31903 265.848 5.14287 261.88 3L251.58 9.59998L254.97 17.73L261.38 18.65L261.84 25.65L266.53 31.6L271.8 32.52L274.8 28.26C274.941 27.1858 275.011 26.1034 275.01 25.02L275 25Z" fill="#090808"/>
<path d="M247.41 41.2L249.03 48.7L252.35 46.99L257.88 43.67L259.07 39.16H252.35L247.41 41.2Z" fill="#090808"/>
<path d="M243.41 9.04L239.2 6.75L237.41 9.43L239.2 11.34L243.41 9.04Z" fill="#090808"/>
<path d="M152.14 4.78999L153.93 6.69999L158.14 4.40999L153.93 2.10999L152.14 4.78999Z" fill="#090808"/>
<path d="M166.6 32.8L160.6 35.42L163.31 44.1301L170.74 46.7401L179.7 47.28L175.92 38.62L166.6 32.8Z" fill="#090808"/>
<path d="M223.63 4.81006L217.76 1.31006L211.12 4.81006L205.84 7.11005L208.48 15.11L215.12 16.7401C215.12 16.7401 222.36 13.0701 222.61 12.9801C222.86 12.8901 223.63 4.81006 223.63 4.81006Z" fill="#090808"/>
<path d="M194.23 20.6899L184.33 25.7099L184.95 34.0499L185.97 40.3499L198.65 41.6199L204.95 33.4499L203.42 27.4799L194.23 20.6899Z" fill="#090808"/>
<path d="M64.44 14.95L71.07 18.84L74.9 10.87L84.99 11.12L88.05 2.69V0H62.39L54.99 7.04L64.44 14.95Z" fill="#090808"/>
<path d="M86.8701 16.66L78.8701 22.66L80.0801 31.98L91.0801 35.98L99.2501 28.15C99.2501 28.15 107.04 21.04 107.16 20.15C107.28 19.26 102.96 14.02 102.96 14.02L86.8701 16.66Z" fill="#090808"/>
<path d="M65.6299 40.04L60.3999 45.3L65.6299 47.58C65.6299 47.58 70.0999 46.58 70.4799 45.68C70.8599 44.78 70.4799 40.04 70.4799 40.04H65.6299Z" fill="#090808"/>
<path d="M116.97 42.02L107.24 41.43L103.39 38.34L93.95 42.23L86.22 50H115.91L116.16 49.21L116.97 42.02Z" fill="#090808"/>
<path d="M134.38 43.8L138.47 47.89L144.22 47.12L147.18 42.7L140.9 39.97L134.38 43.8Z" fill="#090808"/>
<path d="M113.57 1.93994L108.95 4.58994L113.38 9.81994L120.91 9.26994L119.06 3.79994L113.57 1.93994Z" fill="#090808"/>
<path d="M66.4399 31.62L66.9299 24.08L61.2499 25.17L58.6599 30.35L60.6599 35.29L66.4399 31.62Z" fill="#090808"/>
<path d="M177.28 20.69L187.47 15.39L188.38 6.44L182.85 0H168.24L169.51 11.03L177.28 20.69Z" fill="#090808"/>
<path d="M117.948 18.0909H120.793L123.797 25.4205H123.925L126.929 18.0909H129.773V29H127.536V21.8995H127.446L124.623 28.9467H123.099L120.276 21.8729H120.185V29H117.948V18.0909ZM135.36 29.1598C134.518 29.1598 133.794 28.9893 133.187 28.6484C132.583 28.304 132.118 27.8175 131.791 27.1889C131.464 26.5568 131.301 25.8093 131.301 24.9464C131.301 24.1048 131.464 23.3661 131.791 22.7305C132.118 22.0948 132.578 21.5994 133.171 21.2443C133.767 20.8892 134.467 20.7116 135.269 20.7116C135.809 20.7116 136.312 20.7987 136.777 20.9727C137.245 21.1431 137.654 21.4006 138.002 21.745C138.353 22.0895 138.627 22.5227 138.822 23.0447C139.017 23.5632 139.115 24.1705 139.115 24.8665V25.4897H132.206V24.0835H136.979C136.979 23.7567 136.908 23.4673 136.766 23.2152C136.624 22.9631 136.427 22.766 136.175 22.6239C135.926 22.4783 135.637 22.4055 135.307 22.4055C134.962 22.4055 134.657 22.4854 134.39 22.6452C134.128 22.8015 133.922 23.0128 133.772 23.2791C133.623 23.5419 133.547 23.8349 133.543 24.158V25.495C133.543 25.8999 133.618 26.2496 133.767 26.5444C133.92 26.8391 134.135 27.0664 134.412 27.2262C134.689 27.386 135.017 27.4659 135.397 27.4659C135.649 27.4659 135.88 27.4304 136.09 27.3594C136.299 27.2884 136.478 27.1818 136.628 27.0398C136.777 26.8977 136.89 26.7237 136.968 26.5178L139.067 26.6562C138.961 27.1605 138.742 27.6009 138.412 27.9773C138.085 28.3501 137.663 28.6413 137.144 28.8509C136.629 29.0568 136.035 29.1598 135.36 29.1598ZM145.843 25.5163V20.8182H148.112V29H145.933V27.5138H145.848C145.663 27.9933 145.356 28.3786 144.927 28.6697C144.5 28.9609 143.98 29.1065 143.366 29.1065C142.819 29.1065 142.338 28.9822 141.922 28.7337C141.507 28.4851 141.182 28.1317 140.948 27.6737C140.717 27.2156 140.6 26.6669 140.596 26.0277V20.8182H142.865V25.6229C142.869 26.1058 142.998 26.4876 143.254 26.7681C143.51 27.0487 143.852 27.1889 144.282 27.1889C144.555 27.1889 144.811 27.1268 145.049 27.0025C145.287 26.8746 145.479 26.6864 145.624 26.4379C145.774 26.1893 145.846 25.8821 145.843 25.5163ZM152.196 24.2699V29H149.927V18.0909H152.132V22.2617H152.228C152.413 21.7788 152.711 21.4006 153.123 21.1271C153.535 20.8501 154.052 20.7116 154.673 20.7116C155.241 20.7116 155.737 20.8359 156.159 21.0845C156.585 21.3295 156.916 21.6829 157.15 22.1445C157.388 22.6026 157.505 23.1513 157.502 23.7905V29H155.232V24.1953C155.236 23.6911 155.108 23.2987 154.849 23.0181C154.593 22.7376 154.235 22.5973 153.773 22.5973C153.464 22.5973 153.191 22.663 152.953 22.7944C152.718 22.9258 152.534 23.1175 152.399 23.3697C152.267 23.6183 152.2 23.9183 152.196 24.2699Z" fill="black"/>
</g>
<defs>
<clipPath id="clip0_38_152">
<rect width="275" height="50" fill="white"/>
</clipPath>
</defs>
</svg>
