<svg width="275" height="50" viewBox="0 0 275 50" fill="none" xmlns="http://www.w3.org/2000/svg">
<g clip-path="url(#clip0_38_152)">
<g clip-path="url(#clip1_38_152)">
<path d="M266.53 31.9701L261.84 25.9701L261.38 18.9701L254.97 18.0601L251.58 9.93007L261.88 3.33004C258.232 1.35611 254.148 0.324886 250 0.330036H218.42L223.63 3.44002C223.63 3.44002 222.86 11.44 222.63 11.57C222.4 11.7 215.14 15.33 215.14 15.33L208.48 13.78L205.84 5.78005L211.12 3.48006L217.01 0.370075H192.22L192.33 0.49007L191.41 9.49007L181.22 14.78L173.45 5.13002L172.96 0.390034H88.05V3.08004L84.96 11.51L74.87 11.25L71.04 19.25L64.41 15.3601L54.96 7.42006L62.36 0.420063H24.96C21.6769 0.420063 18.426 1.06671 15.3929 2.32308C12.3597 3.57945 9.60375 5.42093 7.28229 7.74239C4.96082 10.0639 3.11934 12.8198 1.86298 15.853C0.606609 18.8861 -0.0400391 22.137 -0.0400391 25.4201C-0.0400391 32.0505 2.59388 38.4093 7.28229 43.0977C11.9707 47.7861 18.3295 50.4201 24.96 50.4201H86.22L93.96 42.6201L103.4 38.78L107.24 41.78L116.97 42.3701L116.16 49.5601L115.91 50.3501H249.96C256.029 50.3475 261.89 48.1372 266.45 44.1315C271.009 40.1259 273.956 34.5983 274.74 28.58L271.74 32.84L266.53 31.9701ZM37.96 7.20003L42.18 5.67006L43.81 9.43007L38.41 13.2L36.41 10.33L37.96 7.20003ZM9.09996 10.44L16.42 4.80007L21.86 5.51003L23.5 11.65L15.14 18.65L9.84996 16.38L9.09996 10.44ZM43.78 39.19L28.7 47.59H19.01L13.83 32L24.96 20.78H46.75L43.78 39.19ZM54.13 39.8001L52.13 34.8701L54.72 29.6801L60.39 28.59L59.91 36.13L54.13 39.8001ZM70.48 46.07C70.1 46.96 65.63 47.96 65.63 47.96L60.39 45.69L65.63 40.4301H70.48C70.48 40.4301 70.86 45.18 70.48 46.07ZM113.38 10.21L108.96 4.98006L113.58 2.33004L119.07 4.19002L120.96 9.66005L113.38 10.21ZM144.22 47.51L138.47 48.28L134.39 44.19L140.9 40.3601L147.18 43.08L144.22 47.51ZM153.96 7.09005L152.17 5.18007L153.96 2.50002L158.17 4.80007L153.96 7.09005ZM170.77 47.09L163.34 44.4801L160.6 35.78L166.6 33.1601L175.96 39.01L179.74 47.6701L170.77 47.09ZM208.14 49.0401L206.14 46.1701L207.67 43.0401L211.89 41.51L213.53 45.28L208.14 49.0401ZM239.23 7.09005L243.44 9.39003L239.23 11.69L237.41 9.78005L239.23 7.09005ZM257.91 44.02L252.38 47.34L249.06 49.0401L247.44 41.5501L252.38 39.5501H259.1L257.91 44.02ZM260.01 30.39L227.2 43.4701L216.2 29.9901L227.2 16.6001L260.01 29.6001C260.109 29.6204 260.197 29.6757 260.259 29.7559C260.32 29.8361 260.351 29.9358 260.345 30.0367C260.339 30.1376 260.296 30.2329 260.226 30.3052C260.155 30.3774 260.061 30.4218 259.96 30.4301L260.01 30.39Z" fill="white"/>
<path d="M13.8301 32.0001L19.0101 47.5901H28.7001L43.7701 39.1901L46.7301 20.8101H24.9401L13.8301 32.0001Z" fill="black"/>
<path d="M23.5001 11.66L21.8601 5.51005L16.4301 4.80005L9.1001 10.45L9.8501 16.4L15.1401 18.67L23.5001 11.66Z" fill="black"/>
<path d="M259.96 29.6801L227.15 16.6801L216.15 30.07L227.15 43.55L259.96 30.4301C260.029 30.395 260.088 30.3414 260.128 30.2752C260.169 30.209 260.191 30.1328 260.191 30.0551C260.191 29.9773 260.169 29.901 260.128 29.8348C260.088 29.7686 260.029 29.7151 259.96 29.6801Z" fill="#010101"/>
<path d="M207.66 43.0901L206.13 46.2201L208.11 49.0901L213.52 45.3201L211.88 41.5601L207.66 43.0901Z" fill="#010101"/>
<path d="M43.8099 9.44004L42.1799 5.67004L37.9599 7.20004L36.4299 10.33L38.4099 13.2L43.8099 9.44004Z" fill="#010101"/>
<path d="M274.96 25.39C274.961 20.8806 273.741 16.455 271.432 12.582C269.122 8.70905 265.808 5.53289 261.84 3.39001L251.54 9.99005L254.93 18.1201L261.34 19.03L261.8 26.03L266.49 32.03L271.75 32.94L274.75 28.6801C274.894 27.6094 274.968 26.5303 274.97 25.45L274.96 25.39Z" fill="#010101"/>
<path d="M247.41 41.6001L249.03 49.0901L252.35 47.3901L257.88 44.0701L259.07 39.5601H252.35L247.41 41.6001Z" fill="#010101"/>
<path d="M243.41 9.44001L239.2 7.14001L237.41 9.82001L239.2 11.73L243.41 9.44001Z" fill="#010101"/>
<path d="M152.14 5.18L153.93 7.1L158.14 4.8L153.93 2.5L152.14 5.18Z" fill="#010101"/>
<path d="M166.6 33.2L160.6 35.82L163.31 44.52L170.74 47.13L179.7 47.6699L175.92 39.02L166.6 33.2Z" fill="#010101"/>
<path d="M217.75 0L217.01 0.39H218.41L217.75 0Z" fill="#010101"/>
<path d="M205.84 5.78003L208.48 13.78L215.12 15.41C215.12 15.41 222.35 11.73 222.61 11.65C222.87 11.57 223.61 3.52002 223.61 3.52002L218.4 0.410034H216.99L211.1 3.52002L205.84 5.78003Z" fill="#010101"/>
<path d="M64.44 15.34L71.07 19.23L74.9 11.26L84.99 11.51L88.05 3.09001V0.390015H62.39L54.99 7.43001L64.44 15.34Z" fill="#010101"/>
<path d="M65.6299 40.4301L60.3899 45.69L65.6299 47.96C65.6299 47.96 70.0999 46.96 70.4799 46.07C70.8599 45.18 70.4799 40.4301 70.4799 40.4301H65.6299Z" fill="#010101"/>
<path d="M116.97 42.41L107.24 41.82L103.39 38.73L93.95 42.62L86.22 50.39H115.91L116.16 49.61L116.97 42.41Z" fill="#010101"/>
<path d="M134.38 44.2L138.47 48.28L144.22 47.51L147.18 43.09L140.9 40.37L134.38 44.2Z" fill="#010101"/>
<path d="M113.57 2.33002L108.95 4.99002L113.38 10.21L120.91 9.66002L119.06 4.19002L113.57 2.33002Z" fill="#010101"/>
<path d="M54.7199 29.68L52.1299 34.87L54.1299 39.81L59.9099 36.13L60.3899 28.6L54.7199 29.68Z" fill="#010101"/>
<path d="M181.22 14.77L191.41 9.47001L192.33 0.510015L192.22 0.390015H172.91L173.45 5.11001L181.22 14.77Z" fill="#010101"/>
</g>
<path d="M101.574 21.9102H99.2404C99.1978 21.6083 99.1108 21.3402 98.9794 21.1058C98.848 20.8679 98.6793 20.6655 98.4734 20.4986C98.2674 20.3317 98.0295 20.2038 97.7596 20.1151C97.4933 20.0263 97.2038 19.9819 96.8913 19.9819C96.3267 19.9819 95.8349 20.1222 95.4158 20.4027C94.9968 20.6797 94.6719 21.0845 94.4411 21.6172C94.2102 22.1463 94.0948 22.7891 94.0948 23.5455C94.0948 24.3232 94.2102 24.9766 94.4411 25.5057C94.6754 26.0348 95.0021 26.4343 95.4212 26.7042C95.8402 26.9741 96.3249 27.109 96.8754 27.109C97.1843 27.109 97.4702 27.0682 97.733 26.9865C97.9993 26.9048 98.2354 26.7859 98.4414 26.6296C98.6474 26.4698 98.8178 26.2763 98.9528 26.049C99.0913 25.8217 99.1871 25.5625 99.2404 25.2713L101.574 25.282C101.513 25.7827 101.362 26.2656 101.121 26.7308C100.883 27.1925 100.561 27.6062 100.157 27.9719C99.7553 28.3342 99.2759 28.6218 98.7184 28.8349C98.1644 29.0444 97.5376 29.1491 96.8381 29.1491C95.8651 29.1491 94.995 28.929 94.228 28.4886C93.4645 28.0483 92.8608 27.4109 92.4169 26.5763C91.9766 25.7418 91.7564 24.7315 91.7564 23.5455C91.7564 22.3558 91.9801 21.3438 92.4276 20.5092C92.875 19.6747 93.4822 19.0391 94.2493 18.6023C95.0163 18.1619 95.8793 17.9418 96.8381 17.9418C97.4702 17.9418 98.0561 18.0305 98.5959 18.2081C99.1392 18.3857 99.6204 18.6449 100.039 18.9858C100.458 19.3232 100.799 19.7369 101.062 20.2269C101.328 20.717 101.499 21.2781 101.574 21.9102ZM106.882 29.1598C106.054 29.1598 105.339 28.984 104.735 28.6325C104.135 28.2773 103.671 27.7837 103.345 27.1516C103.018 26.516 102.855 25.7791 102.855 24.9411C102.855 24.0959 103.018 23.3572 103.345 22.7251C103.671 22.0895 104.135 21.5959 104.735 21.2443C105.339 20.8892 106.054 20.7116 106.882 20.7116C107.709 20.7116 108.423 20.8892 109.023 21.2443C109.627 21.5959 110.092 22.0895 110.419 22.7251C110.745 23.3572 110.909 24.0959 110.909 24.9411C110.909 25.7791 110.745 26.516 110.419 27.1516C110.092 27.7837 109.627 28.2773 109.023 28.6325C108.423 28.984 107.709 29.1598 106.882 29.1598ZM106.892 27.402C107.269 27.402 107.583 27.2955 107.835 27.0824C108.087 26.8658 108.277 26.571 108.405 26.1982C108.536 25.8253 108.602 25.4009 108.602 24.9251C108.602 24.4492 108.536 24.0249 108.405 23.652C108.277 23.2791 108.087 22.9844 107.835 22.7678C107.583 22.5511 107.269 22.4428 106.892 22.4428C106.512 22.4428 106.193 22.5511 105.933 22.7678C105.678 22.9844 105.484 23.2791 105.353 23.652C105.225 24.0249 105.161 24.4492 105.161 24.9251C105.161 25.4009 105.225 25.8253 105.353 26.1982C105.484 26.571 105.678 26.8658 105.933 27.0824C106.193 27.2955 106.512 27.402 106.892 27.402ZM112.384 29V20.8182H114.547V22.2617H114.643C114.813 21.7823 115.097 21.4041 115.495 21.1271C115.893 20.8501 116.368 20.7116 116.922 20.7116C117.483 20.7116 117.961 20.8519 118.355 21.1325C118.749 21.4094 119.012 21.7859 119.144 22.2617H119.229C119.396 21.793 119.698 21.4183 120.134 21.1378C120.575 20.8537 121.095 20.7116 121.695 20.7116C122.459 20.7116 123.078 20.9549 123.554 21.4414C124.034 21.9244 124.273 22.6097 124.273 23.4975V29H122.009V23.945C122.009 23.4904 121.889 23.1495 121.647 22.9222C121.406 22.695 121.104 22.5813 120.742 22.5813C120.33 22.5813 120.008 22.7127 119.778 22.9755C119.547 23.2347 119.431 23.5774 119.431 24.0036V29H117.231V23.897C117.231 23.4957 117.116 23.1761 116.885 22.9382C116.658 22.7003 116.358 22.5813 115.985 22.5813C115.733 22.5813 115.506 22.6452 115.303 22.7731C115.104 22.8974 114.946 23.0732 114.829 23.3004C114.712 23.5241 114.653 23.7869 114.653 24.0888V29H112.384ZM126.066 29V20.8182H128.228V22.2617H128.324C128.495 21.7823 128.779 21.4041 129.176 21.1271C129.574 20.8501 130.05 20.7116 130.604 20.7116C131.165 20.7116 131.643 20.8519 132.037 21.1325C132.431 21.4094 132.694 21.7859 132.825 22.2617H132.911C133.077 21.793 133.379 21.4183 133.816 21.1378C134.256 20.8537 134.777 20.7116 135.377 20.7116C136.14 20.7116 136.76 20.9549 137.236 21.4414C137.715 21.9244 137.955 22.6097 137.955 23.4975V29H135.691V23.945C135.691 23.4904 135.57 23.1495 135.329 22.9222C135.087 22.695 134.786 22.5813 134.423 22.5813C134.011 22.5813 133.69 22.7127 133.459 22.9755C133.228 23.2347 133.113 23.5774 133.113 24.0036V29H130.913V23.897C130.913 23.4957 130.798 23.1761 130.567 22.9382C130.339 22.7003 130.039 22.5813 129.667 22.5813C129.414 22.5813 129.187 22.6452 128.985 22.7731C128.786 22.8974 128.628 23.0732 128.511 23.3004C128.393 23.5241 128.335 23.7869 128.335 24.0888V29H126.066ZM143.476 29.1598C142.634 29.1598 141.91 28.9893 141.303 28.6484C140.699 28.304 140.234 27.8175 139.907 27.1889C139.58 26.5568 139.417 25.8093 139.417 24.9464C139.417 24.1048 139.58 23.3661 139.907 22.7305C140.234 22.0948 140.694 21.5994 141.287 21.2443C141.883 20.8892 142.583 20.7116 143.385 20.7116C143.925 20.7116 144.428 20.7987 144.893 20.9727C145.362 21.1431 145.77 21.4006 146.118 21.745C146.47 22.0895 146.743 22.5227 146.938 23.0447C147.134 23.5632 147.231 24.1705 147.231 24.8665V25.4897H140.323V24.0835H145.095C145.095 23.7567 145.024 23.4673 144.882 23.2152C144.74 22.9631 144.543 22.766 144.291 22.6239C144.042 22.4783 143.753 22.4055 143.423 22.4055C143.078 22.4055 142.773 22.4854 142.507 22.6452C142.244 22.8015 142.038 23.0128 141.889 23.2791C141.74 23.5419 141.663 23.8349 141.66 24.158V25.495C141.66 25.8999 141.734 26.2496 141.883 26.5444C142.036 26.8391 142.251 27.0664 142.528 27.2262C142.805 27.386 143.133 27.4659 143.513 27.4659C143.765 27.4659 143.996 27.4304 144.206 27.3594C144.415 27.2884 144.595 27.1818 144.744 27.0398C144.893 26.8977 145.007 26.7237 145.085 26.5178L147.183 26.6562C147.077 27.1605 146.858 27.6009 146.528 27.9773C146.202 28.3501 145.779 28.6413 145.26 28.8509C144.746 29.0568 144.151 29.1598 143.476 29.1598ZM150.981 24.2699V29H148.712V20.8182H150.875V22.2617H150.971C151.152 21.7859 151.455 21.4094 151.882 21.1325C152.308 20.8519 152.824 20.7116 153.432 20.7116C154 20.7116 154.495 20.8359 154.918 21.0845C155.34 21.3331 155.669 21.6882 155.903 22.1499C156.138 22.608 156.255 23.1548 156.255 23.7905V29H153.986V24.1953C153.989 23.6946 153.861 23.304 153.602 23.0234C153.343 22.7393 152.986 22.5973 152.531 22.5973C152.226 22.5973 151.956 22.663 151.722 22.7944C151.491 22.9258 151.31 23.1175 151.178 23.3697C151.051 23.6183 150.985 23.9183 150.981 24.2699ZM161.74 29.1598C160.902 29.1598 160.181 28.9822 159.577 28.6271C158.977 28.2685 158.516 27.7713 158.192 27.1357C157.873 26.5 157.713 25.7685 157.713 24.9411C157.713 24.103 157.875 23.3679 158.198 22.7358C158.524 22.1001 158.988 21.6048 159.588 21.2496C160.188 20.891 160.902 20.7116 161.729 20.7116C162.443 20.7116 163.068 20.8413 163.604 21.1005C164.141 21.3597 164.565 21.7237 164.877 22.1925C165.19 22.6612 165.362 23.2116 165.394 23.8438H163.253C163.192 23.4354 163.033 23.1069 162.773 22.8583C162.518 22.6062 162.182 22.4801 161.767 22.4801C161.415 22.4801 161.108 22.576 160.845 22.7678C160.586 22.956 160.383 23.2312 160.238 23.5934C160.092 23.9556 160.019 24.3942 160.019 24.9091C160.019 25.4311 160.09 25.875 160.233 26.2408C160.378 26.6065 160.582 26.8853 160.845 27.0771C161.108 27.2688 161.415 27.3647 161.767 27.3647C162.026 27.3647 162.258 27.3114 162.464 27.2049C162.674 27.0984 162.846 26.9439 162.981 26.7415C163.12 26.5355 163.21 26.2887 163.253 26.0011H165.394C165.359 26.6261 165.188 27.1765 164.883 27.6523C164.581 28.1246 164.164 28.494 163.631 28.7603C163.098 29.0266 162.468 29.1598 161.74 29.1598ZM170.576 29.1598C169.734 29.1598 169.01 28.9893 168.402 28.6484C167.799 28.304 167.333 27.8175 167.007 27.1889C166.68 26.5568 166.517 25.8093 166.517 24.9464C166.517 24.1048 166.68 23.3661 167.007 22.7305C167.333 22.0948 167.793 21.5994 168.386 21.2443C168.983 20.8892 169.683 20.7116 170.485 20.7116C171.025 20.7116 171.527 20.7987 171.993 20.9727C172.461 21.1431 172.87 21.4006 173.218 21.745C173.569 22.0895 173.843 22.5227 174.038 23.0447C174.233 23.5632 174.331 24.1705 174.331 24.8665V25.4897H167.422V24.0835H172.195C172.195 23.7567 172.124 23.4673 171.982 23.2152C171.84 22.9631 171.643 22.766 171.391 22.6239C171.142 22.4783 170.853 22.4055 170.522 22.4055C170.178 22.4055 169.873 22.4854 169.606 22.6452C169.343 22.8015 169.137 23.0128 168.988 23.2791C168.839 23.5419 168.763 23.8349 168.759 24.158V25.495C168.759 25.8999 168.834 26.2496 168.983 26.5444C169.136 26.8391 169.35 27.0664 169.627 27.2262C169.904 27.386 170.233 27.4659 170.613 27.4659C170.865 27.4659 171.096 27.4304 171.305 27.3594C171.515 27.2884 171.694 27.1818 171.843 27.0398C171.993 26.8977 172.106 26.7237 172.184 26.5178L174.283 26.6562C174.176 27.1605 173.958 27.6009 173.628 27.9773C173.301 28.3501 172.879 28.6413 172.36 28.8509C171.845 29.0568 171.25 29.1598 170.576 29.1598ZM175.812 29V20.8182H178.012V22.2457H178.097C178.246 21.7379 178.496 21.3544 178.848 21.0952C179.2 20.8324 179.604 20.701 180.062 20.701C180.176 20.701 180.299 20.7081 180.43 20.7223C180.561 20.7365 180.677 20.756 180.776 20.7809V22.7944C180.67 22.7624 180.522 22.734 180.334 22.7092C180.146 22.6843 179.974 22.6719 179.817 22.6719C179.484 22.6719 179.185 22.7447 178.923 22.8903C178.663 23.0323 178.457 23.2312 178.305 23.4869C178.156 23.7425 178.081 24.0373 178.081 24.3711V29H175.812Z" fill="black"/>
</g>
<defs>
<clipPath id="clip0_38_152">
<rect width="275" height="50" fill="white"/>
</clipPath>
<clipPath id="clip1_38_152">
<rect width="275" height="50.39" fill="white"/>
</clipPath>
</defs>
</svg>
