<?xml version="1.0" standalone="no"?>
<!DOCTYPE svg PUBLIC "-//W3C//DTD SVG 20010904//EN"
 "http://www.w3.org/TR/2001/REC-SVG-20010904/DTD/svg10.dtd">
<svg version="1.0" xmlns="http://www.w3.org/2000/svg"
 width="988.000000pt" height="683.000000pt" viewBox="0 0 988.000000 683.000000"
 preserveAspectRatio="xMidYMid meet">
<metadata>
Created by potrace 1.16, written by Peter Selinger 2001-2019
</metadata>
<g transform="translate(0.000000,683.000000) scale(0.100000,-0.100000)"
fill="#000000" stroke="none">
<path d="M3603 5253 c-13 -2 -23 -11 -23 -19 0 -10 -10 -14 -32 -13 -54 3
-189 -51 -218 -86 -13 -16 -9 -16 45 -12 57 5 70 8 113 24 9 3 22 7 29 9 6 1
27 7 45 12 37 12 226 32 302 32 62 0 52 12 -29 35 -59 17 -189 27 -232 18z"/>
<path d="M3635 5149 c-79 -10 -176 -41 -214 -68 -14 -10 -55 -32 -91 -48 -36
-17 -73 -40 -84 -51 -47 -53 -71 -357 -41 -504 24 -113 94 -292 145 -373 11
-16 25 -41 30 -55 6 -13 22 -46 35 -71 13 -26 21 -50 18 -52 -9 -9 -51 15 -57
32 -8 25 -66 124 -82 141 -22 23 3 -53 60 -180 77 -173 64 -159 135 -146 19 4
53 8 77 10 23 2 46 6 50 9 7 4 103 21 174 31 8 2 29 6 45 9 17 4 44 9 60 11
36 5 118 19 125 21 3 1 12 4 20 8 8 3 38 8 65 11 28 3 93 12 145 21 52 8 124
20 160 25 79 13 191 35 245 49 50 12 90 20 138 28 36 5 38 8 32 34 -8 37 -63
178 -79 204 -7 11 -20 43 -30 70 -11 28 -24 57 -30 65 -7 8 -21 32 -31 53 -11
21 -32 52 -47 70 -16 17 -28 35 -28 39 0 4 -7 14 -16 22 -8 9 -44 53 -79 98
-35 46 -69 90 -77 98 -28 33 -64 78 -78 100 -51 78 -213 213 -313 263 -58 29
-70 31 -187 32 -69 2 -156 -2 -195 -6z"/>
<path d="M4840 3983 c-25 -7 -61 -14 -80 -16 -19 -2 -40 -6 -46 -9 -14 -9 -54
-17 -144 -29 -41 -6 -99 -17 -128 -25 -28 -9 -71 -17 -95 -20 -23 -2 -79 -11
-125 -19 -58 -11 -88 -13 -101 -5 -26 14 -31 13 -25 -5 5 -12 -2 -15 -33 -15
-22 0 -62 -7 -89 -15 -27 -8 -57 -12 -67 -9 -10 3 -33 -1 -50 -9 -18 -9 -54
-18 -82 -22 -27 -4 -61 -9 -75 -12 -14 -2 -50 -9 -80 -14 -84 -13 -160 -32
-165 -39 -3 -4 8 -25 23 -46 16 -22 31 -47 35 -57 5 -13 16 -17 52 -15 29 2
44 7 41 15 -3 6 6 14 19 17 13 3 30 9 39 12 11 4 16 1 16 -11 0 -16 2 -16 25
-1 14 9 58 28 98 41 118 40 148 29 37 -14 -50 -19 -52 -20 -15 -14 22 4 50 7
62 6 14 0 20 3 16 10 -3 5 -2 7 3 4 6 -3 30 -1 55 5 24 6 53 12 64 14 11 2 38
8 60 13 22 5 60 12 84 16 24 4 54 13 67 22 17 11 24 12 24 3 0 -12 32 -10 115
5 77 14 93 19 133 41 23 13 52 24 64 24 20 0 20 -1 4 -19 -16 -18 -16 -18 31
-9 26 6 57 12 68 13 11 1 27 5 35 8 8 3 56 13 105 22 50 10 95 22 102 27 16
13 -5 131 -25 141 -4 2 -27 -2 -52 -10z"/>
<path d="M4853 3793 c-18 -7 -33 -10 -33 -5 0 14 -48 6 -65 -11 -9 -9 -26 -17
-38 -18 -12 0 -31 -3 -42 -5 -11 -3 -33 -7 -50 -8 -16 -2 -39 -6 -50 -10 -12
-3 -52 -10 -90 -15 -39 -5 -113 -17 -165 -26 -52 -8 -133 -22 -180 -30 -135
-22 -140 -23 -235 -44 -49 -10 -137 -29 -195 -41 -58 -12 -108 -25 -112 -29
-4 -3 4 -29 17 -55 14 -27 25 -55 25 -61 0 -7 11 -33 25 -59 14 -26 25 -54 25
-62 0 -7 5 -14 10 -14 6 0 10 -8 10 -17 0 -9 8 -25 17 -35 9 -10 18 -38 19
-61 0 -23 2 -44 3 -46 0 -3 13 6 27 20 36 34 120 52 156 33 38 -20 42 -31 10
-31 -72 0 -82 -4 -132 -55 -48 -49 -84 -111 -116 -202 -8 -21 -14 -42 -14 -47
0 -10 36 -7 46 4 13 13 44 8 38 -6 -5 -15 -72 -39 -85 -31 -10 6 -30 -25 -65
-104 -22 -50 -25 -65 -14 -72 9 -6 4 -16 -21 -39 -23 -20 -29 -31 -18 -31 8 0
25 9 37 20 12 11 25 20 29 20 5 0 20 11 35 25 27 25 48 32 48 17 0 -4 -5 -13
-12 -20 -9 -9 -7 -12 10 -12 12 0 22 6 22 13 0 7 15 21 34 31 19 10 37 25 40
32 6 15 36 19 36 5 0 -5 -12 -18 -27 -29 l-27 -20 37 3 c20 2 50 13 67 25 16
12 34 19 39 16 5 -3 11 3 14 13 2 11 15 25 28 31 24 13 24 13 5 -9 -26 -29
-18 -33 24 -11 19 11 41 22 48 26 7 4 31 23 53 42 63 57 86 51 35 -8 l-21 -24
21 14 c12 8 43 32 70 52 51 39 72 34 33 -8 -30 -31 -19 -31 15 1 27 25 66 34
66 16 0 -14 63 9 74 27 6 10 10 11 15 3 5 -7 21 0 49 20 27 20 50 29 62 26 12
-3 20 0 20 7 0 19 33 46 56 46 16 0 15 -3 -9 -25 -30 -29 -34 -37 -13 -29 21
8 28 -12 10 -27 -13 -10 -17 -10 -24 0 -6 10 -9 9 -14 -6 -3 -11 -12 -20 -19
-20 -6 0 -61 -17 -121 -37 -86 -29 -111 -34 -117 -24 -7 10 -9 10 -9 1 0 -7
-17 -20 -37 -28 -35 -15 -162 -59 -173 -60 -3 0 -11 -4 -18 -9 -7 -4 -16 -6
-18 -3 -3 3 -26 -4 -51 -15 -24 -11 -57 -22 -71 -24 -32 -5 -71 -19 -129 -46
-23 -11 -47 -17 -53 -13 -5 3 -10 2 -10 -3 0 -6 -17 -13 -37 -17 -21 -3 -56
-14 -78 -24 -36 -16 -42 -24 -64 -87 -12 -38 -39 -100 -58 -139 -19 -38 -42
-86 -51 -105 -9 -19 -33 -62 -53 -95 -55 -93 -73 -155 -44 -155 35 0 91 53
177 168 50 67 94 122 98 122 4 0 11 11 14 25 4 14 11 25 16 25 6 0 10 6 10 14
0 8 11 24 25 37 13 13 25 27 25 31 0 4 16 32 35 62 53 84 86 110 80 64 -4 -34
-36 -108 -46 -108 -5 0 -9 -7 -9 -15 0 -8 -4 -15 -10 -15 -5 0 -10 -6 -10 -12
0 -7 -16 -30 -34 -50 -18 -21 -48 -60 -66 -88 -18 -27 -37 -50 -43 -50 -6 0
-7 -3 -4 -7 4 -3 2 -13 -5 -22 -6 -9 34 29 91 84 145 143 212 236 177 248 -6
2 -8 8 -4 12 4 4 15 2 24 -5 13 -12 17 -11 24 1 6 9 7 2 4 -21 -4 -21 5 -82
21 -155 15 -66 28 -147 30 -181 1 -34 5 -66 9 -72 3 -6 9 -50 12 -99 7 -119 6
-117 51 -97 21 9 43 17 50 18 7 1 16 5 19 9 4 4 14 7 22 7 8 0 33 9 56 19 98
45 206 91 215 91 5 0 48 18 95 40 48 22 109 46 135 54 27 8 80 28 119 45 39
17 77 31 85 31 22 0 43 30 62 90 10 30 24 68 32 83 9 19 11 32 5 40 -6 7 -13
35 -16 63 -16 145 -90 317 -157 362 -40 28 -48 42 -21 42 10 0 40 -17 66 -37
37 -29 56 -56 91 -127 24 -50 48 -113 53 -141 6 -27 18 -83 26 -123 9 -41 14
-78 10 -83 -3 -5 -1 -9 4 -9 6 0 14 -17 19 -37 8 -34 28 -49 43 -33 14 14 92
50 110 50 41 0 55 101 15 109 -11 2 -23 8 -28 15 -9 14 -6 136 4 136 4 0 8 -8
8 -17 0 -62 18 -126 32 -117 10 6 11 138 1 202 -6 46 -26 39 -41 -15 l-14 -48
-9 39 c-9 44 9 86 39 86 22 0 13 51 -24 132 -27 61 -92 138 -117 138 -7 0 -22
9 -35 21 -18 17 -25 18 -37 8 -12 -10 -17 -10 -27 0 -9 10 -5 18 20 39 26 21
35 39 43 81 11 62 8 72 -23 64 -12 -2 -29 -6 -37 -8 -8 -1 -37 -12 -63 -24
-27 -13 -51 -20 -54 -17 -4 3 -12 1 -20 -5 -7 -7 -27 -13 -43 -15 -17 -2 -44
-10 -60 -19 -16 -8 -36 -15 -44 -15 -8 0 -35 -7 -59 -15 -24 -8 -62 -16 -84
-18 -22 -2 -51 -11 -64 -21 -13 -9 -30 -16 -37 -16 -8 0 -64 -16 -125 -35 -62
-19 -126 -36 -143 -38 -17 -3 -44 -12 -60 -20 -16 -8 -48 -18 -69 -22 -22 -4
-55 -14 -74 -22 -18 -8 -51 -16 -72 -17 -21 0 -39 -4 -39 -8 0 -5 -7 -8 -15
-8 -8 0 -15 4 -15 8 0 10 45 32 65 32 7 0 55 13 105 30 50 16 96 30 102 30 32
0 218 67 221 80 3 8 8 23 12 33 5 13 -15 6 -79 -28 -96 -50 -124 -55 -151 -25
-16 18 -17 23 -5 45 7 14 17 25 22 25 4 0 8 6 8 13 0 16 51 67 67 67 6 0 17 9
24 21 17 25 105 41 97 18 -3 -8 -16 -16 -29 -19 -30 -6 -89 -41 -89 -53 0 -4
-13 -22 -30 -40 -29 -31 -40 -67 -20 -67 13 0 94 46 152 86 49 33 100 50 118
39 6 -4 0 -24 -15 -53 -23 -43 -24 -47 -7 -53 9 -4 24 0 33 7 8 8 22 14 31 14
8 0 41 9 74 20 32 11 74 22 94 24 19 1 45 8 57 14 12 7 31 12 42 12 11 0 66
16 123 35 145 48 172 59 180 70 4 6 6 69 3 140 -3 103 -11 155 -36 250 -17 66
-33 130 -36 142 -7 29 -21 33 -60 16z"/>
<path d="M5145 2310 c-8 -13 -126 -70 -145 -70 -8 -1 -25 -9 -38 -20 -19 -16
-23 -27 -20 -62 2 -24 8 -43 15 -43 6 0 15 -3 19 -7 4 -5 2 -8 -4 -8 -7 0 -12
-7 -12 -15 0 -21 29 -19 37 3 12 30 61 74 69 60 4 -6 -3 -20 -17 -31 l-24 -20
28 7 c16 4 42 23 59 42 23 26 38 34 57 32 26 -3 26 -2 29 67 3 69 2 71 -22 73
-14 1 -28 -3 -31 -8z"/>
<path d="M5487 2162 c-3 -20 -12 -86 -19 -147 -13 -107 -14 -139 -9 -355 2
-119 -1 -154 -18 -174 -6 -7 -10 -28 -9 -45 2 -28 4 -30 14 -16 11 15 13 15
17 -2 4 -14 5 -14 6 5 0 12 -4 22 -10 22 -8 0 -7 5 1 15 9 10 16 73 22 178 4
89 12 198 18 242 5 44 8 111 7 148 -1 37 1 67 6 67 4 0 7 9 7 21 0 13 -4 18
-12 14 -7 -4 -5 0 5 8 12 10 15 20 10 33 -13 32 -30 25 -36 -14z"/>
<path d="M4810 2149 c-8 -5 -40 -16 -70 -25 -30 -9 -62 -22 -70 -29 -8 -7 -31
-16 -50 -20 -19 -4 -64 -21 -100 -37 -72 -34 -135 -60 -225 -92 -33 -12 -65
-25 -71 -28 -6 -4 -37 -17 -70 -29 -32 -12 -63 -25 -68 -30 -6 -5 -19 -9 -30
-9 -12 0 -30 -7 -40 -15 -11 -8 -28 -15 -38 -15 -20 0 -23 -6 -33 -64 -5 -33
-4 -38 10 -33 9 4 18 1 21 -8 5 -13 9 -13 27 0 12 8 31 15 42 14 14 0 16 -2 5
-6 -8 -4 -20 -13 -26 -21 -6 -8 -25 -15 -42 -16 -30 -1 -41 -9 -24 -19 9 -6
93 22 112 37 8 7 31 19 50 27 19 7 51 30 71 51 21 22 45 38 59 38 12 0 38 14
57 30 34 30 53 38 53 22 0 -16 -38 -44 -50 -37 -6 3 -9 1 -8 -7 2 -7 -3 -12
-9 -10 -7 1 -13 -5 -13 -14 0 -9 3 -14 8 -12 61 28 131 71 136 84 5 13 9 14
22 3 13 -10 17 -10 24 0 4 8 13 10 19 7 15 -9 103 33 95 45 -5 9 74 89 89 89
27 0 -18 -61 -53 -72 -9 -3 -10 -7 -3 -11 6 -4 27 4 47 18 20 14 46 25 56 25
14 0 20 7 20 21 0 14 5 19 14 16 17 -7 52 40 71 93 15 41 9 55 -15 39z"/>
<path d="M4717 1929 c-9 -5 -22 -7 -27 -4 -6 3 -10 3 -10 -2 0 -4 -12 -13 -27
-20 -102 -43 -164 -67 -203 -80 -25 -8 -61 -23 -81 -34 -20 -10 -44 -19 -53
-19 -9 0 -16 -4 -16 -8 0 -4 -21 -14 -47 -21 -27 -8 -55 -18 -63 -22 -71 -36
-148 -70 -160 -72 -8 -2 -21 -6 -27 -10 -7 -5 -18 -5 -25 -1 -6 4 -8 3 -4 -4
3 -6 -2 -13 -13 -17 -19 -6 -31 -32 -31 -72 0 -12 -5 -34 -12 -50 -6 -15 -11
-33 -10 -38 1 -6 -9 -23 -23 -39 -21 -25 -25 -39 -25 -98 0 -53 3 -68 15 -68
8 0 34 -19 57 -43 36 -36 55 -45 118 -61 149 -36 193 -32 282 28 57 38 62 47
43 92 -23 56 -59 65 -238 60 -84 -3 -168 -10 -187 -15 -66 -20 -75 -10 -15 16
57 25 68 27 236 27 l177 1 45 -32 45 -33 28 43 c15 23 27 44 27 47 0 3 26 55
58 115 83 158 209 445 196 445 -7 0 -20 -5 -30 -11z"/>
</g>
</svg>
