<?xml version="1.0" encoding="utf-8"?>
<!-- Generator: Adobe Illustrator 22.0.1, SVG Export Plug-In . SVG Version: 6.00 Build 0)  -->
<svg version="1.1" id="Calque_1" xmlns="http://www.w3.org/2000/svg" xmlns:xlink="http://www.w3.org/1999/xlink" x="0px" y="0px"
	 viewBox="0 0 265.6 93.1" style="enable-background:new 0 0 265.6 93.1;" xml:space="preserve">
<style type="text/css">
	.st0{fill:#2C3E6E;}
	.st1{fill:#BA484C;}
	.st2{fill:#5071AE;}
	.st3{fill:#CE3D30;}
	.st4{fill:#CE3F31;}
</style>
<g>
	<path class="st0" d="M120.6,15h-8v7h9.2v1.2h-10.6V6.1h10.6v1.2h-9.1v6.4h8V15z M117.7,1.6h1.7l-2.7,3.3h-1.2L117.7,1.6z"/>
	<path class="st0" d="M129,22.2c0.4,0,0.9-0.1,1.3-0.2s0.8-0.3,1.1-0.6s0.6-0.6,0.8-0.9s0.3-0.8,0.4-1.3h1.3c0,0.6-0.2,1.2-0.5,1.7
		s-0.6,0.9-1.1,1.3s-1,0.7-1.5,0.9s-1.2,0.3-1.8,0.3c-0.9,0-1.7-0.2-2.3-0.5s-1.2-0.8-1.7-1.3s-0.8-1.2-1-2s-0.3-1.6-0.3-2.5v-0.5
		c0-0.9,0.1-1.7,0.3-2.5s0.6-1.4,1-2s1-1,1.7-1.3s1.5-0.5,2.3-0.5c0.7,0,1.3,0.1,1.9,0.3s1.1,0.5,1.5,0.9s0.8,0.9,1,1.4
		s0.4,1.2,0.4,1.9h-1.3c0-0.5-0.1-1-0.3-1.4s-0.4-0.8-0.8-1s-0.7-0.5-1.1-0.7s-0.9-0.2-1.3-0.2c-0.7,0-1.3,0.1-1.8,0.4
		s-0.9,0.7-1.2,1.1s-0.6,1-0.7,1.6s-0.2,1.3-0.2,1.9v0.5c0,0.7,0.1,1.3,0.2,2s0.4,1.2,0.7,1.6s0.7,0.8,1.2,1.1S128.3,22.2,129,22.2z
		"/>
	<path class="st0" d="M135.9,16.7c0-0.9,0.1-1.8,0.4-2.6s0.7-1.5,1.1-2s1.1-1,1.8-1.3s1.5-0.5,2.3-0.5c0.9,0,1.7,0.2,2.3,0.5
		s1.3,0.8,1.8,1.3s0.9,1.2,1.1,2s0.4,1.6,0.4,2.6V17c0,0.9-0.1,1.8-0.4,2.6s-0.6,1.5-1.1,2s-1.1,1-1.8,1.3s-1.5,0.5-2.3,0.5
		s-1.6-0.2-2.3-0.5s-1.3-0.8-1.8-1.3s-0.9-1.2-1.1-2s-0.4-1.6-0.4-2.6V16.7z M137.3,17c0,0.7,0.1,1.4,0.3,2s0.5,1.2,0.8,1.7
		s0.8,0.8,1.3,1.1s1.1,0.4,1.8,0.4s1.3-0.1,1.8-0.4s1-0.7,1.3-1.1s0.6-1,0.8-1.7s0.3-1.3,0.3-2v-0.4c0-0.7-0.1-1.3-0.3-2
		s-0.5-1.2-0.8-1.7s-0.8-0.9-1.3-1.1s-1.1-0.4-1.8-0.4c-0.7,0-1.3,0.1-1.8,0.4s-1,0.7-1.3,1.1s-0.6,1-0.8,1.7s-0.3,1.3-0.3,2V17z"/>
	<path class="st0" d="M151.7,23.2h-1.4v-18h1.4V23.2z"/>
	<path class="st0" d="M160.4,23.4c-0.8,0-1.6-0.2-2.3-0.5s-1.3-0.7-1.8-1.3s-0.9-1.2-1.2-2s-0.4-1.6-0.4-2.5v-0.5
		c0-1,0.1-1.9,0.4-2.7s0.7-1.5,1.2-2s1.1-1,1.7-1.3s1.3-0.5,2.1-0.5c0.8,0,1.5,0.1,2.1,0.4s1.2,0.7,1.6,1.2s0.7,1.1,1,1.8
		s0.3,1.5,0.3,2.3v0.9h-9v0.3c0,0.7,0.1,1.3,0.3,2s0.5,1.1,0.9,1.6s0.8,0.8,1.4,1.1s1.1,0.4,1.8,0.4c0.8,0,1.4-0.1,2-0.4
		s1.1-0.7,1.6-1.3l0.9,0.7c-0.2,0.3-0.5,0.6-0.7,0.9s-0.6,0.5-1,0.7s-0.8,0.4-1.2,0.5S161,23.4,160.4,23.4z M160.2,11.5
		c-0.5,0-1,0.1-1.5,0.3s-0.9,0.5-1.2,0.9s-0.6,0.8-0.9,1.4s-0.4,1.1-0.5,1.8h7.6v-0.2c0-0.5-0.1-1-0.3-1.5s-0.4-0.9-0.7-1.3
		s-0.7-0.7-1.1-0.9S160.8,11.5,160.2,11.5z"/>
	<path class="st0" d="M183.9,17c0,1-0.1,1.8-0.3,2.6s-0.5,1.5-0.9,2s-0.9,1-1.5,1.3s-1.3,0.5-2,0.5c-0.9,0-1.7-0.2-2.3-0.5
		s-1.2-0.8-1.6-1.3v6.5h-1.4V10.5h1.3l0.1,1.8c0.4-0.6,1-1.1,1.6-1.5s1.4-0.5,2.3-0.5c0.8,0,1.5,0.2,2.1,0.5s1.1,0.7,1.5,1.3
		s0.7,1.2,0.9,2s0.3,1.7,0.3,2.7V17z M182.5,16.7c0-0.7-0.1-1.4-0.2-2.1s-0.4-1.2-0.7-1.7s-0.7-0.8-1.2-1.1s-1-0.4-1.7-0.4
		c-0.5,0-1,0.1-1.3,0.2s-0.7,0.3-1,0.5s-0.5,0.5-0.8,0.8s-0.4,0.6-0.5,0.9V20c0.1,0.3,0.3,0.6,0.6,0.9s0.5,0.5,0.8,0.7
		s0.6,0.4,1,0.5s0.8,0.2,1.3,0.2c0.6,0,1.2-0.1,1.7-0.4s0.9-0.6,1.2-1.1s0.5-1,0.7-1.7s0.2-1.3,0.2-2.1V16.7z"/>
	<path class="st0" d="M195.2,21.6c-0.4,0.6-0.9,1-1.6,1.4s-1.5,0.5-2.5,0.5c-0.6,0-1.2-0.1-1.7-0.3s-0.9-0.5-1.3-0.8
		s-0.7-0.9-0.8-1.5s-0.3-1.3-0.3-2.2v-8.1h1.4v8.1c0,0.7,0.1,1.2,0.2,1.7s0.4,0.8,0.6,1.1s0.6,0.5,0.9,0.6s0.7,0.2,1.1,0.2
		c0.6,0,1.1-0.1,1.5-0.2s0.8-0.3,1.1-0.5s0.6-0.5,0.8-0.8s0.4-0.6,0.5-1v-9.2h1.4v12.7h-1.4L195.2,21.6z"/>
	<path class="st0" d="M210.4,17c0,1-0.1,1.8-0.3,2.6s-0.5,1.5-0.9,2s-0.9,1-1.5,1.3s-1.3,0.5-2.1,0.5c-0.9,0-1.7-0.2-2.4-0.5
		s-1.2-0.8-1.6-1.4l-0.1,1.7h-1.3v-18h1.4v7.2c0.4-0.7,1-1.2,1.6-1.5s1.4-0.5,2.4-0.5c0.8,0,1.5,0.2,2.1,0.5s1.1,0.7,1.5,1.3
		s0.7,1.2,0.9,2s0.3,1.7,0.3,2.7V17z M209,16.7c0-0.7-0.1-1.4-0.2-2.1s-0.4-1.2-0.7-1.7s-0.7-0.8-1.2-1.1s-1-0.4-1.7-0.4
		c-0.5,0-1,0.1-1.4,0.2s-0.8,0.3-1.1,0.6s-0.5,0.5-0.8,0.8s-0.4,0.6-0.5,1v5.7c0.1,0.3,0.3,0.7,0.6,0.9s0.5,0.5,0.8,0.8
		s0.7,0.4,1,0.5s0.8,0.2,1.3,0.2c0.6,0,1.2-0.1,1.6-0.4s0.8-0.6,1.2-1.1s0.5-1,0.7-1.7s0.2-1.3,0.2-2.1V16.7z"/>
	<path class="st0" d="M215.1,23.2h-1.4v-18h1.4V23.2z"/>
	<path class="st0" d="M218.8,6.8c0-0.3,0.1-0.5,0.3-0.7s0.4-0.3,0.7-0.3s0.5,0.1,0.7,0.3s0.3,0.4,0.3,0.7s-0.1,0.5-0.3,0.7
		s-0.4,0.3-0.7,0.3s-0.5-0.1-0.7-0.3S218.8,7.1,218.8,6.8z M220.5,23.2h-1.4V10.5h1.4V23.2z"/>
	<path class="st0" d="M223.7,16.7c0-1,0.1-1.9,0.3-2.7s0.5-1.5,1-2s0.9-1,1.5-1.3s1.3-0.5,2.1-0.5c0.9,0,1.7,0.2,2.3,0.5
		s1.2,0.8,1.6,1.4l0.1-1.7h1.3v17.6h-1.4v-6.4c-0.4,0.6-1,1-1.6,1.3s-1.4,0.5-2.3,0.5c-0.8,0-1.5-0.2-2.1-0.5s-1.1-0.8-1.5-1.3
		s-0.7-1.2-1-2s-0.3-1.7-0.3-2.6V16.7z M225.1,17c0,0.7,0.1,1.4,0.2,2.1s0.4,1.2,0.7,1.7s0.7,0.8,1.2,1.1s1,0.4,1.7,0.4
		c0.5,0,0.9-0.1,1.3-0.2s0.7-0.3,1-0.5s0.6-0.4,0.8-0.7s0.4-0.6,0.6-0.9v-6.2c-0.1-0.3-0.3-0.6-0.5-0.9s-0.5-0.5-0.8-0.8
		s-0.6-0.4-1-0.5s-0.8-0.2-1.3-0.2c-0.6,0-1.2,0.1-1.7,0.4s-0.9,0.6-1.2,1.1s-0.5,1-0.7,1.7s-0.2,1.3-0.2,2.1V17z"/>
	<path class="st0" d="M245.8,21.6c-0.4,0.6-0.9,1-1.6,1.4s-1.5,0.5-2.5,0.5c-0.6,0-1.2-0.1-1.7-0.3s-0.9-0.5-1.3-0.8
		s-0.7-0.9-0.8-1.5s-0.3-1.3-0.3-2.2v-8.1h1.4v8.1c0,0.7,0.1,1.2,0.2,1.7s0.4,0.8,0.6,1.1s0.6,0.5,0.9,0.6s0.7,0.2,1.1,0.2
		c0.6,0,1.1-0.1,1.5-0.2s0.8-0.3,1.1-0.5s0.6-0.5,0.8-0.8s0.4-0.6,0.5-1v-9.2h1.4v12.7h-1.4L245.8,21.6z"/>
	<path class="st0" d="M255.8,23.4c-0.8,0-1.6-0.2-2.3-0.5s-1.3-0.7-1.8-1.3s-0.9-1.2-1.2-2s-0.4-1.6-0.4-2.5v-0.5
		c0-1,0.1-1.9,0.4-2.7s0.7-1.5,1.2-2s1.1-1,1.7-1.3s1.3-0.5,2.1-0.5c0.8,0,1.5,0.1,2.1,0.4s1.2,0.7,1.6,1.2s0.7,1.1,1,1.8
		s0.3,1.5,0.3,2.3v0.9h-9v0.3c0,0.7,0.1,1.3,0.3,2s0.5,1.1,0.9,1.6s0.8,0.8,1.4,1.1s1.1,0.4,1.8,0.4c0.8,0,1.4-0.1,2-0.4
		s1.1-0.7,1.6-1.3l0.9,0.7c-0.2,0.3-0.5,0.6-0.7,0.9s-0.6,0.5-1,0.7s-0.8,0.4-1.2,0.5S256.3,23.4,255.8,23.4z M255.5,11.5
		c-0.5,0-1,0.1-1.5,0.3s-0.9,0.5-1.2,0.9s-0.6,0.8-0.9,1.4s-0.4,1.1-0.5,1.8h7.6v-0.2c0-0.5-0.1-1-0.3-1.5s-0.4-0.9-0.7-1.3
		s-0.7-0.7-1.1-0.9S256.1,11.5,255.5,11.5z"/>
	<path class="st0" d="M110.3,45.5c0-1,0.1-1.9,0.3-2.7s0.6-1.5,1-2s0.9-1,1.5-1.3s1.3-0.5,2-0.5c0.9,0,1.7,0.2,2.3,0.5
		s1.2,0.9,1.6,1.5V34h1.4v18h-1.3l-0.1-1.7c-0.4,0.6-1,1.1-1.6,1.4s-1.4,0.5-2.3,0.5c-0.8,0-1.4-0.2-2-0.5s-1.1-0.8-1.5-1.3
		s-0.7-1.2-1-2s-0.3-1.7-0.3-2.6V45.5z M111.7,45.8c0,0.7,0.1,1.4,0.2,2.1s0.4,1.2,0.7,1.7s0.7,0.8,1.2,1.1s1,0.4,1.7,0.4
		c0.5,0,0.9-0.1,1.3-0.2s0.7-0.3,1-0.5s0.6-0.4,0.8-0.7s0.4-0.6,0.6-0.9v-6c-0.1-0.3-0.3-0.6-0.5-0.9s-0.5-0.6-0.8-0.8
		s-0.6-0.4-1-0.6s-0.8-0.2-1.4-0.2c-0.6,0-1.2,0.1-1.7,0.4s-0.9,0.6-1.2,1.1s-0.5,1-0.7,1.7s-0.2,1.3-0.2,2.1V45.8z"/>
	<path class="st0" d="M129.1,52.2c-0.8,0-1.6-0.2-2.3-0.5s-1.3-0.7-1.8-1.3s-0.9-1.2-1.2-2s-0.4-1.6-0.4-2.5v-0.5
		c0-1,0.1-1.9,0.4-2.7s0.7-1.5,1.2-2s1.1-1,1.7-1.3s1.3-0.5,2.1-0.5c0.8,0,1.5,0.1,2.1,0.4s1.2,0.7,1.6,1.2s0.7,1.1,1,1.8
		s0.3,1.5,0.3,2.3v0.9h-9V46c0,0.7,0.1,1.3,0.3,2s0.5,1.1,0.9,1.6s0.8,0.8,1.4,1.1s1.1,0.4,1.8,0.4c0.8,0,1.4-0.1,2-0.4
		s1.1-0.7,1.6-1.3l0.9,0.7c-0.2,0.3-0.5,0.6-0.7,0.9s-0.6,0.5-1,0.7s-0.8,0.4-1.2,0.5S129.7,52.2,129.1,52.2z M128.9,40.3
		c-0.5,0-1,0.1-1.5,0.3s-0.9,0.5-1.2,0.9s-0.6,0.8-0.9,1.4s-0.4,1.1-0.5,1.8h7.6v-0.2c0-0.5-0.1-1-0.3-1.5s-0.4-0.9-0.7-1.3
		s-0.7-0.7-1.1-0.9S129.5,40.3,128.9,40.3z"/>
	<path class="st1" d="M144,39.3v14.2c0,1.2-0.3,2.1-0.8,2.7s-1.4,0.9-2.5,0.9c-0.2,0-0.4,0-0.6-0.1s-0.4-0.1-0.6-0.2l0-1.2
		c0.1,0,0.3,0.1,0.5,0.1s0.4,0,0.6,0c0.7,0,1.2-0.2,1.5-0.6s0.5-1,0.5-1.8V39.3H144z M142.3,35.6c0-0.3,0.1-0.5,0.3-0.7
		s0.4-0.3,0.7-0.3c0.3,0,0.5,0.1,0.7,0.3s0.3,0.4,0.3,0.7s-0.1,0.5-0.3,0.7s-0.4,0.3-0.7,0.3c-0.3,0-0.5-0.1-0.7-0.3
		S142.3,35.9,142.3,35.6z"/>
	<path class="st1" d="M147.2,45.5c0-0.9,0.1-1.8,0.4-2.6s0.7-1.5,1.1-2s1.1-1,1.8-1.3s1.5-0.5,2.3-0.5c0.9,0,1.7,0.2,2.3,0.5
		s1.3,0.8,1.8,1.3s0.9,1.2,1.1,2s0.4,1.6,0.4,2.6v0.4c0,0.9-0.1,1.8-0.4,2.6s-0.6,1.5-1.1,2s-1.1,1-1.8,1.3s-1.5,0.5-2.3,0.5
		s-1.6-0.2-2.3-0.5s-1.3-0.8-1.8-1.3s-0.9-1.2-1.1-2s-0.4-1.6-0.4-2.6V45.5z M148.6,45.8c0,0.7,0.1,1.4,0.3,2s0.5,1.2,0.8,1.7
		s0.8,0.8,1.3,1.1s1.1,0.4,1.8,0.4s1.3-0.1,1.8-0.4s1-0.7,1.3-1.1s0.6-1,0.8-1.7s0.3-1.3,0.3-2v-0.4c0-0.7-0.1-1.3-0.3-2
		s-0.5-1.2-0.8-1.7s-0.8-0.9-1.3-1.1s-1.1-0.4-1.8-0.4c-0.7,0-1.3,0.1-1.8,0.4s-1,0.7-1.3,1.1s-0.6,1-0.8,1.7s-0.3,1.3-0.3,2V45.8z"
		/>
	<path class="st1" d="M169.5,50.4c-0.4,0.6-0.9,1-1.6,1.4s-1.5,0.5-2.5,0.5c-0.6,0-1.2-0.1-1.7-0.3s-0.9-0.5-1.3-0.8
		s-0.7-0.9-0.8-1.5s-0.3-1.3-0.3-2.2v-8.1h1.4v8.1c0,0.7,0.1,1.2,0.2,1.7s0.4,0.8,0.6,1.1s0.6,0.5,0.9,0.6s0.7,0.2,1.1,0.2
		c0.6,0,1.1-0.1,1.5-0.2s0.8-0.3,1.1-0.5s0.6-0.5,0.8-0.8s0.4-0.6,0.5-1v-9.2h1.4V52h-1.4L169.5,50.4z"/>
	<path class="st1" d="M180.4,40.5c-0.3-0.1-0.6-0.1-0.9-0.1c-0.5,0-0.9,0.1-1.3,0.2s-0.7,0.3-1,0.6s-0.5,0.6-0.7,0.9
		s-0.4,0.7-0.5,1.2V52h-1.4V39.3h1.4l0,2c0.3-0.7,0.8-1.2,1.4-1.6s1.3-0.6,2.2-0.6c0.2,0,0.3,0,0.5,0s0.3,0.1,0.4,0.1L180.4,40.5z"
		/>
	<path class="st1" d="M184,39.3l0,2.2c0.2-0.4,0.5-0.7,0.8-1s0.6-0.6,1-0.8s0.7-0.4,1.1-0.5s0.8-0.2,1.3-0.2c0.6,0,1.2,0.1,1.7,0.3
		s0.9,0.4,1.3,0.8s0.6,0.9,0.8,1.4s0.3,1.3,0.3,2.1V52h-1.4v-8.3c0-0.7-0.1-1.2-0.2-1.6s-0.3-0.8-0.6-1.1s-0.6-0.5-0.9-0.6
		s-0.8-0.2-1.2-0.2c-0.5,0-1,0.1-1.4,0.3s-0.8,0.4-1.1,0.7s-0.6,0.6-0.8,1s-0.4,0.7-0.5,1.1V52h-1.4V39.3H184z"/>
	<path class="st1" d="M203.8,52c-0.1-0.2-0.1-0.5-0.2-0.8s-0.1-0.6-0.1-1c-0.2,0.3-0.5,0.5-0.8,0.8s-0.6,0.5-1,0.6s-0.8,0.3-1.2,0.4
		s-0.9,0.2-1.4,0.2c-0.6,0-1.2-0.1-1.7-0.3s-0.9-0.4-1.3-0.8s-0.6-0.7-0.8-1.1s-0.3-0.9-0.3-1.4c0-0.6,0.1-1.2,0.4-1.7
		s0.6-0.9,1.1-1.3s1.1-0.6,1.8-0.8s1.5-0.3,2.4-0.3h2.6v-1.4c0-0.9-0.3-1.6-0.8-2.1s-1.4-0.8-2.4-0.8c-0.5,0-0.9,0.1-1.4,0.2
		s-0.8,0.3-1.1,0.6s-0.5,0.5-0.7,0.8s-0.3,0.6-0.3,1l-1.4,0c0-0.5,0.1-0.9,0.4-1.4s0.6-0.8,1-1.2s0.9-0.6,1.5-0.8s1.3-0.3,2-0.3
		c0.7,0,1.3,0.1,1.9,0.3s1.1,0.4,1.5,0.8s0.7,0.8,0.9,1.3s0.3,1.1,0.3,1.8v6.1c0,0.2,0,0.4,0,0.7s0,0.5,0.1,0.7s0.1,0.4,0.1,0.6
		s0.1,0.4,0.2,0.5V52H203.8z M199.4,51c0.5,0,1-0.1,1.4-0.2s0.8-0.3,1.2-0.5s0.7-0.5,0.9-0.8s0.5-0.6,0.6-1v-2.8h-2.4
		c-0.7,0-1.4,0.1-1.9,0.2s-1,0.3-1.4,0.6s-0.7,0.5-0.9,0.9s-0.3,0.7-0.3,1.2c0,0.3,0.1,0.7,0.2,1s0.3,0.6,0.6,0.8s0.5,0.4,0.9,0.5
		S199,51,199.4,51z"/>
	<path class="st1" d="M210.2,52h-1.4V34h1.4V52z"/>
	<path class="st1" d="M214,35.6c0-0.3,0.1-0.5,0.3-0.7s0.4-0.3,0.7-0.3s0.5,0.1,0.7,0.3s0.3,0.4,0.3,0.7s-0.1,0.5-0.3,0.7
		s-0.4,0.3-0.7,0.3s-0.5-0.1-0.7-0.3S214,35.9,214,35.6z M215.6,52h-1.4V39.3h1.4V52z"/>
	<path class="st1" d="M227,48.8c0-0.3,0-0.5-0.1-0.8s-0.3-0.5-0.5-0.7s-0.6-0.4-1-0.6s-1-0.4-1.7-0.5s-1.3-0.3-1.9-0.5
		s-1-0.4-1.4-0.7s-0.7-0.6-0.9-1s-0.3-0.8-0.3-1.3c0-0.5,0.1-0.9,0.3-1.3s0.5-0.8,0.9-1.1s0.9-0.6,1.4-0.7s1.2-0.3,1.9-0.3
		c0.7,0,1.4,0.1,2,0.3s1.1,0.5,1.5,0.8s0.7,0.7,0.9,1.2s0.3,1,0.3,1.5H227c0-0.3-0.1-0.6-0.2-1s-0.4-0.6-0.6-0.8s-0.6-0.4-1-0.6
		s-0.9-0.2-1.4-0.2c-0.5,0-1,0.1-1.4,0.2s-0.7,0.3-0.9,0.5s-0.4,0.4-0.5,0.7s-0.2,0.5-0.2,0.8c0,0.3,0,0.5,0.1,0.8s0.3,0.4,0.5,0.6
		s0.6,0.4,1,0.6s1,0.3,1.7,0.5c0.8,0.2,1.4,0.4,2,0.6s1,0.5,1.4,0.8s0.6,0.6,0.8,1s0.3,0.8,0.3,1.3c0,0.5-0.1,1-0.3,1.4
		s-0.5,0.8-0.9,1.1s-0.9,0.5-1.5,0.7s-1.2,0.3-1.9,0.3c-0.8,0-1.5-0.1-2.1-0.3s-1.1-0.5-1.6-0.8s-0.7-0.8-1-1.2s-0.3-0.9-0.3-1.4
		h1.4c0,0.5,0.2,0.9,0.4,1.2s0.5,0.6,0.8,0.8s0.7,0.3,1.1,0.4s0.8,0.1,1.2,0.1c0.5,0,1-0.1,1.4-0.2s0.7-0.3,1-0.5s0.5-0.5,0.6-0.7
		S227,49.1,227,48.8z"/>
	<path class="st1" d="M232.9,39.3l0,2.1c0.2-0.3,0.5-0.7,0.7-0.9s0.6-0.5,0.9-0.7s0.7-0.4,1.1-0.5s0.8-0.2,1.3-0.2
		c0.9,0,1.7,0.2,2.4,0.6s1.1,1,1.4,1.9c0.2-0.4,0.4-0.7,0.7-1s0.6-0.6,1-0.8s0.8-0.4,1.2-0.5s0.9-0.2,1.4-0.2c0.7,0,1.2,0.1,1.8,0.3
		s1,0.5,1.3,0.8s0.6,0.9,0.8,1.4s0.3,1.3,0.3,2.1V52h-1.4v-8.3c0-0.7-0.1-1.2-0.2-1.7s-0.4-0.8-0.6-1.1s-0.6-0.4-1-0.5
		s-0.8-0.2-1.2-0.2c-0.6,0-1.1,0.1-1.6,0.3s-0.8,0.5-1.1,0.8s-0.5,0.7-0.7,1.1s-0.3,0.8-0.3,1.1V52h-1.4v-8.4c0-0.6-0.1-1.2-0.2-1.6
		s-0.4-0.8-0.6-1s-0.6-0.4-1-0.6s-0.8-0.2-1.3-0.2c-0.5,0-1,0.1-1.4,0.3s-0.8,0.4-1.1,0.7s-0.5,0.6-0.7,1s-0.4,0.7-0.5,1.1V52h-1.4
		V39.3H232.9z"/>
	<path class="st1" d="M257.8,52.2c-0.8,0-1.6-0.2-2.3-0.5s-1.3-0.7-1.8-1.3s-0.9-1.2-1.2-2s-0.4-1.6-0.4-2.5v-0.5
		c0-1,0.1-1.9,0.4-2.7s0.7-1.5,1.2-2s1.1-1,1.7-1.3s1.3-0.5,2.1-0.5c0.8,0,1.5,0.1,2.1,0.4s1.2,0.7,1.6,1.2s0.7,1.1,1,1.8
		s0.3,1.5,0.3,2.3v0.9h-9V46c0,0.7,0.1,1.3,0.3,2s0.5,1.1,0.9,1.6s0.8,0.8,1.4,1.1s1.1,0.4,1.8,0.4c0.8,0,1.4-0.1,2-0.4
		s1.1-0.7,1.6-1.3l0.9,0.7c-0.2,0.3-0.5,0.6-0.7,0.9s-0.6,0.5-1,0.7s-0.8,0.4-1.2,0.5S258.3,52.2,257.8,52.2z M257.5,40.3
		c-0.5,0-1,0.1-1.5,0.3s-0.9,0.5-1.2,0.9s-0.6,0.8-0.9,1.4s-0.4,1.1-0.5,1.8h7.6v-0.2c0-0.5-0.1-1-0.3-1.5s-0.4-0.9-0.7-1.3
		s-0.7-0.7-1.1-0.9S258.1,40.3,257.5,40.3z"/>
	<path class="st0" d="M110.3,74.3c0-1,0.1-1.9,0.3-2.7s0.6-1.5,1-2s0.9-1,1.5-1.3s1.3-0.5,2-0.5c0.9,0,1.7,0.2,2.3,0.5
		s1.2,0.9,1.6,1.5v-7.1h1.4v18h-1.3l-0.1-1.7c-0.4,0.6-1,1.1-1.6,1.4s-1.4,0.5-2.3,0.5c-0.8,0-1.4-0.2-2-0.5s-1.1-0.8-1.5-1.3
		s-0.7-1.2-1-2s-0.3-1.7-0.3-2.6V74.3z M111.7,74.6c0,0.7,0.1,1.4,0.2,2.1s0.4,1.2,0.7,1.7s0.7,0.8,1.2,1.1s1,0.4,1.7,0.4
		c0.5,0,0.9-0.1,1.3-0.2s0.7-0.3,1-0.5s0.6-0.4,0.8-0.7s0.4-0.6,0.6-0.9v-6c-0.1-0.3-0.3-0.6-0.5-0.9s-0.5-0.6-0.8-0.8
		s-0.6-0.4-1-0.6s-0.8-0.2-1.4-0.2c-0.6,0-1.2,0.1-1.7,0.4s-0.9,0.6-1.2,1.1s-0.5,1-0.7,1.7s-0.2,1.3-0.2,2.1V74.6z"/>
	<path class="st0" d="M129.1,81c-0.8,0-1.6-0.2-2.3-0.5s-1.3-0.7-1.8-1.3s-0.9-1.2-1.2-2s-0.4-1.6-0.4-2.5v-0.5c0-1,0.1-1.9,0.4-2.7
		s0.7-1.5,1.2-2s1.1-1,1.7-1.3s1.3-0.5,2.1-0.5c0.8,0,1.5,0.1,2.1,0.4s1.2,0.7,1.6,1.2s0.7,1.1,1,1.8s0.3,1.5,0.3,2.3v0.9h-9v0.3
		c0,0.7,0.1,1.3,0.3,2s0.5,1.1,0.9,1.6s0.8,0.8,1.4,1.1s1.1,0.4,1.8,0.4c0.8,0,1.4-0.1,2-0.4s1.1-0.7,1.6-1.3l0.9,0.7
		c-0.2,0.3-0.5,0.6-0.7,0.9s-0.6,0.5-1,0.7s-0.8,0.4-1.2,0.5S129.7,81,129.1,81z M128.9,69.1c-0.5,0-1,0.1-1.5,0.3s-0.9,0.5-1.2,0.9
		s-0.6,0.8-0.9,1.4s-0.4,1.1-0.5,1.8h7.6v-0.2c0-0.5-0.1-1-0.3-1.5s-0.4-0.9-0.7-1.3s-0.7-0.7-1.1-0.9S129.5,69.1,128.9,69.1z"/>
	<path class="st0" d="M153.9,65h-5.8v15.8h-1.4V65h-5.8v-1.2h13.1V65z"/>
	<path class="st0" d="M154.4,74.3c0-0.9,0.1-1.8,0.4-2.6s0.7-1.5,1.1-2s1.1-1,1.8-1.3s1.5-0.5,2.3-0.5c0.9,0,1.7,0.2,2.3,0.5
		s1.3,0.8,1.8,1.3s0.9,1.2,1.1,2s0.4,1.6,0.4,2.6v0.4c0,0.9-0.1,1.8-0.4,2.6s-0.6,1.5-1.1,2s-1.1,1-1.8,1.3s-1.5,0.5-2.3,0.5
		s-1.6-0.2-2.3-0.5s-1.3-0.8-1.8-1.3s-0.9-1.2-1.1-2s-0.4-1.6-0.4-2.6V74.3z M155.8,74.6c0,0.7,0.1,1.4,0.3,2s0.5,1.2,0.8,1.7
		s0.8,0.8,1.3,1.1s1.1,0.4,1.8,0.4s1.3-0.1,1.8-0.4s1-0.7,1.3-1.1s0.6-1,0.8-1.7s0.3-1.3,0.3-2v-0.4c0-0.7-0.1-1.3-0.3-2
		s-0.5-1.2-0.8-1.7s-0.8-0.9-1.3-1.1s-1.1-0.4-1.8-0.4c-0.7,0-1.3,0.1-1.8,0.4s-1,0.7-1.3,1.1s-0.6,1-0.8,1.7s-0.3,1.3-0.3,2V74.6z"
		/>
	<path class="st0" d="M176.8,79.2c-0.4,0.6-0.9,1-1.6,1.4s-1.5,0.5-2.5,0.5c-0.6,0-1.2-0.1-1.7-0.3s-0.9-0.5-1.3-0.8
		s-0.7-0.9-0.8-1.5s-0.3-1.3-0.3-2.2v-8.1h1.4v8.1c0,0.7,0.1,1.2,0.2,1.7s0.4,0.8,0.6,1.1s0.6,0.5,0.9,0.6s0.7,0.2,1.1,0.2
		c0.6,0,1.1-0.1,1.5-0.2s0.8-0.3,1.1-0.5s0.6-0.5,0.8-0.8s0.4-0.6,0.5-1v-9.2h1.4v12.7h-1.4L176.8,79.2z"/>
	<path class="st0" d="M187.6,69.3c-0.3-0.1-0.6-0.1-0.9-0.1c-0.5,0-0.9,0.1-1.3,0.2s-0.7,0.3-1,0.6s-0.5,0.6-0.7,0.9
		s-0.4,0.7-0.5,1.2v8.7h-1.4V68.1h1.4l0,2c0.3-0.7,0.8-1.2,1.4-1.6s1.3-0.6,2.2-0.6c0.2,0,0.3,0,0.5,0s0.3,0.1,0.4,0.1L187.6,69.3z"
		/>
	<path class="st0" d="M197.5,77.6c0-0.3,0-0.5-0.1-0.8s-0.3-0.5-0.5-0.7s-0.6-0.4-1-0.6s-1-0.4-1.7-0.5s-1.3-0.3-1.9-0.5
		s-1-0.4-1.4-0.7s-0.7-0.6-0.9-1s-0.3-0.8-0.3-1.3c0-0.5,0.1-0.9,0.3-1.3s0.5-0.8,0.9-1.1s0.9-0.6,1.4-0.7s1.2-0.3,1.9-0.3
		c0.7,0,1.4,0.1,2,0.3s1.1,0.5,1.5,0.8s0.7,0.7,0.9,1.2s0.3,1,0.3,1.5h-1.4c0-0.3-0.1-0.6-0.2-1s-0.4-0.6-0.6-0.8s-0.6-0.4-1-0.6
		s-0.9-0.2-1.4-0.2c-0.5,0-1,0.1-1.4,0.2s-0.7,0.3-0.9,0.5s-0.4,0.4-0.5,0.7S191,71,191,71.3c0,0.3,0,0.5,0.1,0.8s0.3,0.4,0.5,0.6
		s0.6,0.4,1,0.6s1,0.3,1.7,0.5c0.8,0.2,1.4,0.4,2,0.6s1,0.5,1.4,0.8s0.6,0.6,0.8,1s0.3,0.8,0.3,1.3c0,0.5-0.1,1-0.3,1.4
		s-0.5,0.8-0.9,1.1s-0.9,0.5-1.5,0.7s-1.2,0.3-1.9,0.3c-0.8,0-1.5-0.1-2.1-0.3s-1.1-0.5-1.6-0.8s-0.7-0.8-1-1.2s-0.3-0.9-0.3-1.4
		h1.4c0,0.5,0.2,0.9,0.4,1.2s0.5,0.6,0.8,0.8s0.7,0.3,1.1,0.4s0.8,0.1,1.2,0.1c0.5,0,1-0.1,1.4-0.2s0.7-0.3,1-0.5s0.5-0.5,0.6-0.7
		S197.5,77.9,197.5,77.6z"/>
</g>
<path class="st2" d="M26.8,79.5H5.7V42.7H26l-0.4,3.8l-12.9,0.2v12l12.1,0.2l-0.3,3.4l-11.8,0.3v13.2l14.3,0.3L26.8,79.5z"/>
<path class="st2" d="M41.2,62.4l1-0.2c0.9-0.2,1.8-0.5,2.6-0.8c0.8-0.3,1.5-0.8,2.1-1.5c0.6-0.7,1.1-1.5,1.4-2.6
	c0.3-1.1,0.5-2.4,0.5-4.1c0-2.5-0.6-4.3-1.7-5.4c-1.1-1.1-2.6-1.7-4.4-1.7c-0.5,0-0.9,0-1.4,0c-0.5,0-1,0.1-1.5,0.2v33.1h-7.1V42.9
	c0.7-0.1,1.6-0.1,2.4-0.2c0.9-0.1,1.8-0.1,2.7-0.1c0.9,0,1.9-0.1,2.8-0.1c0.9,0,1.9,0,2.7,0c2.2,0,4,0.2,5.6,0.7
	c1.6,0.5,2.9,1.2,3.9,2.1c1,0.9,1.8,2,2.3,3.3c0.5,1.3,0.8,2.8,0.8,4.4c0,1.7-0.3,3.3-0.8,4.8c-0.6,1.5-1.4,2.8-2.6,3.9
	c-1.2,1.1-2.6,2-4.4,2.6c-1.8,0.6-3.9,1-6.4,1h-0.3L41.2,62.4z"/>
<path class="st3" d="M69.2,76.7c0,3.8-0.9,6.9-2.7,9.2c-1.8,2.3-4.4,4.1-7.9,5.3l-1.2-2.3c1-0.6,1.7-1.2,2.4-2
	c0.6-0.7,1.1-1.5,1.4-2.3c0.3-0.8,0.6-1.7,0.7-2.7c0.1-0.9,0.2-2,0.2-3V42.7h7.1V76.7z"/>
<path class="st2" d="M84.6,79.5V46.6l-10.7-0.2l0.4-3.8h28.3l-0.4,3.6l-10.4,0.3v32.9H84.6z"/>
<path class="st3" d="M64.8,28.8c-2.4,0.8-3.6,3.4-2.8,5.8c0.8,2.4,3.4,3.6,5.8,2.8c2.4-0.8,3.6-3.4,2.8-5.8
	C69.8,29.2,67.2,27.9,64.8,28.8z"/>
<path class="st4" d="M62.1,9.6V5.2c0,0,31.6-1.7,32.4,30.3H90C90,35.5,91.1,9.5,62.1,9.6z"/>
<path class="st4" d="M62.1,16.8v-3.2c0,0,23.1-2,23.8,22h-3.4C82.5,35.6,83.3,16.4,62.1,16.8z"/>
<path class="st4" d="M62.1,23.5v-2.1c0,0,15-2.5,15.4,14.1h-2.1C75.4,35.6,76,22.1,62.1,23.5z"/>
</svg>
